<svg xmlns="http://www.w3.org/2000/svg" width="265" height="265" viewBox="0 0 265 265">
  <g id="Grupo_14192" data-name="Grupo 14192" transform="translate(-15029 1932.653)">
    <circle id="Elipse_873" data-name="Elipse 873" cx="132.5" cy="132.5" r="132.5" transform="translate(15029 -1932.653)" fill="#ffff3c"/>
    <path id="Trazado_22790" data-name="Trazado 22790" d="M3420.557,5444.591a2.146,2.146,0,0,1-.891,1.844,4.188,4.188,0,0,1-2.5.648,5.441,5.441,0,0,1-2.656-.539v-1.2a6.434,6.434,0,0,0,1.324.492,5.52,5.52,0,0,0,1.363.18,3.1,3.1,0,0,0,1.563-.325,1.115,1.115,0,0,0,.113-1.843,6.769,6.769,0,0,0-1.691-.84,9.209,9.209,0,0,1-1.7-.777,2.334,2.334,0,0,1-.75-.754,1.974,1.974,0,0,1-.246-1.008,1.925,1.925,0,0,1,.852-1.653,3.975,3.975,0,0,1,2.336-.6,6.833,6.833,0,0,1,2.7.563l-.461,1.054a6.207,6.207,0,0,0-2.336-.531,2.7,2.7,0,0,0-1.391.289.893.893,0,0,0-.468.8.97.97,0,0,0,.175.586,1.745,1.745,0,0,0,.567.461,13.056,13.056,0,0,0,1.5.633,5.6,5.6,0,0,1,2.058,1.117A1.97,1.97,0,0,1,3420.557,5444.591Z" transform="translate(11654.865 -7239.473)"/>
    <path id="Trazado_22791" data-name="Trazado 22791" d="M3426.283,5447.083a3.938,3.938,0,0,1-3-1.156,4.479,4.479,0,0,1-1.1-3.211,4.963,4.963,0,0,1,1.02-3.289,3.386,3.386,0,0,1,2.738-1.219,3.227,3.227,0,0,1,2.547,1.059,4.056,4.056,0,0,1,.938,2.793v.82h-5.9a3.4,3.4,0,0,0,.762,2.289,2.636,2.636,0,0,0,2.035.781,6.888,6.888,0,0,0,2.734-.578v1.156a6.754,6.754,0,0,1-1.3.426A7.322,7.322,0,0,1,3426.283,5447.083Zm-.351-7.789a2.118,2.118,0,0,0-1.645.672,3.1,3.1,0,0,0-.723,1.859h4.477a2.857,2.857,0,0,0-.547-1.879A1.928,1.928,0,0,0,3425.932,5439.294Z" transform="translate(11654.865 -7239.473)"/>
    <path id="Trazado_22792" data-name="Trazado 22792" d="M3435.549,5438.208a5.029,5.029,0,0,1,1.023.094l-.179,1.2a4.423,4.423,0,0,0-.938-.117,2.283,2.283,0,0,0-1.777.843,3.08,3.08,0,0,0-.739,2.1v4.594h-1.3v-8.563h1.07l.148,1.586h.063a3.752,3.752,0,0,1,1.148-1.289A2.589,2.589,0,0,1,3435.549,5438.208Z" transform="translate(11654.865 -7239.473)"/>
    <path id="Trazado_22793" data-name="Trazado 22793" d="M3440.049,5446.927l-3.25-8.563h1.39l1.844,5.078q.625,1.782.735,2.313h.062a17.577,17.577,0,0,1,.543-1.715q.457-1.3,2.051-5.676h1.39l-3.25,8.563Z" transform="translate(11654.865 -7239.473)"/>
    <path id="Trazado_22794" data-name="Trazado 22794" d="M3446.08,5436.044a.858.858,0,0,1,.219-.652.81.81,0,0,1,1.086,0,.844.844,0,0,1,.226.648.857.857,0,0,1-.226.652.756.756,0,0,1-.539.215.745.745,0,0,1-.547-.215A.874.874,0,0,1,3446.08,5436.044Zm1.406,10.883h-1.3v-8.563h1.3Z" transform="translate(11654.865 -7239.473)"/>
    <path id="Trazado_22795" data-name="Trazado 22795" d="M3453.658,5447.083a3.655,3.655,0,0,1-2.879-1.145,4.707,4.707,0,0,1-1.019-3.238,4.849,4.849,0,0,1,1.035-3.32,3.729,3.729,0,0,1,2.949-1.172,5.845,5.845,0,0,1,1.235.133,4.111,4.111,0,0,1,.968.312l-.4,1.1a6.083,6.083,0,0,0-.938-.285,4.21,4.21,0,0,0-.9-.114q-2.608,0-2.609,3.329a3.958,3.958,0,0,0,.636,2.421,2.216,2.216,0,0,0,1.887.844,5.751,5.751,0,0,0,2.2-.461v1.149A4.678,4.678,0,0,1,3453.658,5447.083Z" transform="translate(11654.865 -7239.473)"/>
    <path id="Trazado_22796" data-name="Trazado 22796" d="M3457.744,5436.044a.858.858,0,0,1,.219-.652.81.81,0,0,1,1.086,0,.844.844,0,0,1,.226.648.857.857,0,0,1-.226.652.756.756,0,0,1-.539.215.745.745,0,0,1-.547-.215A.874.874,0,0,1,3457.744,5436.044Zm1.406,10.883h-1.3v-8.563h1.3Z" transform="translate(11654.865 -7239.473)"/>
    <path id="Trazado_22797" data-name="Trazado 22797" d="M3469.291,5442.638a4.725,4.725,0,0,1-1.055,3.269,3.714,3.714,0,0,1-2.914,1.176,3.866,3.866,0,0,1-2.039-.539,3.554,3.554,0,0,1-1.375-1.547,5.388,5.388,0,0,1-.484-2.359,4.711,4.711,0,0,1,1.047-3.262,3.705,3.705,0,0,1,2.906-1.168,3.621,3.621,0,0,1,2.855,1.195A4.7,4.7,0,0,1,3469.291,5442.638Zm-6.523,0a4.066,4.066,0,0,0,.656,2.5,2.605,2.605,0,0,0,3.863,0,4.043,4.043,0,0,0,.66-2.5,3.975,3.975,0,0,0-.66-2.481,2.319,2.319,0,0,0-1.949-.847,2.282,2.282,0,0,0-1.922.836A4.016,4.016,0,0,0,3462.768,5442.638Z" transform="translate(11654.865 -7239.473)"/>
    <path id="Trazado_22798" data-name="Trazado 22798" d="M3477.088,5444.591a2.146,2.146,0,0,1-.891,1.844,4.184,4.184,0,0,1-2.5.648,5.443,5.443,0,0,1-2.656-.539v-1.2a6.456,6.456,0,0,0,1.324.492,5.522,5.522,0,0,0,1.364.18,3.093,3.093,0,0,0,1.562-.325,1.115,1.115,0,0,0,.113-1.843,6.769,6.769,0,0,0-1.691-.84,9.192,9.192,0,0,1-1.7-.777,2.334,2.334,0,0,1-.75-.754,1.974,1.974,0,0,1-.246-1.008,1.924,1.924,0,0,1,.851-1.653,3.977,3.977,0,0,1,2.336-.6,6.833,6.833,0,0,1,2.7.563l-.461,1.054a6.2,6.2,0,0,0-2.336-.531,2.694,2.694,0,0,0-1.39.289.892.892,0,0,0-.469.8.971.971,0,0,0,.176.586,1.73,1.73,0,0,0,.566.461,13.016,13.016,0,0,0,1.5.633,5.609,5.609,0,0,1,2.059,1.117A1.973,1.973,0,0,1,3477.088,5444.591Z" transform="translate(11654.865 -7239.473)"/>
    <path id="Trazado_22799" data-name="Trazado 22799" d="M3487.213,5439.372h-2.18v7.555h-1.3v-7.555h-1.531v-.586l1.531-.469v-.476q0-3.157,2.758-3.156a5.642,5.642,0,0,1,1.594.273l-.336,1.039a4.3,4.3,0,0,0-1.281-.242,1.248,1.248,0,0,0-1.086.488,2.718,2.718,0,0,0-.352,1.567v.554h2.18Zm1.453-3.328a.858.858,0,0,1,.219-.652.81.81,0,0,1,1.086,0,.843.843,0,0,1,.226.648.856.856,0,0,1-.226.652.756.756,0,0,1-.539.215.745.745,0,0,1-.547-.215A.874.874,0,0,1,3488.666,5436.044Zm1.406,10.883h-1.3v-8.563h1.3Z" transform="translate(11654.865 -7239.473)"/>
    <path id="Trazado_22800" data-name="Trazado 22800" d="M3498.682,5446.927v-5.539a2.238,2.238,0,0,0-.477-1.563,1.939,1.939,0,0,0-1.492-.515,2.462,2.462,0,0,0-1.969.726,3.667,3.667,0,0,0-.625,2.4v4.492h-1.3v-8.563h1.055l.211,1.172h.062a2.639,2.639,0,0,1,1.118-.98,3.623,3.623,0,0,1,1.6-.348,3.253,3.253,0,0,1,2.328.746,3.174,3.174,0,0,1,.782,2.387v5.586Z" transform="translate(11654.865 -7239.473)"/>
    <path id="Trazado_22801" data-name="Trazado 22801" d="M3507.908,5446.927l-.258-1.219h-.062a3.617,3.617,0,0,1-1.277,1.09,3.9,3.9,0,0,1-1.59.285,2.86,2.86,0,0,1-2-.656,2.392,2.392,0,0,1-.723-1.867q0-2.595,4.148-2.719l1.454-.047v-.531a2.174,2.174,0,0,0-.434-1.489,1.784,1.784,0,0,0-1.387-.48,5.659,5.659,0,0,0-2.422.656l-.4-.992a6.085,6.085,0,0,1,1.387-.539,6.017,6.017,0,0,1,1.511-.195,3.265,3.265,0,0,1,2.27.679,2.839,2.839,0,0,1,.738,2.18v5.844Zm-2.929-.914a2.636,2.636,0,0,0,1.9-.664,2.459,2.459,0,0,0,.691-1.86v-.773l-1.3.055a4.71,4.71,0,0,0-2.23.48,1.45,1.45,0,0,0-.684,1.324,1.338,1.338,0,0,0,.426,1.071A1.766,1.766,0,0,0,3504.979,5446.013Z" transform="translate(11654.865 -7239.473)"/>
    <path id="Trazado_22802" data-name="Trazado 22802" d="M3517.4,5446.927v-5.539a2.238,2.238,0,0,0-.476-1.563,1.942,1.942,0,0,0-1.492-.515,2.462,2.462,0,0,0-1.969.726,3.667,3.667,0,0,0-.625,2.4v4.492h-1.3v-8.563h1.055l.211,1.172h.062a2.642,2.642,0,0,1,1.117-.98,3.63,3.63,0,0,1,1.6-.348,3.253,3.253,0,0,1,2.328.746,3.174,3.174,0,0,1,.781,2.387v5.586Z" transform="translate(11654.865 -7239.473)"/>
    <path id="Trazado_22803" data-name="Trazado 22803" d="M3524.783,5447.083a3.655,3.655,0,0,1-2.879-1.145,4.707,4.707,0,0,1-1.019-3.238,4.849,4.849,0,0,1,1.035-3.32,3.729,3.729,0,0,1,2.949-1.172,5.845,5.845,0,0,1,1.235.133,4.111,4.111,0,0,1,.968.312l-.4,1.1a6.083,6.083,0,0,0-.938-.285,4.21,4.21,0,0,0-.9-.114q-2.608,0-2.609,3.329a3.958,3.958,0,0,0,.636,2.421,2.216,2.216,0,0,0,1.887.844,5.751,5.751,0,0,0,2.2-.461v1.149A4.678,4.678,0,0,1,3524.783,5447.083Z" transform="translate(11654.865 -7239.473)"/>
    <path id="Trazado_22804" data-name="Trazado 22804" d="M3528.869,5436.044a.858.858,0,0,1,.219-.652.81.81,0,0,1,1.086,0,.844.844,0,0,1,.226.648.857.857,0,0,1-.226.652.756.756,0,0,1-.539.215.745.745,0,0,1-.547-.215A.874.874,0,0,1,3528.869,5436.044Zm1.406,10.883h-1.3v-8.563h1.3Z" transform="translate(11654.865 -7239.473)"/>
    <path id="Trazado_22805" data-name="Trazado 22805" d="M3536.643,5447.083a3.939,3.939,0,0,1-3-1.156,4.479,4.479,0,0,1-1.1-3.211,4.966,4.966,0,0,1,1.019-3.289,3.386,3.386,0,0,1,2.739-1.219,3.229,3.229,0,0,1,2.547,1.059,4.056,4.056,0,0,1,.937,2.793v.82h-5.9a3.4,3.4,0,0,0,.761,2.289,2.637,2.637,0,0,0,2.035.781,6.9,6.9,0,0,0,2.735-.578v1.156a6.768,6.768,0,0,1-1.3.426A7.307,7.307,0,0,1,3536.643,5447.083Zm-.352-7.789a2.122,2.122,0,0,0-1.645.672,3.1,3.1,0,0,0-.722,1.859h4.476a2.857,2.857,0,0,0-.546-1.879A1.93,1.93,0,0,0,3536.291,5439.294Z" transform="translate(11654.865 -7239.473)"/>
    <path id="Trazado_22806" data-name="Trazado 22806" d="M3545.908,5438.208a5.044,5.044,0,0,1,1.024.094l-.18,1.2a4.423,4.423,0,0,0-.938-.117,2.282,2.282,0,0,0-1.777.843,3.078,3.078,0,0,0-.738,2.1v4.594H3542v-8.563h1.07l.149,1.586h.062a3.757,3.757,0,0,1,1.149-1.289A2.584,2.584,0,0,1,3545.908,5438.208Z" transform="translate(11654.865 -7239.473)"/>
    <path id="Trazado_22807" data-name="Trazado 22807" d="M3555.924,5442.638a4.724,4.724,0,0,1-1.055,3.269,3.715,3.715,0,0,1-2.914,1.176,3.863,3.863,0,0,1-2.039-.539,3.554,3.554,0,0,1-1.375-1.547,5.388,5.388,0,0,1-.484-2.359,4.711,4.711,0,0,1,1.047-3.262,3.705,3.705,0,0,1,2.906-1.168,3.621,3.621,0,0,1,2.855,1.195A4.7,4.7,0,0,1,3555.924,5442.638Zm-6.524,0a4.065,4.065,0,0,0,.657,2.5,2.605,2.605,0,0,0,3.863,0,4.047,4.047,0,0,0,.66-2.5,3.979,3.979,0,0,0-.66-2.481,2.319,2.319,0,0,0-1.949-.847,2.28,2.28,0,0,0-1.922.836A4.016,4.016,0,0,0,3549.4,5442.638Z" transform="translate(11654.865 -7239.473)"/>
    <path id="Trazado_22808" data-name="Trazado 22808" d="M3563.721,5444.591a2.146,2.146,0,0,1-.891,1.844,4.188,4.188,0,0,1-2.5.648,5.441,5.441,0,0,1-2.656-.539v-1.2a6.429,6.429,0,0,0,1.324.492,5.52,5.52,0,0,0,1.363.18,3.1,3.1,0,0,0,1.563-.325,1.115,1.115,0,0,0,.113-1.843,6.769,6.769,0,0,0-1.691-.84,9.2,9.2,0,0,1-1.7-.777,2.353,2.353,0,0,1-.75-.754,1.972,1.972,0,0,1-.246-1.008,1.925,1.925,0,0,1,.852-1.653,3.975,3.975,0,0,1,2.336-.6,6.834,6.834,0,0,1,2.7.563l-.461,1.054a6.208,6.208,0,0,0-2.336-.531,2.693,2.693,0,0,0-1.39.289.892.892,0,0,0-.469.8.964.964,0,0,0,.176.586,1.73,1.73,0,0,0,.566.461,13.016,13.016,0,0,0,1.5.633,5.609,5.609,0,0,1,2.059,1.117A1.973,1.973,0,0,1,3563.721,5444.591Z" transform="translate(11654.865 -7239.473)"/>
    <path id="Trazado_22809" data-name="Trazado 22809" d="M3568.627,5438.364h1.391l1.875,4.883a18.405,18.405,0,0,1,.765,2.414h.063c.067-.265.21-.72.425-1.363s.923-2.621,2.122-5.934h1.39l-3.679,9.75a4.859,4.859,0,0,1-1.278,2.051,2.721,2.721,0,0,1-1.793.606,5.208,5.208,0,0,1-1.172-.133V5449.6a4.553,4.553,0,0,0,.961.093,1.981,1.981,0,0,0,1.907-1.5l.476-1.218Z" transform="translate(11654.865 -7239.473)"/>
    <path id="Trazado_22810" data-name="Trazado 22810" d="M3588.033,5445.778h-.07a3.047,3.047,0,0,1-2.688,1.305,3.178,3.178,0,0,1-2.613-1.148,5.06,5.06,0,0,1-.933-3.266,5.141,5.141,0,0,1,.937-3.289,3.156,3.156,0,0,1,2.609-1.172,3.113,3.113,0,0,1,2.672,1.266h.1l-.055-.618-.031-.6v-3.484h1.3v12.156h-1.055Zm-2.594.219a2.36,2.36,0,0,0,1.926-.723,3.644,3.644,0,0,0,.6-2.332v-.273a4.3,4.3,0,0,0-.606-2.6,2.3,2.3,0,0,0-1.933-.777,1.984,1.984,0,0,0-1.746.887,4.4,4.4,0,0,0-.606,2.5,4.219,4.219,0,0,0,.6,2.476A2.034,2.034,0,0,0,3585.439,5446Z" transform="translate(11654.865 -7239.473)"/>
    <path id="Trazado_22811" data-name="Trazado 22811" d="M3595.627,5447.083a3.935,3.935,0,0,1-3-1.156,4.474,4.474,0,0,1-1.1-3.211,4.963,4.963,0,0,1,1.02-3.289,3.385,3.385,0,0,1,2.738-1.219,3.228,3.228,0,0,1,2.547,1.059,4.056,4.056,0,0,1,.937,2.793v.82h-5.9a3.4,3.4,0,0,0,.762,2.289,2.637,2.637,0,0,0,2.035.781,6.888,6.888,0,0,0,2.734-.578v1.156a6.74,6.74,0,0,1-1.3.426A7.305,7.305,0,0,1,3595.627,5447.083Zm-.352-7.789a2.118,2.118,0,0,0-1.644.672,3.1,3.1,0,0,0-.723,1.859h4.477a2.857,2.857,0,0,0-.547-1.879A1.929,1.929,0,0,0,3595.275,5439.294Z" transform="translate(11654.865 -7239.473)"/>
    <path id="Trazado_22812" data-name="Trazado 22812" d="M3481.775,5466.127l-.257-1.219h-.063a3.6,3.6,0,0,1-1.277,1.09,3.9,3.9,0,0,1-1.59.285,2.86,2.86,0,0,1-2-.656,2.394,2.394,0,0,1-.723-1.867q0-2.595,4.149-2.719l1.453-.047v-.531a2.17,2.17,0,0,0-.434-1.488,1.78,1.78,0,0,0-1.387-.481,5.654,5.654,0,0,0-2.421.656l-.4-.992a6.083,6.083,0,0,1,1.387-.539,6,6,0,0,1,1.512-.2,3.256,3.256,0,0,1,2.269.68,2.837,2.837,0,0,1,.738,2.179v5.844Zm-2.929-.914a2.633,2.633,0,0,0,1.9-.664,2.458,2.458,0,0,0,.691-1.86v-.773l-1.3.055a4.7,4.7,0,0,0-2.231.48,1.448,1.448,0,0,0-.683,1.324,1.337,1.337,0,0,0,.425,1.071A1.769,1.769,0,0,0,3478.846,5465.213Z" transform="translate(11654.865 -7239.473)"/>
    <path id="Trazado_22813" data-name="Trazado 22813" d="M3491.268,5466.127v-5.539a2.241,2.241,0,0,0-.477-1.563,1.943,1.943,0,0,0-1.492-.515,2.446,2.446,0,0,0-1.973.734,3.72,3.72,0,0,0-.621,2.406v4.477h-1.3v-12.156h1.3v3.679a7.985,7.985,0,0,1-.062,1.1h.078a2.654,2.654,0,0,1,1.09-.973,3.54,3.54,0,0,1,1.613-.355,3.3,3.3,0,0,1,2.355.746,3.14,3.14,0,0,1,.785,2.371v5.586Z" transform="translate(11654.865 -7239.473)"/>
    <path id="Trazado_22814" data-name="Trazado 22814" d="M3502.619,5461.838a4.719,4.719,0,0,1-1.055,3.269,3.709,3.709,0,0,1-2.914,1.176,3.857,3.857,0,0,1-2.039-.539,3.567,3.567,0,0,1-1.375-1.547,5.388,5.388,0,0,1-.484-2.359,4.714,4.714,0,0,1,1.047-3.262,3.7,3.7,0,0,1,2.906-1.168,3.625,3.625,0,0,1,2.856,1.2A4.7,4.7,0,0,1,3502.619,5461.838Zm-6.523,0a4.06,4.06,0,0,0,.656,2.5,2.605,2.605,0,0,0,3.863,0,4.039,4.039,0,0,0,.66-2.5,3.976,3.976,0,0,0-.66-2.481,2.32,2.32,0,0,0-1.949-.847,2.282,2.282,0,0,0-1.922.836A4.021,4.021,0,0,0,3496.1,5461.838Z" transform="translate(11654.865 -7239.473)"/>
    <path id="Trazado_22815" data-name="Trazado 22815" d="M3508.8,5457.408a5.029,5.029,0,0,1,1.023.094l-.179,1.2a4.427,4.427,0,0,0-.938-.117,2.281,2.281,0,0,0-1.777.844,3.075,3.075,0,0,0-.739,2.1v4.594h-1.3v-8.563h1.07l.148,1.586h.063a3.757,3.757,0,0,1,1.148-1.289A2.6,2.6,0,0,1,3508.8,5457.408Z" transform="translate(11654.865 -7239.473)"/>
    <path id="Trazado_22816" data-name="Trazado 22816" d="M3515.33,5457.408a5.046,5.046,0,0,1,1.024.094l-.18,1.2a4.427,4.427,0,0,0-.938-.117,2.281,2.281,0,0,0-1.777.844,3.074,3.074,0,0,0-.738,2.1v4.594h-1.3v-8.563h1.07l.149,1.586h.062a3.749,3.749,0,0,1,1.149-1.289A2.594,2.594,0,0,1,3515.33,5457.408Z" transform="translate(11654.865 -7239.473)"/>
    <path id="Trazado_22817" data-name="Trazado 22817" d="M3525.346,5461.838a4.725,4.725,0,0,1-1.055,3.269,3.711,3.711,0,0,1-2.914,1.176,3.855,3.855,0,0,1-2.039-.539,3.555,3.555,0,0,1-1.375-1.547,5.388,5.388,0,0,1-.484-2.359,4.714,4.714,0,0,1,1.046-3.262,3.706,3.706,0,0,1,2.907-1.168,3.622,3.622,0,0,1,2.855,1.2A4.7,4.7,0,0,1,3525.346,5461.838Zm-6.524,0a4.06,4.06,0,0,0,.657,2.5,2.605,2.605,0,0,0,3.863,0,4.045,4.045,0,0,0,.66-2.5,3.982,3.982,0,0,0-.66-2.481,2.321,2.321,0,0,0-1.949-.847,2.281,2.281,0,0,0-1.922.836A4.015,4.015,0,0,0,3518.822,5461.838Z" transform="translate(11654.865 -7239.473)"/>
    <path id="Trazado_22818" data-name="Trazado 22818" d="M3533.143,5463.791a2.145,2.145,0,0,1-.891,1.844,4.188,4.188,0,0,1-2.5.648,5.427,5.427,0,0,1-2.656-.539v-1.2a6.44,6.44,0,0,0,1.324.492,5.544,5.544,0,0,0,1.363.18,3.109,3.109,0,0,0,1.563-.324,1.116,1.116,0,0,0,.113-1.844,6.827,6.827,0,0,0-1.691-.84,9.226,9.226,0,0,1-1.7-.777,2.325,2.325,0,0,1-.75-.754,1.964,1.964,0,0,1-.246-1.008,1.918,1.918,0,0,1,.852-1.652,3.963,3.963,0,0,1,2.336-.606,6.833,6.833,0,0,1,2.7.563l-.461,1.054a6.2,6.2,0,0,0-2.336-.531,2.7,2.7,0,0,0-1.391.289.894.894,0,0,0-.468.8.969.969,0,0,0,.175.586,1.749,1.749,0,0,0,.567.461,13.04,13.04,0,0,0,1.5.633,5.6,5.6,0,0,1,2.058,1.117A1.97,1.97,0,0,1,3533.143,5463.791Z" transform="translate(11654.865 -7239.473)"/>
    <path id="Trazado_22819" data-name="Trazado 22819" d="M3535.064,5465.3a1.165,1.165,0,0,1,.239-.793.863.863,0,0,1,.683-.27.925.925,0,0,1,.707.27,1.119,1.119,0,0,1,.254.793,1.1,1.1,0,0,1-.258.781.915.915,0,0,1-.7.274.928.928,0,0,1-.66-.247A1.066,1.066,0,0,1,3535.064,5465.3Z" transform="translate(11654.865 -7239.473)"/>
    <path id="Trazado_22820" data-name="Trazado 22820" d="M3440.54,5395.173l-1.1,6.385h-7.2l6.866-32.355h9.024l5.9,32.355h-7.2l-1.057-6.385Zm4.657-5.712-.816-6.145c-.24-1.824-.672-5.329-.96-7.344h-.1c-.336,2.015-.815,5.616-1.1,7.344l-.96,6.145Z" transform="translate(11654.865 -7239.473)"/>
    <path id="Trazado_22821" data-name="Trazado 22821" d="M3456.62,5385.477c0-2.5-.1-5.137-.192-7.538h6.432l.384,2.689h.1a7.466,7.466,0,0,1,5.761-3.072c2.832,0,4.464,1.3,5.232,3.072h.1a8.5,8.5,0,0,1,2.447-2.256,6.911,6.911,0,0,1,3.312-.816c4.657,0,6.29,3.792,6.29,9.312v14.69h-7.393v-13.537c0-2.5-.24-4.321-1.729-4.321a2.007,2.007,0,0,0-1.919,1.536,5.062,5.062,0,0,0-.193,1.489v14.833h-7.392v-14.5c0-1.345-.048-3.361-1.68-3.361a2.08,2.08,0,0,0-1.872,1.392,4.812,4.812,0,0,0-.288,1.68v14.786h-7.393Z" transform="translate(11654.865 -7239.473)"/>
    <path id="Trazado_22822" data-name="Trazado 22822" d="M3507.884,5396.133a31.951,31.951,0,0,0,.384,5.425h-6.624l-.384-2.256h-.1a6.567,6.567,0,0,1-5.424,2.639c-3.745,0-6.481-3.12-6.481-7.344,0-6.336,5.761-8.832,11.09-8.881v-.432c0-1.3-1.2-2.3-3.121-2.3a9.638,9.638,0,0,0-5.184,1.44l-1.3-4.944a17.941,17.941,0,0,1,8.113-1.92c8.208,0,9.025,5.856,9.025,10.417Zm-7.3-5.76c-2.16.048-4.368.912-4.368,3.408,0,2.016,1.2,2.784,2.016,2.784a2.307,2.307,0,0,0,2.208-1.392,2.7,2.7,0,0,0,.144-.96Z" transform="translate(11654.865 -7239.473)"/>
    <path id="Trazado_22823" data-name="Trazado 22823" d="M3511.963,5385.477c0-2.5-.1-5.137-.192-7.538h6.384l.384,3.361h.192c1.152-2.641,3.024-3.744,4.56-3.744a6.616,6.616,0,0,1,1.585.143v7.3a8.272,8.272,0,0,0-1.633-.1,3.7,3.7,0,0,0-3.5,2.689,7.418,7.418,0,0,0-.336,2.447v11.522h-7.44Z" transform="translate(11654.865 -7239.473)"/>
    <path id="Trazado_22824" data-name="Trazado 22824" d="M3534.33,5371.651a3.657,3.657,0,0,1-3.744,3.84,3.868,3.868,0,1,1,3.744-3.84Zm-7.3,29.907v-23.619h7.441v23.619Z" transform="translate(11654.865 -7239.473)"/>
    <path id="Trazado_22825" data-name="Trazado 22825" d="M3538.507,5368.339h7.44v33.219h-7.44Z" transform="translate(11654.865 -7239.473)"/>
    <path id="Trazado_22826" data-name="Trazado 22826" d="M3549.979,5368.339h7.44v33.219h-7.44Z" transform="translate(11654.865 -7239.473)"/>
    <path id="Trazado_22827" data-name="Trazado 22827" d="M3579.835,5389.652c0,10.129-5.952,12.289-9.5,12.289-6.24,0-9.6-4.7-9.6-12.1,0-8.4,4.706-12.289,9.65-12.289C3576.523,5377.556,3579.835,5382.548,3579.835,5389.652Zm-11.761.048c0,4.081.624,6.673,2.4,6.673,1.536,0,2.015-3.312,2.015-6.673,0-3.12-.479-6.576-2.111-6.576C3568.507,5383.124,3568.074,5386.58,3568.074,5389.7Z" transform="translate(11654.865 -7239.473)"/>
  </g>
</svg>
