<svg xmlns="http://www.w3.org/2000/svg" width="265" height="265" viewBox="0 0 265 265">
  <g id="Grupo_14187" data-name="Grupo 14187" transform="translate(-14459 2226)">
    <circle id="Elipse_867" data-name="Elipse 867" cx="132.5" cy="132.5" r="132.5" transform="translate(14459 -2226)" fill="#63aeed"/>
    <path id="Trazado_22502" data-name="Trazado 22502" d="M2841.564,5153.736a3.707,3.707,0,0,1-1.527-.308,2.881,2.881,0,0,1-1.16-.949h-.094a11.38,11.38,0,0,1,.094,1.421v3.524h-1.3v-12.406h1.055l.179,1.171h.063a3.019,3.019,0,0,1,1.164-1.015,3.538,3.538,0,0,1,1.523-.313,3.165,3.165,0,0,1,2.629,1.164,6.2,6.2,0,0,1-.015,6.543A3.17,3.17,0,0,1,2841.564,5153.736Zm-.187-7.773a2.3,2.3,0,0,0-1.9.726,3.74,3.74,0,0,0-.6,2.313v.289a4.279,4.279,0,0,0,.6,2.582,2.283,2.283,0,0,0,1.929.777,2,2,0,0,0,1.738-.9,4.264,4.264,0,0,0,.629-2.477,4.107,4.107,0,0,0-.629-2.457A2.066,2.066,0,0,0,2841.377,5145.963Z" transform="translate(11654.865 -7239.473)"/>
    <path id="Trazado_22503" data-name="Trazado 22503" d="M2851.291,5144.861a5.1,5.1,0,0,1,1.023.094l-.179,1.2a4.427,4.427,0,0,0-.938-.117,2.281,2.281,0,0,0-1.777.844,3.075,3.075,0,0,0-.738,2.1v4.594h-1.3v-8.562h1.07l.149,1.586h.062a3.751,3.751,0,0,1,1.148-1.29A2.6,2.6,0,0,1,2851.291,5144.861Z" transform="translate(11654.865 -7239.473)"/>
    <path id="Trazado_22504" data-name="Trazado 22504" d="M2861.307,5149.291a4.727,4.727,0,0,1-1.055,3.27,3.713,3.713,0,0,1-2.914,1.175,3.85,3.85,0,0,1-2.039-.539,3.554,3.554,0,0,1-1.375-1.547,5.385,5.385,0,0,1-.485-2.359,4.72,4.72,0,0,1,1.047-3.262,3.708,3.708,0,0,1,2.907-1.168,3.621,3.621,0,0,1,2.855,1.2A4.7,4.7,0,0,1,2861.307,5149.291Zm-6.524,0a4.068,4.068,0,0,0,.656,2.5,2.606,2.606,0,0,0,3.864,0,4.043,4.043,0,0,0,.66-2.5,3.977,3.977,0,0,0-.66-2.48,2.319,2.319,0,0,0-1.949-.848,2.282,2.282,0,0,0-1.922.836A4.019,4.019,0,0,0,2854.783,5149.291Z" transform="translate(11654.865 -7239.473)"/>
    <path id="Trazado_22505" data-name="Trazado 22505" d="M2874.494,5153.58v-5.57a2.3,2.3,0,0,0-.437-1.535,1.693,1.693,0,0,0-1.36-.512,2.193,2.193,0,0,0-1.789.7,3.3,3.3,0,0,0-.578,2.141v4.781h-1.3v-5.57a2.306,2.306,0,0,0-.437-1.535,1.7,1.7,0,0,0-1.367-.512,2.119,2.119,0,0,0-1.786.73,3.955,3.955,0,0,0-.566,2.4v4.492h-1.3v-8.562h1.055l.211,1.171h.062a2.546,2.546,0,0,1,1.035-.976,3.172,3.172,0,0,1,1.5-.352,2.544,2.544,0,0,1,2.625,1.453h.063a2.736,2.736,0,0,1,1.109-1.062,3.439,3.439,0,0,1,1.657-.391,2.9,2.9,0,0,1,2.175.746,3.337,3.337,0,0,1,.723,2.387v5.586Z" transform="translate(11654.865 -7239.473)"/>
    <path id="Trazado_22506" data-name="Trazado 22506" d="M2885.854,5149.291a4.728,4.728,0,0,1-1.055,3.27,3.714,3.714,0,0,1-2.914,1.175,3.848,3.848,0,0,1-2.039-.539,3.554,3.554,0,0,1-1.375-1.547,5.371,5.371,0,0,1-.485-2.359,4.72,4.72,0,0,1,1.047-3.262,3.705,3.705,0,0,1,2.906-1.168,3.621,3.621,0,0,1,2.856,1.2A4.7,4.7,0,0,1,2885.854,5149.291Zm-6.524,0a4.068,4.068,0,0,0,.656,2.5,2.606,2.606,0,0,0,3.864,0,4.043,4.043,0,0,0,.66-2.5,3.977,3.977,0,0,0-.66-2.48,2.32,2.32,0,0,0-1.95-.848,2.281,2.281,0,0,0-1.921.836A4.018,4.018,0,0,0,2879.33,5149.291Z" transform="translate(11654.865 -7239.473)"/>
    <path id="Trazado_22507" data-name="Trazado 22507" d="M2891.549,5153.736a3.659,3.659,0,0,1-2.879-1.144,4.705,4.705,0,0,1-1.02-3.238,4.849,4.849,0,0,1,1.036-3.321,3.725,3.725,0,0,1,2.949-1.172,5.8,5.8,0,0,1,1.234.133,4.064,4.064,0,0,1,.969.313l-.4,1.1a6.053,6.053,0,0,0-.937-.285,4.208,4.208,0,0,0-.9-.113q-2.61,0-2.61,3.328a3.96,3.96,0,0,0,.637,2.422,2.218,2.218,0,0,0,1.887.844,5.772,5.772,0,0,0,2.195-.461v1.148A4.678,4.678,0,0,1,2891.549,5153.736Z" transform="translate(11654.865 -7239.473)"/>
    <path id="Trazado_22508" data-name="Trazado 22508" d="M2895.635,5142.7a.86.86,0,0,1,.219-.652.809.809,0,0,1,1.085,0,.84.84,0,0,1,.227.648.858.858,0,0,1-.227.653.757.757,0,0,1-.539.214.747.747,0,0,1-.546-.214A.88.88,0,0,1,2895.635,5142.7Zm1.406,10.883h-1.3v-8.562h1.3Z" transform="translate(11654.865 -7239.473)"/>
    <path id="Trazado_22509" data-name="Trazado 22509" d="M2907.182,5149.291a4.727,4.727,0,0,1-1.055,3.27,3.713,3.713,0,0,1-2.914,1.175,3.85,3.85,0,0,1-2.039-.539,3.554,3.554,0,0,1-1.375-1.547,5.385,5.385,0,0,1-.485-2.359,4.72,4.72,0,0,1,1.047-3.262,3.708,3.708,0,0,1,2.907-1.168,3.621,3.621,0,0,1,2.855,1.2A4.7,4.7,0,0,1,2907.182,5149.291Zm-6.524,0a4.068,4.068,0,0,0,.656,2.5,2.606,2.606,0,0,0,3.864,0,4.043,4.043,0,0,0,.66-2.5,3.977,3.977,0,0,0-.66-2.48,2.319,2.319,0,0,0-1.949-.848,2.282,2.282,0,0,0-1.922.836A4.019,4.019,0,0,0,2900.658,5149.291Zm1.5-5.6q.375-.484.809-1.171a13.3,13.3,0,0,0,.683-1.2h1.579v.164a14.508,14.508,0,0,1-2.2,2.4h-.867Z" transform="translate(11654.865 -7239.473)"/>
    <path id="Trazado_22510" data-name="Trazado 22510" d="M2915.314,5153.58v-5.539a2.234,2.234,0,0,0-.476-1.562,1.94,1.94,0,0,0-1.492-.516,2.463,2.463,0,0,0-1.969.726,3.67,3.67,0,0,0-.625,2.4v4.492h-1.3v-8.562h1.055l.211,1.171h.062a2.651,2.651,0,0,1,1.117-.98,3.645,3.645,0,0,1,1.6-.348,3.253,3.253,0,0,1,2.328.746,3.175,3.175,0,0,1,.781,2.387v5.586Z" transform="translate(11654.865 -7239.473)"/>
    <path id="Trazado_22511" data-name="Trazado 22511" d="M2929.291,5153.58v-5.539a2.229,2.229,0,0,0-.477-1.562,1.938,1.938,0,0,0-1.492-.516,2.445,2.445,0,0,0-1.972.734,3.723,3.723,0,0,0-.621,2.407v4.476h-1.3v-12.156h1.3v3.68a7.96,7.96,0,0,1-.063,1.1h.078a2.654,2.654,0,0,1,1.09-.973,3.546,3.546,0,0,1,1.613-.355,3.307,3.307,0,0,1,2.356.746,3.144,3.144,0,0,1,.785,2.371v5.586Z" transform="translate(11654.865 -7239.473)"/>
    <path id="Trazado_22512" data-name="Trazado 22512" d="M2938.518,5153.58l-.258-1.219h-.063a3.593,3.593,0,0,1-1.277,1.09,3.88,3.88,0,0,1-1.59.285,2.856,2.856,0,0,1-2-.656,2.4,2.4,0,0,1-.723-1.867q0-2.595,4.149-2.719l1.453-.047v-.531a2.169,2.169,0,0,0-.434-1.488,1.779,1.779,0,0,0-1.386-.481,5.645,5.645,0,0,0-2.422.657l-.4-.993a6.105,6.105,0,0,1,1.387-.539,6.026,6.026,0,0,1,1.512-.195,3.261,3.261,0,0,1,2.269.68,2.835,2.835,0,0,1,.739,2.179v5.844Zm-2.93-.914a2.634,2.634,0,0,0,1.9-.664,2.456,2.456,0,0,0,.692-1.859v-.774l-1.3.055a4.72,4.72,0,0,0-2.231.48,1.45,1.45,0,0,0-.683,1.325,1.335,1.335,0,0,0,.425,1.07A1.768,1.768,0,0,0,2935.588,5152.666Z" transform="translate(11654.865 -7239.473)"/>
    <path id="Trazado_22513" data-name="Trazado 22513" d="M2945.572,5153.736a3.658,3.658,0,0,1-2.879-1.144,4.708,4.708,0,0,1-1.019-3.238,4.853,4.853,0,0,1,1.035-3.321,3.727,3.727,0,0,1,2.949-1.172,5.814,5.814,0,0,1,1.235.133,4.062,4.062,0,0,1,.968.313l-.4,1.1a6.066,6.066,0,0,0-.938-.285,4.193,4.193,0,0,0-.9-.113q-2.609,0-2.609,3.328a3.96,3.96,0,0,0,.636,2.422,2.218,2.218,0,0,0,1.887.844,5.769,5.769,0,0,0,2.2-.461v1.148A4.679,4.679,0,0,1,2945.572,5153.736Z" transform="translate(11654.865 -7239.473)"/>
    <path id="Trazado_22514" data-name="Trazado 22514" d="M2949.658,5142.7a.86.86,0,0,1,.219-.652.81.81,0,0,1,1.086,0,.843.843,0,0,1,.226.648.862.862,0,0,1-.226.653.756.756,0,0,1-.539.214.748.748,0,0,1-.547-.214A.88.88,0,0,1,2949.658,5142.7Zm1.406,10.883h-1.3v-8.562h1.3Z" transform="translate(11654.865 -7239.473)"/>
    <path id="Trazado_22515" data-name="Trazado 22515" d="M2959.08,5153.58l-.258-1.219h-.062a3.6,3.6,0,0,1-1.278,1.09,3.875,3.875,0,0,1-1.589.285,2.86,2.86,0,0,1-2-.656,2.394,2.394,0,0,1-.722-1.867q0-2.595,4.148-2.719l1.453-.047v-.531a2.169,2.169,0,0,0-.433-1.488,1.78,1.78,0,0,0-1.387-.481,5.649,5.649,0,0,0-2.422.657l-.4-.993a6.115,6.115,0,0,1,1.386-.539,6.026,6.026,0,0,1,1.512-.195,3.262,3.262,0,0,1,2.27.68,2.835,2.835,0,0,1,.738,2.179v5.844Zm-2.93-.914a2.636,2.636,0,0,0,1.9-.664,2.455,2.455,0,0,0,.691-1.859v-.774l-1.3.055a4.716,4.716,0,0,0-2.23.48,1.45,1.45,0,0,0-.684,1.325,1.336,1.336,0,0,0,.426,1.07A1.765,1.765,0,0,0,2956.15,5152.666Z" transform="translate(11654.865 -7239.473)"/>
    <path id="Trazado_22516" data-name="Trazado 22516" d="M2972.729,5153.58v-5.539a2.234,2.234,0,0,0-.477-1.562,1.938,1.938,0,0,0-1.492-.516,2.446,2.446,0,0,0-1.973.734,3.723,3.723,0,0,0-.621,2.407v4.476h-1.3v-12.156h1.3v3.68a7.98,7.98,0,0,1-.062,1.1h.078a2.657,2.657,0,0,1,1.089-.973,3.547,3.547,0,0,1,1.614-.355,3.3,3.3,0,0,1,2.355.746,3.14,3.14,0,0,1,.785,2.371v5.586Z" transform="translate(11654.865 -7239.473)"/>
    <path id="Trazado_22517" data-name="Trazado 22517" d="M2984.08,5149.291a4.722,4.722,0,0,1-1.055,3.27,3.711,3.711,0,0,1-2.914,1.175,3.852,3.852,0,0,1-2.039-.539,3.566,3.566,0,0,1-1.375-1.547,5.385,5.385,0,0,1-.484-2.359,4.72,4.72,0,0,1,1.047-3.262,3.705,3.705,0,0,1,2.906-1.168,3.621,3.621,0,0,1,2.855,1.2A4.7,4.7,0,0,1,2984.08,5149.291Zm-6.523,0a4.062,4.062,0,0,0,.656,2.5,2.605,2.605,0,0,0,3.863,0,4.035,4.035,0,0,0,.66-2.5,3.969,3.969,0,0,0-.66-2.48,2.317,2.317,0,0,0-1.949-.848,2.283,2.283,0,0,0-1.922.836A4.018,4.018,0,0,0,2977.557,5149.291Z" transform="translate(11654.865 -7239.473)"/>
    <path id="Trazado_22518" data-name="Trazado 22518" d="M2997.268,5153.58v-5.57a2.306,2.306,0,0,0-.438-1.535,1.693,1.693,0,0,0-1.359-.512,2.191,2.191,0,0,0-1.789.7,3.3,3.3,0,0,0-.578,2.141v4.781h-1.3v-5.57a2.306,2.306,0,0,0-.438-1.535,1.7,1.7,0,0,0-1.367-.512,2.117,2.117,0,0,0-1.785.73,3.956,3.956,0,0,0-.567,2.4v4.492h-1.3v-8.562h1.054l.211,1.171h.063a2.54,2.54,0,0,1,1.035-.976,3.167,3.167,0,0,1,1.5-.352,2.544,2.544,0,0,1,2.625,1.453h.062a2.732,2.732,0,0,1,1.11-1.062,3.436,3.436,0,0,1,1.656-.391,2.9,2.9,0,0,1,2.176.746,3.342,3.342,0,0,1,.722,2.387v5.586Z" transform="translate(11654.865 -7239.473)"/>
    <path id="Trazado_22519" data-name="Trazado 22519" d="M3005.221,5144.877a3.184,3.184,0,0,1,2.621,1.152,6.173,6.173,0,0,1-.008,6.539,3.169,3.169,0,0,1-2.613,1.168,3.708,3.708,0,0,1-1.528-.308,2.887,2.887,0,0,1-1.16-.949h-.094l-.273,1.1h-.93v-12.156h1.3v2.953q0,.992-.062,1.781h.062A3.08,3.08,0,0,1,3005.221,5144.877Zm-.188,1.086a2.263,2.263,0,0,0-1.914.762,5.874,5.874,0,0,0,.016,5.148,2.284,2.284,0,0,0,1.929.777,2,2,0,0,0,1.782-.871,4.48,4.48,0,0,0,.586-2.5,4.306,4.306,0,0,0-.586-2.492A2.076,2.076,0,0,0,3005.033,5145.963Z" transform="translate(11654.865 -7239.473)"/>
    <path id="Trazado_22520" data-name="Trazado 22520" d="M3014.947,5144.861a5.115,5.115,0,0,1,1.024.094l-.18,1.2a4.418,4.418,0,0,0-.937-.117,2.281,2.281,0,0,0-1.778.844,3.075,3.075,0,0,0-.738,2.1v4.594h-1.3v-8.562h1.07l.149,1.586h.062a3.754,3.754,0,0,1,1.149-1.29A2.594,2.594,0,0,1,3014.947,5144.861Z" transform="translate(11654.865 -7239.473)"/>
    <path id="Trazado_22521" data-name="Trazado 22521" d="M3021.189,5153.736a3.934,3.934,0,0,1-3-1.156,4.477,4.477,0,0,1-1.1-3.211,4.969,4.969,0,0,1,1.019-3.289,3.39,3.39,0,0,1,2.739-1.219,3.226,3.226,0,0,1,2.546,1.059,4.059,4.059,0,0,1,.938,2.793v.82h-5.9a3.4,3.4,0,0,0,.762,2.289,2.635,2.635,0,0,0,2.035.782,6.889,6.889,0,0,0,2.735-.579v1.157a6.854,6.854,0,0,1-1.3.425A7.309,7.309,0,0,1,3021.189,5153.736Zm-.351-7.789a2.118,2.118,0,0,0-1.645.672,3.1,3.1,0,0,0-.722,1.86h4.476a2.847,2.847,0,0,0-.547-1.879A1.923,1.923,0,0,0,3020.838,5145.947Z" transform="translate(11654.865 -7239.473)"/>
    <path id="Trazado_22522" data-name="Trazado 22522" d="M3032.072,5151.244a2.147,2.147,0,0,1-.89,1.844,4.181,4.181,0,0,1-2.5.648,5.428,5.428,0,0,1-2.657-.539v-1.2a6.437,6.437,0,0,0,1.325.492,5.506,5.506,0,0,0,1.363.18,3.087,3.087,0,0,0,1.562-.324,1.116,1.116,0,0,0,.114-1.844,6.815,6.815,0,0,0-1.692-.84,9.138,9.138,0,0,1-1.7-.777,2.324,2.324,0,0,1-.75-.754,1.965,1.965,0,0,1-.246-1.008,1.92,1.92,0,0,1,.852-1.652,3.963,3.963,0,0,1,2.335-.606,6.839,6.839,0,0,1,2.7.563l-.461,1.055a6.194,6.194,0,0,0-2.336-.532,2.7,2.7,0,0,0-1.391.289.9.9,0,0,0-.469.8.968.968,0,0,0,.176.586,1.729,1.729,0,0,0,.567.461,12.54,12.54,0,0,0,1.5.633,5.607,5.607,0,0,1,2.058,1.117A1.97,1.97,0,0,1,3032.072,5151.244Z" transform="translate(11654.865 -7239.473)"/>
    <path id="Trazado_22523" data-name="Trazado 22523" d="M3033.994,5152.752a1.164,1.164,0,0,1,.238-.793.865.865,0,0,1,.684-.27.922.922,0,0,1,.707.27,1.118,1.118,0,0,1,.254.793,1.094,1.094,0,0,1-.258.781,1.024,1.024,0,0,1-1.363.028A1.07,1.07,0,0,1,3033.994,5152.752Z" transform="translate(11654.865 -7239.473)"/>
    <path id="Trazado_22524" data-name="Trazado 22524" d="M2907.6,5101.826l-1.1,6.385h-7.2l6.865-32.355h9.025l5.9,32.355h-7.2l-1.057-6.385Zm4.656-5.712-.815-6.144c-.241-1.824-.672-5.329-.96-7.345h-.1c-.336,2.016-.816,5.616-1.1,7.345l-.96,6.144Z" transform="translate(11654.865 -7239.473)"/>
    <path id="Trazado_22525" data-name="Trazado 22525" d="M2923.051,5103.555l5.089-8.785c.815-1.392,1.92-3.073,2.351-3.985v-.143h-6.816v-6.049h14.833v5.089l-4.9,8.3c-.863,1.489-1.872,3.12-2.4,4.033v.143h7.632v6.049h-15.793Z" transform="translate(11654.865 -7239.473)"/>
    <path id="Trazado_22526" data-name="Trazado 22526" d="M2960.4,5100.674c0,2.5.1,5.137.192,7.537H2954.2l-.384-2.5h-.1a6.7,6.7,0,0,1-5.617,2.88c-4.656,0-6.528-3.361-6.528-9.937v-14.065h7.441v13.3c0,2.833.624,4.512,2.016,4.512a1.629,1.629,0,0,0,1.488-.96,4.117,4.117,0,0,0,.432-1.967v-14.882h7.441Z" transform="translate(11654.865 -7239.473)"/>
    <path id="Trazado_22527" data-name="Trazado 22527" d="M2964.618,5074.992h7.441v33.219h-7.441Z" transform="translate(11654.865 -7239.473)"/>
  </g>
</svg>
