<svg xmlns="http://www.w3.org/2000/svg" width="265" height="265" viewBox="0 0 265 265">
  <g id="Grupo_14189" data-name="Grupo 14189" transform="translate(-15029 2226)">
    <circle id="Elipse_869" data-name="Elipse 869" cx="132.5" cy="132.5" r="132.5" transform="translate(15029 -2226)" fill="#d7d7d7"/>
    <path id="Trazado_22564" data-name="Trazado 22564" d="M3405.49,5153.58l-.258-1.219h-.062a3.611,3.611,0,0,1-1.277,1.09,3.885,3.885,0,0,1-1.59.285,2.857,2.857,0,0,1-2-.656,2.391,2.391,0,0,1-.723-1.867q0-2.595,4.148-2.719l1.454-.047v-.531a2.169,2.169,0,0,0-.434-1.488,1.78,1.78,0,0,0-1.387-.481,5.647,5.647,0,0,0-2.422.657l-.4-.993a6.11,6.11,0,0,1,1.387-.539,6.02,6.02,0,0,1,1.511-.195,3.262,3.262,0,0,1,2.27.68,2.834,2.834,0,0,1,.738,2.179v5.844Zm-2.929-.914a2.635,2.635,0,0,0,1.9-.664,2.455,2.455,0,0,0,.691-1.859v-.774l-1.3.055a4.716,4.716,0,0,0-2.23.48,1.45,1.45,0,0,0-.684,1.325,1.336,1.336,0,0,0,.426,1.07A1.767,1.767,0,0,0,3402.561,5152.666Z" transform="translate(11654.865 -7239.473)"/>
    <path id="Trazado_22565" data-name="Trazado 22565" d="M3410.42,5153.58h-1.3v-12.156h1.3Z" transform="translate(11654.865 -7239.473)"/>
    <path id="Trazado_22566" data-name="Trazado 22566" d="M3415.936,5152.666a4.263,4.263,0,0,0,.664-.051,4.442,4.442,0,0,0,.507-.105v.992a2.374,2.374,0,0,1-.621.168,4.69,4.69,0,0,1-.738.066q-2.484,0-2.484-2.617v-5.094h-1.227v-.625l1.227-.539.547-1.828h.75v1.985h2.484v1.007h-2.484v5.039a1.733,1.733,0,0,0,.367,1.188A1.279,1.279,0,0,0,3415.936,5152.666Z" transform="translate(11654.865 -7239.473)"/>
    <path id="Trazado_22567" data-name="Trazado 22567" d="M3426.209,5149.291a4.728,4.728,0,0,1-1.055,3.27,3.714,3.714,0,0,1-2.914,1.175,3.853,3.853,0,0,1-2.039-.539,3.554,3.554,0,0,1-1.375-1.547,5.385,5.385,0,0,1-.484-2.359,4.715,4.715,0,0,1,1.047-3.262,3.705,3.705,0,0,1,2.906-1.168,3.62,3.62,0,0,1,2.855,1.2A4.7,4.7,0,0,1,3426.209,5149.291Zm-6.523,0a4.062,4.062,0,0,0,.656,2.5,2.605,2.605,0,0,0,3.863,0,4.037,4.037,0,0,0,.66-2.5,3.971,3.971,0,0,0-.66-2.48,2.318,2.318,0,0,0-1.949-.848,2.283,2.283,0,0,0-1.922.836A4.018,4.018,0,0,0,3419.686,5149.291Z" transform="translate(11654.865 -7239.473)"/>
    <path id="Trazado_22568" data-name="Trazado 22568" d="M3439.646,5145.018v.82l-1.585.187a2.8,2.8,0,0,1,.562,1.711,2.531,2.531,0,0,1-.859,2.008,3.47,3.47,0,0,1-2.36.75,3.886,3.886,0,0,1-.718-.062,1.278,1.278,0,0,0-.829,1.1.563.563,0,0,0,.289.52,2.118,2.118,0,0,0,.993.168h1.515a3.391,3.391,0,0,1,2.137.586,2.035,2.035,0,0,1,.746,1.7,2.431,2.431,0,0,1-1.141,2.168,6.112,6.112,0,0,1-3.328.746,4.539,4.539,0,0,1-2.589-.625,2.018,2.018,0,0,1-.911-1.766,1.984,1.984,0,0,1,.5-1.351,2.545,2.545,0,0,1,1.407-.774,1.35,1.35,0,0,1-.551-.461,1.212,1.212,0,0,1-.223-.726,1.38,1.38,0,0,1,.25-.821,2.63,2.63,0,0,1,.789-.679,2.322,2.322,0,0,1-1.082-.93,2.734,2.734,0,0,1-.418-1.5,2.77,2.77,0,0,1,.844-2.168,3.444,3.444,0,0,1,2.391-.762,4.319,4.319,0,0,1,1.211.157Zm-6.828,10a1.161,1.161,0,0,0,.586,1.054,3.226,3.226,0,0,0,1.68.36,4.677,4.677,0,0,0,2.418-.489,1.494,1.494,0,0,0,.785-1.324,1.047,1.047,0,0,0-.43-.965,3.347,3.347,0,0,0-1.617-.269h-1.554a2.041,2.041,0,0,0-1.375.422A1.5,1.5,0,0,0,3432.818,5155.018Zm.7-7.258a1.742,1.742,0,0,0,.508,1.359,2.027,2.027,0,0,0,1.414.461,1.655,1.655,0,0,0,1.9-1.844,1.7,1.7,0,0,0-1.922-1.929,1.9,1.9,0,0,0-1.406.492A1.983,1.983,0,0,0,3433.521,5147.76Z" transform="translate(11654.865 -7239.473)"/>
    <path id="Trazado_22569" data-name="Trazado 22569" d="M3445.311,5144.861a5.112,5.112,0,0,1,1.023.094l-.18,1.2a4.418,4.418,0,0,0-.937-.117,2.282,2.282,0,0,0-1.778.844,3.075,3.075,0,0,0-.738,2.1v4.594h-1.3v-8.562h1.071l.148,1.586h.063a3.751,3.751,0,0,1,1.148-1.29A2.6,2.6,0,0,1,3445.311,5144.861Z" transform="translate(11654.865 -7239.473)"/>
    <path id="Trazado_22570" data-name="Trazado 22570" d="M3453.2,5153.58l-.258-1.219h-.062a3.609,3.609,0,0,1-1.277,1.09,3.885,3.885,0,0,1-1.59.285,2.855,2.855,0,0,1-2-.656,2.391,2.391,0,0,1-.723-1.867q0-2.595,4.148-2.719l1.453-.047v-.531a2.169,2.169,0,0,0-.433-1.488,1.779,1.779,0,0,0-1.387-.481,5.648,5.648,0,0,0-2.422.657l-.4-.993a6.1,6.1,0,0,1,1.387-.539,6.017,6.017,0,0,1,1.511-.195,3.263,3.263,0,0,1,2.27.68,2.835,2.835,0,0,1,.738,2.179v5.844Zm-2.93-.914a2.637,2.637,0,0,0,1.9-.664,2.455,2.455,0,0,0,.691-1.859v-.774l-1.3.055a4.717,4.717,0,0,0-2.23.48,1.451,1.451,0,0,0-.684,1.325,1.335,1.335,0,0,0,.426,1.07A1.765,1.765,0,0,0,3450.271,5152.666Z" transform="translate(11654.865 -7239.473)"/>
    <path id="Trazado_22571" data-name="Trazado 22571" d="M3462.662,5152.432h-.07a3.048,3.048,0,0,1-2.688,1.3,3.176,3.176,0,0,1-2.613-1.148,5.06,5.06,0,0,1-.934-3.266,5.14,5.14,0,0,1,.938-3.289,3.155,3.155,0,0,1,2.609-1.172,3.115,3.115,0,0,1,2.672,1.266h.1l-.055-.617-.031-.6v-3.484h1.3v12.156h-1.055Zm-2.594.218a2.362,2.362,0,0,0,1.926-.722,3.648,3.648,0,0,0,.6-2.332v-.274a4.291,4.291,0,0,0-.606-2.6,2.3,2.3,0,0,0-1.933-.778,1.985,1.985,0,0,0-1.746.887,4.407,4.407,0,0,0-.606,2.5,4.216,4.216,0,0,0,.6,2.476A2.034,2.034,0,0,0,3460.068,5152.65Z" transform="translate(11654.865 -7239.473)"/>
    <path id="Trazado_22572" data-name="Trazado 22572" d="M3474.029,5149.291a4.728,4.728,0,0,1-1.054,3.27,3.715,3.715,0,0,1-2.914,1.175,3.854,3.854,0,0,1-2.04-.539,3.566,3.566,0,0,1-1.375-1.547,5.385,5.385,0,0,1-.484-2.359,4.72,4.72,0,0,1,1.047-3.262,3.705,3.705,0,0,1,2.906-1.168,3.623,3.623,0,0,1,2.856,1.2A4.7,4.7,0,0,1,3474.029,5149.291Zm-6.523,0a4.068,4.068,0,0,0,.656,2.5,2.605,2.605,0,0,0,3.863,0,4.035,4.035,0,0,0,.661-2.5,3.969,3.969,0,0,0-.661-2.48,2.316,2.316,0,0,0-1.949-.848,2.284,2.284,0,0,0-1.922.836A4.024,4.024,0,0,0,3467.506,5149.291Z" transform="translate(11654.865 -7239.473)"/>
    <path id="Trazado_22573" data-name="Trazado 22573" d="M3486.287,5152.432h-.07a3.048,3.048,0,0,1-2.688,1.3,3.176,3.176,0,0,1-2.613-1.148,5.06,5.06,0,0,1-.934-3.266,5.14,5.14,0,0,1,.938-3.289,3.155,3.155,0,0,1,2.609-1.172,3.115,3.115,0,0,1,2.672,1.266h.1l-.055-.617-.031-.6v-3.484h1.3v12.156h-1.055Zm-2.594.218a2.362,2.362,0,0,0,1.926-.722,3.648,3.648,0,0,0,.6-2.332v-.274a4.291,4.291,0,0,0-.606-2.6,2.3,2.3,0,0,0-1.933-.778,1.985,1.985,0,0,0-1.746.887,4.407,4.407,0,0,0-.606,2.5,4.216,4.216,0,0,0,.6,2.476A2.034,2.034,0,0,0,3483.693,5152.65Z" transform="translate(11654.865 -7239.473)"/>
    <path id="Trazado_22574" data-name="Trazado 22574" d="M3493.881,5153.736a3.931,3.931,0,0,1-3-1.156,4.474,4.474,0,0,1-1.1-3.211,4.964,4.964,0,0,1,1.02-3.289,3.387,3.387,0,0,1,2.738-1.219,3.229,3.229,0,0,1,2.547,1.059,4.058,4.058,0,0,1,.937,2.793v.82h-5.9a3.389,3.389,0,0,0,.762,2.289,2.633,2.633,0,0,0,2.035.782,6.882,6.882,0,0,0,2.734-.579v1.157a6.838,6.838,0,0,1-1.3.425A7.309,7.309,0,0,1,3493.881,5153.736Zm-.352-7.789a2.117,2.117,0,0,0-1.644.672,3.1,3.1,0,0,0-.723,1.86h4.477a2.853,2.853,0,0,0-.547-1.879A1.925,1.925,0,0,0,3493.529,5145.947Z" transform="translate(11654.865 -7239.473)"/>
    <path id="Trazado_22575" data-name="Trazado 22575" d="M3509.225,5152.432h-.071a3.046,3.046,0,0,1-2.687,1.3,3.176,3.176,0,0,1-2.613-1.148,5.054,5.054,0,0,1-.934-3.266,5.14,5.14,0,0,1,.937-3.289,3.157,3.157,0,0,1,2.61-1.172,3.115,3.115,0,0,1,2.672,1.266h.1l-.054-.617-.032-.6v-3.484h1.3v12.156H3509.4Zm-2.594.218a2.363,2.363,0,0,0,1.926-.722,3.655,3.655,0,0,0,.6-2.332v-.274a4.3,4.3,0,0,0-.6-2.6,2.3,2.3,0,0,0-1.934-.778,1.985,1.985,0,0,0-1.746.887,4.415,4.415,0,0,0-.6,2.5,4.225,4.225,0,0,0,.6,2.476A2.036,2.036,0,0,0,3506.631,5152.65Z" transform="translate(11654.865 -7239.473)"/>
    <path id="Trazado_22576" data-name="Trazado 22576" d="M3513.092,5142.7a.86.86,0,0,1,.219-.652.809.809,0,0,1,1.085,0,.84.84,0,0,1,.227.648.858.858,0,0,1-.227.653.757.757,0,0,1-.539.214.747.747,0,0,1-.546-.214A.88.88,0,0,1,3513.092,5142.7Zm1.406,10.883h-1.3v-8.562h1.3Z" transform="translate(11654.865 -7239.473)"/>
    <path id="Trazado_22577" data-name="Trazado 22577" d="M3522.771,5151.244a2.145,2.145,0,0,1-.89,1.844,4.181,4.181,0,0,1-2.5.648,5.421,5.421,0,0,1-2.656-.539v-1.2a6.4,6.4,0,0,0,1.324.492,5.52,5.52,0,0,0,1.363.18,3.093,3.093,0,0,0,1.563-.324,1.117,1.117,0,0,0,.113-1.844,6.811,6.811,0,0,0-1.692-.84,9.177,9.177,0,0,1-1.7-.777,2.324,2.324,0,0,1-.75-.754,1.965,1.965,0,0,1-.246-1.008,1.92,1.92,0,0,1,.852-1.652,3.965,3.965,0,0,1,2.336-.606,6.834,6.834,0,0,1,2.7.563l-.461,1.055a6.2,6.2,0,0,0-2.336-.532,2.7,2.7,0,0,0-1.391.289.9.9,0,0,0-.468.8.968.968,0,0,0,.175.586,1.739,1.739,0,0,0,.567.461,12.54,12.54,0,0,0,1.5.633,5.6,5.6,0,0,1,2.058,1.117A1.97,1.97,0,0,1,3522.771,5151.244Z" transform="translate(11654.865 -7239.473)"/>
    <path id="Trazado_22578" data-name="Trazado 22578" d="M3528.3,5153.736a3.657,3.657,0,0,1-2.879-1.144,4.7,4.7,0,0,1-1.02-3.238,4.853,4.853,0,0,1,1.035-3.321,3.729,3.729,0,0,1,2.95-1.172,5.8,5.8,0,0,1,1.234.133,4.087,4.087,0,0,1,.969.313l-.4,1.1a6.069,6.069,0,0,0-.937-.285,4.213,4.213,0,0,0-.9-.113q-2.609,0-2.609,3.328a3.96,3.96,0,0,0,.637,2.422,2.217,2.217,0,0,0,1.886.844,5.773,5.773,0,0,0,2.2-.461v1.148A4.678,4.678,0,0,1,3528.3,5153.736Z" transform="translate(11654.865 -7239.473)"/>
    <path id="Trazado_22579" data-name="Trazado 22579" d="M3536.4,5144.861a5.115,5.115,0,0,1,1.024.094l-.18,1.2a4.418,4.418,0,0,0-.937-.117,2.281,2.281,0,0,0-1.778.844,3.075,3.075,0,0,0-.738,2.1v4.594h-1.3v-8.562h1.07l.149,1.586h.062a3.754,3.754,0,0,1,1.149-1.29A2.594,2.594,0,0,1,3536.4,5144.861Z" transform="translate(11654.865 -7239.473)"/>
    <path id="Trazado_22580" data-name="Trazado 22580" d="M3538.92,5142.7a.86.86,0,0,1,.219-.652.81.81,0,0,1,1.086,0,.844.844,0,0,1,.226.648.863.863,0,0,1-.226.653.759.759,0,0,1-.539.214.748.748,0,0,1-.547-.214A.88.88,0,0,1,3538.92,5142.7Zm1.406,10.883h-1.3v-8.562h1.3Z" transform="translate(11654.865 -7239.473)"/>
    <path id="Trazado_22581" data-name="Trazado 22581" d="M3553.99,5153.58v-5.57a2.306,2.306,0,0,0-.437-1.535,1.693,1.693,0,0,0-1.36-.512,2.193,2.193,0,0,0-1.789.7,3.307,3.307,0,0,0-.578,2.141v4.781h-1.3v-5.57a2.306,2.306,0,0,0-.437-1.535,1.7,1.7,0,0,0-1.367-.512,2.12,2.12,0,0,0-1.786.73,3.964,3.964,0,0,0-.566,2.4v4.492h-1.3v-8.562h1.055l.211,1.171h.062a2.544,2.544,0,0,1,1.035-.976,3.175,3.175,0,0,1,1.5-.352,2.546,2.546,0,0,1,2.625,1.453h.062a2.735,2.735,0,0,1,1.109-1.062,3.444,3.444,0,0,1,1.657-.391,2.9,2.9,0,0,1,2.175.746,3.337,3.337,0,0,1,.723,2.387v5.586Z" transform="translate(11654.865 -7239.473)"/>
    <path id="Trazado_22582" data-name="Trazado 22582" d="M3557.85,5142.7a.863.863,0,0,1,.218-.652.81.81,0,0,1,1.086,0,.841.841,0,0,1,.227.648.859.859,0,0,1-.227.653.757.757,0,0,1-.539.214.749.749,0,0,1-.547-.214A.884.884,0,0,1,3557.85,5142.7Zm1.406,10.883h-1.3v-8.562h1.3Z" transform="translate(11654.865 -7239.473)"/>
    <path id="Trazado_22583" data-name="Trazado 22583" d="M3567.865,5153.58v-5.539a2.234,2.234,0,0,0-.476-1.562,1.942,1.942,0,0,0-1.493-.516,2.462,2.462,0,0,0-1.968.726,3.67,3.67,0,0,0-.625,2.4v4.492h-1.3v-8.562h1.055l.21,1.171h.063a2.651,2.651,0,0,1,1.117-.98,3.645,3.645,0,0,1,1.6-.348,3.254,3.254,0,0,1,2.328.746,3.18,3.18,0,0,1,.781,2.387v5.586Z" transform="translate(11654.865 -7239.473)"/>
    <path id="Trazado_22584" data-name="Trazado 22584" d="M3577.092,5153.58l-.258-1.219h-.063a3.593,3.593,0,0,1-1.277,1.09,3.88,3.88,0,0,1-1.59.285,2.859,2.859,0,0,1-2-.656,2.394,2.394,0,0,1-.722-1.867q0-2.595,4.148-2.719l1.453-.047v-.531a2.169,2.169,0,0,0-.433-1.488,1.781,1.781,0,0,0-1.387-.481,5.645,5.645,0,0,0-2.422.657l-.4-.993a6.11,6.11,0,0,1,1.387-.539,6.026,6.026,0,0,1,1.512-.195,3.261,3.261,0,0,1,2.269.68,2.831,2.831,0,0,1,.739,2.179v5.844Zm-2.93-.914a2.632,2.632,0,0,0,1.9-.664,2.456,2.456,0,0,0,.692-1.859v-.774l-1.3.055a4.716,4.716,0,0,0-2.23.48,1.448,1.448,0,0,0-.684,1.325,1.336,1.336,0,0,0,.426,1.07A1.764,1.764,0,0,0,3574.162,5152.666Z" transform="translate(11654.865 -7239.473)"/>
    <path id="Trazado_22585" data-name="Trazado 22585" d="M3584.146,5153.736a3.654,3.654,0,0,1-2.878-1.144,4.7,4.7,0,0,1-1.02-3.238,4.853,4.853,0,0,1,1.035-3.321,3.729,3.729,0,0,1,2.949-1.172,5.8,5.8,0,0,1,1.235.133,4.087,4.087,0,0,1,.969.313l-.4,1.1a6.1,6.1,0,0,0-.937-.285,4.213,4.213,0,0,0-.9-.113q-2.609,0-2.609,3.328a3.96,3.96,0,0,0,.637,2.422,2.215,2.215,0,0,0,1.886.844,5.773,5.773,0,0,0,2.2-.461v1.148A4.683,4.683,0,0,1,3584.146,5153.736Z" transform="translate(11654.865 -7239.473)"/>
    <path id="Trazado_22586" data-name="Trazado 22586" d="M3588.232,5142.7a.864.864,0,0,1,.219-.652.81.81,0,0,1,1.086,0,.844.844,0,0,1,.227.648.863.863,0,0,1-.227.653.757.757,0,0,1-.539.214.749.749,0,0,1-.547-.214A.884.884,0,0,1,3588.232,5142.7Zm1.407,10.883h-1.3v-8.562h1.3Z" transform="translate(11654.865 -7239.473)"/>
    <path id="Trazado_22587" data-name="Trazado 22587" d="M3599.779,5149.291a4.728,4.728,0,0,1-1.054,3.27,3.715,3.715,0,0,1-2.914,1.175,3.854,3.854,0,0,1-2.04-.539,3.566,3.566,0,0,1-1.375-1.547,5.385,5.385,0,0,1-.484-2.359,4.72,4.72,0,0,1,1.047-3.262,3.705,3.705,0,0,1,2.906-1.168,3.623,3.623,0,0,1,2.856,1.2A4.7,4.7,0,0,1,3599.779,5149.291Zm-6.523,0a4.068,4.068,0,0,0,.656,2.5,2.605,2.605,0,0,0,3.863,0,4.035,4.035,0,0,0,.661-2.5,3.969,3.969,0,0,0-.661-2.48,2.316,2.316,0,0,0-1.949-.848,2.284,2.284,0,0,0-1.922.836A4.024,4.024,0,0,0,3593.256,5149.291Zm1.5-5.6q.375-.484.808-1.171a13.115,13.115,0,0,0,.684-1.2h1.578v.164a11.422,11.422,0,0,1-1.023,1.25,11.621,11.621,0,0,1-1.18,1.149h-.867Z" transform="translate(11654.865 -7239.473)"/>
    <path id="Trazado_22588" data-name="Trazado 22588" d="M3607.912,5153.58v-5.539a2.235,2.235,0,0,0-.476-1.562,1.942,1.942,0,0,0-1.493-.516,2.462,2.462,0,0,0-1.968.726,3.67,3.67,0,0,0-.625,2.4v4.492h-1.3v-8.562h1.054l.211,1.171h.063a2.644,2.644,0,0,1,1.117-.98,3.644,3.644,0,0,1,1.6-.348,3.254,3.254,0,0,1,2.328.746,3.179,3.179,0,0,1,.781,2.387v5.586Z" transform="translate(11654.865 -7239.473)"/>
    <path id="Trazado_22589" data-name="Trazado 22589" d="M3613.232,5151.721l.118.179q-.2.781-.586,1.817t-.8,1.926h-.977q.212-.813.465-2.008t.356-1.914Z" transform="translate(11654.865 -7239.473)"/>
    <path id="Trazado_22590" data-name="Trazado 22590" d="M3427.857,5172.937a3.935,3.935,0,0,1-3-1.157,4.477,4.477,0,0,1-1.1-3.211,4.969,4.969,0,0,1,1.019-3.289,3.388,3.388,0,0,1,2.738-1.218,3.227,3.227,0,0,1,2.547,1.058,4.058,4.058,0,0,1,.938,2.793v.82h-5.9a3.4,3.4,0,0,0,.762,2.289,2.635,2.635,0,0,0,2.035.782,6.913,6.913,0,0,0,2.735-.578v1.156a6.831,6.831,0,0,1-1.3.426A7.309,7.309,0,0,1,3427.857,5172.937Zm-.351-7.79a2.12,2.12,0,0,0-1.645.672,3.1,3.1,0,0,0-.722,1.86h4.476a2.848,2.848,0,0,0-.547-1.879A1.924,1.924,0,0,0,3427.506,5165.147Z" transform="translate(11654.865 -7239.473)"/>
    <path id="Trazado_22591" data-name="Trazado 22591" d="M3434.514,5172.78h-1.3v-12.156h1.3Z" transform="translate(11654.865 -7239.473)"/>
    <path id="Trazado_22592" data-name="Trazado 22592" d="M3440.881,5172.937a3.932,3.932,0,0,1-3-1.157,4.474,4.474,0,0,1-1.1-3.211,4.964,4.964,0,0,1,1.02-3.289,3.386,3.386,0,0,1,2.738-1.218,3.228,3.228,0,0,1,2.547,1.058,4.058,4.058,0,0,1,.937,2.793v.82h-5.9a3.39,3.39,0,0,0,.762,2.289,2.633,2.633,0,0,0,2.035.782,6.906,6.906,0,0,0,2.734-.578v1.156a6.814,6.814,0,0,1-1.3.426A7.309,7.309,0,0,1,3440.881,5172.937Zm-.352-7.79a2.118,2.118,0,0,0-1.644.672,3.1,3.1,0,0,0-.723,1.86h4.477a2.853,2.853,0,0,0-.547-1.879A1.926,1.926,0,0,0,3440.529,5165.147Z" transform="translate(11654.865 -7239.473)"/>
    <path id="Trazado_22593" data-name="Trazado 22593" d="M3453.248,5164.218v.82l-1.586.188a2.779,2.779,0,0,1,.563,1.711,2.53,2.53,0,0,1-.86,2.007,3.466,3.466,0,0,1-2.359.75,3.9,3.9,0,0,1-.719-.062,1.277,1.277,0,0,0-.828,1.1.561.561,0,0,0,.289.52,2.1,2.1,0,0,0,.992.168h1.516a3.394,3.394,0,0,1,2.137.586,2.036,2.036,0,0,1,.746,1.7,2.43,2.43,0,0,1-1.141,2.168,6.11,6.11,0,0,1-3.328.746,4.544,4.544,0,0,1-2.59-.625,2.02,2.02,0,0,1-.91-1.766,1.985,1.985,0,0,1,.5-1.351,2.552,2.552,0,0,1,1.406-.774,1.357,1.357,0,0,1-.551-.461,1.221,1.221,0,0,1-.222-.726,1.373,1.373,0,0,1,.25-.82,2.624,2.624,0,0,1,.789-.68,2.31,2.31,0,0,1-1.082-.93,2.726,2.726,0,0,1-.418-1.5,2.77,2.77,0,0,1,.844-2.168,3.44,3.44,0,0,1,2.39-.761,4.318,4.318,0,0,1,1.211.156Zm-6.828,10a1.159,1.159,0,0,0,.586,1.054,3.224,3.224,0,0,0,1.68.36,4.694,4.694,0,0,0,2.418-.488,1.5,1.5,0,0,0,.785-1.325,1.049,1.049,0,0,0-.43-.965,3.341,3.341,0,0,0-1.617-.269h-1.555a2.049,2.049,0,0,0-1.375.422A1.506,1.506,0,0,0,3446.42,5174.218Zm.7-7.258a1.739,1.739,0,0,0,.508,1.359,2.022,2.022,0,0,0,1.414.461,1.653,1.653,0,0,0,1.9-1.843,1.7,1.7,0,0,0-1.922-1.93,1.9,1.9,0,0,0-1.406.492A1.983,1.983,0,0,0,3447.123,5166.96Z" transform="translate(11654.865 -7239.473)"/>
    <path id="Trazado_22594" data-name="Trazado 22594" d="M3460.271,5172.78l-.257-1.218h-.063a3.594,3.594,0,0,1-1.277,1.089,3.88,3.88,0,0,1-1.59.286,2.857,2.857,0,0,1-2-.657,2.39,2.39,0,0,1-.723-1.867q0-2.594,4.149-2.719l1.453-.047v-.531a2.17,2.17,0,0,0-.434-1.488,1.785,1.785,0,0,0-1.387-.481,5.644,5.644,0,0,0-2.421.657l-.4-.992a6.211,6.211,0,0,1,2.9-.735,3.263,3.263,0,0,1,2.269.68,2.838,2.838,0,0,1,.738,2.18v5.843Zm-2.929-.914a2.631,2.631,0,0,0,1.9-.664,2.455,2.455,0,0,0,.692-1.859v-.774l-1.3.055a4.711,4.711,0,0,0-2.231.48,1.45,1.45,0,0,0-.683,1.325,1.336,1.336,0,0,0,.425,1.07A1.769,1.769,0,0,0,3457.342,5171.866Z" transform="translate(11654.865 -7239.473)"/>
    <path id="Trazado_22595" data-name="Trazado 22595" d="M3469.764,5172.78v-5.539a2.235,2.235,0,0,0-.477-1.562,1.939,1.939,0,0,0-1.492-.516,2.459,2.459,0,0,0-1.969.727,3.664,3.664,0,0,0-.625,2.4v4.492h-1.3v-8.562h1.055l.211,1.172h.062a2.648,2.648,0,0,1,1.118-.981,3.636,3.636,0,0,1,1.6-.347,3.253,3.253,0,0,1,2.328.746,3.173,3.173,0,0,1,.782,2.386v5.586Z" transform="translate(11654.865 -7239.473)"/>
    <path id="Trazado_22596" data-name="Trazado 22596" d="M3476.49,5171.866a4.082,4.082,0,0,0,.664-.051,4.442,4.442,0,0,0,.508-.1v.992a2.363,2.363,0,0,1-.621.168,4.708,4.708,0,0,1-.738.067q-2.485,0-2.485-2.618v-5.093h-1.226v-.625l1.226-.539.547-1.829h.75v1.985h2.485v1.008h-2.485v5.039a1.734,1.734,0,0,0,.367,1.187A1.278,1.278,0,0,0,3476.49,5171.866Z" transform="translate(11654.865 -7239.473)"/>
    <path id="Trazado_22597" data-name="Trazado 22597" d="M3482.99,5172.937a3.936,3.936,0,0,1-3-1.157,4.478,4.478,0,0,1-1.1-3.211,4.965,4.965,0,0,1,1.02-3.289,3.388,3.388,0,0,1,2.738-1.218,3.226,3.226,0,0,1,2.547,1.058,4.058,4.058,0,0,1,.938,2.793v.82h-5.9a3.4,3.4,0,0,0,.762,2.289,2.633,2.633,0,0,0,2.035.782,6.905,6.905,0,0,0,2.734-.578v1.156a6.828,6.828,0,0,1-1.3.426A7.316,7.316,0,0,1,3482.99,5172.937Zm-.351-7.79a2.119,2.119,0,0,0-1.645.672,3.109,3.109,0,0,0-.723,1.86h4.477a2.853,2.853,0,0,0-.547-1.879A1.926,1.926,0,0,0,3482.639,5165.147Z" transform="translate(11654.865 -7239.473)"/>
    <path id="Trazado_22598" data-name="Trazado 22598" d="M3489.709,5170.921l.117.18q-.2.78-.586,1.816t-.8,1.926h-.976q.21-.813.465-2.008t.355-1.914Z" transform="translate(11654.865 -7239.473)"/>
    <path id="Trazado_22599" data-name="Trazado 22599" d="M3500.045,5172.937a3.932,3.932,0,0,1-3-1.157,4.473,4.473,0,0,1-1.1-3.211,4.965,4.965,0,0,1,1.02-3.289,3.386,3.386,0,0,1,2.738-1.218,3.228,3.228,0,0,1,2.547,1.058,4.058,4.058,0,0,1,.937,2.793v.82h-5.9a3.393,3.393,0,0,0,.762,2.289,2.634,2.634,0,0,0,2.035.782,6.905,6.905,0,0,0,2.734-.578v1.156a6.808,6.808,0,0,1-1.3.426A7.305,7.305,0,0,1,3500.045,5172.937Zm-.352-7.79a2.118,2.118,0,0,0-1.644.672,3.1,3.1,0,0,0-.723,1.86h4.477a2.853,2.853,0,0,0-.547-1.879A1.926,1.926,0,0,0,3499.693,5165.147Z" transform="translate(11654.865 -7239.473)"/>
    <path id="Trazado_22600" data-name="Trazado 22600" d="M3507.467,5168.4l-2.977-4.179h1.477l2.258,3.281,2.25-3.281h1.461l-2.977,4.179,3.133,4.383h-1.469l-2.4-3.468-2.422,3.468h-1.469Z" transform="translate(11654.865 -7239.473)"/>
    <path id="Trazado_22601" data-name="Trazado 22601" d="M3517.209,5172.937a3.655,3.655,0,0,1-2.879-1.145,4.7,4.7,0,0,1-1.019-3.238,4.852,4.852,0,0,1,1.035-3.321,3.728,3.728,0,0,1,2.949-1.171,5.827,5.827,0,0,1,1.234.132,4.116,4.116,0,0,1,.969.313l-.4,1.1a6.116,6.116,0,0,0-.938-.285,4.212,4.212,0,0,0-.9-.113q-2.61,0-2.61,3.328a3.961,3.961,0,0,0,.637,2.422,2.218,2.218,0,0,0,1.887.844,5.769,5.769,0,0,0,2.2-.461v1.148A4.678,4.678,0,0,1,3517.209,5172.937Z" transform="translate(11654.865 -7239.473)"/>
    <path id="Trazado_22602" data-name="Trazado 22602" d="M3522.7,5172.78h-1.3v-12.156h1.3Z" transform="translate(11654.865 -7239.473)"/>
    <path id="Trazado_22603" data-name="Trazado 22603" d="M3526.67,5164.218v5.554a2.238,2.238,0,0,0,.476,1.563,1.942,1.942,0,0,0,1.493.516,2.44,2.44,0,0,0,1.965-.735,3.7,3.7,0,0,0,.621-2.4v-4.5h1.3v8.562h-1.07l-.187-1.148h-.071a2.576,2.576,0,0,1-1.105.969,3.727,3.727,0,0,1-1.613.336,3.272,3.272,0,0,1-2.34-.743,3.155,3.155,0,0,1-.778-2.375v-5.6Z" transform="translate(11654.865 -7239.473)"/>
    <path id="Trazado_22604" data-name="Trazado 22604" d="M3540.795,5170.444a2.146,2.146,0,0,1-.891,1.844,4.177,4.177,0,0,1-2.5.649,5.431,5.431,0,0,1-2.656-.54v-1.2a6.515,6.515,0,0,0,1.324.493,5.519,5.519,0,0,0,1.364.179,3.094,3.094,0,0,0,1.562-.324,1.116,1.116,0,0,0,.113-1.844,6.838,6.838,0,0,0-1.691-.84,9.055,9.055,0,0,1-1.7-.777,2.334,2.334,0,0,1-.75-.754,1.967,1.967,0,0,1-.246-1.008,1.921,1.921,0,0,1,.851-1.652,3.977,3.977,0,0,1,2.336-.6,6.832,6.832,0,0,1,2.7.562l-.461,1.055a6.187,6.187,0,0,0-2.336-.532,2.683,2.683,0,0,0-1.39.29.891.891,0,0,0-.469.8.969.969,0,0,0,.176.586,1.718,1.718,0,0,0,.566.461,12.666,12.666,0,0,0,1.5.633,5.609,5.609,0,0,1,2.059,1.117A1.975,1.975,0,0,1,3540.795,5170.444Z" transform="translate(11654.865 -7239.473)"/>
    <path id="Trazado_22605" data-name="Trazado 22605" d="M3542.795,5161.9a.861.861,0,0,1,.219-.652.81.81,0,0,1,1.086,0,.845.845,0,0,1,.226.648.861.861,0,0,1-.226.653.76.76,0,0,1-.539.215.749.749,0,0,1-.547-.215A.879.879,0,0,1,3542.795,5161.9Zm1.406,10.883h-1.3v-8.562h1.3Z" transform="translate(11654.865 -7239.473)"/>
    <path id="Trazado_22606" data-name="Trazado 22606" d="M3548.826,5172.78l-3.25-8.562h1.391l1.844,5.078a23.881,23.881,0,0,1,.734,2.312h.062a17.957,17.957,0,0,1,.543-1.714q.458-1.3,2.051-5.676h1.391l-3.25,8.562Z" transform="translate(11654.865 -7239.473)"/>
    <path id="Trazado_22607" data-name="Trazado 22607" d="M3554.857,5161.9a.864.864,0,0,1,.219-.652.81.81,0,0,1,1.086,0,.846.846,0,0,1,.227.648.862.862,0,0,1-.227.653.758.758,0,0,1-.539.215.751.751,0,0,1-.547-.215A.883.883,0,0,1,3554.857,5161.9Zm1.407,10.883h-1.3v-8.562h1.3Z" transform="translate(11654.865 -7239.473)"/>
    <path id="Trazado_22608" data-name="Trazado 22608" d="M3564.842,5171.632h-.071a3.046,3.046,0,0,1-2.687,1.305,3.177,3.177,0,0,1-2.613-1.149,5.06,5.06,0,0,1-.934-3.266,5.143,5.143,0,0,1,.938-3.289,3.155,3.155,0,0,1,2.609-1.171,3.113,3.113,0,0,1,2.672,1.265h.1l-.054-.617-.032-.6v-3.484h1.3v12.156h-1.054Zm-2.594.219a2.365,2.365,0,0,0,1.926-.723,3.655,3.655,0,0,0,.6-2.332v-.274a4.3,4.3,0,0,0-.6-2.6,2.3,2.3,0,0,0-1.934-.778,1.985,1.985,0,0,0-1.746.887,4.413,4.413,0,0,0-.6,2.5,4.232,4.232,0,0,0,.6,2.477A2.041,2.041,0,0,0,3562.248,5171.851Z" transform="translate(11654.865 -7239.473)"/>
    <path id="Trazado_22609" data-name="Trazado 22609" d="M3574.084,5172.78l-.258-1.218h-.062a3.6,3.6,0,0,1-1.278,1.089,3.877,3.877,0,0,1-1.59.286,2.86,2.86,0,0,1-2-.657,2.393,2.393,0,0,1-.722-1.867q0-2.594,4.148-2.719l1.453-.047v-.531a2.17,2.17,0,0,0-.433-1.488,1.785,1.785,0,0,0-1.387-.481,5.644,5.644,0,0,0-2.422.657l-.4-.992a6.2,6.2,0,0,1,2.9-.735,3.266,3.266,0,0,1,2.27.68,2.838,2.838,0,0,1,.738,2.18v5.843Zm-2.93-.914a2.632,2.632,0,0,0,1.9-.664,2.454,2.454,0,0,0,.691-1.859v-.774l-1.3.055a4.71,4.71,0,0,0-2.23.48,1.451,1.451,0,0,0-.684,1.325,1.337,1.337,0,0,0,.426,1.07A1.766,1.766,0,0,0,3571.154,5171.866Z" transform="translate(11654.865 -7239.473)"/>
    <path id="Trazado_22610" data-name="Trazado 22610" d="M3583.545,5171.632h-.07a3.049,3.049,0,0,1-2.688,1.305,3.177,3.177,0,0,1-2.613-1.149,5.058,5.058,0,0,1-.934-3.266,5.143,5.143,0,0,1,.938-3.289,3.156,3.156,0,0,1,2.609-1.171,3.113,3.113,0,0,1,2.672,1.265h.1l-.055-.617-.031-.6v-3.484h1.3v12.156h-1.054Zm-2.594.219a2.363,2.363,0,0,0,1.926-.723,3.654,3.654,0,0,0,.6-2.332v-.274a4.3,4.3,0,0,0-.606-2.6,2.3,2.3,0,0,0-1.933-.778,1.986,1.986,0,0,0-1.747.887,4.413,4.413,0,0,0-.6,2.5,4.222,4.222,0,0,0,.6,2.477A2.038,2.038,0,0,0,3580.951,5171.851Z" transform="translate(11654.865 -7239.473)"/>
    <path id="Trazado_22611" data-name="Trazado 22611" d="M3587.334,5171.952a1.165,1.165,0,0,1,.238-.793.863.863,0,0,1,.684-.269.921.921,0,0,1,.707.269,1.118,1.118,0,0,1,.254.793,1.093,1.093,0,0,1-.258.781.917.917,0,0,1-.7.274.928.928,0,0,1-.66-.246A1.069,1.069,0,0,1,3587.334,5171.952Z" transform="translate(11654.865 -7239.473)"/>
    <path id="Trazado_22612" data-name="Trazado 22612" d="M3495.069,5107.347a24.6,24.6,0,0,1-7.1,1.152c-4.08,0-6.961-1.152-9.072-3.217-2.977-2.832-4.417-7.728-4.322-13.152.193-11.426,7.009-16.562,14.4-16.562a13.574,13.574,0,0,1,5.568,1.008l-1.2,6.385a8.3,8.3,0,0,0-3.7-.721c-4.369,0-7.344,2.833-7.344,10.562,0,6.816,2.687,9.457,5.183,9.457a2.237,2.237,0,0,0,.817-.1v-6.576h-2.353v-6.049h9.121Z" transform="translate(11654.865 -7239.473)"/>
    <path id="Trazado_22613" data-name="Trazado 22613" d="M3498.956,5092.13c0-2.5-.1-5.137-.192-7.537h6.384l.384,3.36h.193c1.151-2.64,3.023-3.744,4.559-3.744a6.55,6.55,0,0,1,1.585.144v7.3a8.4,8.4,0,0,0-1.633-.095,3.7,3.7,0,0,0-3.5,2.688,7.423,7.423,0,0,0-.336,2.447v11.522h-7.44Z" transform="translate(11654.865 -7239.473)"/>
    <path id="Trazado_22614" data-name="Trazado 22614" d="M3521.323,5078.305a3.656,3.656,0,0,1-3.744,3.84,3.869,3.869,0,1,1,3.744-3.84Zm-7.3,29.906v-23.618h7.441v23.618Z" transform="translate(11654.865 -7239.473)"/>
    <path id="Trazado_22615" data-name="Trazado 22615" d="M3525.5,5101.778a9.811,9.811,0,0,0,4.464,1.248c1.392,0,2.16-.479,2.16-1.536,0-1.008-.72-1.536-2.64-2.592-4.176-2.256-4.8-4.9-4.8-6.816,0-4.417,3.12-7.873,8.3-7.873a12.04,12.04,0,0,1,5.04,1.056l-1.151,5.377a7.241,7.241,0,0,0-3.36-.913c-1.441,0-2.065.72-2.065,1.584,0,.817.528,1.3,2.689,2.5,3.792,2.064,4.7,4.656,4.7,7.056,0,4.9-3.553,7.633-8.881,7.633a11.2,11.2,0,0,1-5.664-1.344Z" transform="translate(11654.865 -7239.473)"/>
  </g>
</svg>
