<svg xmlns="http://www.w3.org/2000/svg" width="95.478" height="111.305" viewBox="0 0 95.478 111.305">
  <g id="Grupo_13727" data-name="Grupo 13727" transform="translate(-5738.602 -1088.031)">
    <path id="Trazado_20860" data-name="Trazado 20860" d="M5907.3,1273.794a20.24,20.24,0,1,1-20.24-20.239A20.24,20.24,0,0,1,5907.3,1273.794Z" transform="translate(-100.673 -129.965)" fill="#54a0ff"/>
    <path id="Trazado_20861" data-name="Trazado 20861" d="M5873.337,1273.794a20.244,20.244,0,0,1,16.981-19.977,20.24,20.24,0,1,0,0,39.955A20.244,20.244,0,0,1,5873.337,1273.794Z" transform="translate(-100.673 -129.965)" fill="#338def"/>
    <path id="Trazado_20862" data-name="Trazado 20862" d="M5945.075,1286.034a6.011,6.011,0,1,1-6.011-6.011A6.012,6.012,0,0,1,5945.075,1286.034Z" transform="translate(-152.677 -150.747)" fill="#ffcdbf"/>
    <path id="Trazado_20863" data-name="Trazado 20863" d="M5928.464,1335.984h-6.8a6.459,6.459,0,0,0-6.44,6.44v7.461a1.1,1.1,0,0,0,1.1,1.1h17.49a1.1,1.1,0,0,0,1.1-1.1v-7.461A6.459,6.459,0,0,0,5928.464,1335.984Z" transform="translate(-138.676 -194.686)" fill="#feca57"/>
    <path id="Trazado_20864" data-name="Trazado 20864" d="M5919.559,1349.884v-7.461a6.459,6.459,0,0,1,6.441-6.44h-4.338a6.459,6.459,0,0,0-6.44,6.44v7.461a1.1,1.1,0,0,0,1.1,1.1h4.338A1.1,1.1,0,0,1,5919.559,1349.884Z" transform="translate(-138.676 -194.686)" fill="#f4b537"/>
    <path id="Trazado_20865" data-name="Trazado 20865" d="M6113.909,1379.429a6.011,6.011,0,1,1-6.011-6.011A6.01,6.01,0,0,1,6113.909,1379.429Z" transform="translate(-285.241 -224.078)" fill="#ffcdbf"/>
    <path id="Trazado_20866" data-name="Trazado 20866" d="M6097.3,1429.375h-6.8a6.46,6.46,0,0,0-6.44,6.441v5.039a1.1,1.1,0,0,0,1.1,1.1h17.49a1.1,1.1,0,0,0,1.1-1.1v-5.039A6.46,6.46,0,0,0,6097.3,1429.375Z" transform="translate(-271.24 -268.014)" fill="#536b6b"/>
    <path id="Trazado_20867" data-name="Trazado 20867" d="M6088.393,1440.855v-5.039a6.46,6.46,0,0,1,6.44-6.441h-4.338a6.46,6.46,0,0,0-6.44,6.441v5.039a1.1,1.1,0,0,0,1.1,1.1h4.337A1.1,1.1,0,0,1,6088.393,1440.855Z" transform="translate(-271.24 -268.014)" fill="#006b6b"/>
    <path id="Trazado_20868" data-name="Trazado 20868" d="M5776.242,1379.429a6.011,6.011,0,1,1-6.011-6.011A6.011,6.011,0,0,1,5776.242,1379.429Z" transform="translate(-20.115 -224.078)" fill="#ffcdbf"/>
    <path id="Trazado_20869" data-name="Trazado 20869" d="M5759.63,1429.375h-6.8a6.459,6.459,0,0,0-6.439,6.441v5.039a1.1,1.1,0,0,0,1.1,1.1h17.49a1.1,1.1,0,0,0,1.1-1.1v-5.039A6.46,6.46,0,0,0,5759.63,1429.375Z" transform="translate(-6.113 -268.014)" fill="#436bb6"/>
    <path id="Trazado_20870" data-name="Trazado 20870" d="M5750.725,1440.855v-5.039a6.46,6.46,0,0,1,6.441-6.441h-4.339a6.459,6.459,0,0,0-6.439,6.441v5.039a1.1,1.1,0,0,0,1.1,1.1h4.338A1.1,1.1,0,0,1,5750.725,1440.855Z" transform="translate(-6.113 -268.014)" fill="#0052ff"/>
    <path id="Trazado_20871" data-name="Trazado 20871" d="M6113.909,1203.25a6.011,6.011,0,1,1-6.011-6.01A6.011,6.011,0,0,1,6113.909,1203.25Z" transform="translate(-285.241 -85.748)" fill="#ffcdbf"/>
    <path id="Trazado_20872" data-name="Trazado 20872" d="M6097.3,1253.2h-6.8a6.459,6.459,0,0,0-6.44,6.441v5.039a1.1,1.1,0,0,0,1.1,1.1h17.49a1.1,1.1,0,0,0,1.1-1.1v-5.039A6.459,6.459,0,0,0,6097.3,1253.2Z" transform="translate(-271.24 -129.684)" fill="#ffb56b"/>
    <path id="Trazado_20873" data-name="Trazado 20873" d="M6088.393,1264.677v-5.039a6.459,6.459,0,0,1,6.44-6.441h-4.338a6.459,6.459,0,0,0-6.44,6.441v5.039a1.1,1.1,0,0,0,1.1,1.1h4.337A1.1,1.1,0,0,1,6088.393,1264.677Z" transform="translate(-271.24 -129.684)" fill="#ee7253"/>
    <path id="Trazado_20874" data-name="Trazado 20874" d="M5776.242,1203.25a6.011,6.011,0,1,1-6.011-6.01A6.011,6.011,0,0,1,5776.242,1203.25Z" transform="translate(-20.115 -85.748)" fill="#ffcdbf"/>
    <path id="Trazado_20875" data-name="Trazado 20875" d="M5759.63,1253.2h-6.8a6.458,6.458,0,0,0-6.439,6.441v5.039a1.1,1.1,0,0,0,1.1,1.1h17.49a1.1,1.1,0,0,0,1.1-1.1v-5.039A6.459,6.459,0,0,0,5759.63,1253.2Z" transform="translate(-6.113 -129.684)" fill="#ff6b00"/>
    <path id="Trazado_20876" data-name="Trazado 20876" d="M5750.725,1264.677v-5.039a6.459,6.459,0,0,1,6.441-6.441h-4.339a6.458,6.458,0,0,0-6.439,6.441v5.039a1.1,1.1,0,0,0,1.1,1.1h4.338A1.1,1.1,0,0,1,5750.725,1264.677Z" transform="translate(-6.113 -129.684)" fill="#ff4d00"/>
    <path id="Trazado_20877" data-name="Trazado 20877" d="M5945.075,1490.15a6.011,6.011,0,1,1-6.011-6.011A6.011,6.011,0,0,1,5945.075,1490.15Z" transform="translate(-152.677 -311.013)" fill="#ffcdbf"/>
    <path id="Trazado_20878" data-name="Trazado 20878" d="M5939.57,1286.034a6.006,6.006,0,0,1,2.752-5.05,6.011,6.011,0,1,0,0,10.1A6,6,0,0,1,5939.57,1286.034Z" transform="translate(-152.677 -150.747)" fill="#ffbeab"/>
    <path id="Trazado_20879" data-name="Trazado 20879" d="M6108.4,1379.429a6.006,6.006,0,0,1,2.752-5.05,6.01,6.01,0,1,0,0,10.1A6,6,0,0,1,6108.4,1379.429Z" transform="translate(-285.241 -224.078)" fill="#ffbeab"/>
    <path id="Trazado_20880" data-name="Trazado 20880" d="M5770.737,1379.429a6.007,6.007,0,0,1,2.753-5.05,6.01,6.01,0,1,0,0,10.1A6,6,0,0,1,5770.737,1379.429Z" transform="translate(-20.115 -224.078)" fill="#ffbeab"/>
    <path id="Trazado_20881" data-name="Trazado 20881" d="M6108.4,1203.25a6,6,0,0,1,2.752-5.05,6.011,6.011,0,1,0,0,10.1A6.006,6.006,0,0,1,6108.4,1203.25Z" transform="translate(-285.241 -85.748)" fill="#ffbeab"/>
    <path id="Trazado_20882" data-name="Trazado 20882" d="M5770.737,1203.25a6,6,0,0,1,2.753-5.05,6.011,6.011,0,1,0,0,10.1A6.007,6.007,0,0,1,5770.737,1203.25Z" transform="translate(-20.115 -85.748)" fill="#ffbeab"/>
    <path id="Trazado_20883" data-name="Trazado 20883" d="M5939.57,1490.15a6,6,0,0,1,2.752-5.05,6.011,6.011,0,1,0,0,10.1A6,6,0,0,1,5939.57,1490.15Z" transform="translate(-152.677 -311.013)" fill="#ffbeab"/>
    <path id="Trazado_20884" data-name="Trazado 20884" d="M5928.464,1540.1h-6.8a6.459,6.459,0,0,0-6.44,6.44v5.039a1.1,1.1,0,0,0,1.1,1.1h17.49a1.1,1.1,0,0,0,1.1-1.1v-5.039A6.459,6.459,0,0,0,5928.464,1540.1Z" transform="translate(-138.676 -354.952)" fill="#ff6bc8"/>
    <path id="Trazado_20885" data-name="Trazado 20885" d="M5919.559,1551.579v-5.039a6.459,6.459,0,0,1,6.441-6.44h-4.338a6.459,6.459,0,0,0-6.44,6.44v5.039a1.1,1.1,0,0,0,1.1,1.1h4.338A1.1,1.1,0,0,1,5919.559,1551.579Z" transform="translate(-138.676 -354.952)" fill="#ff3dc8"/>
    <path id="Trazado_20886" data-name="Trazado 20886" d="M5907.436,1292.466v7.462a2.727,2.727,0,0,0,2.723,2.724h17.491a2.727,2.727,0,0,0,2.724-2.724v-7.462a8.08,8.08,0,0,0-5.53-7.656,7.638,7.638,0,1,0-11.877,0A8.081,8.081,0,0,0,5907.436,1292.466Zm11.468-16.834a4.384,4.384,0,1,1-4.384,4.384A4.389,4.389,0,0,1,5918.9,1275.632Zm-8.215,16.834a4.819,4.819,0,0,1,4.814-4.813h6.8a4.819,4.819,0,0,1,4.813,4.813v6.931h-1.7v-7.162a1.627,1.627,0,1,0-3.254,0v7.162h-6.528v-7.162a1.626,1.626,0,1,0-3.253,0v7.162h-1.7Z" transform="translate(-132.564 -144.744)"/>
    <path id="Trazado_20887" data-name="Trazado 20887" d="M6076.269,1209.682v5.039a2.727,2.727,0,0,0,2.724,2.724h17.49a2.727,2.727,0,0,0,2.724-2.724v-5.039a8.079,8.079,0,0,0-5.529-7.656,7.637,7.637,0,1,0-11.878,0A8.08,8.08,0,0,0,6076.269,1209.682Zm11.469-16.835a4.384,4.384,0,1,1-4.384,4.384A4.389,4.389,0,0,1,6087.738,1192.847Zm-8.215,16.835a4.819,4.819,0,0,1,4.813-4.813h6.8a4.819,4.819,0,0,1,4.813,4.813v4.51h-1.7v-4.741a1.627,1.627,0,0,0-3.253,0v4.741h-6.528v-4.741a1.626,1.626,0,0,0-3.253,0v4.741h-1.7v-4.51Z" transform="translate(-265.127 -79.744)"/>
    <path id="Trazado_20888" data-name="Trazado 20888" d="M5738.6,1209.682v5.039a2.727,2.727,0,0,0,2.724,2.724h17.49a2.727,2.727,0,0,0,2.724-2.724v-5.039a8.08,8.08,0,0,0-5.53-7.656,7.638,7.638,0,1,0-11.877,0A8.079,8.079,0,0,0,5738.6,1209.682Zm11.468-16.835a4.384,4.384,0,1,1-4.384,4.384A4.389,4.389,0,0,1,5750.07,1192.847Zm-8.215,16.835a4.819,4.819,0,0,1,4.814-4.813h6.8a4.818,4.818,0,0,1,4.813,4.813v4.51h-1.7v-4.741a1.627,1.627,0,0,0-3.254,0v4.741h-6.528v-4.741a1.626,1.626,0,0,0-3.253,0v4.741h-1.7Z" transform="translate(0 -79.744)"/>
    <path id="Trazado_20889" data-name="Trazado 20889" d="M6076.269,1390.9a2.727,2.727,0,0,0,2.724,2.724h17.49a2.727,2.727,0,0,0,2.724-2.724v-5.039a8.079,8.079,0,0,0-5.529-7.656,7.637,7.637,0,1,0-11.878,0,8.08,8.08,0,0,0-5.53,7.656Zm11.469-21.875a4.384,4.384,0,1,1-4.384,4.385A4.389,4.389,0,0,1,6087.738,1369.026Zm-8.215,16.835a4.819,4.819,0,0,1,4.813-4.813h6.8a4.819,4.819,0,0,1,4.813,4.813v4.51h-1.7v-4.741a1.627,1.627,0,0,0-3.253,0v4.741h-6.528v-4.741a1.626,1.626,0,0,0-3.253,0v4.741h-1.7v-4.51Z" transform="translate(-265.127 -218.075)"/>
    <path id="Trazado_20890" data-name="Trazado 20890" d="M5738.6,1390.9a2.727,2.727,0,0,0,2.724,2.724h17.49a2.727,2.727,0,0,0,2.724-2.724v-5.039a8.08,8.08,0,0,0-5.53-7.656,7.638,7.638,0,1,0-11.877,0,8.08,8.08,0,0,0-5.53,7.656Zm11.468-21.875a4.384,4.384,0,1,1-4.384,4.385A4.389,4.389,0,0,1,5750.07,1369.026Zm-8.215,16.835a4.819,4.819,0,0,1,4.814-4.813h6.8a4.818,4.818,0,0,1,4.813,4.813v4.51h-1.7v-4.741a1.627,1.627,0,0,0-3.254,0v4.741h-6.528v-4.741a1.626,1.626,0,0,0-3.253,0v4.741h-1.7Z" transform="translate(0 -218.075)"/>
    <path id="Trazado_20891" data-name="Trazado 20891" d="M5851.9,1263.075a1.627,1.627,0,0,0,2.222.6l2.942-1.7a21.872,21.872,0,0,0,16.438,9.5v3.39a1.627,1.627,0,0,0,3.253,0v-3.395a21.891,21.891,0,0,0,16.444-9.489l2.936,1.694a1.627,1.627,0,1,0,1.626-2.818l-2.93-1.692a21.8,21.8,0,0,0,1.778-5.4,1.626,1.626,0,1,0-3.2-.606,18.614,18.614,0,1,1-2.188-12.842c.008.014.014.029.023.043l.016.024a18.483,18.483,0,0,1,2.149,5.79,1.626,1.626,0,1,0,3.2-.606,21.759,21.759,0,0,0-1.778-5.4l2.93-1.692a1.627,1.627,0,1,0-1.626-2.818l-2.936,1.694a21.89,21.89,0,0,0-16.444-9.489v-3.395a1.627,1.627,0,0,0-3.253,0v3.39a21.877,21.877,0,0,0-16.437,9.5l-2.942-1.7a1.627,1.627,0,1,0-1.626,2.818l2.938,1.7a21.835,21.835,0,0,0,0,18.986l-2.937,1.7A1.625,1.625,0,0,0,5851.9,1263.075Z" transform="translate(-88.784 -105.85)"/>
    <path id="Trazado_20892" data-name="Trazado 20892" d="M5907.436,1496.583v5.039a2.727,2.727,0,0,0,2.723,2.724h17.491a2.727,2.727,0,0,0,2.724-2.724v-5.039a8.081,8.081,0,0,0-5.53-7.657,7.638,7.638,0,1,0-11.877,0A8.081,8.081,0,0,0,5907.436,1496.583Zm11.468-16.836a4.385,4.385,0,1,1-4.384,4.385A4.39,4.39,0,0,1,5918.9,1479.747Zm-8.215,16.836a4.82,4.82,0,0,1,4.814-4.814h6.8a4.819,4.819,0,0,1,4.813,4.814v4.509h-1.7v-4.74a1.627,1.627,0,1,0-3.254,0v4.74h-6.528v-4.74a1.626,1.626,0,1,0-3.253,0v4.74h-1.7Z" transform="translate(-132.564 -305.01)"/>
    <g id="Grupo_13726" data-name="Grupo 13726" transform="translate(5774.732 1088.031)">
      <path id="Trazado_20893" data-name="Trazado 20893" d="M5944.422,1101.687a6.011,6.011,0,1,1-6.011-6.01A6.011,6.011,0,0,1,5944.422,1101.687Z" transform="translate(-5926.896 -1094.034)" fill="#ffcdbf"/>
      <path id="Trazado_20894" data-name="Trazado 20894" d="M5927.811,1151.633h-6.8a6.46,6.46,0,0,0-6.44,6.441v5.039a1.1,1.1,0,0,0,1.1,1.1h17.49a1.1,1.1,0,0,0,1.1-1.1v-5.039A6.459,6.459,0,0,0,5927.811,1151.633Z" transform="translate(-5912.895 -1137.969)" fill="#ff6b6b"/>
      <path id="Trazado_20895" data-name="Trazado 20895" d="M5918.905,1163.113v-5.039a6.46,6.46,0,0,1,6.44-6.441h-4.338a6.46,6.46,0,0,0-6.44,6.441v5.039a1.1,1.1,0,0,0,1.1,1.1H5920A1.1,1.1,0,0,1,5918.905,1163.113Z" transform="translate(-5912.895 -1137.969)" fill="#ee5253"/>
      <path id="Trazado_20896" data-name="Trazado 20896" d="M5938.917,1101.687a6,6,0,0,1,2.752-5.05,6.011,6.011,0,1,0,0,10.1A6.006,6.006,0,0,1,5938.917,1101.687Z" transform="translate(-5926.896 -1094.034)" fill="#ffbeab"/>
      <path id="Trazado_20897" data-name="Trazado 20897" d="M5906.783,1108.119v5.039a2.727,2.727,0,0,0,2.724,2.724H5927a2.727,2.727,0,0,0,2.724-2.724v-5.039a8.079,8.079,0,0,0-5.53-7.656,7.637,7.637,0,1,0-11.878,0A8.079,8.079,0,0,0,5906.783,1108.119Zm11.469-16.835a4.384,4.384,0,1,1-4.384,4.384A4.389,4.389,0,0,1,5918.252,1091.284Zm-8.215,16.835a4.819,4.819,0,0,1,4.813-4.813h6.8a4.819,4.819,0,0,1,4.813,4.813v4.51h-1.7v-4.741a1.627,1.627,0,0,0-3.253,0v4.741h-6.528v-4.741a1.626,1.626,0,0,0-3.253,0v4.741h-1.7v-4.51Z" transform="translate(-5906.783 -1088.031)"/>
    </g>
  </g>
</svg>
