<svg xmlns="http://www.w3.org/2000/svg" width="124.375" height="116.939" viewBox="0 0 124.375 116.939">
  <g id="Grupo_13547" data-name="Grupo 13547" transform="translate(-2261.593 72.77)">
    <path id="Trazado_20477" data-name="Trazado 20477" d="M2393.267-65.142l-41.142,7.254a14.965,14.965,0,0,0-12.139,17.337L2350.2,17.385a7.986,7.986,0,0,0,9.251,6.478l48.015-8.466a7.986,7.986,0,0,0,6.478-9.252l-11.428-64.809A7.986,7.986,0,0,0,2393.267-65.142Z" transform="translate(-59.176 -5.682)" fill="#f0f2ff"/>
    <path id="Trazado_20478" data-name="Trazado 20478" d="M2352.125-40.635A14.965,14.965,0,0,0,2339.986-23.3L2350.2,34.637a7.986,7.986,0,0,0,9.251,6.478l48.015-8.466a7.985,7.985,0,0,0,6.5-9.086h0c-29.423,5.031-54-29.129-51.4-66.039Z" transform="translate(-59.176 -22.935)" fill="#dbe1ff"/>
    <path id="Trazado_20479" data-name="Trazado 20479" d="M2352.125-37.536A14.965,14.965,0,0,0,2339.986-20.2l.847,4.8c-.4-2.261.3-6.469,4.359-7.184a7.986,7.986,0,0,0,6.478-9.252c-.715-4.054,3-6.154,5.26-6.553Z" transform="translate(-59.176 -26.034)" fill="#909de0"/>
    <path id="Trazado_20480" data-name="Trazado 20480" d="M2269.136,203.942l7.311-41.462a2.6,2.6,0,0,1,3.008-2.106l67.125,11.836a2.6,2.6,0,0,1,2.106,3.008l-7.311,41.462a2.6,2.6,0,0,1-3.008,2.106l-67.125-11.836A2.6,2.6,0,0,1,2269.136,203.942Z" transform="translate(-5.68 -176.479)" fill="#bbe0f1"/>
    <path id="Trazado_20481" data-name="Trazado 20481" d="M2390.358,282.25a2.6,2.6,0,0,0,3.008-2.106L2396.742,261l-9.635-13.761a7.215,7.215,0,0,0-10.048-1.772l-39.29,27.511Z" transform="translate(-57.671 -239.943)" fill="#5b9675"/>
    <path id="Trazado_20482" data-name="Trazado 20482" d="M2276.392,298.068a2.6,2.6,0,0,0,.374.1l45.883,8.09-16.452-23.5a4.557,4.557,0,0,0-6.346-1.119Z" transform="translate(-11.204 -267.695)" fill="#72cda2"/>
    <circle id="Elipse_842" data-name="Elipse 842" cx="7.211" cy="7.211" r="7.211" transform="translate(2277.88 -6.825) rotate(-5.655)" fill="#f8e47c"/>
    <circle id="Elipse_843" data-name="Elipse 843" cx="21.491" cy="21.491" r="21.491" transform="translate(2331.716 -2.459)" fill="#e38892"/>
    <path id="Trazado_20483" data-name="Trazado 20483" d="M2622.212,277.041l-12.633,6.316a3.78,3.78,0,0,1-5.47-3.381V267.344a3.78,3.78,0,0,1,5.47-3.381l12.633,6.316A3.78,3.78,0,0,1,2622.212,277.041Z" transform="translate(-259.313 -254.629)" fill="#fff"/>
    <path id="Trazado_20484" data-name="Trazado 20484" d="M2590.309,249.99c-26.881,5.227-33.344-19.848-22.219-32.027a21.491,21.491,0,1,0,22.219,32.027Z" transform="translate(-218.549 -220.109)" fill="#812b2f" opacity="0.15" style="isolation: isolate"/>
    <rect id="Rectángulo_3659" data-name="Rectángulo 3659" width="40.102" height="8.528" transform="translate(2352.76 -15.105) rotate(-80.003)" fill="#6b7bab"/>
    <path id="Trazado_20485" data-name="Trazado 20485" d="M2577.876,168.325H2572.5a10.073,10.073,0,0,1-9.92-11.822h0a10.073,10.073,0,0,1,9.92-8.324h17.377L2587.8,160A10.073,10.073,0,0,1,2577.876,168.325Z" transform="translate(-227.756 -167.278)" fill="#f8e47c"/>
    <path id="Trazado_20486" data-name="Trazado 20486" d="M2575.427,148.179H2572.5a10.073,10.073,0,0,0-9.92,8.324h0a10.073,10.073,0,0,0,9.92,11.822h5.373a10.059,10.059,0,0,0,7.1-2.93C2572.719,166.86,2567.986,153.488,2575.427,148.179Z" transform="translate(-227.757 -167.277)" fill="#c97b00" opacity="0.2" style="isolation: isolate"/>
    <path id="Trazado_20487" data-name="Trazado 20487" d="M2684.9-46.591h-13.457a8.11,8.11,0,0,0-7.987,6.7l-1.864,10.574h13.345a11.192,11.192,0,0,0,11.022-9.249l.986-5.589A2.077,2.077,0,0,0,2684.9-46.591Z" transform="translate(-302.833 -19.82)" fill="#e38892"/>
    <path id="Trazado_20488" data-name="Trazado 20488" d="M2674.939-29.315a11.158,11.158,0,0,0,5.885-1.674c-6.051-1.513-8.363-11.3-7.492-15.6h-1.888a8.11,8.11,0,0,0-7.987,6.7l-1.864,10.574Z" transform="translate(-302.833 -19.82)" fill="#812b2f" opacity="0.15" style="isolation: isolate"/>
    <path id="Trazado_20489" data-name="Trazado 20489" d="M2287.334-9.256a8.975,8.975,0,0,0-6.749,1.5,8.975,8.975,0,0,0-3.714,5.831,8.974,8.974,0,0,0,1.5,6.749,8.973,8.973,0,0,0,5.831,3.714,9.037,9.037,0,0,0,1.573.138,9.047,9.047,0,0,0,8.891-7.465A9.043,9.043,0,0,0,2287.334-9.256Zm3.738,9.831a5.4,5.4,0,0,1-6.242,4.371,5.353,5.353,0,0,1-3.479-2.216,5.353,5.353,0,0,1-.893-4.026,5.354,5.354,0,0,1,2.216-3.479,5.348,5.348,0,0,1,3.079-.976,5.438,5.438,0,0,1,.947.083A5.394,5.394,0,0,1,2291.072.575Zm11.959-22.961a1.822,1.822,0,0,0-1.478,2.111,1.822,1.822,0,0,0,1.792,1.506,1.828,1.828,0,0,0,.319-.028l28.8-5.077a1.822,1.822,0,0,0,1.478-2.11,1.821,1.821,0,0,0-2.111-1.478ZM2351.082,7.7a5.6,5.6,0,0,0-8.108,5.01V25.348a5.594,5.594,0,0,0,8.107,5.011l12.633-6.317a5.6,5.6,0,0,0,0-10.021Zm11,13.078L2349.452,27.1a1.958,1.958,0,0,1-2.834-1.752V12.715a1.92,1.92,0,0,1,.929-1.666,1.943,1.943,0,0,1,1.025-.3,1.965,1.965,0,0,1,.88.212l12.633,6.317a1.958,1.958,0,0,1,0,3.5Zm22.97-87.623a3.89,3.89,0,0,0-2.987-1.393h-13.457a9.918,9.918,0,0,0-9.781,8.207l-1.864,10.574-4.573,25.938-7.256-41.149a9.746,9.746,0,0,0-4.033-6.331,9.741,9.741,0,0,0-7.329-1.624l-41.142,7.254a16.806,16.806,0,0,0-13.617,19.447l1.886,10.694a1.821,1.821,0,0,0,2.111,1.478,1.822,1.822,0,0,0,1.478-2.111l-1.038-5.89h0a5.761,5.761,0,0,1,.38-3.115,3.169,3.169,0,0,1,2.5-1.958,9.819,9.819,0,0,0,7.956-11.362,3.168,3.168,0,0,1,.984-3.019,5.763,5.763,0,0,1,2.8-1.423h0l36.335-6.407a6.171,6.171,0,0,1,7.141,5l7.6,43.11h-4.4a11.877,11.877,0,0,0-11.714,9.829,11.894,11.894,0,0,0-.083,3.569l-44.858-7.91-2.1-11.9a1.821,1.821,0,0,0-2.111-1.478A1.822,1.822,0,0,0,2282.4-26.7l1.869,10.6-10.182-1.8a4.422,4.422,0,0,0-5.119,3.584l-7.311,41.462a4.408,4.408,0,0,0,2.929,4.946l.021.009.049.014c.078.025.156.049.235.07.118.032.234.059.348.079h.006L2332.371,44.1a4.416,4.416,0,0,0,5.119-3.584l.654-3.709a23.291,23.291,0,0,0,27.846,1.722,1.822,1.822,0,0,0-2-3.045,19.672,19.672,0,0,1-30.451-16.452,19.808,19.808,0,0,1,.976-6.161,1.774,1.774,0,0,0,.09-.265,19.544,19.544,0,0,1,7.753-9.981,11.939,11.939,0,0,0,2.39.245h5.373a11.868,11.868,0,0,0,7.822-2.931,19.674,19.674,0,0,1,11.63,30.006,1.822,1.822,0,1,0,3.03,2.024,23.317,23.317,0,0,0-12.151-35.1,11.91,11.91,0,0,0,1.382-3.833l7.115-40.354h3.157a13,13,0,0,0,12.816-10.754l.985-5.589A3.892,3.892,0,0,0,2385.055-66.84ZM2290.7-57.548a6.172,6.172,0,0,1-5,7.141,6.946,6.946,0,0,0-3.292,1.506,13.173,13.173,0,0,1,8.582-12.257A6.943,6.943,0,0,0,2290.7-57.548Zm-20.9,86.916,19.893-13.929a2.738,2.738,0,0,1,3.809.672l3.541,5.057h0L2307.43,36Zm65.212,4.219-1.11,6.3a.777.777,0,0,1-.9.628L2312.5,36.9l-11.432-16.327,19.36-13.556a5.393,5.393,0,0,1,7.511,1.324l2.883,4.118a23.512,23.512,0,0,0-.932,6.574A23.2,23.2,0,0,0,2335.011,33.586ZM2332.436,8.4l-1.508-2.153a9.037,9.037,0,0,0-12.586-2.219l-19.36,13.556-2.5-3.566a6.386,6.386,0,0,0-8.883-1.566L2265.261,28.1a.758.758,0,0,1-.011-.318l7.311-41.462a.776.776,0,0,1,.9-.628l12.732,2.245.015,0,47.952,8.455a11.937,11.937,0,0,0,1.478,2.229,11.9,11.9,0,0,0,2.757,2.407A23.133,23.133,0,0,0,2332.436,8.4Zm25.81-16a8.233,8.233,0,0,1-2.1,4.212,1.77,1.77,0,0,0-.144.149,8.235,8.235,0,0,1-5.877,2.457h-5.373a8.232,8.232,0,0,1-6.321-2.947,8.233,8.233,0,0,1-1.805-6.736,8.239,8.239,0,0,1,8.126-6.818h8.717a1.822,1.822,0,0,0,1.794-1.505l5.031-28.532h4.96ZM2381.334-58.7a9.356,9.356,0,0,1-9.228,7.743h-11.174l1.487-8.436a6.279,6.279,0,0,1,6.192-5.2h13.457a.245.245,0,0,1,.2.091.245.245,0,0,1,.055.208ZM2300.06-28.74a1.823,1.823,0,0,0,1.792,1.506,1.824,1.824,0,0,0,.318-.028l28.8-5.077a1.822,1.822,0,0,0,1.478-2.11,1.821,1.821,0,0,0-2.11-1.478l-28.8,5.077A1.822,1.822,0,0,0,2300.06-28.74Z" transform="translate(0 0)"/>
  </g>
</svg>
