<svg xmlns="http://www.w3.org/2000/svg" width="95.255" height="125.053" viewBox="0 0 95.255 125.053">
  <g id="Grupo_13725" data-name="Grupo 13725" transform="translate(-5278.82 -1094.666)">
    <rect id="Rectángulo_3700" data-name="Rectángulo 3700" width="6" height="8" transform="translate(5287.501 1190.666)" fill="#00b100"/>
    <rect id="Rectángulo_3701" data-name="Rectángulo 3701" width="8" height="8" transform="translate(5322.501 1190.666)" fill="#0000c0"/>
    <rect id="Rectángulo_3702" data-name="Rectángulo 3702" width="8" height="8" transform="translate(5359.501 1190.666)" fill="#ffe100"/>
    <path id="Trazado_20857" data-name="Trazado 20857" d="M5370.411,1183.083h-3.664v-10.991a3.663,3.663,0,0,0-3.664-3.664h-32.973v-8.021a32.974,32.974,0,1,0-7.327,0v8.021h-32.973a3.663,3.663,0,0,0-3.664,3.664v10.991h-3.664a3.664,3.664,0,0,0-3.664,3.664V1201.4a3.664,3.664,0,0,0,3.664,3.664h3.664v10.991a3.663,3.663,0,1,0,7.327,0v-10.991h3.664a3.664,3.664,0,0,0,3.664-3.664v-14.655a3.663,3.663,0,0,0-3.664-3.664h-3.664v-7.328h29.31v7.328h-3.664a3.664,3.664,0,0,0-3.664,3.664V1201.4a3.664,3.664,0,0,0,3.664,3.664h3.664v10.991a3.664,3.664,0,0,0,7.327,0v-10.991h3.664a3.663,3.663,0,0,0,3.663-3.664v-14.655a3.663,3.663,0,0,0-3.663-3.664h-3.664v-7.328h29.309v7.328h-3.664a3.663,3.663,0,0,0-3.664,3.664V1201.4a3.664,3.664,0,0,0,3.664,3.664h3.664v10.991a3.664,3.664,0,0,0,7.328,0v-10.991h3.664a3.664,3.664,0,0,0,3.664-3.664v-14.655A3.663,3.663,0,0,0,5370.411,1183.083Zm-76.937,14.655h-7.327v-7.327h7.327Zm36.637,0h-7.327v-7.327h7.327Zm-.02-44.711-.052.007q-.308.043-.617.079l-.125.014c-.184.02-.369.039-.553.055l-.169.015c-.173.014-.346.026-.521.037l-.192.012c-.174.01-.348.016-.523.022l-.185.007q-.338.009-.675.01h-.064c-.226,0-.452,0-.676-.01l-.185-.007c-.175-.006-.349-.013-.523-.022l-.192-.012c-.174-.011-.348-.023-.521-.037l-.169-.015c-.185-.016-.37-.035-.553-.055l-.125-.014q-.309-.036-.617-.079l-.052-.007a25.65,25.65,0,0,1-21.99-24.654c0-.022,0-.043,0-.065-.005-.222-.009-.444-.009-.667a25.646,25.646,0,0,1,51.292,0q0,.335-.009.667c0,.022,0,.044,0,.065A25.652,25.652,0,0,1,5330.091,1153.026Zm36.656,44.711h-7.328v-7.327h7.328Z" transform="translate(0 0)"/>
    <path id="Trazado_20858" data-name="Trazado 20858" d="M5419.03,1196.659c-.937-.814-1.835-1.58-2.7-2.321l-.033-.028c-5.994-5.108-10.729-9.142-10.729-15.413a11.413,11.413,0,0,1,2.777-7.571,10.046,10.046,0,0,1,7.636-3.443,9.768,9.768,0,0,0,12.516,0,10.045,10.045,0,0,1,7.636,3.443,11.408,11.408,0,0,1,2.777,7.571c0,6.271-4.734,10.306-10.729,15.413l-.064.055c-.859.733-1.748,1.49-2.673,2.294l-3.2,2.787Z" transform="translate(-95.788 -55.335)"/>
    <path id="Trazado_20859" data-name="Trazado 20859" d="M5440.125,1205.708c-.891.759-1.808,1.541-2.774,2.38-.966-.84-1.882-1.621-2.773-2.38-5.427-4.624-9.012-7.679-9.012-11.7a6.533,6.533,0,0,1,1.557-4.341,5.163,5.163,0,0,1,8.288.643,9.293,9.293,0,0,1,1.2,2.381.782.782,0,0,0,1.487,0,9.266,9.266,0,0,1,1.2-2.381,5.274,5.274,0,0,1,4.316-2.43,5.221,5.221,0,0,1,3.971,1.787,6.531,6.531,0,0,1,1.558,4.341C5449.138,1198.028,5445.552,1201.083,5440.125,1205.708Z" transform="translate(-110.904 -70.45)" fill="red"/>
  </g>
</svg>
