<svg xmlns="http://www.w3.org/2000/svg" width="95" height="95" viewBox="0 0 95 95">
  <g id="Grupo_13723" data-name="Grupo 13723" transform="translate(-5309.156 -410.421)">
    <g id="Grupo_13722" data-name="Grupo 13722" transform="translate(5310.55 411.815)">
      <path id="Trazado_20848" data-name="Trazado 20848" d="M5317.746,499.411h8.578a1.084,1.084,0,0,1,1.079,1.083v8.573a1.084,1.084,0,0,1-1.079,1.084h-8.578a1.084,1.084,0,0,1-1.078-1.084v-8.573A1.084,1.084,0,0,1,5317.746,499.411Zm0-40.736h8.578a1.08,1.08,0,0,1,1.079,1.078v8.573a1.084,1.084,0,0,1-1.079,1.083h-8.578a1.084,1.084,0,0,1-1.078-1.083v-8.573A1.08,1.08,0,0,1,5317.746,458.675Zm0-40.741h8.578a1.08,1.08,0,0,1,1.079,1.078v8.578a1.08,1.08,0,0,1-1.079,1.078h-8.578a1.08,1.08,0,0,1-1.078-1.078v-8.578A1.08,1.08,0,0,1,5317.746,417.934Zm40.741,0h8.574a1.085,1.085,0,0,1,1.083,1.078v8.578a1.085,1.085,0,0,1-1.083,1.078h-8.574a1.08,1.08,0,0,1-1.078-1.078v-8.578A1.08,1.08,0,0,1,5358.487,417.934Zm40.742,0h8.573a1.084,1.084,0,0,1,1.083,1.078v8.578a1.084,1.084,0,0,1-1.083,1.078h-8.573a1.084,1.084,0,0,1-1.083-1.078v-8.578A1.084,1.084,0,0,1,5399.229,417.934Zm0,40.741h8.573a1.084,1.084,0,0,1,1.083,1.078v8.573a1.089,1.089,0,0,1-1.083,1.083h-8.573a1.088,1.088,0,0,1-1.083-1.083v-8.573A1.084,1.084,0,0,1,5399.229,458.675Zm0,40.736h8.573a1.089,1.089,0,0,1,1.083,1.083v8.573a1.089,1.089,0,0,1-1.083,1.084h-8.573a1.089,1.089,0,0,1-1.083-1.084v-8.573A1.088,1.088,0,0,1,5399.229,499.411Zm-40.742,0h8.574a1.089,1.089,0,0,1,1.083,1.083v8.573a1.089,1.089,0,0,1-1.083,1.084h-8.574a1.084,1.084,0,0,1-1.078-1.084v-8.573a1.084,1.084,0,0,1,1.078-1.083Z" transform="translate(-5316.668 -417.934)" fill="#95d6a4" fill-rule="evenodd"/>
      <path id="Trazado_20849" data-name="Trazado 20849" d="M5445.455,520.208h39.479a1.088,1.088,0,0,1,1.083,1.084v8.573a1.088,1.088,0,0,1-1.083,1.083h-13.292a.969.969,0,0,0-1.078,1.078V571.79a1.084,1.084,0,0,1-1.083,1.078h-8.573a1.084,1.084,0,0,1-1.083-1.078V532.027c0-.831-.342-1.078-1.079-1.078h-13.291a1.088,1.088,0,0,1-1.083-1.083v-8.573a1.088,1.088,0,0,1,1.083-1.084Z" transform="translate(-5420.676 -501.231)" fill="#90d8f9" fill-rule="evenodd"/>
      <path id="Trazado_20850" data-name="Trazado 20850" d="M5566.039,520.208h5.4a1.088,1.088,0,0,1,1.083,1.084v8.573a1.088,1.088,0,0,1-1.083,1.083h-5.4a1.084,1.084,0,0,0,1.078-1.083v-8.573A1.085,1.085,0,0,0,5566.039,520.208Zm-7.89,10.74a.969.969,0,0,0-1.078,1.078V571.79a1.084,1.084,0,0,1-1.084,1.078h-5.4a1.079,1.079,0,0,0,1.078-1.078V532.027a.971.971,0,0,1,1.084-1.078Z" transform="translate(-5507.183 -501.231)" fill="#6bbef6" fill-rule="evenodd"/>
      <path id="Trazado_20851" data-name="Trazado 20851" d="M5556.657,618.091h28.682a1.083,1.083,0,0,1,1.083,1.078v5.791a1.088,1.088,0,0,1-1.083,1.084h-9.283a.951.951,0,0,0-1.078,1.078v24.389a1.084,1.084,0,0,1-1.084,1.078H5568.1a1.08,1.08,0,0,1-1.078-1.078V627.122a.987.987,0,0,0-1.084-1.078h-9.283a1.089,1.089,0,0,1-1.083-1.084v-5.791a1.084,1.084,0,0,1,1.083-1.078Z" transform="translate(-5511.246 -580.953)" fill="#fc7070" fill-rule="evenodd"/>
      <path id="Trazado_20852" data-name="Trazado 20852" d="M5636.639,618.091h5.4a1.084,1.084,0,0,1,1.083,1.078v5.791a1.089,1.089,0,0,1-1.083,1.084h-5.4a1.089,1.089,0,0,0,1.083-1.084v-5.791A1.084,1.084,0,0,0,5636.639,618.091Zm-3.881,7.953a.951.951,0,0,0-1.078,1.078v24.389a1.085,1.085,0,0,1-1.083,1.078h-5.4a1.08,1.08,0,0,0,1.078-1.078V627.122a.955.955,0,0,1,1.083-1.078Z" transform="translate(-5567.948 -580.953)" fill="#d15a63" fill-rule="evenodd"/>
    </g>
    <path id="Trazado_20853" data-name="Trazado 20853" d="M5392.027,491.9h3.981V464.68h-3.981a1.387,1.387,0,0,1-1.389-1.389V452.556a1.389,1.389,0,0,1,1.389-1.394h3.981V423.944h-3.981a1.392,1.392,0,0,1-1.389-1.394v-3.976h-27.224v3.976a1.392,1.392,0,0,1-1.389,1.394h-10.735a1.393,1.393,0,0,1-1.394-1.394v-3.976h-27.219v3.976a1.4,1.4,0,0,1-1.394,1.394h-3.976v27.218h3.976a1.393,1.393,0,0,1,1.394,1.394v10.735a1.391,1.391,0,0,1-1.394,1.389h-3.976V491.9h3.976a1.392,1.392,0,0,1,1.394,1.389v3.981H5349.9v-3.981a1.389,1.389,0,0,1,1.394-1.389h10.735a1.387,1.387,0,0,1,1.388,1.389v3.981h27.224v-3.981a1.388,1.388,0,0,1,1.389-1.389ZM5327.1,458.294a1.391,1.391,0,1,1,0-2.782h16.794a1.391,1.391,0,0,1,0,2.782Zm0,13.275a1.391,1.391,0,1,1,0-2.782h16.794a1.391,1.391,0,0,1,0,2.782Zm0,13.275a1.391,1.391,0,1,1,0-2.782h16.794a1.391,1.391,0,0,1,0,2.782Zm0-19.913a1.391,1.391,0,1,1,0-2.782h16.794a1.391,1.391,0,0,1,0,2.782Zm0,13.275a1.391,1.391,0,1,1,0-2.782h16.794a1.391,1.391,0,0,1,0,2.782Zm40.052-30.648a1.391,1.391,0,1,1,0,2.782h-10.877v5.17h10.057a1.389,1.389,0,0,1,1.389,1.394v25.157h5.17V456.906a1.389,1.389,0,0,1,1.394-1.394h10.052v-5.17h-10.877a1.391,1.391,0,1,1,0-2.782h12.271a1.392,1.392,0,0,1,1.389,1.394v7.953a1.387,1.387,0,0,1-1.389,1.388H5375.67v25.157a1.392,1.392,0,0,1-1.389,1.394h-7.953a1.4,1.4,0,0,1-1.394-1.394V458.294h-3.109v25.157a1.392,1.392,0,0,1-1.388,1.394H5349.7a1.392,1.392,0,0,1-1.388-1.394V442.921h-14.064a1.392,1.392,0,0,1-1.394-1.388v-10.74a1.391,1.391,0,0,1,1.394-1.388h17.673a1.391,1.391,0,0,1,0,2.782h-16.279v7.953H5349.7a1.393,1.393,0,0,1,1.394,1.394v40.531h7.953V458.294h-4.165a1.387,1.387,0,0,1-1.389-1.388v-7.953a1.392,1.392,0,0,1,1.389-1.394h4.165v-6.027a1.39,1.39,0,0,1,1.394-1.394H5374.5v-7.953h-16.278a1.391,1.391,0,0,1,0-2.782h17.672a1.387,1.387,0,0,1,1.389,1.388v10.74a1.388,1.388,0,0,1-1.389,1.388h-14.064v4.639h5.322Zm31.642,44.344h3.977a1.387,1.387,0,0,1,1.388,1.389v10.74a1.387,1.387,0,0,1-1.388,1.388h-10.74a1.387,1.387,0,0,1-1.389-1.388v-3.976h-27.224v3.976a1.387,1.387,0,0,1-1.389,1.388h-10.735a1.389,1.389,0,0,1-1.394-1.388v-3.976h-27.219v3.976a1.391,1.391,0,0,1-1.394,1.388H5310.55a1.391,1.391,0,0,1-1.394-1.388v-10.74a1.392,1.392,0,0,1,1.394-1.389h3.977V464.68h-3.977a1.392,1.392,0,0,1-1.394-1.389V452.556a1.393,1.393,0,0,1,1.394-1.394h3.977V423.944h-3.977a1.4,1.4,0,0,1-1.394-1.394V411.815a1.4,1.4,0,0,1,1.394-1.394h10.735a1.4,1.4,0,0,1,1.394,1.394v3.976H5349.9v-3.976a1.393,1.393,0,0,1,1.394-1.394h10.735a1.392,1.392,0,0,1,1.388,1.394v3.976h27.224v-3.976a1.392,1.392,0,0,1,1.389-1.394h10.74a1.392,1.392,0,0,1,1.389,1.394V422.55a1.392,1.392,0,0,1-1.389,1.394h-3.976v27.218h3.976a1.389,1.389,0,0,1,1.389,1.394v10.735a1.388,1.388,0,0,1-1.389,1.389h-3.976V491.9Zm2.583,2.783h-7.953v7.952h7.953ZM5319.891,413.2h-7.953v7.953h7.953Zm40.741,0h-7.953v7.953h7.953Zm40.741,0h-7.953v7.953h7.953Zm0,40.741h-7.953V461.9h7.953Zm-81.482,0h-7.953V461.9h7.953Zm0,40.742h-7.953v7.952h7.953Zm40.741,0h-7.953v7.952h7.953Z" transform="translate(0)"/>
  </g>
</svg>
