<svg xmlns="http://www.w3.org/2000/svg" width="265" height="489" viewBox="0 0 265 489">
  <g id="Grupo_14155" data-name="Grupo 14155" transform="translate(-8114 2422)">
    <rect id="Rectángulo_3794" data-name="Rectángulo 3794" width="265" height="489" rx="30" transform="translate(8114 -2422)" fill="#f3f7fa"/>
    <path id="Trazado_24202" data-name="Trazado 24202" d="M61.9,17.035a3.691,3.691,0,0,1-1.392,3.047A6.045,6.045,0,0,1,56.641,21.2a9.094,9.094,0,0,1-4.043-.859V17.523a16.661,16.661,0,0,0,2.446.908,7.239,7.239,0,0,0,1.831.264,2.6,2.6,0,0,0,1.528-.381,1.3,1.3,0,0,0,.532-1.133,1.251,1.251,0,0,0-.234-.747,2.623,2.623,0,0,0-.688-.63,17.707,17.707,0,0,0-1.851-.967A8.771,8.771,0,0,1,54.2,13.656a4.436,4.436,0,0,1-1.045-1.318,3.762,3.762,0,0,1-.391-1.758A3.69,3.69,0,0,1,54.048,7.6,5.336,5.336,0,0,1,57.6,6.518a8.383,8.383,0,0,1,2.124.264,14.6,14.6,0,0,1,2.114.742l-.977,2.354a14.288,14.288,0,0,0-1.89-.654,6.082,6.082,0,0,0-1.47-.186,1.946,1.946,0,0,0-1.318.4,1.321,1.321,0,0,0-.459,1.045,1.293,1.293,0,0,0,.186.7,2.04,2.04,0,0,0,.591.576,18.268,18.268,0,0,0,1.919,1,7.635,7.635,0,0,1,2.744,1.919A3.745,3.745,0,0,1,61.9,17.035ZM67.236,21H64.258V10.082h2.979ZM64.111,8.881V8.617a27.5,27.5,0,0,0,2.295-2.939h3.34v.205q-.508.508-1.733,1.509T66.094,8.881ZM80.137,21H77.158V14.623a3.212,3.212,0,0,0-.4-1.772,1.391,1.391,0,0,0-1.245-.591,1.8,1.8,0,0,0-1.66.84,5.509,5.509,0,0,0-.518,2.764V21H70.361V10.082h2.275l.4,1.4H73.2a3.026,3.026,0,0,1,1.27-1.177,4.122,4.122,0,0,1,1.9-.425,3.43,3.43,0,0,1,3.32,1.6h.264A2.95,2.95,0,0,1,81.255,10.3a4.315,4.315,0,0,1,1.929-.42,3.807,3.807,0,0,1,2.808.952,4.181,4.181,0,0,1,.952,3.052V21H83.955V14.623a3.212,3.212,0,0,0-.4-1.772,1.391,1.391,0,0,0-1.245-.591,1.858,1.858,0,0,0-1.636.781,4.433,4.433,0,0,0-.542,2.48ZM96.074,9.877A3.532,3.532,0,0,1,99.1,11.386a6.923,6.923,0,0,1,1.094,4.136,6.8,6.8,0,0,1-1.128,4.189,3.939,3.939,0,0,1-6.089.088h-.205l-.5,1.2H90V5.8h2.979V9.34q0,.674-.117,2.158h.117A3.446,3.446,0,0,1,96.074,9.877Zm-.957,2.383a1.881,1.881,0,0,0-1.611.679,3.9,3.9,0,0,0-.527,2.241V15.5a4.6,4.6,0,0,0,.522,2.52,1.865,1.865,0,0,0,1.655.762,1.661,1.661,0,0,0,1.46-.845,4.572,4.572,0,0,0,.542-2.456,4.332,4.332,0,0,0-.547-2.417A1.715,1.715,0,0,0,95.117,12.26Zm9.912,3.262a4.582,4.582,0,0,0,.532,2.451,1.9,1.9,0,0,0,1.733.83,1.873,1.873,0,0,0,1.714-.825,4.648,4.648,0,0,0,.522-2.456A4.51,4.51,0,0,0,109,13.09a2.242,2.242,0,0,0-3.447,0A4.506,4.506,0,0,0,105.029,15.521Zm7.549,0a5.867,5.867,0,0,1-1.406,4.17,5.1,5.1,0,0,1-3.916,1.5,5.478,5.478,0,0,1-2.773-.688,4.581,4.581,0,0,1-1.846-1.978,6.645,6.645,0,0,1-.645-3.008,5.835,5.835,0,0,1,1.4-4.16,5.128,5.128,0,0,1,3.926-1.484,5.509,5.509,0,0,1,2.773.684,4.563,4.563,0,0,1,1.846,1.963A6.584,6.584,0,0,1,112.578,15.521ZM118.018,21h-2.979V5.8h2.979Zm5.5-5.479a4.582,4.582,0,0,0,.532,2.451,1.9,1.9,0,0,0,1.733.83,1.873,1.873,0,0,0,1.714-.825,4.648,4.648,0,0,0,.522-2.456,4.51,4.51,0,0,0-.527-2.432,2.242,2.242,0,0,0-3.447,0A4.506,4.506,0,0,0,123.516,15.521Zm7.549,0a5.867,5.867,0,0,1-1.406,4.17,5.1,5.1,0,0,1-3.916,1.5,5.478,5.478,0,0,1-2.773-.688,4.581,4.581,0,0,1-1.846-1.978,6.645,6.645,0,0,1-.645-3.008,5.835,5.835,0,0,1,1.4-4.16A5.128,5.128,0,0,1,125.8,9.877a5.509,5.509,0,0,1,2.773.684,4.563,4.563,0,0,1,1.846,1.963A6.584,6.584,0,0,1,131.064,15.521Zm12.09,5.674q-5.1,0-5.1-5.6a5.969,5.969,0,0,1,1.387-4.253,5.2,5.2,0,0,1,3.975-1.47,7.577,7.577,0,0,1,3.4.742l-.879,2.3q-.7-.283-1.309-.464a4.216,4.216,0,0,0-1.211-.181q-2.324,0-2.324,3.3,0,3.2,2.324,3.2a5.3,5.3,0,0,0,1.592-.229,5.747,5.747,0,0,0,1.465-.718v2.549a4.8,4.8,0,0,1-1.46.635A8.21,8.21,0,0,1,143.154,21.2ZM148.877,7.26q0-1.455,1.621-1.455t1.621,1.455a1.419,1.419,0,0,1-.405,1.079,1.7,1.7,0,0,1-1.216.386Q148.877,8.725,148.877,7.26ZM151.982,21H149V10.082h2.979ZM161.2,9.877a4.8,4.8,0,0,1,1.006.088l-.225,2.793a3.412,3.412,0,0,0-.879-.1,3.159,3.159,0,0,0-2.222.732,2.648,2.648,0,0,0-.8,2.051V21h-2.979V10.082h2.256l.439,1.836h.146a4.1,4.1,0,0,1,1.372-1.479A3.383,3.383,0,0,1,161.2,9.877ZM168.623,21.2q-5.1,0-5.1-5.6a5.969,5.969,0,0,1,1.387-4.253,5.2,5.2,0,0,1,3.975-1.47,7.577,7.577,0,0,1,3.4.742l-.879,2.3q-.7-.283-1.309-.464a4.216,4.216,0,0,0-1.211-.181q-2.324,0-2.324,3.3,0,3.2,2.324,3.2a5.3,5.3,0,0,0,1.592-.229,5.747,5.747,0,0,0,1.465-.718v2.549a4.8,4.8,0,0,1-1.46.635A8.21,8.21,0,0,1,168.623,21.2Zm13.584-.2-.4-1.4h-.156a3.143,3.143,0,0,1-1.357,1.177,4.634,4.634,0,0,1-2,.415,3.812,3.812,0,0,1-2.9-1.03,4.145,4.145,0,0,1-.977-2.964V10.082h2.979v6.377a3.063,3.063,0,0,0,.42,1.772,1.528,1.528,0,0,0,1.338.591,2.011,2.011,0,0,0,1.807-.835,5.178,5.178,0,0,0,.557-2.769V10.082h2.979V21Zm8.389,0h-2.979V5.8H190.6Zm10.059,0-.576-1.484H200a4.4,4.4,0,0,1-1.548,1.313,5,5,0,0,1-2.075.366,3.356,3.356,0,0,1-2.476-.9,3.45,3.45,0,0,1-.9-2.559,2.881,2.881,0,0,1,1.216-2.563,7.045,7.045,0,0,1,3.667-.913l1.895-.059v-.479a1.485,1.485,0,0,0-1.7-1.66,7.743,7.743,0,0,0-3.076.791l-.986-2.012a8.876,8.876,0,0,1,4.18-.986,5.206,5.206,0,0,1,3.369.957,3.537,3.537,0,0,1,1.172,2.91V21Zm-.879-5.059-1.152.039a3.69,3.69,0,0,0-1.934.469,1.472,1.472,0,0,0-.635,1.309q0,1.26,1.445,1.26a2.289,2.289,0,0,0,1.655-.6,2.092,2.092,0,0,0,.62-1.582Zm12.119-6.064a4.8,4.8,0,0,1,1.006.088l-.225,2.793a3.412,3.412,0,0,0-.879-.1,3.159,3.159,0,0,0-2.222.732,2.648,2.648,0,0,0-.8,2.051V21H205.8V10.082h2.256l.439,1.836h.146a4.1,4.1,0,0,1,1.372-1.479A3.383,3.383,0,0,1,211.895,9.877Z" transform="translate(8115 -2380)" fill="#00223d"/>
    <path id="Trazado_24209" data-name="Trazado 24209" d="M32.349,21V6.723h1.66V19.5h6.3V21Zm19.375-5.361a5.9,5.9,0,0,1-1.318,4.087,4.643,4.643,0,0,1-3.643,1.47,4.824,4.824,0,0,1-2.549-.674A4.447,4.447,0,0,1,42.5,18.588a6.739,6.739,0,0,1-.605-2.949A5.9,5.9,0,0,1,43.2,11.562a4.628,4.628,0,0,1,3.633-1.46A4.528,4.528,0,0,1,50.4,11.6,5.879,5.879,0,0,1,51.724,15.639Zm-8.154,0a5.08,5.08,0,0,0,.82,3.125,3.256,3.256,0,0,0,4.829,0,5.054,5.054,0,0,0,.825-3.13,4.973,4.973,0,0,0-.825-3.1,2.9,2.9,0,0,0-2.437-1.06,2.853,2.853,0,0,0-2.4,1.045A5.029,5.029,0,0,0,43.569,15.639ZM63.325,10.3v1.025l-1.982.234a3.481,3.481,0,0,1,.7,2.139,3.164,3.164,0,0,1-1.074,2.51,4.333,4.333,0,0,1-2.949.938,4.911,4.911,0,0,1-.9-.078,1.6,1.6,0,0,0-1.035,1.377.7.7,0,0,0,.361.649,2.639,2.639,0,0,0,1.24.21h1.895a4.242,4.242,0,0,1,2.671.732,2.545,2.545,0,0,1,.933,2.129,3.039,3.039,0,0,1-1.426,2.71,7.631,7.631,0,0,1-4.16.933,5.684,5.684,0,0,1-3.237-.781,2.522,2.522,0,0,1-1.138-2.207,2.479,2.479,0,0,1,.625-1.689,3.182,3.182,0,0,1,1.758-.967,1.7,1.7,0,0,1-.688-.576,1.525,1.525,0,0,1-.278-.908,1.724,1.724,0,0,1,.313-1.025,3.286,3.286,0,0,1,.986-.85,2.891,2.891,0,0,1-1.353-1.162,3.415,3.415,0,0,1-.522-1.875,3.463,3.463,0,0,1,1.055-2.71A4.306,4.306,0,0,1,58.11,10.1a5.434,5.434,0,0,1,1.514.2ZM54.79,22.8a1.453,1.453,0,0,0,.732,1.318,4.042,4.042,0,0,0,2.1.449,5.859,5.859,0,0,0,3.022-.61,1.869,1.869,0,0,0,.981-1.655,1.31,1.31,0,0,0-.537-1.206,4.172,4.172,0,0,0-2.021-.337H57.124a2.56,2.56,0,0,0-1.719.527A1.884,1.884,0,0,0,54.79,22.8Zm.879-9.072a2.179,2.179,0,0,0,.635,1.7A2.535,2.535,0,0,0,58.071,16a2.068,2.068,0,0,0,2.373-2.3,2.128,2.128,0,0,0-2.4-2.412,2.378,2.378,0,0,0-1.758.615A2.478,2.478,0,0,0,55.669,13.725Zm19.092,1.914a5.9,5.9,0,0,1-1.318,4.087A4.643,4.643,0,0,1,69.8,21.2a4.824,4.824,0,0,1-2.549-.674,4.447,4.447,0,0,1-1.719-1.934,6.739,6.739,0,0,1-.605-2.949,5.9,5.9,0,0,1,1.309-4.077,4.628,4.628,0,0,1,3.633-1.46A4.528,4.528,0,0,1,73.438,11.6,5.879,5.879,0,0,1,74.761,15.639Zm-8.154,0a5.08,5.08,0,0,0,.82,3.125,3.256,3.256,0,0,0,4.829,0,5.054,5.054,0,0,0,.825-3.13,4.973,4.973,0,0,0-.825-3.1,2.9,2.9,0,0,0-2.437-1.06,2.853,2.853,0,0,0-2.4,1.045A5.029,5.029,0,0,0,66.606,15.639ZM96.44,21V14.037a2.89,2.89,0,0,0-.547-1.919,2.115,2.115,0,0,0-1.7-.64,2.743,2.743,0,0,0-2.236.869,4.131,4.131,0,0,0-.723,2.676V21H89.614V14.037a2.89,2.89,0,0,0-.547-1.919,2.128,2.128,0,0,0-1.709-.64,2.647,2.647,0,0,0-2.231.913,4.942,4.942,0,0,0-.708,2.993V21H82.8V10.3h1.318l.264,1.465h.078a3.186,3.186,0,0,1,1.294-1.221,3.953,3.953,0,0,1,1.87-.439q2.51,0,3.281,1.816h.078a3.413,3.413,0,0,1,1.387-1.328,4.3,4.3,0,0,1,2.07-.488,3.624,3.624,0,0,1,2.72.933,4.172,4.172,0,0,1,.9,2.983V21Zm11.543,0-.322-1.523h-.078a4.5,4.5,0,0,1-1.6,1.362A4.867,4.867,0,0,1,104,21.2a3.575,3.575,0,0,1-2.5-.82,2.992,2.992,0,0,1-.9-2.334q0-3.242,5.186-3.4l1.816-.059V13.92a2.714,2.714,0,0,0-.542-1.86,2.229,2.229,0,0,0-1.733-.6,7.063,7.063,0,0,0-3.027.82l-.5-1.24a7.618,7.618,0,0,1,1.733-.674,7.507,7.507,0,0,1,1.89-.244,4.077,4.077,0,0,1,2.837.85,3.546,3.546,0,0,1,.923,2.725V21Zm-3.662-1.143a3.29,3.29,0,0,0,2.378-.83,3.071,3.071,0,0,0,.864-2.324v-.967l-1.621.068a5.9,5.9,0,0,0-2.788.6,1.811,1.811,0,0,0-.854,1.655,1.67,1.67,0,0,0,.532,1.338A2.209,2.209,0,0,0,104.321,19.857ZM117.407,10.1a6.343,6.343,0,0,1,1.279.117l-.225,1.5a5.522,5.522,0,0,0-1.172-.146,2.853,2.853,0,0,0-2.222,1.055,3.846,3.846,0,0,0-.923,2.627V21h-1.621V10.3h1.338l.186,1.982h.078a4.7,4.7,0,0,1,1.436-1.611A3.232,3.232,0,0,1,117.407,10.1ZM124.966,21.2a4.568,4.568,0,0,1-3.6-1.431,5.883,5.883,0,0,1-1.274-4.048,6.067,6.067,0,0,1,1.294-4.15,4.659,4.659,0,0,1,3.687-1.465,7.316,7.316,0,0,1,1.543.166,5.083,5.083,0,0,1,1.211.391l-.5,1.377a7.622,7.622,0,0,0-1.172-.356,5.232,5.232,0,0,0-1.123-.142q-3.262,0-3.262,4.16a4.954,4.954,0,0,0,.8,3.027,2.769,2.769,0,0,0,2.358,1.055,7.211,7.211,0,0,0,2.744-.576v1.436A5.849,5.849,0,0,1,124.966,21.2Zm11.826-.2-.322-1.523h-.078a4.5,4.5,0,0,1-1.6,1.362,4.867,4.867,0,0,1-1.987.356,3.575,3.575,0,0,1-2.5-.82,2.992,2.992,0,0,1-.9-2.334q0-3.242,5.186-3.4l1.816-.059V13.92a2.714,2.714,0,0,0-.542-1.86,2.229,2.229,0,0,0-1.733-.6,7.063,7.063,0,0,0-3.027.82l-.5-1.24a7.618,7.618,0,0,1,1.733-.674,7.507,7.507,0,0,1,1.89-.244,4.077,4.077,0,0,1,2.837.85,3.546,3.546,0,0,1,.923,2.725V21Zm-3.662-1.143a3.29,3.29,0,0,0,2.378-.83,3.071,3.071,0,0,0,.864-2.324v-.967l-1.621.068a5.9,5.9,0,0,0-2.788.6,1.811,1.811,0,0,0-.854,1.655,1.67,1.67,0,0,0,.532,1.338A2.209,2.209,0,0,0,133.13,19.857ZM16.611,37.1a6.343,6.343,0,0,1,1.279.117l-.225,1.5a5.522,5.522,0,0,0-1.172-.146,2.853,2.853,0,0,0-2.222,1.055,3.846,3.846,0,0,0-.923,2.627V48H11.729V37.3h1.338l.186,1.982h.078a4.7,4.7,0,0,1,1.436-1.611A3.232,3.232,0,0,1,16.611,37.1Zm7.8,11.094a4.917,4.917,0,0,1-3.745-1.445A5.6,5.6,0,0,1,19.3,42.736a6.205,6.205,0,0,1,1.274-4.111A4.233,4.233,0,0,1,23.994,37.1a4.036,4.036,0,0,1,3.184,1.323,5.072,5.072,0,0,1,1.172,3.491v1.025H20.977a4.243,4.243,0,0,0,.952,2.861,3.293,3.293,0,0,0,2.544.977,8.621,8.621,0,0,0,3.418-.723V47.5a8.579,8.579,0,0,1-1.626.532A9.138,9.138,0,0,1,24.414,48.2Zm-.439-9.736a2.647,2.647,0,0,0-2.056.84,3.871,3.871,0,0,0-.9,2.324h5.6a3.564,3.564,0,0,0-.684-2.349A2.406,2.406,0,0,0,23.975,38.459Zm15.9-1.162v1.025l-1.982.234a3.481,3.481,0,0,1,.7,2.139,3.164,3.164,0,0,1-1.074,2.51,4.333,4.333,0,0,1-2.949.938,4.911,4.911,0,0,1-.9-.078,1.6,1.6,0,0,0-1.035,1.377.7.7,0,0,0,.361.649,2.639,2.639,0,0,0,1.24.21h1.895a4.242,4.242,0,0,1,2.671.732,2.545,2.545,0,0,1,.933,2.129,3.039,3.039,0,0,1-1.426,2.71,7.631,7.631,0,0,1-4.16.933,5.684,5.684,0,0,1-3.237-.781,2.522,2.522,0,0,1-1.138-2.207,2.479,2.479,0,0,1,.625-1.689,3.182,3.182,0,0,1,1.758-.967,1.7,1.7,0,0,1-.688-.576,1.525,1.525,0,0,1-.278-.908A1.724,1.724,0,0,1,31.5,44.65a3.286,3.286,0,0,1,.986-.85,2.891,2.891,0,0,1-1.353-1.162,3.415,3.415,0,0,1-.522-1.875,3.463,3.463,0,0,1,1.055-2.71,4.306,4.306,0,0,1,2.988-.952,5.434,5.434,0,0,1,1.514.2ZM31.338,49.8a1.453,1.453,0,0,0,.732,1.318,4.042,4.042,0,0,0,2.1.449,5.859,5.859,0,0,0,3.022-.61,1.869,1.869,0,0,0,.981-1.655,1.31,1.31,0,0,0-.537-1.206,4.172,4.172,0,0,0-2.021-.337H33.672a2.56,2.56,0,0,0-1.719.527A1.884,1.884,0,0,0,31.338,49.8Zm.879-9.072a2.179,2.179,0,0,0,.635,1.7A2.535,2.535,0,0,0,34.619,43a2.068,2.068,0,0,0,2.373-2.3,2.128,2.128,0,0,0-2.4-2.412,2.378,2.378,0,0,0-1.758.615A2.478,2.478,0,0,0,32.217,40.725ZM43.691,48H42.07V37.3h1.621ZM41.934,34.4a1.077,1.077,0,0,1,.273-.815,1.012,1.012,0,0,1,1.357,0,1.057,1.057,0,0,1,.283.811,1.074,1.074,0,0,1-.283.815.992.992,0,0,1-1.357,0A1.1,1.1,0,0,1,41.934,34.4Zm12.1,10.684a2.681,2.681,0,0,1-1.113,2.3,5.233,5.233,0,0,1-3.125.811,6.8,6.8,0,0,1-3.32-.674v-1.5a8.029,8.029,0,0,0,1.655.615,6.912,6.912,0,0,0,1.7.225,3.864,3.864,0,0,0,1.953-.405,1.4,1.4,0,0,0,.142-2.3,8.526,8.526,0,0,0-2.114-1.05,11.465,11.465,0,0,1-2.124-.972,2.9,2.9,0,0,1-.937-.942,2.458,2.458,0,0,1-.308-1.26,2.4,2.4,0,0,1,1.064-2.065,4.96,4.96,0,0,1,2.92-.757,8.544,8.544,0,0,1,3.379.7l-.576,1.318a7.756,7.756,0,0,0-2.92-.664,3.359,3.359,0,0,0-1.738.361,1.117,1.117,0,0,0-.586,1,1.213,1.213,0,0,0,.22.732,2.168,2.168,0,0,0,.708.576,15.822,15.822,0,0,0,1.875.791,7,7,0,0,1,2.573,1.4A2.463,2.463,0,0,1,54.033,45.08Zm6.094,1.777a5.3,5.3,0,0,0,.83-.063,5.373,5.373,0,0,0,.635-.132V47.9a2.963,2.963,0,0,1-.776.21,5.83,5.83,0,0,1-.923.083q-3.105,0-3.105-3.271V38.557H55.254v-.781l1.533-.674.684-2.285h.938V37.3h3.105v1.26H58.408v6.3a2.167,2.167,0,0,0,.459,1.484A1.6,1.6,0,0,0,60.127,46.857ZM68.613,37.1a6.343,6.343,0,0,1,1.279.117l-.225,1.5a5.522,5.522,0,0,0-1.172-.146,2.853,2.853,0,0,0-2.222,1.055,3.846,3.846,0,0,0-.923,2.627V48H63.73V37.3h1.338l.186,1.982h.078a4.7,4.7,0,0,1,1.436-1.611A3.232,3.232,0,0,1,68.613,37.1ZM78.477,48l-.322-1.523h-.078a4.5,4.5,0,0,1-1.6,1.362,4.867,4.867,0,0,1-1.987.356,3.575,3.575,0,0,1-2.5-.82,2.992,2.992,0,0,1-.9-2.334q0-3.242,5.186-3.4l1.816-.059V40.92a2.714,2.714,0,0,0-.542-1.86,2.229,2.229,0,0,0-1.733-.6,7.063,7.063,0,0,0-3.027.82l-.5-1.24a7.618,7.618,0,0,1,1.733-.674,7.507,7.507,0,0,1,1.89-.244,4.077,4.077,0,0,1,2.837.85,3.546,3.546,0,0,1,.923,2.725V48Zm-3.662-1.143a3.29,3.29,0,0,0,2.378-.83,3.071,3.071,0,0,0,.864-2.324v-.967l-1.621.068a5.9,5.9,0,0,0-2.788.6,1.811,1.811,0,0,0-.854,1.655,1.67,1.67,0,0,0,.532,1.338A2.209,2.209,0,0,0,74.814,46.857ZM90.3,46.564h-.088A3.809,3.809,0,0,1,86.855,48.2a3.974,3.974,0,0,1-3.267-1.436,6.319,6.319,0,0,1-1.167-4.082,6.426,6.426,0,0,1,1.172-4.111A3.943,3.943,0,0,1,86.855,37.1a3.892,3.892,0,0,1,3.34,1.582h.127l-.068-.771-.039-.752V32.8h1.621V48H90.518Zm-3.242.273a2.951,2.951,0,0,0,2.407-.9,4.565,4.565,0,0,0,.747-2.915v-.342a5.371,5.371,0,0,0-.757-3.247,2.874,2.874,0,0,0-2.417-.972,2.481,2.481,0,0,0-2.183,1.108A5.511,5.511,0,0,0,84.1,42.7a5.284,5.284,0,0,0,.752,3.1A2.547,2.547,0,0,0,87.061,46.838ZM101.855,48l-.322-1.523h-.078a4.5,4.5,0,0,1-1.6,1.362,4.867,4.867,0,0,1-1.987.356,3.575,3.575,0,0,1-2.5-.82,2.992,2.992,0,0,1-.9-2.334q0-3.242,5.186-3.4l1.816-.059V40.92a2.714,2.714,0,0,0-.542-1.86,2.229,2.229,0,0,0-1.733-.6,7.063,7.063,0,0,0-3.027.82l-.5-1.24a7.618,7.618,0,0,1,1.733-.674,7.507,7.507,0,0,1,1.89-.244,4.077,4.077,0,0,1,2.837.85,3.546,3.546,0,0,1,.923,2.725V48Zm-3.662-1.143a3.29,3.29,0,0,0,2.378-.83,3.071,3.071,0,0,0,.864-2.324v-.967l-1.621.068a5.9,5.9,0,0,0-2.788.6,1.811,1.811,0,0,0-.854,1.655A1.67,1.67,0,0,0,96.7,46.4,2.209,2.209,0,0,0,98.193,46.857Zm22.7-8.975a4,4,0,0,1-1.479,3.335,6.7,6.7,0,0,1-4.233,1.167H113.5V48h-1.66V33.723h3.7Q120.889,33.723,120.889,37.883ZM113.5,40.959h1.494a5.553,5.553,0,0,0,3.193-.713,2.627,2.627,0,0,0,.986-2.285,2.463,2.463,0,0,0-.928-2.109,4.847,4.847,0,0,0-2.891-.693H113.5ZM128.154,48.2a4.917,4.917,0,0,1-3.745-1.445,5.6,5.6,0,0,1-1.372-4.014,6.205,6.205,0,0,1,1.274-4.111,4.233,4.233,0,0,1,3.423-1.523,4.036,4.036,0,0,1,3.184,1.323,5.072,5.072,0,0,1,1.172,3.491v1.025h-7.373a4.243,4.243,0,0,0,.952,2.861,3.293,3.293,0,0,0,2.544.977,8.621,8.621,0,0,0,3.418-.723V47.5a8.579,8.579,0,0,1-1.626.532A9.138,9.138,0,0,1,128.154,48.2Zm-.439-9.736a2.647,2.647,0,0,0-2.056.84,3.871,3.871,0,0,0-.9,2.324h5.6a3.564,3.564,0,0,0-.684-2.349A2.406,2.406,0,0,0,127.715,38.459ZM139.834,48.2a4.632,4.632,0,0,1-1.909-.386,3.59,3.59,0,0,1-1.45-1.187h-.117a14.356,14.356,0,0,1,.117,1.777v4.4h-1.621V37.3h1.318l.225,1.465h.078a3.765,3.765,0,0,1,1.455-1.27,4.423,4.423,0,0,1,1.9-.391,3.956,3.956,0,0,1,3.286,1.455,6.406,6.406,0,0,1,1.157,4.082,6.369,6.369,0,0,1-1.177,4.1A3.963,3.963,0,0,1,139.834,48.2Zm-.234-9.717a2.873,2.873,0,0,0-2.373.908,4.673,4.673,0,0,0-.752,2.891v.361a5.356,5.356,0,0,0,.752,3.228,2.86,2.86,0,0,0,2.412.972,2.508,2.508,0,0,0,2.173-1.123,5.325,5.325,0,0,0,.786-3.1,5.126,5.126,0,0,0-.786-3.071A2.586,2.586,0,0,0,139.6,38.479Zm14.414,6.6a2.681,2.681,0,0,1-1.113,2.3,5.233,5.233,0,0,1-3.125.811,6.8,6.8,0,0,1-3.32-.674v-1.5a8.03,8.03,0,0,0,1.655.615,6.912,6.912,0,0,0,1.7.225,3.864,3.864,0,0,0,1.953-.405,1.4,1.4,0,0,0,.142-2.3,8.526,8.526,0,0,0-2.114-1.05,11.465,11.465,0,0,1-2.124-.972,2.9,2.9,0,0,1-.937-.942,2.458,2.458,0,0,1-.308-1.26,2.4,2.4,0,0,1,1.064-2.065,4.96,4.96,0,0,1,2.92-.757,8.544,8.544,0,0,1,3.379.7l-.576,1.318a7.756,7.756,0,0,0-2.92-.664,3.359,3.359,0,0,0-1.738.361,1.117,1.117,0,0,0-.586,1,1.213,1.213,0,0,0,.22.732,2.168,2.168,0,0,0,.708.576,15.821,15.821,0,0,0,1.875.791,7,7,0,0,1,2.573,1.4A2.463,2.463,0,0,1,154.014,45.08ZM158.271,48H156.65V37.3h1.621Zm-1.758-13.6a1.077,1.077,0,0,1,.273-.815,1.012,1.012,0,0,1,1.357,0,1.057,1.057,0,0,1,.283.811,1.074,1.074,0,0,1-.283.815.992.992,0,0,1-1.357,0A1.1,1.1,0,0,1,156.514,34.4Z" transform="translate(8162 -2056)" fill="#00223d"/>
    <g id="Grupo_14151" data-name="Grupo 14151" transform="translate(3933.99 -2476.67)">
      <path id="Trazado_20693" data-name="Trazado 20693" d="M4398.01,276.659a84.995,84.995,0,0,1-150.221,54.51,83.538,83.538,0,0,1-6.905-9.538,85,85,0,1,1,157.126-44.972Z" transform="translate(0 0)" fill="#fff"/>
      <path id="Trazado_20694" data-name="Trazado 20694" d="M4362.072,211.18c-35.616,91.447-89.881,108.008-117.718,110.055A81.779,81.779,0,0,1,4362.072,211.18Z" transform="translate(0.195 0.195)" fill="#ee3e42"/>
      <path id="Trazado_20695" data-name="Trazado 20695" d="M4393.436,274.382a81.786,81.786,0,0,1-144.146,52.954c13.172-6.309,39.495-10.657,44.525-11.691,25.118-5.169,57.846-9.282,72.861-32.866,10.156-15.953,11.616-36.873,11.1-56.45A81.293,81.293,0,0,1,4393.436,274.382Z" transform="translate(1.398 2.277)" fill="#0069aa"/>
      <path id="Trazado_20696" data-name="Trazado 20696" d="M4394.64,276.464a81.786,81.786,0,0,1-144.146,52.954,81.57,81.57,0,0,1-19.513-52.954,81.83,81.83,0,0,1,163.659,0Z" transform="translate(0.195 0.195)" fill="none"/>
    </g>
  </g>
</svg>
