<svg xmlns="http://www.w3.org/2000/svg" width="265" height="489" viewBox="0 0 265 489">
  <g id="Grupo_14157" data-name="Grupo 14157" transform="translate(-8684 2422)">
    <path id="Trazado_24211" data-name="Trazado 24211" d="M30,0H235a30,30,0,0,1,30,30V459a30,30,0,0,1-30,30H30A30,30,0,0,1,0,459V30A30,30,0,0,1,30,0Z" transform="translate(8684 -2422)" fill="#f3f7fa"/>
    <path id="Trazado_24207" data-name="Trazado 24207" d="M32.349,21V6.723h1.66V19.5h6.3V21Zm19.375-5.361a5.9,5.9,0,0,1-1.318,4.087,4.643,4.643,0,0,1-3.643,1.47,4.824,4.824,0,0,1-2.549-.674A4.447,4.447,0,0,1,42.5,18.588a6.739,6.739,0,0,1-.605-2.949A5.9,5.9,0,0,1,43.2,11.562a4.628,4.628,0,0,1,3.633-1.46A4.528,4.528,0,0,1,50.4,11.6,5.879,5.879,0,0,1,51.724,15.639Zm-8.154,0a5.08,5.08,0,0,0,.82,3.125,3.256,3.256,0,0,0,4.829,0,5.054,5.054,0,0,0,.825-3.13,4.973,4.973,0,0,0-.825-3.1,2.9,2.9,0,0,0-2.437-1.06,2.853,2.853,0,0,0-2.4,1.045A5.029,5.029,0,0,0,43.569,15.639ZM63.325,10.3v1.025l-1.982.234a3.481,3.481,0,0,1,.7,2.139,3.164,3.164,0,0,1-1.074,2.51,4.333,4.333,0,0,1-2.949.938,4.911,4.911,0,0,1-.9-.078,1.6,1.6,0,0,0-1.035,1.377.7.7,0,0,0,.361.649,2.639,2.639,0,0,0,1.24.21h1.895a4.242,4.242,0,0,1,2.671.732,2.545,2.545,0,0,1,.933,2.129,3.039,3.039,0,0,1-1.426,2.71,7.631,7.631,0,0,1-4.16.933,5.684,5.684,0,0,1-3.237-.781,2.522,2.522,0,0,1-1.138-2.207,2.479,2.479,0,0,1,.625-1.689,3.182,3.182,0,0,1,1.758-.967,1.7,1.7,0,0,1-.688-.576,1.525,1.525,0,0,1-.278-.908,1.724,1.724,0,0,1,.313-1.025,3.286,3.286,0,0,1,.986-.85,2.891,2.891,0,0,1-1.353-1.162,3.415,3.415,0,0,1-.522-1.875,3.463,3.463,0,0,1,1.055-2.71A4.306,4.306,0,0,1,58.11,10.1a5.434,5.434,0,0,1,1.514.2ZM54.79,22.8a1.453,1.453,0,0,0,.732,1.318,4.042,4.042,0,0,0,2.1.449,5.859,5.859,0,0,0,3.022-.61,1.869,1.869,0,0,0,.981-1.655,1.31,1.31,0,0,0-.537-1.206,4.172,4.172,0,0,0-2.021-.337H57.124a2.56,2.56,0,0,0-1.719.527A1.884,1.884,0,0,0,54.79,22.8Zm.879-9.072a2.179,2.179,0,0,0,.635,1.7A2.535,2.535,0,0,0,58.071,16a2.068,2.068,0,0,0,2.373-2.3,2.128,2.128,0,0,0-2.4-2.412,2.378,2.378,0,0,0-1.758.615A2.478,2.478,0,0,0,55.669,13.725Zm19.092,1.914a5.9,5.9,0,0,1-1.318,4.087A4.643,4.643,0,0,1,69.8,21.2a4.824,4.824,0,0,1-2.549-.674,4.447,4.447,0,0,1-1.719-1.934,6.739,6.739,0,0,1-.605-2.949,5.9,5.9,0,0,1,1.309-4.077,4.628,4.628,0,0,1,3.633-1.46A4.528,4.528,0,0,1,73.438,11.6,5.879,5.879,0,0,1,74.761,15.639Zm-8.154,0a5.08,5.08,0,0,0,.82,3.125,3.256,3.256,0,0,0,4.829,0,5.054,5.054,0,0,0,.825-3.13,4.973,4.973,0,0,0-.825-3.1,2.9,2.9,0,0,0-2.437-1.06,2.853,2.853,0,0,0-2.4,1.045A5.029,5.029,0,0,0,66.606,15.639ZM96.44,21V14.037a2.89,2.89,0,0,0-.547-1.919,2.115,2.115,0,0,0-1.7-.64,2.743,2.743,0,0,0-2.236.869,4.131,4.131,0,0,0-.723,2.676V21H89.614V14.037a2.89,2.89,0,0,0-.547-1.919,2.128,2.128,0,0,0-1.709-.64,2.647,2.647,0,0,0-2.231.913,4.942,4.942,0,0,0-.708,2.993V21H82.8V10.3h1.318l.264,1.465h.078a3.186,3.186,0,0,1,1.294-1.221,3.953,3.953,0,0,1,1.87-.439q2.51,0,3.281,1.816h.078a3.413,3.413,0,0,1,1.387-1.328,4.3,4.3,0,0,1,2.07-.488,3.624,3.624,0,0,1,2.72.933,4.172,4.172,0,0,1,.9,2.983V21Zm11.543,0-.322-1.523h-.078a4.5,4.5,0,0,1-1.6,1.362A4.867,4.867,0,0,1,104,21.2a3.575,3.575,0,0,1-2.5-.82,2.992,2.992,0,0,1-.9-2.334q0-3.242,5.186-3.4l1.816-.059V13.92a2.714,2.714,0,0,0-.542-1.86,2.229,2.229,0,0,0-1.733-.6,7.063,7.063,0,0,0-3.027.82l-.5-1.24a7.618,7.618,0,0,1,1.733-.674,7.507,7.507,0,0,1,1.89-.244,4.077,4.077,0,0,1,2.837.85,3.546,3.546,0,0,1,.923,2.725V21Zm-3.662-1.143a3.29,3.29,0,0,0,2.378-.83,3.071,3.071,0,0,0,.864-2.324v-.967l-1.621.068a5.9,5.9,0,0,0-2.788.6,1.811,1.811,0,0,0-.854,1.655,1.67,1.67,0,0,0,.532,1.338A2.209,2.209,0,0,0,104.321,19.857ZM117.407,10.1a6.343,6.343,0,0,1,1.279.117l-.225,1.5a5.522,5.522,0,0,0-1.172-.146,2.853,2.853,0,0,0-2.222,1.055,3.846,3.846,0,0,0-.923,2.627V21h-1.621V10.3h1.338l.186,1.982h.078a4.7,4.7,0,0,1,1.436-1.611A3.232,3.232,0,0,1,117.407,10.1ZM124.966,21.2a4.568,4.568,0,0,1-3.6-1.431,5.883,5.883,0,0,1-1.274-4.048,6.067,6.067,0,0,1,1.294-4.15,4.659,4.659,0,0,1,3.687-1.465,7.316,7.316,0,0,1,1.543.166,5.083,5.083,0,0,1,1.211.391l-.5,1.377a7.622,7.622,0,0,0-1.172-.356,5.232,5.232,0,0,0-1.123-.142q-3.262,0-3.262,4.16a4.954,4.954,0,0,0,.8,3.027,2.769,2.769,0,0,0,2.358,1.055,7.211,7.211,0,0,0,2.744-.576v1.436A5.849,5.849,0,0,1,124.966,21.2Zm11.826-.2-.322-1.523h-.078a4.5,4.5,0,0,1-1.6,1.362,4.867,4.867,0,0,1-1.987.356,3.575,3.575,0,0,1-2.5-.82,2.992,2.992,0,0,1-.9-2.334q0-3.242,5.186-3.4l1.816-.059V13.92a2.714,2.714,0,0,0-.542-1.86,2.229,2.229,0,0,0-1.733-.6,7.063,7.063,0,0,0-3.027.82l-.5-1.24a7.618,7.618,0,0,1,1.733-.674,7.507,7.507,0,0,1,1.89-.244,4.077,4.077,0,0,1,2.837.85,3.546,3.546,0,0,1,.923,2.725V21Zm-3.662-1.143a3.29,3.29,0,0,0,2.378-.83,3.071,3.071,0,0,0,.864-2.324v-.967l-1.621.068a5.9,5.9,0,0,0-2.788.6,1.811,1.811,0,0,0-.854,1.655,1.67,1.67,0,0,0,.532,1.338A2.209,2.209,0,0,0,133.13,19.857ZM10.991,37.1a6.343,6.343,0,0,1,1.279.117l-.225,1.5a5.522,5.522,0,0,0-1.172-.146,2.853,2.853,0,0,0-2.222,1.055,3.846,3.846,0,0,0-.923,2.627V48H6.108V37.3H7.446l.186,1.982H7.71a4.7,4.7,0,0,1,1.436-1.611A3.232,3.232,0,0,1,10.991,37.1Zm7.8,11.094a4.917,4.917,0,0,1-3.745-1.445,5.6,5.6,0,0,1-1.372-4.014,6.205,6.205,0,0,1,1.274-4.111A4.233,4.233,0,0,1,18.374,37.1a4.036,4.036,0,0,1,3.184,1.323,5.072,5.072,0,0,1,1.172,3.491v1.025H15.356a4.243,4.243,0,0,0,.952,2.861,3.293,3.293,0,0,0,2.544.977,8.621,8.621,0,0,0,3.418-.723V47.5a8.579,8.579,0,0,1-1.626.532A9.138,9.138,0,0,1,18.794,48.2Zm-.439-9.736a2.647,2.647,0,0,0-2.056.84,3.871,3.871,0,0,0-.9,2.324h5.6a3.564,3.564,0,0,0-.684-2.349A2.406,2.406,0,0,0,18.354,38.459Zm15.9-1.162v1.025l-1.982.234a3.481,3.481,0,0,1,.7,2.139,3.164,3.164,0,0,1-1.074,2.51,4.333,4.333,0,0,1-2.949.938,4.911,4.911,0,0,1-.9-.078,1.6,1.6,0,0,0-1.035,1.377.7.7,0,0,0,.361.649,2.639,2.639,0,0,0,1.24.21h1.895a4.242,4.242,0,0,1,2.671.732,2.545,2.545,0,0,1,.933,2.129,3.039,3.039,0,0,1-1.426,2.71,7.631,7.631,0,0,1-4.16.933,5.684,5.684,0,0,1-3.237-.781,2.522,2.522,0,0,1-1.138-2.207,2.479,2.479,0,0,1,.625-1.689,3.182,3.182,0,0,1,1.758-.967,1.7,1.7,0,0,1-.688-.576,1.525,1.525,0,0,1-.278-.908,1.724,1.724,0,0,1,.313-1.025,3.286,3.286,0,0,1,.986-.85,2.891,2.891,0,0,1-1.353-1.162A3.415,3.415,0,0,1,25,40.764a3.463,3.463,0,0,1,1.055-2.71,4.306,4.306,0,0,1,2.988-.952,5.434,5.434,0,0,1,1.514.2ZM25.718,49.8a1.453,1.453,0,0,0,.732,1.318,4.042,4.042,0,0,0,2.1.449,5.859,5.859,0,0,0,3.022-.61,1.869,1.869,0,0,0,.981-1.655,1.31,1.31,0,0,0-.537-1.206A4.172,4.172,0,0,0,30,47.756H28.052a2.56,2.56,0,0,0-1.719.527A1.884,1.884,0,0,0,25.718,49.8Zm.879-9.072a2.179,2.179,0,0,0,.635,1.7A2.535,2.535,0,0,0,29,43a2.068,2.068,0,0,0,2.373-2.3,2.128,2.128,0,0,0-2.4-2.412,2.378,2.378,0,0,0-1.758.615A2.478,2.478,0,0,0,26.6,40.725ZM38.071,48H36.45V37.3h1.621ZM36.313,34.4a1.077,1.077,0,0,1,.273-.815,1.012,1.012,0,0,1,1.357,0,1.057,1.057,0,0,1,.283.811,1.074,1.074,0,0,1-.283.815.992.992,0,0,1-1.357,0A1.1,1.1,0,0,1,36.313,34.4Zm12.1,10.684a2.681,2.681,0,0,1-1.113,2.3,5.233,5.233,0,0,1-3.125.811,6.8,6.8,0,0,1-3.32-.674v-1.5a8.029,8.029,0,0,0,1.655.615,6.912,6.912,0,0,0,1.7.225,3.864,3.864,0,0,0,1.953-.405,1.4,1.4,0,0,0,.142-2.3,8.526,8.526,0,0,0-2.114-1.05,11.465,11.465,0,0,1-2.124-.972,2.9,2.9,0,0,1-.937-.942,2.458,2.458,0,0,1-.308-1.26,2.4,2.4,0,0,1,1.064-2.065,4.96,4.96,0,0,1,2.92-.757,8.544,8.544,0,0,1,3.379.7l-.576,1.318a7.756,7.756,0,0,0-2.92-.664,3.359,3.359,0,0,0-1.738.361,1.117,1.117,0,0,0-.586,1,1.213,1.213,0,0,0,.22.732,2.168,2.168,0,0,0,.708.576,15.822,15.822,0,0,0,1.875.791,7,7,0,0,1,2.573,1.4A2.463,2.463,0,0,1,48.413,45.08Zm6.094,1.777a5.3,5.3,0,0,0,.83-.063,5.373,5.373,0,0,0,.635-.132V47.9a2.963,2.963,0,0,1-.776.21,5.83,5.83,0,0,1-.923.083q-3.105,0-3.105-3.271V38.557H49.634v-.781l1.533-.674.684-2.285h.938V37.3h3.105v1.26H52.788v6.3a2.167,2.167,0,0,0,.459,1.484A1.6,1.6,0,0,0,54.507,46.857ZM62.993,37.1a6.343,6.343,0,0,1,1.279.117l-.225,1.5a5.522,5.522,0,0,0-1.172-.146,2.853,2.853,0,0,0-2.222,1.055,3.846,3.846,0,0,0-.923,2.627V48H58.11V37.3h1.338l.186,1.982h.078a4.7,4.7,0,0,1,1.436-1.611A3.232,3.232,0,0,1,62.993,37.1ZM72.856,48l-.322-1.523h-.078a4.5,4.5,0,0,1-1.6,1.362,4.867,4.867,0,0,1-1.987.356,3.575,3.575,0,0,1-2.5-.82,2.992,2.992,0,0,1-.9-2.334q0-3.242,5.186-3.4l1.816-.059V40.92a2.714,2.714,0,0,0-.542-1.86,2.229,2.229,0,0,0-1.733-.6,7.063,7.063,0,0,0-3.027.82l-.5-1.24a7.618,7.618,0,0,1,1.733-.674,7.507,7.507,0,0,1,1.89-.244,4.077,4.077,0,0,1,2.837.85,3.546,3.546,0,0,1,.923,2.725V48Zm-3.662-1.143a3.29,3.29,0,0,0,2.378-.83,3.071,3.071,0,0,0,.864-2.324v-.967l-1.621.068a5.9,5.9,0,0,0-2.788.6,1.811,1.811,0,0,0-.854,1.655,1.67,1.67,0,0,0,.532,1.338A2.209,2.209,0,0,0,69.194,46.857Zm15.488-.293h-.088A3.809,3.809,0,0,1,81.235,48.2a3.974,3.974,0,0,1-3.267-1.436A6.319,6.319,0,0,1,76.8,42.678a6.426,6.426,0,0,1,1.172-4.111A3.943,3.943,0,0,1,81.235,37.1a3.892,3.892,0,0,1,3.34,1.582H84.7l-.068-.771-.039-.752V32.8h1.621V48H84.9Zm-3.242.273a2.951,2.951,0,0,0,2.407-.9,4.565,4.565,0,0,0,.747-2.915v-.342a5.371,5.371,0,0,0-.757-3.247,2.874,2.874,0,0,0-2.417-.972,2.481,2.481,0,0,0-2.183,1.108,5.511,5.511,0,0,0-.757,3.13,5.284,5.284,0,0,0,.752,3.1A2.547,2.547,0,0,0,81.44,46.838ZM96.235,48l-.322-1.523h-.078a4.5,4.5,0,0,1-1.6,1.362,4.867,4.867,0,0,1-1.987.356,3.575,3.575,0,0,1-2.5-.82,2.992,2.992,0,0,1-.9-2.334q0-3.242,5.186-3.4l1.816-.059V40.92a2.714,2.714,0,0,0-.542-1.86,2.229,2.229,0,0,0-1.733-.6,7.063,7.063,0,0,0-3.027.82l-.5-1.24a7.618,7.618,0,0,1,1.733-.674,7.507,7.507,0,0,1,1.89-.244,4.077,4.077,0,0,1,2.837.85,3.546,3.546,0,0,1,.923,2.725V48Zm-3.662-1.143a3.29,3.29,0,0,0,2.378-.83,3.071,3.071,0,0,0,.864-2.324v-.967l-1.621.068a5.9,5.9,0,0,0-2.788.6,1.811,1.811,0,0,0-.854,1.655,1.67,1.67,0,0,0,.532,1.338A2.209,2.209,0,0,0,92.573,46.857ZM112.554,48l-.322-1.523h-.078a4.5,4.5,0,0,1-1.6,1.362,4.867,4.867,0,0,1-1.987.356,3.575,3.575,0,0,1-2.5-.82,2.992,2.992,0,0,1-.9-2.334q0-3.242,5.186-3.4l1.816-.059V40.92a2.714,2.714,0,0,0-.542-1.86,2.229,2.229,0,0,0-1.733-.6,7.063,7.063,0,0,0-3.027.82l-.5-1.24a7.618,7.618,0,0,1,1.733-.674,7.507,7.507,0,0,1,1.89-.244,4.077,4.077,0,0,1,2.837.85,3.546,3.546,0,0,1,.923,2.725V48Zm-3.662-1.143a3.29,3.29,0,0,0,2.378-.83,3.071,3.071,0,0,0,.864-2.324v-.967l-1.621.068a5.9,5.9,0,0,0-2.788.6,1.811,1.811,0,0,0-.854,1.655A1.67,1.67,0,0,0,107.4,46.4,2.209,2.209,0,0,0,108.892,46.857Zm15.488-.293h-.088a3.809,3.809,0,0,1-3.359,1.631,3.974,3.974,0,0,1-3.267-1.436,6.319,6.319,0,0,1-1.167-4.082,6.426,6.426,0,0,1,1.172-4.111,3.943,3.943,0,0,1,3.262-1.465,3.892,3.892,0,0,1,3.34,1.582h.127l-.068-.771-.039-.752V32.8h1.621V48h-1.318Zm-3.242.273a2.951,2.951,0,0,0,2.407-.9,4.565,4.565,0,0,0,.747-2.915v-.342a5.371,5.371,0,0,0-.757-3.247,2.874,2.874,0,0,0-2.417-.972,2.481,2.481,0,0,0-2.183,1.108,5.511,5.511,0,0,0-.757,3.13,5.284,5.284,0,0,0,.752,3.1A2.547,2.547,0,0,0,121.138,46.838ZM130.972,48h-1.621V37.3h1.621Zm-1.758-13.6a1.077,1.077,0,0,1,.273-.815,1.012,1.012,0,0,1,1.357,0,1.057,1.057,0,0,1,.283.811,1.074,1.074,0,0,1-.283.815.992.992,0,0,1-1.357,0A1.1,1.1,0,0,1,129.214,34.4Zm12.48,12.168h-.088a3.809,3.809,0,0,1-3.359,1.631,3.974,3.974,0,0,1-3.267-1.436,6.319,6.319,0,0,1-1.167-4.082,6.426,6.426,0,0,1,1.172-4.111,3.943,3.943,0,0,1,3.262-1.465,3.892,3.892,0,0,1,3.34,1.582h.127l-.068-.771-.039-.752V32.8h1.621V48h-1.318Zm-3.242.273a2.951,2.951,0,0,0,2.407-.9,4.565,4.565,0,0,0,.747-2.915v-.342a5.371,5.371,0,0,0-.757-3.247,2.874,2.874,0,0,0-2.417-.972,2.481,2.481,0,0,0-2.183,1.108,5.511,5.511,0,0,0-.757,3.13,5.284,5.284,0,0,0,.752,3.1A2.547,2.547,0,0,0,138.452,46.838ZM153.247,48l-.322-1.523h-.078a4.5,4.5,0,0,1-1.6,1.362,4.867,4.867,0,0,1-1.987.356,3.575,3.575,0,0,1-2.5-.82,2.992,2.992,0,0,1-.9-2.334q0-3.242,5.186-3.4l1.816-.059V40.92a2.714,2.714,0,0,0-.542-1.86,2.229,2.229,0,0,0-1.733-.6,7.063,7.063,0,0,0-3.027.82l-.5-1.24a7.618,7.618,0,0,1,1.733-.674,7.507,7.507,0,0,1,1.89-.244,4.077,4.077,0,0,1,2.837.85,3.546,3.546,0,0,1,.923,2.725V48Zm-3.662-1.143a3.29,3.29,0,0,0,2.378-.83,3.071,3.071,0,0,0,.864-2.324v-.967l-1.621.068a5.9,5.9,0,0,0-2.788.6,1.811,1.811,0,0,0-.854,1.655A1.67,1.67,0,0,0,148.1,46.4,2.209,2.209,0,0,0,149.585,46.857Zm15.107-1.777a2.681,2.681,0,0,1-1.113,2.3,5.233,5.233,0,0,1-3.125.811,6.8,6.8,0,0,1-3.32-.674v-1.5a8.03,8.03,0,0,0,1.655.615,6.912,6.912,0,0,0,1.7.225,3.864,3.864,0,0,0,1.953-.405,1.4,1.4,0,0,0,.142-2.3,8.526,8.526,0,0,0-2.114-1.05,11.465,11.465,0,0,1-2.124-.972,2.9,2.9,0,0,1-.937-.942,2.458,2.458,0,0,1-.308-1.26,2.4,2.4,0,0,1,1.064-2.065,4.96,4.96,0,0,1,2.92-.757,8.544,8.544,0,0,1,3.379.7l-.576,1.318a7.756,7.756,0,0,0-2.92-.664,3.359,3.359,0,0,0-1.738.361,1.117,1.117,0,0,0-.586,1,1.213,1.213,0,0,0,.22.732,2.168,2.168,0,0,0,.708.576,15.821,15.821,0,0,0,1.875.791,7,7,0,0,1,2.573,1.4A2.463,2.463,0,0,1,164.692,45.08Z" transform="translate(8737 -2056)" fill="#00223d"/>
    <path id="Trazado_24204" data-name="Trazado 24204" d="M49.585,17.035a3.691,3.691,0,0,1-1.392,3.047A6.045,6.045,0,0,1,44.321,21.2a9.094,9.094,0,0,1-4.043-.859V17.523a16.661,16.661,0,0,0,2.446.908,7.239,7.239,0,0,0,1.831.264,2.6,2.6,0,0,0,1.528-.381,1.3,1.3,0,0,0,.532-1.133,1.251,1.251,0,0,0-.234-.747,2.623,2.623,0,0,0-.688-.63,17.707,17.707,0,0,0-1.851-.967,8.771,8.771,0,0,1-1.963-1.182,4.436,4.436,0,0,1-1.045-1.318,3.762,3.762,0,0,1-.391-1.758A3.69,3.69,0,0,1,41.729,7.6a5.336,5.336,0,0,1,3.55-1.084,8.383,8.383,0,0,1,2.124.264,14.6,14.6,0,0,1,2.114.742L48.54,9.877a14.288,14.288,0,0,0-1.89-.654,6.082,6.082,0,0,0-1.47-.186,1.946,1.946,0,0,0-1.318.4,1.321,1.321,0,0,0-.459,1.045,1.293,1.293,0,0,0,.186.7,2.04,2.04,0,0,0,.591.576,18.268,18.268,0,0,0,1.919,1,7.635,7.635,0,0,1,2.744,1.919A3.745,3.745,0,0,1,49.585,17.035ZM54.917,21H51.938V10.082h2.979ZM51.792,8.881V8.617a27.494,27.494,0,0,0,2.295-2.939h3.34v.205q-.508.508-1.733,1.509T53.774,8.881ZM67.817,21H64.839V14.623a3.212,3.212,0,0,0-.4-1.772A1.391,1.391,0,0,0,63.2,12.26a1.8,1.8,0,0,0-1.66.84,5.509,5.509,0,0,0-.518,2.764V21H58.042V10.082h2.275l.4,1.4h.166a3.026,3.026,0,0,1,1.27-1.177,4.122,4.122,0,0,1,1.9-.425,3.43,3.43,0,0,1,3.32,1.6h.264A2.95,2.95,0,0,1,68.936,10.3a4.315,4.315,0,0,1,1.929-.42,3.807,3.807,0,0,1,2.808.952,4.181,4.181,0,0,1,.952,3.052V21H71.636V14.623a3.212,3.212,0,0,0-.4-1.772A1.391,1.391,0,0,0,70,12.26a1.858,1.858,0,0,0-1.636.781,4.433,4.433,0,0,0-.542,2.48ZM83.755,9.877a3.532,3.532,0,0,1,3.027,1.509,6.923,6.923,0,0,1,1.094,4.136,6.8,6.8,0,0,1-1.128,4.189,3.939,3.939,0,0,1-6.089.088h-.205l-.5,1.2H77.681V5.8h2.979V9.34q0,.674-.117,2.158h.117A3.446,3.446,0,0,1,83.755,9.877ZM82.8,12.26a1.881,1.881,0,0,0-1.611.679,3.9,3.9,0,0,0-.527,2.241V15.5a4.6,4.6,0,0,0,.522,2.52,1.865,1.865,0,0,0,1.655.762,1.661,1.661,0,0,0,1.46-.845,4.572,4.572,0,0,0,.542-2.456,4.332,4.332,0,0,0-.547-2.417A1.715,1.715,0,0,0,82.8,12.26Zm9.912,3.262a4.582,4.582,0,0,0,.532,2.451,1.9,1.9,0,0,0,1.733.83,1.873,1.873,0,0,0,1.714-.825,4.648,4.648,0,0,0,.522-2.456,4.51,4.51,0,0,0-.527-2.432,2.242,2.242,0,0,0-3.447,0A4.506,4.506,0,0,0,92.71,15.521Zm7.549,0a5.867,5.867,0,0,1-1.406,4.17,5.1,5.1,0,0,1-3.916,1.5,5.478,5.478,0,0,1-2.773-.688,4.581,4.581,0,0,1-1.846-1.978,6.645,6.645,0,0,1-.645-3.008,5.835,5.835,0,0,1,1.4-4.16A5.128,5.128,0,0,1,95,9.877a5.509,5.509,0,0,1,2.773.684,4.563,4.563,0,0,1,1.846,1.963A6.584,6.584,0,0,1,100.259,15.521ZM105.7,21H102.72V5.8H105.7Zm5.5-5.479a4.582,4.582,0,0,0,.532,2.451,1.9,1.9,0,0,0,1.733.83,1.873,1.873,0,0,0,1.714-.825,4.648,4.648,0,0,0,.522-2.456,4.51,4.51,0,0,0-.527-2.432,2.242,2.242,0,0,0-3.447,0A4.506,4.506,0,0,0,111.2,15.521Zm7.549,0a5.867,5.867,0,0,1-1.406,4.17,5.1,5.1,0,0,1-3.916,1.5,5.478,5.478,0,0,1-2.773-.688,4.581,4.581,0,0,1-1.846-1.978,6.645,6.645,0,0,1-.645-3.008,5.835,5.835,0,0,1,1.4-4.16,5.128,5.128,0,0,1,3.926-1.484,5.509,5.509,0,0,1,2.773.684,4.563,4.563,0,0,1,1.846,1.963A6.584,6.584,0,0,1,118.745,15.521ZM131,18.822a6.457,6.457,0,0,0,1.875-.342V20.7a6.685,6.685,0,0,1-2.734.5,3.347,3.347,0,0,1-2.6-.9,3.932,3.932,0,0,1-.815-2.71V12.318H125.3v-1.26l1.641-1,.859-2.3h1.9v2.324h3.057v2.236H129.7v5.264a1.163,1.163,0,0,0,.356.938A1.406,1.406,0,0,0,131,18.822Zm10.176-8.945a4.8,4.8,0,0,1,1.006.088l-.225,2.793a3.412,3.412,0,0,0-.879-.1,3.159,3.159,0,0,0-2.222.732,2.648,2.648,0,0,0-.8,2.051V21h-2.979V10.082h2.256l.439,1.836h.146a4.1,4.1,0,0,1,1.372-1.479A3.383,3.383,0,0,1,141.177,9.877Zm2.861-2.617q0-1.455,1.621-1.455T147.28,7.26a1.419,1.419,0,0,1-.405,1.079,1.7,1.7,0,0,1-1.216.386Q144.038,8.725,144.038,7.26ZM147.144,21h-2.979V10.082h2.979ZM157.2,21l-.576-1.484h-.078A4.4,4.4,0,0,1,155,20.829a5,5,0,0,1-2.075.366,3.356,3.356,0,0,1-2.476-.9,3.45,3.45,0,0,1-.9-2.559,2.881,2.881,0,0,1,1.216-2.563,7.045,7.045,0,0,1,3.667-.913l1.895-.059v-.479a1.485,1.485,0,0,0-1.7-1.66,7.743,7.743,0,0,0-3.076.791l-.986-2.012a8.876,8.876,0,0,1,4.18-.986,5.206,5.206,0,0,1,3.369.957,3.537,3.537,0,0,1,1.172,2.91V21Zm-.879-5.059-1.152.039a3.69,3.69,0,0,0-1.934.469,1.472,1.472,0,0,0-.635,1.309q0,1.26,1.445,1.26a2.289,2.289,0,0,0,1.655-.6,2.092,2.092,0,0,0,.62-1.582ZM172.427,21h-2.979V14.623a3.063,3.063,0,0,0-.42-1.772,1.528,1.528,0,0,0-1.338-.591,2.011,2.011,0,0,0-1.807.835,5.178,5.178,0,0,0-.557,2.769V21h-2.979V10.082h2.275l.4,1.4h.166a3.148,3.148,0,0,1,1.372-1.2,4.672,4.672,0,0,1,1.987-.405,3.818,3.818,0,0,1,2.891,1.03,4.134,4.134,0,0,1,.986,2.974ZM185,10.082V11.6l-1.709.439a2.979,2.979,0,0,1,.469,1.641,3.312,3.312,0,0,1-1.226,2.739,5.308,5.308,0,0,1-3.4.981l-.537-.029-.439-.049a.99.99,0,0,0-.459.781q0,.645,1.641.645h1.855a4.233,4.233,0,0,1,2.739.771,2.758,2.758,0,0,1,.942,2.266,3.36,3.36,0,0,1-1.6,2.969,8.315,8.315,0,0,1-4.585,1.055,6.348,6.348,0,0,1-3.491-.8,2.527,2.527,0,0,1-1.206-2.231,2.336,2.336,0,0,1,.615-1.65,3.494,3.494,0,0,1,1.807-.947,1.993,1.993,0,0,1-.8-.64,1.572,1.572,0,0,1,.02-1.982,4.177,4.177,0,0,1,1.045-.815,2.93,2.93,0,0,1-1.362-1.191,3.626,3.626,0,0,1-.5-1.934,3.41,3.41,0,0,1,1.162-2.764,5.025,5.025,0,0,1,3.32-.977,8.5,8.5,0,0,1,1.089.083q.63.083.806.122Zm-8.428,12.461a1.079,1.079,0,0,0,.591.967,3.251,3.251,0,0,0,1.655.352,5.863,5.863,0,0,0,2.51-.439,1.339,1.339,0,0,0,.908-1.2.85.85,0,0,0-.537-.85,4.4,4.4,0,0,0-1.66-.234h-1.543a2.337,2.337,0,0,0-1.372.386A1.19,1.19,0,0,0,176.567,22.543Zm1.084-8.887a2.223,2.223,0,0,0,.405,1.406,1.472,1.472,0,0,0,1.235.518,1.442,1.442,0,0,0,1.23-.518,2.282,2.282,0,0,0,.391-1.406q0-1.973-1.621-1.973Q177.651,11.684,177.651,13.656ZM194.526,21l-.4-1.4h-.156a3.143,3.143,0,0,1-1.357,1.177,4.634,4.634,0,0,1-2,.415,3.812,3.812,0,0,1-2.9-1.03,4.145,4.145,0,0,1-.977-2.964V10.082h2.979v6.377a3.063,3.063,0,0,0,.42,1.772,1.528,1.528,0,0,0,1.338.591,2.011,2.011,0,0,0,1.807-.835,5.178,5.178,0,0,0,.557-2.769V10.082h2.979V21Zm8.389,0h-2.979V5.8h2.979Zm10.059,0-.576-1.484h-.078a4.4,4.4,0,0,1-1.548,1.313,5,5,0,0,1-2.075.366,3.356,3.356,0,0,1-2.476-.9,3.45,3.45,0,0,1-.9-2.559,2.881,2.881,0,0,1,1.216-2.563,7.045,7.045,0,0,1,3.667-.913l1.895-.059v-.479a1.485,1.485,0,0,0-1.7-1.66,7.743,7.743,0,0,0-3.076.791l-.986-2.012a8.876,8.876,0,0,1,4.18-.986,5.206,5.206,0,0,1,3.369.957,3.537,3.537,0,0,1,1.172,2.91V21Zm-.879-5.059-1.152.039a3.69,3.69,0,0,0-1.934.469,1.472,1.472,0,0,0-.635,1.309q0,1.26,1.445,1.26a2.289,2.289,0,0,0,1.655-.6,2.092,2.092,0,0,0,.62-1.582Zm12.119-6.064a4.8,4.8,0,0,1,1.006.088L225,12.758a3.412,3.412,0,0,0-.879-.1,3.159,3.159,0,0,0-2.222.732,2.648,2.648,0,0,0-.8,2.051V21H218.12V10.082h2.256l.439,1.836h.146a4.1,4.1,0,0,1,1.372-1.479A3.383,3.383,0,0,1,224.214,9.877Z" transform="translate(8689 -2380)" fill="#00223d"/>
    <g id="Grupo_14153" data-name="Grupo 14153" transform="translate(8508.666 -2631.049)">
      <path id="Trazado_20703" data-name="Trazado 20703" d="M387.572,448.2a5.756,5.756,0,0,0,2.95.791h.033a5.752,5.752,0,0,0,2.951-.791A5.211,5.211,0,0,0,395.7,446a6.035,6.035,0,0,0,0-5.969,5.306,5.306,0,0,0-2.231-2.2,6.1,6.1,0,0,0-2.917-.787h-.033a6.492,6.492,0,0,0-2.915.787,5.5,5.5,0,0,0-2.23,2.2,6.042,6.042,0,0,0,0,5.969,5.208,5.208,0,0,0,2.195,2.194Zm-1.337-7.65a4.805,4.805,0,0,1,1.852-1.852,5.29,5.29,0,0,1,2.436-.651h.033a5.3,5.3,0,0,1,2.438.651,4.81,4.81,0,0,1,1.851,1.852,5.074,5.074,0,0,1,0,4.975,4.632,4.632,0,0,1-1.817,1.819,4.941,4.941,0,0,1-2.471.65h-.033a4.929,4.929,0,0,1-2.469-.65,4.628,4.628,0,0,1-1.819-1.819,4.852,4.852,0,0,1,0-4.975Z" transform="translate(28.127 12.369)" fill="#0059a3"/>
      <path id="Trazado_20704" data-name="Trazado 20704" d="M388.508,443.229h.617a1.134,1.134,0,0,1,.824.241.435.435,0,0,1,.137.1,6.08,6.08,0,0,1,.96,1.371h0l.585,1.031h1.234l-.754-1.27h0a8.376,8.376,0,0,0-.961-1.271,1.7,1.7,0,0,0-.549-.342,2,2,0,0,0,1.337-.584,1.686,1.686,0,0,0,.516-1.235,1.5,1.5,0,0,0-.31-.927,1.479,1.479,0,0,0-.823-.617,3.61,3.61,0,0,0-1.235-.17c-.1,0-.239-.037-.378-.037h-2.231v6.451h1.03v-2.745Zm0-2.813h1.578a5.2,5.2,0,0,1,.651.1.765.765,0,0,1,.447.342.839.839,0,0,1,.137.516.864.864,0,0,1-.308.687,1.469,1.469,0,0,1-.927.274h-1.578v-1.921Z" transform="translate(28.564 12.742)" fill="#0059a3"/>
      <path id="Trazado_20705" data-name="Trazado 20705" d="M259.905,444.657h9.262l-9.262-15.439-7.822-13L218.84,436.183l5.077,8.474Z" transform="translate(3.097 9.223)" fill="#0059a3"/>
      <path id="Trazado_20706" data-name="Trazado 20706" d="M335.591,453.88H380.84l-28.165-46.932-31.15-51.8-12.831,7.718-20.377,12.247,20.377,33.929,26.9,44.84Z" transform="translate(13.589)" fill="#0059a3"/>
      <path id="Trazado_20707" data-name="Trazado 20707" d="M319.761,456.4a20.123,20.123,0,0,0-10.977-3.258h-.1a20.378,20.378,0,0,0,0,40.755h.1a20.123,20.123,0,0,0,10.977-3.259h0v2.128h9.367V440.926h-9.367V456.4Zm0,19.247a11.251,11.251,0,0,1-10.977,9.09h-.1a11.2,11.2,0,0,1,0-22.4h.1a11.222,11.222,0,0,1,10.977,9.058h0v4.255Z" transform="translate(13.602 12.954)" fill="#0059a3"/>
      <path id="Trazado_20708" data-name="Trazado 20708" d="M357.972,454.795a20.04,20.04,0,0,0-10.978-3.259h-.1a20.378,20.378,0,0,0,0,40.755h.1a20.04,20.04,0,0,0,10.978-3.259h0v2.128h9.366v-38.6h-9.366v2.23Zm0,19.247a11.252,11.252,0,0,1-10.978,9.09h-.1a11.2,11.2,0,0,1,0-22.4h.1a11.222,11.222,0,0,1,10.978,9.058h0v4.255Z" transform="translate(19.373 14.556)" fill="#0059a3"/>
      <path id="Trazado_20709" data-name="Trazado 20709" d="M394.756,469.433c-.341-.172-.822-.343-1.371-.548a98.7,98.7,0,0,0-10.223-2.642c-4.151-.927-6.244-2.128-6.244-3.637a3.2,3.2,0,0,1,1.1-2.538q1.443-1.234,5.146-1.235c2.5,0,4.322.548,5.387,1.613a6.7,6.7,0,0,1,1.441,3.465h9.947c0-4.872-1.989-8.371-5.9-10.5a3.761,3.761,0,0,0-.652-.345,25.737,25.737,0,0,0-10.807-1.921c-5.455,0-9.571,1.442-12.316,4.36a11.969,11.969,0,0,0-3.26,8.538c0,4.187,2.059,7.205,6.244,9.163,1.578.754,5.421,1.819,11.527,3.119,4.083.893,6.142,2.162,6.142,3.776a3.219,3.219,0,0,1-1.3,2.537,7.8,7.8,0,0,1-5.146,1.442c-3.054,0-5.215-.514-6.484-1.509a4.936,4.936,0,0,1-1.922-4.153H365.632a11.457,11.457,0,0,0,6,10.6c3.189,1.819,7.376,2.745,12.555,2.745a23.223,23.223,0,0,0,9.194-1.717c.549-.238,1.03-.479,1.545-.754,4.083-2.264,6.14-5.866,6.14-10.807,0-4.046-2.093-7.066-6.313-9.056Z" transform="translate(25.265 14.498)" fill="#0059a3"/>
      <path id="Trazado_20710" data-name="Trazado 20710" d="M229.69,454.795a20.241,20.241,0,0,0-11.012-3.259h-.1a20.378,20.378,0,0,0,0,40.755h.1a20.242,20.242,0,0,0,11.012-3.259h0v2.128h9.366v-38.6H229.69v2.23Zm0,19.247a11.26,11.26,0,0,1-11.012,9.09h-.1a11.2,11.2,0,0,1,0-22.4h.1a11.231,11.231,0,0,1,11.012,9.058h0v4.255Z" transform="translate(0 14.556)" fill="#0059a3"/>
      <path id="Trazado_20711" data-name="Trazado 20711" d="M276.365,450.058h10.189V441.1H276.365v8.954Z" transform="translate(11.784 12.981)" fill="#0059a3"/>
      <path id="Trazado_20712" data-name="Trazado 20712" d="M276.365,491.161h10.189V451.536H276.365v39.625Z" transform="translate(11.784 14.556)" fill="#0059a3"/>
      <path id="Trazado_20713" data-name="Trazado 20713" d="M268.293,456.4a20.242,20.242,0,0,0-11.012-3.258h-.1a20.378,20.378,0,0,0,0,40.755h.1a20.242,20.242,0,0,0,11.012-3.259h0v2.128h9.365V440.926h-9.365V456.4Zm0,19.247a11.26,11.26,0,0,1-11.012,9.09h-.1a11.2,11.2,0,0,1,0-22.4h.1a11.231,11.231,0,0,1,11.012,9.058h0v4.255Z" transform="translate(5.824 12.954)" fill="#0059a3"/>
      <path id="Trazado_20714" data-name="Trazado 20714" d="M324.989,449.271l-11.047-18.458-27.135-45.147-32.146,19.348-1.1.653,1.1,1.818,25.112,41.786h45.216Z" transform="translate(8.34 4.609)" fill="#0059a3"/>
    </g>
  </g>
</svg>
