<svg xmlns="http://www.w3.org/2000/svg" width="923.999" height="320.72" viewBox="0 0 923.999 320.72">
  <g id="Grupo_14160" data-name="Grupo 14160" transform="translate(-241 -868)">
    <path id="Trazado_20760" data-name="Trazado 20760" d="M2057.61,1157.885a33.436,33.436,0,0,1,14.079,11.174,29.736,29.736,0,0,1,5.707,13.11q1.04,6.732,1.043,21.978v66.833h-30.363v-69.252q0-9.188-3.108-14.829-4.037-7.94-15.322-7.94-11.7,0-17.765,7.885t-6.058,22.508v61.628h-29.736V1117.715h29.736v54.257q6.442-9.917,14.908-13.828a42.007,42.007,0,0,1,17.816-3.91A48.154,48.154,0,0,1,2057.61,1157.885Z" transform="translate(-1735.087 -249.195)"/>
    <path id="Trazado_20761" data-name="Trazado 20761" d="M2094.882,1133.791a46.263,46.263,0,0,1,19.65,16.824,55.914,55.914,0,0,1,9.061,23.51q1.2,7.837.979,22.572h-82.828q.694,17.112,11.894,24a30.2,30.2,0,0,0,16.393,4.277q10.167,0,16.515-5.215a24.984,24.984,0,0,0,6.118-7.827h30.359q-1.2,10.126-11.025,20.554-15.283,16.593-42.786,16.593a61.974,61.974,0,0,1-40.055-13.994q-17.357-13.988-17.354-45.531,0-29.547,15.665-45.318t40.667-15.767A64.736,64.736,0,0,1,2094.882,1133.791Zm-44.485,25.688q-6.3,6.5-7.922,17.6H2093.7q-.81-11.839-7.922-17.969t-17.633-6.128Q2056.7,1152.983,2050.4,1159.479Z" transform="translate(-1649.463 -223.426)"/>
    <path id="Trazado_20762" data-name="Trazado 20762" d="M2079.343,1271.347h-29.736V1117.562h29.736Z" transform="translate(-1558.836 -249.562)"/>
    <path id="Trazado_20763" data-name="Trazado 20763" d="M2144.872,1129.354H2176.8l-41.068,113.723h-31.35L2063.6,1129.354h33.386l23.683,83.884Z" transform="translate(-1525.297 -221.292)"/>
    <path id="Trazado_20764" data-name="Trazado 20764" d="M2182.313,1133.791a46.3,46.3,0,0,1,19.653,16.824,55.966,55.966,0,0,1,9.061,23.51q1.2,7.837.979,22.572h-82.827q.692,17.112,11.894,24a30.183,30.183,0,0,0,16.392,4.277q10.162,0,16.511-5.215a24.879,24.879,0,0,0,6.118-7.827h30.363q-1.207,10.126-11.024,20.554-15.283,16.593-42.786,16.593a61.974,61.974,0,0,1-40.055-13.994q-17.357-13.988-17.357-45.531,0-29.547,15.668-45.318t40.664-15.767A64.718,64.718,0,0,1,2182.313,1133.791Zm-44.482,25.688q-6.309,6.5-7.922,17.6h51.229q-.809-11.839-7.922-17.969t-17.635-6.128Q2144.129,1152.983,2137.832,1159.479Z" transform="translate(-1439.859 -223.426)"/>
    <path id="Trazado_20765" data-name="Trazado 20765" d="M2025.038,1221.225v-21.182H2040.9v-31.718h29.421v31.718h18.471v21.182h-18.471v60.093q0,6.992,1.777,8.711t10.848,1.722q1.36,0,2.871-.051c1.009-.034,2-.088,2.975-.156v22.222l-14.088.523q-21.073.729-28.793-7.3-5.015-5.112-5.011-15.754v-70.006Z" transform="translate(-1617.734 -127.865)"/>
    <path id="Trazado_20766" data-name="Trazado 20766" d="M2079.7,1192.726h-30.151v-27.441H2079.7Zm-30.151,13.562H2079.7v113.724h-30.151Z" transform="translate(-1558.982 -135.153)"/>
    <path id="Trazado_20767" data-name="Trazado 20767" d="M2139.486,1220.063a26.371,26.371,0,0,0-4.288-11.48q-5.025-6.88-15.583-6.883-15.064,0-20.605,14.921-2.925,7.9-2.924,21.019,0,12.491,2.924,20.085,5.336,14.187,20.082,14.191,10.463,0,14.851-5.633t5.333-14.609h30.362a49.7,49.7,0,0,1-9.818,25.667q-13.994,19.512-41.462,19.51t-40.415-16.277q-12.949-16.281-12.951-42.208,0-29.256,14.306-45.535t39.478-16.277q21.409,0,35.041,9.6t16.134,33.909Z" transform="translate(-1521.95 -108.132)"/>
    <path id="Trazado_20768" data-name="Trazado 20768" d="M2152.367,1223.82q8.3-1.045,11.873-2.613,6.416-2.706,6.415-8.449,0-6.987-4.923-9.652t-14.435-2.66q-10.678,0-15.123,5.218a21.494,21.494,0,0,0-4.229,10.433h-28.691q.938-14.916,8.385-24.518,11.839-15.023,40.653-15.023,18.759,0,33.324,7.406t14.562,27.964v52.163q0,5.427.21,13.144.311,5.85,1.773,7.93a10.586,10.586,0,0,0,4.383,3.445v4.383H2174.2a32.716,32.716,0,0,1-1.879-6.469q-.524-3.027-.836-6.886a61.431,61.431,0,0,1-14.269,11.375,43.185,43.185,0,0,1-21.831,5.527q-15.533,0-25.657-8.816t-10.127-24.987q0-20.97,16.291-30.362,8.933-5.111,26.279-7.3Zm18.179,13.875a32.678,32.678,0,0,1-5.765,2.867,48.534,48.534,0,0,1-7.981,2.035l-6.771,1.25q-9.52,1.672-13.667,4.073-7.028,4.062-7.026,12.621,0,7.618,4.291,11.011a16.31,16.31,0,0,0,10.434,3.391,31.081,31.081,0,0,0,17.962-5.636q8.208-5.637,8.523-20.554Z" transform="translate(-1438.977 -108.132)"/>
    <path id="Trazado_20769" data-name="Trazado 20769" d="M2158.354,1128.861h4.471l10.613,29.244H2169.1l-3.05-8.758h-11.474l-3.173,8.758h-4.06Zm6.571,17.259-4.5-12.917-4.678,12.917Z" transform="translate(-1324.522 -222.474)"/>
    <path id="Trazado_20770" data-name="Trazado 20770" d="M2158.726,1128.861h12.642q5.172,0,7.352,3.068a7.035,7.035,0,0,1,1.284,4.179,6.575,6.575,0,0,1-1.573,4.539,7.617,7.617,0,0,1-2.347,1.712,9.958,9.958,0,0,1,3.363,1.93,7.006,7.006,0,0,1,1.971,5.276,8.14,8.14,0,0,1-1.779,5.117q-2.672,3.425-8.474,3.424h-12.437Zm11.163,12.363a9.04,9.04,0,0,0,3.941-.7,4.009,4.009,0,0,0,2.211-3.941,3.792,3.792,0,0,0-2.351-3.863,10.722,10.722,0,0,0-3.944-.558h-7.142v9.058Zm1.335,13.5q3.679,0,5.246-2.11a5.273,5.273,0,0,0,.985-3.228,4.291,4.291,0,0,0-2.871-4.338,11,11,0,0,0-4.043-.619h-7.937v10.294Z" transform="translate(-1297.235 -222.474)"/>
    <path id="Trazado_20771" data-name="Trazado 20771" d="M2191.7,1131.552a10.405,10.405,0,0,1,3.364,6.649H2191.2a7.354,7.354,0,0,0-7.975-6.128,8.581,8.581,0,0,0-6.852,3.037q-2.615,3.037-2.613,9.312a13.708,13.708,0,0,0,2.357,8.337,8.173,8.173,0,0,0,7.029,3.2,7.39,7.39,0,0,0,6.553-3.363,13,13,0,0,0,1.777-4.658h3.862a13.275,13.275,0,0,1-3.384,7.743,11.978,11.978,0,0,1-9.292,3.761,12.154,12.154,0,0,1-8.459-3.089q-4.5-4.081-4.5-12.607a16.249,16.249,0,0,1,3.382-10.617,12.289,12.289,0,0,1,10.095-4.5Q2188.671,1128.627,2191.7,1131.552Z" transform="translate(-1270.913 -223.035)"/>
    <path id="Trazado_20772" data-name="Trazado 20772" d="M2182.146,1128.861h11.687a10.963,10.963,0,0,1,9.234,4.281,15.937,15.937,0,0,1,2.925,9.893,19.948,19.948,0,0,1-1.729,8.422q-3.042,6.645-10.471,6.648h-11.645Zm10.908,25.861a10.5,10.5,0,0,0,3.234-.418,7.148,7.148,0,0,0,3.693-2.986,12.424,12.424,0,0,0,1.658-4.539,17.869,17.869,0,0,0,.292-3.068q0-5.433-2.114-8.439t-6.8-3.007h-6.873v22.457Z" transform="translate(-1241.09 -222.474)"/>
    <path id="Trazado_20773" data-name="Trazado 20773" d="M2194.2,1128.861h21.22v3.584h-17.357v8.877h16.042v3.384h-16.042v9.913h17.656v3.486H2194.2Z" transform="translate(-1212.183 -222.474)"/>
    <path id="Trazado_20774" data-name="Trazado 20774" d="M2205.542,1128.861h20.286v3.584H2209.5v8.877h14.354v3.486H2209.5v13.3h-3.962Z" transform="translate(-1185.001 -222.474)"/>
    <path id="Trazado_20775" data-name="Trazado 20775" d="M2236.359,1130.229q4.3,2.293,5.26,8.024H2237.7a7.134,7.134,0,0,0-2.908-4.668,9.819,9.819,0,0,0-5.551-1.464,8.621,8.621,0,0,0-6.7,3.048q-2.722,3.042-2.721,9.074a14.723,14.723,0,0,0,2.242,8.49q2.247,3.277,7.318,3.275a9.238,9.238,0,0,0,6.428-2.3q2.542-2.3,2.6-7.437h-9.16v-3.285H2242.1v15.648h-2.548l-.958-3.764a14.869,14.869,0,0,1-3.5,3.068,12.974,12.974,0,0,1-6.523,1.471,12.6,12.6,0,0,1-8.793-3.364q-4.014-4.219-4.012-11.585,0-7.349,3.924-11.687a12.39,12.39,0,0,1,9.652-4.138A14.639,14.639,0,0,1,2236.359,1130.229Z" transform="translate(-1160.503 -223.006)"/>
    <path id="Trazado_20776" data-name="Trazado 20776" d="M2228.792,1128.861h4v12.084h15.03v-12.084h4v29.244h-4v-13.678h-15.03v13.678h-4Z" transform="translate(-1129.263 -222.474)"/>
    <path id="Trazado_20777" data-name="Trazado 20777" d="M2241.026,1128.861h4v29.244h-4Z" transform="translate(-1099.934 -222.474)"/>
    <path id="Trazado_20778" data-name="Trazado 20778" d="M2164.147,1163.785a12.366,12.366,0,0,1-1.1,5.752q-2.032,3.74-7.731,3.744a8.974,8.974,0,0,1-5.62-1.784q-2.335-1.778-2.335-6.339v-2.09h3.724v2.09a5.275,5.275,0,0,0,1.066,3.594,4.228,4.228,0,0,0,3.324,1.2q3.169,0,4.152-2.171a14.131,14.131,0,0,0,.594-5.034v-19.488h3.924Z" transform="translate(-1324.475 -187.95)"/>
    <path id="Trazado_20779" data-name="Trazado 20779" d="M2157.407,1143.262h3.862v14.313l14.633-14.313h5.534l-12.492,11.8L2181.7,1172.5h-5.187l-10.474-14.694-4.767,4.5V1172.5h-3.862Z" transform="translate(-1300.398 -187.95)"/>
    <path id="Trazado_20780" data-name="Trazado 20780" d="M2168.745,1143.262h3.96v25.759h14.67v3.482h-18.631Z" transform="translate(-1273.217 -187.95)"/>
    <path id="Trazado_20781" data-name="Trazado 20781" d="M2178.284,1143.262h5.678l8.408,24.722,8.348-24.722h5.636V1172.5h-3.78v-17.259q0-.9.037-2.966t.041-4.44L2194.3,1172.5h-3.927l-8.429-24.665v.9q0,1.074.06,3.275c.041,1.468.058,2.545.058,3.234V1172.5h-3.782Z" transform="translate(-1250.348 -187.95)"/>
    <path id="Trazado_20782" data-name="Trazado 20782" d="M2191.644,1143.262h4.668l14.581,23.625v-23.625h3.782V1172.5h-4.452l-14.8-23.6v23.6h-3.781Z" transform="translate(-1218.319 -187.95)"/>
    <path id="Trazado_20783" data-name="Trazado 20783" d="M2203.644,1148.488h4.668l14.58,23.625v-23.625h3.783v29.241h-4.452l-14.8-23.6v23.6h-3.781Zm12.858-6.091a9.559,9.559,0,0,0,1.016.377,3.2,3.2,0,0,0,.934.139,1.788,1.788,0,0,0,1.593-.7,2.652,2.652,0,0,0,.357-1.135h2.089a5.49,5.49,0,0,1-1.6,3.482,4.045,4.045,0,0,1-2.6.958,5.15,5.15,0,0,1-1.116-.16,9.227,9.227,0,0,1-1.2-.36l-1.053-.377c-.625-.224-1.13-.394-1.521-.506a4.055,4.055,0,0,0-1.146-.17,1.532,1.532,0,0,0-1.146.459,2.545,2.545,0,0,0-.608,1.393h-1.95a7.336,7.336,0,0,1,.856-2.568,3.7,3.7,0,0,1,3.364-1.831,6.438,6.438,0,0,1,1.5.2A15,15,0,0,1,2216.5,1142.4Z" transform="translate(-1189.552 -193.176)"/>
    <path id="Trazado_20784" data-name="Trazado 20784" d="M2240.8,1148a16.122,16.122,0,0,1,2.909,9.934,17.371,17.371,0,0,1-3.325,10.888q-3.9,5.1-11.127,5.1-6.747,0-10.61-4.457a16.844,16.844,0,0,1-3.444-10.871,17.292,17.292,0,0,1,2.945-10.152q3.787-5.411,11.188-5.416Q2237.077,1143.027,2240.8,1148Zm-3.492,18.642a16.005,16.005,0,0,0,2.341-8.636,12.334,12.334,0,0,0-2.7-8.31,9.208,9.208,0,0,0-7.376-3.149,9.6,9.6,0,0,0-7.406,3.119q-2.864,3.119-2.867,9.193a13.434,13.434,0,0,0,2.459,8.2q2.458,3.338,7.974,3.336Q2234.965,1170.4,2237.3,1166.646Z" transform="translate(-1161.853 -188.513)"/>
    <path id="Trazado_20785" data-name="Trazado 20785" d="M2228.423,1143.262h13.082a8.892,8.892,0,0,1,6.268,2.2,7.991,7.991,0,0,1,2.386,6.183,8.984,8.984,0,0,1-2.13,5.959q-2.131,2.538-6.517,2.538h-9.128V1172.5h-3.961Zm15.362,4.019a8.5,8.5,0,0,0-3.574-.615h-7.828V1156.8h7.828a7.429,7.429,0,0,0,4.3-1.135c1.1-.758,1.652-2.089,1.652-4Q2246.161,1148.44,2243.786,1147.281Z" transform="translate(-1130.146 -187.95)"/>
    <path id="Trazado_20786" data-name="Trazado 20786" d="M2267.259,1172.989l-1.984,2.4-4.528-3.438a16.835,16.835,0,0,1-3.534,1.434,15.25,15.25,0,0,1-4.148.537q-6.808,0-10.667-4.457a17.07,17.07,0,0,1-3.405-10.871,17.287,17.287,0,0,1,2.947-10.152q3.786-5.411,11.187-5.416,7.746,0,11.467,4.977a16.1,16.1,0,0,1,2.907,9.931,21.015,21.015,0,0,1-.7,5.432,14.044,14.044,0,0,1-3.556,6.489Zm-11.384-2.762a4.882,4.882,0,0,0,1.875-.673l-3.23-2.5,1.991-2.453,3.815,2.979a11.1,11.1,0,0,0,2.467-4.645,20.192,20.192,0,0,0,.646-4.923,12.342,12.342,0,0,0-2.694-8.313,9.2,9.2,0,0,0-7.375-3.149,9.672,9.672,0,0,0-7.506,3.02q-2.767,3.016-2.768,9.292a12.54,12.54,0,0,0,2.66,8.408q2.666,3.129,7.808,3.129A14.541,14.541,0,0,0,2255.875,1170.226Z" transform="translate(-1104.807 -188.513)"/>
    <path id="Trazado_20787" data-name="Trazado 20787" d="M2148.214,1157.661H2161.5a13.065,13.065,0,0,1,5.415.975q4.046,1.87,4.045,6.907a7.184,7.184,0,0,1-4.121,6.988,5.988,5.988,0,0,1,2.579,1.832,6.579,6.579,0,0,1,.965,3.683l.139,3.92a12.139,12.139,0,0,0,.278,2.49,2.461,2.461,0,0,0,1.275,1.79v.66h-4.855a3.607,3.607,0,0,1-.319-.979,18.573,18.573,0,0,1-.2-2.307l-.238-4.878c-.088-1.909-.781-3.19-2.068-3.843a8.371,8.371,0,0,0-3.463-.537h-8.762v12.543h-3.961Zm12.866,13.4a7.306,7.306,0,0,0,4.288-1.114c1.05-.741,1.581-2.083,1.581-4.019q0-3.129-2.209-4.26a7.062,7.062,0,0,0-3.156-.6h-9.407v9.992Z" transform="translate(-1322.437 -153.43)"/>
    <path id="Trazado_20788" data-name="Trazado 20788" d="M2163.463,1177.988a8.241,8.241,0,0,0,1.132,4.043q1.9,2.9,6.692,2.905a11.441,11.441,0,0,0,3.911-.635q3.414-1.239,3.414-4.42a3.859,3.859,0,0,0-1.448-3.4,14.356,14.356,0,0,0-4.585-1.733l-3.839-.9a16.941,16.941,0,0,1-5.323-1.929,6.172,6.172,0,0,1-2.7-5.474,8.55,8.55,0,0,1,2.657-6.472q2.649-2.527,7.515-2.528a12.8,12.8,0,0,1,7.6,2.222q3.129,2.216,3.128,7.1H2177.9a7.59,7.59,0,0,0-1.22-3.6q-1.738-2.288-5.9-2.29-3.36,0-4.828,1.474a4.709,4.709,0,0,0-1.467,3.425,3.358,3.358,0,0,0,1.735,3.142,24.711,24.711,0,0,0,5.146,1.594l3.976.934a12.024,12.024,0,0,1,4.437,1.852,7.022,7.022,0,0,1,2.7,5.952q0,4.857-3.448,6.948a15.134,15.134,0,0,1-8,2.093q-5.32,0-8.334-2.79a9.535,9.535,0,0,1-2.949-7.5Z" transform="translate(-1294.809 -153.95)"/>
    <path id="Trazado_20789" data-name="Trazado 20789" d="M2194.189,1157.661v3.486h-9.853v25.759h-4v-25.759h-9.855v-3.486Z" transform="translate(-1269.061 -153.43)"/>
    <path id="Trazado_20790" data-name="Trazado 20790" d="M2185.737,1157.661v18.074a10.54,10.54,0,0,0,1.206,5.3q1.783,3.185,6.017,3.187,5.076,0,6.9-3.445a10.884,10.884,0,0,0,.982-5.038v-18.074h4v16.423q0,5.4-1.461,8.3-2.67,5.3-10.1,5.3t-10.087-5.3q-1.463-2.9-1.461-8.3v-16.423Z" transform="translate(-1242.074 -153.43)"/>
    <path id="Trazado_20791" data-name="Trazado 20791" d="M2197.426,1157.661l8.4,24.9,8.3-24.9h4.44l-10.671,29.245h-4.2l-10.65-29.245Z" transform="translate(-1214.955 -153.43)"/>
    <path id="Trazado_20792" data-name="Trazado 20792" d="M2208.6,1157.661l5.515,23.758,6.607-23.758H2225l6.621,23.8,5.515-23.8h4.341l-7.685,29.245h-4.158l-6.748-24.248-6.792,24.248h-4.158l-7.644-29.245Z" transform="translate(-1187.986 -153.43)"/>
    <path id="Trazado_20793" data-name="Trazado 20793" d="M2223.734,1186.906h-4.759l10.348-15-9.7-14.242h4.936l7.379,11.188,7.318-11.187h4.7l-9.7,14.242,10.171,15h-4.9l-7.791-12.027Z" transform="translate(-1152.797 -153.43)"/>
    <path id="Trazado_20794" data-name="Trazado 20794" d="M2230.114,1157.661h4.621l8.406,14.055,8.408-14.055h4.657l-11.075,17.459v11.785h-3.961V1175.12Z" transform="translate(-1126.094 -153.43)"/>
    <path id="Trazado_20795" data-name="Trazado 20795" d="M2241.267,1183.62l17.981-22.473h-16.67v-3.486h21.776v3.4l-18.087,22.355h18.087v3.486h-23.087Z" transform="translate(-1099.355 -153.43)"/>
    <path id="Trazado_20796" data-name="Trazado 20796" d="M2147.7,1186.631v-3.346h8.68v-8.738h3.4v8.738h8.681v3.346h-8.681v8.717h-3.4v-8.717Z" transform="translate(-1323.674 -112.951)"/>
    <path id="Trazado_20797" data-name="Trazado 20797" d="M2158,1176.784h9.991v3.683H2158Z" transform="translate(-1298.979 -107.585)"/>
    <path id="Trazado_20798" data-name="Trazado 20798" d="M2177.061,1175.092a6.919,6.919,0,1,1-4.916-2.042A6.7,6.7,0,0,1,2177.061,1175.092Zm-2,7.8a4.113,4.113,0,1,0-2.915,1.2A3.948,3.948,0,0,0,2175.06,1182.9Zm13.745-10.583h2.222l-15.943,29.146h-2.222Zm7.783,16.549a6.933,6.933,0,1,1-4.9-2.035A6.669,6.669,0,0,1,2196.588,1188.862Zm-2,7.8a4.1,4.1,0,1,0-2.9,1.21A3.945,3.945,0,0,0,2194.588,1196.665Z" transform="translate(-1281.672 -118.304)"/>
    <path id="Trazado_20799" data-name="Trazado 20799" d="M2181.986,1176.48a8.117,8.117,0,0,1,6.22-2.467v-2.65h1.893v2.609a9.4,9.4,0,0,1,6.081,2.331,7.549,7.549,0,0,1,2.218,5.433h-3.481a5.9,5.9,0,0,0-.816-2.609,4.585,4.585,0,0,0-4-2.11v9.7a23.526,23.526,0,0,1,6.271,2.429,6.307,6.307,0,0,1,2.688,5.534q0,5.3-3.445,7.522a12.828,12.828,0,0,1-5.514,1.635v3.863h-1.893v-3.863q-5.789-.377-7.861-4.1a11.07,11.07,0,0,1-1.135-5.436h3.523a9.7,9.7,0,0,0,.862,3.982q1.244,2.253,4.61,2.528v-10.848a12.787,12.787,0,0,1-6.38-2.728,6.863,6.863,0,0,1-2.059-5.293A7.894,7.894,0,0,1,2181.986,1176.48Zm2.677,8.3a7.666,7.666,0,0,0,3.543,1.556v-9.357a4.6,4.6,0,0,0-3.74,1.59,5.146,5.146,0,0,0-1.115,3.126A3.83,3.83,0,0,0,2184.663,1184.78Zm10.134,13.637a5.514,5.514,0,0,0,.676-2.766,4.343,4.343,0,0,0-1.832-3.784,11.657,11.657,0,0,0-3.543-1.43v10.471Q2193.5,1200.744,2194.8,1198.417Z" transform="translate(-1248.129 -120.579)"/>
    <path id="Trazado_20800" data-name="Trazado 20800" d="M2198.121,1172.062h3.027l-9.278,29.241h-3.024Z" transform="translate(-1225.027 -118.905)"/>
    <path id="Trazado_20801" data-name="Trazado 20801" d="M2205.581,1171.921a69.331,69.331,0,0,0-4.063,8.939,35.913,35.913,0,0,0,.2,20.622,63.5,63.5,0,0,0,3.921,8.48h-2.409q-2.906-4.536-3.6-5.793a26.65,26.65,0,0,1-1.515-3.4,28.1,28.1,0,0,1-1.553-6.288,26.379,26.379,0,0,1-.218-3.306,27.849,27.849,0,0,1,1.852-10.491,60.311,60.311,0,0,1,4.9-8.758Z" transform="translate(-1207.054 -119.244)"/>
    <path id="Trazado_20802" data-name="Trazado 20802" d="M2199.966,1209.962a70.558,70.558,0,0,0,4.08-9,36,36,0,0,0-.217-20.564,64.255,64.255,0,0,0-3.925-8.48h2.409q3.068,4.9,3.713,6.041a23.207,23.207,0,0,1,1.4,3.156,25.372,25.372,0,0,1,1.362,4.915,29.235,29.235,0,0,1-1.461,15.19,57.713,57.713,0,0,1-4.878,8.738Z" transform="translate(-1198.515 -119.244)"/>
    <path id="Trazado_20803" data-name="Trazado 20803" d="M2228.138,1175.853v3.343h-20.762v-3.343Zm0,8.537v3.4h-20.762v-3.4Z" transform="translate(-1180.604 -109.817)"/>
    <path id="Trazado_20804" data-name="Trazado 20804" d="M2219.786,1188.33a9.331,9.331,0,0,0,2.286-3.024,10.564,10.564,0,0,0,.445-3.475h3.543a12.343,12.343,0,0,1-.6,4.45,17.474,17.474,0,0,1-3.37,4.314l-1.579,1.648a6.45,6.45,0,0,0-1.428,2.011,4.915,4.915,0,0,0,.939,5.212,5.342,5.342,0,0,0,4.077,1.393,4.639,4.639,0,0,0,4.352-2.208,10.379,10.379,0,0,0,.931-4.2h3.444q.083,4.917-2.564,7.226a9.341,9.341,0,0,1-6.364,2.31,9.979,9.979,0,0,1-6.343-2.052,6.787,6.787,0,0,1-2.622-5.667,6.476,6.476,0,0,1,.948-3.527,20.309,20.309,0,0,1,2.955-3.479Zm2.433-13.967h3.961v4.162h-3.961Z" transform="translate(-1162.482 -113.387)"/>
    <path id="Trazado_20805" data-name="Trazado 20805" d="M2224.549,1174.569a8.8,8.8,0,0,1,6.75-2.619,8.922,8.922,0,0,1,6.356,2.239,7.5,7.5,0,0,1,2.389,5.724,6.121,6.121,0,0,1-.866,3.425,26.228,26.228,0,0,1-3.551,3.86,11.378,11.378,0,0,0-2.538,3.135,9.434,9.434,0,0,0-.59,3.8h-3.543a12.883,12.883,0,0,1,.679-4.59,12.126,12.126,0,0,1,3.01-3.991l1.624-1.573a6.834,6.834,0,0,0,1.186-1.413,4.9,4.9,0,0,0,.829-2.687,5.153,5.153,0,0,0-1.189-3.384,4.84,4.84,0,0,0-3.934-1.434q-3.394,0-4.7,2.47a9.311,9.311,0,0,0-.832,3.961h-3.543A9.679,9.679,0,0,1,2224.549,1174.569Zm4.328,22.861h3.961v4.141h-3.961Z" transform="translate(-1145.332 -119.174)"/>
    <path id="Trazado_20806" data-name="Trazado 20806" d="M2232.771,1197.528a14.256,14.256,0,0,1-3.6-9.614,15.306,15.306,0,0,1,4.379-11.031q4.856-5.055,13.039-5.055,7.089,0,11.147,3.584a11.2,11.2,0,0,1,3.8,8.779,11.619,11.619,0,0,1-2.714,7.753,7.89,7.89,0,0,1-6.085,3.214,3.931,3.931,0,0,1-2.9-.944,3.117,3.117,0,0,1-.934-2.28,3.041,3.041,0,0,1,.038-.458c.026-.16.06-.323.1-.5a6.955,6.955,0,0,1-2.67,3.234,6.458,6.458,0,0,1-3.322.944,4.986,4.986,0,0,1-3.972-1.77,6.745,6.745,0,0,1-1.522-4.559,10.424,10.424,0,0,1,2.6-6.989q2.6-3.022,5.585-3.023a4.871,4.871,0,0,1,3.354,1.172,3.913,3.913,0,0,1,1.4,2.83l1-3.347h2.927l-2.65,8.721q-.3,1.014-.438,1.631a5.113,5.113,0,0,0-.139,1.094,1.514,1.514,0,0,0,.551,1.3,2.021,2.021,0,0,0,1.243.407,5.109,5.109,0,0,0,4.07-2.368,9.947,9.947,0,0,0,1.8-6.19,8.864,8.864,0,0,0-3.224-7.257q-3.226-2.64-8.681-2.636-7.562,0-11.564,4.416a13.519,13.519,0,0,0-3.424,9.458,11.58,11.58,0,0,0,3.265,8.357q3.822,4.006,10.889,4a17.715,17.715,0,0,0,6.152-1.043,20.389,20.389,0,0,0,5.215-2.82l1.315,1.794a18.108,18.108,0,0,1-5.354,2.986,21.4,21.4,0,0,1-7.845,1.393Q2237.267,1202.723,2232.771,1197.528Zm15.943-15.658a2.811,2.811,0,0,0-2.276-.985q-2.262,0-3.927,2.677a10.081,10.081,0,0,0-1.661,5.327,4.544,4.544,0,0,0,.856,2.976,2.674,2.674,0,0,0,2.147,1.023q2.685,0,4.185-3.132a13.3,13.3,0,0,0,1.5-5.663A3.371,3.371,0,0,0,2248.715,1181.869Z" transform="translate(-1128.363 -119.469)"/>
    <path id="Trazado_20807" data-name="Trazado 20807" d="M2165.292,1205.637q1.911,3.521,1.91,9.655a23.236,23.236,0,0,1-1.733,9.615q-2.506,5.452-8.2,5.452a8.217,8.217,0,0,1-7.644-4.458q-2.09-3.725-2.089-9.995a24.7,24.7,0,0,1,1.254-8.341q2.349-6.487,8.5-6.489A8.426,8.426,0,0,1,2165.292,1205.637Zm-3.608,18.991q1.656-2.472,1.658-9.2a22.652,22.652,0,0,0-1.2-7.994,4.548,4.548,0,0,0-4.644-3.135,4.852,4.852,0,0,0-4.634,2.976q-1.474,2.977-1.468,8.769a21.594,21.594,0,0,0,.935,7.009q1.442,4.041,4.909,4.039A5.106,5.106,0,0,0,2161.684,1224.628Z" transform="translate(-1324.067 -49.344)"/>
    <path id="Trazado_20808" data-name="Trazado 20808" d="M2158.315,1209.314v-2.745a14.58,14.58,0,0,0,5.416-1.264q1.534-.887,2.29-4.192h2.827V1229.5h-3.822v-20.187Z" transform="translate(-1298.221 -49.26)"/>
    <path id="Trazado_20809" data-name="Trazado 20809" d="M2169.073,1223.244a12.346,12.346,0,0,1,5.167-4.957l3.822-2.208a17.932,17.932,0,0,0,3.6-2.551,5.58,5.58,0,0,0,.139-7.75,5.43,5.43,0,0,0-3.982-1.464q-3.679,0-5.1,2.793a10.1,10.1,0,0,0-.836,4.155h-3.642a12.8,12.8,0,0,1,1.373-6.071q2.329-4.142,8.222-4.141,4.9,0,7.159,2.647a8.874,8.874,0,0,1,2.259,5.895,8.016,8.016,0,0,1-2.409,5.85,23.65,23.65,0,0,1-5,3.424l-2.729,1.512a17.514,17.514,0,0,0-3.063,2.052,7.448,7.448,0,0,0-2.507,3.843h15.567v3.384H2167.55A16.6,16.6,0,0,1,2169.073,1223.244Z" transform="translate(-1276.082 -49.414)"/>
    <path id="Trazado_20810" data-name="Trazado 20810" d="M2179.75,1227.613a10.29,10.29,0,0,1-2.28-6.758h3.741a9.283,9.283,0,0,0,1.036,4.019q1.392,2.253,5.035,2.249a6.6,6.6,0,0,0,4.539-1.512,4.97,4.97,0,0,0,1.712-3.9q0-2.951-1.8-4.121a9.1,9.1,0,0,0-5.007-1.176c-.238,0-.479,0-.728.01s-.492.017-.744.031v-3.167c.371.041.683.068.934.082s.523.017.815.017a7.486,7.486,0,0,0,3.306-.635,4.052,4.052,0,0,0,2.27-3.981,3.889,3.889,0,0,0-1.512-3.286,5.66,5.66,0,0,0-3.523-1.155q-3.587,0-4.957,2.388a8.22,8.22,0,0,0-.856,3.744h-3.544a10.762,10.762,0,0,1,1.274-5.416q2.187-3.98,7.7-3.981a10.446,10.446,0,0,1,6.751,1.943,6.828,6.828,0,0,1,2.387,5.623,6.277,6.277,0,0,1-1.413,4.26,5.989,5.989,0,0,1-2.27,1.593,6.178,6.178,0,0,1,3.513,2.378,7.2,7.2,0,0,1,1.264,4.308,8.782,8.782,0,0,1-2.687,6.649q-2.685,2.568-7.624,2.568Q2182.03,1230.388,2179.75,1227.613Z" transform="translate(-1252.3 -49.373)"/>
    <path id="Trazado_20811" data-name="Trazado 20811" d="M2200,1229.64v-6.968h-12.5v-3.5l13.059-18.115h3.024v18.492h4.2v3.125h-4.2v6.968Zm-.061-10.094V1206.6l-9.136,12.947Z" transform="translate(-1228.267 -49.399)"/>
    <path id="Trazado_20812" data-name="Trazado 20812" d="M2201.309,1221.98a4.958,4.958,0,0,0,2.847,4.24,6.881,6.881,0,0,0,2.945.6,5.517,5.517,0,0,0,4.715-2.031,7.289,7.289,0,0,0,1.536-4.5,5.868,5.868,0,0,0-1.825-4.617,6.305,6.305,0,0,0-4.368-1.635,6.605,6.605,0,0,0-3.174.718,6.793,6.793,0,0,0-2.259,1.99l-3.106-.18,2.168-15.345H2215.6v3.462h-12.125l-1.214,7.922a9.067,9.067,0,0,1,1.893-1.134,9.58,9.58,0,0,1,3.683-.656,9.433,9.433,0,0,1,6.648,2.528,8.362,8.362,0,0,1,2.725,6.411,10.992,10.992,0,0,1-2.5,7.124q-2.5,3.088-7.973,3.089a10.167,10.167,0,0,1-6.16-1.961,7.77,7.77,0,0,1-3-6.024Z" transform="translate(-1204.077 -49.006)"/>
    <path id="Trazado_20813" data-name="Trazado 20813" d="M2224.708,1203.52a8.374,8.374,0,0,1,1.878,5.106h-3.54a6.6,6.6,0,0,0-1.016-2.646,4.524,4.524,0,0,0-3.924-1.79,5.43,5.43,0,0,0-4.777,2.776q-1.773,2.778-1.97,7.953a7.785,7.785,0,0,1,3.1-2.708,8.974,8.974,0,0,1,3.822-.795,9.282,9.282,0,0,1,6.251,2.29q2.665,2.288,2.667,6.825a10.36,10.36,0,0,1-2.528,6.879,8.9,8.9,0,0,1-7.206,3,9.237,9.237,0,0,1-6.907-3.038q-2.91-3.037-2.908-10.222a27.474,27.474,0,0,1,1.294-9.017q2.487-7.089,9.1-7.087Q2222.824,1201.043,2224.708,1203.52Zm-2.687,21.8a7.359,7.359,0,0,0,1.4-4.488,7.666,7.666,0,0,0-1.254-4.168q-1.252-1.983-4.559-1.981a5.932,5.932,0,0,0-4.049,1.532,5.824,5.824,0,0,0-1.743,4.617,6.733,6.733,0,0,0,1.582,4.549,5.482,5.482,0,0,0,4.39,1.841A4.915,4.915,0,0,0,2222.021,1225.317Z" transform="translate(-1179.931 -49.428)"/>
    <path id="Trazado_20814" data-name="Trazado 20814" d="M2237.481,1201.219v3.125a32.939,32.939,0,0,0-3.652,4.637,46.8,46.8,0,0,0-4.031,7.128,48.753,48.753,0,0,0-2.629,6.788q-.575,1.967-1.491,6.35h-3.96a48.7,48.7,0,0,1,5.968-16.243,51.652,51.652,0,0,1,5.735-8.184h-15.767v-3.6Z" transform="translate(-1155.966 -49.006)"/>
    <path id="Trazado_20815" data-name="Trazado 20815" d="M2230.177,1212.959a5.652,5.652,0,0,1-1.573-4.141,7.445,7.445,0,0,1,2.308-5.473,8.882,8.882,0,0,1,6.543-2.29,9.082,9.082,0,0,1,6.42,2.157,6.682,6.682,0,0,1,2.327,5.049,6.609,6.609,0,0,1-1.352,4.318,8.09,8.09,0,0,1-2.348,1.831,9.143,9.143,0,0,1,2.8,1.872,7.191,7.191,0,0,1,1.9,5.178,8.83,8.83,0,0,1-2.528,6.377,9.465,9.465,0,0,1-7.148,2.62,11.048,11.048,0,0,1-7.035-2.26,7.845,7.845,0,0,1-2.878-6.56,7.285,7.285,0,0,1,4.9-7.185A7.127,7.127,0,0,1,2230.177,1212.959Zm11.558,12.89a4.889,4.889,0,0,0,1.641-4.013,5.193,5.193,0,0,0-1.692-4.2,6.469,6.469,0,0,0-4.337-1.434,6.03,6.03,0,0,0-4.193,1.46,5.187,5.187,0,0,0-1.621,4.053,5.524,5.524,0,0,0,1.481,3.853,5.929,5.929,0,0,0,4.59,1.621A6.33,6.33,0,0,0,2241.735,1225.849Zm-.666-14.1a4.31,4.31,0,0,0,1.332-3.163,4.185,4.185,0,0,0-1.271-2.932,5.109,5.109,0,0,0-3.876-1.335,4.313,4.313,0,0,0-4.886,4.468,3.743,3.743,0,0,0,1.488,3.153,5.634,5.634,0,0,0,3.516,1.138A5,5,0,0,0,2241.069,1211.75Z" transform="translate(-1132.102 -49.399)"/>
    <path id="Trazado_20816" data-name="Trazado 20816" d="M2241.618,1222.707a4.53,4.53,0,0,0,2.291,4.1,5.073,5.073,0,0,0,2.47.595,5.545,5.545,0,0,0,4.378-2.14q1.81-2.135,2.569-8.687a6.65,6.65,0,0,1-2.959,2.656,9.408,9.408,0,0,1-3.792.768,8.505,8.505,0,0,1-6.52-2.565,9.3,9.3,0,0,1-2.4-6.6,10.57,10.57,0,0,1,2.368-6.818q2.369-2.945,6.987-2.945a8.587,8.587,0,0,1,8.6,5.612,19.71,19.71,0,0,1,1.316,7.716,25.363,25.363,0,0,1-1.573,9.271q-2.61,6.727-8.837,6.723-4.183,0-6.35-2.188a7.487,7.487,0,0,1-2.17-5.493Zm9.326-7.253q1.764-1.407,1.763-4.9a6.266,6.266,0,0,0-1.582-4.682,5.555,5.555,0,0,0-4.03-1.539,5.27,5.27,0,0,0-4.172,1.76,6.881,6.881,0,0,0-1.543,4.7,6.742,6.742,0,0,0,1.353,4.42,5.292,5.292,0,0,0,4.322,1.641A6.118,6.118,0,0,0,2250.944,1215.454Z" transform="translate(-1108.01 -49.373)"/>
    <path id="Trazado_24212" data-name="Trazado 24212" d="M0,0H2.612V284.706H0Z" transform="translate(797.382 899.063)"/>
  </g>
</svg>
