<svg xmlns="http://www.w3.org/2000/svg" width="265" height="265" viewBox="0 0 265 265">
  <g id="Grupo_14191" data-name="Grupo 14191" transform="translate(-15314 1932.653)">
    <circle id="Elipse_874" data-name="Elipse 874" cx="132.5" cy="132.5" r="132.5" transform="translate(15314 -1932.653)"/>
    <path id="Trazado_22828" data-name="Trazado 22828" d="M3691.811,5444.591a2.146,2.146,0,0,1-.891,1.844,4.188,4.188,0,0,1-2.5.648,5.438,5.438,0,0,1-2.656-.539v-1.2a6.44,6.44,0,0,0,1.324.492,5.522,5.522,0,0,0,1.363.18,3.1,3.1,0,0,0,1.563-.325,1.115,1.115,0,0,0,.113-1.843,6.789,6.789,0,0,0-1.691-.84,9.193,9.193,0,0,1-1.7-.777,2.329,2.329,0,0,1-.75-.754,1.972,1.972,0,0,1-.246-1.008,1.922,1.922,0,0,1,.852-1.653,3.971,3.971,0,0,1,2.336-.6,6.834,6.834,0,0,1,2.7.563l-.461,1.054a6.206,6.206,0,0,0-2.336-.531,2.7,2.7,0,0,0-1.391.289.893.893,0,0,0-.468.8.97.97,0,0,0,.175.586,1.749,1.749,0,0,0,.567.461,13.016,13.016,0,0,0,1.5.633,5.6,5.6,0,0,1,2.058,1.117A1.969,1.969,0,0,1,3691.811,5444.591Z" transform="translate(11654.865 -7239.473)" fill="#fff"/>
    <path id="Trazado_22829" data-name="Trazado 22829" d="M3697.537,5447.083a3.935,3.935,0,0,1-3-1.156,4.48,4.48,0,0,1-1.1-3.211,4.963,4.963,0,0,1,1.02-3.289,3.386,3.386,0,0,1,2.738-1.219,3.229,3.229,0,0,1,2.547,1.059,4.056,4.056,0,0,1,.938,2.793v.82h-5.9a3.392,3.392,0,0,0,.762,2.289,2.636,2.636,0,0,0,2.035.781,6.889,6.889,0,0,0,2.734-.578v1.156a6.76,6.76,0,0,1-1.3.426A7.326,7.326,0,0,1,3697.537,5447.083Zm-.351-7.789a2.119,2.119,0,0,0-1.645.672,3.1,3.1,0,0,0-.723,1.859h4.477a2.857,2.857,0,0,0-.547-1.879A1.928,1.928,0,0,0,3697.186,5439.294Z" transform="translate(11654.865 -7239.473)" fill="#fff"/>
    <path id="Trazado_22830" data-name="Trazado 22830" d="M3706.8,5438.208a5.034,5.034,0,0,1,1.023.094l-.18,1.2a4.415,4.415,0,0,0-.937-.117,2.283,2.283,0,0,0-1.777.843,3.075,3.075,0,0,0-.739,2.1v4.594h-1.3v-8.563h1.071l.148,1.586h.063a3.755,3.755,0,0,1,1.148-1.289A2.587,2.587,0,0,1,3706.8,5438.208Z" transform="translate(11654.865 -7239.473)" fill="#fff"/>
    <path id="Trazado_22831" data-name="Trazado 22831" d="M3711.3,5446.927l-3.25-8.563h1.39l1.844,5.078a23.867,23.867,0,0,1,.734,2.313h.063a17.649,17.649,0,0,1,.543-1.715q.457-1.3,2.051-5.676h1.39l-3.25,8.563Z" transform="translate(11654.865 -7239.473)" fill="#fff"/>
    <path id="Trazado_22832" data-name="Trazado 22832" d="M3717.334,5436.044a.858.858,0,0,1,.219-.652.81.81,0,0,1,1.086,0,.843.843,0,0,1,.226.648.856.856,0,0,1-.226.652.755.755,0,0,1-.539.215.745.745,0,0,1-.547-.215A.874.874,0,0,1,3717.334,5436.044Zm1.406,10.883h-1.3v-8.563h1.3Z" transform="translate(11654.865 -7239.473)" fill="#fff"/>
    <path id="Trazado_22833" data-name="Trazado 22833" d="M3724.912,5447.083a3.656,3.656,0,0,1-2.879-1.145,4.707,4.707,0,0,1-1.019-3.238,4.848,4.848,0,0,1,1.035-3.32,3.728,3.728,0,0,1,2.949-1.172,5.827,5.827,0,0,1,1.234.133,4.1,4.1,0,0,1,.969.312l-.4,1.1a6.066,6.066,0,0,0-.938-.285,4.21,4.21,0,0,0-.9-.114q-2.609,0-2.61,3.329a3.959,3.959,0,0,0,.637,2.421,2.216,2.216,0,0,0,1.887.844,5.751,5.751,0,0,0,2.195-.461v1.149A4.678,4.678,0,0,1,3724.912,5447.083Z" transform="translate(11654.865 -7239.473)" fill="#fff"/>
    <path id="Trazado_22834" data-name="Trazado 22834" d="M3729,5436.044a.858.858,0,0,1,.219-.652.81.81,0,0,1,1.086,0,.843.843,0,0,1,.226.648.856.856,0,0,1-.226.652.756.756,0,0,1-.539.215.745.745,0,0,1-.547-.215A.874.874,0,0,1,3729,5436.044Zm1.406,10.883h-1.3v-8.563h1.3Z" transform="translate(11654.865 -7239.473)" fill="#fff"/>
    <path id="Trazado_22835" data-name="Trazado 22835" d="M3740.545,5442.638a4.724,4.724,0,0,1-1.055,3.269,3.715,3.715,0,0,1-2.914,1.176,3.866,3.866,0,0,1-2.039-.539,3.554,3.554,0,0,1-1.375-1.547,5.388,5.388,0,0,1-.484-2.359,4.71,4.71,0,0,1,1.047-3.262,3.705,3.705,0,0,1,2.906-1.168,3.621,3.621,0,0,1,2.855,1.195A4.7,4.7,0,0,1,3740.545,5442.638Zm-6.524,0a4.065,4.065,0,0,0,.657,2.5,2.605,2.605,0,0,0,3.863,0,4.049,4.049,0,0,0,.66-2.5,3.981,3.981,0,0,0-.66-2.481,2.318,2.318,0,0,0-1.949-.847,2.282,2.282,0,0,0-1.922.836A4.017,4.017,0,0,0,3734.021,5442.638Z" transform="translate(11654.865 -7239.473)" fill="#fff"/>
    <path id="Trazado_22836" data-name="Trazado 22836" d="M3748.342,5444.591a2.146,2.146,0,0,1-.891,1.844,4.188,4.188,0,0,1-2.5.648,5.441,5.441,0,0,1-2.656-.539v-1.2a6.44,6.44,0,0,0,1.324.492,5.522,5.522,0,0,0,1.363.18,3.1,3.1,0,0,0,1.563-.325,1.115,1.115,0,0,0,.113-1.843,6.771,6.771,0,0,0-1.691-.84,9.177,9.177,0,0,1-1.7-.777,2.329,2.329,0,0,1-.75-.754,1.972,1.972,0,0,1-.247-1.008,1.924,1.924,0,0,1,.852-1.653,3.973,3.973,0,0,1,2.336-.6,6.834,6.834,0,0,1,2.7.563l-.461,1.054a6.206,6.206,0,0,0-2.336-.531,2.693,2.693,0,0,0-1.39.289.892.892,0,0,0-.469.8.964.964,0,0,0,.176.586,1.734,1.734,0,0,0,.566.461,13.016,13.016,0,0,0,1.5.633,5.61,5.61,0,0,1,2.059,1.117A1.972,1.972,0,0,1,3748.342,5444.591Z" transform="translate(11654.865 -7239.473)" fill="#fff"/>
    <path id="Trazado_22837" data-name="Trazado 22837" d="M3753.568,5450.771a3.129,3.129,0,0,1-1.2-.2v-1.054a3.817,3.817,0,0,0,1.063.156,1.118,1.118,0,0,0,.894-.332,1.522,1.522,0,0,0,.285-1.012v-9.969h1.3v9.875Q3755.9,5450.771,3753.568,5450.771Zm.93-14.727a.858.858,0,0,1,.219-.652.81.81,0,0,1,1.086,0,.843.843,0,0,1,.226.648.856.856,0,0,1-.226.652.756.756,0,0,1-.539.215.745.745,0,0,1-.547-.215A.874.874,0,0,1,3754.5,5436.044Z" transform="translate(11654.865 -7239.473)" fill="#fff"/>
    <path id="Trazado_22838" data-name="Trazado 22838" d="M3759.873,5438.364v5.555a2.229,2.229,0,0,0,.477,1.562,1.938,1.938,0,0,0,1.492.516,2.438,2.438,0,0,0,1.965-.734,3.707,3.707,0,0,0,.621-2.4v-4.5h1.3v8.563h-1.071l-.187-1.149h-.071a2.575,2.575,0,0,1-1.1.969,3.714,3.714,0,0,1-1.613.336,3.272,3.272,0,0,1-2.34-.742,3.156,3.156,0,0,1-.777-2.375v-5.6Z" transform="translate(11654.865 -7239.473)" fill="#fff"/>
    <path id="Trazado_22839" data-name="Trazado 22839" d="M3772.381,5438.208a5.029,5.029,0,0,1,1.023.094l-.179,1.2a4.423,4.423,0,0,0-.938-.117,2.283,2.283,0,0,0-1.777.843,3.08,3.08,0,0,0-.739,2.1v4.594h-1.3v-8.563h1.07l.148,1.586h.063a3.752,3.752,0,0,1,1.148-1.289A2.589,2.589,0,0,1,3772.381,5438.208Z" transform="translate(11654.865 -7239.473)" fill="#fff"/>
    <path id="Trazado_22840" data-name="Trazado 22840" d="M3774.951,5437.036q.375-.485.809-1.172a13.442,13.442,0,0,0,.683-1.195h1.578v.164a14.4,14.4,0,0,1-2.2,2.4h-.867Zm1.352,9.891h-1.3v-8.563h1.3Z" transform="translate(11654.865 -7239.473)" fill="#fff"/>
    <path id="Trazado_22841" data-name="Trazado 22841" d="M3784.881,5445.778h-.07a3.049,3.049,0,0,1-2.688,1.305,3.179,3.179,0,0,1-2.613-1.148,5.06,5.06,0,0,1-.934-3.266,5.141,5.141,0,0,1,.938-3.289,3.156,3.156,0,0,1,2.609-1.172,3.114,3.114,0,0,1,2.672,1.266h.1l-.054-.618-.031-.6v-3.484h1.3v12.156h-1.054Zm-2.594.219a2.361,2.361,0,0,0,1.926-.723,3.649,3.649,0,0,0,.6-2.332v-.273a4.3,4.3,0,0,0-.606-2.6,2.3,2.3,0,0,0-1.934-.777,1.986,1.986,0,0,0-1.746.887,4.411,4.411,0,0,0-.6,2.5,4.228,4.228,0,0,0,.6,2.476A2.037,2.037,0,0,0,3782.287,5446Z" transform="translate(11654.865 -7239.473)" fill="#fff"/>
    <path id="Trazado_22842" data-name="Trazado 22842" d="M3788.748,5436.044a.858.858,0,0,1,.219-.652.81.81,0,0,1,1.086,0,.843.843,0,0,1,.226.648.856.856,0,0,1-.226.652.756.756,0,0,1-.539.215.745.745,0,0,1-.547-.215A.874.874,0,0,1,3788.748,5436.044Zm1.406,10.883h-1.3v-8.563h1.3Z" transform="translate(11654.865 -7239.473)" fill="#fff"/>
    <path id="Trazado_22843" data-name="Trazado 22843" d="M3796.326,5447.083a3.655,3.655,0,0,1-2.879-1.145,4.707,4.707,0,0,1-1.019-3.238,4.849,4.849,0,0,1,1.035-3.32,3.729,3.729,0,0,1,2.949-1.172,5.827,5.827,0,0,1,1.234.133,4.1,4.1,0,0,1,.969.312l-.4,1.1a6.083,6.083,0,0,0-.938-.285,4.21,4.21,0,0,0-.9-.114q-2.609,0-2.61,3.329a3.957,3.957,0,0,0,.637,2.421,2.216,2.216,0,0,0,1.887.844,5.751,5.751,0,0,0,2.2-.461v1.149A4.678,4.678,0,0,1,3796.326,5447.083Z" transform="translate(11654.865 -7239.473)" fill="#fff"/>
    <path id="Trazado_22844" data-name="Trazado 22844" d="M3807.912,5442.638a4.72,4.72,0,0,1-1.055,3.269,3.714,3.714,0,0,1-2.914,1.176,3.866,3.866,0,0,1-2.039-.539,3.566,3.566,0,0,1-1.375-1.547,5.388,5.388,0,0,1-.484-2.359,4.715,4.715,0,0,1,1.047-3.262,3.705,3.705,0,0,1,2.906-1.168,3.625,3.625,0,0,1,2.856,1.195A4.7,4.7,0,0,1,3807.912,5442.638Zm-6.523,0a4.066,4.066,0,0,0,.656,2.5,2.605,2.605,0,0,0,3.863,0,4.041,4.041,0,0,0,.66-2.5,3.973,3.973,0,0,0-.66-2.481,2.318,2.318,0,0,0-1.949-.847,2.281,2.281,0,0,0-1.922.836A4.016,4.016,0,0,0,3801.389,5442.638Z" transform="translate(11654.865 -7239.473)" fill="#fff"/>
    <path id="Trazado_22845" data-name="Trazado 22845" d="M3815.709,5444.591a2.146,2.146,0,0,1-.891,1.844,4.184,4.184,0,0,1-2.5.648,5.443,5.443,0,0,1-2.656-.539v-1.2a6.45,6.45,0,0,0,1.324.492,5.522,5.522,0,0,0,1.364.18,3.094,3.094,0,0,0,1.562-.325,1.115,1.115,0,0,0,.113-1.843,6.762,6.762,0,0,0-1.691-.84,9.184,9.184,0,0,1-1.7-.777,2.334,2.334,0,0,1-.75-.754,1.972,1.972,0,0,1-.246-1.008,1.924,1.924,0,0,1,.851-1.653,3.976,3.976,0,0,1,2.336-.6,6.834,6.834,0,0,1,2.7.563l-.461,1.054a6.2,6.2,0,0,0-2.336-.531,2.693,2.693,0,0,0-1.39.289.892.892,0,0,0-.469.8.969.969,0,0,0,.176.586,1.73,1.73,0,0,0,.566.461,13.016,13.016,0,0,0,1.5.633,5.612,5.612,0,0,1,2.059,1.117A1.973,1.973,0,0,1,3815.709,5444.591Z" transform="translate(11654.865 -7239.473)" fill="#fff"/>
    <path id="Trazado_22846" data-name="Trazado 22846" d="M3819.178,5445.067l.117.18q-.2.781-.586,1.816t-.8,1.926h-.976q.21-.813.464-2.008t.356-1.914Z" transform="translate(11654.865 -7239.473)" fill="#fff"/>
    <path id="Trazado_22847" data-name="Trazado 22847" d="M3831.162,5446.927l-.258-1.219h-.062a3.611,3.611,0,0,1-1.278,1.09,3.891,3.891,0,0,1-1.589.285,2.86,2.86,0,0,1-2-.656,2.393,2.393,0,0,1-.723-1.867q0-2.595,4.148-2.719l1.453-.047v-.531a2.176,2.176,0,0,0-.433-1.489,1.785,1.785,0,0,0-1.387-.48,5.66,5.66,0,0,0-2.422.656l-.4-.992a6.083,6.083,0,0,1,1.387-.539,6.013,6.013,0,0,1,1.511-.195,3.265,3.265,0,0,1,2.27.679,2.839,2.839,0,0,1,.738,2.18v5.844Zm-2.93-.914a2.636,2.636,0,0,0,1.9-.664,2.459,2.459,0,0,0,.691-1.86v-.773l-1.3.055a4.709,4.709,0,0,0-2.23.48,1.45,1.45,0,0,0-.684,1.324,1.339,1.339,0,0,0,.426,1.071A1.765,1.765,0,0,0,3828.232,5446.013Z" transform="translate(11654.865 -7239.473)" fill="#fff"/>
    <path id="Trazado_22848" data-name="Trazado 22848" d="M3840.318,5444.591a2.148,2.148,0,0,1-.89,1.844,4.188,4.188,0,0,1-2.5.648,5.445,5.445,0,0,1-2.657-.539v-1.2a6.47,6.47,0,0,0,1.325.492,5.508,5.508,0,0,0,1.363.18,3.091,3.091,0,0,0,1.562-.325,1.116,1.116,0,0,0,.114-1.843,6.782,6.782,0,0,0-1.692-.84,9.189,9.189,0,0,1-1.7-.777,2.334,2.334,0,0,1-.75-.754,1.974,1.974,0,0,1-.246-1.008,1.922,1.922,0,0,1,.852-1.653,3.971,3.971,0,0,1,2.336-.6,6.837,6.837,0,0,1,2.7.563l-.461,1.054a6.21,6.21,0,0,0-2.336-.531,2.7,2.7,0,0,0-1.391.289.894.894,0,0,0-.469.8.971.971,0,0,0,.176.586,1.736,1.736,0,0,0,.567.461,12.86,12.86,0,0,0,1.5.633,5.6,5.6,0,0,1,2.058,1.117A1.969,1.969,0,0,1,3840.318,5444.591Z" transform="translate(11654.865 -7239.473)" fill="#fff"/>
    <path id="Trazado_22849" data-name="Trazado 22849" d="M3846.045,5447.083a3.935,3.935,0,0,1-3-1.156,4.474,4.474,0,0,1-1.1-3.211,4.963,4.963,0,0,1,1.02-3.289,3.383,3.383,0,0,1,2.738-1.219,3.229,3.229,0,0,1,2.547,1.059,4.056,4.056,0,0,1,.937,2.793v.82h-5.9a3.4,3.4,0,0,0,.762,2.289,2.637,2.637,0,0,0,2.035.781,6.888,6.888,0,0,0,2.734-.578v1.156a6.74,6.74,0,0,1-1.3.426A7.305,7.305,0,0,1,3846.045,5447.083Zm-.352-7.789a2.118,2.118,0,0,0-1.644.672,3.1,3.1,0,0,0-.723,1.859h4.477a2.857,2.857,0,0,0-.547-1.879A1.929,1.929,0,0,0,3845.693,5439.294Z" transform="translate(11654.865 -7239.473)" fill="#fff"/>
    <path id="Trazado_22850" data-name="Trazado 22850" d="M3856.928,5444.591a2.146,2.146,0,0,1-.891,1.844,4.188,4.188,0,0,1-2.5.648,5.44,5.44,0,0,1-2.656-.539v-1.2a6.429,6.429,0,0,0,1.324.492,5.52,5.52,0,0,0,1.363.18,3.1,3.1,0,0,0,1.563-.325,1.115,1.115,0,0,0,.113-1.843,6.762,6.762,0,0,0-1.691-.84,9.153,9.153,0,0,1-1.7-.777,2.334,2.334,0,0,1-.75-.754,1.962,1.962,0,0,1-.247-1.008,1.925,1.925,0,0,1,.852-1.653,3.973,3.973,0,0,1,2.336-.6,6.834,6.834,0,0,1,2.7.563l-.461,1.054a6.208,6.208,0,0,0-2.336-.531,2.693,2.693,0,0,0-1.39.289.892.892,0,0,0-.469.8.963.963,0,0,0,.176.586,1.73,1.73,0,0,0,.566.461,13.016,13.016,0,0,0,1.5.633,5.612,5.612,0,0,1,2.059,1.117A1.973,1.973,0,0,1,3856.928,5444.591Z" transform="translate(11654.865 -7239.473)" fill="#fff"/>
    <path id="Trazado_22851" data-name="Trazado 22851" d="M3866.428,5442.638a4.725,4.725,0,0,1-1.055,3.269,3.716,3.716,0,0,1-2.914,1.176,3.864,3.864,0,0,1-2.039-.539,3.554,3.554,0,0,1-1.375-1.547,5.388,5.388,0,0,1-.484-2.359,4.715,4.715,0,0,1,1.046-3.262,3.708,3.708,0,0,1,2.907-1.168,3.621,3.621,0,0,1,2.855,1.195A4.7,4.7,0,0,1,3866.428,5442.638Zm-6.524,0a4.065,4.065,0,0,0,.657,2.5,2.605,2.605,0,0,0,3.863,0,4.049,4.049,0,0,0,.66-2.5,3.981,3.981,0,0,0-.66-2.481,2.32,2.32,0,0,0-1.949-.847,2.28,2.28,0,0,0-1.922.836A4.017,4.017,0,0,0,3859.9,5442.638Z" transform="translate(11654.865 -7239.473)" fill="#fff"/>
    <path id="Trazado_22852" data-name="Trazado 22852" d="M3872.607,5438.208a5.047,5.047,0,0,1,1.024.094l-.18,1.2a4.415,4.415,0,0,0-.937-.117,2.284,2.284,0,0,0-1.778.843,3.078,3.078,0,0,0-.738,2.1v4.594h-1.3v-8.563h1.07l.149,1.586h.062a3.767,3.767,0,0,1,1.149-1.289A2.583,2.583,0,0,1,3872.607,5438.208Z" transform="translate(11654.865 -7239.473)" fill="#fff"/>
    <path id="Trazado_22853" data-name="Trazado 22853" d="M3875.178,5437.036q.375-.485.808-1.172a13.471,13.471,0,0,0,.684-1.195h1.578v.164a14.388,14.388,0,0,1-2.2,2.4h-.867Zm1.351,9.891h-1.3v-8.563h1.3Z" transform="translate(11654.865 -7239.473)" fill="#fff"/>
    <path id="Trazado_22854" data-name="Trazado 22854" d="M3884.545,5446.927l-.258-1.219h-.062a3.611,3.611,0,0,1-1.278,1.09,3.9,3.9,0,0,1-1.59.285,2.864,2.864,0,0,1-2-.656,2.4,2.4,0,0,1-.722-1.867q0-2.595,4.148-2.719l1.453-.047v-.531a2.175,2.175,0,0,0-.433-1.489,1.784,1.784,0,0,0-1.387-.48,5.656,5.656,0,0,0-2.422.656l-.4-.992a6.217,6.217,0,0,1,2.9-.734,3.267,3.267,0,0,1,2.27.679,2.839,2.839,0,0,1,.738,2.18v5.844Zm-2.93-.914a2.637,2.637,0,0,0,1.9-.664,2.459,2.459,0,0,0,.691-1.86v-.773l-1.3.055a4.711,4.711,0,0,0-2.23.48,1.45,1.45,0,0,0-.684,1.324,1.338,1.338,0,0,0,.426,1.071A1.763,1.763,0,0,0,3881.615,5446.013Z" transform="translate(11654.865 -7239.473)" fill="#fff"/>
    <path id="Trazado_22855" data-name="Trazado 22855" d="M3893.7,5444.591a2.147,2.147,0,0,1-.89,1.844,4.188,4.188,0,0,1-2.5.648,5.445,5.445,0,0,1-2.657-.539v-1.2a6.443,6.443,0,0,0,1.325.492,5.508,5.508,0,0,0,1.363.18,3.091,3.091,0,0,0,1.562-.325,1.116,1.116,0,0,0,.114-1.843,6.78,6.78,0,0,0-1.692-.84,9.184,9.184,0,0,1-1.7-.777,2.334,2.334,0,0,1-.75-.754,1.972,1.972,0,0,1-.246-1.008,1.924,1.924,0,0,1,.851-1.653,3.977,3.977,0,0,1,2.336-.6,6.83,6.83,0,0,1,2.7.563l-.46,1.054a6.211,6.211,0,0,0-2.336-.531,2.7,2.7,0,0,0-1.391.289.892.892,0,0,0-.469.8.971.971,0,0,0,.176.586,1.74,1.74,0,0,0,.566.461,13.016,13.016,0,0,0,1.5.633,5.6,5.6,0,0,1,2.059,1.117A1.973,1.973,0,0,1,3893.7,5444.591Z" transform="translate(11654.865 -7239.473)" fill="#fff"/>
    <path id="Trazado_22856" data-name="Trazado 22856" d="M3897.17,5445.067l.117.18q-.2.781-.586,1.816t-.8,1.926h-.976q.21-.813.465-2.008t.355-1.914Z" transform="translate(11654.865 -7239.473)" fill="#fff"/>
    <path id="Trazado_22857" data-name="Trazado 22857" d="M3693.271,5466.283a3.656,3.656,0,0,1-2.878-1.144,4.707,4.707,0,0,1-1.02-3.239,4.852,4.852,0,0,1,1.035-3.32,3.728,3.728,0,0,1,2.949-1.172,5.831,5.831,0,0,1,1.235.133,4.042,4.042,0,0,1,.969.313l-.4,1.1a6.1,6.1,0,0,0-.937-.285,4.241,4.241,0,0,0-.9-.113q-2.609,0-2.609,3.328a3.961,3.961,0,0,0,.637,2.422,2.214,2.214,0,0,0,1.886.843,5.755,5.755,0,0,0,2.2-.461v1.149A4.682,4.682,0,0,1,3693.271,5466.283Z" transform="translate(11654.865 -7239.473)" fill="#fff"/>
    <path id="Trazado_22858" data-name="Trazado 22858" d="M3704.857,5461.838a4.723,4.723,0,0,1-1.054,3.269,3.711,3.711,0,0,1-2.914,1.176,3.852,3.852,0,0,1-2.039-.539,3.555,3.555,0,0,1-1.375-1.547,5.371,5.371,0,0,1-.485-2.359,4.714,4.714,0,0,1,1.047-3.262,3.7,3.7,0,0,1,2.906-1.168,3.623,3.623,0,0,1,2.856,1.2A4.7,4.7,0,0,1,3704.857,5461.838Zm-6.523,0a4.066,4.066,0,0,0,.656,2.5,2.606,2.606,0,0,0,3.864,0,4.045,4.045,0,0,0,.66-2.5,3.982,3.982,0,0,0-.66-2.481,2.322,2.322,0,0,0-1.95-.847,2.283,2.283,0,0,0-1.922.836A4.021,4.021,0,0,0,3698.334,5461.838Z" transform="translate(11654.865 -7239.473)" fill="#fff"/>
    <path id="Trazado_22859" data-name="Trazado 22859" d="M3718.045,5466.127v-5.57a2.311,2.311,0,0,0-.438-1.536,1.7,1.7,0,0,0-1.359-.511,2.193,2.193,0,0,0-1.789.7,3.3,3.3,0,0,0-.578,2.141v4.781h-1.3v-5.57a2.311,2.311,0,0,0-.438-1.536,1.706,1.706,0,0,0-1.367-.511,2.118,2.118,0,0,0-1.785.73,3.952,3.952,0,0,0-.566,2.395v4.492h-1.3v-8.563h1.055l.21,1.172h.063a2.55,2.55,0,0,1,1.035-.976,3.156,3.156,0,0,1,1.5-.352,2.544,2.544,0,0,1,2.625,1.453h.063a2.736,2.736,0,0,1,1.109-1.062,3.435,3.435,0,0,1,1.656-.391,2.9,2.9,0,0,1,2.176.746,3.336,3.336,0,0,1,.723,2.387v5.586Z" transform="translate(11654.865 -7239.473)" fill="#fff"/>
    <path id="Trazado_22860" data-name="Trazado 22860" d="M3729.4,5461.838a4.724,4.724,0,0,1-1.054,3.269,3.713,3.713,0,0,1-2.914,1.176,3.858,3.858,0,0,1-2.04-.539,3.567,3.567,0,0,1-1.375-1.547,5.388,5.388,0,0,1-.484-2.359,4.714,4.714,0,0,1,1.047-3.262,3.7,3.7,0,0,1,2.906-1.168,3.624,3.624,0,0,1,2.856,1.2A4.7,4.7,0,0,1,3729.4,5461.838Zm-6.523,0a4.066,4.066,0,0,0,.656,2.5,2.605,2.605,0,0,0,3.863,0,4.037,4.037,0,0,0,.661-2.5,3.974,3.974,0,0,0-.661-2.481,2.318,2.318,0,0,0-1.949-.847,2.283,2.283,0,0,0-1.922.836A4.02,4.02,0,0,0,3722.881,5461.838Z" transform="translate(11654.865 -7239.473)" fill="#fff"/>
    <path id="Trazado_22861" data-name="Trazado 22861" d="M3739.256,5466.283a3.66,3.66,0,0,1-2.879-1.144,4.708,4.708,0,0,1-1.02-3.239,4.846,4.846,0,0,1,1.036-3.32,3.725,3.725,0,0,1,2.949-1.172,5.827,5.827,0,0,1,1.234.133,4.02,4.02,0,0,1,.969.313l-.4,1.1a6.053,6.053,0,0,0-.937-.285,4.236,4.236,0,0,0-.9-.113q-2.61,0-2.61,3.328a3.963,3.963,0,0,0,.637,2.422,2.218,2.218,0,0,0,1.887.843,5.753,5.753,0,0,0,2.195-.461v1.149A4.678,4.678,0,0,1,3739.256,5466.283Z" transform="translate(11654.865 -7239.473)" fill="#fff"/>
    <path id="Trazado_22862" data-name="Trazado 22862" d="M3750.842,5461.838a4.725,4.725,0,0,1-1.055,3.269,3.711,3.711,0,0,1-2.914,1.176,3.854,3.854,0,0,1-2.039-.539,3.555,3.555,0,0,1-1.375-1.547,5.388,5.388,0,0,1-.484-2.359,4.714,4.714,0,0,1,1.046-3.262,3.706,3.706,0,0,1,2.907-1.168,3.622,3.622,0,0,1,2.855,1.2A4.7,4.7,0,0,1,3750.842,5461.838Zm-6.524,0a4.06,4.06,0,0,0,.657,2.5,2.6,2.6,0,0,0,3.863,0,4.044,4.044,0,0,0,.66-2.5,3.98,3.98,0,0,0-.66-2.481,2.321,2.321,0,0,0-1.949-.847,2.28,2.28,0,0,0-1.922.836A4.013,4.013,0,0,0,3744.318,5461.838Z" transform="translate(11654.865 -7239.473)" fill="#fff"/>
    <path id="Trazado_22863" data-name="Trazado 22863" d="M3764.029,5466.127v-5.57a2.311,2.311,0,0,0-.437-1.536,1.7,1.7,0,0,0-1.36-.511,2.194,2.194,0,0,0-1.789.7,3.307,3.307,0,0,0-.578,2.141v4.781h-1.3v-5.57a2.311,2.311,0,0,0-.437-1.536,1.707,1.707,0,0,0-1.367-.511,2.115,2.115,0,0,0-1.785.73,3.951,3.951,0,0,0-.567,2.395v4.492h-1.3v-8.563h1.055l.211,1.172h.062a2.543,2.543,0,0,1,1.036-.976,3.156,3.156,0,0,1,1.5-.352,2.546,2.546,0,0,1,2.625,1.453h.062a2.735,2.735,0,0,1,1.109-1.062,3.443,3.443,0,0,1,1.657-.391,2.9,2.9,0,0,1,2.176.746,3.342,3.342,0,0,1,.722,2.387v5.586Z" transform="translate(11654.865 -7239.473)" fill="#fff"/>
    <path id="Trazado_22864" data-name="Trazado 22864" d="M3771.982,5466.283a3.7,3.7,0,0,1-1.527-.308,2.871,2.871,0,0,1-1.16-.95h-.094a11.4,11.4,0,0,1,.094,1.422v3.524H3768v-12.407h1.055l.179,1.172h.063a3.018,3.018,0,0,1,1.164-1.015,3.538,3.538,0,0,1,1.523-.313,3.165,3.165,0,0,1,2.629,1.164,6.2,6.2,0,0,1-.015,6.543A3.171,3.171,0,0,1,3771.982,5466.283Zm-.187-7.773a2.3,2.3,0,0,0-1.9.726,3.75,3.75,0,0,0-.6,2.313v.289a4.288,4.288,0,0,0,.6,2.582,2.289,2.289,0,0,0,1.93.777,2.007,2.007,0,0,0,1.738-.9,4.263,4.263,0,0,0,.629-2.477,4.1,4.1,0,0,0-.629-2.457A2.065,2.065,0,0,0,3771.795,5458.51Z" transform="translate(11654.865 -7239.473)" fill="#fff"/>
    <path id="Trazado_22865" data-name="Trazado 22865" d="M3779.1,5466.127h-1.3v-12.156h1.3Z" transform="translate(11654.865 -7239.473)" fill="#fff"/>
    <path id="Trazado_22866" data-name="Trazado 22866" d="M3785.467,5466.283a3.935,3.935,0,0,1-3-1.156,4.475,4.475,0,0,1-1.1-3.211,4.961,4.961,0,0,1,1.02-3.289,3.383,3.383,0,0,1,2.738-1.219,3.23,3.23,0,0,1,2.547,1.059,4.058,4.058,0,0,1,.937,2.793v.82h-5.9a3.392,3.392,0,0,0,.762,2.289,2.632,2.632,0,0,0,2.035.781,6.881,6.881,0,0,0,2.734-.578v1.157a6.86,6.86,0,0,1-1.3.425A7.269,7.269,0,0,1,3785.467,5466.283Zm-.352-7.789a2.116,2.116,0,0,0-1.644.672,3.094,3.094,0,0,0-.723,1.859h4.477a2.856,2.856,0,0,0-.547-1.879A1.929,1.929,0,0,0,3785.115,5458.494Z" transform="translate(11654.865 -7239.473)" fill="#fff"/>
    <path id="Trazado_22867" data-name="Trazado 22867" d="M3801.74,5466.127v-5.57a2.311,2.311,0,0,0-.437-1.536,1.7,1.7,0,0,0-1.36-.511,2.195,2.195,0,0,0-1.789.7,3.307,3.307,0,0,0-.578,2.141v4.781h-1.3v-5.57a2.311,2.311,0,0,0-.437-1.536,1.706,1.706,0,0,0-1.367-.511,2.118,2.118,0,0,0-1.786.73,3.959,3.959,0,0,0-.566,2.395v4.492h-1.3v-8.563h1.055l.211,1.172h.062a2.547,2.547,0,0,1,1.035-.976,3.163,3.163,0,0,1,1.5-.352,2.546,2.546,0,0,1,2.625,1.453h.062a2.735,2.735,0,0,1,1.109-1.062,3.443,3.443,0,0,1,1.657-.391,2.9,2.9,0,0,1,2.175.746,3.337,3.337,0,0,1,.723,2.387v5.586Z" transform="translate(11654.865 -7239.473)" fill="#fff"/>
    <path id="Trazado_22868" data-name="Trazado 22868" d="M3809.326,5466.283a3.938,3.938,0,0,1-3-1.156,4.48,4.48,0,0,1-1.1-3.211,4.963,4.963,0,0,1,1.02-3.289,3.386,3.386,0,0,1,2.738-1.219,3.23,3.23,0,0,1,2.547,1.059,4.059,4.059,0,0,1,.938,2.793v.82h-5.9a3.4,3.4,0,0,0,.762,2.289,2.633,2.633,0,0,0,2.035.781,6.88,6.88,0,0,0,2.734-.578v1.157a6.847,6.847,0,0,1-1.3.425A7.284,7.284,0,0,1,3809.326,5466.283Zm-.351-7.789a2.117,2.117,0,0,0-1.645.672,3.1,3.1,0,0,0-.723,1.859h4.477a2.858,2.858,0,0,0-.547-1.879A1.927,1.927,0,0,0,3808.975,5458.494Z" transform="translate(11654.865 -7239.473)" fill="#fff"/>
    <path id="Trazado_22869" data-name="Trazado 22869" d="M3820.545,5466.127v-5.539a2.236,2.236,0,0,0-.477-1.563,1.944,1.944,0,0,0-1.492-.515,2.465,2.465,0,0,0-1.969.726,3.671,3.671,0,0,0-.625,2.4v4.492h-1.3v-8.563h1.054l.211,1.172h.063a2.632,2.632,0,0,1,1.117-.98,3.626,3.626,0,0,1,1.6-.348,3.258,3.258,0,0,1,2.329.746,3.179,3.179,0,0,1,.781,2.387v5.586Z" transform="translate(11654.865 -7239.473)" fill="#fff"/>
    <path id="Trazado_22870" data-name="Trazado 22870" d="M3827.271,5465.213a4.266,4.266,0,0,0,.665-.051,4.575,4.575,0,0,0,.507-.1v.992a2.36,2.36,0,0,1-.621.168,4.635,4.635,0,0,1-.738.066q-2.484,0-2.484-2.617v-5.094h-1.227v-.625l1.227-.539.546-1.828h.75v1.984h2.485v1.008H3825.9v5.039a1.735,1.735,0,0,0,.368,1.188A1.277,1.277,0,0,0,3827.271,5465.213Z" transform="translate(11654.865 -7239.473)" fill="#fff"/>
    <path id="Trazado_22871" data-name="Trazado 22871" d="M3837.545,5461.838a4.723,4.723,0,0,1-1.055,3.269,3.711,3.711,0,0,1-2.914,1.176,3.857,3.857,0,0,1-2.039-.539,3.555,3.555,0,0,1-1.375-1.547,5.388,5.388,0,0,1-.484-2.359,4.708,4.708,0,0,1,1.047-3.262,3.7,3.7,0,0,1,2.906-1.168,3.622,3.622,0,0,1,2.855,1.2A4.7,4.7,0,0,1,3837.545,5461.838Zm-6.524,0a4.06,4.06,0,0,0,.657,2.5,2.605,2.605,0,0,0,3.863,0,4.045,4.045,0,0,0,.66-2.5,3.982,3.982,0,0,0-.66-2.481,2.32,2.32,0,0,0-1.949-.847,2.282,2.282,0,0,0-1.922.836A4.015,4.015,0,0,0,3831.021,5461.838Z" transform="translate(11654.865 -7239.473)" fill="#fff"/>
    <path id="Trazado_22872" data-name="Trazado 22872" d="M3849.24,5466.127l-.258-1.219h-.062a3.614,3.614,0,0,1-1.277,1.09,3.9,3.9,0,0,1-1.59.285,2.861,2.861,0,0,1-2-.656,2.394,2.394,0,0,1-.723-1.867q0-2.595,4.148-2.719l1.454-.047v-.531a2.169,2.169,0,0,0-.434-1.488,1.78,1.78,0,0,0-1.387-.481,5.657,5.657,0,0,0-2.422.656l-.4-.992a6.087,6.087,0,0,1,1.387-.539,6,6,0,0,1,1.511-.2,3.257,3.257,0,0,1,2.27.68,2.836,2.836,0,0,1,.738,2.179v5.844Zm-2.929-.914a2.633,2.633,0,0,0,1.9-.664,2.457,2.457,0,0,0,.691-1.86v-.773l-1.3.055a4.7,4.7,0,0,0-2.23.48,1.448,1.448,0,0,0-.684,1.324,1.338,1.338,0,0,0,.426,1.071A1.77,1.77,0,0,0,3846.311,5465.213Z" transform="translate(11654.865 -7239.473)" fill="#fff"/>
    <path id="Trazado_22873" data-name="Trazado 22873" d="M3864.42,5461.838a4.723,4.723,0,0,1-1.055,3.269,3.711,3.711,0,0,1-2.914,1.176,3.857,3.857,0,0,1-2.039-.539,3.555,3.555,0,0,1-1.375-1.547,5.388,5.388,0,0,1-.484-2.359,4.708,4.708,0,0,1,1.047-3.262,3.7,3.7,0,0,1,2.906-1.168,3.622,3.622,0,0,1,2.855,1.2A4.7,4.7,0,0,1,3864.42,5461.838Zm-6.524,0a4.06,4.06,0,0,0,.657,2.5,2.605,2.605,0,0,0,3.863,0,4.045,4.045,0,0,0,.66-2.5,3.982,3.982,0,0,0-.66-2.481,2.32,2.32,0,0,0-1.949-.847,2.282,2.282,0,0,0-1.922.836A4.015,4.015,0,0,0,3857.9,5461.838Z" transform="translate(11654.865 -7239.473)" fill="#fff"/>
    <path id="Trazado_22874" data-name="Trazado 22874" d="M3869.459,5465.213a4.263,4.263,0,0,0,.664-.051,4.551,4.551,0,0,0,.508-.1v.992a2.382,2.382,0,0,1-.621.168,4.656,4.656,0,0,1-.739.066q-2.484,0-2.484-2.617v-5.094h-1.226v-.625l1.226-.539.547-1.828h.75v1.984h2.484v1.008h-2.484v5.039a1.735,1.735,0,0,0,.367,1.188A1.278,1.278,0,0,0,3869.459,5465.213Z" transform="translate(11654.865 -7239.473)" fill="#fff"/>
    <path id="Trazado_22875" data-name="Trazado 22875" d="M3876.248,5457.408a5.029,5.029,0,0,1,1.023.094l-.179,1.2a4.427,4.427,0,0,0-.938-.117,2.281,2.281,0,0,0-1.777.844,3.074,3.074,0,0,0-.738,2.1v4.594h-1.3v-8.563h1.07l.149,1.586h.062a3.757,3.757,0,0,1,1.148-1.289A2.6,2.6,0,0,1,3876.248,5457.408Z" transform="translate(11654.865 -7239.473)" fill="#fff"/>
    <path id="Trazado_22876" data-name="Trazado 22876" d="M3886.264,5461.838a4.723,4.723,0,0,1-1.055,3.269,3.711,3.711,0,0,1-2.914,1.176,3.854,3.854,0,0,1-2.039-.539,3.555,3.555,0,0,1-1.375-1.547,5.388,5.388,0,0,1-.485-2.359,4.714,4.714,0,0,1,1.047-3.262,3.706,3.706,0,0,1,2.907-1.168,3.622,3.622,0,0,1,2.855,1.2A4.7,4.7,0,0,1,3886.264,5461.838Zm-6.524,0a4.066,4.066,0,0,0,.656,2.5,2.606,2.606,0,0,0,3.864,0,4.045,4.045,0,0,0,.66-2.5,3.982,3.982,0,0,0-.66-2.481,2.321,2.321,0,0,0-1.949-.847,2.281,2.281,0,0,0-1.922.836A4.015,4.015,0,0,0,3879.74,5461.838Z" transform="translate(11654.865 -7239.473)" fill="#fff"/>
    <path id="Trazado_22877" data-name="Trazado 22877" d="M3894.061,5463.791a2.145,2.145,0,0,1-.891,1.844,4.188,4.188,0,0,1-2.5.648,5.427,5.427,0,0,1-2.656-.539v-1.2a6.44,6.44,0,0,0,1.324.492,5.544,5.544,0,0,0,1.363.18,3.109,3.109,0,0,0,1.563-.324,1.116,1.116,0,0,0,.113-1.844,6.827,6.827,0,0,0-1.691-.84,9.226,9.226,0,0,1-1.7-.777,2.325,2.325,0,0,1-.75-.754,1.964,1.964,0,0,1-.246-1.008,1.918,1.918,0,0,1,.852-1.652,3.961,3.961,0,0,1,2.336-.606,6.834,6.834,0,0,1,2.7.563l-.461,1.054a6.2,6.2,0,0,0-2.336-.531,2.694,2.694,0,0,0-1.391.289.894.894,0,0,0-.468.8.969.969,0,0,0,.175.586,1.749,1.749,0,0,0,.567.461,13.04,13.04,0,0,0,1.5.633,5.6,5.6,0,0,1,2.058,1.117A1.97,1.97,0,0,1,3894.061,5463.791Z" transform="translate(11654.865 -7239.473)" fill="#fff"/>
    <path id="Trazado_22878" data-name="Trazado 22878" d="M3764.322,5482.99a2.147,2.147,0,0,1-.89,1.844,4.181,4.181,0,0,1-2.5.648,5.428,5.428,0,0,1-2.657-.539v-1.2a6.466,6.466,0,0,0,1.325.492,5.461,5.461,0,0,0,1.363.18,3.087,3.087,0,0,0,1.562-.324,1.116,1.116,0,0,0,.114-1.844,6.847,6.847,0,0,0-1.692-.84,9.112,9.112,0,0,1-1.7-.777,2.334,2.334,0,0,1-.75-.754,1.966,1.966,0,0,1-.246-1.008,1.92,1.92,0,0,1,.852-1.652,3.97,3.97,0,0,1,2.335-.606,6.839,6.839,0,0,1,2.7.563l-.461,1.055a6.194,6.194,0,0,0-2.336-.532,2.7,2.7,0,0,0-1.391.289.9.9,0,0,0-.469.8.97.97,0,0,0,.176.586,1.729,1.729,0,0,0,.567.461,12.54,12.54,0,0,0,1.5.633,5.607,5.607,0,0,1,2.058,1.117A1.97,1.97,0,0,1,3764.322,5482.99Z" transform="translate(11654.865 -7239.473)" fill="#fff"/>
    <path id="Trazado_22879" data-name="Trazado 22879" d="M3770.049,5485.482a3.931,3.931,0,0,1-3-1.156,4.474,4.474,0,0,1-1.1-3.211,4.962,4.962,0,0,1,1.02-3.289,3.386,3.386,0,0,1,2.738-1.219,3.229,3.229,0,0,1,2.547,1.059,4.058,4.058,0,0,1,.937,2.793v.82h-5.9a3.391,3.391,0,0,0,.762,2.289,2.633,2.633,0,0,0,2.035.782,6.882,6.882,0,0,0,2.734-.579v1.157a6.867,6.867,0,0,1-1.3.426A7.385,7.385,0,0,1,3770.049,5485.482Zm-.352-7.789a2.117,2.117,0,0,0-1.644.672,3.1,3.1,0,0,0-.723,1.86h4.477a2.852,2.852,0,0,0-.547-1.879A1.925,1.925,0,0,0,3769.7,5477.693Z" transform="translate(11654.865 -7239.473)" fill="#fff"/>
    <path id="Trazado_22880" data-name="Trazado 22880" d="M3779.314,5476.607a5.113,5.113,0,0,1,1.024.094l-.18,1.2a4.447,4.447,0,0,0-.937-.117,2.282,2.282,0,0,0-1.778.844,3.075,3.075,0,0,0-.738,2.1v4.594h-1.3v-8.562h1.071l.148,1.586h.062a3.749,3.749,0,0,1,1.149-1.289A2.585,2.585,0,0,1,3779.314,5476.607Z" transform="translate(11654.865 -7239.473)" fill="#fff"/>
    <path id="Trazado_22881" data-name="Trazado 22881" d="M3783.814,5485.326l-3.25-8.562h1.391l1.844,5.078a23.881,23.881,0,0,1,.734,2.312h.063a17.449,17.449,0,0,1,.543-1.715q.456-1.3,2.05-5.675h1.391l-3.25,8.562Z" transform="translate(11654.865 -7239.473)" fill="#fff"/>
    <path id="Trazado_22882" data-name="Trazado 22882" d="M3789.846,5474.443a.863.863,0,0,1,.218-.652.81.81,0,0,1,1.086,0,.841.841,0,0,1,.227.648.858.858,0,0,1-.227.653.794.794,0,0,1-1.086,0A.884.884,0,0,1,3789.846,5474.443Zm1.406,10.883h-1.3v-8.562h1.3Z" transform="translate(11654.865 -7239.473)" fill="#fff"/>
    <path id="Trazado_22883" data-name="Trazado 22883" d="M3797.424,5485.482a3.656,3.656,0,0,1-2.879-1.144,4.705,4.705,0,0,1-1.02-3.238,4.852,4.852,0,0,1,1.036-3.321,3.726,3.726,0,0,1,2.949-1.172,5.8,5.8,0,0,1,1.234.133,4.064,4.064,0,0,1,.969.313l-.4,1.1a6.053,6.053,0,0,0-.937-.285,4.208,4.208,0,0,0-.9-.113q-2.61,0-2.61,3.328a3.96,3.96,0,0,0,.637,2.422,2.218,2.218,0,0,0,1.887.844,5.781,5.781,0,0,0,2.195-.461v1.148A4.678,4.678,0,0,1,3797.424,5485.482Z" transform="translate(11654.865 -7239.473)" fill="#fff"/>
    <path id="Trazado_22884" data-name="Trazado 22884" d="M3801.51,5474.443a.86.86,0,0,1,.219-.652.809.809,0,0,1,1.085,0,.841.841,0,0,1,.227.648.858.858,0,0,1-.227.653.76.76,0,0,1-.539.215.749.749,0,0,1-.546-.215A.88.88,0,0,1,3801.51,5474.443Zm1.406,10.883h-1.3v-8.562h1.3Z" transform="translate(11654.865 -7239.473)" fill="#fff"/>
    <path id="Trazado_22885" data-name="Trazado 22885" d="M3813.057,5481.037a4.727,4.727,0,0,1-1.055,3.27,3.715,3.715,0,0,1-2.914,1.175,3.85,3.85,0,0,1-2.039-.539,3.554,3.554,0,0,1-1.375-1.547,5.385,5.385,0,0,1-.485-2.359,4.72,4.72,0,0,1,1.047-3.262,3.708,3.708,0,0,1,2.907-1.168,3.621,3.621,0,0,1,2.855,1.2A4.7,4.7,0,0,1,3813.057,5481.037Zm-6.524,0a4.068,4.068,0,0,0,.656,2.5,2.606,2.606,0,0,0,3.864,0,4.043,4.043,0,0,0,.66-2.5,3.977,3.977,0,0,0-.66-2.48,2.319,2.319,0,0,0-1.949-.848,2.28,2.28,0,0,0-1.922.836A4.021,4.021,0,0,0,3806.533,5481.037Z" transform="translate(11654.865 -7239.473)" fill="#fff"/>
    <path id="Trazado_22886" data-name="Trazado 22886" d="M3820.854,5482.99a2.146,2.146,0,0,1-.891,1.844,4.181,4.181,0,0,1-2.5.648,5.421,5.421,0,0,1-2.656-.539v-1.2a6.436,6.436,0,0,0,1.324.492,5.472,5.472,0,0,0,1.363.18,3.093,3.093,0,0,0,1.563-.324,1.116,1.116,0,0,0,.113-1.844,6.854,6.854,0,0,0-1.691-.84,9.128,9.128,0,0,1-1.7-.777,2.334,2.334,0,0,1-.75-.754,1.966,1.966,0,0,1-.246-1.008,1.92,1.92,0,0,1,.852-1.652,3.971,3.971,0,0,1,2.336-.606,6.834,6.834,0,0,1,2.7.563l-.461,1.055a6.19,6.19,0,0,0-2.336-.532,2.7,2.7,0,0,0-1.391.289.894.894,0,0,0-.468.8.969.969,0,0,0,.175.586,1.739,1.739,0,0,0,.567.461,12.688,12.688,0,0,0,1.5.633,5.607,5.607,0,0,1,2.058,1.117A1.971,1.971,0,0,1,3820.854,5482.99Z" transform="translate(11654.865 -7239.473)" fill="#fff"/>
    <path id="Trazado_22887" data-name="Trazado 22887" d="M3822.775,5484.5a1.158,1.158,0,0,1,.239-.793.861.861,0,0,1,.683-.269.922.922,0,0,1,.707.269,1.117,1.117,0,0,1,.254.793,1.092,1.092,0,0,1-.258.781.916.916,0,0,1-.7.274.926.926,0,0,1-.66-.246A1.069,1.069,0,0,1,3822.775,5484.5Z" transform="translate(11654.865 -7239.473)" fill="#fff"/>
    <path id="Trazado_22888" data-name="Trazado 22888" d="M3741.308,5401.558V5369.2h6.768l4.561,11.616c.815,2.065,2.351,6.145,3.168,8.642h.095c-.191-2.641-.719-8.929-.719-15.025V5369.2h6.48v32.355h-6.768l-4.369-10.9a82.615,82.615,0,0,1-3.072-9.169h-.1c.144,2.784.432,8.16.432,14.5v5.569Z" transform="translate(11654.865 -7239.473)" fill="#fff"/>
    <path id="Trazado_22889" data-name="Trazado 22889" d="M3772.6,5392.821c.1,2.16,1.92,3.456,4.752,3.456a16.059,16.059,0,0,0,4.752-.768l.913,5.281a22.45,22.45,0,0,1-7.008,1.056c-6.769,0-10.562-4.08-10.562-11.522,0-8.064,4.513-12.768,10.081-12.768,5.185,0,8.593,3.551,8.593,11.472a20.009,20.009,0,0,1-.24,3.793Zm4.848-5.136c0-2.305-.384-4.8-2.3-4.8-1.872,0-2.544,2.784-2.544,4.8Z" transform="translate(11654.865 -7239.473)" fill="#fff"/>
    <path id="Trazado_22890" data-name="Trazado 22890" d="M3805.965,5399.062c0,4.608-1.009,7.536-3.072,9.457-1.872,1.679-4.465,2.639-8.257,2.639a16.181,16.181,0,0,1-6.193-1.1l1.3-5.665a10.857,10.857,0,0,0,4.561.96c3.263,0,4.272-2.208,4.272-5.088v-1.009h-.1a4.8,4.8,0,0,1-4.128,2.112c-5.761,0-7.537-6.24-7.537-11.329,0-7.488,3.408-12.48,8.161-12.48a4.713,4.713,0,0,1,4.32,2.688h.1l.384-2.305h6.433c-.144,2.4-.24,5.041-.24,7.538Zm-7.393-12.29a5.9,5.9,0,0,0-.288-1.728,1.6,1.6,0,0,0-1.44-1.248c-2.065,0-2.737,2.832-2.737,6.1,0,3.7.96,5.712,2.593,5.712a1.726,1.726,0,0,0,1.536-1.008,3.832,3.832,0,0,0,.336-1.728Z" transform="translate(11654.865 -7239.473)" fill="#fff"/>
    <path id="Trazado_22891" data-name="Trazado 22891" d="M3809.946,5385.477c0-2.5-.1-5.137-.192-7.538h6.385l.383,3.361h.193c1.151-2.641,3.023-3.744,4.559-3.744a6.61,6.61,0,0,1,1.585.143v7.3a8.265,8.265,0,0,0-1.632-.1,3.7,3.7,0,0,0-3.5,2.689,7.392,7.392,0,0,0-.336,2.447v11.522h-7.441Z" transform="translate(11654.865 -7239.473)" fill="#fff"/>
    <path id="Trazado_22892" data-name="Trazado 22892" d="M3843.4,5389.652c0,10.129-5.952,12.289-9.505,12.289-6.24,0-9.6-4.7-9.6-12.1,0-8.4,4.7-12.289,9.649-12.289C3840.092,5377.556,3843.4,5382.548,3843.4,5389.652Zm-11.76.048c0,4.081.624,6.673,2.4,6.673,1.536,0,2.016-3.312,2.016-6.673,0-3.12-.48-6.576-2.112-6.576C3832.075,5383.124,3831.643,5386.58,3831.643,5389.7Z" transform="translate(11654.865 -7239.473)" fill="#fff"/>
  </g>
</svg>
