<svg xmlns="http://www.w3.org/2000/svg" width="455" height="402.283" viewBox="0 0 455 402.283">
  <g id="Grupo_13739" data-name="Grupo 13739" transform="translate(-7006.5 -1417.06)">
    <g id="Grupo_13738" data-name="Grupo 13738" transform="translate(7234.004 1554.333)">
      <path id="Trazado_20898" data-name="Trazado 20898" d="M7500.526,1706.557a136.326,136.326,0,0,1-227.5,101.362,135.993,135.993,0,0,0,45.163-101.362c0-.316,0-.632-.008-.939a136.375,136.375,0,0,0,91.171-127.738A136.384,136.384,0,0,1,7500.526,1706.557Z" transform="translate(-7273.03 -1577.88)" fill="red"/>
    </g>
    <path id="Trazado_20899" data-name="Trazado 20899" d="M7310.446,1728.469a135.993,135.993,0,0,1-45.163,101.362,135.993,135.993,0,0,1-45.163-101.362c0-.316,0-.632.008-.939a136.977,136.977,0,0,0,90.309,0C7310.446,1727.837,7310.446,1728.153,7310.446,1728.469Z" transform="translate(-31.279 -45.459)" fill="#f0f"/>
    <path id="Trazado_20900" data-name="Trazado 20900" d="M7234,1807.92a136.346,136.346,0,1,1-136.325-230.039,136.375,136.375,0,0,0,91.171,127.738c-.008.307-.008.623-.008.939A135.993,135.993,0,0,0,7234,1807.92Z" transform="translate(0 -23.548)" fill="blue"/>
    <path id="Trazado_20901" data-name="Trazado 20901" d="M7249.645,1603.881a135.97,135.97,0,0,0-45.154,100.424,136.375,136.375,0,0,1-91.171-127.738,136.527,136.527,0,0,1,136.325,27.314Z" transform="translate(-15.641 -22.234)" fill="aqua"/>
    <path id="Trazado_20902" data-name="Trazado 20902" d="M7310.439,1710.3a136.977,136.977,0,0,1-90.309,0,135.97,135.97,0,0,1,45.154-100.424A135.971,135.971,0,0,1,7310.439,1710.3Z" transform="translate(-31.28 -28.233)" fill="#fff"/>
    <path id="Trazado_20903" data-name="Trazado 20903" d="M7409.355,1576.567a136.375,136.375,0,0,1-91.171,127.738,135.971,135.971,0,0,0-45.155-100.424,136.528,136.528,0,0,1,136.326-27.314Z" transform="translate(-39.026 -22.234)" fill="#ff0"/>
    <path id="Trazado_20904" data-name="Trazado 20904" d="M7385.978,1553.394c0,.316,0,.632-.008.939a136.528,136.528,0,0,0-136.326,27.314,136.527,136.527,0,0,0-136.325-27.314c-.008-.307-.008-.623-.008-.939a136.334,136.334,0,0,1,272.667,0Z" transform="translate(-15.639)" fill="lime"/>
    <path id="Trazado_24217" data-name="Trazado 24217" d="M.044-15.557h6.2L9.265-5.7,12.4-15.557h6.016L11.8,0H6.514ZM36.621-6.3H24.668a3.859,3.859,0,0,0,.776,2.139A2.827,2.827,0,0,0,27.7-3.149a3.388,3.388,0,0,0,1.67-.439,3.928,3.928,0,0,0,1.04-.981l5.874.542A8.412,8.412,0,0,1,33.032-.667,11.814,11.814,0,0,1,27.568.352,11.183,11.183,0,0,1,22.705-.52a7.141,7.141,0,0,1-2.937-2.769A8.355,8.355,0,0,1,18.6-7.749a7.835,7.835,0,0,1,2.336-5.9,8.9,8.9,0,0,1,6.453-2.256A11.485,11.485,0,0,1,32.666-14.9a6.824,6.824,0,0,1,2.944,2.93,10.709,10.709,0,0,1,1.011,5ZM30.557-9.155a3.986,3.986,0,0,0-.93-2.476,2.7,2.7,0,0,0-1.985-.747,2.7,2.7,0,0,0-2.271,1.128,4.132,4.132,0,0,0-.688,2.095Zm8.862-6.4H45v2.549a6.075,6.075,0,0,1,1.663-2.278,3.505,3.505,0,0,1,2.117-.623,6.3,6.3,0,0,1,2.886.82L49.819-10.84a4.687,4.687,0,0,0-1.67-.439,2.06,2.06,0,0,0-1.816.967q-.923,1.362-.923,5.1V0H39.419ZM69.8-21.475V0H64.219V-2.3A7.508,7.508,0,0,1,62.08-.322a6.1,6.1,0,0,1-2.871.674,5.544,5.544,0,0,1-4.856-2.417,10.048,10.048,0,0,1-1.677-5.874,8.538,8.538,0,0,1,1.853-5.918,6.069,6.069,0,0,1,4.709-2.051,6.562,6.562,0,0,1,2.527.469,5.747,5.747,0,0,1,2.014,1.406v-7.441ZM63.823-7.822a4.1,4.1,0,0,0-.776-2.732,2.48,2.48,0,0,0-1.963-.9,2.163,2.163,0,0,0-1.743.864,4.645,4.645,0,0,0-.7,2.9A4.38,4.38,0,0,0,59.363-4.9a2.232,2.232,0,0,0,1.794.886,2.4,2.4,0,0,0,1.9-.894A4.475,4.475,0,0,0,63.823-7.822ZM90.7-6.3H78.75a3.859,3.859,0,0,0,.776,2.139,2.827,2.827,0,0,0,2.256,1.011,3.388,3.388,0,0,0,1.67-.439,3.928,3.928,0,0,0,1.04-.981l5.874.542A8.412,8.412,0,0,1,87.114-.667,11.814,11.814,0,0,1,81.65.352,11.183,11.183,0,0,1,76.787-.52,7.141,7.141,0,0,1,73.85-3.289a8.355,8.355,0,0,1-1.165-4.46,7.835,7.835,0,0,1,2.336-5.9,8.9,8.9,0,0,1,6.453-2.256A11.485,11.485,0,0,1,86.748-14.9a6.824,6.824,0,0,1,2.944,2.93,10.709,10.709,0,0,1,1.011,5ZM84.639-9.155a3.986,3.986,0,0,0-.93-2.476,2.7,2.7,0,0,0-1.985-.747,2.7,2.7,0,0,0-2.271,1.128,4.132,4.132,0,0,0-.688,2.095Z" transform="translate(7187.516 1489.969)"/>
    <path id="Trazado_24218" data-name="Trazado 24218" d="M-30.044-15.557h5.581v2.549A6.075,6.075,0,0,1-22.8-15.286a3.505,3.505,0,0,1,2.117-.623,6.3,6.3,0,0,1,2.886.82l-1.846,4.248a4.687,4.687,0,0,0-1.67-.439,2.06,2.06,0,0,0-1.816.967q-.923,1.362-.923,5.1V0h-5.991Zm13.008,7.822a7.783,7.783,0,0,1,2.4-5.867,8.976,8.976,0,0,1,6.489-2.307q4.673,0,7.061,2.71A7.851,7.851,0,0,1,.835-7.822a7.807,7.807,0,0,1-2.38,5.881A9.1,9.1,0,0,1-8.13.352a9.239,9.239,0,0,1-6.064-1.9A7.645,7.645,0,0,1-17.036-7.734Zm5.977-.015a4.694,4.694,0,0,0,.842,3.076,2.657,2.657,0,0,0,2.117,1,2.645,2.645,0,0,0,2.117-.981,4.855,4.855,0,0,0,.828-3.149,4.586,4.586,0,0,0-.835-3.01,2.6,2.6,0,0,0-2.065-.989,2.7,2.7,0,0,0-2.153,1A4.643,4.643,0,0,0-11.06-7.749Zm15-13.726H9.917v4.1H3.94Zm0,5.918H9.917V-.469A13.9,13.9,0,0,1,9.5,3.618,3.79,3.79,0,0,1,7.954,5.566a5.826,5.826,0,0,1-3.223.747A22.594,22.594,0,0,1,.439,5.8l.894-4.336a5.915,5.915,0,0,0,1.055.146,1.364,1.364,0,0,0,1.157-.52,3.715,3.715,0,0,0,.4-2.073Zm9.023,7.822a7.783,7.783,0,0,1,2.4-5.867,8.976,8.976,0,0,1,6.489-2.307q4.673,0,7.061,2.71a7.851,7.851,0,0,1,1.919,5.376,7.807,7.807,0,0,1-2.38,5.881A9.1,9.1,0,0,1,21.87.352a9.239,9.239,0,0,1-6.064-1.9A7.645,7.645,0,0,1,12.964-7.734Zm5.977-.015a4.694,4.694,0,0,0,.842,3.076,2.657,2.657,0,0,0,2.117,1,2.645,2.645,0,0,0,2.117-.981,4.855,4.855,0,0,0,.828-3.149,4.586,4.586,0,0,0-.835-3.01,2.6,2.6,0,0,0-2.065-.989,2.7,2.7,0,0,0-2.153,1A4.643,4.643,0,0,0,18.94-7.749Z" transform="translate(7375.817 1709.232)" fill="#fff"/>
    <path id="Trazado_24219" data-name="Trazado 24219" d="M-26.111-10.518l-5.7-.6a6.4,6.4,0,0,1,.93-2.351,5.129,5.129,0,0,1,1.75-1.487,7.326,7.326,0,0,1,2.256-.7,18.191,18.191,0,0,1,3.105-.249,24.679,24.679,0,0,1,4.307.3,5.536,5.536,0,0,1,2.71,1.252,4.393,4.393,0,0,1,1.2,1.868,6.749,6.749,0,0,1,.439,2.307v6.87a8.291,8.291,0,0,0,.139,1.721A7.725,7.725,0,0,0-14.363,0h-5.6A5.709,5.709,0,0,1-20.4-.916,6.793,6.793,0,0,1-20.6-1.9,7.719,7.719,0,0,1-22.932-.293a9.7,9.7,0,0,1-3.677.645A6.154,6.154,0,0,1-30.835-.937a4.1,4.1,0,0,1-1.443-3.179,4.164,4.164,0,0,1,1.04-2.915A7.037,7.037,0,0,1-27.4-8.73q3.354-.674,4.351-.945a20.252,20.252,0,0,0,2.109-.71,2.1,2.1,0,0,0-.454-1.538,2.28,2.28,0,0,0-1.6-.439,4.13,4.13,0,0,0-2.2.469A2.568,2.568,0,0,0-26.111-10.518Zm5.171,3.135q-1.23.439-2.563.776a5.926,5.926,0,0,0-2.3.952,1.494,1.494,0,0,0-.5,1.1,1.485,1.485,0,0,0,.491,1.15,2.076,2.076,0,0,0,1.443.447,3.709,3.709,0,0,0,1.853-.483A2.925,2.925,0,0,0-21.3-4.622a3.947,3.947,0,0,0,.359-1.809Zm8.73-8.174H2.219v3.486l-7.852,8H2.7V0H-12.8V-3.867l7.457-7.617h-6.871ZM21.541,0H15.974V-2.52A8.2,8.2,0,0,1,13.462-.308a6.685,6.685,0,0,1-3.113.659,5.07,5.07,0,0,1-3.86-1.472,6.382,6.382,0,0,1-1.4-4.534v-9.9h5.991V-7a3.145,3.145,0,0,0,.542,2.08,1.923,1.923,0,0,0,1.523.615,2.172,2.172,0,0,0,1.75-.82,4.735,4.735,0,0,0,.681-2.944v-7.485h5.962Zm3.823-21.475H31.34V0H25.364Z" transform="translate(7102.443 1709.232)" fill="#fff"/>
  </g>
</svg>
