<svg xmlns="http://www.w3.org/2000/svg" width="265" height="265" viewBox="0 0 265 265">
  <g id="Grupo_14188" data-name="Grupo 14188" transform="translate(-14744 2226)">
    <circle id="Elipse_868" data-name="Elipse 868" cx="132.5" cy="132.5" r="132.5" transform="translate(14744 -2226)" fill="#e484fb"/>
    <path id="Trazado_22528" data-name="Trazado 22528" d="M3155.291,5153.58v-5.57a2.306,2.306,0,0,0-.437-1.535,1.7,1.7,0,0,0-1.36-.512,2.193,2.193,0,0,0-1.789.7,3.3,3.3,0,0,0-.578,2.141v4.781h-1.3v-5.57a2.306,2.306,0,0,0-.437-1.535,1.7,1.7,0,0,0-1.368-.512,2.118,2.118,0,0,0-1.785.73,3.957,3.957,0,0,0-.566,2.4v4.492h-1.3v-8.562h1.055l.211,1.171h.062a2.544,2.544,0,0,1,1.035-.976,3.174,3.174,0,0,1,1.5-.352,2.545,2.545,0,0,1,2.625,1.453h.063a2.735,2.735,0,0,1,1.109-1.062,3.44,3.44,0,0,1,1.656-.391,2.9,2.9,0,0,1,2.176.746,3.337,3.337,0,0,1,.723,2.387v5.586Z" transform="translate(11654.865 -7239.473)"/>
    <path id="Trazado_22529" data-name="Trazado 22529" d="M3166.65,5149.291a4.727,4.727,0,0,1-1.054,3.27,3.713,3.713,0,0,1-2.914,1.175,3.847,3.847,0,0,1-2.039-.539,3.554,3.554,0,0,1-1.375-1.547,5.371,5.371,0,0,1-.485-2.359,4.72,4.72,0,0,1,1.047-3.262,3.705,3.705,0,0,1,2.906-1.168,3.621,3.621,0,0,1,2.856,1.2A4.7,4.7,0,0,1,3166.65,5149.291Zm-6.523,0a4.068,4.068,0,0,0,.656,2.5,2.605,2.605,0,0,0,3.863,0,4.037,4.037,0,0,0,.661-2.5,3.971,3.971,0,0,0-.661-2.48,2.316,2.316,0,0,0-1.949-.848,2.285,2.285,0,0,0-1.922.836A4.026,4.026,0,0,0,3160.127,5149.291Z" transform="translate(11654.865 -7239.473)"/>
    <path id="Trazado_22530" data-name="Trazado 22530" d="M3174.752,5152.432h-.07a3.047,3.047,0,0,1-2.688,1.3,3.176,3.176,0,0,1-2.613-1.148,5.06,5.06,0,0,1-.934-3.266,5.14,5.14,0,0,1,.938-3.289,3.155,3.155,0,0,1,2.609-1.172,3.115,3.115,0,0,1,2.672,1.266h.1l-.055-.617-.031-.6v-3.484h1.3v12.156h-1.055Zm-2.594.218a2.362,2.362,0,0,0,1.926-.722,3.656,3.656,0,0,0,.6-2.332v-.274a4.3,4.3,0,0,0-.606-2.6,2.3,2.3,0,0,0-1.933-.778,1.988,1.988,0,0,0-1.747.887,4.413,4.413,0,0,0-.6,2.5,4.216,4.216,0,0,0,.6,2.476A2.034,2.034,0,0,0,3172.158,5152.65Z" transform="translate(11654.865 -7239.473)"/>
    <path id="Trazado_22531" data-name="Trazado 22531" d="M3183.994,5153.58l-.258-1.219h-.062a3.6,3.6,0,0,1-1.278,1.09,3.877,3.877,0,0,1-1.589.285,2.855,2.855,0,0,1-2-.656,2.391,2.391,0,0,1-.723-1.867q0-2.595,4.148-2.719l1.453-.047v-.531a2.17,2.17,0,0,0-.433-1.488,1.78,1.78,0,0,0-1.387-.481,5.649,5.649,0,0,0-2.422.657l-.4-.993a6.105,6.105,0,0,1,1.387-.539,6.011,6.011,0,0,1,1.511-.195,3.262,3.262,0,0,1,2.27.68,2.835,2.835,0,0,1,.738,2.179v5.844Zm-2.93-.914a2.636,2.636,0,0,0,1.9-.664,2.455,2.455,0,0,0,.691-1.859v-.774l-1.3.055a4.715,4.715,0,0,0-2.23.48,1.45,1.45,0,0,0-.684,1.325,1.336,1.336,0,0,0,.426,1.07A1.765,1.765,0,0,0,3181.064,5152.666Z" transform="translate(11654.865 -7239.473)"/>
    <path id="Trazado_22532" data-name="Trazado 22532" d="M3193.15,5151.244a2.145,2.145,0,0,1-.89,1.844,4.181,4.181,0,0,1-2.5.648,5.421,5.421,0,0,1-2.656-.539v-1.2a6.405,6.405,0,0,0,1.324.492,5.514,5.514,0,0,0,1.363.18,3.093,3.093,0,0,0,1.563-.324,1.117,1.117,0,0,0,.113-1.844,6.818,6.818,0,0,0-1.692-.84,9.185,9.185,0,0,1-1.7-.777,2.324,2.324,0,0,1-.75-.754,1.967,1.967,0,0,1-.246-1.008,1.92,1.92,0,0,1,.852-1.652,3.966,3.966,0,0,1,2.336-.606,6.837,6.837,0,0,1,2.7.563l-.461,1.055a6.2,6.2,0,0,0-2.336-.532,2.7,2.7,0,0,0-1.391.289.9.9,0,0,0-.469.8.97.97,0,0,0,.176.586,1.729,1.729,0,0,0,.567.461,12.54,12.54,0,0,0,1.5.633,5.6,5.6,0,0,1,2.058,1.117A1.97,1.97,0,0,1,3193.15,5151.244Z" transform="translate(11654.865 -7239.473)"/>
    <path id="Trazado_22533" data-name="Trazado 22533" d="M3196.619,5151.721l.117.179q-.2.781-.586,1.817t-.8,1.926h-.977q.212-.813.465-2.008t.355-1.914Z" transform="translate(11654.865 -7239.473)"/>
    <path id="Trazado_22534" data-name="Trazado 22534" d="M3207.322,5153.736a3.708,3.708,0,0,1-1.527-.308,2.882,2.882,0,0,1-1.16-.949h-.094a11.38,11.38,0,0,1,.094,1.421v3.524h-1.3v-12.406h1.055l.179,1.171h.063a3.011,3.011,0,0,1,1.164-1.015,3.538,3.538,0,0,1,1.523-.313,3.164,3.164,0,0,1,2.629,1.164,6.2,6.2,0,0,1-.015,6.543A3.17,3.17,0,0,1,3207.322,5153.736Zm-.187-7.773a2.3,2.3,0,0,0-1.9.726,3.747,3.747,0,0,0-.6,2.313v.289a4.287,4.287,0,0,0,.6,2.582,2.286,2.286,0,0,0,1.93.777,2.006,2.006,0,0,0,1.738-.9,4.264,4.264,0,0,0,.629-2.477,4.107,4.107,0,0,0-.629-2.457A2.067,2.067,0,0,0,3207.135,5145.963Z" transform="translate(11654.865 -7239.473)"/>
    <path id="Trazado_22535" data-name="Trazado 22535" d="M3217.049,5144.861a5.1,5.1,0,0,1,1.023.094l-.179,1.2a4.427,4.427,0,0,0-.938-.117,2.281,2.281,0,0,0-1.777.844,3.076,3.076,0,0,0-.739,2.1v4.594h-1.3v-8.562h1.07l.148,1.586h.063a3.751,3.751,0,0,1,1.148-1.29A2.6,2.6,0,0,1,3217.049,5144.861Z" transform="translate(11654.865 -7239.473)"/>
    <path id="Trazado_22536" data-name="Trazado 22536" d="M3227.064,5149.291a4.728,4.728,0,0,1-1.054,3.27,3.714,3.714,0,0,1-2.914,1.175,3.848,3.848,0,0,1-2.039-.539,3.554,3.554,0,0,1-1.375-1.547,5.371,5.371,0,0,1-.485-2.359,4.72,4.72,0,0,1,1.047-3.262,3.705,3.705,0,0,1,2.906-1.168,3.622,3.622,0,0,1,2.856,1.2A4.7,4.7,0,0,1,3227.064,5149.291Zm-6.523,0a4.068,4.068,0,0,0,.656,2.5,2.606,2.606,0,0,0,3.864,0,4.043,4.043,0,0,0,.66-2.5,3.977,3.977,0,0,0-.66-2.48,2.319,2.319,0,0,0-1.95-.848,2.284,2.284,0,0,0-1.922.836A4.026,4.026,0,0,0,3220.541,5149.291Z" transform="translate(11654.865 -7239.473)"/>
    <path id="Trazado_22537" data-name="Trazado 22537" d="M3240.252,5153.58v-5.57a2.306,2.306,0,0,0-.438-1.535,1.692,1.692,0,0,0-1.359-.512,2.192,2.192,0,0,0-1.789.7,3.3,3.3,0,0,0-.578,2.141v4.781h-1.3v-5.57a2.306,2.306,0,0,0-.437-1.535,1.7,1.7,0,0,0-1.368-.512,2.119,2.119,0,0,0-1.785.73,3.957,3.957,0,0,0-.566,2.4v4.492h-1.3v-8.562h1.055l.211,1.171h.062a2.545,2.545,0,0,1,1.035-.976,3.171,3.171,0,0,1,1.5-.352,2.545,2.545,0,0,1,2.625,1.453h.063a2.735,2.735,0,0,1,1.109-1.062,3.44,3.44,0,0,1,1.656-.391,2.9,2.9,0,0,1,2.176.746,3.336,3.336,0,0,1,.723,2.387v5.586Z" transform="translate(11654.865 -7239.473)"/>
    <path id="Trazado_22538" data-name="Trazado 22538" d="M3251.611,5149.291a4.727,4.727,0,0,1-1.054,3.27,3.713,3.713,0,0,1-2.914,1.175,3.848,3.848,0,0,1-2.039-.539,3.554,3.554,0,0,1-1.375-1.547,5.371,5.371,0,0,1-.485-2.359,4.72,4.72,0,0,1,1.047-3.262,3.705,3.705,0,0,1,2.906-1.168,3.621,3.621,0,0,1,2.856,1.2A4.7,4.7,0,0,1,3251.611,5149.291Zm-6.523,0a4.068,4.068,0,0,0,.656,2.5,2.605,2.605,0,0,0,3.863,0,4.035,4.035,0,0,0,.661-2.5,3.969,3.969,0,0,0-.661-2.48,2.316,2.316,0,0,0-1.949-.848,2.284,2.284,0,0,0-1.922.836A4.024,4.024,0,0,0,3245.088,5149.291Z" transform="translate(11654.865 -7239.473)"/>
    <path id="Trazado_22539" data-name="Trazado 22539" d="M3257.307,5153.736a3.655,3.655,0,0,1-2.879-1.144,4.705,4.705,0,0,1-1.02-3.238,4.852,4.852,0,0,1,1.035-3.321,3.729,3.729,0,0,1,2.95-1.172,5.8,5.8,0,0,1,1.234.133,4.079,4.079,0,0,1,.969.313l-.4,1.1a6.061,6.061,0,0,0-.937-.285,4.211,4.211,0,0,0-.9-.113q-2.609,0-2.609,3.328a3.961,3.961,0,0,0,.637,2.422,2.215,2.215,0,0,0,1.886.844,5.773,5.773,0,0,0,2.2-.461v1.148A4.681,4.681,0,0,1,3257.307,5153.736Z" transform="translate(11654.865 -7239.473)"/>
    <path id="Trazado_22540" data-name="Trazado 22540" d="M3261.393,5142.7a.863.863,0,0,1,.218-.652.81.81,0,0,1,1.086,0,.84.84,0,0,1,.227.648.858.858,0,0,1-.227.653.757.757,0,0,1-.539.214.749.749,0,0,1-.547-.214A.884.884,0,0,1,3261.393,5142.7Zm1.406,10.883h-1.3v-8.562h1.3Z" transform="translate(11654.865 -7239.473)"/>
    <path id="Trazado_22541" data-name="Trazado 22541" d="M3272.939,5149.291a4.728,4.728,0,0,1-1.054,3.27,3.714,3.714,0,0,1-2.914,1.175,3.848,3.848,0,0,1-2.039-.539,3.554,3.554,0,0,1-1.375-1.547,5.371,5.371,0,0,1-.485-2.359,4.72,4.72,0,0,1,1.047-3.262,3.705,3.705,0,0,1,2.906-1.168,3.622,3.622,0,0,1,2.856,1.2A4.7,4.7,0,0,1,3272.939,5149.291Zm-6.523,0a4.068,4.068,0,0,0,.656,2.5,2.606,2.606,0,0,0,3.864,0,4.043,4.043,0,0,0,.66-2.5,3.977,3.977,0,0,0-.66-2.48,2.319,2.319,0,0,0-1.95-.848,2.284,2.284,0,0,0-1.922.836A4.026,4.026,0,0,0,3266.416,5149.291Z" transform="translate(11654.865 -7239.473)"/>
    <path id="Trazado_22542" data-name="Trazado 22542" d="M3281.072,5153.58v-5.539a2.234,2.234,0,0,0-.476-1.562,1.941,1.941,0,0,0-1.492-.516,2.463,2.463,0,0,0-1.969.726,3.67,3.67,0,0,0-.625,2.4v4.492h-1.3v-8.562h1.055l.211,1.171h.062a2.65,2.65,0,0,1,1.117-.98,3.644,3.644,0,0,1,1.6-.348,3.254,3.254,0,0,1,2.328.746,3.179,3.179,0,0,1,.781,2.387v5.586Z" transform="translate(11654.865 -7239.473)"/>
    <path id="Trazado_22543" data-name="Trazado 22543" d="M3288.65,5153.736a3.934,3.934,0,0,1-3-1.156,4.478,4.478,0,0,1-1.1-3.211,4.963,4.963,0,0,1,1.019-3.289,3.39,3.39,0,0,1,2.738-1.219,3.227,3.227,0,0,1,2.547,1.059,4.059,4.059,0,0,1,.938,2.793v.82h-5.9a3.4,3.4,0,0,0,.762,2.289,2.634,2.634,0,0,0,2.035.782,6.889,6.889,0,0,0,2.735-.579v1.157a6.853,6.853,0,0,1-1.3.425A7.313,7.313,0,0,1,3288.65,5153.736Zm-.351-7.789a2.118,2.118,0,0,0-1.645.672,3.1,3.1,0,0,0-.722,1.86h4.476a2.847,2.847,0,0,0-.547-1.879A1.923,1.923,0,0,0,3288.3,5145.947Z" transform="translate(11654.865 -7239.473)"/>
    <path id="Trazado_22544" data-name="Trazado 22544" d="M3299.533,5151.244a2.147,2.147,0,0,1-.89,1.844,4.181,4.181,0,0,1-2.5.648,5.428,5.428,0,0,1-2.657-.539v-1.2a6.414,6.414,0,0,0,1.325.492,5.508,5.508,0,0,0,1.363.18,3.087,3.087,0,0,0,1.562-.324,1.117,1.117,0,0,0,.114-1.844,6.818,6.818,0,0,0-1.692-.84,9.146,9.146,0,0,1-1.7-.777,2.324,2.324,0,0,1-.75-.754,1.965,1.965,0,0,1-.246-1.008,1.922,1.922,0,0,1,.851-1.652,3.969,3.969,0,0,1,2.336-.606,6.838,6.838,0,0,1,2.7.563l-.461,1.055a6.2,6.2,0,0,0-2.336-.532,2.7,2.7,0,0,0-1.391.289.9.9,0,0,0-.469.8.97.97,0,0,0,.176.586,1.734,1.734,0,0,0,.566.461,12.688,12.688,0,0,0,1.5.633,5.6,5.6,0,0,1,2.059,1.117A1.974,1.974,0,0,1,3299.533,5151.244Z" transform="translate(11654.865 -7239.473)"/>
    <path id="Trazado_22545" data-name="Trazado 22545" d="M3164.135,5165.226h-2.18v7.554h-1.3v-7.554h-1.531v-.586l1.531-.469v-.477q0-3.156,2.758-3.156a5.655,5.655,0,0,1,1.594.274l-.336,1.039a4.274,4.274,0,0,0-1.281-.243,1.247,1.247,0,0,0-1.086.489,2.716,2.716,0,0,0-.352,1.566v.555h2.18Z" transform="translate(11654.865 -7239.473)"/>
    <path id="Trazado_22546" data-name="Trazado 22546" d="M3169.314,5172.937a3.935,3.935,0,0,1-3-1.157,4.477,4.477,0,0,1-1.1-3.211,4.969,4.969,0,0,1,1.019-3.289,3.389,3.389,0,0,1,2.739-1.218,3.225,3.225,0,0,1,2.546,1.058,4.058,4.058,0,0,1,.938,2.793v.82h-5.9a3.4,3.4,0,0,0,.762,2.289,2.635,2.635,0,0,0,2.035.782,6.913,6.913,0,0,0,2.735-.578v1.156a6.831,6.831,0,0,1-1.3.426A7.309,7.309,0,0,1,3169.314,5172.937Zm-.351-7.79a2.12,2.12,0,0,0-1.645.672,3.1,3.1,0,0,0-.722,1.86h4.476a2.848,2.848,0,0,0-.547-1.879A1.924,1.924,0,0,0,3168.963,5165.147Z" transform="translate(11654.865 -7239.473)"/>
    <path id="Trazado_22547" data-name="Trazado 22547" d="M3185.588,5172.78v-5.57a2.309,2.309,0,0,0-.438-1.535,1.693,1.693,0,0,0-1.359-.512,2.2,2.2,0,0,0-1.789.695,3.3,3.3,0,0,0-.578,2.141v4.781h-1.3v-5.57a2.309,2.309,0,0,0-.438-1.535,1.7,1.7,0,0,0-1.367-.512,2.115,2.115,0,0,0-1.785.731,3.948,3.948,0,0,0-.566,2.394v4.492h-1.3v-8.562h1.055l.21,1.172H3176a2.548,2.548,0,0,1,1.035-.977,3.166,3.166,0,0,1,1.5-.351,2.542,2.542,0,0,1,2.625,1.453h.063a2.726,2.726,0,0,1,1.109-1.063,3.43,3.43,0,0,1,1.656-.39,2.9,2.9,0,0,1,2.176.746,3.335,3.335,0,0,1,.723,2.386v5.586Z" transform="translate(11654.865 -7239.473)"/>
    <path id="Trazado_22548" data-name="Trazado 22548" d="M3193.174,5172.937a3.932,3.932,0,0,1-3-1.157,4.474,4.474,0,0,1-1.1-3.211,4.963,4.963,0,0,1,1.02-3.289,3.385,3.385,0,0,1,2.738-1.218,3.228,3.228,0,0,1,2.547,1.058,4.058,4.058,0,0,1,.937,2.793v.82h-5.9a3.392,3.392,0,0,0,.762,2.289,2.633,2.633,0,0,0,2.035.782,6.906,6.906,0,0,0,2.734-.578v1.156a6.836,6.836,0,0,1-1.3.426A7.307,7.307,0,0,1,3193.174,5172.937Zm-.352-7.79a2.118,2.118,0,0,0-1.644.672,3.1,3.1,0,0,0-.723,1.86h4.477a2.853,2.853,0,0,0-.547-1.879A1.926,1.926,0,0,0,3192.822,5165.147Z" transform="translate(11654.865 -7239.473)"/>
    <path id="Trazado_22549" data-name="Trazado 22549" d="M3204.393,5172.78v-5.539a2.235,2.235,0,0,0-.477-1.562,1.938,1.938,0,0,0-1.492-.516,2.459,2.459,0,0,0-1.969.727,3.664,3.664,0,0,0-.625,2.4v4.492h-1.3v-8.562h1.055l.211,1.172h.062a2.646,2.646,0,0,1,1.118-.981,3.637,3.637,0,0,1,1.6-.347,3.252,3.252,0,0,1,2.328.746,3.173,3.173,0,0,1,.781,2.386v5.586Z" transform="translate(11654.865 -7239.473)"/>
    <path id="Trazado_22550" data-name="Trazado 22550" d="M3208.244,5161.9a.861.861,0,0,1,.219-.652.81.81,0,0,1,1.086,0,.845.845,0,0,1,.226.648.861.861,0,0,1-.226.653.76.76,0,0,1-.539.215.749.749,0,0,1-.547-.215A.879.879,0,0,1,3208.244,5161.9Zm1.406,10.883h-1.3v-8.562h1.3Z" transform="translate(11654.865 -7239.473)"/>
    <path id="Trazado_22551" data-name="Trazado 22551" d="M3218.26,5172.78v-5.539a2.229,2.229,0,0,0-.477-1.562,1.938,1.938,0,0,0-1.492-.516,2.46,2.46,0,0,0-1.969.727,3.664,3.664,0,0,0-.625,2.4v4.492h-1.3v-8.562h1.055l.211,1.172h.063a2.637,2.637,0,0,1,1.117-.981,3.637,3.637,0,0,1,1.6-.347,3.251,3.251,0,0,1,2.328.746,3.173,3.173,0,0,1,.782,2.386v5.586Z" transform="translate(11654.865 -7239.473)"/>
    <path id="Trazado_22552" data-name="Trazado 22552" d="M3227.486,5172.78l-.257-1.218h-.063a3.6,3.6,0,0,1-1.277,1.089,3.878,3.878,0,0,1-1.59.286,2.856,2.856,0,0,1-2-.657,2.39,2.39,0,0,1-.723-1.867q0-2.594,4.149-2.719l1.453-.047v-.531a2.17,2.17,0,0,0-.434-1.488,1.785,1.785,0,0,0-1.387-.481,5.649,5.649,0,0,0-2.422.657l-.4-.992a6.211,6.211,0,0,1,2.9-.735,3.265,3.265,0,0,1,2.27.68,2.839,2.839,0,0,1,.738,2.18v5.843Zm-2.929-.914a2.631,2.631,0,0,0,1.9-.664,2.455,2.455,0,0,0,.691-1.859v-.774l-1.3.055a4.711,4.711,0,0,0-2.231.48,1.451,1.451,0,0,0-.684,1.325,1.337,1.337,0,0,0,.426,1.07A1.766,1.766,0,0,0,3224.557,5171.866Z" transform="translate(11654.865 -7239.473)"/>
    <path id="Trazado_22553" data-name="Trazado 22553" d="M3236.643,5170.444a2.146,2.146,0,0,1-.891,1.844,4.181,4.181,0,0,1-2.5.649,5.426,5.426,0,0,1-2.656-.54v-1.2a6.5,6.5,0,0,0,1.324.493,5.519,5.519,0,0,0,1.363.179,3.1,3.1,0,0,0,1.563-.324,1.116,1.116,0,0,0,.113-1.844,6.859,6.859,0,0,0-1.691-.84,9.064,9.064,0,0,1-1.7-.777,2.329,2.329,0,0,1-.75-.754,1.967,1.967,0,0,1-.246-1.008,1.919,1.919,0,0,1,.852-1.652,3.973,3.973,0,0,1,2.336-.6,6.832,6.832,0,0,1,2.7.562l-.461,1.055a6.19,6.19,0,0,0-2.336-.532,2.69,2.69,0,0,0-1.391.29.892.892,0,0,0-.468.8.968.968,0,0,0,.175.586,1.737,1.737,0,0,0,.567.461,12.666,12.666,0,0,0,1.5.633,5.6,5.6,0,0,1,2.058,1.117A1.97,1.97,0,0,1,3236.643,5170.444Z" transform="translate(11654.865 -7239.473)"/>
    <path id="Trazado_22554" data-name="Trazado 22554" d="M3240.111,5170.921l.118.18q-.2.78-.586,1.816t-.8,1.926h-.977q.212-.813.465-2.008t.355-1.914Z" transform="translate(11654.865 -7239.473)"/>
    <path id="Trazado_22555" data-name="Trazado 22555" d="M3252.354,5170.444a2.146,2.146,0,0,1-.891,1.844,4.181,4.181,0,0,1-2.5.649,5.426,5.426,0,0,1-2.656-.54v-1.2a6.5,6.5,0,0,0,1.324.493,5.516,5.516,0,0,0,1.363.179,3.1,3.1,0,0,0,1.563-.324,1.116,1.116,0,0,0,.113-1.844,6.854,6.854,0,0,0-1.691-.84,9.064,9.064,0,0,1-1.7-.777,2.334,2.334,0,0,1-.75-.754,1.967,1.967,0,0,1-.246-1.008,1.919,1.919,0,0,1,.852-1.652,3.971,3.971,0,0,1,2.336-.6,6.833,6.833,0,0,1,2.7.562l-.461,1.055a6.19,6.19,0,0,0-2.336-.532,2.689,2.689,0,0,0-1.391.29.892.892,0,0,0-.468.8.967.967,0,0,0,.175.586,1.733,1.733,0,0,0,.567.461,12.666,12.666,0,0,0,1.5.633,5.608,5.608,0,0,1,2.058,1.117A1.971,1.971,0,0,1,3252.354,5170.444Z" transform="translate(11654.865 -7239.473)"/>
    <path id="Trazado_22556" data-name="Trazado 22556" d="M3258.08,5172.937a3.932,3.932,0,0,1-3-1.157,4.478,4.478,0,0,1-1.1-3.211,4.963,4.963,0,0,1,1.02-3.289,3.388,3.388,0,0,1,2.738-1.218,3.228,3.228,0,0,1,2.547,1.058,4.058,4.058,0,0,1,.938,2.793v.82h-5.9a3.392,3.392,0,0,0,.762,2.289,2.633,2.633,0,0,0,2.035.782,6.906,6.906,0,0,0,2.734-.578v1.156a6.828,6.828,0,0,1-1.3.426A7.326,7.326,0,0,1,3258.08,5172.937Zm-.351-7.79a2.119,2.119,0,0,0-1.645.672,3.109,3.109,0,0,0-.723,1.86h4.477a2.853,2.853,0,0,0-.547-1.879A1.926,1.926,0,0,0,3257.729,5165.147Z" transform="translate(11654.865 -7239.473)"/>
    <path id="Trazado_22557" data-name="Trazado 22557" d="M3265.5,5168.4l-2.977-4.179H3264l2.258,3.281,2.25-3.281h1.461l-2.977,4.179,3.133,4.383h-1.469l-2.4-3.468-2.422,3.468h-1.469Z" transform="translate(11654.865 -7239.473)"/>
    <path id="Trazado_22558" data-name="Trazado 22558" d="M3279.213,5168.491a4.725,4.725,0,0,1-1.055,3.27,3.715,3.715,0,0,1-2.914,1.176,3.857,3.857,0,0,1-2.039-.54,3.557,3.557,0,0,1-1.375-1.546,5.39,5.39,0,0,1-.484-2.36,4.714,4.714,0,0,1,1.047-3.262,3.7,3.7,0,0,1,2.906-1.167,3.621,3.621,0,0,1,2.855,1.195A4.7,4.7,0,0,1,3279.213,5168.491Zm-6.524,0a4.062,4.062,0,0,0,.657,2.5,2.6,2.6,0,0,0,3.863,0,4.045,4.045,0,0,0,.66-2.5,3.976,3.976,0,0,0-.66-2.48,2.316,2.316,0,0,0-1.949-.848,2.282,2.282,0,0,0-1.922.836A4.021,4.021,0,0,0,3272.689,5168.491Z" transform="translate(11654.865 -7239.473)"/>
    <path id="Trazado_22559" data-name="Trazado 22559" d="M3281.3,5171.952a1.163,1.163,0,0,1,.238-.793.863.863,0,0,1,.684-.269.923.923,0,0,1,.707.269,1.119,1.119,0,0,1,.254.793,1.094,1.094,0,0,1-.258.781,1.025,1.025,0,0,1-1.363.028A1.069,1.069,0,0,1,3281.3,5171.952Z" transform="translate(11654.865 -7239.473)"/>
    <path id="Trazado_22560" data-name="Trazado 22560" d="M3182.851,5076.336a45.146,45.146,0,0,1,7.536-.624c3.552,0,6.961.433,9.217,2.448,2.112,1.872,2.688,4.032,2.688,6.913a8.616,8.616,0,0,1-4.9,7.969v.1c2.112.96,3.168,2.88,3.744,6.049.576,3.215,1.536,7.776,2.16,9.024h-7.777a40.8,40.8,0,0,1-1.584-7.633c-.48-3.84-1.343-4.752-2.976-4.752h-.72v12.385h-7.392Zm7.392,13.777h.96c2.4,0,3.6-2.064,3.6-4.416s-.912-4.129-3.217-4.224a3.621,3.621,0,0,0-1.344.192Z" transform="translate(11654.865 -7239.473)"/>
    <path id="Trazado_22561" data-name="Trazado 22561" d="M3224.132,5096.306c0,10.129-5.952,12.289-9.505,12.289-6.24,0-9.6-4.7-9.6-12.1,0-8.4,4.705-12.289,9.65-12.289C3220.82,5084.209,3224.132,5089.2,3224.132,5096.306Zm-11.761.048c0,4.081.624,6.672,2.4,6.672,1.537,0,2.017-3.312,2.017-6.672,0-3.121-.48-6.577-2.112-6.577C3212.8,5089.777,3212.371,5093.233,3212.371,5096.354Z" transform="translate(11654.865 -7239.473)"/>
    <path id="Trazado_22562" data-name="Trazado 22562" d="M3227.443,5101.778a9.81,9.81,0,0,0,4.464,1.248c1.393,0,2.16-.479,2.16-1.536,0-1.008-.719-1.536-2.639-2.592-4.177-2.256-4.8-4.9-4.8-6.816,0-4.417,3.12-7.873,8.3-7.873a12.045,12.045,0,0,1,5.04,1.056l-1.152,5.377a7.242,7.242,0,0,0-3.36-.913c-1.44,0-2.064.72-2.064,1.584,0,.817.528,1.3,2.688,2.5,3.792,2.064,4.7,4.656,4.7,7.056,0,4.9-3.553,7.633-8.881,7.633a11.21,11.21,0,0,1-5.664-1.344Z" transform="translate(11654.865 -7239.473)"/>
    <path id="Trazado_22563" data-name="Trazado 22563" d="M3261.092,5102.786a32.046,32.046,0,0,0,.384,5.425h-6.624l-.384-2.256h-.1a6.57,6.57,0,0,1-5.424,2.64c-3.745,0-6.481-3.12-6.481-7.345,0-6.336,5.761-8.832,11.09-8.881v-.431c0-1.3-1.2-2.3-3.121-2.3a9.638,9.638,0,0,0-5.184,1.439l-1.3-4.944a17.941,17.941,0,0,1,8.113-1.92c8.208,0,9.025,5.856,9.025,10.417Zm-7.3-5.76c-2.16.048-4.368.912-4.368,3.409,0,2.015,1.2,2.784,2.016,2.784a2.306,2.306,0,0,0,2.208-1.393,2.694,2.694,0,0,0,.144-.96Z" transform="translate(11654.865 -7239.473)"/>
  </g>
</svg>
