<svg xmlns="http://www.w3.org/2000/svg" xmlns:xlink="http://www.w3.org/1999/xlink" width="1120" height="466.775" viewBox="0 0 1120 466.775">
  <defs>
    <linearGradient id="linear-gradient" x1="0.042" y1="1.05" x2="0.958" y2="-0.05" gradientUnits="objectBoundingBox">
      <stop offset="0.001" stop-color="#fbe18a"/>
      <stop offset="0.209" stop-color="#fcbb45"/>
      <stop offset="0.376" stop-color="#f75274"/>
      <stop offset="0.524" stop-color="#d53692"/>
      <stop offset="0.739" stop-color="#8f39ce"/>
      <stop offset="1" stop-color="#5b4fe9"/>
    </linearGradient>
  </defs>
  <g id="Grupo_14049" data-name="Grupo 14049" transform="translate(-4809.711 -4192.337)">
    <rect id="Rectángulo_3740" data-name="Rectángulo 3740" width="186.667" height="155.555" transform="translate(4809.711 4192.337)" fill="#ff0"/>
    <rect id="Rectángulo_3741" data-name="Rectángulo 3741" width="186.667" height="155.555" transform="translate(4996.378 4192.337)" fill="#00e676"/>
    <rect id="Rectángulo_3742" data-name="Rectángulo 3742" width="186.667" height="155.555" transform="translate(5183.044 4192.337)" fill="#f91913"/>
    <rect id="Rectángulo_3743" data-name="Rectángulo 3743" width="186.667" height="155.555" transform="translate(5369.711 4192.337)" fill="#3cf"/>
    <rect id="Rectángulo_3744" data-name="Rectángulo 3744" width="186.667" height="155.555" transform="translate(5556.378 4192.337)" fill="#3c5a99"/>
    <rect id="Rectángulo_3745" data-name="Rectángulo 3745" width="186.667" height="155.555" transform="translate(5743.044 4192.337)" fill="url(#linear-gradient)"/>
    <rect id="Rectángulo_3746" data-name="Rectángulo 3746" width="186.667" height="155.555" transform="translate(4809.711 4347.893)" fill="#fff"/>
    <rect id="Rectángulo_3747" data-name="Rectángulo 3747" width="186.667" height="155.555" transform="translate(4996.378 4347.893)" fill="#007ab9"/>
    <rect id="Rectángulo_3748" data-name="Rectángulo 3748" width="186.667" height="155.555" transform="translate(5183.044 4347.893)" fill="#4176fa"/>
    <rect id="Rectángulo_3749" data-name="Rectángulo 3749" width="186.667" height="155.555" transform="translate(5369.711 4347.893)" fill="#f23f7e"/>
    <rect id="Rectángulo_3750" data-name="Rectángulo 3750" width="186.667" height="155.555" transform="translate(5556.378 4347.893)" fill="red"/>
    <rect id="Rectángulo_3751" data-name="Rectángulo 3751" width="186.667" height="155.555" transform="translate(5743.044 4347.893)" fill="#2c455c"/>
    <rect id="Rectángulo_3752" data-name="Rectángulo 3752" width="186.667" height="155.555" transform="translate(4809.711 4503.449)" fill="#2ebd59"/>
    <rect id="Rectángulo_3753" data-name="Rectángulo 3753" width="186.667" height="155.555" transform="translate(4996.378 4503.449)" fill="#f48120" stroke="#f48120" stroke-miterlimit="10" stroke-width="0.216"/>
    <rect id="Rectángulo_3754" data-name="Rectángulo 3754" width="186.667" height="155.555" transform="translate(5183.044 4503.449)"/>
    <rect id="Rectángulo_3755" data-name="Rectángulo 3755" width="186.667" height="155.555" transform="translate(5369.711 4503.449)" fill="#9c0"/>
    <rect id="Rectángulo_3756" data-name="Rectángulo 3756" width="186.667" height="155.555" transform="translate(5556.378 4503.449)" fill="#00aff0"/>
    <rect id="Rectángulo_3757" data-name="Rectángulo 3757" width="186.667" height="155.555" transform="translate(5743.044 4503.449)" fill="#c8c8c8"/>
    <g id="Grupo_14015" data-name="Grupo 14015" transform="translate(5432.606 4245.045)">
      <g id="Grupo_14010" data-name="Grupo 14010">
        <path id="Trazado_22893" data-name="Trazado 22893" d="M5433.134,4245.967a24.98,24.98,0,0,1-6.149,1.756c.991-.166,2.452-1.96,3.035-2.686a11.294,11.294,0,0,0,2.048-3.729c.053-.106.094-.24-.012-.32a.351.351,0,0,0-.327.026,31.427,31.427,0,0,1-7.3,2.8.487.487,0,0,1-.5-.134,5.921,5.921,0,0,0-.639-.653,12.939,12.939,0,0,0-3.539-2.168,12.328,12.328,0,0,0-5.427-.874,12.961,12.961,0,0,0-5.147,1.454,13.276,13.276,0,0,0-4.154,3.393,12.751,12.751,0,0,0-2.481,4.968,13.462,13.462,0,0,0-.131,5.245c.04.293.014.333-.251.293-10.034-1.493-18.349-5.083-25.1-12.776-.293-.333-.452-.333-.693.027-2.954,4.427-1.521,11.542,2.169,15.037.493.466,1,.932,1.543,1.358a12.811,12.811,0,0,1-4.843-1.358c-.292-.185-.439-.079-.466.253a7.778,7.778,0,0,0,.079,1.438,12.87,12.87,0,0,0,7.933,10.26,7.508,7.508,0,0,0,1.61.493,14.373,14.373,0,0,1-4.751.147c-.346-.067-.479.106-.346.438,2.09,5.7,6.6,7.393,9.98,8.358.453.079.905.079,1.359.186-.027.041-.054.041-.081.08-1.12,1.709-5.006,2.98-6.815,3.613a24.4,24.4,0,0,1-10.352,1.325c-.557-.082-.673-.075-.825,0-.152.094-.019.227.159.372.707.466,1.425.879,2.157,1.278a34.131,34.131,0,0,0,6.92,2.768c12.436,3.435,26.444.91,35.781-8.368,7.333-7.285,9.9-17.332,9.9-27.392,0-.394.466-.611.741-.819a24.1,24.1,0,0,0,4.848-5.064,1.473,1.473,0,0,0,.3-.971v-.053C5433.362,4245.807,5433.382,4245.855,5433.134,4245.967Z" transform="translate(-5372.486 -4239.958)" fill="#fff"/>
      </g>
      <g id="Grupo_14011" data-name="Grupo 14011" transform="translate(18.078 49.926)">
        <path id="Trazado_22894" data-name="Trazado 22894" d="M5388.82,4285.065Z" transform="translate(-5388.819 -4285.065)" fill="#fff" fill-rule="evenodd"/>
      </g>
      <g id="Grupo_14012" data-name="Grupo 14012" transform="translate(17.614 49.926)">
        <path id="Trazado_22895" data-name="Trazado 22895" d="M5388.865,4285.065c-.079.005-1,0,0,0Z" transform="translate(-5388.4 -4285.065)" fill="#fff" fill-rule="evenodd"/>
      </g>
      <g id="Grupo_14013" data-name="Grupo 14013" transform="translate(20.129 49.934)">
        <path id="Trazado_22896" data-name="Trazado 22896" d="M5390.672,4285.117c0-.1,1.078,0,0,0C5390.672,4285.064,5390.8,4285.117,5390.672,4285.117Z" transform="translate(-5390.672 -4285.072)" fill="#fff" fill-rule="evenodd"/>
      </g>
      <g id="Grupo_14014" data-name="Grupo 14014" transform="translate(41.408 0.074)">
        <path id="Trazado_22897" data-name="Trazado 22897" d="M5410.149,4240.024a.218.218,0,0,1-.252,0Z" transform="translate(-5409.897 -4240.024)" fill="#fff" fill-rule="evenodd"/>
      </g>
    </g>
    <g id="Grupo_14016" data-name="Grupo 14016" transform="translate(5635.57 4239.677)">
      <path id="Trazado_22898" data-name="Trazado 22898" d="M5562.092,4265.786v29.432a.766.766,0,0,0,.767.766h10.93a.766.766,0,0,0,.766-.766v-29.911h7.924a.767.767,0,0,0,.764-.7l.763-9.012a.768.768,0,0,0-.765-.832h-8.686v-6.394a2.713,2.713,0,0,1,2.714-2.713h6.106a.767.767,0,0,0,.767-.767v-9.012a.767.767,0,0,0-.767-.767h-10.319a10.964,10.964,0,0,0-10.964,10.964v8.688h-5.464a.767.767,0,0,0-.768.767v9.012a.767.767,0,0,0,.768.767h5.464Z" transform="translate(-5555.86 -4235.108)" fill="#fff" fill-rule="evenodd"/>
    </g>
    <g id="Grupo_14019" data-name="Grupo 14019" transform="translate(5059.273 4239.677)">
      <g id="Grupo_14017" data-name="Grupo 14017">
        <path id="Trazado_22899" data-name="Trazado 22899" d="M5065.624,4235.108a30.432,30.432,0,0,0-25.575,46.934l-4.625,10.185a2.659,2.659,0,0,0,3.124,3.663l12.739-3.495a30.437,30.437,0,1,0,14.337-57.287Zm0,55.56a25.089,25.089,0,0,1-12.649-3.42,2.654,2.654,0,0,0-2.044-.268l-8.322,2.284,2.9-6.387a2.655,2.655,0,0,0-.265-2.653,25.117,25.117,0,1,1,20.381,10.444Z" transform="translate(-5035.186 -4235.108)" fill="#fff" fill-rule="evenodd"/>
      </g>
      <g id="Grupo_14018" data-name="Grupo 14018" transform="translate(15.645 16.539)">
        <path id="Trazado_22900" data-name="Trazado 22900" d="M5075.816,4268.507c-1.275-.761-2.933-1.614-4.435-1-1.152.471-1.887,2.275-2.633,3.2a1.105,1.105,0,0,1-1.429.31,20.092,20.092,0,0,1-10.026-8.588,1.23,1.23,0,0,1,.156-1.679,6.777,6.777,0,0,0,1.821-2.956,6.47,6.47,0,0,0-.814-3.5c-.6-1.3-1.28-3.158-2.583-3.894a3.545,3.545,0,0,0-3.846.571,7.81,7.81,0,0,0-2.706,6.184,8.811,8.811,0,0,0,.244,1.961,16.233,16.233,0,0,0,1.883,4.339,33.874,33.874,0,0,0,1.965,2.988,30.294,30.294,0,0,0,8.524,7.913,25.707,25.707,0,0,0,5.314,2.528c2.082.688,3.938,1.4,6.186.977a7.487,7.487,0,0,0,5.611-4.173,3.624,3.624,0,0,0,.26-2.129C5078.988,4270.089,5077,4269.217,5075.816,4268.507Z" transform="translate(-5049.321 -4250.05)" fill="#fff" fill-rule="evenodd"/>
      </g>
    </g>
    <g id="Grupo_14021" data-name="Grupo 14021" transform="translate(4872.606 4241.468)">
      <g id="Grupo_14020" data-name="Grupo 14020">
        <path id="Trazado_22901" data-name="Trazado 22901" d="M4866.536,4281.355v-.951a2.519,2.519,0,0,1,1.436-.962c4.993-.989,8.333-4.173,10.853-8.352,2.118-3.513,1.779-4.318-2.125-5.7-.223-.08-.454-.144-.673-.233a8.381,8.381,0,0,1-2.375-1.322c-1.748-1.519-.714-3.708,1.347-4.206,1.507-.363,2.819.606,4.282.789.978.122,1.368-.208,1.248-1.248a49.972,49.972,0,0,1-.175-8.069,13.654,13.654,0,0,1,7.041-11.577,17.773,17.773,0,0,1,19.06-.057,13.591,13.591,0,0,1,7.008,10.461,46.542,46.542,0,0,1-.024,9.131c-.1,1.322.166,1.564,1.473,1.259,1.624-.379,2.983-1.217,4.669-.476a2.567,2.567,0,0,1,1.665,2.234,2.472,2.472,0,0,1-.918,1.74,9.5,9.5,0,0,1-2.741,1.439c-.733.3-1.5.527-2.209.862-1.474.691-1.9,1.6-1.209,3.062,2.389,5.05,5.9,8.884,11.578,10.215a2.712,2.712,0,0,1,1.668,1.007v.951a4.4,4.4,0,0,1-2.593,2.132,11.956,11.956,0,0,1-3.418.967,2.6,2.6,0,0,0-2.763,2.537c-.239,1.63-.729,1.86-2.392,1.727-.393-.031-.784-.1-1.173-.174-3.254-.578-6.309-.248-8.986,1.914a19.291,19.291,0,0,1-1.667,1.14c-4.56,2.958-9.229,3.3-13.992.521-1.3-.757-2.529-1.63-3.789-2.454a8.368,8.368,0,0,0-3.415-1.251,21.94,21.94,0,0,0-5.785.355c-.988.109-1.942-.173-2-1.194-.134-2.46-1.643-3.062-3.712-3.29a10.548,10.548,0,0,1-2.825-.878A4.152,4.152,0,0,1,4866.536,4281.355Z" transform="translate(-4866.536 -4236.726)" fill="#fff" stroke="#000" stroke-miterlimit="10" stroke-width="3.071"/>
      </g>
    </g>
    <g id="Grupo_14023" data-name="Grupo 14023" transform="translate(5245.94 4248.809)">
      <g id="Grupo_14022" data-name="Grupo 14022">
        <path id="Trazado_22902" data-name="Trazado 22902" d="M5264.712,4256.61a13.252,13.252,0,0,0-13.252-13.252h-34.371a13.252,13.252,0,0,0-13.252,13.252v16.108a13.252,13.252,0,0,0,13.252,13.252h34.371a13.251,13.251,0,0,0,13.252-13.252Zm-21.685,8.866-13.708,7.518c-.6.322-1.132-.107-1.132-.787v-15.431c0-.687.553-1.117,1.149-.777l13.8,7.914A.9.9,0,0,1,5243.027,4265.477Z" transform="translate(-5203.836 -4243.358)" fill="#fff"/>
      </g>
    </g>
    <g id="Grupo_14024" data-name="Grupo 14024" transform="translate(5805.94 4239.677)">
      <path id="Trazado_22903" data-name="Trazado 22903" d="M5752.1,4245.234a3.579,3.579,0,1,0,3.579,3.58A3.579,3.579,0,0,0,5752.1,4245.234Z" transform="translate(-5705.648 -4234.026)" fill="#fff"/>
      <path id="Trazado_22904" data-name="Trazado 22904" d="M5738.831,4249.381a15.033,15.033,0,1,0,15.033,15.033A15.051,15.051,0,0,0,5738.831,4249.381Zm0,24.664a9.63,9.63,0,1,1,9.63-9.631A9.641,9.641,0,0,1,5738.831,4274.045Z" transform="translate(-5708.29 -4233.583)" fill="#fff"/>
      <path id="Trazado_22905" data-name="Trazado 22905" d="M5770.662,4253.444a18.336,18.336,0,0,0-18.336-18.336h-24.2a18.336,18.336,0,0,0-18.337,18.336v24.2a18.336,18.336,0,0,0,18.337,18.335h24.2a18.336,18.336,0,0,0,18.336-18.335Zm-5.743,24.2a12.593,12.593,0,0,1-12.593,12.593h-24.2a12.593,12.593,0,0,1-12.593-12.593v-24.2a12.593,12.593,0,0,1,12.593-12.593h24.2a12.594,12.594,0,0,1,12.593,12.593Z" transform="translate(-5709.786 -4235.108)" fill="#fff"/>
    </g>
    <g id="Grupo_14026" data-name="Grupo 14026" transform="translate(5226.643 4395.233)">
      <g id="Grupo_14025" data-name="Grupo 14025">
        <path id="Trazado_22906" data-name="Trazado 22906" d="M5264.966,4390.82c-22.857,0-22.887,22.772-22.887,22.89,0,0-1.566,22.8,22.887,22.8,0,0,18.407,1.047,20.246-13.45a2.145,2.145,0,0,0-2.12-2.417h-6.4a2.1,2.1,0,0,0-2.027,1.48c-.561,1.894-2.524,4.931-9.353,4.931,0,0-8.862.589-10.281-7.92a2.122,2.122,0,0,1,2.113-2.436h26.574a2.124,2.124,0,0,0,2.13-2.043C5286.06,4408.541,5284.94,4390.82,5264.966,4390.82Zm-8.649,17.9a1.243,1.243,0,0,1-1.187-1.625c.851-2.633,3.34-7.542,10.068-7.542,6.938,0,8.576,5.183,8.962,7.755a1.239,1.239,0,0,1-1.234,1.411Zm-27.453-5.306a.886.886,0,0,1-.153-1.629c2.552-1.295,5.557-4.124,5.557-10.265,0-10.645-7.426-15.868-16.854-15.868h-29.446a1.566,1.566,0,0,0-1.565,1.565v56.479a1.566,1.566,0,0,0,1.565,1.566h29.444s18.942.581,18.942-17.606C5236.354,4417.654,5236.99,4406.094,5228.864,4403.412Zm-28.8-16.043a1.132,1.132,0,0,1,1.131-1.131h16.215s4.208,0,4.208,6.208-2.466,7.107-5.281,7.107H5201.2a1.131,1.131,0,0,1-1.131-1.13Zm16.477,37.3H5201.2a1.131,1.131,0,0,1-1.131-1.13v-13.694a1.132,1.132,0,0,1,1.131-1.131h16.215s6.3-.058,6.266,8.209C5223.678,4423.89,5219.009,4424.615,5216.543,4424.673Zm35.6-46.643v5.1a1.121,1.121,0,0,0,1.121,1.121h22.359a1.122,1.122,0,0,0,1.121-1.121v-5.1a1.121,1.121,0,0,0-1.121-1.12h-22.359A1.121,1.121,0,0,0,5252.144,4378.03Z" transform="translate(-5186.402 -4375.65)" fill="#fff"/>
      </g>
    </g>
    <g id="Grupo_14028" data-name="Grupo 14028" transform="translate(5619.273 4387.885)">
      <g id="Grupo_14027" data-name="Grupo 14027">
        <path id="Trazado_22907" data-name="Trazado 22907" d="M5576.659,4425.764c-4.764-.367-6.765-2.729-10.5-5-1.665,8.733-3.628,17.173-8.272,22.93a2.353,2.353,0,0,1-4.189-1.318c-.7-13.914,4.1-24.958,6.465-36.609-4.484-7.549.539-22.74,10-19,11.64,4.6-10.078,28.064,4.5,30.994,15.22,3.06,21.434-26.409,11.993-35.994-13.637-13.838-39.695-.314-36.491,19.5.606,3.766,3.767,5.493,3.364,9.215a3.312,3.312,0,0,1-4.74,2.658c-6.038-2.822-7.909-9-7.622-16.87.541-15.023,13.5-25.541,26.5-27,16.438-1.841,31.866,6.036,34,21.5,2.4,17.452-7.421,36.35-25,34.993Z" transform="translate(-5541.136 -4369.011)" fill="#fff"/>
      </g>
    </g>
    <g id="Grupo_14033" data-name="Grupo 14033" transform="translate(4872.551 4395.178)">
      <path id="Trazado_22908" data-name="Trazado 22908" d="M4894.239,4375.6a30.493,30.493,0,0,1,0,60.987l-2.1-29.132Z" transform="translate(-4863.746 -4375.6)" fill="#ff0084"/>
      <path id="Trazado_22909" data-name="Trazado 22909" d="M4896.979,4436.587a30.493,30.493,0,1,1,0-60.987" transform="translate(-4866.486 -4375.6)" fill="#4176fa"/>
      <g id="Grupo_14032" data-name="Grupo 14032" transform="translate(14.53 24.185)">
        <g id="Grupo_14031" data-name="Grupo 14031">
          <g id="Grupo_14029" data-name="Grupo 14029" transform="translate(19.266)">
            <path id="Trazado_22910" data-name="Trazado 22910" d="M4909.636,4403.759a6.308,6.308,0,1,1-6.305-6.308A6.306,6.306,0,0,1,4909.636,4403.759Z" transform="translate(-4897.021 -4397.451)" fill="#fff"/>
          </g>
          <g id="Grupo_14030" data-name="Grupo 14030">
            <path id="Trazado_22911" data-name="Trazado 22911" d="M4892.229,4403.759a6.308,6.308,0,1,1-6.31-6.308A6.307,6.307,0,0,1,4892.229,4403.759Z" transform="translate(-4879.614 -4397.451)" fill="#fff"/>
          </g>
        </g>
      </g>
    </g>
    <g id="Grupo_14035" data-name="Grupo 14035" transform="translate(5819.122 4395.233)">
      <g id="Grupo_14034" data-name="Grupo 14034">
        <path id="Trazado_22912" data-name="Trazado 22912" d="M5742.19,4387.689v-10.843a1.2,1.2,0,0,0-1.2-1.2h-6.409a1.2,1.2,0,0,0-1.19,1.046c-.258,1.615-3.655,9.728-7.973,11.6a6.627,6.627,0,0,1-2.583.613,1.192,1.192,0,0,0-1.144,1.192v8.26a1.2,1.2,0,0,0,1.2,1.2h3.895a1.2,1.2,0,0,1,1.2,1.192c.095,14.232.1,22.875.1,22.931.809,6.5,4.229,10.4,10.282,11.867a29.176,29.176,0,0,0,7.742.98,36.232,36.232,0,0,0,9.248-1.5,1.2,1.2,0,0,0,.849-1.149v-10.067a1.2,1.2,0,0,0-1.537-1.146c-1.354.4-2.611.758-3.757,1.112a7.4,7.4,0,0,1-7.653-1.661,4.065,4.065,0,0,1-.586-1.087,27.079,27.079,0,0,1-.473-4.8v-15.48a1.2,1.2,0,0,1,1.2-1.2h11.223a1.2,1.2,0,0,0,1.2-1.2v-8.279a1.2,1.2,0,0,0-1.2-1.2h-11.233A1.2,1.2,0,0,1,5742.19,4387.689Z" transform="translate(-5721.696 -4375.65)" fill="#fff"/>
      </g>
    </g>
    <g id="Grupo_14039" data-name="Grupo 14039" transform="translate(5059.274 4396.6)">
      <g id="Grupo_14037" data-name="Grupo 14037" transform="translate(0.852 18.019)">
        <g id="Grupo_14036" data-name="Grupo 14036">
          <path id="Trazado_22913" data-name="Trazado 22913" d="M5095.979,4410.807v21.518a.963.963,0,0,1-.962.963h-11.109a.963.963,0,0,1-.963-.963v-20.012c0-5.266-1.882-8.863-6.6-8.863a7.131,7.131,0,0,0-6.685,4.767,8.926,8.926,0,0,0-.431,3.176v20.932a.963.963,0,0,1-.963.963h-11.1a.959.959,0,0,1-.962-.963c.025-5.328.137-31.186.023-37.264a.958.958,0,0,1,.963-.974h11.083a.963.963,0,0,1,.963.962v4.593c-.026.043-.063.086-.086.128h.086v-.128a12.941,12.941,0,0,1,11.747-6.477c8.576,0,15,5.6,15,17.642Zm-59.061,22.48h11.1a.962.962,0,0,0,.962-.963v-37.276a.962.962,0,0,0-.962-.962h-11.1a.963.963,0,0,0-.963.962v37.276A.962.962,0,0,0,5036.919,4433.288Z" transform="translate(-5035.956 -4393.165)" fill="#fff"/>
        </g>
      </g>
      <g id="Grupo_14038" data-name="Grupo 14038">
        <circle id="Elipse_875" data-name="Elipse 875" cx="6.977" cy="6.977" r="6.977" fill="#fff"/>
      </g>
    </g>
    <g id="Grupo_14040" data-name="Grupo 14040" transform="translate(5432.606 4395.233)">
      <path id="Trazado_22914" data-name="Trazado 22914" d="M5405.7,4375.774a30.441,30.441,0,1,0,27.537,27.537A30.47,30.47,0,0,0,5405.7,4375.774Zm17.238,15.316a24.889,24.889,0,0,1,4.97,13.672.469.469,0,0,1-.565.477,45.834,45.834,0,0,0-15.812-.614.461.461,0,0,1-.491-.279q-.851-2.024-1.741-3.9a.456.456,0,0,1,.229-.613,42.254,42.254,0,0,0,12.706-8.78A.467.467,0,0,1,5422.939,4391.09Zm-4.462-3.929a36.7,36.7,0,0,1-11.413,7.9.474.474,0,0,1-.6-.208,96.482,96.482,0,0,0-8.234-12.649.468.468,0,0,1,.282-.746,24.986,24.986,0,0,1,19.926,5A.477.477,0,0,1,5418.477,4387.161Zm-25.961-3.439a87.111,87.111,0,0,1,8.738,12.871.475.475,0,0,1-.273.687c-6.424,1.874-13.694,2.7-21.769,3a.473.473,0,0,1-.478-.586,25.125,25.125,0,0,1,13.216-16.091A.466.466,0,0,1,5392.516,4383.722Zm-14.151,22c8.679-.279,17.347-1.129,25.292-3.646a.46.46,0,0,1,.559.239q.719,1.509,1.416,3.12a.467.467,0,0,1-.285.628c-7.9,2.566-14.94,7.785-21.228,15.692a.469.469,0,0,1-.709.035c-3.524-3.833-5.417-9.54-5.5-15.6A.468.468,0,0,1,5378.365,4405.725Zm9.646,19.835c5.8-7.435,12.183-12.226,19.389-14.465a.474.474,0,0,1,.585.291,95.8,95.8,0,0,1,4.434,17.458.478.478,0,0,1-.291.515,24.964,24.964,0,0,1-24.029-3.125A.476.476,0,0,1,5388.011,4425.56Zm29.357.106a101.121,101.121,0,0,0-4-15.249.465.465,0,0,1,.389-.617,41.943,41.943,0,0,1,13.284.907.48.48,0,0,1,.365.56,25.065,25.065,0,0,1-9.3,14.7A.468.468,0,0,1,5417.369,4425.666Z" transform="translate(-5372.486 -4375.65)" fill="#fff"/>
    </g>
    <g id="Grupo_14041" data-name="Grupo 14041" transform="translate(5618.656 4550.171)">
      <path id="Trazado_22915" data-name="Trazado 22915" d="M5585.315,4573.313a12.918,12.918,0,0,1-6.408-1.695l-1.394-.793-1.574.276a24.83,24.83,0,0,1-29.093-24.416,24.457,24.457,0,0,1,.375-4.3l.28-1.578-.8-1.387a12.951,12.951,0,0,1,17.653-17.667l1.391.8,1.574-.275a24.816,24.816,0,0,1,29.1,24.408,24.541,24.541,0,0,1-.375,4.309l-.276,1.575.8,1.394a12.948,12.948,0,0,1-11.249,19.351m15.087-21.552a29.234,29.234,0,0,0-33.844-33.847,17.375,17.375,0,0,0-23.7,23.7,29.254,29.254,0,0,0,33.851,33.847,17.369,17.369,0,0,0,23.692-23.7" transform="translate(-5540.578 -4515.634)" fill="#fff"/>
      <path id="Trazado_22916" data-name="Trazado 22916" d="M5575.322,4542.629l-6.558-1.469c-2.491-.577-5.307-1.38-5.307-3.757s1.919-4.073,5.556-4.073c7.328,0,6.724,5.1,10.361,5.1,1.913,0,3.563-1.067,3.563-3.017,0-4.564-7.292-7.925-13.424-7.925-6.653,0-13.637,2.744-13.637,10.345,0,3.657,1.25,7.6,8.385,9.411l8.858,2.229c2.68.67,3.47,2.195,3.47,3.568,0,2.287-2.378,4.714-6.452,4.714-7.953,0-6.844-6.354-11.1-6.354a3.219,3.219,0,0,0-3.412,3.211c0,3.7,4.55,8.752,14.514,8.752,9.476,0,14.285-4.771,14.285-10.941,0-3.988-1.919-8.177-9.1-9.793" transform="translate(-5538.971 -4514.368)" fill="#fff"/>
    </g>
    <path id="Trazado_22917" data-name="Trazado 22917" d="M5095.756,4541.474l-.508-1.057-.854-.671c-1.119-.875-6.774.061-8.3-1.322-1.078-1-1.241-2.787-1.566-5.208-.609-4.7-1-4.942-1.729-6.528-2.664-5.654-9.885-9.906-14.847-10.5h-13.444a19.289,19.289,0,0,0-19.221,19.241v22.435a19.266,19.266,0,0,0,19.221,19.2H5076.6a19.305,19.305,0,0,0,19.22-19.2l.122-15.539Zm-41-9.56h10.659a3.671,3.671,0,1,1,0,7.342h-10.659a3.671,3.671,0,1,1,0-7.342Zm21.662,29.33h-21.662a3.661,3.661,0,1,1,0-7.323h21.662a3.661,3.661,0,1,1,0,7.323Z" transform="translate(24.098 34.596)" fill="#fff" fill-rule="evenodd"/>
    <g id="Grupo_14043" data-name="Grupo 14043" transform="translate(5432.606 4545.541)">
      <path id="Trazado_22918" data-name="Trazado 22918" d="M5376.92,4532.48h-.178a4.265,4.265,0,0,0-4.256,4.256v18.525a4.265,4.265,0,0,0,4.256,4.259h.178a4.265,4.265,0,0,0,4.255-4.259v-18.525a4.274,4.274,0,0,0-4.255-4.256Zm0,0" transform="translate(-5372.486 -4509.204)" fill="#f2f3f4"/>
      <g id="Grupo_14042" data-name="Grupo 14042" transform="translate(10.595)">
        <path id="Trazado_22919" data-name="Trazado 22919" d="M5382.178,4562.338a3.907,3.907,0,0,0,3.916,3.9h4.18v10.015a4.255,4.255,0,0,0,4.258,4.255h.175a4.266,4.266,0,0,0,4.259-4.255v-10.015h5.847v10.015a4.265,4.265,0,0,0,4.256,4.255h.179a4.264,4.264,0,0,0,4.254-4.255v-10.015h4.183a3.917,3.917,0,0,0,3.913-3.9V4533.1h-39.421Zm0,0" transform="translate(-5382.045 -4509.137)" fill="#f2f3f4"/>
        <path id="Trazado_22920" data-name="Trazado 22920" d="M5411.714,4517.671l3.322-5.131a.7.7,0,0,0-.209-.967.672.672,0,0,0-.967.209l-3.451,5.3a22.75,22.75,0,0,0-17.009,0l-3.44-5.3a.684.684,0,0,0-.979-.209.7.7,0,0,0-.21.967l3.318,5.131c-5.982,2.934-10.03,8.469-10.03,14.809,0,.388.03.772.061,1.161h39.569c.027-.389.058-.773.058-1.161,0-6.34-4.047-11.875-10.031-14.809Zm-18.986,9.17a1.9,1.9,0,1,1,1.9-1.905,1.9,1.9,0,0,1-1.9,1.905Zm18.347,0a1.9,1.9,0,1,1,1.9-1.905,1.9,1.9,0,0,1-1.9,1.905Zm0,0" transform="translate(-5382.058 -4511.45)" fill="#f2f3f4"/>
        <path id="Trazado_22921" data-name="Trazado 22921" d="M5424.07,4532.48h-.179a4.265,4.265,0,0,0-4.256,4.256v18.525a4.276,4.276,0,0,0,4.256,4.259h.179a4.265,4.265,0,0,0,4.254-4.259v-18.525a4.272,4.272,0,0,0-4.254-4.256Zm0,0" transform="translate(-5378.044 -4509.204)" fill="#f2f3f4"/>
      </g>
    </g>
    <path id="Trazado_22922" data-name="Trazado 22922" d="M5201.208,4563.431q.305-.487.975-.062a65.76,65.76,0,0,0,56.674,4.383c.2-.081.5-.2.884-.365s.659-.283.821-.365a1.083,1.083,0,0,1,1.431.365q.516.731-.335,1.339-1.1.792-2.8,1.827a45.585,45.585,0,0,1-11.687,4.809,49.054,49.054,0,0,1-45.718-10.958.829.829,0,0,1-.365-.608A.658.658,0,0,1,5201.208,4563.431Zm18.324-17.35a12.293,12.293,0,0,1,2.07-7.183,12.787,12.787,0,0,1,5.661-4.5,30.643,30.643,0,0,1,8.1-2.009q1.644-.182,5.357-.487v-1.035q0-3.894-.853-5.235a4.563,4.563,0,0,0-4.018-1.826h-.487a6.654,6.654,0,0,0-3.47,1.279,4.989,4.989,0,0,0-1.887,3.043,1.543,1.543,0,0,1-1.218,1.4l-7-.852q-1.034-.242-1.035-1.1a1.845,1.845,0,0,1,.061-.426,11.671,11.671,0,0,1,5.084-8.036,19.093,19.093,0,0,1,9.465-2.922h1.521q6.94,0,10.836,3.592a11.7,11.7,0,0,1,1.127,1.31,11.843,11.843,0,0,1,.821,1.247,6.318,6.318,0,0,1,.548,1.583q.244,1.036.365,1.432a8.531,8.531,0,0,1,.183,1.7c.041.872.061,1.391.061,1.552v14.732a8.733,8.733,0,0,0,.457,2.892,7.573,7.573,0,0,0,.882,1.887q.426.578,1.4,1.856a1.827,1.827,0,0,1,.365.975,1.051,1.051,0,0,1-.487.852q-5.053,4.383-5.479,4.748a1.7,1.7,0,0,1-1.766.122,20.441,20.441,0,0,1-1.491-1.4q-.639-.669-.914-.974a13.476,13.476,0,0,1-.883-1.187q-.608-.883-.853-1.187a14.944,14.944,0,0,1-6.7,4.626,18.352,18.352,0,0,1-5.113.609,10.665,10.665,0,0,1-7.7-2.891Q5219.532,4551.378,5219.531,4546.081Zm10.471-1.217a5.77,5.77,0,0,0,1.188,3.806,3.935,3.935,0,0,0,3.195,1.43,3.093,3.093,0,0,0,.519-.061,3.178,3.178,0,0,1,.456-.061,6.183,6.183,0,0,0,3.957-3.287,9.53,9.53,0,0,0,1.005-2.526,11.68,11.68,0,0,0,.365-2.222q.03-.852.03-2.8v-1.522a22.2,22.2,0,0,0-5.357.488Q5230,4539.629,5230,4544.864Zm25.568,19.6a1.95,1.95,0,0,1,.365-.487,9.572,9.572,0,0,1,2.921-1.4,19.91,19.91,0,0,1,4.505-.669,3.671,3.671,0,0,1,1.157.061q2.739.245,3.287.913a1.987,1.987,0,0,1,.243,1.1v.426a13.879,13.879,0,0,1-1.156,5.023,11.666,11.666,0,0,1-3.227,4.656.912.912,0,0,1-.548.243.53.53,0,0,1-.243-.061c-.244-.122-.3-.344-.183-.669q2.252-5.3,2.252-7.366a1.56,1.56,0,0,0-.243-.974q-.608-.731-3.409-.731-1.035,0-2.436.122-1.52.182-2.8.365a.7.7,0,0,1-.487-.122.2.2,0,0,1-.061-.243A.483.483,0,0,1,5255.57,4564.466Z" transform="translate(41.81 34.596)" fill="#fff"/>
    <path id="Trazado_22923" data-name="Trazado 22923" d="M4896.974,4516.191a30.438,30.438,0,1,0,30.438,30.438,30.438,30.438,0,0,0-30.437-30.437Zm13.959,43.9a1.9,1.9,0,0,1-2.609.631c-7.147-4.368-16.144-5.354-26.739-2.935a1.9,1.9,0,1,1-.844-3.7c11.594-2.65,21.54-1.51,29.563,3.394a1.9,1.9,0,0,1,.628,2.608Zm3.726-8.287a2.376,2.376,0,0,1-3.265.782c-8.181-5.029-20.653-6.485-30.33-3.547a2.373,2.373,0,1,1-1.379-4.541c11.054-3.355,24.8-1.73,34.191,4.044a2.37,2.37,0,0,1,.781,3.262Zm.32-8.63c-9.812-5.827-26-6.363-35.362-3.519a2.847,2.847,0,0,1-1.653-5.449c10.752-3.264,28.626-2.633,39.92,4.072a2.847,2.847,0,0,1-2.905,4.9Z" transform="translate(6.071 34.596)" fill="#fff"/>
    <g id="Grupo_14048" data-name="Grupo 14048" transform="translate(5805.94 4545.591)">
      <g id="Grupo_14045" data-name="Grupo 14045" transform="translate(29.257)">
        <g id="Grupo_14044" data-name="Grupo 14044">
          <path id="Trazado_22924" data-name="Trazado 22924" d="M5750.76,4511.5a16.722,16.722,0,0,0-10.828,5.861c-2.361,2.874-4.3,7.141-3.545,11.288,4.151.129,8.441-2.361,10.927-5.582A15.678,15.678,0,0,0,5750.76,4511.5Z" transform="translate(-5736.22 -4511.497)"/>
        </g>
      </g>
      <g id="Grupo_14047" data-name="Grupo 14047" transform="translate(0 16.681)">
        <g id="Grupo_14046" data-name="Grupo 14046">
          <path id="Trazado_22925" data-name="Trazado 22925" d="M5768.6,4533.8c-3.648-4.575-8.775-7.23-13.617-7.23-6.392,0-9.1,3.061-13.537,3.061-4.579,0-8.058-3.051-13.586-3.051-5.429,0-11.211,3.319-14.877,8.994-5.153,7.991-4.271,23.015,4.08,35.813,2.99,4.579,6.981,9.728,12.2,9.772,4.647.045,5.957-2.98,12.25-3.011s7.487,3.051,12.125,3c5.225-.04,9.434-5.745,12.423-10.324a51.416,51.416,0,0,0,4.6-8.641C5758.578,4557.578,5756.64,4540.394,5768.6,4533.8Z" transform="translate(-5709.786 -4526.567)"/>
        </g>
      </g>
    </g>
  </g>
</svg>
