<svg xmlns="http://www.w3.org/2000/svg" width="265" height="265" viewBox="0 0 265 265">
  <g id="Grupo_14194" data-name="Grupo 14194" transform="translate(-14459 1932.653)">
    <circle id="Elipse_871" data-name="Elipse 871" cx="132.5" cy="132.5" r="132.5" transform="translate(14459 -1932.653)" fill="#63ae57"/>
    <path id="Trazado_22651" data-name="Trazado 22651" d="M2868.439,5444.591a2.145,2.145,0,0,1-.89,1.844,4.188,4.188,0,0,1-2.5.648,5.438,5.438,0,0,1-2.656-.539v-1.2a6.434,6.434,0,0,0,1.324.492,5.514,5.514,0,0,0,1.363.18,3.1,3.1,0,0,0,1.563-.325,1.116,1.116,0,0,0,.113-1.843,6.78,6.78,0,0,0-1.692-.84,9.216,9.216,0,0,1-1.7-.777,2.334,2.334,0,0,1-.75-.754,1.972,1.972,0,0,1-.246-1.008,1.922,1.922,0,0,1,.852-1.653,3.972,3.972,0,0,1,2.336-.6,6.834,6.834,0,0,1,2.7.563l-.461,1.054a6.212,6.212,0,0,0-2.336-.531,2.7,2.7,0,0,0-1.391.289.893.893,0,0,0-.468.8.97.97,0,0,0,.175.586,1.735,1.735,0,0,0,.567.461,12.86,12.86,0,0,0,1.5.633,5.6,5.6,0,0,1,2.058,1.117A1.969,1.969,0,0,1,2868.439,5444.591Z" transform="translate(11654.865 -7239.473)" fill="#fff"/>
    <path id="Trazado_22652" data-name="Trazado 22652" d="M2874.166,5447.083a3.935,3.935,0,0,1-3-1.156,4.475,4.475,0,0,1-1.1-3.211,4.963,4.963,0,0,1,1.02-3.289,3.385,3.385,0,0,1,2.738-1.219,3.228,3.228,0,0,1,2.547,1.059,4.056,4.056,0,0,1,.937,2.793v.82h-5.9a3.393,3.393,0,0,0,.762,2.289,2.636,2.636,0,0,0,2.035.781,6.889,6.889,0,0,0,2.734-.578v1.156a6.746,6.746,0,0,1-1.3.426A7.307,7.307,0,0,1,2874.166,5447.083Zm-.352-7.789a2.119,2.119,0,0,0-1.644.672,3.1,3.1,0,0,0-.723,1.859h4.477a2.857,2.857,0,0,0-.547-1.879A1.929,1.929,0,0,0,2873.814,5439.294Z" transform="translate(11654.865 -7239.473)" fill="#fff"/>
    <path id="Trazado_22653" data-name="Trazado 22653" d="M2885.385,5446.927v-5.539a2.232,2.232,0,0,0-.477-1.563,1.938,1.938,0,0,0-1.492-.515,2.463,2.463,0,0,0-1.969.726,3.667,3.667,0,0,0-.625,2.4v4.492h-1.3v-8.563h1.055l.211,1.172h.063a2.629,2.629,0,0,1,1.117-.98,3.623,3.623,0,0,1,1.6-.348,3.251,3.251,0,0,1,2.328.746,3.174,3.174,0,0,1,.782,2.387v5.586Z" transform="translate(11654.865 -7239.473)" fill="#fff"/>
    <path id="Trazado_22654" data-name="Trazado 22654" d="M2894.869,5444.591a2.147,2.147,0,0,1-.89,1.844,4.188,4.188,0,0,1-2.5.648,5.445,5.445,0,0,1-2.657-.539v-1.2a6.456,6.456,0,0,0,1.324.492,5.522,5.522,0,0,0,1.364.18,3.091,3.091,0,0,0,1.562-.325,1.116,1.116,0,0,0,.114-1.843,6.8,6.8,0,0,0-1.692-.84,9.192,9.192,0,0,1-1.7-.777,2.334,2.334,0,0,1-.75-.754,1.974,1.974,0,0,1-.246-1.008,1.924,1.924,0,0,1,.851-1.653,3.977,3.977,0,0,1,2.336-.6,6.83,6.83,0,0,1,2.7.563l-.46,1.054a6.211,6.211,0,0,0-2.336-.531,2.7,2.7,0,0,0-1.391.289.892.892,0,0,0-.469.8.971.971,0,0,0,.176.586,1.74,1.74,0,0,0,.566.461,13.016,13.016,0,0,0,1.5.633,5.6,5.6,0,0,1,2.059,1.117A1.973,1.973,0,0,1,2894.869,5444.591Z" transform="translate(11654.865 -7239.473)" fill="#fff"/>
    <path id="Trazado_22655" data-name="Trazado 22655" d="M2902.244,5446.927l-.258-1.219h-.062a3.611,3.611,0,0,1-1.278,1.09,3.892,3.892,0,0,1-1.589.285,2.86,2.86,0,0,1-2-.656,2.393,2.393,0,0,1-.723-1.867q0-2.595,4.148-2.719l1.453-.047v-.531a2.176,2.176,0,0,0-.433-1.489,1.785,1.785,0,0,0-1.387-.48,5.66,5.66,0,0,0-2.422.656l-.4-.992a6.083,6.083,0,0,1,1.387-.539,6.011,6.011,0,0,1,1.511-.195,3.265,3.265,0,0,1,2.27.679,2.839,2.839,0,0,1,.738,2.18v5.844Zm-2.93-.914a2.636,2.636,0,0,0,1.9-.664,2.459,2.459,0,0,0,.691-1.86v-.773l-1.3.055a4.709,4.709,0,0,0-2.23.48,1.45,1.45,0,0,0-.684,1.324,1.339,1.339,0,0,0,.426,1.071A1.765,1.765,0,0,0,2899.314,5446.013Z" transform="translate(11654.865 -7239.473)" fill="#fff"/>
    <path id="Trazado_22656" data-name="Trazado 22656" d="M2909.3,5447.083a3.656,3.656,0,0,1-2.879-1.145,4.7,4.7,0,0,1-1.02-3.238,4.85,4.85,0,0,1,1.036-3.32,3.726,3.726,0,0,1,2.949-1.172,5.827,5.827,0,0,1,1.234.133,4.113,4.113,0,0,1,.969.312l-.4,1.1a6.053,6.053,0,0,0-.937-.285,4.215,4.215,0,0,0-.9-.114q-2.61,0-2.61,3.329a3.957,3.957,0,0,0,.637,2.421,2.216,2.216,0,0,0,1.887.844,5.754,5.754,0,0,0,2.195-.461v1.149A4.678,4.678,0,0,1,2909.3,5447.083Z" transform="translate(11654.865 -7239.473)" fill="#fff"/>
    <path id="Trazado_22657" data-name="Trazado 22657" d="M2913.385,5436.044a.858.858,0,0,1,.219-.652.809.809,0,0,1,1.085,0,.84.84,0,0,1,.227.648.853.853,0,0,1-.227.652.754.754,0,0,1-.539.215.744.744,0,0,1-.546-.215A.874.874,0,0,1,2913.385,5436.044Zm1.406,10.883h-1.3v-8.563h1.3Z" transform="translate(11654.865 -7239.473)" fill="#fff"/>
    <path id="Trazado_22658" data-name="Trazado 22658" d="M2924.932,5442.638a4.724,4.724,0,0,1-1.055,3.269,3.715,3.715,0,0,1-2.914,1.176,3.863,3.863,0,0,1-2.039-.539,3.554,3.554,0,0,1-1.375-1.547,5.388,5.388,0,0,1-.485-2.359,4.715,4.715,0,0,1,1.047-3.262,3.708,3.708,0,0,1,2.907-1.168,3.621,3.621,0,0,1,2.855,1.195A4.7,4.7,0,0,1,2924.932,5442.638Zm-6.524,0a4.072,4.072,0,0,0,.656,2.5,2.606,2.606,0,0,0,3.864,0,4.049,4.049,0,0,0,.66-2.5,3.981,3.981,0,0,0-.66-2.481,2.319,2.319,0,0,0-1.949-.847,2.28,2.28,0,0,0-1.922.836A4.017,4.017,0,0,0,2918.408,5442.638Z" transform="translate(11654.865 -7239.473)" fill="#fff"/>
    <path id="Trazado_22659" data-name="Trazado 22659" d="M2933.064,5446.927v-5.539a2.237,2.237,0,0,0-.476-1.563,1.939,1.939,0,0,0-1.492-.515,2.462,2.462,0,0,0-1.969.726,3.667,3.667,0,0,0-.625,2.4v4.492h-1.3v-8.563h1.055l.211,1.172h.062a2.641,2.641,0,0,1,1.117-.98,3.631,3.631,0,0,1,1.6-.348,3.253,3.253,0,0,1,2.328.746,3.174,3.174,0,0,1,.781,2.387v5.586Z" transform="translate(11654.865 -7239.473)" fill="#fff"/>
    <path id="Trazado_22660" data-name="Trazado 22660" d="M2940.643,5447.083a3.939,3.939,0,0,1-3-1.156,4.479,4.479,0,0,1-1.1-3.211,4.966,4.966,0,0,1,1.019-3.289,3.386,3.386,0,0,1,2.739-1.219,3.229,3.229,0,0,1,2.547,1.059,4.056,4.056,0,0,1,.937,2.793v.82h-5.9a3.4,3.4,0,0,0,.761,2.289,2.637,2.637,0,0,0,2.035.781,6.9,6.9,0,0,0,2.735-.578v1.156a6.768,6.768,0,0,1-1.3.426A7.307,7.307,0,0,1,2940.643,5447.083Zm-.352-7.789a2.122,2.122,0,0,0-1.645.672,3.1,3.1,0,0,0-.722,1.859h4.476a2.857,2.857,0,0,0-.546-1.879A1.93,1.93,0,0,0,2940.291,5439.294Z" transform="translate(11654.865 -7239.473)" fill="#fff"/>
    <path id="Trazado_22661" data-name="Trazado 22661" d="M2951.525,5444.591a2.145,2.145,0,0,1-.89,1.844,4.188,4.188,0,0,1-2.5.648,5.438,5.438,0,0,1-2.656-.539v-1.2a6.434,6.434,0,0,0,1.324.492,5.514,5.514,0,0,0,1.363.18,3.1,3.1,0,0,0,1.563-.325,1.116,1.116,0,0,0,.113-1.843,6.78,6.78,0,0,0-1.692-.84,9.224,9.224,0,0,1-1.7-.777,2.334,2.334,0,0,1-.75-.754,1.974,1.974,0,0,1-.246-1.008,1.922,1.922,0,0,1,.852-1.653,3.973,3.973,0,0,1,2.336-.6,6.837,6.837,0,0,1,2.7.563l-.461,1.054a6.211,6.211,0,0,0-2.336-.531,2.7,2.7,0,0,0-1.391.289.894.894,0,0,0-.469.8.971.971,0,0,0,.176.586,1.735,1.735,0,0,0,.567.461,12.86,12.86,0,0,0,1.5.633,5.6,5.6,0,0,1,2.058,1.117A1.969,1.969,0,0,1,2951.525,5444.591Z" transform="translate(11654.865 -7239.473)" fill="#fff"/>
    <path id="Trazado_22662" data-name="Trazado 22662" d="M2963.619,5445.778h-.07a3.048,3.048,0,0,1-2.688,1.305,3.179,3.179,0,0,1-2.613-1.148,5.06,5.06,0,0,1-.934-3.266,5.141,5.141,0,0,1,.938-3.289,3.156,3.156,0,0,1,2.609-1.172,3.114,3.114,0,0,1,2.672,1.266h.1l-.055-.618-.031-.6v-3.484h1.3v12.156h-1.055Zm-2.594.219a2.36,2.36,0,0,0,1.926-.723,3.643,3.643,0,0,0,.6-2.332v-.273a4.3,4.3,0,0,0-.606-2.6,2.3,2.3,0,0,0-1.933-.777,1.984,1.984,0,0,0-1.746.887,4.4,4.4,0,0,0-.606,2.5,4.219,4.219,0,0,0,.6,2.476A2.034,2.034,0,0,0,2961.025,5446Z" transform="translate(11654.865 -7239.473)" fill="#fff"/>
    <path id="Trazado_22663" data-name="Trazado 22663" d="M2971.213,5447.083a3.935,3.935,0,0,1-3-1.156,4.475,4.475,0,0,1-1.1-3.211,4.963,4.963,0,0,1,1.02-3.289,3.384,3.384,0,0,1,2.738-1.219,3.229,3.229,0,0,1,2.547,1.059,4.056,4.056,0,0,1,.937,2.793v.82h-5.9a3.394,3.394,0,0,0,.762,2.289,2.636,2.636,0,0,0,2.035.781,6.888,6.888,0,0,0,2.734-.578v1.156a6.744,6.744,0,0,1-1.3.426A7.31,7.31,0,0,1,2971.213,5447.083Zm-.352-7.789a2.118,2.118,0,0,0-1.644.672,3.1,3.1,0,0,0-.723,1.859h4.477a2.857,2.857,0,0,0-.547-1.879A1.929,1.929,0,0,0,2970.861,5439.294Z" transform="translate(11654.865 -7239.473)" fill="#fff"/>
    <path id="Trazado_22664" data-name="Trazado 22664" d="M2985.994,5446.927l-.258-1.219h-.062a3.611,3.611,0,0,1-1.278,1.09,3.892,3.892,0,0,1-1.589.285,2.86,2.86,0,0,1-2-.656,2.393,2.393,0,0,1-.723-1.867q0-2.595,4.148-2.719l1.453-.047v-.531a2.176,2.176,0,0,0-.433-1.489,1.785,1.785,0,0,0-1.387-.48,5.66,5.66,0,0,0-2.422.656l-.4-.992a6.083,6.083,0,0,1,1.387-.539,6.011,6.011,0,0,1,1.511-.195,3.265,3.265,0,0,1,2.27.679,2.839,2.839,0,0,1,.738,2.18v5.844Zm-2.93-.914a2.636,2.636,0,0,0,1.9-.664,2.459,2.459,0,0,0,.691-1.86v-.773l-1.3.055a4.709,4.709,0,0,0-2.23.48,1.45,1.45,0,0,0-.684,1.324,1.339,1.339,0,0,0,.426,1.071A1.765,1.765,0,0,0,2983.064,5446.013Z" transform="translate(11654.865 -7239.473)" fill="#fff"/>
    <path id="Trazado_22665" data-name="Trazado 22665" d="M2989.518,5436.044a.861.861,0,0,1,.218-.652.81.81,0,0,1,1.086,0,.84.84,0,0,1,.227.648.853.853,0,0,1-.227.652.754.754,0,0,1-.539.215.746.746,0,0,1-.547-.215A.878.878,0,0,1,2989.518,5436.044Zm1.406,10.883h-1.3v-8.563h1.3Z" transform="translate(11654.865 -7239.473)" fill="#fff"/>
    <path id="Trazado_22666" data-name="Trazado 22666" d="M2997.58,5438.208a5.046,5.046,0,0,1,1.024.094l-.18,1.2a4.423,4.423,0,0,0-.938-.117,2.283,2.283,0,0,0-1.777.843,3.079,3.079,0,0,0-.738,2.1v4.594h-1.3v-8.563h1.07l.149,1.586h.062a3.745,3.745,0,0,1,1.149-1.289A2.583,2.583,0,0,1,2997.58,5438.208Z" transform="translate(11654.865 -7239.473)" fill="#fff"/>
    <path id="Trazado_22667" data-name="Trazado 22667" d="M3003.822,5447.083a3.938,3.938,0,0,1-3-1.156,4.479,4.479,0,0,1-1.1-3.211,4.962,4.962,0,0,1,1.019-3.289,3.386,3.386,0,0,1,2.738-1.219,3.227,3.227,0,0,1,2.547,1.059,4.056,4.056,0,0,1,.938,2.793v.82h-5.9a3.4,3.4,0,0,0,.762,2.289,2.636,2.636,0,0,0,2.035.781,6.9,6.9,0,0,0,2.735-.578v1.156a6.768,6.768,0,0,1-1.3.426A7.317,7.317,0,0,1,3003.822,5447.083Zm-.351-7.789a2.119,2.119,0,0,0-1.645.672,3.1,3.1,0,0,0-.722,1.859h4.476a2.857,2.857,0,0,0-.547-1.879A1.928,1.928,0,0,0,3003.471,5439.294Z" transform="translate(11654.865 -7239.473)" fill="#fff"/>
    <path id="Trazado_22668" data-name="Trazado 22668" d="M3010.541,5445.067l.117.18q-.2.781-.586,1.816t-.8,1.926h-.976q.21-.813.465-2.008t.355-1.914Z" transform="translate(11654.865 -7239.473)" fill="#fff"/>
    <path id="Trazado_22669" data-name="Trazado 22669" d="M2891.947,5466.127h-1.3v-12.156h1.3Z" transform="translate(11654.865 -7239.473)" fill="#fff"/>
    <path id="Trazado_22670" data-name="Trazado 22670" d="M2894.588,5455.244a.859.859,0,0,1,.219-.652.809.809,0,0,1,1.086,0,.843.843,0,0,1,.226.648.858.858,0,0,1-.226.652.755.755,0,0,1-.539.215.745.745,0,0,1-.547-.215A.875.875,0,0,1,2894.588,5455.244Zm1.406,10.883h-1.3v-8.563h1.3Z" transform="translate(11654.865 -7239.473)" fill="#fff"/>
    <path id="Trazado_22671" data-name="Trazado 22671" d="M2902.729,5457.424a3.183,3.183,0,0,1,2.621,1.152,6.173,6.173,0,0,1-.008,6.539,3.17,3.17,0,0,1-2.613,1.168,3.7,3.7,0,0,1-1.528-.308,2.879,2.879,0,0,1-1.16-.95h-.094l-.273,1.1h-.93v-12.156h1.3v2.953q0,.992-.062,1.781h.062A3.08,3.08,0,0,1,2902.729,5457.424Zm-.188,1.086a2.267,2.267,0,0,0-1.914.761,5.876,5.876,0,0,0,.016,5.149,2.287,2.287,0,0,0,1.929.777,2,2,0,0,0,1.782-.871,4.484,4.484,0,0,0,.585-2.5,4.309,4.309,0,0,0-.585-2.492A2.079,2.079,0,0,0,2902.541,5458.51Z" transform="translate(11654.865 -7239.473)" fill="#fff"/>
    <path id="Trazado_22672" data-name="Trazado 22672" d="M2912.455,5457.408a5.046,5.046,0,0,1,1.024.094l-.18,1.2a4.427,4.427,0,0,0-.938-.117,2.281,2.281,0,0,0-1.777.844,3.074,3.074,0,0,0-.738,2.1v4.594h-1.3v-8.563h1.07l.149,1.586h.062a3.749,3.749,0,0,1,1.149-1.289A2.594,2.594,0,0,1,2912.455,5457.408Z" transform="translate(11654.865 -7239.473)" fill="#fff"/>
    <path id="Trazado_22673" data-name="Trazado 22673" d="M2918.7,5466.283a3.938,3.938,0,0,1-3-1.156,4.479,4.479,0,0,1-1.1-3.211,4.962,4.962,0,0,1,1.019-3.289,3.386,3.386,0,0,1,2.738-1.219,3.228,3.228,0,0,1,2.547,1.059,4.059,4.059,0,0,1,.938,2.793v.82h-5.9a3.4,3.4,0,0,0,.762,2.289,2.632,2.632,0,0,0,2.035.781,6.889,6.889,0,0,0,2.735-.578v1.157a6.86,6.86,0,0,1-1.3.425A7.279,7.279,0,0,1,2918.7,5466.283Zm-.351-7.789a2.118,2.118,0,0,0-1.645.672,3.094,3.094,0,0,0-.722,1.859h4.476a2.856,2.856,0,0,0-.547-1.879A1.927,1.927,0,0,0,2918.346,5458.494Z" transform="translate(11654.865 -7239.473)" fill="#fff"/>
    <path id="Trazado_22674" data-name="Trazado 22674" d="M2923.338,5462.432v-1.188h3.836v1.188Z" transform="translate(11654.865 -7239.473)" fill="#fff"/>
    <path id="Trazado_22675" data-name="Trazado 22675" d="M2931.08,5466.127l-3.25-8.563h1.391l1.843,5.079a24.025,24.025,0,0,1,.735,2.312h.062a17.824,17.824,0,0,1,.543-1.715q.457-1.3,2.051-5.676h1.391l-3.25,8.563Z" transform="translate(11654.865 -7239.473)" fill="#fff"/>
    <path id="Trazado_22676" data-name="Trazado 22676" d="M2940.838,5466.283a3.935,3.935,0,0,1-3-1.156,4.475,4.475,0,0,1-1.1-3.211,4.963,4.963,0,0,1,1.02-3.289,3.384,3.384,0,0,1,2.738-1.219,3.23,3.23,0,0,1,2.547,1.059,4.058,4.058,0,0,1,.937,2.793v.82h-5.9a3.392,3.392,0,0,0,.762,2.289,2.632,2.632,0,0,0,2.035.781,6.88,6.88,0,0,0,2.734-.578v1.157a6.836,6.836,0,0,1-1.3.425A7.271,7.271,0,0,1,2940.838,5466.283Zm-.352-7.789a2.116,2.116,0,0,0-1.644.672,3.1,3.1,0,0,0-.723,1.859h4.477a2.856,2.856,0,0,0-.547-1.879A1.927,1.927,0,0,0,2940.486,5458.494Z" transform="translate(11654.865 -7239.473)" fill="#fff"/>
    <path id="Trazado_22677" data-name="Trazado 22677" d="M2950.1,5457.408a5.043,5.043,0,0,1,1.023.094l-.18,1.2a4.418,4.418,0,0,0-.937-.117,2.283,2.283,0,0,0-1.778.844,3.074,3.074,0,0,0-.738,2.1v4.594h-1.3v-8.563h1.071l.148,1.586h.063a3.757,3.757,0,0,1,1.148-1.289A2.6,2.6,0,0,1,2950.1,5457.408Z" transform="translate(11654.865 -7239.473)" fill="#fff"/>
    <path id="Trazado_22678" data-name="Trazado 22678" d="M2957.994,5466.127l-.258-1.219h-.062a3.606,3.606,0,0,1-1.278,1.09,3.892,3.892,0,0,1-1.589.285,2.86,2.86,0,0,1-2-.656,2.394,2.394,0,0,1-.723-1.867q0-2.595,4.148-2.719l1.453-.047v-.531a2.17,2.17,0,0,0-.433-1.488,1.78,1.78,0,0,0-1.387-.481,5.659,5.659,0,0,0-2.422.656l-.4-.992a6.083,6.083,0,0,1,1.387-.539,5.99,5.99,0,0,1,1.511-.2,3.258,3.258,0,0,1,2.27.68,2.837,2.837,0,0,1,.738,2.179v5.844Zm-2.93-.914a2.634,2.634,0,0,0,1.9-.664,2.458,2.458,0,0,0,.691-1.86v-.773l-1.3.055a4.7,4.7,0,0,0-2.23.48,1.448,1.448,0,0,0-.684,1.324,1.338,1.338,0,0,0,.426,1.071A1.768,1.768,0,0,0,2955.064,5465.213Z" transform="translate(11654.865 -7239.473)" fill="#fff"/>
    <path id="Trazado_22679" data-name="Trazado 22679" d="M2967.486,5466.127v-5.539a2.241,2.241,0,0,0-.476-1.563,1.947,1.947,0,0,0-1.492-.515,2.463,2.463,0,0,0-1.969.726,3.671,3.671,0,0,0-.625,2.4v4.492h-1.3v-8.563h1.055l.211,1.172h.062a2.643,2.643,0,0,1,1.117-.98,3.631,3.631,0,0,1,1.6-.348,3.256,3.256,0,0,1,2.328.746,3.179,3.179,0,0,1,.781,2.387v5.586Z" transform="translate(11654.865 -7239.473)" fill="#fff"/>
    <path id="Trazado_22680" data-name="Trazado 22680" d="M2978.838,5461.838a4.723,4.723,0,0,1-1.055,3.269,3.711,3.711,0,0,1-2.914,1.176,3.857,3.857,0,0,1-2.039-.539,3.555,3.555,0,0,1-1.375-1.547,5.388,5.388,0,0,1-.484-2.359,4.709,4.709,0,0,1,1.047-3.262,3.7,3.7,0,0,1,2.906-1.168,3.622,3.622,0,0,1,2.855,1.2A4.7,4.7,0,0,1,2978.838,5461.838Zm-6.524,0a4.06,4.06,0,0,0,.657,2.5,2.605,2.605,0,0,0,3.863,0,4.045,4.045,0,0,0,.66-2.5,3.982,3.982,0,0,0-.66-2.481,2.32,2.32,0,0,0-1.949-.847,2.282,2.282,0,0,0-1.922.836A4.015,4.015,0,0,0,2972.314,5461.838Z" transform="translate(11654.865 -7239.473)" fill="#fff"/>
    <path id="Trazado_22681" data-name="Trazado 22681" d="M2980.924,5465.3a1.163,1.163,0,0,1,.238-.793.865.865,0,0,1,.684-.27.926.926,0,0,1,.707.27,1.119,1.119,0,0,1,.254.793,1.1,1.1,0,0,1-.258.781,1.022,1.022,0,0,1-1.363.027A1.066,1.066,0,0,1,2980.924,5465.3Z" transform="translate(11654.865 -7239.473)" fill="#fff"/>
    <path id="Trazado_22682" data-name="Trazado 22682" d="M2892.668,5401.558l-7.152-32.355h8.256l1.92,13.441c.481,3.409,1.009,7.056,1.393,10.705h.1c.383-3.7.768-7.3,1.248-10.849l1.824-13.3h8.209l-7.345,32.355Z" transform="translate(11654.865 -7239.473)" fill="#fff"/>
    <path id="Trazado_22683" data-name="Trazado 22683" d="M2915.8,5392.821c.095,2.16,1.92,3.456,4.752,3.456a16.068,16.068,0,0,0,4.752-.768l.912,5.281a22.445,22.445,0,0,1-7.008,1.056c-6.769,0-10.562-4.08-10.562-11.522,0-8.064,4.513-12.768,10.081-12.768,5.185,0,8.593,3.551,8.593,11.472a20.009,20.009,0,0,1-.24,3.793Zm4.847-5.136c0-2.305-.383-4.8-2.3-4.8-1.872,0-2.544,2.784-2.544,4.8Z" transform="translate(11654.865 -7239.473)" fill="#fff"/>
    <path id="Trazado_22684" data-name="Trazado 22684" d="M2930.684,5385.477c0-2.5-.1-5.137-.193-7.538h6.385l.384,3.361h.192c1.152-2.641,3.024-3.744,4.56-3.744a6.621,6.621,0,0,1,1.585.143v7.3a8.275,8.275,0,0,0-1.633-.1,3.7,3.7,0,0,0-3.5,2.689,7.418,7.418,0,0,0-.336,2.447v11.522h-7.44Z" transform="translate(11654.865 -7239.473)" fill="#fff"/>
    <path id="Trazado_22685" data-name="Trazado 22685" d="M2964.14,5368.339v25.682c0,2.5.1,5.041.192,7.537h-6.385l-.384-2.544h-.095a5.781,5.781,0,0,1-4.9,2.927c-5.472,0-7.537-6.1-7.537-12.144,0-8.161,3.649-12.241,7.778-12.241a3.881,3.881,0,0,1,3.839,2.208h.1v-11.425Zm-7.393,18.722a6.1,6.1,0,0,0-.1-1.3c-.24-1.009-.672-1.969-1.728-1.969-1.824,0-2.544,2.736-2.544,6.192,0,4.273,1.2,5.906,2.544,5.906a1.635,1.635,0,0,0,1.585-1.2,3.745,3.745,0,0,0,.239-1.44Z" transform="translate(11654.865 -7239.473)" fill="#fff"/>
    <path id="Trazado_22686" data-name="Trazado 22686" d="M2974.65,5392.821c.1,2.16,1.921,3.456,4.753,3.456a16.067,16.067,0,0,0,4.752-.768l.912,5.281a22.437,22.437,0,0,1-7.007,1.056c-6.769,0-10.562-4.08-10.562-11.522,0-8.064,4.513-12.768,10.081-12.768,5.185,0,8.593,3.551,8.593,11.472a20,20,0,0,1-.24,3.793Zm4.849-5.136c0-2.305-.384-4.8-2.3-4.8-1.872,0-2.545,2.784-2.545,4.8Z" transform="translate(11654.865 -7239.473)" fill="#fff"/>
  </g>
</svg>
