<svg xmlns="http://www.w3.org/2000/svg" width="455" height="402.28" viewBox="0 0 455 402.28">
  <g id="Grupo_13737" data-name="Grupo 13737" transform="translate(-7013.434 -467.392)">
    <g id="Grupo_13736" data-name="Grupo 13736" transform="translate(7013.434 467.392)">
      <g id="Grupo_13733" data-name="Grupo 13733" transform="translate(0 129.615)" style="mix-blend-mode: multiply;isolation: isolate">
        <circle id="Elipse_861" data-name="Elipse 861" cx="136.333" cy="136.333" r="136.333" transform="translate(0 0)" fill="#01aef0"/>
      </g>
      <g id="Grupo_13734" data-name="Grupo 13734" transform="translate(182.335 129.615)" style="mix-blend-mode: multiply;isolation: isolate">
        <circle id="Elipse_862" data-name="Elipse 862" cx="136.332" cy="136.332" r="136.332" transform="translate(0 272.665) rotate(-90)" fill="#fef200"/>
      </g>
      <g id="Grupo_13735" data-name="Grupo 13735" transform="translate(91.167)" style="mix-blend-mode: multiply;isolation: isolate">
        <circle id="Elipse_863" data-name="Elipse 863" cx="136.332" cy="136.332" r="136.332" fill="#ed018c"/>
      </g>
    </g>
    <path id="Trazado_24214" data-name="Trazado 24214" d="M-59.421-10.518l-5.7-.6a6.4,6.4,0,0,1,.93-2.351,5.129,5.129,0,0,1,1.75-1.487,7.326,7.326,0,0,1,2.256-.7,18.191,18.191,0,0,1,3.105-.249,24.679,24.679,0,0,1,4.307.3,5.536,5.536,0,0,1,2.71,1.252,4.393,4.393,0,0,1,1.2,1.868,6.749,6.749,0,0,1,.439,2.307v6.87a8.291,8.291,0,0,0,.139,1.721A7.725,7.725,0,0,0-47.673,0h-5.6a5.709,5.709,0,0,1-.439-.916,6.793,6.793,0,0,1-.205-.989A7.719,7.719,0,0,1-56.243-.293a9.7,9.7,0,0,1-3.677.645A6.154,6.154,0,0,1-64.146-.937a4.1,4.1,0,0,1-1.443-3.179,4.164,4.164,0,0,1,1.04-2.915,7.037,7.037,0,0,1,3.838-1.7q3.354-.674,4.351-.945a20.252,20.252,0,0,0,2.109-.71,2.1,2.1,0,0,0-.454-1.538,2.28,2.28,0,0,0-1.6-.439,4.13,4.13,0,0,0-2.2.469A2.568,2.568,0,0,0-59.421-10.518Zm5.171,3.135q-1.23.439-2.563.776a5.926,5.926,0,0,0-2.3.952,1.494,1.494,0,0,0-.5,1.1,1.485,1.485,0,0,0,.491,1.15,2.076,2.076,0,0,0,1.443.447,3.709,3.709,0,0,0,1.853-.483,2.925,2.925,0,0,0,1.216-1.179,3.947,3.947,0,0,0,.359-1.809Zm9.448-8.174h5.566v2.271a7.776,7.776,0,0,1,2.428-2.021,6.66,6.66,0,0,1,2.956-.6,5.661,5.661,0,0,1,2.949.659,4.906,4.906,0,0,1,1.775,1.963,8.976,8.976,0,0,1,2.56-2.073,6.62,6.62,0,0,1,2.853-.549,5.113,5.113,0,0,1,3.906,1.487,6.589,6.589,0,0,1,1.4,4.651V0h-5.977V-8.862a2.492,2.492,0,0,0-.409-1.567,1.8,1.8,0,0,0-1.489-.806,2.106,2.106,0,0,0-1.693.762,3.772,3.772,0,0,0-.642,2.446V0h-5.977V-8.569a5.366,5.366,0,0,0-.118-1.392,1.9,1.9,0,0,0-.661-.945,1.766,1.766,0,0,0-1.1-.359,2.122,2.122,0,0,0-1.691.776,3.92,3.92,0,0,0-.661,2.549V0H-44.8Zm35.391,5.039-5.7-.6a6.4,6.4,0,0,1,.93-2.351,5.129,5.129,0,0,1,1.75-1.487,7.326,7.326,0,0,1,2.256-.7,18.191,18.191,0,0,1,3.105-.249,24.679,24.679,0,0,1,4.307.3,5.536,5.536,0,0,1,2.71,1.252,4.393,4.393,0,0,1,1.2,1.868,6.749,6.749,0,0,1,.439,2.307v6.87a8.291,8.291,0,0,0,.139,1.721A7.725,7.725,0,0,0,2.336,0h-5.6A5.708,5.708,0,0,1-3.7-.916,6.793,6.793,0,0,1-3.9-1.9,7.719,7.719,0,0,1-6.233-.293,9.7,9.7,0,0,1-9.91.352,6.154,6.154,0,0,1-14.136-.937a4.1,4.1,0,0,1-1.443-3.179,4.164,4.164,0,0,1,1.04-2.915A7.037,7.037,0,0,1-10.7-8.73Q-7.346-9.4-6.35-9.675a20.252,20.252,0,0,0,2.109-.71,2.1,2.1,0,0,0-.454-1.538,2.28,2.28,0,0,0-1.6-.439,4.13,4.13,0,0,0-2.2.469A2.568,2.568,0,0,0-9.412-10.518Zm5.171,3.135q-1.23.439-2.563.776a5.926,5.926,0,0,0-2.3.952,1.494,1.494,0,0,0-.5,1.1,1.485,1.485,0,0,0,.491,1.15,2.076,2.076,0,0,0,1.443.447,3.709,3.709,0,0,0,1.853-.483A2.925,2.925,0,0,0-4.6-4.622a3.947,3.947,0,0,0,.359-1.809Zm9.463-8.174H10.8v2.549a6.075,6.075,0,0,1,1.663-2.278,3.505,3.505,0,0,1,2.117-.623,6.3,6.3,0,0,1,2.886.82L15.623-10.84a4.687,4.687,0,0,0-1.67-.439,2.06,2.06,0,0,0-1.816.967q-.923,1.362-.923,5.1V0H5.222ZM18.7-21.475h5.962v4.058H18.7Zm0,5.918h5.962V0H18.7Zm9.976-5.918h5.977V0H28.674Zm9.99,0h5.977V0H38.665Zm9.053,13.74a7.783,7.783,0,0,1,2.4-5.867,8.976,8.976,0,0,1,6.489-2.307q4.673,0,7.061,2.71a7.851,7.851,0,0,1,1.919,5.376,7.807,7.807,0,0,1-2.38,5.881A9.1,9.1,0,0,1,56.624.352a9.239,9.239,0,0,1-6.064-1.9A7.645,7.645,0,0,1,47.717-7.734Zm5.977-.015a4.694,4.694,0,0,0,.842,3.076,2.657,2.657,0,0,0,2.117,1,2.645,2.645,0,0,0,2.117-.981A4.855,4.855,0,0,0,59.6-7.808a4.586,4.586,0,0,0-.835-3.01,2.6,2.6,0,0,0-2.065-.989,2.7,2.7,0,0,0-2.153,1A4.643,4.643,0,0,0,53.694-7.749Z" transform="translate(7376.834 759.164)"/>
    <path id="Trazado_24213" data-name="Trazado 24213" d="M1.846-15.557H7.412v2.271A7.776,7.776,0,0,1,9.84-15.308a6.66,6.66,0,0,1,2.956-.6,5.661,5.661,0,0,1,2.949.659,4.906,4.906,0,0,1,1.775,1.963,8.976,8.976,0,0,1,2.56-2.073,6.62,6.62,0,0,1,2.853-.549,5.113,5.113,0,0,1,3.906,1.487,6.589,6.589,0,0,1,1.4,4.651V0H22.266V-8.862a2.492,2.492,0,0,0-.409-1.567,1.8,1.8,0,0,0-1.489-.806,2.106,2.106,0,0,0-1.693.762,3.772,3.772,0,0,0-.642,2.446V0H12.056V-8.569a5.366,5.366,0,0,0-.118-1.392,1.9,1.9,0,0,0-.661-.945,1.766,1.766,0,0,0-1.1-.359,2.122,2.122,0,0,0-1.691.776,3.92,3.92,0,0,0-.661,2.549V0H1.846Zm35.391,5.039-5.7-.6a6.4,6.4,0,0,1,.93-2.351,5.129,5.129,0,0,1,1.75-1.487,7.326,7.326,0,0,1,2.256-.7,18.191,18.191,0,0,1,3.105-.249,24.679,24.679,0,0,1,4.307.3,5.536,5.536,0,0,1,2.71,1.252,4.393,4.393,0,0,1,1.2,1.868,6.749,6.749,0,0,1,.439,2.307v6.87a8.291,8.291,0,0,0,.139,1.721A7.725,7.725,0,0,0,48.984,0h-5.6a5.709,5.709,0,0,1-.439-.916,6.793,6.793,0,0,1-.205-.989A7.719,7.719,0,0,1,40.415-.293a9.7,9.7,0,0,1-3.677.645A6.154,6.154,0,0,1,32.512-.937a4.1,4.1,0,0,1-1.443-3.179,4.164,4.164,0,0,1,1.04-2.915,7.037,7.037,0,0,1,3.838-1.7Q39.3-9.4,40.3-9.675a20.252,20.252,0,0,0,2.109-.71,2.1,2.1,0,0,0-.454-1.538,2.28,2.28,0,0,0-1.6-.439,4.13,4.13,0,0,0-2.2.469A2.568,2.568,0,0,0,37.236-10.518Zm5.171,3.135q-1.23.439-2.563.776a5.926,5.926,0,0,0-2.3.952,1.494,1.494,0,0,0-.5,1.1,1.485,1.485,0,0,0,.491,1.15,2.076,2.076,0,0,0,1.443.447,3.709,3.709,0,0,0,1.853-.483,2.925,2.925,0,0,0,1.216-1.179,3.947,3.947,0,0,0,.359-1.809ZM63.12-15.557H68.7V-.864l.015.688a6.487,6.487,0,0,1-.623,2.791,5.873,5.873,0,0,1-1.655,2.146,6.5,6.5,0,0,1-2.622,1.187,16.3,16.3,0,0,1-3.64.366q-4.687,0-6.438-1.406a4.581,4.581,0,0,1-1.75-3.765q0-.293.029-.791l5.786.659a1.881,1.881,0,0,0,.674,1.113,2.851,2.851,0,0,0,1.655.454,2.5,2.5,0,0,0,1.926-.688,3.533,3.533,0,0,0,.637-2.4V-2.871a6.2,6.2,0,0,1-1.758,1.509,6.236,6.236,0,0,1-2.974.732,5.9,5.9,0,0,1-5.039-2.725,8.7,8.7,0,0,1-1.362-5.112A7.885,7.885,0,0,1,53.32-14a5.967,5.967,0,0,1,4.6-1.9,6.448,6.448,0,0,1,3,.615,6.522,6.522,0,0,1,2.2,2.036ZM57.51-8.013a3.693,3.693,0,0,0,.718,2.5,2.4,2.4,0,0,0,1.89.813,2.407,2.407,0,0,0,1.868-.842,3.71,3.71,0,0,0,.754-2.542,3.824,3.824,0,0,0-.791-2.6,2.478,2.478,0,0,0-1.934-.9,2.241,2.241,0,0,0-1.824.828A4.347,4.347,0,0,0,57.51-8.013ZM89.575-6.3H77.622A3.859,3.859,0,0,0,78.4-4.16a2.827,2.827,0,0,0,2.256,1.011,3.388,3.388,0,0,0,1.67-.439,3.928,3.928,0,0,0,1.04-.981l5.874.542A8.412,8.412,0,0,1,85.986-.667,11.814,11.814,0,0,1,80.522.352,11.183,11.183,0,0,1,75.659-.52a7.141,7.141,0,0,1-2.937-2.769,8.355,8.355,0,0,1-1.165-4.46,7.835,7.835,0,0,1,2.336-5.9,8.9,8.9,0,0,1,6.453-2.256A11.485,11.485,0,0,1,85.62-14.9a6.824,6.824,0,0,1,2.944,2.93,10.709,10.709,0,0,1,1.011,5ZM83.511-9.155a3.986,3.986,0,0,0-.93-2.476,2.7,2.7,0,0,0-1.985-.747,2.7,2.7,0,0,0-2.271,1.128,4.132,4.132,0,0,0-.688,2.095Zm8.8-6.4h5.552v2.534a8.264,8.264,0,0,1,2.52-2.219,6.634,6.634,0,0,1,3.105-.667,5.089,5.089,0,0,1,3.875,1.472,6.405,6.405,0,0,1,1.4,4.548V0h-5.991V-8.555a3.113,3.113,0,0,0-.542-2.073,1.935,1.935,0,0,0-1.523-.608,2.167,2.167,0,0,0-1.758.82,4.774,4.774,0,0,0-.674,2.944V0H92.314Zm27.2-5.918v5.918H122.8v4.365h-3.281V-5.68a2.963,2.963,0,0,0,.19,1.316,1.091,1.091,0,0,0,1.025.5,6.545,6.545,0,0,0,1.846-.38l.439,4.116a19.411,19.411,0,0,1-4.131.483,7.187,7.187,0,0,1-3.281-.571,3.48,3.48,0,0,1-1.56-1.734,10.189,10.189,0,0,1-.505-3.767v-5.472h-2.2v-4.365h2.2v-2.856Zm11.558,10.957-5.7-.6a6.4,6.4,0,0,1,.93-2.351,5.129,5.129,0,0,1,1.75-1.487,7.326,7.326,0,0,1,2.256-.7,18.191,18.191,0,0,1,3.105-.249,24.679,24.679,0,0,1,4.307.3,5.536,5.536,0,0,1,2.71,1.252,4.393,4.393,0,0,1,1.2,1.868,6.749,6.749,0,0,1,.439,2.307v6.87a8.291,8.291,0,0,0,.139,1.721A7.725,7.725,0,0,0,142.822,0h-5.6a5.709,5.709,0,0,1-.439-.916,6.793,6.793,0,0,1-.205-.989,7.719,7.719,0,0,1-2.329,1.611,9.7,9.7,0,0,1-3.677.645A6.154,6.154,0,0,1,126.35-.937a4.1,4.1,0,0,1-1.443-3.179,4.164,4.164,0,0,1,1.04-2.915,7.037,7.037,0,0,1,3.838-1.7q3.354-.674,4.351-.945a20.252,20.252,0,0,0,2.109-.71,2.1,2.1,0,0,0-.454-1.538,2.28,2.28,0,0,0-1.6-.439,4.13,4.13,0,0,0-2.2.469A2.568,2.568,0,0,0,131.074-10.518Zm5.171,3.135q-1.23.439-2.563.776a5.926,5.926,0,0,0-2.3.952,1.494,1.494,0,0,0-.5,1.1,1.485,1.485,0,0,0,.491,1.15,2.076,2.076,0,0,0,1.443.447,3.709,3.709,0,0,0,1.853-.483,2.925,2.925,0,0,0,1.216-1.179,3.947,3.947,0,0,0,.359-1.809Z" transform="translate(7167.962 540.301)"/>
    <path id="Trazado_24216" data-name="Trazado 24216" d="M-21.606-6.094l5.669.645A7.943,7.943,0,0,1-17.476-2.38,7.143,7.143,0,0,1-20.208-.366a10.725,10.725,0,0,1-4.226.718,15.584,15.584,0,0,1-4.124-.461A7.213,7.213,0,0,1-31.392-1.6a7.54,7.54,0,0,1-1.86-2.422,8.524,8.524,0,0,1-.674-3.688,8.688,8.688,0,0,1,.82-4,7.236,7.236,0,0,1,1.641-2.1,7.561,7.561,0,0,1,2.139-1.383,11.859,11.859,0,0,1,4.468-.717,10.3,10.3,0,0,1,5.808,1.362,7.182,7.182,0,0,1,2.805,3.984l-5.61.747a2.6,2.6,0,0,0-.959-1.5,3.113,3.113,0,0,0-1.868-.505,3.013,3.013,0,0,0-2.4,1.06,4.808,4.808,0,0,0-.916,3.21,4.175,4.175,0,0,0,.908,2.91,3,3,0,0,0,2.314.994,3.184,3.184,0,0,0,1.97-.6A3.578,3.578,0,0,0-21.606-6.094Zm8.628-15.381h5.962v4.058h-5.962Zm0,5.918h5.962V0h-5.962ZM2.227-10.518l-5.7-.6a6.4,6.4,0,0,1,.93-2.351,5.129,5.129,0,0,1,1.75-1.487,7.326,7.326,0,0,1,2.256-.7,18.191,18.191,0,0,1,3.105-.249,24.679,24.679,0,0,1,4.307.3,5.536,5.536,0,0,1,2.71,1.252,4.393,4.393,0,0,1,1.2,1.868,6.749,6.749,0,0,1,.439,2.307v6.87a8.291,8.291,0,0,0,.139,1.721A7.725,7.725,0,0,0,13.975,0h-5.6a5.708,5.708,0,0,1-.439-.916A6.793,6.793,0,0,1,7.734-1.9,7.719,7.719,0,0,1,5.405-.293,9.7,9.7,0,0,1,1.729.352,6.154,6.154,0,0,1-2.5-.937,4.1,4.1,0,0,1-3.94-4.116,4.164,4.164,0,0,1-2.9-7.031,7.037,7.037,0,0,1,.938-8.73Q4.292-9.4,5.288-9.675a20.252,20.252,0,0,0,2.109-.71,2.1,2.1,0,0,0-.454-1.538,2.28,2.28,0,0,0-1.6-.439,4.13,4.13,0,0,0-2.2.469A2.568,2.568,0,0,0,2.227-10.518ZM7.4-7.383q-1.23.439-2.563.776a5.926,5.926,0,0,0-2.3.952,1.494,1.494,0,0,0-.5,1.1,1.485,1.485,0,0,0,.491,1.15,2.076,2.076,0,0,0,1.443.447,3.709,3.709,0,0,0,1.853-.483A2.925,2.925,0,0,0,7.039-4.622,3.947,3.947,0,0,0,7.4-6.431Zm9.4-8.174h5.552v2.534a8.264,8.264,0,0,1,2.52-2.219,6.634,6.634,0,0,1,3.105-.667,5.089,5.089,0,0,1,3.875,1.472,6.405,6.405,0,0,1,1.4,4.548V0H27.261V-8.555a3.113,3.113,0,0,0-.542-2.073,1.935,1.935,0,0,0-1.523-.608,2.167,2.167,0,0,0-1.758.82,4.774,4.774,0,0,0-.674,2.944V0H16.8Z" transform="translate(7103.75 759.164)"/>
    <path id="Trazado_24215" data-name="Trazado 24215" d="M1.8-15.557H7.354v2.534a8.264,8.264,0,0,1,2.52-2.219,6.634,6.634,0,0,1,3.105-.667,5.089,5.089,0,0,1,3.875,1.472,6.405,6.405,0,0,1,1.4,4.548V0H12.261V-8.555a3.113,3.113,0,0,0-.542-2.073,1.935,1.935,0,0,0-1.523-.608,2.167,2.167,0,0,0-1.758.82,4.774,4.774,0,0,0-.674,2.944V0H1.8ZM39.082-6.3H27.129a3.859,3.859,0,0,0,.776,2.139,2.827,2.827,0,0,0,2.256,1.011,3.388,3.388,0,0,0,1.67-.439,3.928,3.928,0,0,0,1.04-.981l5.874.542A8.412,8.412,0,0,1,35.493-.667,11.814,11.814,0,0,1,30.029.352,11.183,11.183,0,0,1,25.166-.52a7.141,7.141,0,0,1-2.937-2.769,8.355,8.355,0,0,1-1.165-4.46,7.835,7.835,0,0,1,2.336-5.9,8.9,8.9,0,0,1,6.453-2.256A11.485,11.485,0,0,1,35.127-14.9a6.824,6.824,0,0,1,2.944,2.93,10.709,10.709,0,0,1,1.011,5ZM33.018-9.155a3.986,3.986,0,0,0-.93-2.476,2.7,2.7,0,0,0-1.985-.747,2.7,2.7,0,0,0-2.271,1.128,4.132,4.132,0,0,0-.688,2.095Zm20.376-6.4h5.581V-.864l.015.688a6.487,6.487,0,0,1-.623,2.791,5.873,5.873,0,0,1-1.655,2.146,6.5,6.5,0,0,1-2.622,1.187,16.3,16.3,0,0,1-3.64.366q-4.687,0-6.438-1.406a4.581,4.581,0,0,1-1.75-3.765q0-.293.029-.791l5.786.659a1.881,1.881,0,0,0,.674,1.113,2.851,2.851,0,0,0,1.655.454,2.5,2.5,0,0,0,1.926-.688,3.533,3.533,0,0,0,.637-2.4V-2.871a6.2,6.2,0,0,1-1.758,1.509,6.236,6.236,0,0,1-2.974.732A5.9,5.9,0,0,1,43.2-3.354a8.7,8.7,0,0,1-1.362-5.112A7.885,7.885,0,0,1,43.594-14a5.967,5.967,0,0,1,4.6-1.9,6.448,6.448,0,0,1,3,.615,6.522,6.522,0,0,1,2.2,2.036Zm-5.61,7.544a3.693,3.693,0,0,0,.718,2.5,2.4,2.4,0,0,0,1.89.813,2.407,2.407,0,0,0,1.868-.842,3.71,3.71,0,0,0,.754-2.542,3.824,3.824,0,0,0-.791-2.6,2.478,2.478,0,0,0-1.934-.9,2.241,2.241,0,0,0-1.824.828A4.347,4.347,0,0,0,47.783-8.013Zm15.4-7.544H68.76v2.549a6.075,6.075,0,0,1,1.663-2.278,3.505,3.505,0,0,1,2.117-.623,6.3,6.3,0,0,1,2.886.82L73.579-10.84a4.687,4.687,0,0,0-1.67-.439,2.06,2.06,0,0,0-1.816.967q-.923,1.362-.923,5.1V0H63.179ZM76.187-7.734a7.783,7.783,0,0,1,2.4-5.867,8.976,8.976,0,0,1,6.489-2.307q4.673,0,7.061,2.71a7.851,7.851,0,0,1,1.919,5.376,7.807,7.807,0,0,1-2.38,5.881A9.1,9.1,0,0,1,85.093.352a9.239,9.239,0,0,1-6.064-1.9A7.645,7.645,0,0,1,76.187-7.734Zm5.977-.015a4.694,4.694,0,0,0,.842,3.076,2.657,2.657,0,0,0,2.117,1,2.645,2.645,0,0,0,2.117-.981,4.855,4.855,0,0,0,.828-3.149,4.586,4.586,0,0,0-.835-3.01,2.6,2.6,0,0,0-2.065-.989,2.7,2.7,0,0,0-2.153,1A4.643,4.643,0,0,0,82.163-7.749Z" transform="translate(7192.677 700.829)" fill="#fff"/>
  </g>
</svg>
