<svg xmlns="http://www.w3.org/2000/svg" width="252.988" height="267.631" viewBox="0 0 252.988 267.631">
  <g id="Grupo_13675" data-name="Grupo 13675" transform="translate(-4056.424 139.33)">
    <g id="Grupo_13638" data-name="Grupo 13638" transform="translate(4109.104 -53.414)">
      <g id="Grupo_13629" data-name="Grupo 13629" transform="translate(47.318 67.414)">
        <g id="Grupo_13627" data-name="Grupo 13627" transform="translate(0 0)">
          <path id="Trazado_20723" data-name="Trazado 20723" d="M4140.344-3.724a14.646,14.646,0,0,1-14.664-14.595v-6.119a2.835,2.835,0,0,1,2.834-2.834,2.833,2.833,0,0,1,2.833,2.834v6.119a8.972,8.972,0,0,0,9,8.928,8.971,8.971,0,0,0,9-8.928V-30.3a2.834,2.834,0,0,1,2.834-2.834,2.835,2.835,0,0,1,2.835,2.834v11.984A14.646,14.646,0,0,1,4140.344-3.724Z" transform="translate(-4125.68 33.138)" fill="#39221b"/>
        </g>
        <g id="Grupo_13628" data-name="Grupo 13628" transform="translate(23.659 0)">
          <path id="Trazado_20724" data-name="Trazado 20724" d="M4156.732-3.724a14.647,14.647,0,0,1-14.666-14.595V-30.3a2.834,2.834,0,0,1,2.834-2.834,2.835,2.835,0,0,1,2.835,2.834v11.984a8.972,8.972,0,0,0,9,8.928,8.971,8.971,0,0,0,9-8.928v-6.119a2.835,2.835,0,0,1,2.834-2.834,2.834,2.834,0,0,1,2.834,2.834v6.119A14.647,14.647,0,0,1,4156.732-3.724Z" transform="translate(-4142.066 33.138)" fill="#39221b"/>
        </g>
      </g>
      <g id="Grupo_13630" data-name="Grupo 13630" transform="translate(22.585)">
        <path id="Trazado_20725" data-name="Trazado 20725" d="M4159.777,28.425c-25.034,0-39.434-7.941-44-12.634-4.947-5.087-8.646-21.412-6.7-29.606,1.932-8.161,15.688-47.771,23.595-57.352,4.876-5.908,13.49-8.661,27.105-8.661s22.232,2.752,27.11,8.659c7.9,9.582,21.662,49.192,23.594,57.353,1.939,8.194-1.757,24.519-6.7,29.606C4199.214,20.483,4184.812,28.425,4159.777,28.425Zm0-102.585c-11.631,0-19.07,2.159-22.734,6.6-6.812,8.253-20.381,46.307-22.45,55.05-1.593,6.727,1.884,20.887,5.251,24.35,3.672,3.776,16.743,10.917,39.934,10.917s36.266-7.142,39.938-10.917c3.367-3.462,6.845-17.623,5.25-24.35-2.067-8.743-15.639-46.8-22.45-55.05C4178.849-72,4171.411-74.16,4159.777-74.16Z" transform="translate(-4108.551 79.827)" fill="#39221b"/>
      </g>
      <g id="Grupo_13631" data-name="Grupo 13631" transform="translate(56.727 56.495)">
        <path id="Trazado_20726" data-name="Trazado 20726" d="M4149.283-40.7c-10.991,0-16.78,3.314-17.081,4.774S4143.158-20.4,4149.283-20.4s17.382-14.066,17.082-15.526S4160.273-40.7,4149.283-40.7Zm.04,3.89c-10.981,0-15.089,1.567-15.089,1.567s5.41-3.462,15.089-3.462,15.088,3.462,15.088,3.462S4160.3-36.81,4149.322-36.81Z" transform="translate(-4132.196 40.7)" fill="#39221b"/>
      </g>
      <g id="Grupo_13634" data-name="Grupo 13634" transform="translate(53.626 29.24)">
        <g id="Grupo_13632" data-name="Grupo 13632">
          <path id="Trazado_20727" data-name="Trazado 20727" d="M4142.877-49.3c0,5.676-2.872,10.278-6.414,10.278s-6.414-4.6-6.414-10.278,2.872-10.279,6.414-10.279S4142.877-54.973,4142.877-49.3Z" transform="translate(-4130.049 59.576)" fill="#39221b"/>
        </g>
        <g id="Grupo_13633" data-name="Grupo 13633" transform="translate(27.547)">
          <path id="Trazado_20728" data-name="Trazado 20728" d="M4161.953-49.3c0,5.676-2.87,10.278-6.412,10.278s-6.414-4.6-6.414-10.278,2.871-10.279,6.414-10.279S4161.953-54.973,4161.953-49.3Z" transform="translate(-4149.127 59.576)" fill="#39221b"/>
        </g>
      </g>
      <g id="Grupo_13637" data-name="Grupo 13637" transform="translate(0 1.527)">
        <g id="Grupo_13635" data-name="Grupo 13635">
          <path id="Trazado_20729" data-name="Trazado 20729" d="M4112.271-73.266c-9.166,6.4-19.362,21.243-19.362,27.789s11.147,19.033,14.207,21.1c3.666,2.473,7.675.146,10.311-5.965,2.456-5.7,9.424-28.056,13.085-35.414a6.534,6.534,0,0,1,8.8-3.432l6.76-6.4C4135.3-80.54,4121.437-79.667,4112.271-73.266Z" transform="translate(-4092.909 78.77)" fill="#39221b"/>
        </g>
        <g id="Grupo_13636" data-name="Grupo 13636" transform="translate(94.467)">
          <path id="Trazado_20730" data-name="Trazado 20730" d="M4192.132-73.266c9.165,6.4,19.362,21.243,19.362,27.789s-11.148,19.033-14.206,21.1c-3.666,2.473-7.676.146-10.311-5.965-2.457-5.7-9.426-28.056-13.084-35.414a6.535,6.535,0,0,0-8.8-3.432l-6.761-6.4C4169.1-80.54,4182.967-79.667,4192.132-73.266Z" transform="translate(-4158.334 78.77)" fill="#39221b"/>
        </g>
      </g>
    </g>
    <g id="Grupo_13639" data-name="Grupo 13639" transform="translate(4108.559 73.077)">
      <path id="Trazado_20731" data-name="Trazado 20731" d="M4098.294,52.527l-5.763-44.4h5.382l2.428,20.056,1.5,14.129h.147l1.288-14.129L4105.3,8.126h5.277l-5.3,44.4Z" transform="translate(-4092.531 -7.622)" fill="#39221b"/>
      <path id="Trazado_20732" data-name="Trazado 20732" d="M4107.466,52.527V8.126h12.456v5.829h-6.8V26.871h6.459v5.7h-6.459V46.7h7.051v5.828Z" transform="translate(-4085.902 -7.622)" fill="#39221b"/>
      <path id="Trazado_20733" data-name="Trazado 20733" d="M4121.75,52.527V13.978H4117.4V8.126h14.166v5.852h-4.182V52.527Z" transform="translate(-4081.492 -7.622)" fill="#39221b"/>
      <path id="Trazado_20734" data-name="Trazado 20734" d="M4142.982,50.1a6.59,6.59,0,0,1-6.037,3.091,6.752,6.752,0,0,1-6.153-3.292q-2.036-3.294-2.038-9.473V21.072q0-9.915,4.349-12.387a7.756,7.756,0,0,1,3.884-.908q7.831,0,7.831,11.807v6.1h-5.466V20.011a17.406,17.406,0,0,0-.487-4.906,1.879,1.879,0,0,0-1.9-1.474A2,2,0,0,0,4135,15.194a15.489,15.489,0,0,0-.55,4.792V40.724a17.457,17.457,0,0,0,.528,5.122,1.965,1.965,0,0,0,3.842-.025,17.843,17.843,0,0,0,.529-5.172V34.291h5.55v6.282Q4144.9,47.006,4142.982,50.1Z" transform="translate(-4076.452 -7.777)" fill="#39221b"/>
      <path id="Trazado_20735" data-name="Trazado 20735" d="M4142.826,52.527V8.126h5.659v38.65h7.155v5.751Z" transform="translate(-4070.205 -7.622)" fill="#39221b"/>
      <path id="Trazado_20736" data-name="Trazado 20736" d="M4153.8,52.527V8.126h5.657v44.4Z" transform="translate(-4065.334 -7.622)" fill="#39221b"/>
      <path id="Trazado_20737" data-name="Trazado 20737" d="M4161.425,52.527V8.126h4.434l7.874,26.641-.4-12.11V8.126h5.087v44.4h-4.011l-8.086-27.574.318,11.655V52.527Z" transform="translate(-4061.949 -7.622)" fill="#39221b"/>
      <path id="Trazado_20738" data-name="Trazado 20738" d="M4176.9,52.527V8.126h5.659v44.4Z" transform="translate(-4055.08 -7.622)" fill="#39221b"/>
      <path id="Trazado_20739" data-name="Trazado 20739" d="M4198.434,50.1a6.6,6.6,0,0,1-6.039,3.091,6.756,6.756,0,0,1-6.154-3.292q-2.036-3.294-2.037-9.473V21.072q0-9.915,4.349-12.387a7.762,7.762,0,0,1,3.884-.908q7.833,0,7.832,11.807v6.1H4194.8V20.011a17.359,17.359,0,0,0-.486-4.906,1.879,1.879,0,0,0-1.9-1.474,2,2,0,0,0-1.964,1.564,15.456,15.456,0,0,0-.55,4.792V40.724a17.394,17.394,0,0,0,.53,5.122,1.965,1.965,0,0,0,3.841-.025,17.886,17.886,0,0,0,.528-5.172V34.291h5.552v6.282Q4200.354,47.006,4198.434,50.1Z" transform="translate(-4051.838 -7.777)" fill="#39221b"/>
    </g>
    <g id="Grupo_13644" data-name="Grupo 13644" transform="translate(4056.424 -139.33)">
      <g id="Grupo_13641" data-name="Grupo 13641">
        <g id="Grupo_13640" data-name="Grupo 13640">
          <path id="Trazado_20740" data-name="Trazado 20740" d="M4100.313,98.844h-11.986a3.78,3.78,0,0,1-3.78-3.779V-10.654H4060.2a3.777,3.777,0,0,1-3.5-2.343,3.778,3.778,0,0,1,.841-4.124L4180.263-138.24a3.778,3.778,0,0,1,5.344.035,3.777,3.777,0,0,1-.036,5.342L4069.409-18.21h18.918a3.778,3.778,0,0,1,3.779,3.777V91.286h8.207a3.779,3.779,0,1,1,0,7.557Z" transform="translate(-4056.424 139.33)" fill="#39221b"/>
        </g>
      </g>
      <g id="Grupo_13643" data-name="Grupo 13643" transform="translate(122.714 0.001)">
        <g id="Grupo_13642" data-name="Grupo 13642">
          <path id="Trazado_20741" data-name="Trazado 20741" d="M4239.783,98.843H4227.8a3.779,3.779,0,0,1,0-7.557H4236V-14.433a3.778,3.778,0,0,1,3.779-3.777H4258.7L4142.537-132.863a3.776,3.776,0,0,1-.034-5.342,3.778,3.778,0,0,1,5.342-.035L4270.56-17.122A3.776,3.776,0,0,1,4271.4-13a3.776,3.776,0,0,1-3.494,2.343h-24.345V95.065A3.78,3.78,0,0,1,4239.783,98.843Z" transform="translate(-4141.412 139.329)" fill="#39221b"/>
        </g>
      </g>
    </g>
    <g id="Grupo_13653" data-name="Grupo 13653" transform="translate(4106.932 64.138)">
      <g id="Grupo_13648" data-name="Grupo 13648" transform="translate(0 0)">
        <g id="Grupo_13645" data-name="Grupo 13645" transform="translate(147.721)">
          <path id="Trazado_20742" data-name="Trazado 20742" d="M4196.074,5.365h-.473a1.889,1.889,0,1,1,0-3.779h.473a1.889,1.889,0,0,1,0,3.779Z" transform="translate(-4193.711 -1.586)" fill="#39221b"/>
        </g>
        <g id="Grupo_13646" data-name="Grupo 13646" transform="translate(8.223)">
          <path id="Trazado_20743" data-name="Trazado 20743" d="M4230.736,5.365h-.969a1.889,1.889,0,0,1,0-3.779h.969a1.889,1.889,0,1,1,0,3.779Zm-8.718,0h-.969a1.889,1.889,0,0,1,0-3.779h.969a1.889,1.889,0,1,1,0,3.779Zm-8.718,0h-.969a1.889,1.889,0,0,1,0-3.779h.969a1.889,1.889,0,1,1,0,3.779Zm-8.72,0h-.969a1.889,1.889,0,0,1,0-3.779h.969a1.889,1.889,0,1,1,0,3.779Zm-8.718,0h-.969a1.889,1.889,0,0,1,0-3.779h.969a1.889,1.889,0,1,1,0,3.779Zm-8.718,0h-.969a1.889,1.889,0,1,1,0-3.779h.969a1.889,1.889,0,1,1,0,3.779Zm-8.719,0h-.969a1.889,1.889,0,1,1,0-3.779h.969a1.889,1.889,0,0,1,0,3.779Zm-8.718,0h-.969a1.889,1.889,0,1,1,0-3.779h.969a1.889,1.889,0,0,1,0,3.779Zm-8.718,0h-.969a1.889,1.889,0,1,1,0-3.779h.969a1.889,1.889,0,0,1,0,3.779Zm-8.72,0h-.969a1.889,1.889,0,1,1,0-3.779h.969a1.889,1.889,0,0,1,0,3.779Zm-8.718,0h-.969a1.889,1.889,0,1,1,0-3.779h.969a1.889,1.889,0,0,1,0,3.779Zm-8.72,0h-.967a1.889,1.889,0,1,1,0-3.779h.967a1.889,1.889,0,1,1,0,3.779Zm-8.718,0h-.969a1.889,1.889,0,0,1,0-3.779h.969a1.889,1.889,0,1,1,0,3.779Zm-8.719,0h-.969a1.889,1.889,0,0,1,0-3.779h.969a1.889,1.889,0,1,1,0,3.779Zm-8.718,0h-.969a1.889,1.889,0,0,1,0-3.779h.969a1.889,1.889,0,1,1,0,3.779Zm-8.72,0h-.969a1.889,1.889,0,0,1,0-3.779h.969a1.889,1.889,0,1,1,0,3.779Z" transform="translate(-4097.099 -1.586)" fill="#39221b"/>
        </g>
        <g id="Grupo_13647" data-name="Grupo 13647">
          <path id="Trazado_20744" data-name="Trazado 20744" d="M4093.766,5.365h-.472a1.889,1.889,0,1,1,0-3.779h.472a1.889,1.889,0,1,1,0,3.779Z" transform="translate(-4091.404 -1.586)" fill="#39221b"/>
        </g>
      </g>
      <g id="Grupo_13652" data-name="Grupo 13652" transform="translate(0 60.384)">
        <g id="Grupo_13649" data-name="Grupo 13649" transform="translate(147.721)">
          <path id="Trazado_20745" data-name="Trazado 20745" d="M4196.074,47.185h-.473a1.889,1.889,0,1,1,0-3.779h.473a1.889,1.889,0,0,1,0,3.779Z" transform="translate(-4193.711 -43.406)" fill="#39221b"/>
        </g>
        <g id="Grupo_13650" data-name="Grupo 13650" transform="translate(8.223)">
          <path id="Trazado_20746" data-name="Trazado 20746" d="M4230.736,47.185h-.969a1.889,1.889,0,0,1,0-3.779h.969a1.889,1.889,0,1,1,0,3.779Zm-8.718,0h-.969a1.889,1.889,0,0,1,0-3.779h.969a1.889,1.889,0,1,1,0,3.779Zm-8.718,0h-.969a1.889,1.889,0,0,1,0-3.779h.969a1.889,1.889,0,1,1,0,3.779Zm-8.72,0h-.969a1.889,1.889,0,0,1,0-3.779h.969a1.889,1.889,0,1,1,0,3.779Zm-8.718,0h-.969a1.889,1.889,0,0,1,0-3.779h.969a1.889,1.889,0,1,1,0,3.779Zm-8.718,0h-.969a1.889,1.889,0,1,1,0-3.779h.969a1.889,1.889,0,1,1,0,3.779Zm-8.719,0h-.969a1.889,1.889,0,1,1,0-3.779h.969a1.889,1.889,0,0,1,0,3.779Zm-8.718,0h-.969a1.889,1.889,0,1,1,0-3.779h.969a1.889,1.889,0,0,1,0,3.779Zm-8.718,0h-.969a1.889,1.889,0,1,1,0-3.779h.969a1.889,1.889,0,0,1,0,3.779Zm-8.72,0h-.969a1.889,1.889,0,1,1,0-3.779h.969a1.889,1.889,0,0,1,0,3.779Zm-8.718,0h-.969a1.889,1.889,0,1,1,0-3.779h.969a1.889,1.889,0,0,1,0,3.779Zm-8.72,0h-.967a1.889,1.889,0,1,1,0-3.779h.967a1.889,1.889,0,1,1,0,3.779Zm-8.718,0h-.969a1.889,1.889,0,0,1,0-3.779h.969a1.889,1.889,0,1,1,0,3.779Zm-8.719,0h-.969a1.889,1.889,0,0,1,0-3.779h.969a1.889,1.889,0,1,1,0,3.779Zm-8.718,0h-.969a1.889,1.889,0,0,1,0-3.779h.969a1.889,1.889,0,1,1,0,3.779Zm-8.72,0h-.969a1.889,1.889,0,0,1,0-3.779h.969a1.889,1.889,0,1,1,0,3.779Z" transform="translate(-4097.099 -43.406)" fill="#39221b"/>
        </g>
        <g id="Grupo_13651" data-name="Grupo 13651">
          <path id="Trazado_20747" data-name="Trazado 20747" d="M4093.766,47.185h-.472a1.889,1.889,0,1,1,0-3.779h.472a1.889,1.889,0,1,1,0,3.779Z" transform="translate(-4091.404 -43.406)" fill="#39221b"/>
        </g>
      </g>
    </g>
    <g id="Grupo_13658" data-name="Grupo 13658" transform="translate(4158.071 -109.703)">
      <g id="Grupo_13654" data-name="Grupo 13654">
        <circle id="Elipse_857" data-name="Elipse 857" cx="24.837" cy="24.837" r="24.837" fill="#39221b"/>
      </g>
      <g id="Grupo_13657" data-name="Grupo 13657" transform="translate(7.439 7.439)">
        <g id="Grupo_13655" data-name="Grupo 13655" transform="translate(13.37)">
          <path id="Trazado_20748" data-name="Trazado 20748" d="M4149.288-82.89a4.027,4.027,0,0,1-4.027,4.027h0a4.028,4.028,0,0,1-4.027-4.027v-26.742a4.028,4.028,0,0,1,4.027-4.027h0a4.027,4.027,0,0,1,4.027,4.027Z" transform="translate(-4141.234 113.659)" fill="#f7e4bc"/>
        </g>
        <g id="Grupo_13656" data-name="Grupo 13656" transform="translate(0 13.37)">
          <path id="Trazado_20749" data-name="Trazado 20749" d="M4162.742-104.4a4.028,4.028,0,0,1,4.029,4.028h0a4.028,4.028,0,0,1-4.029,4.027H4136a4.028,4.028,0,0,1-4.027-4.027h0A4.028,4.028,0,0,1,4136-104.4Z" transform="translate(-4131.974 104.399)" fill="#f7e4bc"/>
        </g>
      </g>
    </g>
    <g id="Grupo_13665" data-name="Grupo 13665" transform="translate(4109.011 40.041)">
      <g id="Grupo_13661" data-name="Grupo 13661" transform="translate(0 0)">
        <g id="Grupo_13659" data-name="Grupo 13659" transform="translate(6.834)">
          <path id="Trazado_20750" data-name="Trazado 20750" d="M4101.691.621a2.057,2.057,0,0,1-2.057,2.058h0a2.057,2.057,0,0,1-2.058-2.058V-13.044a2.058,2.058,0,0,1,2.058-2.059h0a2.057,2.057,0,0,1,2.057,2.059Z" transform="translate(-4097.577 15.103)" fill="#39221b"/>
        </g>
        <g id="Grupo_13660" data-name="Grupo 13660" transform="translate(0 6.833)">
          <path id="Trazado_20751" data-name="Trazado 20751" d="M4108.568-10.371a2.06,2.06,0,0,1,2.06,2.059h0a2.06,2.06,0,0,1-2.06,2.058H4094.9a2.059,2.059,0,0,1-2.059-2.058h0a2.059,2.059,0,0,1,2.059-2.059Z" transform="translate(-4092.844 10.371)" fill="#39221b"/>
        </g>
      </g>
      <g id="Grupo_13664" data-name="Grupo 13664" transform="translate(130.032 0)">
        <g id="Grupo_13662" data-name="Grupo 13662" transform="translate(6.832)">
          <path id="Trazado_20752" data-name="Trazado 20752" d="M4191.749.621a2.058,2.058,0,0,1-2.059,2.058h0a2.058,2.058,0,0,1-2.059-2.058V-13.044a2.059,2.059,0,0,1,2.059-2.059h0a2.058,2.058,0,0,1,2.059,2.059Z" transform="translate(-4187.632 15.103)" fill="#39221b"/>
        </g>
        <g id="Grupo_13663" data-name="Grupo 13663" transform="translate(0 6.833)">
          <path id="Trazado_20753" data-name="Trazado 20753" d="M4198.624-10.371a2.058,2.058,0,0,1,2.058,2.059h0a2.057,2.057,0,0,1-2.058,2.058h-13.666a2.057,2.057,0,0,1-2.058-2.058h0a2.058,2.058,0,0,1,2.058-2.059Z" transform="translate(-4182.9 10.371)" fill="#39221b"/>
        </g>
      </g>
    </g>
    <g id="Grupo_13668" data-name="Grupo 13668" transform="translate(4130.265 -87.436)">
      <g id="Grupo_13666" data-name="Grupo 13666">
        <path id="Trazado_20754" data-name="Trazado 20754" d="M4137.857-99.61h-28.4a1.89,1.89,0,0,1-1.89-1.89,1.89,1.89,0,0,1,1.89-1.89h28.4a1.89,1.89,0,0,1,1.89,1.89A1.89,1.89,0,0,1,4137.857-99.61Z" transform="translate(-4107.564 103.39)" fill="#39221b"/>
      </g>
      <g id="Grupo_13667" data-name="Grupo 13667" transform="translate(75.045)">
        <path id="Trazado_20755" data-name="Trazado 20755" d="M4187.891-99.61h-26.462a1.89,1.89,0,0,1-1.89-1.89,1.89,1.89,0,0,1,1.89-1.89h26.462a1.89,1.89,0,0,1,1.889,1.89A1.89,1.89,0,0,1,4187.891-99.61Z" transform="translate(-4159.539 103.39)" fill="#39221b"/>
      </g>
    </g>
    <g id="Grupo_13671" data-name="Grupo 13671" transform="translate(4146.653 -99.783)">
      <g id="Grupo_13669" data-name="Grupo 13669">
        <path id="Trazado_20756" data-name="Trazado 20756" d="M4137.408-108.162h-16.6a1.89,1.89,0,0,1-1.89-1.889,1.89,1.89,0,0,1,1.89-1.89h16.6a1.89,1.89,0,0,1,1.888,1.89A1.889,1.889,0,0,1,4137.408-108.162Z" transform="translate(-4118.914 111.941)" fill="#39221b"/>
      </g>
      <g id="Grupo_13670" data-name="Grupo 13670" transform="translate(52.129)">
        <path id="Trazado_20757" data-name="Trazado 20757" d="M4173.51-108.162h-16.6a1.889,1.889,0,0,1-1.889-1.889,1.889,1.889,0,0,1,1.889-1.89h16.6a1.889,1.889,0,0,1,1.889,1.89A1.889,1.889,0,0,1,4173.51-108.162Z" transform="translate(-4155.018 111.941)" fill="#39221b"/>
      </g>
    </g>
    <g id="Grupo_13674" data-name="Grupo 13674" transform="translate(4121.47 -75.088)">
      <g id="Grupo_13672" data-name="Grupo 13672">
        <path id="Trazado_20758" data-name="Trazado 20758" d="M4140.944-91.059h-37.583a1.889,1.889,0,0,1-1.888-1.89,1.889,1.889,0,0,1,1.888-1.889h37.583a1.89,1.89,0,0,1,1.889,1.889A1.89,1.89,0,0,1,4140.944-91.059Z" transform="translate(-4101.474 94.838)" fill="#39221b"/>
      </g>
      <g id="Grupo_13673" data-name="Grupo 13673" transform="translate(80.702)">
        <path id="Trazado_20759" data-name="Trazado 20759" d="M4197.651-91.059h-38.4a1.89,1.89,0,0,1-1.89-1.89,1.89,1.89,0,0,1,1.89-1.889h38.4a1.89,1.89,0,0,1,1.889,1.889A1.89,1.89,0,0,1,4197.651-91.059Z" transform="translate(-4157.365 94.838)" fill="#39221b"/>
      </g>
    </g>
  </g>
</svg>
