<svg xmlns="http://www.w3.org/2000/svg" width="95" height="93.414" viewBox="0 0 95 93.414">
  <g id="Grupo_13720" data-name="Grupo 13720" transform="translate(0 -4.274)">
    <g id="Grupo_13711" data-name="Grupo 13711" transform="translate(39.519 13.652)">
      <path id="Trazado_20829" data-name="Trazado 20829" d="M241.086,68.2l-3.766-13.387-24.336,6.812,14.1,10.5Z" transform="translate(-212.985 -54.817)" fill="#fff" fill-rule="evenodd"/>
    </g>
    <g id="Grupo_13712" data-name="Grupo 13712" transform="translate(11.97 20.464)">
      <path id="Trazado_20830" data-name="Trazado 20830" d="M106.161,102.024l-14.1-10.5L80.032,94.9c-2.477.687-3.924,1.679-4.876,4.167l-7.537,2.11a4.252,4.252,0,1,0,2.3,8.187l7.537-2.11c2.162,1.669,3.834,1.732,6.338,1.034Z" transform="translate(-64.511 -91.528)" fill="#ffcd69" fill-rule="evenodd"/>
    </g>
    <g id="Grupo_13713" data-name="Grupo 13713" transform="translate(63.148 6.131)">
      <path id="Trazado_20831" data-name="Trazado 20831" d="M353.185,32.45l-3.555-12.658-.647-2.3A4.4,4.4,0,0,0,340.5,19.86l.542,1.942,3.766,13.387.547,1.942a4.405,4.405,0,0,0,8.484-2.377Z" transform="translate(-340.334 -14.28)" fill="#ccf5fc" fill-rule="evenodd"/>
    </g>
    <g id="Grupo_13714" data-name="Grupo 13714" transform="translate(72.443 8.145)">
      <path id="Trazado_20832" data-name="Trazado 20832" d="M405.615,38.04a6.575,6.575,0,1,0-3.561-12.658l-11.623,3.254,3.555,12.658Z" transform="translate(-390.431 -25.139)" fill="#66e0f7" fill-rule="evenodd"/>
    </g>
    <g id="Grupo_13715" data-name="Grupo 13715" transform="translate(7.088 46.902)">
      <path id="Trazado_20833" data-name="Trazado 20833" d="M48.985,244.377c0-2.97-2.493-6.366-5.391-10.359-2.893,3.994-5.391,7.389-5.391,10.359a5.391,5.391,0,0,0,10.782,0Z" transform="translate(-38.203 -234.018)" fill="#ffcd69" fill-rule="evenodd"/>
    </g>
    <g id="Grupo_13716" data-name="Grupo 13716" transform="translate(1.855 70.921)">
      <path id="Trazado_20834" data-name="Trazado 20834" d="M40.426,388.379V363.468H12.8A2.8,2.8,0,0,0,10,366.26v19.323a2.808,2.808,0,0,0,2.8,2.8H40.426Z" transform="translate(-10 -363.468)" fill="#ffcd69" fill-rule="evenodd"/>
    </g>
    <g id="Grupo_13717" data-name="Grupo 13717" transform="translate(32.282 70.921)">
      <path id="Trazado_20835" data-name="Trazado 20835" d="M173.981,363.468h30.431v24.911H173.981Z" transform="translate(-173.981 -363.468)" fill="#e38eba" fill-rule="evenodd"/>
    </g>
    <g id="Grupo_13718" data-name="Grupo 13718" transform="translate(62.713 70.921)">
      <path id="Trazado_20836" data-name="Trazado 20836" d="M367.87,387.241V364.608a2.791,2.791,0,0,0-2.251-1.139H337.991V388.38h27.628A2.806,2.806,0,0,0,367.87,387.241Z" transform="translate(-337.991 -363.469)" fill="#66e0f7" fill-rule="evenodd"/>
    </g>
    <g id="Grupo_13719" data-name="Grupo 13719" transform="translate(0 4.274)">
      <path id="Trazado_20837" data-name="Trazado 20837" d="M90.341,353.468H55.828a1.855,1.855,0,0,0,0,3.711h5.029v21.2H34.137v-21.2h5.029a1.855,1.855,0,0,0,0-3.711H4.654A4.656,4.656,0,0,0,0,358.115v19.322a4.658,4.658,0,0,0,4.654,4.653H90.341A4.661,4.661,0,0,0,95,377.438V358.115A4.658,4.658,0,0,0,90.341,353.468Zm-86.63,23.97V358.115a.952.952,0,0,1,.943-.936H30.426v21.2H4.654a.955.955,0,0,1-.943-.942Zm87.578,0a.957.957,0,0,1-.948.942H64.569v-21.2H90.341a.955.955,0,0,1,.948.936Z" transform="translate(0 -288.676)"/>
      <path id="Trazado_20838" data-name="Trazado 20838" d="M60.627,40.309a6.132,6.132,0,0,0,1.649-.227l5.058-1.416,1.628-.456c2.493,1.606,4.7,1.489,7.187.8l34.58-9.681.044.156a6.261,6.261,0,0,0,12.057-3.38l-.145-.516,9.836-2.752A8.43,8.43,0,1,0,127.96,6.6l-9.838,2.754-.147-.521a6.262,6.262,0,0,0-11.486-1.364,6.187,6.187,0,0,0-.569,4.743l.042.151c-15.229,4.261-15.31,4.284-25.975,7.271l-8.6,2.409A8.127,8.127,0,0,0,65.66,26.45l-6.691,1.873a6.106,6.106,0,0,0,1.658,11.986ZM128.96,10.175a4.739,4.739,0,0,1,5.835,3.273,4.729,4.729,0,0,1-3.274,5.811l-9.84,2.753-2.554-9.085Zm-19.236-.888a2.523,2.523,0,0,1,1.534-1.206,2.551,2.551,0,0,1,3.145,1.76l.643,2.287,0,.015.005.015,3.532,12.561c.006.027.011.055.019.082s.022.068.033.1l.619,2.2a2.55,2.55,0,0,1-4.911,1.375l-4.854-17.271v0a2.5,2.5,0,0,1,.233-1.918Zm0,16.465L98.39,28.927l-10.338-7.7,18.916-5.294ZM59.972,31.9l7.537-2.11a1.856,1.856,0,0,0,1.233-1.124c.667-1.742,1.517-2.453,3.643-3.043l8.6-2.41,2.546-.713,10.338,7.695L75.151,35.432c-2.18.608-3.191.454-4.705-.715a1.854,1.854,0,0,0-1.634-.318l-2.477.693-5.058,1.416a2.4,2.4,0,1,1-1.3-4.613Z" transform="translate(-44.394 -4.274)"/>
      <path id="Trazado_20839" data-name="Trazado 20839" d="M35.452,243.467a7.249,7.249,0,0,0,7.247-7.234c0-3.533-2.609-7.129-5.631-11.292l-.114-.157a1.855,1.855,0,0,0-1.5-.766h0a1.855,1.855,0,0,0-1.5.767l-.151.208c-3,4.142-5.593,7.719-5.593,11.239A7.248,7.248,0,0,0,35.452,243.467Zm0-14.42c2,2.825,3.534,5.278,3.534,7.185a3.536,3.536,0,0,1-7.071,0C31.917,234.326,33.449,231.873,35.453,229.047Z" transform="translate(-22.972 -183.245)"/>
      <path id="Trazado_20840" data-name="Trazado 20840" d="M245.986,355.323a1.855,1.855,0,0,0,1.855,1.855h.011a1.855,1.855,0,1,0-1.866-1.855Z" transform="translate(-200.344 -288.676)"/>
    </g>
  </g>
</svg>
