<svg xmlns="http://www.w3.org/2000/svg" width="95" height="77.116" viewBox="0 0 95 77.116">
  <g id="Grupo_13724" data-name="Grupo 13724" transform="translate(-5900.448 -453.145)">
    <path id="Trazado_20854" data-name="Trazado 20854" d="M6016.887,487.945V476.522a3.743,3.743,0,0,0-3.743-3.744H5974.4a7.487,7.487,0,0,1-5.29-2.188l-5.179-5.17a7.485,7.485,0,0,0-5.289-2.188h-15.5a3.743,3.743,0,0,0-3.743,3.743v5.8h-1.123a3.743,3.743,0,0,0-3.744,3.744v11.424h82.356Z" transform="translate(-27.759 -8.215)" fill="#ffea60"/>
    <path id="Trazado_20855" data-name="Trazado 20855" d="M5913.482,620.407l-2.95-50.318a3.744,3.744,0,0,1,3.737-3.963h83.776a3.744,3.744,0,0,1,3.737,3.963l-2.95,50.318Z" transform="translate(-8.208 -92.019)" fill="#fff2a0"/>
    <path id="Trazado_20856" data-name="Trazado 20856" d="M5949.821,528.389a1.872,1.872,0,1,1-1.871-1.872A1.874,1.874,0,0,1,5949.821,528.389Zm45.622-50.208-2.949,50.318a1.872,1.872,0,0,1-1.867,1.762h-34.254a1.872,1.872,0,1,1,0-3.744h32.487l2.846-48.556a1.9,1.9,0,0,0-1.868-1.981h-83.776a1.9,1.9,0,0,0-1.868,1.981l2.847,48.556h32.487a1.872,1.872,0,1,1,0,3.744l-34.274,0a1.871,1.871,0,0,1-1.847-1.76l-2.95-50.318a5.638,5.638,0,0,1,4.444-5.821v-4.054a5.623,5.623,0,0,1,4.866-5.565V458.76a5.621,5.621,0,0,1,5.615-5.615h15.5a9.3,9.3,0,0,1,6.611,2.735l5.18,5.17a5.578,5.578,0,0,0,3.967,1.641h38.745a5.621,5.621,0,0,1,5.615,5.615v4.054a5.623,5.623,0,0,1,4.443,5.821Zm-8.187-9.874a1.873,1.873,0,0,0-1.871-1.872H5946.64a9.3,9.3,0,0,1-6.612-2.735l-5.179-5.17a5.579,5.579,0,0,0-3.967-1.641h-15.5a1.874,1.874,0,0,0-1.872,1.872v5.8a1.872,1.872,0,0,1-1.872,1.872h-1.123a1.874,1.874,0,0,0-1.871,1.872v3.931h78.612Zm-36.58,47.63a1.872,1.872,0,0,1-3.5,1.322l-2.368-6.276h-15.829l-2.393,6.281a1.872,1.872,0,0,1-3.5-1.333l11.457-30.083c.006-.014.011-.028.017-.042a2.555,2.555,0,0,1,2.37-1.593h0a2.554,2.554,0,0,1,2.37,1.588c.008.017.014.034.021.051Zm-7.284-8.7-6.465-17.132-6.525,17.132Zm26.832,9.359v-2.105a11.029,11.029,0,1,1,0-16.54v-2.105a1.872,1.872,0,1,1,3.743,0V516.6a1.872,1.872,0,0,1-3.743,0Zm0-10.375a7.286,7.286,0,1,0-7.286,7.286A7.294,7.294,0,0,0,5970.224,506.222Z" transform="translate(0 0)"/>
  </g>
</svg>
