<svg xmlns="http://www.w3.org/2000/svg" width="97.303" height="108.401" viewBox="0 0 97.303 108.401">
  <g id="Grupo_13721" data-name="Grupo 13721" transform="translate(-4770.283 -412.439)">
    <path id="Trazado_20841" data-name="Trazado 20841" d="M4780.283,516.5v16.951h6.763l1.384-8.469h22.938v67.287h-16.386v8.482H4841.3v-8.482h-16.386V524.984h22.938l1.384,8.469H4856V516.5Z" transform="translate(-7.883 -82.031)" fill="#a0e557"/>
    <path id="Trazado_20842" data-name="Trazado 20842" d="M4919.22,641.673a2.118,2.118,0,1,1,1.5-.62A2.131,2.131,0,0,1,4919.22,641.673Z" transform="translate(-115.735 -177.363)"/>
    <path id="Trazado_20843" data-name="Trazado 20843" d="M4833.422,594.987H4787.1a2.117,2.117,0,0,1-2.118-2.117v-8.482a2.118,2.118,0,0,1,2.118-2.117h14.269V545.091a2.117,2.117,0,0,1,4.234,0v39.3a2.117,2.117,0,0,1-2.117,2.117h-14.27v4.248H4831.3V586.5h-14.269a2.116,2.116,0,0,1-2.117-2.117V517.1a2.116,2.116,0,0,1,2.117-2.117h22.938a2.117,2.117,0,0,1,2.09,1.776l1.094,6.693H4846V510.735h-71.485v12.717h2.846l1.094-6.693a2.117,2.117,0,0,1,2.09-1.776h22.938a2.117,2.117,0,0,1,2.117,2.117V528.3a2.117,2.117,0,0,1-4.234,0v-9.078h-19.022l-1.093,6.693a2.118,2.118,0,0,1-2.09,1.776H4772.4a2.117,2.117,0,0,1-2.117-2.117V508.632a2.129,2.129,0,0,1,2.117-2.131h75.719a2.117,2.117,0,0,1,2.118,2.117v16.951a2.117,2.117,0,0,1-2.118,2.117h-6.762a2.117,2.117,0,0,1-2.089-1.776l-1.094-6.693h-19.022v63.053h14.27a2.117,2.117,0,0,1,2.117,2.117v8.482A2.117,2.117,0,0,1,4833.422,594.987Z" transform="translate(0 -74.147)"/>
    <path id="Trazado_20844" data-name="Trazado 20844" d="M5190.4,774.589a2.116,2.116,0,1,0,1.5.618A2.131,2.131,0,0,0,5190.4,774.589Z" transform="translate(-329.501 -285.475)"/>
    <path id="Trazado_20845" data-name="Trazado 20845" d="M5176.459,832.081l-.955.955V819.774a2.117,2.117,0,0,0-4.234,0v13.262l-.955-.955a2.117,2.117,0,0,0-2.994,2.994l4.569,4.569a2.117,2.117,0,0,0,2.994,0l4.569-4.569a2.117,2.117,0,0,0-2.994-2.994Z" transform="translate(-312.488 -319.425)"/>
    <path id="Trazado_20846" data-name="Trazado 20846" d="M5170.316,515.062l.955-.955v42.856a2.117,2.117,0,0,0,4.234,0V514.108l.955.955a2.117,2.117,0,1,0,2.994-2.994l-4.569-4.569a2.118,2.118,0,0,0-2.995,0l-4.569,4.569a2.117,2.117,0,0,0,2.994,2.994Z" transform="translate(-312.489 -74.445)"/>
    <path id="Trazado_20847" data-name="Trazado 20847" d="M4845.347,413.059a2.117,2.117,0,0,0-2.994,2.994l.955.955h-65.417l.954-.955a2.117,2.117,0,1,0-2.994-2.994l-4.569,4.569a2.117,2.117,0,0,0,0,2.994l4.569,4.569a2.117,2.117,0,0,0,2.994-2.994l-.955-.955h65.417l-.955.955a2.117,2.117,0,0,0,2.995,2.994l4.568-4.569a2.117,2.117,0,0,0,0-2.994Z" transform="translate(-0.298 0)"/>
  </g>
</svg>
