<svg xmlns="http://www.w3.org/2000/svg" width="364.577" height="361.372" viewBox="0 0 364.577 361.372">
  <g id="Grupo_14149" data-name="Grupo 14149" transform="translate(496.383 -89.645)">
    <circle id="Elipse_886" data-name="Elipse 886" cx="159.894" cy="159.894" r="159.894" transform="translate(-473.771 131.337) rotate(-1.489)" fill="#f4901e"/>
    <g id="Grupo_14126" data-name="Grupo 14126" transform="translate(-214.902 145.467)">
      <path id="Trazado_24079" data-name="Trazado 24079" d="M-378.443,111.948h50.484l15.018,15.015v80.65h-65.5Z" transform="translate(392.158 -111.948)" fill="#f1f1f5" fill-rule="evenodd"/>
      <path id="Trazado_24080" data-name="Trazado 24080" d="M-358.272,122.455l15.015,15.016V122.455l-7.506-7.508Z" transform="translate(422.473 -107.44)" fill="#e1e8e1" fill-rule="evenodd"/>
      <path id="Trazado_24081" data-name="Trazado 24081" d="M-358.272,111.948l15.015,15.015h-15.015Z" transform="translate(422.473 -111.948)" fill="#a5dbe5" fill-rule="evenodd"/>
      <path id="Trazado_24082" data-name="Trazado 24082" d="M-378.443,160.646l8.162,8.16h44.813l-31.1-31.039Z" transform="translate(392.158 -73.142)" fill="#e1e8e1" fill-rule="evenodd"/>
      <path id="Rectángulo_3760" data-name="Rectángulo 3760" d="M1.342,0h33.7a1.341,1.341,0,0,1,1.341,1.341v21.39a1.342,1.342,0,0,1-1.342,1.342H1.342A1.342,1.342,0,0,1,0,22.731V1.342A1.342,1.342,0,0,1,1.342,0Z" transform="translate(0 63.432)" fill="#e74037"/>
      <rect id="Rectángulo_3761" data-name="Rectángulo 3761" width="19.803" height="1.608" transform="translate(7.893 77.691)" fill="#f1f1f5"/>
      <rect id="Rectángulo_3762" data-name="Rectángulo 3762" width="19.803" height="1.609" transform="translate(7.893 80.909)" fill="#f1f1f5"/>
      <rect id="Rectángulo_3763" data-name="Rectángulo 3763" width="39.152" height="1.609" transform="translate(32.56 24.229)" fill="#8c8287"/>
      <rect id="Rectángulo_3764" data-name="Rectángulo 3764" width="39.152" height="1.61" transform="translate(32.56 27.447)" fill="#8c8287"/>
      <rect id="Rectángulo_3765" data-name="Rectángulo 3765" width="39.152" height="1.61" transform="translate(32.56 30.666)" fill="#8c8287"/>
      <rect id="Rectángulo_3766" data-name="Rectángulo 3766" width="39.152" height="1.609" transform="translate(32.56 33.885)" fill="#8c8287"/>
      <rect id="Rectángulo_3767" data-name="Rectángulo 3767" width="53.053" height="1.61" transform="translate(18.66 37.103)" fill="#8c8287"/>
      <rect id="Rectángulo_3768" data-name="Rectángulo 3768" width="52.632" height="1.61" transform="translate(18.66 40.322)" fill="#8c8287"/>
      <rect id="Rectángulo_3769" data-name="Rectángulo 3769" width="53.053" height="1.608" transform="translate(18.66 43.541)" fill="#8c8287"/>
      <path id="Trazado_24083" data-name="Trazado 24083" d="M-368.337,131.309l-.858-2.473h-3.687l-.856,2.473h-2.03l3.532-9.679h2.39l3.517,9.679Zm-2.7-8.187-.043.15c-.048.165-.1.353-.165.563s-.461,1.372-1.181,3.479h2.781l-.954-2.783-.3-.936Z" transform="translate(396.177 -97.396)" fill="#e74037" fill-rule="evenodd"/>
      <rect id="Rectángulo_3770" data-name="Rectángulo 3770" width="53.053" height="1.608" transform="translate(18.66 43.541)" fill="#8c8287"/>
      <rect id="Rectángulo_3771" data-name="Rectángulo 3771" width="52.632" height="1.611" transform="translate(18.66 46.759)" fill="#8c8287"/>
      <rect id="Rectángulo_3772" data-name="Rectángulo 3772" width="37.329" height="1.609" transform="translate(18.66 49.978)" fill="#8c8287"/>
      <path id="Trazado_24084" data-name="Trazado 24084" d="M-372.806,145.913l-.6-1.715h-2.555l-.6,1.715h-1.407l2.45-6.715h1.657l2.44,6.715Zm-1.877-5.682-.028.105c-.033.115-.073.245-.115.393s-.318.949-.818,2.413h1.927l-.663-1.932-.2-.651Z" transform="translate(392.88 -70.993)" fill="#f1f1f5" fill-rule="evenodd"/>
    </g>
    <g id="Grupo_14127" data-name="Grupo 14127" transform="translate(-383.849 217.807)">
      <path id="Trazado_24085" data-name="Trazado 24085" d="M-409.348,140.85a42.079,42.079,0,0,1,42.079,42.077A42.079,42.079,0,0,1-409.348,225a42.076,42.076,0,0,1-42.074-42.077A42.076,42.076,0,0,1-409.348,140.85Z" transform="translate(451.422 -140.85)" fill="#e74037" fill-rule="evenodd"/>
      <path id="Trazado_24086" data-name="Trazado 24086" d="M-383.778,140.85A42.074,42.074,0,0,1-341.7,182.927,42.074,42.074,0,0,1-383.778,225a42.077,42.077,0,0,1-42.077-42.077A42.077,42.077,0,0,1-383.778,140.85Z" transform="translate(489.847 -140.85)" fill="#14b0bf" fill-rule="evenodd"/>
      <path id="Trazado_24087" data-name="Trazado 24087" d="M-415.773,201.393a41.912,41.912,0,0,1-10.082-27.324,41.907,41.907,0,0,1,10.082-27.324,41.918,41.918,0,0,1,10.079,27.324A41.923,41.923,0,0,1-415.773,201.393Z" transform="translate(489.847 -131.992)" fill="#5a3445" fill-rule="evenodd"/>
      <path id="Trazado_24088" data-name="Trazado 24088" d="M-396.56,163.265c23.237,0,42.074,18.429,42.074,41.163s-18.837,41.163-42.074,41.163-42.079-18.429-42.079-41.163S-419.8,163.265-396.56,163.265Z" transform="translate(470.634 -107.162)" fill="#ffe721" fill-rule="evenodd"/>
      <path id="Trazado_24089" data-name="Trazado 24089" d="M-398.019,163.265a43.233,43.233,0,0,1,7.449.646,42.091,42.091,0,0,1-39.449,27.4,42.309,42.309,0,0,1-7.649-.7A42.043,42.043,0,0,1-398.019,163.265Z" transform="translate(472.093 -107.162)" fill="#e1ae15" fill-rule="evenodd"/>
      <path id="Trazado_24090" data-name="Trazado 24090" d="M-417.353,163.265a42.045,42.045,0,0,1,39.646,27.354,42.358,42.358,0,0,1-7.651.7,42.09,42.09,0,0,1-39.446-27.4A43.2,43.2,0,0,1-417.353,163.265Z" transform="translate(491.427 -107.162)" fill="#693" fill-rule="evenodd"/>
      <path id="Trazado_24091" data-name="Trazado 24091" d="M-424.8,163.947a39.667,39.667,0,0,1,14.9,0,41.919,41.919,0,0,1-7.449,12.65A40.154,40.154,0,0,1-424.8,163.947Z" transform="translate(491.427 -107.198)" fill="#402431" fill-rule="evenodd"/>
    </g>
    <g id="Grupo_14129" data-name="Grupo 14129" transform="translate(-354.705 373.842)">
      <g id="Grupo_14128" data-name="Grupo 14128" transform="translate(7.949 7.699)">
        <path id="Trazado_24092" data-name="Trazado 24092" d="M-397.822,254.769l-4.3-12.384h-18.469l-4.3,12.384h-10.167l17.7-48.5h11.974l17.626,48.5Zm-13.548-41.03-.21.753c-.235.833-.506,1.772-.821,2.831s-2.305,6.861-5.922,17.425h13.934l-4.783-13.946-1.479-4.688-.718-2.375Zm39,41.734q-5.41,0-8.437-2.936t-3.019-8.285q0-5.778,3.759-8.8t10.928-3.1l8.024-.14v-1.892a9.313,9.313,0,0,0-1.282-5.441,4.777,4.777,0,0,0-4.157-1.772,5.467,5.467,0,0,0-3.937,1.221,7.054,7.054,0,0,0-1.607,4.225l-10.092-.481a12.452,12.452,0,0,1,5.013-8.422q4.047-2.8,11.033-2.806,7.047,0,10.88,3.477,3.807,3.473,3.817,9.882v13.571a9.217,9.217,0,0,0,.708,4.325,2.53,2.53,0,0,0,2.36,1.186,10.614,10.614,0,0,0,2.128-.213V254.3c-.578.143-1.084.27-1.554.388s-.916.2-1.372.27-.941.13-1.457.178-1.119.07-1.81.07q-3.649,0-5.394-1.8a8.581,8.581,0,0,1-2.08-5.264h-.2q-4.07,7.332-12.252,7.331Zm11.256-17.928-4.958.07a15.086,15.086,0,0,0-4.783.741,4.479,4.479,0,0,0-2.15,1.845,6.4,6.4,0,0,0-.738,3.3,5.576,5.576,0,0,0,1.219,3.937,4.286,4.286,0,0,0,3.256,1.292,7.323,7.323,0,0,0,4.147-1.246,8.445,8.445,0,0,0,2.938-3.419,10.478,10.478,0,0,0,1.069-4.628Z" transform="translate(438.922 -206.267)" fill="#026d7e" fill-rule="evenodd"/>
        <path id="Trazado_24093" data-name="Trazado 24093" d="M-399.369,254.769l-4.3-12.384h-18.469l-4.3,12.384H-436.6l17.7-48.5h11.974l17.623,48.5Zm-13.546-41.03-.21.753c-.238.833-.506,1.772-.823,2.831s-2.3,6.861-5.922,17.425h13.936l-4.783-13.946-1.482-4.688-.716-2.375Zm39,41.736q-5.406,0-8.435-2.938t-3.021-8.285q0-5.778,3.762-8.8t10.925-3.1l8.024-.14v-1.892a9.3,9.3,0,0,0-1.279-5.439,4.777,4.777,0,0,0-4.16-1.775,5.476,5.476,0,0,0-3.935,1.221,6.507,6.507,0,0,0-1.564,4.042l-10.092-.483a12.019,12.019,0,0,1,4.971-8.237q4.051-2.8,11.03-2.806,7.051,0,10.883,3.477,3.807,3.473,3.817,9.882v13.571a9.257,9.257,0,0,0,.706,4.325,2.538,2.538,0,0,0,2.36,1.186,10.394,10.394,0,0,0,2.127-.213V254.3c-.576.143-1.081.27-1.552.388-.456.105-.916.2-1.372.27s-.941.13-1.459.178-1.119.07-1.81.07q-3.649,0-5.394-1.8a8.593,8.593,0,0,1-2.077-5.261h-.2q-4.07,7.329-12.257,7.331Zm11.256-17.931-4.956.07a15.086,15.086,0,0,0-4.783.741,4.491,4.491,0,0,0-2.15,1.845,6.394,6.394,0,0,0-.741,3.3,5.565,5.565,0,0,0,1.222,3.937,4.282,4.282,0,0,0,3.256,1.292,7.323,7.323,0,0,0,4.147-1.246,8.42,8.42,0,0,0,2.936-3.419,10.469,10.469,0,0,0,1.069-4.628Z" transform="translate(436.602 -206.267)" fill="#14b0bf" fill-rule="evenodd"/>
      </g>
      <rect id="Rectángulo_3773" data-name="Rectángulo 3773" width="92.731" height="0.777" transform="translate(7.639 0.866)" fill="#402431"/>
      <circle id="Elipse_887" data-name="Elipse 887" cx="1.254" cy="1.254" r="1.254" transform="translate(6.385 0.001)" fill="#402431"/>
      <path id="Trazado_24094" data-name="Trazado 24094" d="M-398.924,203.191a1.256,1.256,0,0,1,1.254,1.254,1.255,1.255,0,0,1-1.254,1.254,1.253,1.253,0,0,1-1.254-1.254A1.255,1.255,0,0,1-398.924,203.191Z" transform="translate(499.294 -203.191)" fill="#402431" fill-rule="evenodd"/>
      <rect id="Rectángulo_3774" data-name="Rectángulo 3774" width="0.775" height="55.179" transform="translate(0.868 1.255)" fill="#402431"/>
      <path id="Trazado_24095" data-name="Trazado 24095" d="M-438.524,203.191a1.255,1.255,0,0,1,1.256,1.254,1.254,1.254,0,0,1-1.256,1.254,1.255,1.255,0,0,1-1.254-1.254A1.256,1.256,0,0,1-438.524,203.191Z" transform="translate(439.778 -203.191)" fill="#402431" fill-rule="evenodd"/>
      <path id="Trazado_24096" data-name="Trazado 24096" d="M-438.524,225.237a1.255,1.255,0,0,1,1.256,1.254,1.254,1.254,0,0,1-1.256,1.254,1.255,1.255,0,0,1-1.254-1.254A1.256,1.256,0,0,1-438.524,225.237Z" transform="translate(439.778 -170.057)" fill="#402431" fill-rule="evenodd"/>
    </g>
    <g id="Grupo_14134" data-name="Grupo 14134" transform="translate(-462.25 117.197)">
      <path id="Trazado_24097" data-name="Trazado 24097" d="M-415.465,182.088V105c0-2.388-2.318-4.343-5.154-4.343H-477.59c-2.836,0-5.156,1.955-5.156,4.343v77.093c0,2.388,2.32,4.34,5.156,4.34h56.972C-417.782,186.428-415.465,184.476-415.465,182.088Z" transform="translate(482.746 -100.653)" fill="#e1ae15" fill-rule="evenodd"/>
      <g id="Grupo_14131" data-name="Grupo 14131" transform="translate(33.744 12.288)">
        <g id="Grupo_14130" data-name="Grupo 14130">
          <path id="Trazado_24098" data-name="Trazado 24098" d="M-469.264,105.563h36.948l9.5,9.5v51.025h-46.451Z" transform="translate(469.264 -105.563)" fill="#f1f1f5" fill-rule="evenodd"/>
          <path id="Trazado_24099" data-name="Trazado 24099" d="M-454.5,112.211l9.5,9.5v-9.5l-4.749-4.75Z" transform="translate(491.451 -102.71)" fill="#ebebf1" fill-rule="evenodd"/>
          <path id="Trazado_24100" data-name="Trazado 24100" d="M-454.5,105.563l9.5,9.5h-9.5Z" transform="translate(491.451 -105.563)" fill="#a5dbe5" fill-rule="evenodd"/>
        </g>
        <rect id="Rectángulo_3775" data-name="Rectángulo 3775" width="32.761" height="18.465" transform="translate(6.695 14.557)" fill="#fc0"/>
      </g>
      <g id="Grupo_14132" data-name="Grupo 14132">
        <path id="Trazado_24101" data-name="Trazado 24101" d="M-417.364,182.088V105c0-2.388-2.323-4.343-5.159-4.343H-477.59c-2.836,0-5.156,1.955-5.156,4.343v77.093c0,2.388,2.32,4.34,5.156,4.34h55.067C-419.687,186.428-417.364,184.476-417.364,182.088Z" transform="translate(482.746 -100.653)" fill="#a5dbe5" fill-rule="evenodd"/>
        <path id="Trazado_24102" data-name="Trazado 24102" d="M-438.518,182.006v-76.93c0-2.433-2.323-4.423-5.159-4.423h-11.241c-8.192,8.17-13.754,24.158-13.754,42.547,0,18.915,5.887,35.291,14.462,43.228h10.532C-440.841,186.428-438.518,184.439-438.518,182.006Z" transform="translate(503.9 -100.653)" fill="#14b0bf" fill-rule="evenodd"/>
      </g>
      <g id="Grupo_14133" data-name="Grupo 14133" transform="translate(9.602 32.914)">
        <path id="Trazado_24103" data-name="Trazado 24103" d="M-478.814,124.414l2.058,5.208,7.43-1.946-2.4-6.067-7.186-7.806h0Z" transform="translate(478.91 -113.803)" fill="#ffd621" fill-rule="evenodd"/>
        <path id="Trazado_24104" data-name="Trazado 24104" d="M-478.814,124.414l-.066-7.218-.029-3.392,1.872,9.914,1.022,2.595-1.809.6Z" transform="translate(478.91 -113.803)" fill="#e5be01" fill-rule="evenodd"/>
        <path id="Trazado_24105" data-name="Trazado 24105" d="M-471.723,121.609l-4.888-5.309-2.3-2.5,5.412,8.513,1.029,2.594,1.733-.8Z" transform="translate(478.91 -113.803)" fill="#ffe263" fill-rule="evenodd"/>
        <path id="Trazado_24106" data-name="Trazado 24106" d="M-478.869,118.462a.963.963,0,0,0,1.772-.7l27.385,69.264-1.77.7Z" transform="translate(478.97 -107.855)" fill="#c5262b" fill-rule="evenodd"/>
        <path id="Trazado_24107" data-name="Trazado 24107" d="M-478.163,118.595h0c.758,1.116,3.642.308,3.549-1.387l27.387,69.246-1.772.7-1.772.7Z" transform="translate(480.032 -108.686)" fill="#e74037" fill-rule="evenodd"/>
        <path id="Trazado_24108" data-name="Trazado 24108" d="M-476.745,117.63a.964.964,0,0,0,1.772-.7l27.382,69.251-1.772.7Z" transform="translate(482.163 -109.109)" fill="#c5262b" fill-rule="evenodd"/>
        <path id="Trazado_24109" data-name="Trazado 24109" d="M-476.612,116.3l-2.3-2.5h0l.029,3.392Z" transform="translate(478.91 -113.803)" fill="#c5262b" fill-rule="evenodd"/>
        <rect id="Rectángulo_3776" data-name="Rectángulo 3776" width="3.811" height="2.148" transform="translate(25.586 75.057) rotate(-21.578)" fill="#e5be01"/>
        <rect id="Rectángulo_3777" data-name="Rectángulo 3777" width="3.811" height="2.147" transform="matrix(0.93, -0.368, 0.368, 0.93, 27.359, 74.357)" fill="#ffd302"/>
        <rect id="Rectángulo_3778" data-name="Rectángulo 3778" width="1.906" height="2.148" transform="translate(30.902 72.955) rotate(-21.599)" fill="#ffe263"/>
      </g>
    </g>
    <g id="Grupo_14136" data-name="Grupo 14136" transform="translate(-217.637 315.144)">
      <g id="Grupo_14135" data-name="Grupo 14135">
        <path id="Trazado_24110" data-name="Trazado 24110" d="M-355.17,180.633a29.846,29.846,0,0,1,29.845,29.845,29.845,29.845,0,0,1-29.845,29.845,29.843,29.843,0,0,1-29.845-29.845,29.845,29.845,0,0,1,29.845-29.845Zm0,27.109a2.736,2.736,0,0,0-2.736,2.736,2.735,2.735,0,0,0,2.736,2.736,2.736,2.736,0,0,0,2.736-2.736A2.738,2.738,0,0,0-355.17,207.742Z" transform="translate(385.015 -178.395)" fill="#d0dcd1" fill-rule="evenodd"/>
        <path id="Trazado_24111" data-name="Trazado 24111" d="M-367.315,188.715a9.617,9.617,0,0,1,9.616,9.616,9.616,9.616,0,0,1-9.616,9.616,9.618,9.618,0,0,1-9.619-9.616,9.62,9.62,0,0,1,9.619-9.616Zm0,6.881a2.736,2.736,0,0,0-2.736,2.736,2.735,2.735,0,0,0,2.736,2.736,2.736,2.736,0,0,0,2.736-2.736A2.738,2.738,0,0,0-367.315,195.6Z" transform="translate(397.16 -166.249)" fill="#9d9d9d" fill-rule="evenodd"/>
        <path id="Trazado_24112" data-name="Trazado 24112" d="M-372.716,179.739h55.047v64.168h-55.047V216.585a4.763,4.763,0,0,0,4.558-4.763,4.764,4.764,0,0,0-4.558-4.761Z" transform="translate(403.5 -179.739)" fill="#c5262b" fill-rule="evenodd"/>
        <path id="Trazado_24113" data-name="Trazado 24113" d="M-363.421,190.081l-.706-2.032h-3.029l-.706,2.032h-1.669l2.906-7.957h1.965l2.888,7.957Zm-2.223-6.73-.035.123c-.038.138-.083.293-.133.466s-.38,1.124-.971,2.858h2.285l-.783-2.288-.243-.768Z" transform="translate(408.286 -176.155)" fill="#f1f1f5" fill-rule="evenodd"/>
        <rect id="Rectángulo_3779" data-name="Rectángulo 3779" width="8.455" height="1.906" transform="translate(38.409 15.998)" fill="#f1f1f5"/>
      </g>
      <path id="Trazado_24114" data-name="Trazado 24114" d="M-335.3,179.739h-23c-4.918,11.138-3.674,22.274,8.585,33.409,5.944,12.795,1.927,22.872-10.119,30.758H-335.3Z" transform="translate(421.127 -179.739)" fill="#e74037" fill-rule="evenodd"/>
    </g>
    <g id="Grupo_14137" data-name="Grupo 14137" transform="translate(-496.383 298.638)">
      <path id="Trazado_24115" data-name="Trazado 24115" d="M-407.092,275.555c0,4.2-4.162,6.8-8.032,6.8h-70.25V173.32h70.25c3.87,0,8.032,2.6,8.032,6.8Z" transform="translate(512.929 -172.881)" fill="#c5262b" fill-rule="evenodd"/>
      <path id="Trazado_24116" data-name="Trazado 24116" d="M-409.366,274.7V179.263c0-2.956-2.976-5.374-6.61-5.374h-68.83V280.073h68.83C-412.342,280.073-409.366,277.653-409.366,274.7Z" transform="translate(513.781 -172.026)" fill="#f1f1f5" fill-rule="evenodd"/>
      <path id="Trazado_24117" data-name="Trazado 24117" d="M-410.341,277.49V178.707c0-3.059-2.974-5.562-6.61-5.562h-68.831V283.054h68.831C-413.315,283.054-410.341,280.551-410.341,277.49Z" transform="translate(512.316 -173.144)" fill="#e74037" fill-rule="evenodd"/>
      <path id="Trazado_24118" data-name="Trazado 24118" d="M-410.341,263.088V226.6l-43.876-43.874-31.564,31.562v54.364h68.831C-413.315,268.652-410.341,266.15-410.341,263.088Z" transform="translate(512.316 -158.743)" fill="#c5262b" fill-rule="evenodd"/>
      <rect id="Rectángulo_3780" data-name="Rectángulo 3780" width="6.037" height="109.91" transform="translate(26.535)" fill="#c5262b"/>
      <path id="Trazado_24119" data-name="Trazado 24119" d="M-496.383,181.681H-440.9l16.506,16.5v88.635h-71.988Z" transform="translate(496.383 -160.315)" fill="#f1f1f5" fill-rule="evenodd"/>
      <path id="Trazado_24120" data-name="Trazado 24120" d="M-474.215,193.228l16.5,16.5v-16.5l-8.252-8.25Z" transform="translate(529.7 -155.36)" fill="#e1e8e1" fill-rule="evenodd"/>
      <path id="Trazado_24121" data-name="Trazado 24121" d="M-474.215,181.681l16.5,16.5h-16.5Z" transform="translate(529.7 -160.315)" fill="#a5dbe5" fill-rule="evenodd"/>
      <rect id="Rectángulo_3781" data-name="Rectángulo 3781" width="43.026" height="1.77" transform="translate(20.713 43.113)" fill="#8c8287"/>
      <rect id="Rectángulo_3782" data-name="Rectángulo 3782" width="43.026" height="1.769" transform="translate(20.713 46.651)" fill="#8c8287"/>
      <rect id="Rectángulo_3783" data-name="Rectángulo 3783" width="43.026" height="1.768" transform="translate(20.713 50.189)" fill="#8c8287"/>
      <rect id="Rectángulo_3784" data-name="Rectángulo 3784" width="43.026" height="1.768" transform="translate(20.713 53.726)" fill="#8c8287"/>
      <rect id="Rectángulo_3785" data-name="Rectángulo 3785" width="58.303" height="1.768" transform="translate(5.436 57.263)" fill="#8c8287"/>
      <rect id="Rectángulo_3786" data-name="Rectángulo 3786" width="57.841" height="1.768" transform="translate(5.436 60.801)" fill="#8c8287"/>
      <rect id="Rectángulo_3787" data-name="Rectángulo 3787" width="58.303" height="1.77" transform="translate(5.436 64.338)" fill="#8c8287"/>
      <rect id="Rectángulo_3788" data-name="Rectángulo 3788" width="58.303" height="1.77" transform="translate(5.436 64.338)" fill="#8c8287"/>
      <rect id="Rectángulo_3789" data-name="Rectángulo 3789" width="57.841" height="1.769" transform="translate(5.436 67.876)" fill="#8c8287"/>
      <rect id="Rectángulo_3790" data-name="Rectángulo 3790" width="41.022" height="1.77" transform="translate(5.436 71.413)" fill="#8c8287"/>
      <path id="Trazado_24122" data-name="Trazado 24122" d="M-490.188,217.059l-.656-1.882h-2.811l-.653,1.882h-1.547l2.693-7.379h1.82l2.683,7.379Zm-2.06-6.242-.033.115c-.04.125-.078.27-.128.431s-.35,1.044-.9,2.651h2.117l-.726-2.12-.225-.716Z" transform="translate(497.177 -118.235)" fill="#f1f1f5" fill-rule="evenodd"/>
      <rect id="Rectángulo_3791" data-name="Rectángulo 3791" width="13.534" height="12.381" transform="translate(5.619 43.113)" fill="#14b0bf"/>
      <rect id="Rectángulo_3792" data-name="Rectángulo 3792" width="57.841" height="28.943" transform="translate(5.436 76.086)" fill="#a5dbe5"/>
      <path id="Trazado_24123" data-name="Trazado 24123" d="M-494.211,229.279v-8.987l9.777-14.234,11.322,7.626,4.945-3.3,5.974,5.211,9.022-9.914,11.185,9.914,5.617-2.415v16.1Z" transform="translate(499.647 -124.25)" fill="#14b0bf" fill-rule="evenodd"/>
      <rect id="Rectángulo_3793" data-name="Rectángulo 3793" width="41.025" height="1.77" transform="translate(13.844 108.14)" fill="#8c8287"/>
      <path id="Trazado_24124" data-name="Trazado 24124" d="M-484.614,198.34c0-2.781-1.9-5.036-4.242-5.036s-4.24,2.255-4.24,5.036Z" transform="translate(501.323 -142.846)" fill="#e74037" fill-rule="evenodd"/>
      <circle id="Elipse_888" data-name="Elipse 888" cx="2.733" cy="2.733" r="2.733" transform="translate(9.652 45.895)" fill="#eec64a"/>
    </g>
    <g id="Grupo_14138" data-name="Grupo 14138" transform="translate(-334.148 89.645)">
      <path id="Trazado_24125" data-name="Trazado 24125" d="M-391.027,89.645c19.335,0,35.619,12.407,40.54,26.939-4.921,14.53-21.2,26.939-40.54,26.939s-35.617-12.41-40.537-26.939C-426.644,102.052-410.36,89.645-391.027,89.645Z" transform="translate(431.565 -89.645)" fill="#fff" fill-rule="evenodd"/>
      <path id="Trazado_24126" data-name="Trazado 24126" d="M-392.98,94.334c17.783,0,32.763,7,37.289,15.2-4.525,8.2-19.505,15.2-37.289,15.2s-32.758-7-37.286-15.2C-425.738,101.337-410.761,94.334-392.98,94.334Z" transform="translate(433.517 -82.598)" fill="#e1e8e1" fill-rule="evenodd"/>
      <path id="Trazado_24127" data-name="Trazado 24127" d="M-406.254,94.343a15.181,15.181,0,0,1,15.183,15.18,15.183,15.183,0,0,1-15.183,15.183,15.183,15.183,0,0,1-15.18-15.183A15.181,15.181,0,0,1-406.254,94.343Z" transform="translate(446.791 -82.584)" fill="#14b0bf" fill-rule="evenodd"/>
      <path id="Trazado_24128" data-name="Trazado 24128" d="M-409.656,96.606a9.518,9.518,0,0,1,9.519,9.516,9.52,9.52,0,0,1-9.519,9.519,9.517,9.517,0,0,1-9.514-9.519A9.515,9.515,0,0,1-409.656,96.606Z" transform="translate(450.194 -79.183)" fill="#7dcbdb" fill-rule="evenodd"/>
      <path id="Trazado_24129" data-name="Trazado 24129" d="M-411.257,97.672a6.852,6.852,0,0,1,6.85,6.848,6.85,6.85,0,0,1-6.85,6.848,6.85,6.85,0,0,1-6.848-6.848A6.851,6.851,0,0,1-411.257,97.672Z" transform="translate(451.794 -77.581)" fill="#5a3445" fill-rule="evenodd"/>
      <path id="Trazado_24130" data-name="Trazado 24130" d="M-411.635,97.164a3.113,3.113,0,0,1,3.114,3.111,3.114,3.114,0,0,1-3.114,3.114,3.112,3.112,0,0,1-3.111-3.114A3.111,3.111,0,0,1-411.635,97.164Z" transform="translate(456.843 -78.344)" fill="#e1e8e1" fill-rule="evenodd"/>
      <path id="Trazado_24131" data-name="Trazado 24131" d="M-411.462,97.05h0a3.406,3.406,0,0,0,3.394,3.4v0a3.4,3.4,0,0,0-3.394,3.4h0a3.406,3.406,0,0,0-3.4-3.4v0A3.408,3.408,0,0,0-411.462,97.05Z" transform="translate(456.67 -78.516)" fill="#fff" fill-rule="evenodd"/>
    </g>
    <g id="Grupo_14140" data-name="Grupo 14140" transform="translate(-405.89 191.925)">
      <g id="Grupo_14139" data-name="Grupo 14139" transform="translate(3.13 2.575)">
        <path id="Trazado_24132" data-name="Trazado 24132" d="M-447.691,135.48c.686.33.123,1.492-.706,1.329a.512.512,0,0,1-.128-.045l-.175-.085-.29-.14-.288-.135-.29-.14-.29-.138-.3-.133-.293-.133-.3-.133-.293-.133-.3-.128-.3-.13-.3-.13-.3-.125-.3-.123-.3-.125-.3-.125-.3-.12-.3-.12-.305-.12-.3-.118-.2-.075c-.668-.24-.318-1.357.523-1.364a.623.623,0,0,1,.218.04l.2.078.31.12.305.123.308.12.308.125.3.123.305.128.3.128.3.128.3.128.3.133.3.133.3.135.3.135.3.133.3.138.3.14.3.138.3.138.293.145Z" transform="translate(465.138 -129.653)" fill="#fdfdfd" fill-rule="evenodd"/>
        <path id="Trazado_24133" data-name="Trazado 24133" d="M-444.349,138.085c.626.44-.1,1.537-.869,1.259a.744.744,0,0,1-.108-.058l-.065-.048-.26-.175-.258-.175-.26-.173-.26-.173-.263-.173-.26-.168-.265-.17-.263-.168-.265-.168-.268-.165-.268-.165-.27-.165-.27-.163-.27-.163-.27-.16-.273-.16-.275-.158-.273-.158-.275-.158-.278-.155-.055-.03c-.636-.343-.105-1.434.691-1.322a.53.53,0,0,1,.193.065l.063.033.28.158.28.16.28.16.275.16.278.163.278.165.275.163.27.165.275.168.273.168.273.17.27.168.268.17.268.173.265.175.268.173.263.175.265.175.263.178.263.18Z" transform="translate(470.857 -126.984)" fill="#fdfdfd" fill-rule="evenodd"/>
        <path id="Trazado_24134" data-name="Trazado 24134" d="M-441.5,141.2c.6.6-.483,1.662-1.109,1.091l-.125-.12-.22-.208-.218-.205-.223-.208-.22-.205-.223-.2-.225-.2-.225-.2-.225-.2-.23-.2-.23-.2-.23-.2-.23-.2-.233-.2-.235-.2-.238-.193-.235-.2-.238-.193-.24-.19-.24-.193-.24-.188-.083-.065a.584.584,0,0,1-.188-.631.836.836,0,0,1,1.214-.533l.088.068.245.193.243.193.245.2.243.2.235.2.243.2.238.2.235.2.238.2.238.2.23.2.233.205.23.2.23.205.23.208.228.208.223.208.225.208.223.213.223.21Z" transform="translate(476.042 -123.565)" fill="#fdfdfd" fill-rule="evenodd"/>
        <path id="Trazado_24135" data-name="Trazado 24135" d="M-439.273,144.835c.44.628-.553,1.527-1.144,1.044a.889.889,0,0,1-.093-.1l-.155-.218-.17-.238-.17-.233-.17-.238-.175-.23-.175-.233-.178-.233-.178-.233-.18-.228-.183-.233-.183-.228-.185-.228-.185-.228-.188-.225-.188-.225-.193-.225-.19-.225-.193-.223-.2-.223-.2-.22-.2-.22-.135-.148c-.518-.578.438-1.582,1.094-1.1a.484.484,0,0,1,.065.06l.14.153.2.225.2.228.2.225.2.228.2.228.193.228.193.23.193.233.188.233.188.23.188.233.185.238.185.235.18.233.18.238.178.238.18.238.175.24.173.24.175.24Z" transform="translate(480.556 -119.395)" fill="#fdfdfd" fill-rule="evenodd"/>
        <path id="Trazado_24136" data-name="Trazado 24136" d="M-437.9,149.011c.293.726-.864,1.5-1.329.788l-.027-.06-.058-.14-.11-.26-.11-.263-.115-.258-.113-.26-.118-.258-.118-.258-.12-.258-.123-.255-.12-.258-.128-.255-.128-.253-.128-.255-.13-.253-.13-.25-.138-.253-.135-.253-.135-.25-.14-.248-.14-.25-.14-.245-.145-.25-.128-.218a.626.626,0,0,1-.062-.456c.155-.658,1.046-.929,1.349-.415l.133.225.148.255.145.253.145.255.14.255.14.255.138.258.138.26.135.258.135.26.13.26.13.258.128.265.128.26.125.263.123.263.123.265.118.265.118.265.115.268.115.265.113.268Z" transform="translate(484.218 -114.463)" fill="#fdfdfd" fill-rule="evenodd"/>
        <path id="Trazado_24137" data-name="Trazado 24137" d="M-437.659,153.653a.834.834,0,0,1-.355.748c-.445.325-1.019.17-1.079-.308l-.015-.113-.035-.28-.042-.28-.043-.283-.045-.28-.048-.278-.047-.28-.052-.278-.053-.278-.055-.28-.055-.275-.058-.275-.062-.278-.06-.275-.068-.273-.068-.275-.065-.275-.073-.273-.07-.273-.075-.273-.078-.27-.075-.273-.08-.27-.062-.205a.786.786,0,0,1,.285-.806c.416-.343.969-.26,1.1.175l.068.215.083.278.08.28.075.278.08.28.073.28.073.28.07.285.07.28.065.283.065.285.063.285.06.283.06.285.055.285.055.288.05.288.052.288.045.288.047.288.042.29.043.29.04.29Z" transform="translate(486.741 -108.78)" fill="#fdfdfd" fill-rule="evenodd"/>
        <path id="Trazado_24138" data-name="Trazado 24138" d="M-438.443,156.465c-.078.8-1.284,1.089-1.434.318a.831.831,0,0,1-.005-.178l.028-.3.025-.3.022-.293.02-.3.02-.3.018-.293.013-.29.01-.293.01-.293.01-.293,0-.29,0-.29,0-.29,0-.29,0-.29,0-.288-.005-.175a.773.773,0,0,1,.168-.491c.446-.568,1.244-.453,1.276.18l.005.185.005.3,0,.3,0,.3,0,.3,0,.3-.005.3-.01.3-.007.3-.01.3-.018.3-.017.3-.02.3-.02.305-.022.305-.028.305Z" transform="translate(487.673 -102.444)" fill="#fdfdfd" fill-rule="evenodd"/>
        <path id="Trazado_24139" data-name="Trazado 24139" d="M-458.545,132.927c-.783-.193-.42-1.379.438-1.389a.614.614,0,0,1,.14.018l.333.078.325.08.33.075.325.083.328.083.328.083.32.085.325.088.325.088.325.09.325.09.32.093.323.093.323.093.32.1.32.1.318.1.318.1.318.1.318.1.075.023a.561.561,0,0,1,.363.686.877.877,0,0,1-1.049.658l-.073-.025-.31-.1-.315-.1-.313-.1-.315-.1-.315-.1-.315-.093-.318-.1-.318-.09-.315-.09-.318-.09-.32-.088-.318-.085-.32-.088-.32-.083-.32-.083-.323-.08-.32-.08-.323-.078-.323-.078Z" transform="translate(458.978 -131.538)" fill="#fdfdfd" fill-rule="evenodd"/>
      </g>
      <path id="Trazado_24140" data-name="Trazado 24140" d="M-460.22,133.7a3.009,3.009,0,0,1,2.673-3.174,2.772,2.772,0,0,1,3.1,2.55,3.011,3.011,0,0,1-2.676,3.171A2.766,2.766,0,0,1-460.22,133.7Z" transform="translate(460.228 -130.509)" fill="#fdfdfd" fill-rule="evenodd"/>
    </g>
    <g id="Grupo_14142" data-name="Grupo 14142" transform="translate(-421.133 282.227)">
      <g id="Grupo_14141" data-name="Grupo 14141" transform="translate(0 3.029)">
        <path id="Trazado_24141" data-name="Trazado 24141" d="M-444,178.287c-.451.611-1.487-.168-1.166-.949a.605.605,0,0,1,.07-.118l.118-.155.193-.255.19-.258.19-.258.188-.26.193-.263.188-.26.185-.265.185-.263.183-.265.188-.265.183-.268.18-.268.18-.27.18-.27.18-.27.175-.27.178-.275.178-.275.17-.273.113-.178c.365-.611,1.392-.05,1.236.776a.651.651,0,0,1-.08.208l-.115.18-.178.28-.175.28-.183.275-.18.275-.18.275-.183.275-.185.27-.183.275-.183.27-.188.27-.19.27-.19.268-.188.268-.19.265-.19.265-.2.263-.193.263-.2.263-.2.263Z" transform="translate(498.02 -162.118)" fill="#fdfdfd" fill-rule="evenodd"/>
        <path id="Trazado_24142" data-name="Trazado 24142" d="M-446.795,181.065c-.553.528-1.489-.39-1.069-1.094a.74.74,0,0,1,.078-.1l.063-.055.218-.22.223-.22.22-.22.22-.22.218-.228.218-.223.218-.225.218-.228.215-.228.215-.23.213-.233.213-.23.21-.235.213-.233.208-.235.208-.238.21-.238.208-.24.208-.24.208-.24.038-.05c.463-.556,1.427.175,1.164.934a.545.545,0,0,1-.1.178l-.045.055-.208.243-.213.245-.21.243-.21.24-.213.243-.21.24-.215.238-.215.238-.218.235-.218.233-.218.235-.218.233-.22.23-.22.228-.223.23-.223.228-.22.225-.223.225-.225.223-.228.223Z" transform="translate(493.895 -157.022)" fill="#fdfdfd" fill-rule="evenodd"/>
        <path id="Trazado_24143" data-name="Trazado 24143" d="M-450.012,183.261c-.706.468-1.539-.8-.859-1.3l.143-.1.245-.175.245-.173.245-.178.243-.178.243-.18.243-.183.24-.18.243-.185.24-.185.24-.188.238-.188.24-.188.238-.193.235-.19.235-.2.238-.2.233-.2.235-.2.233-.2.233-.2.08-.068a.581.581,0,0,1,.653-.063.831.831,0,0,1,.288,1.292l-.08.073-.238.2-.238.2-.235.2-.243.2-.238.2-.238.2-.243.2-.243.2-.24.2-.245.19-.245.188-.243.19-.245.188-.245.185-.248.185-.248.183-.248.18-.248.18-.25.178-.25.178Z" transform="translate(489.155 -152.592)" fill="#fdfdfd" fill-rule="evenodd"/>
        <path id="Trazado_24144" data-name="Trazado 24144" d="M-453.646,184.742c-.7.31-1.389-.841-.8-1.324a.666.666,0,0,1,.113-.073l.245-.11.265-.12.263-.123.265-.125.26-.125.263-.128.26-.128.263-.13.258-.133.263-.135.26-.133.26-.138.255-.138.263-.14.253-.145.26-.143.255-.145.258-.145.253-.15.258-.148.253-.153.173-.1c.666-.4,1.469.736.869,1.286a.3.3,0,0,1-.07.053l-.178.108-.263.153-.258.155-.263.15-.258.15-.265.148-.26.145-.263.145-.263.143-.265.14-.265.14-.265.14-.265.135-.265.135-.265.133-.268.13-.268.133-.268.128-.27.125-.268.125-.268.123Z" transform="translate(483.826 -148.967)" fill="#fdfdfd" fill-rule="evenodd"/>
        <path id="Trazado_24145" data-name="Trazado 24145" d="M-457.676,185.282c-.768.148-1.3-1.134-.518-1.454l.063-.018.153-.028.275-.058.278-.058.278-.063.275-.063.278-.063.275-.068.273-.07.278-.068.275-.073.273-.073.275-.075.273-.078.273-.078.275-.083.27-.083.275-.085.27-.085.27-.088.273-.09.27-.093.273-.093.238-.085a.623.623,0,0,1,.458.028c.616.278.708,1.2.148,1.4l-.245.088-.278.1-.28.093-.278.093-.275.09-.28.088-.278.085-.28.085-.28.083-.28.083-.28.078-.283.078-.28.075-.28.075-.283.07-.283.07-.28.068-.283.065-.285.065-.285.063-.28.06-.285.06Z" transform="translate(477.948 -146.326)" fill="#fdfdfd" fill-rule="evenodd"/>
        <path id="Trazado_24146" data-name="Trazado 24146" d="M-462.029,184.623a.829.829,0,0,1-.663-.493c-.235-.5.03-1.034.511-1l.11.008.285.017.28.015.283.01.288.012.28.008.285,0,.283.008.283,0h.285l.28,0,.283-.008.283,0,.283-.01.283-.01.28-.013.283-.013.28-.017.285-.018.278-.02.283-.023.28-.023.283-.028.215-.023a.791.791,0,0,1,.733.438c.255.473.068,1-.383,1.049l-.225.025-.29.028-.288.023-.29.022-.288.02-.288.02-.293.015-.29.018-.29.01-.288.01-.293.01-.293.008-.293.005h-.288l-.293,0-.29,0-.293-.005-.293-.005-.29-.01-.293-.01-.293-.013-.293-.015-.293-.018Z" transform="translate(471.636 -144.946)" fill="#fdfdfd" fill-rule="evenodd"/>
        <path id="Trazado_24147" data-name="Trazado 24147" d="M-465.715,183.884c-.773-.23-.823-1.467-.035-1.467a.544.544,0,0,1,.175.028l.283.085.288.08.28.078.285.078.288.078.283.073.285.07.283.065.288.068.283.065.283.06.285.06.285.058.285.055.283.053.285.05.173.03a.779.779,0,0,1,.448.258c.473.546.208,1.309-.421,1.219L-461,185l-.3-.055-.293-.053-.293-.058-.3-.058-.3-.063-.3-.063-.3-.065-.293-.07-.293-.07-.3-.073-.3-.075-.293-.078-.3-.08-.293-.08-.3-.085Z" transform="translate(466.318 -145.826)" fill="#fdfdfd" fill-rule="evenodd"/>
        <path id="Trazado_24148" data-name="Trazado 24148" d="M-439.834,168.129c.343-.728,1.432-.145,1.279.7a.762.762,0,0,1-.045.14l-.138.305-.14.308-.143.305-.143.305-.143.305-.148.305-.145.3-.148.3-.148.3-.15.3-.15.3-.153.3-.155.3-.153.3-.158.3-.155.3-.16.3-.158.293-.16.293-.163.293-.038.068a.557.557,0,0,1-.741.223.87.87,0,0,1-.443-1.154l.035-.065.16-.288.158-.288.158-.29.153-.29.158-.29.15-.293.155-.293.15-.293.15-.293.15-.3.148-.3.145-.3.143-.3.148-.3.143-.3.14-.3.14-.3.14-.3.135-.3Z" transform="translate(501.494 -167.798)" fill="#fdfdfd" fill-rule="evenodd"/>
      </g>
      <path id="Trazado_24149" data-name="Trazado 24149" d="M-439.24,166.608a3.009,3.009,0,0,1,2.6,3.236,2.771,2.771,0,0,1-3.1,2.545,3.01,3.01,0,0,1-2.6-3.236A2.768,2.768,0,0,1-439.24,166.608Z" transform="translate(502.345 -166.588)" fill="#fdfdfd" fill-rule="evenodd"/>
    </g>
    <g id="Grupo_14144" data-name="Grupo 14144" transform="translate(-320.809 149.309)">
      <g id="Grupo_14143" data-name="Grupo 14143" transform="translate(0 3)">
        <path id="Trazado_24150" data-name="Trazado 24150" d="M-424.572,143.8l.025.127.056.343.061.343.059.341.061.34.064.339.066.337.063.335.066.335.069.334.068.331.068.33.073.328.068.329.073.325.071.324.076.323.076.32.034.141-1.122.3-.034-.147-.076-.326-.076-.328-.073-.327-.073-.331-.073-.333-.071-.334-.071-.334-.068-.338-.069-.336-.066-.34-.066-.341-.066-.341-.063-.345-.063-.343-.061-.346-.061-.348-.059-.347-.022-.13Z" transform="translate(427.028 -70.92)" fill="#fdfdfd" fill-rule="evenodd"/>
        <path id="Trazado_24151" data-name="Trazado 24151" d="M-425.005,139.952l.007.114.025.367.027.367.027.365.029.364.029.365.032.362.032.364.034.363.037.361.037.362.037.359.042.359.039.359.042.357.044.358.044.356.017.129-1.144.166-.017-.133-.047-.36-.042-.362-.044-.363-.042-.364-.039-.363-.037-.365-.039-.367-.037-.367-.034-.368-.032-.367-.031-.369-.032-.368-.03-.37-.027-.37-.029-.372-.022-.37-.007-.114Z" transform="translate(426.355 -76.701)" fill="#fdfdfd" fill-rule="evenodd"/>
        <path id="Trazado_24152" data-name="Trazado 24152" d="M-425,136.113l-.01.2-.015.369-.012.37-.012.369-.01.369-.007.37,0,.37-.005.37,0,.371v1.111l0,.37.005.37.007.369.007.369.007.309-1.153.034-.008-.314-.01-.375,0-.375-.005-.375,0-.375,0-.376v-.374l0-.378,0-.375.005-.375.007-.375.007-.376.01-.375.012-.376.012-.374.015-.375.007-.2Z" transform="translate(426.236 -82.551)" fill="#fdfdfd" fill-rule="evenodd"/>
        <path id="Trazado_24153" data-name="Trazado 24153" d="M-424.167,132.375l-.005.024-.061.352-.059.354-.058.354-.056.357-.054.357-.054.357-.049.358-.049.361-.046.359-.047.359-.044.362-.039.362-.039.363-.039.363-.034.364-.037.364-.02.217-1.149-.112.02-.223.034-.37.037-.369.039-.371.042-.368.042-.369.044-.368.044-.367.049-.367.049-.365.051-.365.056-.364.054-.363.056-.363.059-.362.061-.359.063-.362,0-.023Z" transform="translate(426.431 -88.425)" fill="#fdfdfd" fill-rule="evenodd"/>
        <path id="Trazado_24154" data-name="Trazado 24154" d="M-422.626,128.8l-.088.236-.115.315-.113.319-.11.32-.108.32-.11.324-.1.324-.1.327-.1.326-.1.33-.1.333-.093.33-.093.335-.091.336-.088.336-.088.337-.083.34-.061.248-1.117-.3.061-.254.085-.347.088-.347.09-.345.093-.342.1-.342.1-.341.1-.34.1-.337.1-.336.105-.335.107-.332.11-.332.112-.331.112-.329.117-.328.117-.324.088-.236Z" transform="translate(427.366 -94.125)" fill="#fdfdfd" fill-rule="evenodd"/>
        <path id="Trazado_24155" data-name="Trazado 24155" d="M-420.171,125.641l-.012.022-.183.253-.178.256-.176.259-.176.26-.171.263-.171.266-.169.266-.164.271-.164.271-.159.276-.159.277-.159.279-.154.28-.152.285-.146.286-.149.286-.147.292-.142.291-.064.132-1.031-.547.066-.141.149-.3.149-.3.154-.3.154-.3.159-.295.159-.292.161-.29.164-.286.169-.285.169-.283.171-.28.176-.28.176-.274.178-.274.181-.273.183-.268.186-.269.193-.262.015-.023Z" transform="translate(429.3 -99.325)" fill="#fdfdfd" fill-rule="evenodd"/>
        <path id="Trazado_24156" data-name="Trazado 24156" d="M-416.788,123.3l-.015.007-.108.065-.105.066-.107.065-.105.067-.1.067-.1.07-.1.066-.1.07-.25.175-.244.182-.245.183-.24.187-.237.189-.237.192-.23.2-.232.2-.227.2-.225.2-.225.208-.22.21-.218.214-.215.215-.213.22-.115.12-.821-.858.127-.132.222-.23.225-.226.23-.224.23-.22.234-.217.235-.215.24-.211.242-.208.245-.206.247-.2.249-.2.254-.2.254-.192.259-.189.259-.186.11-.076.11-.074.11-.075.113-.073.115-.073.115-.071.115-.071.117-.071.012-.006Z" transform="translate(432.566 -103.321)" fill="#fdfdfd" fill-rule="evenodd"/>
        <path id="Trazado_24157" data-name="Trazado 24157" d="M-409.5,122.644l-.068-.013-.139-.028-.144-.024-.139-.025-.142-.023-.144-.023-.145-.022-.147-.021-.144-.021-.144-.021-.149-.02-.144-.017-.149-.017-.149-.016-.149-.015-.149-.017-.149-.012-.152-.014-.151-.012-.149-.011-.151-.01-.154-.011-.151-.009-.154-.007-.154-.008-.151-.006-.154-.006-.156-.005-.154,0-.154,0h-.154l-.156,0h-.469l-.154,0-.159,0-.156,0-.027-1.22.164-.005.161,0,.161,0h.645l.161,0,.161,0,.161,0,.159,0,.161.006.159.006.159.008.159.009.161.01.156.01.156.011.161.012.154.012.156.012.156.015.156.016.154.017.156.016.154.018.154.019.154.02.152.021.151.022.154.022.151.023.149.025.149.026.149.026.149.026.147.028.068.014Z" transform="translate(442.887 -105.214)" fill="#fdfdfd" fill-rule="evenodd"/>
        <path id="Trazado_24158" data-name="Trazado 24158" d="M-407.637,126.241a6.959,6.959,0,0,0-3.972-3.532l.423-1.136a8.112,8.112,0,0,1,4.605,4.17Z" transform="translate(448.218 -104.323)" fill="#fdfdfd" fill-rule="evenodd"/>
        <path id="Trazado_24159" data-name="Trazado 24159" d="M-411,129.636l.078-.076.1-.1.1-.1.1-.1.093-.105.1-.11.09-.111.091-.116.09-.12.09-.122.088-.127.088-.127.088-.134.086-.137.086-.14.083-.143.081-.146.083-.152.081-.156.073-.147.071-.144.069-.144.066-.143.063-.139.059-.141.059-.138.056-.139.051-.136.046-.134.049-.133.046-.133.039-.131.042-.128.037-.129.034-.127.032-.126.032-.125.029-.123,0-.032,1.129.252-.01.051-.032.143-.034.144-.036.144-.042.147-.042.147-.047.147-.046.15-.051.148-.054.151-.054.149-.059.153-.063.154-.064.152-.066.155-.068.156-.071.156-.076.158-.078.159-.081.159-.088.171-.09.167-.093.165-.093.161-.1.157-.1.153-.1.153-.1.148-.1.143-.1.141-.105.136-.105.134-.108.131-.105.127-.112.122-.108.12-.115.116-.112.114-.081.076Z" transform="translate(449.141 -99.589)" fill="#fdfdfd" fill-rule="evenodd"/>
        <path id="Trazado_24160" data-name="Trazado 24160" d="M-413.815,126.713l.056.034.132.077.127.076.132.073.127.071.129.067.13.066.129.065.13.062.13.06.129.057.127.055.13.055.127.05.127.049.127.044.13.047.125.042.127.039.127.035.127.036.122.033.127.029.125.028.122.025.125.022.122.02.122.02.122.016.122.012.122.011.12.008.117.006.12,0h.24l.117-.005.115-.006.117-.01.115-.011.117-.015.1-.015.171,1.206-.13.02-.139.017-.139.013-.142.012-.139.007-.14.005-.142,0h-.142l-.142-.005-.142-.006-.144-.01-.139-.014-.142-.015-.144-.018-.144-.021-.142-.023-.144-.026-.142-.031-.144-.031-.144-.033-.144-.038-.142-.039-.144-.043-.142-.045-.142-.047-.147-.05-.142-.051-.144-.054-.142-.058-.144-.06-.144-.061-.144-.065-.142-.066-.142-.067-.142-.073-.142-.072-.147-.076-.139-.077-.142-.081-.142-.081-.139-.084-.056-.033Z" transform="translate(444.046 -96.598)" fill="#fdfdfd" fill-rule="evenodd"/>
        <path id="Trazado_24161" data-name="Trazado 24161" d="M-416.112,124.075l.071.113.108.165.105.162.108.161.107.161.11.158.11.159.11.155.112.158.112.153.112.153.113.151.117.15.115.148.115.147.117.147.117.143.117.142.12.142.12.139.12.138.122.137.12.134.122.133.122.13.122.132.125.128.122.127.125.124.125.123.125.122.083.078-.77.909-.09-.084-.13-.129-.134-.13-.132-.133-.13-.134-.13-.136-.132-.137-.129-.139-.127-.139-.127-.143-.13-.143-.125-.145-.125-.145-.125-.15-.125-.148-.122-.152-.125-.154-.122-.153-.12-.158-.122-.156-.12-.158-.117-.161-.12-.16-.115-.164-.115-.162-.117-.166-.112-.166-.115-.169-.112-.17-.11-.171-.11-.171-.073-.112Z" transform="translate(440.01 -100.563)" fill="#fdfdfd" fill-rule="evenodd"/>
        <path id="Trazado_24162" data-name="Trazado 24162" d="M-416.988,120.595l.014.06.039.2.049.2.046.2.047.2.051.2.051.2.054.2.054.2.059.2.015.049.02,0,.151-.038.154-.038.156-.038.154-.035.154-.034.156-.036.159-.033.156-.033.156-.032.159-.031.156-.032.159-.028.159-.029.159-.028.159-.027.161-.026.159-.026.159-.026.164-.025.159-.022.161-.023.061-.009.147,1.211-.061.009-.154.022-.154.022-.156.023-.154.024-.156.025-.151.026-.154.024-.154.028-.154.028-.151.028-.154.029-.152.031-.151.03-.152.033-.149.032-.149.034-.152.032-.151.036-.147.035-.147.036-.066.017.054.156.071.193.069.192.071.192.073.191.073.19.076.191.078.188.078.188.078.188.081.186.083.186.086.185.049.112-1.034.54-.056-.122-.088-.194-.086-.193-.086-.2-.083-.2-.083-.2-.08-.2-.078-.2-.076-.2-.078-.2-.073-.2-.073-.2-.073-.2-.068-.2-.025-.075-.117.036-.142.044-.142.043-.139.046-.139.044-.139.046-.137.047-.137.048-.13.044-.367-1.156.132-.047.144-.05.147-.05.142-.048.147-.048.147-.045.147-.047.147-.047.071-.02-.059-.205-.059-.209-.056-.209-.054-.21-.051-.209-.054-.211-.049-.21-.049-.211-.044-.213-.012-.06Z" transform="translate(437.334 -105.793)" fill="#fdfdfd" fill-rule="evenodd"/>
        <path id="Trazado_24163" data-name="Trazado 24163" d="M-417,117.046l-.022.072-.049.2-.049.2-.046.2-.044.2-.039.2-.042.2-.034.2-.034.2-.032.2-.029.2-.027.2-.027.2-.022.2-.024.2-.017.2-.017.2-.015.2-.01.206-.012.2-.007.205,0,.2-.005.205,0,.2v.205l0,.2.005.205.007.205.01.2,0,.08-1.151.073,0-.092-.012-.22-.005-.217,0-.217,0-.217v-.217l0-.219,0-.217.005-.219.01-.217.01-.218.012-.217.015-.219.02-.217.02-.217.022-.216.025-.219.027-.216.03-.218.032-.217.034-.216.037-.216.039-.215.042-.216.044-.216.046-.214.049-.215.051-.215.056-.215.02-.073Z" transform="translate(437.468 -111.615)" fill="#fdfdfd" fill-rule="evenodd"/>
        <path id="Trazado_24164" data-name="Trazado 24164" d="M-416.116,115.362l-.115.184-.112.186-.112.188-.105.187-.105.188-.1.188-.1.189-.083.165-1.019-.569.09-.18.105-.2.11-.2.112-.2.117-.2.117-.2.12-.2.125-.2Z" transform="translate(438.657 -114.681)" fill="#fdfdfd" fill-rule="evenodd"/>
      </g>
      <path id="Trazado_24165" data-name="Trazado 24165" d="M-411.759,116.277a3.477,3.477,0,0,0-4.217-2.686,3.7,3.7,0,0,0-2.541,4.458,3.47,3.47,0,0,0,4.215,2.686A3.7,3.7,0,0,0-411.759,116.277Z" transform="translate(437.681 -113.483)" fill="#fdfdfd" fill-rule="evenodd"/>
    </g>
    <g id="Grupo_14146" data-name="Grupo 14146" transform="translate(-181.382 248.14)">
      <path id="Trazado_24166" data-name="Trazado 24166" d="M-364.37,161.519a4.164,4.164,0,0,0,2.5-5.579,4.734,4.734,0,0,0-5.837-2.733,4.165,4.165,0,0,0-2.5,5.577A4.735,4.735,0,0,0-364.37,161.519Z" transform="translate(370.53 -152.969)" fill="#fdfdfd" fill-rule="evenodd"/>
      <g id="Grupo_14145" data-name="Grupo 14145" transform="translate(6.891 6.493)">
        <path id="Trazado_24167" data-name="Trazado 24167" d="M-352.271,174.68a1.194,1.194,0,0,0-2.365-.243l-.005.118v.038l0,.318-.005.32-.008.32-.01.318-.008.32-.015.318-.018.318-.017.318-.023.318-.025.32-.025.318-.03.32-.03.315-.033.32-.035.318-.04.318-.04.318-.043.315-.043.318-.05.315-.05.318-.053.318-.055.315-.06.318-.058.315-.065.318-.065.313-.063.313-.073.318-.07.313-.073.315-.08.313-.078.313-.083.315-.075.28a1.208,1.208,0,0,0,2.24.853,1,1,0,0,0,.055-.153l.08-.293.085-.33.083-.33.08-.328.08-.33.075-.33.073-.33.07-.333.068-.333.065-.33.063-.333.06-.333.063-.333.053-.333.055-.333.047-.333.05-.333.043-.335.045-.335.037-.333.04-.335.035-.335.03-.333.03-.338.028-.333.028-.338.02-.333.02-.335.018-.335.018-.338.01-.335.013-.335,0-.335.005-.335v-.375Z" transform="translate(385.204 -128.659)" fill="#fdfdfd" fill-rule="evenodd"/>
        <path id="Trazado_24168" data-name="Trazado 24168" d="M-354.848,166.937a1.261,1.261,0,0,0-1.362-.731,1.107,1.107,0,0,0-.811,1.554l.1.22.128.3.13.3.128.305.125.305.12.3.118.305.118.305.115.308.113.31.113.308.105.305.105.31.105.305.1.31.1.313.1.308.093.31.093.313.09.31.085.313.085.313.08.313.078.31.078.315.075.313.07.315.073.313.065.315.065.315.063.313.06.318.06.315.053.315.055.315.028.183a1.255,1.255,0,0,0,.806.969,1.122,1.122,0,0,0,1.539-1.2l-.033-.2-.055-.333-.057-.333-.06-.33-.065-.333-.068-.333-.065-.333-.073-.333-.073-.328-.075-.33-.078-.333-.083-.328-.085-.333-.085-.33-.088-.328-.09-.33-.1-.328-.1-.325-.1-.33-.1-.325-.1-.328-.108-.325-.108-.325-.11-.325-.113-.325-.115-.325-.12-.32-.123-.323-.123-.323-.125-.323-.13-.323-.13-.32-.133-.318-.138-.32-.138-.32Z" transform="translate(383.792 -139.597)" fill="#fdfdfd" fill-rule="evenodd"/>
        <path id="Trazado_24169" data-name="Trazado 24169" d="M-359.493,160.338a1.252,1.252,0,0,0-1.106-.343,1.125,1.125,0,0,0-.531,1.937l.158.153.26.255.258.258.253.26.253.26.25.263.248.263.248.263.24.265.24.265.24.268.235.268.233.27.233.268.228.27.23.273.22.273.223.275.22.275.215.273.213.278.215.278.208.275.208.283.205.278.2.28.2.285.2.28.2.285.2.283.19.288.19.285.185.288.1.158a1.246,1.246,0,0,0,1.539.486,1.113,1.113,0,0,0,.463-1.632l-.113-.175-.193-.3-.2-.3-.2-.3-.2-.3-.208-.3-.205-.3-.213-.3-.213-.3-.213-.293-.22-.293-.22-.293-.223-.293-.225-.29-.228-.288-.228-.29-.233-.285-.235-.288-.24-.285-.238-.283-.245-.285-.243-.28-.248-.28-.25-.28-.25-.278-.258-.28-.255-.275-.258-.275-.265-.273-.265-.273-.265-.27-.27-.273-.27-.27Z" transform="translate(377.217 -148.932)" fill="#fdfdfd" fill-rule="evenodd"/>
        <path id="Trazado_24170" data-name="Trazado 24170" d="M-366.087,155.706a1.132,1.132,0,0,0-1.327,1.817,1.356,1.356,0,0,0,.325.233l.29.145.373.19.37.193.368.2.37.2.363.2.363.2.358.2.358.205.353.2.355.205.35.208.348.208.345.21.343.21.343.213.335.213.338.215.333.218.33.22.33.22.323.22.325.223.323.225.318.225.318.228.315.228.31.228.31.233.18.135a1.137,1.137,0,0,0,1.659-1.534,1.414,1.414,0,0,0-.263-.27l-.2-.145-.32-.24-.325-.24-.328-.238-.333-.238-.33-.233-.335-.235-.338-.233-.34-.23-.338-.228-.345-.228-.35-.225-.348-.225-.353-.223-.355-.22-.355-.22-.358-.218-.36-.215-.365-.218-.365-.21-.37-.213-.37-.208-.373-.208-.375-.208-.38-.205-.38-.2-.383-.2-.383-.2-.391-.2Z" transform="translate(367.777 -155.563)" fill="#fdfdfd" fill-rule="evenodd"/>
        <path id="Trazado_24171" data-name="Trazado 24171" d="M-359.2,190.8a1.212,1.212,0,0,0,1.8,1.584.8.8,0,0,0,.118-.128l.223-.293.22-.293.218-.293.215-.3.213-.293.21-.3.208-.3.2-.3.205-.3.2-.3.2-.3.193-.3.193-.3.193-.3.183-.305.188-.308.183-.305.178-.305.178-.31.175-.308.173-.31.17-.31.165-.31.165-.31.16-.313.163-.313.155-.315.153-.315.153-.315.15-.315.145-.318.145-.318.09-.208a1.209,1.209,0,0,0-2.155-1.076l-.023.053-.093.208-.138.305-.14.3-.143.3-.145.3-.148.3-.15.3-.15.3-.155.3-.155.3-.16.3-.163.3-.165.3-.165.3-.168.293-.175.3-.173.29-.178.293-.18.293-.178.29-.185.29-.188.288-.188.29-.193.285-.193.288-.2.288-.2.285-.2.283-.2.285-.2.28-.213.283-.21.28Z" transform="translate(380.318 -117.949)" fill="#fdfdfd" fill-rule="evenodd"/>
      </g>
    </g>
    <g id="Grupo_14148" data-name="Grupo 14148" transform="translate(-310.441 314.772)">
      <g id="Grupo_14147" data-name="Grupo 14147">
        <path id="Trazado_24172" data-name="Trazado 24172" d="M-414.493,185.069l-.078-.1-.213-.279-.212-.275-.21-.275-.213-.273-.213-.27-.215-.268-.21-.268-.215-.265-.215-.264-.215-.263-.212-.259-.215-.258-.215-.258-.215-.255-.215-.252-.215-.251-.215-.249-.1-.11.853-.786.1.114.22.253.218.254.217.257.22.259.218.26.218.262.218.264.217.267.218.268.218.269.218.271.218.271.215.276.213.275.215.278.217.281.213.28.078.1Z" transform="translate(427.789 -179.59)" fill="#fdfdfd" fill-rule="evenodd"/>
        <path id="Trazado_24173" data-name="Trazado 24173" d="M-412.613,188.433l-.059-.1-.193-.314-.193-.312-.193-.312-.193-.308-.2-.31-.2-.307-.2-.307-.2-.305-.2-.3-.2-.3-.2-.3-.2-.3-.2-.3-.2-.3-.205-.3-.206-.3-.076-.106.936-.678.078.111.208.3.205.3.208.3.205.3.2.3.2.3.205.307.2.308.2.309.2.312.2.31.2.312.2.315.2.314.2.316.193.317.059.1Z" transform="translate(431.36 -174.944)" fill="#fdfdfd" fill-rule="evenodd"/>
        <path id="Trazado_24174" data-name="Trazado 24174" d="M-411.1,191.964l-.086-.181-.156-.334-.161-.334-.164-.333-.161-.332-.166-.331-.166-.33-.166-.331-.171-.33-.169-.329-.174-.326-.171-.329-.176-.327-.176-.325-.178-.324-.176-.324-.149-.27,1-.566.151.274.183.329.178.329.178.331.176.331.176.333.176.331.173.335.171.335.171.334.166.336.169.337.166.336.164.34.164.336.159.34.088.18Z" transform="translate(434.451 -169.945)" fill="#fdfdfd" fill-rule="evenodd"/>
        <path id="Trazado_24175" data-name="Trazado 24175" d="M-410.095,195.644l-.007-.023-.11-.341-.112-.342-.112-.34-.117-.342-.117-.34-.117-.342-.125-.339-.122-.342-.125-.341-.127-.34-.132-.34-.13-.339-.134-.341-.134-.34-.139-.339-.137-.338-.083-.2,1.071-.434.086.208.139.343.142.343.137.347.134.344.134.347.134.346.127.346.129.347.127.347.122.346.122.348.12.347.117.347.115.347.115.349.112.347.007.023Z" transform="translate(436.996 -164.636)" fill="#fdfdfd" fill-rule="evenodd"/>
        <path id="Trazado_24176" data-name="Trazado 24176" d="M-409.828,199.409l-.034-.249-.044-.332-.047-.336-.051-.334-.054-.335-.053-.336-.059-.336-.061-.337-.061-.336-.066-.337-.071-.34-.068-.336-.073-.339-.078-.34-.076-.339-.081-.34-.083-.34-.061-.248,1.129-.253.066.254.083.347.083.348.078.347.078.347.076.347.071.346.071.347.066.346.066.346.064.345.059.345.056.345.054.347.051.342.051.343.046.343.032.249Z" transform="translate(438.841 -159.037)" fill="#fdfdfd" fill-rule="evenodd"/>
        <path id="Trazado_24177" data-name="Trazado 24177" d="M-410.5,203.026l0-.027.044-.309.042-.309.036-.312.032-.312.032-.312.027-.315.025-.314.019-.317.02-.316.012-.319.012-.319.01-.319.007-.32,0-.323,0-.321v-.323l-.007-.326-.01-.325-.005-.145,1.168.005.007.155.007.337.007.335,0,.336v.334l0,.332,0,.334-.01.33-.015.331-.015.331-.017.328-.022.329-.027.328-.027.326-.032.325-.034.325-.039.323-.042.324-.046.32,0,.028Z" transform="translate(439.51 -153.211)" fill="#fdfdfd" fill-rule="evenodd"/>
        <path id="Trazado_24178" data-name="Trazado 24178" d="M-411.68,206.134l.005-.015.066-.105.066-.109.061-.108.064-.107.059-.109.059-.108.056-.1.056-.106.139-.273.134-.275.129-.274.125-.277.122-.279.122-.28.112-.281.112-.282.108-.285.105-.286.1-.287.1-.288.1-.29.088-.291.088-.293.047-.161,1.124.381-.049.174-.091.308-.1.3-.1.3-.1.3-.108.3-.11.3-.112.3-.115.3-.122.295-.125.3-.13.292-.132.291-.137.29-.142.286-.145.287-.061.116-.061.118-.066.117-.064.117-.069.117-.068.116-.071.117-.069.116-.01.014Z" transform="translate(437.743 -147.623)" fill="#fdfdfd" fill-rule="evenodd"/>
        <path id="Trazado_24179" data-name="Trazado 24179" d="M-417.439,208.479l.066-.021.137-.043.137-.043.137-.044.134-.045.139-.047.139-.048.137-.048.139-.049.139-.05.137-.051.139-.053.139-.053.137-.055.14-.057.142-.055.137-.056.139-.059.139-.06.139-.06.139-.063.139-.061.139-.064.139-.062.139-.066.139-.066.137-.066.142-.07.137-.067.139-.069.137-.071.142-.072.137-.071.137-.072.139-.073.137-.075.137-.076.137-.076.591,1.068-.142.079-.144.078-.142.076-.142.076-.144.076-.142.075-.144.073-.144.073-.144.072-.144.071-.142.07-.147.07-.144.068-.144.067-.144.066-.144.066-.144.064-.147.065-.146.062-.142.062-.147.061-.144.059-.147.06-.144.056-.144.059-.147.055-.144.055-.144.054-.144.053-.144.051-.147.051-.144.049-.144.049-.144.047-.144.047-.144.046-.144.044-.064.02Z" transform="translate(429.088 -139.529)" fill="#fdfdfd" fill-rule="evenodd"/>
        <path id="Trazado_24180" data-name="Trazado 24180" d="M-420.4,206.884a7,7,0,0,0,5.161,1.284l.15,1.2a8.093,8.093,0,0,1-6.012-1.554Z" transform="translate(423.589 -138.57)" fill="#fdfdfd" fill-rule="evenodd"/>
        <path id="Trazado_24181" data-name="Trazado 24181" d="M-420.517,203.814l-.034.1-.042.128-.037.133-.039.133-.032.137-.034.141-.029.142-.025.144-.027.148-.022.15-.019.153-.017.154-.015.159-.012.161-.01.165-.007.165-.005.169,0,.171v.176l.005.164,0,.16.007.16.007.158.01.153.012.153.012.149.017.148.015.144.022.143.017.139.025.139.022.136.027.132.025.132.029.128.029.126.032.125.032.122.01.031-1.117.3-.015-.049-.039-.143-.037-.143-.034-.145-.032-.149-.032-.149-.027-.15-.027-.155-.024-.155-.025-.159-.02-.158-.019-.163-.017-.164-.012-.165-.015-.167-.01-.171-.01-.172-.007-.175-.005-.175,0-.178v-.194l0-.191.005-.188.007-.187.012-.183.015-.181.017-.179.017-.177.025-.174.024-.172.029-.169.032-.169.034-.165.034-.163.042-.159.042-.158.047-.155.046-.153.037-.1Z" transform="translate(422.093 -143.831)" fill="#fdfdfd" fill-rule="evenodd"/>
        <path id="Trazado_24182" data-name="Trazado 24182" d="M-415.144,202.8l-.066,0-.151-.008-.149-.007-.149,0-.146,0h-.291l-.146,0-.139.005-.144.007-.142.009-.139.011-.137.011-.139.015-.135.017-.134.018-.134.02-.13.021-.132.026-.127.026-.13.028-.125.028-.127.032-.122.034-.12.035-.12.038-.117.039-.12.04-.115.043-.115.045-.112.046-.108.049-.108.05-.11.053-.108.056-.1.055-.1.059-.1.059-.1.064-.1.064-.1.066-.086.061-.711-.989.108-.077.115-.081.117-.077.117-.075.122-.072.122-.071.125-.067.125-.065.127-.062.13-.06.13-.056.135-.055.132-.053.132-.05.139-.049.137-.045.139-.043.139-.042.145-.037.142-.038.144-.036.144-.031.147-.028.147-.028.149-.024.151-.023.152-.02.151-.018.154-.016.152-.015.159-.012.154-.009.159-.009.159-.006h.159l.159,0h.164l.159,0,.161,0,.164.006.166.008.064.005Z" transform="translate(423.699 -146.555)" fill="#fdfdfd" fill-rule="evenodd"/>
        <path id="Trazado_24183" data-name="Trazado 24183" d="M-412.011,205.306l-.115-.066-.169-.1-.171-.1-.171-.093-.169-.092-.171-.089-.171-.09-.171-.086-.171-.087-.171-.084-.171-.083-.171-.081-.171-.079-.171-.077-.171-.076-.171-.076-.171-.073-.171-.071-.171-.07-.171-.068-.169-.066-.171-.065-.169-.063-.169-.061-.168-.059-.171-.06-.169-.056-.169-.054-.168-.053-.167-.053-.168-.049-.108-.03.259-1.163.117.032.176.054.181.055.178.055.178.059.176.061.178.06.178.064.181.065.178.066.178.068.181.069.178.073.178.073.181.073.178.078.181.078.178.078.181.084.178.082.181.084.178.087.181.088.176.09.178.092.181.093.178.1.178.1.178.1.178.1.178.1.112.066Z" transform="translate(429.241 -146.15)" fill="#fdfdfd" fill-rule="evenodd"/>
        <path id="Trazado_24184" data-name="Trazado 24184" d="M-409.511,208.685l-.042-.045-.13-.159-.135-.156-.134-.156-.134-.155-.137-.153-.139-.153-.139-.15-.142-.15-.142-.149-.037-.038-.012.013-.12.1-.117.106-.122.105-.122.1-.12.1-.122.1-.122.1-.125.1-.125.1-.125.1-.125.1-.127.1-.127.1-.13.1-.127.1-.129.1-.132.1-.127.1-.132.1-.132.094-.132.1-.049.036-.694-1,.049-.035.13-.091.125-.092.127-.093.127-.094.125-.094.125-.093.125-.094.122-.1.125-.1.12-.1.125-.1.117-.1.122-.1.117-.1.12-.1.117-.1.12-.1.112-.1.115-.1.115-.1.051-.044-.122-.114-.149-.138-.151-.139-.154-.136-.152-.136-.154-.134-.156-.133-.154-.131-.159-.129-.156-.131-.156-.127-.161-.127-.161-.125-.1-.075.665-.959.108.082.166.132.166.132.166.133.164.134.164.136.164.137.161.14.164.141.159.14.159.144.159.144.159.145.156.147.056.055.085-.085.105-.1.105-.1.1-.106.1-.1.1-.105.1-.105.1-.105.093-.1.865.853-.1.105-.105.11-.105.111-.105.11-.107.11-.108.109-.11.109-.108.109-.051.05.147.155.149.158.147.158.144.161.144.161.144.164.142.164.139.165.14.166.036.048Z" transform="translate(433.932 -143.464)" fill="#fdfdfd" fill-rule="evenodd"/>
        <path id="Trazado_24185" data-name="Trazado 24185" d="M-409.323,212.617l-.015-.073-.049-.2-.049-.2-.054-.2-.054-.2-.059-.2-.059-.2-.061-.2-.063-.2-.066-.193-.069-.193-.068-.193-.073-.192-.073-.192-.076-.191-.078-.189-.081-.187-.083-.188-.083-.186-.085-.186-.091-.186-.088-.183-.091-.184-.1-.181-.093-.181-.1-.182-.1-.177-.1-.18-.1-.177-.042-.068.987-.6.047.081.11.188.108.188.105.192.1.192.1.192.1.194.1.2.1.2.093.2.09.2.091.2.088.2.083.2.086.2.081.2.078.205.078.206.073.206.073.205.071.208.066.209.066.21.066.21.059.211.058.213.056.211.054.216.051.214.017.074Z" transform="translate(437.984 -139.04)" fill="#fdfdfd" fill-rule="evenodd"/>
        <path id="Trazado_24186" data-name="Trazado 24186" d="M-410.493,212.07l.015-.218.015-.216.01-.217.01-.215,0-.215,0-.214v-.215l0-.185,1.168.031.005.2v.228l-.005.231,0,.231-.008.232-.012.231-.017.233-.017.235Z" transform="translate(439.526 -133.324)" fill="#fdfdfd" fill-rule="evenodd"/>
      </g>
      <path id="Trazado_24187" data-name="Trazado 24187" d="M-410.958,215.592a3.473,3.473,0,0,0,4.981.421,3.7,3.7,0,0,0,.18-5.129,3.469,3.469,0,0,0-4.978-.423A3.7,3.7,0,0,0-410.958,215.592Z" transform="translate(437.41 -134.491)" fill="#fdfdfd" fill-rule="evenodd"/>
    </g>
  </g>
</svg>
