<svg xmlns="http://www.w3.org/2000/svg" xmlns:xlink="http://www.w3.org/1999/xlink" width="265" height="489" viewBox="0 0 265 489">
  <defs>
    <radialGradient id="radial-gradient" cx="1.024" cy="0.922" r="1.232" gradientTransform="translate(0)" gradientUnits="objectBoundingBox">
      <stop offset="0" stop-color="#d81081"/>
      <stop offset="0.999" stop-color="#5266b0"/>
    </radialGradient>
    <radialGradient id="radial-gradient-2" cx="1.024" cy="0.922" r="1.232" gradientTransform="matrix(1, 0, 0, 1, 0, 0)" xlink:href="#radial-gradient"/>
    <radialGradient id="radial-gradient-3" cx="0.258" cy="0.995" r="0.861" gradientTransform="translate(0)" gradientUnits="objectBoundingBox">
      <stop offset="0" stop-color="#feee6e"/>
      <stop offset="0.061" stop-color="#fde56c" stop-opacity="0.969"/>
      <stop offset="0.167" stop-color="#fccf69" stop-opacity="0.882"/>
      <stop offset="0.305" stop-color="#faaa64" stop-opacity="0.745"/>
      <stop offset="0.468" stop-color="#f8795c" stop-opacity="0.557"/>
      <stop offset="0.622" stop-color="#f64555" stop-opacity="0.357"/>
      <stop offset="0.843" stop-color="#f25048" stop-opacity="0.137"/>
      <stop offset="1" stop-color="#f15740" stop-opacity="0"/>
    </radialGradient>
    <radialGradient id="radial-gradient-4" cx="0.258" cy="0.995" r="0.861" gradientTransform="matrix(1, 0, 0, 1, 0, 0)" xlink:href="#radial-gradient-3"/>
    <clipPath id="clip-path">
      <path id="Trazado_20698" data-name="Trazado 20698" d="M4484.781,191.67h61.034c18.946,0,25.815,1.973,32.741,5.677a38.614,38.614,0,0,1,16.065,16.065c3.7,6.926,5.676,13.8,5.676,32.74v61.035c0,18.945-1.973,25.814-5.676,32.74a38.614,38.614,0,0,1-16.065,16.065c-6.926,3.7-13.8,5.677-32.741,5.677h-61.034c-18.945,0-25.815-1.973-32.741-5.677a38.618,38.618,0,0,1-16.066-16.065c-3.7-6.926-5.676-13.8-5.676-32.74V246.153c0-18.945,1.973-25.814,5.676-32.74a38.618,38.618,0,0,1,16.066-16.065C4458.966,193.643,4465.835,191.67,4484.781,191.67Z" transform="translate(-4430.298 -191.67)" fill="url(#radial-gradient)" clip-rule="evenodd"/>
    </clipPath>
    <clipPath id="clip-path-2">
      <rect id="Rectángulo_3685" data-name="Rectángulo 3685" width="170" height="170" fill="url(#radial-gradient-2)"/>
    </clipPath>
    <radialGradient id="radial-gradient-7" cx="0.85" cy="0.781" r="0.821" xlink:href="#radial-gradient"/>
    <radialGradient id="radial-gradient-10" cx="0.339" cy="0.83" r="0.574" xlink:href="#radial-gradient-3"/>
  </defs>
  <g id="Grupo_14159" data-name="Grupo 14159" transform="translate(-8407 2422)">
    <path id="Trazado_24210" data-name="Trazado 24210" d="M30.934,0H234.066C251.15,0,265,13.431,265,30V459c0,16.569-13.85,30-30.934,30H30.934C13.85,489,0,475.569,0,459V30C0,13.431,13.85,0,30.934,0Z" transform="translate(8407 -2422)" fill="#f3f7fa"/>
    <path id="Trazado_24208" data-name="Trazado 24208" d="M32.349,21V6.723h1.66V19.5h6.3V21Zm19.375-5.361a5.9,5.9,0,0,1-1.318,4.087,4.643,4.643,0,0,1-3.643,1.47,4.824,4.824,0,0,1-2.549-.674A4.447,4.447,0,0,1,42.5,18.588a6.739,6.739,0,0,1-.605-2.949A5.9,5.9,0,0,1,43.2,11.562a4.628,4.628,0,0,1,3.633-1.46A4.528,4.528,0,0,1,50.4,11.6,5.879,5.879,0,0,1,51.724,15.639Zm-8.154,0a5.08,5.08,0,0,0,.82,3.125,3.256,3.256,0,0,0,4.829,0,5.054,5.054,0,0,0,.825-3.13,4.973,4.973,0,0,0-.825-3.1,2.9,2.9,0,0,0-2.437-1.06,2.853,2.853,0,0,0-2.4,1.045A5.029,5.029,0,0,0,43.569,15.639ZM63.325,10.3v1.025l-1.982.234a3.481,3.481,0,0,1,.7,2.139,3.164,3.164,0,0,1-1.074,2.51,4.333,4.333,0,0,1-2.949.938,4.911,4.911,0,0,1-.9-.078,1.6,1.6,0,0,0-1.035,1.377.7.7,0,0,0,.361.649,2.639,2.639,0,0,0,1.24.21h1.895a4.242,4.242,0,0,1,2.671.732,2.545,2.545,0,0,1,.933,2.129,3.039,3.039,0,0,1-1.426,2.71,7.631,7.631,0,0,1-4.16.933,5.684,5.684,0,0,1-3.237-.781,2.522,2.522,0,0,1-1.138-2.207,2.479,2.479,0,0,1,.625-1.689,3.182,3.182,0,0,1,1.758-.967,1.7,1.7,0,0,1-.688-.576,1.525,1.525,0,0,1-.278-.908,1.724,1.724,0,0,1,.313-1.025,3.286,3.286,0,0,1,.986-.85,2.891,2.891,0,0,1-1.353-1.162,3.415,3.415,0,0,1-.522-1.875,3.463,3.463,0,0,1,1.055-2.71A4.306,4.306,0,0,1,58.11,10.1a5.434,5.434,0,0,1,1.514.2ZM54.79,22.8a1.453,1.453,0,0,0,.732,1.318,4.042,4.042,0,0,0,2.1.449,5.859,5.859,0,0,0,3.022-.61,1.869,1.869,0,0,0,.981-1.655,1.31,1.31,0,0,0-.537-1.206,4.172,4.172,0,0,0-2.021-.337H57.124a2.56,2.56,0,0,0-1.719.527A1.884,1.884,0,0,0,54.79,22.8Zm.879-9.072a2.179,2.179,0,0,0,.635,1.7A2.535,2.535,0,0,0,58.071,16a2.068,2.068,0,0,0,2.373-2.3,2.128,2.128,0,0,0-2.4-2.412,2.378,2.378,0,0,0-1.758.615A2.478,2.478,0,0,0,55.669,13.725Zm19.092,1.914a5.9,5.9,0,0,1-1.318,4.087A4.643,4.643,0,0,1,69.8,21.2a4.824,4.824,0,0,1-2.549-.674,4.447,4.447,0,0,1-1.719-1.934,6.739,6.739,0,0,1-.605-2.949,5.9,5.9,0,0,1,1.309-4.077,4.628,4.628,0,0,1,3.633-1.46A4.528,4.528,0,0,1,73.438,11.6,5.879,5.879,0,0,1,74.761,15.639Zm-8.154,0a5.08,5.08,0,0,0,.82,3.125,3.256,3.256,0,0,0,4.829,0,5.054,5.054,0,0,0,.825-3.13,4.973,4.973,0,0,0-.825-3.1,2.9,2.9,0,0,0-2.437-1.06,2.853,2.853,0,0,0-2.4,1.045A5.029,5.029,0,0,0,66.606,15.639ZM96.44,21V14.037a2.89,2.89,0,0,0-.547-1.919,2.115,2.115,0,0,0-1.7-.64,2.743,2.743,0,0,0-2.236.869,4.131,4.131,0,0,0-.723,2.676V21H89.614V14.037a2.89,2.89,0,0,0-.547-1.919,2.128,2.128,0,0,0-1.709-.64,2.647,2.647,0,0,0-2.231.913,4.942,4.942,0,0,0-.708,2.993V21H82.8V10.3h1.318l.264,1.465h.078a3.186,3.186,0,0,1,1.294-1.221,3.953,3.953,0,0,1,1.87-.439q2.51,0,3.281,1.816h.078a3.413,3.413,0,0,1,1.387-1.328,4.3,4.3,0,0,1,2.07-.488,3.624,3.624,0,0,1,2.72.933,4.172,4.172,0,0,1,.9,2.983V21Zm11.543,0-.322-1.523h-.078a4.5,4.5,0,0,1-1.6,1.362A4.867,4.867,0,0,1,104,21.2a3.575,3.575,0,0,1-2.5-.82,2.992,2.992,0,0,1-.9-2.334q0-3.242,5.186-3.4l1.816-.059V13.92a2.714,2.714,0,0,0-.542-1.86,2.229,2.229,0,0,0-1.733-.6,7.063,7.063,0,0,0-3.027.82l-.5-1.24a7.618,7.618,0,0,1,1.733-.674,7.507,7.507,0,0,1,1.89-.244,4.077,4.077,0,0,1,2.837.85,3.546,3.546,0,0,1,.923,2.725V21Zm-3.662-1.143a3.29,3.29,0,0,0,2.378-.83,3.071,3.071,0,0,0,.864-2.324v-.967l-1.621.068a5.9,5.9,0,0,0-2.788.6,1.811,1.811,0,0,0-.854,1.655,1.67,1.67,0,0,0,.532,1.338A2.209,2.209,0,0,0,104.321,19.857ZM117.407,10.1a6.343,6.343,0,0,1,1.279.117l-.225,1.5a5.522,5.522,0,0,0-1.172-.146,2.853,2.853,0,0,0-2.222,1.055,3.846,3.846,0,0,0-.923,2.627V21h-1.621V10.3h1.338l.186,1.982h.078a4.7,4.7,0,0,1,1.436-1.611A3.232,3.232,0,0,1,117.407,10.1ZM124.966,21.2a4.568,4.568,0,0,1-3.6-1.431,5.883,5.883,0,0,1-1.274-4.048,6.067,6.067,0,0,1,1.294-4.15,4.659,4.659,0,0,1,3.687-1.465,7.316,7.316,0,0,1,1.543.166,5.083,5.083,0,0,1,1.211.391l-.5,1.377a7.622,7.622,0,0,0-1.172-.356,5.232,5.232,0,0,0-1.123-.142q-3.262,0-3.262,4.16a4.954,4.954,0,0,0,.8,3.027,2.769,2.769,0,0,0,2.358,1.055,7.211,7.211,0,0,0,2.744-.576v1.436A5.849,5.849,0,0,1,124.966,21.2Zm11.826-.2-.322-1.523h-.078a4.5,4.5,0,0,1-1.6,1.362,4.867,4.867,0,0,1-1.987.356,3.575,3.575,0,0,1-2.5-.82,2.992,2.992,0,0,1-.9-2.334q0-3.242,5.186-3.4l1.816-.059V13.92a2.714,2.714,0,0,0-.542-1.86,2.229,2.229,0,0,0-1.733-.6,7.063,7.063,0,0,0-3.027.82l-.5-1.24a7.618,7.618,0,0,1,1.733-.674,7.507,7.507,0,0,1,1.89-.244,4.077,4.077,0,0,1,2.837.85,3.546,3.546,0,0,1,.923,2.725V21Zm-3.662-1.143a3.29,3.29,0,0,0,2.378-.83,3.071,3.071,0,0,0,.864-2.324v-.967l-1.621.068a5.9,5.9,0,0,0-2.788.6,1.811,1.811,0,0,0-.854,1.655,1.67,1.67,0,0,0,.532,1.338A2.209,2.209,0,0,0,133.13,19.857ZM44.268,37.1a6.343,6.343,0,0,1,1.279.117l-.225,1.5a5.522,5.522,0,0,0-1.172-.146,2.853,2.853,0,0,0-2.222,1.055,3.846,3.846,0,0,0-.923,2.627V48H39.385V37.3h1.338l.186,1.982h.078a4.7,4.7,0,0,1,1.436-1.611A3.232,3.232,0,0,1,44.268,37.1ZM52.07,48.2a4.917,4.917,0,0,1-3.745-1.445,5.6,5.6,0,0,1-1.372-4.014,6.205,6.205,0,0,1,1.274-4.111A4.233,4.233,0,0,1,51.65,37.1a4.036,4.036,0,0,1,3.184,1.323,5.072,5.072,0,0,1,1.172,3.491v1.025H48.633a4.243,4.243,0,0,0,.952,2.861,3.293,3.293,0,0,0,2.544.977,8.621,8.621,0,0,0,3.418-.723V47.5a8.579,8.579,0,0,1-1.626.532A9.138,9.138,0,0,1,52.07,48.2Zm-.439-9.736a2.647,2.647,0,0,0-2.056.84,3.871,3.871,0,0,0-.9,2.324h5.6a3.564,3.564,0,0,0-.684-2.349A2.406,2.406,0,0,0,51.631,38.459Zm15.9-1.162v1.025l-1.982.234a3.481,3.481,0,0,1,.7,2.139,3.164,3.164,0,0,1-1.074,2.51,4.333,4.333,0,0,1-2.949.938,4.911,4.911,0,0,1-.9-.078,1.6,1.6,0,0,0-1.035,1.377.7.7,0,0,0,.361.649,2.639,2.639,0,0,0,1.24.21h1.895a4.242,4.242,0,0,1,2.671.732,2.545,2.545,0,0,1,.933,2.129,3.039,3.039,0,0,1-1.426,2.71,7.631,7.631,0,0,1-4.16.933,5.684,5.684,0,0,1-3.237-.781,2.522,2.522,0,0,1-1.138-2.207,2.479,2.479,0,0,1,.625-1.689,3.182,3.182,0,0,1,1.758-.967,1.7,1.7,0,0,1-.688-.576,1.525,1.525,0,0,1-.278-.908,1.724,1.724,0,0,1,.313-1.025,3.286,3.286,0,0,1,.986-.85,2.891,2.891,0,0,1-1.353-1.162,3.415,3.415,0,0,1-.522-1.875,3.463,3.463,0,0,1,1.055-2.71,4.306,4.306,0,0,1,2.988-.952,5.434,5.434,0,0,1,1.514.2ZM58.994,49.8a1.453,1.453,0,0,0,.732,1.318,4.042,4.042,0,0,0,2.1.449,5.859,5.859,0,0,0,3.022-.61A1.869,1.869,0,0,0,65.83,49.3a1.31,1.31,0,0,0-.537-1.206,4.172,4.172,0,0,0-2.021-.337H61.328a2.56,2.56,0,0,0-1.719.527A1.884,1.884,0,0,0,58.994,49.8Zm.879-9.072a2.179,2.179,0,0,0,.635,1.7A2.535,2.535,0,0,0,62.275,43a2.068,2.068,0,0,0,2.373-2.3,2.128,2.128,0,0,0-2.4-2.412,2.378,2.378,0,0,0-1.758.615A2.478,2.478,0,0,0,59.873,40.725ZM71.348,48H69.727V37.3h1.621ZM69.59,34.4a1.077,1.077,0,0,1,.273-.815,1.012,1.012,0,0,1,1.357,0,1.057,1.057,0,0,1,.283.811,1.074,1.074,0,0,1-.283.815.992.992,0,0,1-1.357,0A1.1,1.1,0,0,1,69.59,34.4Zm12.1,10.684a2.681,2.681,0,0,1-1.113,2.3,5.233,5.233,0,0,1-3.125.811,6.8,6.8,0,0,1-3.32-.674v-1.5a8.029,8.029,0,0,0,1.655.615,6.912,6.912,0,0,0,1.7.225,3.864,3.864,0,0,0,1.953-.405,1.4,1.4,0,0,0,.142-2.3,8.525,8.525,0,0,0-2.114-1.05,11.465,11.465,0,0,1-2.124-.972,2.9,2.9,0,0,1-.937-.942,2.458,2.458,0,0,1-.308-1.26,2.4,2.4,0,0,1,1.064-2.065,4.96,4.96,0,0,1,2.92-.757,8.544,8.544,0,0,1,3.379.7l-.576,1.318a7.756,7.756,0,0,0-2.92-.664,3.359,3.359,0,0,0-1.738.361,1.117,1.117,0,0,0-.586,1,1.213,1.213,0,0,0,.22.732,2.168,2.168,0,0,0,.708.576,15.822,15.822,0,0,0,1.875.791,7,7,0,0,1,2.573,1.4A2.463,2.463,0,0,1,81.689,45.08Zm6.094,1.777a5.3,5.3,0,0,0,.83-.063,5.372,5.372,0,0,0,.635-.132V47.9a2.963,2.963,0,0,1-.776.21,5.83,5.83,0,0,1-.923.083q-3.105,0-3.105-3.271V38.557H82.91v-.781l1.533-.674.684-2.285h.938V37.3H89.17v1.26H86.064v6.3a2.167,2.167,0,0,0,.459,1.484A1.6,1.6,0,0,0,87.783,46.857ZM96.27,37.1a6.343,6.343,0,0,1,1.279.117l-.225,1.5a5.522,5.522,0,0,0-1.172-.146,2.853,2.853,0,0,0-2.222,1.055,3.846,3.846,0,0,0-.923,2.627V48H91.387V37.3h1.338l.186,1.982h.078a4.7,4.7,0,0,1,1.436-1.611A3.232,3.232,0,0,1,96.27,37.1ZM106.133,48l-.322-1.523h-.078a4.5,4.5,0,0,1-1.6,1.362,4.867,4.867,0,0,1-1.987.356,3.575,3.575,0,0,1-2.5-.82,2.992,2.992,0,0,1-.9-2.334q0-3.242,5.186-3.4l1.816-.059V40.92a2.714,2.714,0,0,0-.542-1.86,2.229,2.229,0,0,0-1.733-.6,7.063,7.063,0,0,0-3.027.82l-.5-1.24a7.618,7.618,0,0,1,1.733-.674,7.507,7.507,0,0,1,1.89-.244,4.077,4.077,0,0,1,2.837.85,3.546,3.546,0,0,1,.923,2.725V48Zm-3.662-1.143a3.29,3.29,0,0,0,2.378-.83,3.071,3.071,0,0,0,.864-2.324v-.967l-1.621.068a5.9,5.9,0,0,0-2.788.6,1.811,1.811,0,0,0-.854,1.655,1.67,1.67,0,0,0,.532,1.338A2.209,2.209,0,0,0,102.471,46.857Zm15.488-.293h-.088a3.809,3.809,0,0,1-3.359,1.631,3.974,3.974,0,0,1-3.267-1.436,6.319,6.319,0,0,1-1.167-4.082,6.426,6.426,0,0,1,1.172-4.111,3.943,3.943,0,0,1,3.262-1.465,3.892,3.892,0,0,1,3.34,1.582h.127l-.068-.771-.039-.752V32.8h1.621V48h-1.318Zm-3.242.273a2.951,2.951,0,0,0,2.407-.9,4.565,4.565,0,0,0,.747-2.915v-.342a5.371,5.371,0,0,0-.757-3.247,2.874,2.874,0,0,0-2.417-.972,2.481,2.481,0,0,0-2.183,1.108,5.511,5.511,0,0,0-.757,3.13,5.284,5.284,0,0,0,.752,3.1A2.547,2.547,0,0,0,114.717,46.838ZM129.512,48l-.322-1.523h-.078a4.5,4.5,0,0,1-1.6,1.362,4.867,4.867,0,0,1-1.987.356,3.575,3.575,0,0,1-2.5-.82,2.992,2.992,0,0,1-.9-2.334q0-3.242,5.186-3.4l1.816-.059V40.92a2.714,2.714,0,0,0-.542-1.86,2.229,2.229,0,0,0-1.733-.6,7.063,7.063,0,0,0-3.027.82l-.5-1.24a7.618,7.618,0,0,1,1.733-.674,7.507,7.507,0,0,1,1.89-.244,4.077,4.077,0,0,1,2.837.85,3.546,3.546,0,0,1,.923,2.725V48Zm-3.662-1.143a3.29,3.29,0,0,0,2.378-.83,3.071,3.071,0,0,0,.864-2.324v-.967l-1.621.068a5.9,5.9,0,0,0-2.788.6,1.811,1.811,0,0,0-.854,1.655,1.67,1.67,0,0,0,.532,1.338A2.209,2.209,0,0,0,125.85,46.857ZM39.751,75V60.723h1.66V75Zm12.656,0V68.076a2.793,2.793,0,0,0-.6-1.953,2.427,2.427,0,0,0-1.865-.645,3.076,3.076,0,0,0-2.461.908,4.585,4.585,0,0,0-.781,3V75H45.083V64.3H46.4l.264,1.465h.078a3.31,3.31,0,0,1,1.4-1.226,4.537,4.537,0,0,1,2-.435,4.065,4.065,0,0,1,2.91.933,3.969,3.969,0,0,1,.977,2.983V75Zm11.855-2.92a2.681,2.681,0,0,1-1.113,2.3,5.233,5.233,0,0,1-3.125.811,6.8,6.8,0,0,1-3.32-.674v-1.5a8.03,8.03,0,0,0,1.655.615,6.912,6.912,0,0,0,1.7.225,3.865,3.865,0,0,0,1.953-.405,1.4,1.4,0,0,0,.142-2.3,8.526,8.526,0,0,0-2.114-1.05,11.465,11.465,0,0,1-2.124-.972,2.9,2.9,0,0,1-.937-.942,2.458,2.458,0,0,1-.308-1.26,2.4,2.4,0,0,1,1.064-2.065,4.96,4.96,0,0,1,2.92-.757,8.544,8.544,0,0,1,3.379.7l-.576,1.318a7.756,7.756,0,0,0-2.92-.664,3.359,3.359,0,0,0-1.738.361,1.117,1.117,0,0,0-.586,1,1.213,1.213,0,0,0,.22.732,2.168,2.168,0,0,0,.708.576,15.823,15.823,0,0,0,1.875.791,7,7,0,0,1,2.573,1.4A2.463,2.463,0,0,1,64.263,72.08Zm6.094,1.777a5.3,5.3,0,0,0,.83-.063,5.374,5.374,0,0,0,.635-.132V74.9a2.963,2.963,0,0,1-.776.21,5.831,5.831,0,0,1-.923.083q-3.105,0-3.105-3.271V65.557H65.483v-.781l1.533-.674.684-2.285h.938V64.3h3.105v1.26H68.638v6.3A2.167,2.167,0,0,0,69.1,73.34,1.6,1.6,0,0,0,70.356,73.857ZM80.542,75l-.322-1.523h-.078a4.5,4.5,0,0,1-1.6,1.362,4.867,4.867,0,0,1-1.987.356,3.575,3.575,0,0,1-2.5-.82,2.992,2.992,0,0,1-.9-2.334q0-3.242,5.186-3.4l1.816-.059V67.92a2.714,2.714,0,0,0-.542-1.86,2.229,2.229,0,0,0-1.733-.6,7.063,7.063,0,0,0-3.027.82l-.5-1.24a7.617,7.617,0,0,1,1.733-.674,7.508,7.508,0,0,1,1.89-.244,4.077,4.077,0,0,1,2.837.85,3.546,3.546,0,0,1,.923,2.725V75ZM76.88,73.857a3.29,3.29,0,0,0,2.378-.83,3.071,3.071,0,0,0,.864-2.324v-.967L78.5,69.8a5.9,5.9,0,0,0-2.788.6,1.811,1.811,0,0,0-.854,1.655,1.67,1.67,0,0,0,.532,1.338A2.209,2.209,0,0,0,76.88,73.857ZM93.843,64.3v1.025l-1.982.234a3.481,3.481,0,0,1,.7,2.139,3.164,3.164,0,0,1-1.074,2.51,4.333,4.333,0,0,1-2.949.938,4.911,4.911,0,0,1-.9-.078,1.6,1.6,0,0,0-1.035,1.377.7.7,0,0,0,.361.649,2.639,2.639,0,0,0,1.24.21H90.1a4.242,4.242,0,0,1,2.671.732,2.545,2.545,0,0,1,.933,2.129,3.039,3.039,0,0,1-1.426,2.71,7.631,7.631,0,0,1-4.16.933,5.684,5.684,0,0,1-3.237-.781,2.522,2.522,0,0,1-1.138-2.207,2.479,2.479,0,0,1,.625-1.689,3.182,3.182,0,0,1,1.758-.967,1.7,1.7,0,0,1-.688-.576,1.525,1.525,0,0,1-.278-.908,1.724,1.724,0,0,1,.313-1.025,3.286,3.286,0,0,1,.986-.85,2.891,2.891,0,0,1-1.353-1.162,3.415,3.415,0,0,1-.522-1.875,3.463,3.463,0,0,1,1.055-2.71,4.306,4.306,0,0,1,2.988-.952,5.434,5.434,0,0,1,1.514.2ZM85.308,76.8a1.453,1.453,0,0,0,.732,1.318,4.042,4.042,0,0,0,2.1.449,5.859,5.859,0,0,0,3.022-.61,1.869,1.869,0,0,0,.981-1.655,1.31,1.31,0,0,0-.537-1.206,4.172,4.172,0,0,0-2.021-.337H87.642a2.56,2.56,0,0,0-1.719.527A1.884,1.884,0,0,0,85.308,76.8Zm.879-9.072a2.179,2.179,0,0,0,.635,1.7A2.535,2.535,0,0,0,88.589,70a2.068,2.068,0,0,0,2.373-2.3,2.128,2.128,0,0,0-2.4-2.412A2.378,2.378,0,0,0,86.8,65.9,2.478,2.478,0,0,0,86.187,67.725ZM100.923,64.1a6.343,6.343,0,0,1,1.279.117l-.225,1.5a5.522,5.522,0,0,0-1.172-.146,2.853,2.853,0,0,0-2.222,1.055,3.846,3.846,0,0,0-.923,2.627V75H96.04V64.3h1.338l.186,1.982h.078a4.7,4.7,0,0,1,1.436-1.611A3.232,3.232,0,0,1,100.923,64.1ZM110.786,75l-.322-1.523h-.078a4.5,4.5,0,0,1-1.6,1.362,4.867,4.867,0,0,1-1.987.356,3.575,3.575,0,0,1-2.5-.82,2.992,2.992,0,0,1-.9-2.334q0-3.242,5.186-3.4l1.816-.059V67.92a2.714,2.714,0,0,0-.542-1.86,2.229,2.229,0,0,0-1.733-.6,7.063,7.063,0,0,0-3.027.82l-.5-1.24a7.617,7.617,0,0,1,1.733-.674,7.508,7.508,0,0,1,1.89-.244,4.077,4.077,0,0,1,2.837.85,3.546,3.546,0,0,1,.923,2.725V75Zm-3.662-1.143a3.29,3.29,0,0,0,2.378-.83,3.071,3.071,0,0,0,.864-2.324v-.967l-1.621.068a5.9,5.9,0,0,0-2.788.6,1.811,1.811,0,0,0-.854,1.655,1.67,1.67,0,0,0,.532,1.338A2.209,2.209,0,0,0,107.124,73.857ZM128.97,75V68.037a2.89,2.89,0,0,0-.547-1.919,2.115,2.115,0,0,0-1.7-.64,2.743,2.743,0,0,0-2.236.869,4.131,4.131,0,0,0-.723,2.676V75h-1.621V68.037a2.89,2.89,0,0,0-.547-1.919,2.128,2.128,0,0,0-1.709-.64,2.647,2.647,0,0,0-2.231.913,4.942,4.942,0,0,0-.708,2.993V75h-1.621V64.3h1.318l.264,1.465h.078a3.186,3.186,0,0,1,1.294-1.221,3.953,3.953,0,0,1,1.87-.439q2.51,0,3.281,1.816h.078A3.413,3.413,0,0,1,124.9,64.59a4.3,4.3,0,0,1,2.07-.488,3.624,3.624,0,0,1,2.72.933,4.172,4.172,0,0,1,.9,2.983V75Z" transform="translate(8454.651 -2056)" fill="#00223d"/>
    <path id="Trazado_24203" data-name="Trazado 24203" d="M52.8,17.035a3.691,3.691,0,0,1-1.392,3.047A6.045,6.045,0,0,1,47.539,21.2a9.094,9.094,0,0,1-4.043-.859V17.523a16.661,16.661,0,0,0,2.446.908,7.239,7.239,0,0,0,1.831.264,2.6,2.6,0,0,0,1.528-.381,1.3,1.3,0,0,0,.532-1.133,1.251,1.251,0,0,0-.234-.747,2.623,2.623,0,0,0-.688-.63,17.707,17.707,0,0,0-1.851-.967A8.771,8.771,0,0,1,45.1,13.656a4.436,4.436,0,0,1-1.045-1.318,3.762,3.762,0,0,1-.391-1.758A3.69,3.69,0,0,1,44.946,7.6,5.336,5.336,0,0,1,48.5,6.518a8.383,8.383,0,0,1,2.124.264,14.6,14.6,0,0,1,2.114.742l-.977,2.354a14.288,14.288,0,0,0-1.89-.654,6.082,6.082,0,0,0-1.47-.186,1.946,1.946,0,0,0-1.318.4,1.321,1.321,0,0,0-.459,1.045,1.293,1.293,0,0,0,.186.7,2.04,2.04,0,0,0,.591.576,18.268,18.268,0,0,0,1.919,1,7.635,7.635,0,0,1,2.744,1.919A3.745,3.745,0,0,1,52.8,17.035ZM58.135,21H55.156V10.082h2.979ZM55.01,8.881V8.617A27.494,27.494,0,0,0,57.3,5.678h3.34v.205q-.508.508-1.733,1.509T56.992,8.881ZM71.035,21H68.057V14.623a3.212,3.212,0,0,0-.4-1.772,1.391,1.391,0,0,0-1.245-.591,1.8,1.8,0,0,0-1.66.84,5.509,5.509,0,0,0-.518,2.764V21H61.26V10.082h2.275l.4,1.4H64.1a3.026,3.026,0,0,1,1.27-1.177,4.122,4.122,0,0,1,1.9-.425,3.43,3.43,0,0,1,3.32,1.6h.264A2.95,2.95,0,0,1,72.153,10.3a4.315,4.315,0,0,1,1.929-.42,3.807,3.807,0,0,1,2.808.952,4.181,4.181,0,0,1,.952,3.052V21H74.854V14.623a3.212,3.212,0,0,0-.4-1.772,1.391,1.391,0,0,0-1.245-.591,1.858,1.858,0,0,0-1.636.781,4.433,4.433,0,0,0-.542,2.48ZM86.973,9.877A3.532,3.532,0,0,1,90,11.386a6.923,6.923,0,0,1,1.094,4.136,6.8,6.8,0,0,1-1.128,4.189,3.939,3.939,0,0,1-6.089.088h-.205l-.5,1.2H80.9V5.8h2.979V9.34q0,.674-.117,2.158h.117A3.446,3.446,0,0,1,86.973,9.877Zm-.957,2.383a1.881,1.881,0,0,0-1.611.679,3.9,3.9,0,0,0-.527,2.241V15.5a4.6,4.6,0,0,0,.522,2.52,1.865,1.865,0,0,0,1.655.762,1.661,1.661,0,0,0,1.46-.845,4.572,4.572,0,0,0,.542-2.456,4.332,4.332,0,0,0-.547-2.417A1.715,1.715,0,0,0,86.016,12.26Zm9.912,3.262a4.582,4.582,0,0,0,.532,2.451,1.9,1.9,0,0,0,1.733.83,1.873,1.873,0,0,0,1.714-.825,4.648,4.648,0,0,0,.522-2.456A4.51,4.51,0,0,0,99.9,13.09a2.242,2.242,0,0,0-3.447,0A4.506,4.506,0,0,0,95.928,15.521Zm7.549,0a5.867,5.867,0,0,1-1.406,4.17,5.1,5.1,0,0,1-3.916,1.5,5.478,5.478,0,0,1-2.773-.688,4.581,4.581,0,0,1-1.846-1.978,6.645,6.645,0,0,1-.645-3.008,5.835,5.835,0,0,1,1.4-4.16,5.128,5.128,0,0,1,3.926-1.484,5.509,5.509,0,0,1,2.773.684,4.563,4.563,0,0,1,1.846,1.963A6.584,6.584,0,0,1,103.477,15.521ZM108.916,21h-2.979V5.8h2.979Zm5.5-5.479a4.582,4.582,0,0,0,.532,2.451,1.9,1.9,0,0,0,1.733.83,1.873,1.873,0,0,0,1.714-.825,4.648,4.648,0,0,0,.522-2.456,4.51,4.51,0,0,0-.527-2.432,2.242,2.242,0,0,0-3.447,0A4.506,4.506,0,0,0,114.414,15.521Zm7.549,0a5.867,5.867,0,0,1-1.406,4.17,5.1,5.1,0,0,1-3.916,1.5,5.478,5.478,0,0,1-2.773-.688,4.581,4.581,0,0,1-1.846-1.978,6.645,6.645,0,0,1-.645-3.008,5.835,5.835,0,0,1,1.4-4.16A5.128,5.128,0,0,1,116.7,9.877a5.509,5.509,0,0,1,2.773.684,4.563,4.563,0,0,1,1.846,1.963A6.584,6.584,0,0,1,121.963,15.521Zm12.09,5.674q-5.1,0-5.1-5.6a5.969,5.969,0,0,1,1.387-4.253,5.2,5.2,0,0,1,3.975-1.47,7.577,7.577,0,0,1,3.4.742l-.879,2.3q-.7-.283-1.309-.464a4.216,4.216,0,0,0-1.211-.181q-2.324,0-2.324,3.3,0,3.2,2.324,3.2a5.3,5.3,0,0,0,1.592-.229,5.747,5.747,0,0,0,1.465-.718v2.549a4.8,4.8,0,0,1-1.46.635A8.21,8.21,0,0,1,134.053,21.2Zm13.584-.2-.4-1.4h-.156a3.143,3.143,0,0,1-1.357,1.177,4.634,4.634,0,0,1-2,.415,3.812,3.812,0,0,1-2.9-1.03,4.145,4.145,0,0,1-.977-2.964V10.082h2.979v6.377a3.063,3.063,0,0,0,.42,1.772,1.528,1.528,0,0,0,1.338.591,2.011,2.011,0,0,0,1.807-.835,5.178,5.178,0,0,0,.557-2.769V10.082h2.979V21Zm12.344,0-.576-1.484h-.078a4.4,4.4,0,0,1-1.548,1.313,5,5,0,0,1-2.075.366,3.356,3.356,0,0,1-2.476-.9,3.45,3.45,0,0,1-.9-2.559,2.881,2.881,0,0,1,1.216-2.563,7.045,7.045,0,0,1,3.667-.913L159.1,14.2v-.479a1.485,1.485,0,0,0-1.7-1.66,7.743,7.743,0,0,0-3.076.791l-.986-2.012a8.876,8.876,0,0,1,4.18-.986,5.206,5.206,0,0,1,3.369.957,3.537,3.537,0,0,1,1.172,2.91V21Zm-.879-5.059-1.152.039a3.69,3.69,0,0,0-1.934.469,1.472,1.472,0,0,0-.635,1.309q0,1.26,1.445,1.26a2.289,2.289,0,0,0,1.655-.6,2.092,2.092,0,0,0,.62-1.582Zm9.482,5.254a3.546,3.546,0,0,1-3.022-1.494,6.869,6.869,0,0,1-1.1-4.141,6.876,6.876,0,0,1,1.118-4.185,3.632,3.632,0,0,1,3.081-1.5,3.562,3.562,0,0,1,3.145,1.6h.1A12.177,12.177,0,0,1,171.68,9.3V5.8h2.988V21h-2.285l-.576-1.416h-.127A3.408,3.408,0,0,1,168.584,21.2Zm1.045-2.373a2.018,2.018,0,0,0,1.675-.664,3.863,3.863,0,0,0,.581-2.256V15.58a4.464,4.464,0,0,0-.542-2.52,2.013,2.013,0,0,0-1.763-.762,1.748,1.748,0,0,0-1.548.845,4.507,4.507,0,0,0-.552,2.456,4.271,4.271,0,0,0,.557,2.417A1.819,1.819,0,0,0,169.629,18.822Zm14.248-8.945a4.8,4.8,0,0,1,1.006.088l-.225,2.793a3.412,3.412,0,0,0-.879-.1,3.159,3.159,0,0,0-2.222.732,2.648,2.648,0,0,0-.8,2.051V21h-2.979V10.082h2.256l.439,1.836h.146A4.1,4.1,0,0,1,182,10.438,3.383,3.383,0,0,1,183.877,9.877ZM193.8,21l-.576-1.484h-.078a4.4,4.4,0,0,1-1.548,1.313,5,5,0,0,1-2.075.366,3.356,3.356,0,0,1-2.476-.9,3.45,3.45,0,0,1-.9-2.559,2.881,2.881,0,0,1,1.216-2.563,7.045,7.045,0,0,1,3.667-.913l1.895-.059v-.479a1.485,1.485,0,0,0-1.7-1.66,7.743,7.743,0,0,0-3.076.791l-.986-2.012a8.876,8.876,0,0,1,4.18-.986,5.206,5.206,0,0,1,3.369.957,3.537,3.537,0,0,1,1.172,2.91V21Zm-.879-5.059-1.152.039a3.69,3.69,0,0,0-1.934.469,1.472,1.472,0,0,0-.635,1.309q0,1.26,1.445,1.26a2.289,2.289,0,0,0,1.655-.6,2.092,2.092,0,0,0,.62-1.582ZM202.4,21.2A3.546,3.546,0,0,1,199.38,19.7a6.869,6.869,0,0,1-1.1-4.141,6.876,6.876,0,0,1,1.118-4.185,3.632,3.632,0,0,1,3.081-1.5,3.562,3.562,0,0,1,3.145,1.6h.1A12.177,12.177,0,0,1,205.5,9.3V5.8h2.988V21H206.2l-.576-1.416H205.5A3.408,3.408,0,0,1,202.4,21.2Zm1.045-2.373a2.018,2.018,0,0,0,1.675-.664A3.863,3.863,0,0,0,205.7,15.9V15.58a4.464,4.464,0,0,0-.542-2.52A2.013,2.013,0,0,0,203.4,12.3a1.748,1.748,0,0,0-1.548.845A4.507,4.507,0,0,0,201.3,15.6a4.271,4.271,0,0,0,.557,2.417A1.819,1.819,0,0,0,203.447,18.822Zm10.527-3.3a4.582,4.582,0,0,0,.532,2.451,1.9,1.9,0,0,0,1.733.83,1.873,1.873,0,0,0,1.714-.825,4.648,4.648,0,0,0,.522-2.456,4.51,4.51,0,0,0-.527-2.432,2.242,2.242,0,0,0-3.447,0A4.506,4.506,0,0,0,213.975,15.521Zm7.549,0a5.867,5.867,0,0,1-1.406,4.17,5.1,5.1,0,0,1-3.916,1.5,5.478,5.478,0,0,1-2.773-.688,4.581,4.581,0,0,1-1.846-1.978,6.645,6.645,0,0,1-.645-3.008,5.835,5.835,0,0,1,1.4-4.16,5.128,5.128,0,0,1,3.926-1.484,5.509,5.509,0,0,1,2.773.684,4.563,4.563,0,0,1,1.846,1.963A6.584,6.584,0,0,1,221.523,15.521Z" transform="translate(8406.504 -2380)" fill="#00223d"/>
    <g id="Grupo_14152" data-name="Grupo 14152" transform="translate(4024.702 -2476.67)">
      <g id="Grupo_13616" data-name="Grupo 13616" transform="translate(4430.298 191.67)">
        <path id="Trazado_20697" data-name="Trazado 20697" d="M4484.781,191.67h61.034c18.946,0,25.815,1.973,32.741,5.677a38.614,38.614,0,0,1,16.065,16.065c3.7,6.926,5.676,13.8,5.676,32.74v61.035c0,18.945-1.973,25.814-5.676,32.74a38.614,38.614,0,0,1-16.065,16.065c-6.926,3.7-13.8,5.677-32.741,5.677h-61.034c-18.945,0-25.815-1.973-32.741-5.677a38.618,38.618,0,0,1-16.066-16.065c-3.7-6.926-5.676-13.8-5.676-32.74V246.153c0-18.945,1.973-25.814,5.676-32.74a38.618,38.618,0,0,1,16.066-16.065C4458.966,193.643,4465.835,191.67,4484.781,191.67Z" transform="translate(-4430.298 -191.67)" fill-rule="evenodd" fill="url(#radial-gradient)"/>
        <g id="Grupo_13615" data-name="Grupo 13615" clip-path="url(#clip-path)">
          <g id="Grupo_13614" data-name="Grupo 13614" transform="translate(0 0)">
            <rect id="Rectángulo_3683" data-name="Rectángulo 3683" width="170" height="170" fill="url(#radial-gradient-2)"/>
            <g id="Grupo_13613" data-name="Grupo 13613" clip-path="url(#clip-path-2)">
              <rect id="Rectángulo_3684" data-name="Rectángulo 3684" width="256" height="256" transform="translate(-43.001 -43)" fill="url(#radial-gradient-7)"/>
            </g>
          </g>
        </g>
      </g>
      <g id="Grupo_13620" data-name="Grupo 13620" transform="translate(4430.298 191.67)">
        <path id="Trazado_20699" data-name="Trazado 20699" d="M4484.781,191.67h61.034c18.946,0,25.815,1.973,32.741,5.677a38.614,38.614,0,0,1,16.065,16.065c3.7,6.926,5.676,13.8,5.676,32.74v61.035c0,18.945-1.973,25.814-5.676,32.74a38.614,38.614,0,0,1-16.065,16.065c-6.926,3.7-13.8,5.677-32.741,5.677h-61.034c-18.945,0-25.815-1.973-32.741-5.677a38.618,38.618,0,0,1-16.066-16.065c-3.7-6.926-5.676-13.8-5.676-32.74V246.153c0-18.945,1.973-25.814,5.676-32.74a38.618,38.618,0,0,1,16.066-16.065C4458.966,193.643,4465.835,191.67,4484.781,191.67Z" transform="translate(-4430.298 -191.67)" fill-rule="evenodd" fill="url(#radial-gradient-3)"/>
        <g id="Grupo_13619" data-name="Grupo 13619" clip-path="url(#clip-path)">
          <g id="Grupo_13618" data-name="Grupo 13618" transform="translate(0 0)">
            <rect id="Rectángulo_3686" data-name="Rectángulo 3686" width="170" height="170" fill="url(#radial-gradient-4)"/>
            <g id="Grupo_13617" data-name="Grupo 13617" clip-path="url(#clip-path-2)">
              <rect id="Rectángulo_3687" data-name="Rectángulo 3687" width="256" height="256" transform="translate(-43.001 -43)" fill="url(#radial-gradient-10)"/>
            </g>
          </g>
        </g>
      </g>
      <g id="Grupo_13621" data-name="Grupo 13621" transform="translate(4456.482 217.498)">
        <path id="Trazado_20701" data-name="Trazado 20701" d="M4512.131,242.834a30.335,30.335,0,1,0,30.334,30.335A30.334,30.334,0,0,0,4512.131,242.834Zm0,50.039a19.7,19.7,0,1,1,19.7-19.7A19.7,19.7,0,0,1,4512.131,292.873Z" transform="translate(-4453.099 -214.137)" fill="#fff"/>
        <circle id="Elipse_856" data-name="Elipse 856" cx="7.074" cy="7.074" r="7.074" transform="translate(83.491 20.503)" fill="#fff"/>
        <path id="Trazado_20702" data-name="Trazado 20702" d="M4572.652,250.837a43.377,43.377,0,0,0-2.758-14.548,30.218,30.218,0,0,0-17.267-17.266,43.383,43.383,0,0,0-14.347-2.757c-6.316-.28-8.314-.36-24.341-.36s-18.064,0-24.34.36a43.4,43.4,0,0,0-14.348,2.757,30.221,30.221,0,0,0-17.267,17.266,43.339,43.339,0,0,0-2.757,14.349c-.28,6.314-.36,8.312-.36,24.339s0,18.066.36,24.34a43.333,43.333,0,0,0,2.757,14.348,30.218,30.218,0,0,0,17.267,17.266,43.344,43.344,0,0,0,14.348,2.957c6.314.28,8.313.36,24.34.36s18.066,0,24.341-.36a43.381,43.381,0,0,0,14.347-2.757,30.218,30.218,0,0,0,17.267-17.266,43.365,43.365,0,0,0,2.758-14.348c.279-6.314.359-8.314.359-24.339S4573.012,257.112,4572.652,250.837Zm-10.672,48h-.08a32.7,32.7,0,0,1-2.037,11.07,19.585,19.585,0,0,1-11.231,11.231,32.708,32.708,0,0,1-10.951,2.038c-6.235.28-7.993.36-23.98.36s-17.626,0-23.981-.36a32.716,32.716,0,0,1-10.951-2.038,19.547,19.547,0,0,1-11.271-11.231,32.662,32.662,0,0,1-2.038-10.951c-.28-6.234-.36-7.993-.36-23.98s0-17.626.36-23.98a32.689,32.689,0,0,1,2.038-11.07,19.547,19.547,0,0,1,11.271-11.231,32.715,32.715,0,0,1,10.951-2.039c6.235-.279,7.994-.359,23.981-.359s17.624,0,23.98.359a32.708,32.708,0,0,1,10.951,2.039,19.585,19.585,0,0,1,11.231,11.231,32.7,32.7,0,0,1,2.037,10.951c.281,6.234.361,7.993.361,23.98S4562.261,292.564,4561.98,298.839Z" transform="translate(-4454.869 -215.906)" fill="#fff"/>
      </g>
    </g>
  </g>
</svg>
