<svg xmlns="http://www.w3.org/2000/svg" width="533.05" height="526.29" viewBox="0 0 533.05 526.29">
  <g id="Grupo_14163" data-name="Grupo 14163" transform="translate(-432 -5408)">
    <g id="Grupo_13935" data-name="Grupo 13935" transform="translate(-2654.525 2741.471)">
      <path id="Trazado_21086" data-name="Trazado 21086" d="M3619.575,3033.1a159.71,159.71,0,0,1-266.519,118.75,159.324,159.324,0,0,0,52.909-118.75c0-.37,0-.74-.009-1.1a159.768,159.768,0,0,0,106.81-149.65A159.778,159.778,0,0,1,3619.575,3033.1Z" fill="red"/>
    </g>
    <path id="Trazado_21087" data-name="Trazado 21087" d="M3405.965,3033.1a159.324,159.324,0,0,1-52.909,118.75,159.318,159.318,0,0,1-52.91-118.75c0-.37,0-.74.009-1.1a160.476,160.476,0,0,0,105.8,0C3405.965,3032.359,3405.965,3032.729,3405.965,3033.1Z" transform="translate(-2654.525 2741.471)" fill="#f0f"/>
    <path id="Trazado_21088" data-name="Trazado 21088" d="M3353.056,3151.849a159.735,159.735,0,1,1-159.711-269.5A159.769,159.769,0,0,0,3300.155,3032c-.009.36-.009.73-.009,1.1A159.318,159.318,0,0,0,3353.056,3151.849Z" transform="translate(-2654.525 2741.471)" fill="blue"/>
    <path id="Trazado_21089" data-name="Trazado 21089" d="M3353.056,2914.349a159.291,159.291,0,0,0-52.9,117.65,159.769,159.769,0,0,1-106.81-149.65,159.946,159.946,0,0,1,159.711,32Z" transform="translate(-2654.525 2741.471)" fill="aqua"/>
    <path id="Trazado_21090" data-name="Trazado 21090" d="M3405.956,3032a160.476,160.476,0,0,1-105.8,0,159.291,159.291,0,0,1,52.9-117.65A159.3,159.3,0,0,1,3405.956,3032Z" transform="translate(-2654.525 2741.471)" fill="#fff"/>
    <path id="Trazado_21091" data-name="Trazado 21091" d="M3512.766,2882.349A159.768,159.768,0,0,1,3405.956,3032a159.3,159.3,0,0,0-52.9-117.65,159.945,159.945,0,0,1,159.71-32Z" transform="translate(-2654.525 2741.471)" fill="#ff0"/>
    <path id="Trazado_21092" data-name="Trazado 21092" d="M3512.775,2881.249c0,.37,0,.74-.009,1.1a159.945,159.945,0,0,0-159.71,32,159.946,159.946,0,0,0-159.711-32c-.009-.36-.009-.73-.009-1.1a159.719,159.719,0,1,1,319.439,0Z" transform="translate(-2654.525 2741.471)" fill="lime"/>
    <path id="Trazado_24246" data-name="Trazado 24246" d="M-136.16.234a9.452,9.452,0,0,1-3.451-.621,8.116,8.116,0,0,1-2.748-1.734,7.818,7.818,0,0,1-1.8-2.754,9.6,9.6,0,0,1-.656-3.6,9.172,9.172,0,0,1,1.125-4.6,7.659,7.659,0,0,1,3.088-3.041,9.246,9.246,0,0,1,4.447-1.055,8.986,8.986,0,0,1,4.969,1.371,7.506,7.506,0,0,1,3.035,3.773l-3.281,1.2a4.639,4.639,0,0,0-1.816-2.285,5.188,5.188,0,0,0-2.906-.82,4.974,4.974,0,0,0-3.7,1.477,5.433,5.433,0,0,0-1.453,3.984,5.441,5.441,0,0,0,1.459,3.99A4.968,4.968,0,0,0-136.16-3a5.169,5.169,0,0,0,2.9-.826,4.66,4.66,0,0,0,1.822-2.291l3.281,1.2a7.536,7.536,0,0,1-3.035,3.779A8.957,8.957,0,0,1-136.16.234Zm16.055,0a7.575,7.575,0,0,1-3.41-.738,5.518,5.518,0,0,1-2.338-2.168,6.461,6.461,0,0,1-.85-3.363,5.893,5.893,0,0,1,1.828-4.57,6.782,6.782,0,0,1,4.77-1.676,6.8,6.8,0,0,1,4.781,1.676,5.893,5.893,0,0,1,1.828,4.57,5.926,5.926,0,0,1-1.828,4.588A6.784,6.784,0,0,1-120.105.234Zm-.035-2.684a3.092,3.092,0,0,0,2.385-.984,3.685,3.685,0,0,0,.908-2.6,3.685,3.685,0,0,0-.908-2.6,3.092,3.092,0,0,0-2.385-.984,2.979,2.979,0,0,0-2.314.99,3.719,3.719,0,0,0-.9,2.6,3.719,3.719,0,0,0,.9,2.6A2.979,2.979,0,0,0-120.141-2.449ZM-110.988,0V-18h3.41V0Zm12.516.234a7.575,7.575,0,0,1-3.41-.738,5.518,5.518,0,0,1-2.338-2.168,6.461,6.461,0,0,1-.85-3.363,5.893,5.893,0,0,1,1.828-4.57,6.782,6.782,0,0,1,4.77-1.676,6.8,6.8,0,0,1,4.781,1.676,5.893,5.893,0,0,1,1.828,4.57,5.926,5.926,0,0,1-1.828,4.588A6.784,6.784,0,0,1-98.473.234Zm-.035-2.684a3.092,3.092,0,0,0,2.385-.984,3.685,3.685,0,0,0,.908-2.6,3.685,3.685,0,0,0-.908-2.6,3.092,3.092,0,0,0-2.385-.984,2.979,2.979,0,0,0-2.314.99,3.719,3.719,0,0,0-.9,2.6,3.719,3.719,0,0,0,.9,2.6A2.979,2.979,0,0,0-98.508-2.449Zm12.387-7.687a3.911,3.911,0,0,1,1.582-1.447,4.827,4.827,0,0,1,2.355-.6v3.012a4.564,4.564,0,0,0-2.883.727,3.172,3.172,0,0,0-.891,2.578V0h-3.4V-12.047h3.234ZM-68.941-6.2l-.035.809h-8.93a3.119,3.119,0,0,0,.961,2.2,3.073,3.073,0,0,0,2.121.762,2.962,2.962,0,0,0,1.588-.416,2.557,2.557,0,0,0,1.014-1.213l3.094.457A5.259,5.259,0,0,1-71.238-.773,6.272,6.272,0,0,1-74.8.234a6.522,6.522,0,0,1-4.693-1.658,6.05,6.05,0,0,1-1.74-4.6,6.086,6.086,0,0,1,1.746-4.6A6.328,6.328,0,0,1-74.906-12.3a6.047,6.047,0,0,1,4.324,1.535A6.022,6.022,0,0,1-68.941-6.2Zm-5.941-3.715a2.667,2.667,0,0,0-2.93,2.32h5.531a2.537,2.537,0,0,0-.832-1.723A2.637,2.637,0,0,0-74.883-9.914ZM-62.133.234a6.732,6.732,0,0,1-3.516-.844,3.566,3.566,0,0,1-1.723-2.508l2.824-.8a2.269,2.269,0,0,0,2.414,1.793A2.493,2.493,0,0,0-60.9-2.4a.959.959,0,0,0,.48-.932.985.985,0,0,0-.2-.621,1.578,1.578,0,0,0-.615-.445,7.665,7.665,0,0,0-.82-.316q-.4-.129-1.072-.311t-1.113-.346A7.458,7.458,0,0,1-65.3-5.818a4.524,4.524,0,0,1-.879-.621,2.5,2.5,0,0,1-.656-.943,3.4,3.4,0,0,1-.229-1.289,3.078,3.078,0,0,1,1.307-2.7,5.838,5.838,0,0,1,3.416-.914,5.986,5.986,0,0,1,3.152.773,3.5,3.5,0,0,1,1.617,2.414l-2.613.586a2.047,2.047,0,0,0-2.145-1.523,2.348,2.348,0,0,0-1.184.27.866.866,0,0,0-.469.8.913.913,0,0,0,.07.363.719.719,0,0,0,.246.293,3.589,3.589,0,0,0,.34.223,2.564,2.564,0,0,0,.48.193q.316.1.527.152t.615.158l.627.164q.645.176,1.131.352a6.623,6.623,0,0,1,1.037.492A3.722,3.722,0,0,1-58-5.865a3.162,3.162,0,0,1,.592,1,3.679,3.679,0,0,1,.234,1.342,3.624,3.624,0,0,1-.4,1.746A3.035,3.035,0,0,1-58.687-.6a5.39,5.39,0,0,1-1.564.633A8.116,8.116,0,0,1-62.133.234Zm17.859,0a6.732,6.732,0,0,1-3.516-.844,3.566,3.566,0,0,1-1.723-2.508l2.824-.8a2.269,2.269,0,0,0,2.414,1.793,2.493,2.493,0,0,0,1.23-.275.959.959,0,0,0,.48-.932.985.985,0,0,0-.2-.621,1.578,1.578,0,0,0-.615-.445,7.665,7.665,0,0,0-.82-.316q-.4-.129-1.072-.311t-1.113-.346a7.458,7.458,0,0,1-1.061-.451,4.524,4.524,0,0,1-.879-.621,2.5,2.5,0,0,1-.656-.943,3.4,3.4,0,0,1-.229-1.289,3.078,3.078,0,0,1,1.307-2.7,5.838,5.838,0,0,1,3.416-.914,5.986,5.986,0,0,1,3.152.773,3.5,3.5,0,0,1,1.617,2.414l-2.613.586a2.047,2.047,0,0,0-2.145-1.523,2.348,2.348,0,0,0-1.184.27.866.866,0,0,0-.469.8.913.913,0,0,0,.07.363.719.719,0,0,0,.246.293,3.589,3.589,0,0,0,.34.223,2.564,2.564,0,0,0,.48.193q.316.1.527.152t.615.158l.627.164q.645.176,1.131.352a6.623,6.623,0,0,1,1.037.492,3.722,3.722,0,0,1,.908.709,3.162,3.162,0,0,1,.592,1,3.679,3.679,0,0,1,.234,1.342,3.624,3.624,0,0,1-.4,1.746A3.035,3.035,0,0,1-40.828-.6a5.39,5.39,0,0,1-1.564.633A8.116,8.116,0,0,1-44.273.234ZM-25.559-6.2l-.035.809h-8.93a3.119,3.119,0,0,0,.961,2.2,3.073,3.073,0,0,0,2.121.762,2.962,2.962,0,0,0,1.588-.416A2.557,2.557,0,0,0-28.84-4.055l3.094.457A5.259,5.259,0,0,1-27.855-.773,6.272,6.272,0,0,1-31.418.234a6.522,6.522,0,0,1-4.693-1.658,6.05,6.05,0,0,1-1.74-4.6,6.086,6.086,0,0,1,1.746-4.6A6.328,6.328,0,0,1-31.523-12.3,6.047,6.047,0,0,1-27.2-10.77,6.022,6.022,0,0,1-25.559-6.2ZM-31.5-9.914a2.667,2.667,0,0,0-2.93,2.32H-28.9a2.537,2.537,0,0,0-.832-1.723A2.637,2.637,0,0,0-31.5-9.914ZM-17.543.223A6.436,6.436,0,0,1-22.2-1.512,5.99,5.99,0,0,1-24-6.035a5.977,5.977,0,0,1,1.8-4.523,6.456,6.456,0,0,1,4.658-1.723,6.419,6.419,0,0,1,3.9,1.16,5.18,5.18,0,0,1,2.016,3.27l-3.117.34A2.671,2.671,0,0,0-15.75-9.094a3.064,3.064,0,0,0-1.828-.527,2.763,2.763,0,0,0-2.2.984,3.859,3.859,0,0,0-.844,2.6,3.864,3.864,0,0,0,.844,2.6,2.756,2.756,0,0,0,2.2.99,3.038,3.038,0,0,0,1.822-.527,2.733,2.733,0,0,0,1.014-1.582l3.117.34a5.194,5.194,0,0,1-2.033,3.27A6.393,6.393,0,0,1-17.543.223Zm16.3-12.27H2.133V0h-3.2l-.082-1.453A4.6,4.6,0,0,1-4.98.234,4.7,4.7,0,0,1-8.309-.85a4.019,4.019,0,0,1-1.16-3.088v-8.109h3.387v7.383a2.082,2.082,0,0,0,.6,1.652,2.291,2.291,0,0,0,1.564.527A2.717,2.717,0,0,0-2-3.17,2.945,2.945,0,0,0-1.242-5.4Zm13.98-.234A4.7,4.7,0,0,1,16.066-11.2a4.019,4.019,0,0,1,1.16,3.088V0H13.84V-7.383a2.1,2.1,0,0,0-.6-1.664,2.274,2.274,0,0,0-1.553-.527,3.172,3.172,0,0,0-1.008.152,2.589,2.589,0,0,0-.844.475,2.1,2.1,0,0,0-.6.908A4.2,4.2,0,0,0,9-6.645V0H5.625V-12.047H9v1.336A4.642,4.642,0,0,1,12.738-12.281ZM29.039-18h3.375V0h-3.2l-.082-1.57A3.44,3.44,0,0,1,27.6-.205a5.148,5.148,0,0,1-2.256.486A5.859,5.859,0,0,1,23.1-.152a5.585,5.585,0,0,1-1.846-1.225A5.582,5.582,0,0,1,20-3.363,7.327,7.327,0,0,1,19.547-6a6.849,6.849,0,0,1,.8-3.357,5.46,5.46,0,0,1,2.1-2.186,5.793,5.793,0,0,1,2.9-.738,5.276,5.276,0,0,1,2.186.439,3.412,3.412,0,0,1,1.506,1.248ZM26.121-2.52A3,3,0,0,0,28.4-3.48,3.518,3.518,0,0,0,29.309-6a3.526,3.526,0,0,0-.914-2.525,3,3,0,0,0-2.273-.967,3.036,3.036,0,0,0-2.291.949A3.525,3.525,0,0,0,22.922-6a3.509,3.509,0,0,0,.908,2.531A3.036,3.036,0,0,0,26.121-2.52Zm19.664-.75a11.27,11.27,0,0,0,.293,2.941V0H42.926l-.27-1.312a3.917,3.917,0,0,1-1.687,1.16,6.219,6.219,0,0,1-2.18.387A5.732,5.732,0,0,1,37.664.129,3.824,3.824,0,0,1,36.65-.229a3.076,3.076,0,0,1-.838-.627,2.749,2.749,0,0,1-.562-.955,3.8,3.8,0,0,1-.211-1.307,3.623,3.623,0,0,1,.223-1.307,3.063,3.063,0,0,1,.586-.979,3.554,3.554,0,0,1,.949-.715,7.263,7.263,0,0,1,1.2-.516,14.282,14.282,0,0,1,1.43-.375l1.98-.445a2.184,2.184,0,0,0,.9-.381.76.76,0,0,0,.264-.6,1.243,1.243,0,0,0-.592-1.16,2.763,2.763,0,0,0-1.436-.352,2.066,2.066,0,0,0-2.355,1.84l-2.988-.539A4.045,4.045,0,0,1,36.938-11.4a6.94,6.94,0,0,1,3.785-.885q5.063,0,5.063,4.348ZM39.844-2.051a2.714,2.714,0,0,0,2.086-.873,3.679,3.679,0,0,0,.809-2.584L39.879-4.7a3.379,3.379,0,0,0-1.2.492,1.011,1.011,0,0,0-.416.867,1.122,1.122,0,0,0,.445.955A1.843,1.843,0,0,0,39.844-2.051ZM52.3-10.137a3.911,3.911,0,0,1,1.582-1.447,4.827,4.827,0,0,1,2.355-.6v3.012a4.564,4.564,0,0,0-2.883.727,3.172,3.172,0,0,0-.891,2.578V0h-3.4V-12.047H52.3Zm7.641-3.715a1.9,1.9,0,0,1-1.383-.568,1.866,1.866,0,0,1-.574-1.377,1.843,1.843,0,0,1,.58-1.365,1.9,1.9,0,0,1,1.377-.568,1.868,1.868,0,0,1,1.359.568,1.852,1.852,0,0,1,.574,1.365A1.866,1.866,0,0,1,61.3-14.42,1.868,1.868,0,0,1,59.941-13.852ZM58.219,0V-12.047h3.4V0Zm12.5.234A7.575,7.575,0,0,1,67.313-.5a5.518,5.518,0,0,1-2.338-2.168,6.461,6.461,0,0,1-.85-3.363,5.893,5.893,0,0,1,1.828-4.57,6.782,6.782,0,0,1,4.77-1.676A6.8,6.8,0,0,1,75.5-10.605a5.893,5.893,0,0,1,1.828,4.57A5.926,5.926,0,0,1,75.5-1.447,6.784,6.784,0,0,1,70.723.234Zm-.035-2.684a3.092,3.092,0,0,0,2.385-.984,3.685,3.685,0,0,0,.908-2.6,3.685,3.685,0,0,0-.908-2.6,3.092,3.092,0,0,0-2.385-.984,2.979,2.979,0,0,0-2.314.99,3.719,3.719,0,0,0-.9,2.6,3.719,3.719,0,0,0,.9,2.6A2.979,2.979,0,0,0,70.688-2.449ZM84.082.234a6.732,6.732,0,0,1-3.516-.844,3.566,3.566,0,0,1-1.723-2.508l2.824-.8a2.269,2.269,0,0,0,2.414,1.793,2.493,2.493,0,0,0,1.23-.275.959.959,0,0,0,.48-.932.985.985,0,0,0-.2-.621,1.578,1.578,0,0,0-.615-.445,7.665,7.665,0,0,0-.82-.316q-.4-.129-1.072-.311t-1.113-.346a7.458,7.458,0,0,1-1.061-.451,4.524,4.524,0,0,1-.879-.621,2.5,2.5,0,0,1-.656-.943,3.4,3.4,0,0,1-.229-1.289,3.078,3.078,0,0,1,1.307-2.7,5.838,5.838,0,0,1,3.416-.914,5.986,5.986,0,0,1,3.152.773,3.5,3.5,0,0,1,1.617,2.414l-2.613.586a2.047,2.047,0,0,0-2.145-1.523,2.348,2.348,0,0,0-1.184.27.866.866,0,0,0-.469.8.913.913,0,0,0,.07.363.719.719,0,0,0,.246.293,3.589,3.589,0,0,0,.34.223,2.564,2.564,0,0,0,.48.193q.316.1.527.152t.615.158l.627.164q.645.176,1.131.352a6.623,6.623,0,0,1,1.037.492,3.722,3.722,0,0,1,.908.709,3.162,3.162,0,0,1,.592,1,3.679,3.679,0,0,1,.234,1.342,3.624,3.624,0,0,1-.4,1.746A3.035,3.035,0,0,1,87.527-.6a5.39,5.39,0,0,1-1.564.633A8.116,8.116,0,0,1,84.082.234Zm23-.234L102.68-7.453h-1.02V0H98.145V-16.934h6.141a7.1,7.1,0,0,1,2.461.393,4.255,4.255,0,0,1,1.705,1.09,4.667,4.667,0,0,1,.961,1.6,5.851,5.851,0,0,1,.322,1.98,4.135,4.135,0,0,1-.926,2.783,4.665,4.665,0,0,1-2.66,1.459L111.246,0ZM101.66-14.016v4.043h2.074q2.637,0,2.637-2.016a1.835,1.835,0,0,0-.645-1.488,3.065,3.065,0,0,0-1.992-.539ZM120.715.234a9.156,9.156,0,0,1-3.381-.615,7.926,7.926,0,0,1-2.7-1.729,7.765,7.765,0,0,1-1.77-2.742,9.71,9.71,0,0,1-.639-3.574,9.68,9.68,0,0,1,.656-3.615,7.868,7.868,0,0,1,1.8-2.766,8.07,8.07,0,0,1,2.748-1.74,9.452,9.452,0,0,1,3.451-.621,9.228,9.228,0,0,1,4.4,1.037,7.542,7.542,0,0,1,3.053,2.947l-3.082,1.641a4.518,4.518,0,0,0-1.787-1.922,5.125,5.125,0,0,0-2.584-.645,4.91,4.91,0,0,0-3.7,1.488,5.678,5.678,0,0,0-1.436,4.113,5.854,5.854,0,0,0,1.43,4.137,4.966,4.966,0,0,0,3.832,1.547,5.663,5.663,0,0,0,2.063-.363,4.114,4.114,0,0,0,1.641-1.178,4.266,4.266,0,0,0,.938-2.01h-4.629V-9.2h7.957V0h-2.766V-2.344A6.178,6.178,0,0,1,120.715.234Zm21.012-9.176a3.961,3.961,0,0,1,3.188,4.2,4.547,4.547,0,0,1-1.348,3.475A5.568,5.568,0,0,1,139.605,0h-6.973V-16.934h5.484a6.213,6.213,0,0,1,4.143,1.225,4.248,4.248,0,0,1,1.436,3.416,3.984,3.984,0,0,1-.5,2.01A3.28,3.28,0,0,1,141.727-8.941Zm-3.574-5.074H136.02v3.984H138.3a2.141,2.141,0,0,0,1.617-.562,2.045,2.045,0,0,0,.539-1.477,1.817,1.817,0,0,0-.586-1.412A2.479,2.479,0,0,0,138.152-14.016Zm.8,11a2.7,2.7,0,0,0,1.939-.6,2.032,2.032,0,0,0,.615-1.523,2.128,2.128,0,0,0-.621-1.57,2.748,2.748,0,0,0-2-.621H136.02v4.313Z" transform="translate(700 5426)" fill="#002b45"/>
    <path id="Trazado_24240" data-name="Trazado 24240" d="M11.133,0,6.727-7.453H5.707V0H2.191V-16.934H8.332a7.1,7.1,0,0,1,2.461.393,4.255,4.255,0,0,1,1.705,1.09,4.667,4.667,0,0,1,.961,1.6,5.851,5.851,0,0,1,.322,1.98,4.135,4.135,0,0,1-.926,2.783A4.665,4.665,0,0,1,10.2-7.629L15.293,0ZM5.707-14.016v4.043H7.781q2.637,0,2.637-2.016a1.835,1.835,0,0,0-.645-1.488,3.065,3.065,0,0,0-1.992-.539ZM24.938.234A9.2,9.2,0,0,1,20.49-.826,7.688,7.688,0,0,1,17.4-3.879a9.181,9.181,0,0,1-1.125-4.594,9.172,9.172,0,0,1,1.125-4.6,7.659,7.659,0,0,1,3.088-3.041,9.246,9.246,0,0,1,4.447-1.055,9.212,9.212,0,0,1,4.441,1.055,7.669,7.669,0,0,1,3.082,3.041,9.172,9.172,0,0,1,1.125,4.6,9.181,9.181,0,0,1-1.125,4.594A7.688,7.688,0,0,1,29.373-.826,9.18,9.18,0,0,1,24.938.234Zm-3.7-4.705a4.963,4.963,0,0,0,3.7,1.482,4.963,4.963,0,0,0,3.7-1.482,5.47,5.47,0,0,0,1.453-4,5.433,5.433,0,0,0-1.453-3.984,4.974,4.974,0,0,0-3.7-1.477,4.974,4.974,0,0,0-3.7,1.477,5.433,5.433,0,0,0-1.453,3.984A5.47,5.47,0,0,0,21.234-4.471ZM38.625.234A9.576,9.576,0,0,1,34.148-.937l1.488-2.895a4.422,4.422,0,0,0,2.566.9,1.852,1.852,0,0,0,1.57-.674,3.537,3.537,0,0,0,.516-2.139V-16.934H43.8V-5.086a5.266,5.266,0,0,1-1.412,3.932A5.14,5.14,0,0,1,38.625.234Zm16.793,0A9.2,9.2,0,0,1,50.971-.826a7.688,7.688,0,0,1-3.088-3.053,9.181,9.181,0,0,1-1.125-4.594,9.172,9.172,0,0,1,1.125-4.6,7.659,7.659,0,0,1,3.088-3.041,9.246,9.246,0,0,1,4.447-1.055,9.212,9.212,0,0,1,4.441,1.055,7.669,7.669,0,0,1,3.082,3.041,9.172,9.172,0,0,1,1.125,4.6,9.181,9.181,0,0,1-1.125,4.594A7.688,7.688,0,0,1,59.854-.826,9.18,9.18,0,0,1,55.418.234Zm-3.7-4.705a4.963,4.963,0,0,0,3.7,1.482,4.963,4.963,0,0,0,3.7-1.482,5.47,5.47,0,0,0,1.453-4,5.433,5.433,0,0,0-1.453-3.984,4.974,4.974,0,0,0-3.7-1.477,4.974,4.974,0,0,0-3.7,1.477,5.433,5.433,0,0,0-1.453,3.984A5.47,5.47,0,0,0,51.715-4.471Z" transform="translate(848 5808)" fill="#fff"/>
    <path id="Trazado_24241" data-name="Trazado 24241" d="M13.523,0l-1.23-3.492H5.18L3.949,0H.352L6.586-16.934h4.3L17.121,0ZM6.211-6.434h5.051l-2.52-7.184ZM22.746-3.105h8.133V0H18.539V-2.777L26.566-13.84H18.551v-3.094H30.727v2.777ZM40.371.234a8.763,8.763,0,0,1-2.607-.369,6.137,6.137,0,0,1-2.092-1.107A4.956,4.956,0,0,1,34.26-3.176a6.968,6.968,0,0,1-.51-2.754v-11h3.516V-6.41a3.681,3.681,0,0,0,.85,2.684,3.038,3.038,0,0,0,2.256.855,3.066,3.066,0,0,0,2.268-.861A3.652,3.652,0,0,0,43.5-6.41V-16.934h3.516v11a6.968,6.968,0,0,1-.51,2.754,4.93,4.93,0,0,1-1.418,1.934,6.2,6.2,0,0,1-2.1,1.107A8.805,8.805,0,0,1,40.371.234Zm14.191-3.34h5.309V0H51.047V-16.934h3.516Z" transform="translate(487 5808)" fill="#fff"/>
    <path id="Trazado_24243" data-name="Trazado 24243" d="M12.961-16.934H16.7L10.441,0H6.574L.352-16.934H4.078L8.52-4.1Zm16.1,3.094H22.781V-10h5.566v3.059H22.781v3.832h6.281V0h-9.82V-16.934h9.82ZM41.625,0,37.219-7.453H36.2V0H32.684V-16.934h6.141a7.1,7.1,0,0,1,2.461.393,4.255,4.255,0,0,1,1.705,1.09,4.667,4.667,0,0,1,.961,1.6,5.851,5.851,0,0,1,.322,1.98,4.135,4.135,0,0,1-.926,2.783,4.665,4.665,0,0,1-2.66,1.459L45.785,0ZM36.2-14.016v4.043h2.074q2.637,0,2.637-2.016a1.835,1.835,0,0,0-.645-1.488,3.065,3.065,0,0,0-1.992-.539ZM48.363,0V-16.934h6.129a9.555,9.555,0,0,1,3.533.609A6.508,6.508,0,0,1,60.557-14.6a7.52,7.52,0,0,1,1.5,2.666,11.007,11.007,0,0,1,.51,3.457A11.048,11.048,0,0,1,62.057-5a7.52,7.52,0,0,1-1.5,2.666A6.508,6.508,0,0,1,58.025-.609,9.555,9.555,0,0,1,54.492,0Zm3.516-3.105h2.438a4.16,4.16,0,0,0,3.422-1.377,6.172,6.172,0,0,0,1.125-3.99,6.172,6.172,0,0,0-1.125-3.99,4.16,4.16,0,0,0-3.422-1.377H51.879ZM75.68-13.84H69.4V-10h5.566v3.059H69.4v3.832H75.68V0h-9.82V-16.934h9.82Z" transform="translate(660 5520)" fill="#fff"/>
    <path id="Trazado_24245" data-name="Trazado 24245" d="M18,0h-2.92L14.15-10.635,10.576,0H8.682L5.107-10.635,4.17,0H1.24L2.422-14.111H6.6L9.609-5.254l3.047-8.857h4.18Zm12.51,0L29.482-2.91H23.555L22.529,0h-3l5.2-14.111h3.584L33.506,0ZM24.414-5.361h4.209l-2.1-5.986ZM41.025.2a7.63,7.63,0,0,1-2.817-.513,6.605,6.605,0,0,1-2.246-1.44,6.471,6.471,0,0,1-1.475-2.285,8.092,8.092,0,0,1-.532-2.979,8.066,8.066,0,0,1,.547-3.013,6.557,6.557,0,0,1,1.5-2.3,6.725,6.725,0,0,1,2.29-1.45,7.877,7.877,0,0,1,2.876-.518,7.69,7.69,0,0,1,3.667.864,6.285,6.285,0,0,1,2.544,2.456L44.814-9.619a3.765,3.765,0,0,0-1.489-1.6,4.271,4.271,0,0,0-2.153-.537,4.092,4.092,0,0,0-3.081,1.24,4.732,4.732,0,0,0-1.2,3.428,4.878,4.878,0,0,0,1.191,3.447,4.138,4.138,0,0,0,3.193,1.289A4.719,4.719,0,0,0,43-2.656a3.429,3.429,0,0,0,1.367-.981,3.555,3.555,0,0,0,.781-1.675H41.289V-7.666H47.92V0h-2.3V-1.953A5.148,5.148,0,0,1,41.025.2ZM59.141-11.533H53.906v3.2h4.639v2.549H53.906v3.193h5.234V0H50.957V-14.111h8.184ZM71.8-14.111h2.92V0H71.328l-6.25-10.088V0h-2.92V-14.111h3.35L71.8-4.082Zm14.756,0v2.578H83.2V0H80.3V-11.533H76.934v-2.578ZM97.012,0,95.986-2.91H90.059L89.033,0h-3l5.2-14.111h3.584L100.01,0ZM90.918-5.361h4.209l-2.1-5.986Z" transform="translate(648 5823)" fill="#002b45"/>
    <path id="Trazado_24242" data-name="Trazado 24242" d="M11.27,0,10.244-2.91H4.316L3.291,0h-3l5.2-14.111H9.072L14.268,0ZM5.176-5.361H9.385l-2.1-5.986ZM32.559,0h-2.92l-.928-10.635L25.137,0H23.242L19.668-10.635,18.73,0H15.8l1.182-14.111h4.18L24.17-5.254l3.047-8.857H31.4Zm12.51,0L44.043-2.91H38.115L37.09,0h-3l5.2-14.111h3.584L48.066,0ZM38.975-5.361h4.209l-2.1-5.986ZM57.637,0,53.965-6.211h-.85V0h-2.93V-14.111H55.3a5.919,5.919,0,0,1,2.051.327,3.546,3.546,0,0,1,1.421.908,3.889,3.889,0,0,1,.8,1.333,4.876,4.876,0,0,1,.269,1.65,3.446,3.446,0,0,1-.771,2.319,3.888,3.888,0,0,1-2.217,1.216L61.1,0ZM53.115-11.68v3.369h1.729q2.2,0,2.2-1.68a1.53,1.53,0,0,0-.537-1.24,2.554,2.554,0,0,0-1.66-.449ZM63.252,0V-14.111h2.93V0Zm9.5-2.588h4.424V0H69.824V-14.111h2.93Zm9.59,0h4.424V0H79.414V-14.111h2.93ZM94.971.2a7.671,7.671,0,0,1-3.706-.884,6.407,6.407,0,0,1-2.573-2.544,7.651,7.651,0,0,1-.937-3.828,7.644,7.644,0,0,1,.938-3.833,6.383,6.383,0,0,1,2.573-2.534,7.705,7.705,0,0,1,3.706-.879,7.677,7.677,0,0,1,3.7.879,6.391,6.391,0,0,1,2.568,2.534,7.644,7.644,0,0,1,.938,3.833,7.651,7.651,0,0,1-.937,3.828A6.407,6.407,0,0,1,98.667-.688,7.65,7.65,0,0,1,94.971.2ZM91.885-3.726A4.136,4.136,0,0,0,94.971-2.49a4.136,4.136,0,0,0,3.086-1.235,4.558,4.558,0,0,0,1.211-3.335,4.528,4.528,0,0,0-1.211-3.32,4.145,4.145,0,0,0-3.086-1.23,4.145,4.145,0,0,0-3.086,1.23,4.528,4.528,0,0,0-1.211,3.32A4.558,4.558,0,0,0,91.885-3.726Z" transform="translate(736 5669)" fill="#002b45"/>
    <path id="Trazado_24244" data-name="Trazado 24244" d="M8.076.2A7.877,7.877,0,0,1,5.2-.322,6.763,6.763,0,0,1,2.91-1.768a6.515,6.515,0,0,1-1.5-2.295,8,8,0,0,1-.547-3A7.644,7.644,0,0,1,1.8-10.894,6.382,6.382,0,0,1,4.37-13.428a7.705,7.705,0,0,1,3.706-.879,7.488,7.488,0,0,1,4.141,1.143,6.255,6.255,0,0,1,2.529,3.145l-2.734,1a3.866,3.866,0,0,0-1.514-1.9,4.323,4.323,0,0,0-2.422-.684,4.145,4.145,0,0,0-3.086,1.23,4.528,4.528,0,0,0-1.211,3.32A4.534,4.534,0,0,0,5-3.735,4.14,4.14,0,0,0,8.076-2.5a4.307,4.307,0,0,0,2.417-.688A3.883,3.883,0,0,0,12.012-5.1l2.734,1A6.28,6.28,0,0,1,12.217-.952,7.464,7.464,0,0,1,8.076.2ZM27.734-14.111,23.1-6.758V0H20.156V-6.689l-4.668-7.422H18.73l2.881,4.8,2.891-4.8ZM37.461,0,36.436-2.91H30.508L29.482,0h-3l5.2-14.111h3.584L40.459,0ZM31.367-5.361h4.209l-2.1-5.986Zm20.85-8.75h2.92V0H51.748L45.5-10.088V0h-2.92V-14.111h3.35L52.217-4.082Z" transform="translate(576 5669)" fill="#002b45"/>
  </g>
</svg>
