<svg xmlns="http://www.w3.org/2000/svg" width="265" height="489" viewBox="0 0 265 489">
  <g id="Grupo_14158" data-name="Grupo 14158" transform="translate(-8969 2422)">
    <rect id="Rectángulo_3797" data-name="Rectángulo 3797" width="265" height="489" rx="30" transform="translate(8969 -2422)" fill="#f3f7fa"/>
    <path id="Trazado_24206" data-name="Trazado 24206" d="M32.349,21V6.723h1.66V19.5h6.3V21Zm19.375-5.361a5.9,5.9,0,0,1-1.318,4.087,4.643,4.643,0,0,1-3.643,1.47,4.824,4.824,0,0,1-2.549-.674A4.447,4.447,0,0,1,42.5,18.588a6.739,6.739,0,0,1-.605-2.949A5.9,5.9,0,0,1,43.2,11.562a4.628,4.628,0,0,1,3.633-1.46A4.528,4.528,0,0,1,50.4,11.6,5.879,5.879,0,0,1,51.724,15.639Zm-8.154,0a5.08,5.08,0,0,0,.82,3.125,3.256,3.256,0,0,0,4.829,0,5.054,5.054,0,0,0,.825-3.13,4.973,4.973,0,0,0-.825-3.1,2.9,2.9,0,0,0-2.437-1.06,2.853,2.853,0,0,0-2.4,1.045A5.029,5.029,0,0,0,43.569,15.639ZM63.325,10.3v1.025l-1.982.234a3.481,3.481,0,0,1,.7,2.139,3.164,3.164,0,0,1-1.074,2.51,4.333,4.333,0,0,1-2.949.938,4.911,4.911,0,0,1-.9-.078,1.6,1.6,0,0,0-1.035,1.377.7.7,0,0,0,.361.649,2.639,2.639,0,0,0,1.24.21h1.895a4.242,4.242,0,0,1,2.671.732,2.545,2.545,0,0,1,.933,2.129,3.039,3.039,0,0,1-1.426,2.71,7.631,7.631,0,0,1-4.16.933,5.684,5.684,0,0,1-3.237-.781,2.522,2.522,0,0,1-1.138-2.207,2.479,2.479,0,0,1,.625-1.689,3.182,3.182,0,0,1,1.758-.967,1.7,1.7,0,0,1-.688-.576,1.525,1.525,0,0,1-.278-.908,1.724,1.724,0,0,1,.313-1.025,3.286,3.286,0,0,1,.986-.85,2.891,2.891,0,0,1-1.353-1.162,3.415,3.415,0,0,1-.522-1.875,3.463,3.463,0,0,1,1.055-2.71A4.306,4.306,0,0,1,58.11,10.1a5.434,5.434,0,0,1,1.514.2ZM54.79,22.8a1.453,1.453,0,0,0,.732,1.318,4.042,4.042,0,0,0,2.1.449,5.859,5.859,0,0,0,3.022-.61,1.869,1.869,0,0,0,.981-1.655,1.31,1.31,0,0,0-.537-1.206,4.172,4.172,0,0,0-2.021-.337H57.124a2.56,2.56,0,0,0-1.719.527A1.884,1.884,0,0,0,54.79,22.8Zm.879-9.072a2.179,2.179,0,0,0,.635,1.7A2.535,2.535,0,0,0,58.071,16a2.068,2.068,0,0,0,2.373-2.3,2.128,2.128,0,0,0-2.4-2.412,2.378,2.378,0,0,0-1.758.615A2.478,2.478,0,0,0,55.669,13.725Zm19.092,1.914a5.9,5.9,0,0,1-1.318,4.087A4.643,4.643,0,0,1,69.8,21.2a4.824,4.824,0,0,1-2.549-.674,4.447,4.447,0,0,1-1.719-1.934,6.739,6.739,0,0,1-.605-2.949,5.9,5.9,0,0,1,1.309-4.077,4.628,4.628,0,0,1,3.633-1.46A4.528,4.528,0,0,1,73.438,11.6,5.879,5.879,0,0,1,74.761,15.639Zm-8.154,0a5.08,5.08,0,0,0,.82,3.125,3.256,3.256,0,0,0,4.829,0,5.054,5.054,0,0,0,.825-3.13,4.973,4.973,0,0,0-.825-3.1,2.9,2.9,0,0,0-2.437-1.06,2.853,2.853,0,0,0-2.4,1.045A5.029,5.029,0,0,0,66.606,15.639ZM96.44,21V14.037a2.89,2.89,0,0,0-.547-1.919,2.115,2.115,0,0,0-1.7-.64,2.743,2.743,0,0,0-2.236.869,4.131,4.131,0,0,0-.723,2.676V21H89.614V14.037a2.89,2.89,0,0,0-.547-1.919,2.128,2.128,0,0,0-1.709-.64,2.647,2.647,0,0,0-2.231.913,4.942,4.942,0,0,0-.708,2.993V21H82.8V10.3h1.318l.264,1.465h.078a3.186,3.186,0,0,1,1.294-1.221,3.953,3.953,0,0,1,1.87-.439q2.51,0,3.281,1.816h.078a3.413,3.413,0,0,1,1.387-1.328,4.3,4.3,0,0,1,2.07-.488,3.624,3.624,0,0,1,2.72.933,4.172,4.172,0,0,1,.9,2.983V21Zm11.543,0-.322-1.523h-.078a4.5,4.5,0,0,1-1.6,1.362A4.867,4.867,0,0,1,104,21.2a3.575,3.575,0,0,1-2.5-.82,2.992,2.992,0,0,1-.9-2.334q0-3.242,5.186-3.4l1.816-.059V13.92a2.714,2.714,0,0,0-.542-1.86,2.229,2.229,0,0,0-1.733-.6,7.063,7.063,0,0,0-3.027.82l-.5-1.24a7.618,7.618,0,0,1,1.733-.674,7.507,7.507,0,0,1,1.89-.244,4.077,4.077,0,0,1,2.837.85,3.546,3.546,0,0,1,.923,2.725V21Zm-3.662-1.143a3.29,3.29,0,0,0,2.378-.83,3.071,3.071,0,0,0,.864-2.324v-.967l-1.621.068a5.9,5.9,0,0,0-2.788.6,1.811,1.811,0,0,0-.854,1.655,1.67,1.67,0,0,0,.532,1.338A2.209,2.209,0,0,0,104.321,19.857ZM117.407,10.1a6.343,6.343,0,0,1,1.279.117l-.225,1.5a5.522,5.522,0,0,0-1.172-.146,2.853,2.853,0,0,0-2.222,1.055,3.846,3.846,0,0,0-.923,2.627V21h-1.621V10.3h1.338l.186,1.982h.078a4.7,4.7,0,0,1,1.436-1.611A3.232,3.232,0,0,1,117.407,10.1ZM124.966,21.2a4.568,4.568,0,0,1-3.6-1.431,5.883,5.883,0,0,1-1.274-4.048,6.067,6.067,0,0,1,1.294-4.15,4.659,4.659,0,0,1,3.687-1.465,7.316,7.316,0,0,1,1.543.166,5.083,5.083,0,0,1,1.211.391l-.5,1.377a7.622,7.622,0,0,0-1.172-.356,5.232,5.232,0,0,0-1.123-.142q-3.262,0-3.262,4.16a4.954,4.954,0,0,0,.8,3.027,2.769,2.769,0,0,0,2.358,1.055,7.211,7.211,0,0,0,2.744-.576v1.436A5.849,5.849,0,0,1,124.966,21.2Zm11.826-.2-.322-1.523h-.078a4.5,4.5,0,0,1-1.6,1.362,4.867,4.867,0,0,1-1.987.356,3.575,3.575,0,0,1-2.5-.82,2.992,2.992,0,0,1-.9-2.334q0-3.242,5.186-3.4l1.816-.059V13.92a2.714,2.714,0,0,0-.542-1.86,2.229,2.229,0,0,0-1.733-.6,7.063,7.063,0,0,0-3.027.82l-.5-1.24a7.618,7.618,0,0,1,1.733-.674,7.507,7.507,0,0,1,1.89-.244,4.077,4.077,0,0,1,2.837.85,3.546,3.546,0,0,1,.923,2.725V21Zm-3.662-1.143a3.29,3.29,0,0,0,2.378-.83,3.071,3.071,0,0,0,.864-2.324v-.967l-1.621.068a5.9,5.9,0,0,0-2.788.6,1.811,1.811,0,0,0-.854,1.655,1.67,1.67,0,0,0,.532,1.338A2.209,2.209,0,0,0,133.13,19.857ZM18.872,37.1a6.343,6.343,0,0,1,1.279.117l-.225,1.5a5.522,5.522,0,0,0-1.172-.146,2.853,2.853,0,0,0-2.222,1.055,3.846,3.846,0,0,0-.923,2.627V48H13.989V37.3h1.338l.186,1.982h.078a4.7,4.7,0,0,1,1.436-1.611A3.232,3.232,0,0,1,18.872,37.1Zm7.8,11.094A4.917,4.917,0,0,1,22.93,46.75a5.6,5.6,0,0,1-1.372-4.014,6.205,6.205,0,0,1,1.274-4.111A4.233,4.233,0,0,1,26.255,37.1a4.036,4.036,0,0,1,3.184,1.323,5.072,5.072,0,0,1,1.172,3.491v1.025H23.237a4.243,4.243,0,0,0,.952,2.861,3.293,3.293,0,0,0,2.544.977,8.621,8.621,0,0,0,3.418-.723V47.5a8.579,8.579,0,0,1-1.626.532A9.138,9.138,0,0,1,26.675,48.2Zm-.439-9.736a2.647,2.647,0,0,0-2.056.84,3.871,3.871,0,0,0-.9,2.324h5.6a3.564,3.564,0,0,0-.684-2.349A2.406,2.406,0,0,0,26.235,38.459Zm15.9-1.162v1.025l-1.982.234a3.481,3.481,0,0,1,.7,2.139,3.164,3.164,0,0,1-1.074,2.51,4.333,4.333,0,0,1-2.949.938,4.911,4.911,0,0,1-.9-.078A1.6,1.6,0,0,0,34.9,45.441a.7.7,0,0,0,.361.649,2.639,2.639,0,0,0,1.24.21h1.895a4.242,4.242,0,0,1,2.671.732A2.545,2.545,0,0,1,42,49.162a3.039,3.039,0,0,1-1.426,2.71,7.631,7.631,0,0,1-4.16.933,5.684,5.684,0,0,1-3.237-.781,2.522,2.522,0,0,1-1.138-2.207,2.479,2.479,0,0,1,.625-1.689,3.182,3.182,0,0,1,1.758-.967,1.7,1.7,0,0,1-.688-.576,1.525,1.525,0,0,1-.278-.908,1.724,1.724,0,0,1,.313-1.025,3.286,3.286,0,0,1,.986-.85A2.891,2.891,0,0,1,33.4,42.639a3.415,3.415,0,0,1-.522-1.875,3.463,3.463,0,0,1,1.055-2.71,4.306,4.306,0,0,1,2.988-.952,5.434,5.434,0,0,1,1.514.2ZM33.6,49.8a1.453,1.453,0,0,0,.732,1.318,4.042,4.042,0,0,0,2.1.449,5.859,5.859,0,0,0,3.022-.61,1.869,1.869,0,0,0,.981-1.655,1.31,1.31,0,0,0-.537-1.206,4.172,4.172,0,0,0-2.021-.337H35.933a2.56,2.56,0,0,0-1.719.527A1.884,1.884,0,0,0,33.6,49.8Zm.879-9.072a2.179,2.179,0,0,0,.635,1.7A2.535,2.535,0,0,0,36.88,43a2.068,2.068,0,0,0,2.373-2.3,2.128,2.128,0,0,0-2.4-2.412,2.378,2.378,0,0,0-1.758.615A2.478,2.478,0,0,0,34.478,40.725ZM45.952,48H44.331V37.3h1.621ZM44.194,34.4a1.077,1.077,0,0,1,.273-.815,1.012,1.012,0,0,1,1.357,0,1.057,1.057,0,0,1,.283.811,1.074,1.074,0,0,1-.283.815.992.992,0,0,1-1.357,0A1.1,1.1,0,0,1,44.194,34.4Zm12.1,10.684a2.681,2.681,0,0,1-1.113,2.3,5.233,5.233,0,0,1-3.125.811,6.8,6.8,0,0,1-3.32-.674v-1.5a8.029,8.029,0,0,0,1.655.615,6.912,6.912,0,0,0,1.7.225,3.864,3.864,0,0,0,1.953-.405,1.4,1.4,0,0,0,.142-2.3,8.526,8.526,0,0,0-2.114-1.05,11.465,11.465,0,0,1-2.124-.972,2.9,2.9,0,0,1-.937-.942,2.458,2.458,0,0,1-.308-1.26,2.4,2.4,0,0,1,1.064-2.065,4.96,4.96,0,0,1,2.92-.757,8.544,8.544,0,0,1,3.379.7l-.576,1.318a7.756,7.756,0,0,0-2.92-.664,3.359,3.359,0,0,0-1.738.361,1.117,1.117,0,0,0-.586,1,1.213,1.213,0,0,0,.22.732,2.168,2.168,0,0,0,.708.576,15.822,15.822,0,0,0,1.875.791,7,7,0,0,1,2.573,1.4A2.463,2.463,0,0,1,56.294,45.08Zm6.094,1.777a5.3,5.3,0,0,0,.83-.063,5.373,5.373,0,0,0,.635-.132V47.9a2.963,2.963,0,0,1-.776.21,5.83,5.83,0,0,1-.923.083q-3.105,0-3.105-3.271V38.557H57.515v-.781l1.533-.674.684-2.285h.938V37.3h3.105v1.26H60.669v6.3a2.167,2.167,0,0,0,.459,1.484A1.6,1.6,0,0,0,62.388,46.857ZM70.874,37.1a6.343,6.343,0,0,1,1.279.117l-.225,1.5a5.522,5.522,0,0,0-1.172-.146,2.853,2.853,0,0,0-2.222,1.055,3.846,3.846,0,0,0-.923,2.627V48H65.991V37.3h1.338l.186,1.982h.078a4.7,4.7,0,0,1,1.436-1.611A3.232,3.232,0,0,1,70.874,37.1ZM80.737,48l-.322-1.523h-.078a4.5,4.5,0,0,1-1.6,1.362,4.867,4.867,0,0,1-1.987.356,3.575,3.575,0,0,1-2.5-.82,2.992,2.992,0,0,1-.9-2.334q0-3.242,5.186-3.4l1.816-.059V40.92a2.714,2.714,0,0,0-.542-1.86,2.229,2.229,0,0,0-1.733-.6,7.063,7.063,0,0,0-3.027.82l-.5-1.24a7.618,7.618,0,0,1,1.733-.674,7.507,7.507,0,0,1,1.89-.244,4.077,4.077,0,0,1,2.837.85,3.546,3.546,0,0,1,.923,2.725V48Zm-3.662-1.143a3.29,3.29,0,0,0,2.378-.83,3.071,3.071,0,0,0,.864-2.324v-.967L78.7,42.8a5.9,5.9,0,0,0-2.788.6,1.811,1.811,0,0,0-.854,1.655,1.67,1.67,0,0,0,.532,1.338A2.209,2.209,0,0,0,77.075,46.857Zm15.488-.293h-.088A3.809,3.809,0,0,1,89.116,48.2,3.974,3.974,0,0,1,85.85,46.76a6.319,6.319,0,0,1-1.167-4.082,6.426,6.426,0,0,1,1.172-4.111A3.943,3.943,0,0,1,89.116,37.1a3.892,3.892,0,0,1,3.34,1.582h.127l-.068-.771-.039-.752V32.8H94.1V48H92.778Zm-3.242.273a2.951,2.951,0,0,0,2.407-.9,4.565,4.565,0,0,0,.747-2.915v-.342a5.371,5.371,0,0,0-.757-3.247,2.874,2.874,0,0,0-2.417-.972,2.481,2.481,0,0,0-2.183,1.108,5.511,5.511,0,0,0-.757,3.13,5.284,5.284,0,0,0,.752,3.1A2.547,2.547,0,0,0,89.321,46.838ZM104.116,48l-.322-1.523h-.078a4.5,4.5,0,0,1-1.6,1.362,4.867,4.867,0,0,1-1.987.356,3.575,3.575,0,0,1-2.5-.82,2.992,2.992,0,0,1-.9-2.334q0-3.242,5.186-3.4l1.816-.059V40.92a2.714,2.714,0,0,0-.542-1.86,2.229,2.229,0,0,0-1.733-.6,7.063,7.063,0,0,0-3.027.82l-.5-1.24a7.618,7.618,0,0,1,1.733-.674,7.507,7.507,0,0,1,1.89-.244,4.077,4.077,0,0,1,2.837.85,3.546,3.546,0,0,1,.923,2.725V48Zm-3.662-1.143a3.29,3.29,0,0,0,2.378-.83A3.071,3.071,0,0,0,103.7,43.7v-.967l-1.621.068a5.9,5.9,0,0,0-2.788.6,1.811,1.811,0,0,0-.854,1.655,1.67,1.67,0,0,0,.532,1.338A2.209,2.209,0,0,0,100.454,46.857Zm21.7-2.656a3.5,3.5,0,0,1-1.367,2.939,5.928,5.928,0,0,1-3.711,1.055,9.3,9.3,0,0,1-3.906-.654v-1.6a10.285,10.285,0,0,0,1.914.586,10.07,10.07,0,0,0,2.051.215,4.138,4.138,0,0,0,2.5-.63,2.067,2.067,0,0,0,.84-1.753,2.25,2.25,0,0,0-.3-1.216,2.767,2.767,0,0,0-1-.874,13.935,13.935,0,0,0-2.124-.908,6.78,6.78,0,0,1-2.847-1.689,3.73,3.73,0,0,1-.854-2.549,3.17,3.17,0,0,1,1.24-2.627,5.154,5.154,0,0,1,3.281-.977,9.67,9.67,0,0,1,3.916.781l-.518,1.445A8.85,8.85,0,0,0,117.837,35a3.327,3.327,0,0,0-2.061.566,1.867,1.867,0,0,0-.742,1.572,2.41,2.41,0,0,0,.273,1.216,2.574,2.574,0,0,0,.923.869,11.466,11.466,0,0,0,1.987.874,7.868,7.868,0,0,1,3.091,1.719A3.38,3.38,0,0,1,122.153,44.2Zm7.2,3.994a4.917,4.917,0,0,1-3.745-1.445,5.6,5.6,0,0,1-1.372-4.014,6.205,6.205,0,0,1,1.274-4.111,4.233,4.233,0,0,1,3.423-1.523,4.036,4.036,0,0,1,3.184,1.323,5.072,5.072,0,0,1,1.172,3.491v1.025h-7.373a4.243,4.243,0,0,0,.952,2.861,3.293,3.293,0,0,0,2.544.977,8.621,8.621,0,0,0,3.418-.723V47.5a8.579,8.579,0,0,1-1.626.532A9.138,9.138,0,0,1,129.351,48.2Zm-.439-9.736a2.647,2.647,0,0,0-2.056.84,3.871,3.871,0,0,0-.9,2.324h5.6a3.564,3.564,0,0,0-.684-2.349A2.406,2.406,0,0,0,128.911,38.459ZM143.374,48V41.076a2.793,2.793,0,0,0-.6-1.953,2.427,2.427,0,0,0-1.865-.645,3.076,3.076,0,0,0-2.461.908,4.585,4.585,0,0,0-.781,3V48H136.05V37.3h1.318l.264,1.465h.078a3.31,3.31,0,0,1,1.4-1.226,4.537,4.537,0,0,1,2-.435,4.065,4.065,0,0,1,2.91.933A3.969,3.969,0,0,1,145,41.018V48Zm11.533,0-.322-1.523h-.078a4.5,4.5,0,0,1-1.6,1.362,4.867,4.867,0,0,1-1.987.356,3.575,3.575,0,0,1-2.5-.82,2.992,2.992,0,0,1-.9-2.334q0-3.242,5.186-3.4l1.816-.059V40.92a2.714,2.714,0,0,0-.542-1.86,2.229,2.229,0,0,0-1.733-.6,7.063,7.063,0,0,0-3.027.82l-.5-1.24a7.618,7.618,0,0,1,1.733-.674,7.507,7.507,0,0,1,1.89-.244,4.077,4.077,0,0,1,2.837.85,3.546,3.546,0,0,1,.923,2.725V48Zm-3.662-1.143a3.29,3.29,0,0,0,2.378-.83,3.071,3.071,0,0,0,.864-2.324v-.967l-1.621.068a5.9,5.9,0,0,0-2.788.6,1.811,1.811,0,0,0-.854,1.655,1.67,1.67,0,0,0,.532,1.338A2.209,2.209,0,0,0,151.245,46.857Z" transform="translate(9016 -2056)" fill="#00223d"/>
    <path id="Trazado_24205" data-name="Trazado 24205" d="M62.1,17.035a3.691,3.691,0,0,1-1.392,3.047A6.045,6.045,0,0,1,56.841,21.2a9.094,9.094,0,0,1-4.043-.859V17.523a16.661,16.661,0,0,0,2.446.908,7.239,7.239,0,0,0,1.831.264,2.6,2.6,0,0,0,1.528-.381,1.3,1.3,0,0,0,.532-1.133,1.251,1.251,0,0,0-.234-.747,2.623,2.623,0,0,0-.688-.63,17.707,17.707,0,0,0-1.851-.967A8.771,8.771,0,0,1,54.4,13.656a4.436,4.436,0,0,1-1.045-1.318,3.762,3.762,0,0,1-.391-1.758A3.69,3.69,0,0,1,54.248,7.6,5.336,5.336,0,0,1,57.8,6.518a8.383,8.383,0,0,1,2.124.264,14.6,14.6,0,0,1,2.114.742L61.06,9.877a14.288,14.288,0,0,0-1.89-.654,6.082,6.082,0,0,0-1.47-.186,1.946,1.946,0,0,0-1.318.4,1.321,1.321,0,0,0-.459,1.045,1.293,1.293,0,0,0,.186.7,2.04,2.04,0,0,0,.591.576,18.268,18.268,0,0,0,1.919,1,7.635,7.635,0,0,1,2.744,1.919A3.745,3.745,0,0,1,62.1,17.035ZM67.437,21H64.458V10.082h2.979ZM64.312,8.881V8.617a27.5,27.5,0,0,0,2.295-2.939h3.34v.205q-.508.508-1.733,1.509T66.294,8.881ZM80.337,21H77.358V14.623a3.212,3.212,0,0,0-.4-1.772,1.391,1.391,0,0,0-1.245-.591,1.8,1.8,0,0,0-1.66.84,5.509,5.509,0,0,0-.518,2.764V21H70.562V10.082h2.275l.4,1.4H73.4a3.026,3.026,0,0,1,1.27-1.177,4.122,4.122,0,0,1,1.9-.425,3.43,3.43,0,0,1,3.32,1.6h.264A2.95,2.95,0,0,1,81.455,10.3a4.315,4.315,0,0,1,1.929-.42,3.807,3.807,0,0,1,2.808.952,4.181,4.181,0,0,1,.952,3.052V21H84.155V14.623a3.212,3.212,0,0,0-.4-1.772,1.391,1.391,0,0,0-1.245-.591,1.858,1.858,0,0,0-1.636.781,4.433,4.433,0,0,0-.542,2.48ZM96.274,9.877A3.532,3.532,0,0,1,99.3,11.386a6.923,6.923,0,0,1,1.094,4.136,6.8,6.8,0,0,1-1.128,4.189,3.939,3.939,0,0,1-6.089.088h-.205l-.5,1.2H90.2V5.8h2.979V9.34q0,.674-.117,2.158h.117A3.446,3.446,0,0,1,96.274,9.877Zm-.957,2.383a1.881,1.881,0,0,0-1.611.679,3.9,3.9,0,0,0-.527,2.241V15.5a4.6,4.6,0,0,0,.522,2.52,1.865,1.865,0,0,0,1.655.762,1.661,1.661,0,0,0,1.46-.845,4.572,4.572,0,0,0,.542-2.456,4.332,4.332,0,0,0-.547-2.417A1.715,1.715,0,0,0,95.317,12.26Zm9.912,3.262a4.582,4.582,0,0,0,.532,2.451,1.9,1.9,0,0,0,1.733.83,1.873,1.873,0,0,0,1.714-.825,4.648,4.648,0,0,0,.522-2.456,4.51,4.51,0,0,0-.527-2.432,2.242,2.242,0,0,0-3.447,0A4.506,4.506,0,0,0,105.229,15.521Zm7.549,0a5.867,5.867,0,0,1-1.406,4.17,5.1,5.1,0,0,1-3.916,1.5,5.478,5.478,0,0,1-2.773-.688,4.581,4.581,0,0,1-1.846-1.978,6.645,6.645,0,0,1-.645-3.008,5.835,5.835,0,0,1,1.4-4.16,5.128,5.128,0,0,1,3.926-1.484,5.509,5.509,0,0,1,2.773.684,4.563,4.563,0,0,1,1.846,1.963A6.584,6.584,0,0,1,112.778,15.521ZM118.218,21h-2.979V5.8h2.979Zm5.5-5.479a4.582,4.582,0,0,0,.532,2.451,1.9,1.9,0,0,0,1.733.83,1.873,1.873,0,0,0,1.714-.825,4.648,4.648,0,0,0,.522-2.456,4.51,4.51,0,0,0-.527-2.432,2.242,2.242,0,0,0-3.447,0A4.506,4.506,0,0,0,123.716,15.521Zm7.549,0a5.867,5.867,0,0,1-1.406,4.17,5.1,5.1,0,0,1-3.916,1.5,5.478,5.478,0,0,1-2.773-.688,4.581,4.581,0,0,1-1.846-1.978,6.645,6.645,0,0,1-.645-3.008,5.835,5.835,0,0,1,1.4-4.16A5.128,5.128,0,0,1,126,9.877a5.509,5.509,0,0,1,2.773.684,4.563,4.563,0,0,1,1.846,1.963A6.584,6.584,0,0,1,131.265,15.521ZM141.519,21l-4.16-10.918h3.115l2.109,6.221a11.1,11.1,0,0,1,.439,2.236h.059a9.724,9.724,0,0,1,.439-2.236l2.1-6.221h3.115L144.575,21Zm15.713,0-.576-1.484h-.078a4.4,4.4,0,0,1-1.548,1.313,5,5,0,0,1-2.075.366,3.356,3.356,0,0,1-2.476-.9,3.45,3.45,0,0,1-.9-2.559,2.881,2.881,0,0,1,1.216-2.563,7.045,7.045,0,0,1,3.667-.913l1.895-.059v-.479a1.485,1.485,0,0,0-1.7-1.66,7.743,7.743,0,0,0-3.076.791l-.986-2.012a8.876,8.876,0,0,1,4.18-.986,5.206,5.206,0,0,1,3.369.957,3.537,3.537,0,0,1,1.172,2.91V21Zm-.879-5.059-1.152.039a3.69,3.69,0,0,0-1.934.469,1.472,1.472,0,0,0-.635,1.309q0,1.26,1.445,1.26a2.289,2.289,0,0,0,1.655-.6,2.092,2.092,0,0,0,.62-1.582Zm12.119-6.064a4.8,4.8,0,0,1,1.006.088l-.225,2.793a3.412,3.412,0,0,0-.879-.1,3.159,3.159,0,0,0-2.222.732,2.648,2.648,0,0,0-.8,2.051V21h-2.979V10.082h2.256l.439,1.836h.146a4.1,4.1,0,0,1,1.372-1.479A3.383,3.383,0,0,1,168.472,9.877Zm2.861-2.617q0-1.455,1.621-1.455t1.621,1.455a1.419,1.419,0,0,1-.405,1.079,1.7,1.7,0,0,1-1.216.386Q171.333,8.725,171.333,7.26ZM174.438,21H171.46V10.082h2.979ZM184.5,21l-.576-1.484h-.078a4.4,4.4,0,0,1-1.548,1.313,5,5,0,0,1-2.075.366,3.356,3.356,0,0,1-2.476-.9,3.45,3.45,0,0,1-.9-2.559,2.881,2.881,0,0,1,1.216-2.563,7.045,7.045,0,0,1,3.667-.913l1.895-.059v-.479a1.485,1.485,0,0,0-1.7-1.66,7.743,7.743,0,0,0-3.076.791l-.986-2.012a8.876,8.876,0,0,1,4.18-.986,5.206,5.206,0,0,1,3.369.957,3.537,3.537,0,0,1,1.172,2.91V21Zm-.879-5.059-1.152.039a3.69,3.69,0,0,0-1.934.469,1.472,1.472,0,0,0-.635,1.309q0,1.26,1.445,1.26a2.289,2.289,0,0,0,1.655-.6,2.092,2.092,0,0,0,.62-1.582ZM193.1,21.2a3.546,3.546,0,0,1-3.022-1.494,6.869,6.869,0,0,1-1.1-4.141,6.876,6.876,0,0,1,1.118-4.185,3.632,3.632,0,0,1,3.081-1.5,3.562,3.562,0,0,1,3.145,1.6h.1A12.177,12.177,0,0,1,196.2,9.3V5.8h2.988V21H196.9l-.576-1.416H196.2A3.408,3.408,0,0,1,193.1,21.2Zm1.045-2.373a2.018,2.018,0,0,0,1.675-.664A3.863,3.863,0,0,0,196.4,15.9V15.58a4.464,4.464,0,0,0-.542-2.52A2.013,2.013,0,0,0,194.1,12.3a1.748,1.748,0,0,0-1.548.845A4.507,4.507,0,0,0,192,15.6a4.271,4.271,0,0,0,.557,2.417A1.819,1.819,0,0,0,194.146,18.822Zm10.527-3.3a4.582,4.582,0,0,0,.532,2.451,1.9,1.9,0,0,0,1.733.83,1.873,1.873,0,0,0,1.714-.825,4.648,4.648,0,0,0,.522-2.456,4.51,4.51,0,0,0-.527-2.432,2.242,2.242,0,0,0-3.447,0A4.506,4.506,0,0,0,204.673,15.521Zm7.549,0a5.867,5.867,0,0,1-1.406,4.17,5.1,5.1,0,0,1-3.916,1.5,5.478,5.478,0,0,1-2.773-.688,4.581,4.581,0,0,1-1.846-1.978,6.645,6.645,0,0,1-.645-3.008,5.835,5.835,0,0,1,1.4-4.16,5.128,5.128,0,0,1,3.926-1.484,5.509,5.509,0,0,1,2.773.684,4.563,4.563,0,0,1,1.846,1.963A6.584,6.584,0,0,1,212.222,15.521Z" transform="translate(8968 -2380)" fill="#00223d"/>
    <g id="Grupo_14154" data-name="Grupo 14154" transform="translate(4392.34 -2474.581)">
      <path id="Trazado_20715" data-name="Trazado 20715" d="M4724.468,213.437a18.8,18.8,0,1,1-18.8-18.8A18.8,18.8,0,0,1,4724.468,213.437Z" transform="translate(3.991)" fill="#ff7f00"/>
      <g id="Grupo_13624" data-name="Grupo 13624" transform="translate(4627.874 236.157)">
        <path id="Trazado_20716" data-name="Trazado 20716" d="M4650.061,241.464a2.518,2.518,0,0,0-1.847-1.679,10.7,10.7,0,0,0-3.315-.445c-2.824,0-4.073.514-4.073,1.4,0,3.7,22.49,1.4,22.49,10.379,0,5.72-7.552,8.494-18.308,8.494-10.322,0-17.06-3.8-17.329-8.255h12.276a3.216,3.216,0,0,0,2.119,1.953,10.367,10.367,0,0,0,3.639.616c3.207,0,5.324-.65,5.324-1.815,0-3.734-22.491-1.164-22.491-10.584,0-5.24,7.171-7.878,16.949-7.878,10.865,0,15.81,3.494,16.733,7.81Z" transform="translate(-4627.68 -233.654)" fill="#ff7f00"/>
        <path id="Trazado_20717" data-name="Trazado 20717" d="M4666.733,258.928V234.265h31.89v5.755h-19.069v3.529h16.134V249.3h-16.134v3.87h19.829v5.755Z" transform="translate(-4625.175 -233.615)" fill="#ff7f00"/>
        <path id="Trazado_20718" data-name="Trazado 20718" d="M4729.2,247.727l-.489-5.619v-7.844h12.278v24.663h-12.007L4715.022,245.5l.489,5.618v7.81h-12.278V234.265h12.006Z" transform="translate(-4622.834 -233.615)" fill="#ff7f00"/>
        <path id="Trazado_20719" data-name="Trazado 20719" d="M4742.8,258.928l14.017-24.663h13.037l14.017,24.663H4771.1l-1.523-3.254h-12.764l-1.469,3.254Zm20.427-17.23-3.967,8.838h8.095Z" transform="translate(-4620.296 -233.615)" fill="#ff7f00"/>
      </g>
      <g id="Grupo_13625" data-name="Grupo 13625" transform="translate(4624.66 266.841)">
        <path id="Trazado_20720" data-name="Trazado 20720" d="M4788.795,262.488H4710.41l45.627,81.03,10.06-8.761L4729.6,273.8l59.563-.148Z" transform="translate(-4619.159 -262.488)" fill="#ff7f00"/>
        <path id="Trazado_20721" data-name="Trazado 20721" d="M4625.024,262.488h78.385l-45.626,81.03-10.061-8.761,36.5-60.954-59.562-.148Z" transform="translate(-4624.66 -262.488)" fill="#ff7f00"/>
        <path id="Trazado_20722" data-name="Trazado 20722" d="M4663.992,349.195l42.784-73.82,44,73.1-11.618,5.245-31.407-56.142-33.426,56.811Z" transform="translate(-4622.138 -261.662)" fill="#ff7f00"/>
      </g>
    </g>
  </g>
</svg>
