<svg xmlns="http://www.w3.org/2000/svg" width="265" height="265" viewBox="0 0 265 265">
  <g id="Grupo_14195" data-name="Grupo 14195" transform="translate(-15314 2226)">
    <circle id="Elipse_870" data-name="Elipse 870" cx="132.5" cy="132.5" r="132.5" transform="translate(15314 -2226)" fill="#9d7847"/>
    <path id="Trazado_22616" data-name="Trazado 22616" d="M3675.8,5153.58l-3.25-8.562h1.39l1.844,5.078q.625,1.781.735,2.312h.062a17.614,17.614,0,0,1,.543-1.715q.457-1.3,2.051-5.675h1.39l-3.25,8.562Z" transform="translate(11654.865 -7239.473)"/>
    <path id="Trazado_22617" data-name="Trazado 22617" d="M3685.557,5153.736a3.931,3.931,0,0,1-3-1.156,4.475,4.475,0,0,1-1.1-3.211,4.969,4.969,0,0,1,1.019-3.289,3.39,3.39,0,0,1,2.739-1.219,3.229,3.229,0,0,1,2.547,1.059,4.058,4.058,0,0,1,.937,2.793v.82h-5.9a3.4,3.4,0,0,0,.761,2.289,2.636,2.636,0,0,0,2.036.782,6.885,6.885,0,0,0,2.734-.579v1.157a6.858,6.858,0,0,1-1.3.425A7.31,7.31,0,0,1,3685.557,5153.736Zm-.352-7.789a2.117,2.117,0,0,0-1.644.672,3.09,3.09,0,0,0-.723,1.86h4.476a2.853,2.853,0,0,0-.546-1.879A1.927,1.927,0,0,0,3685.205,5145.947Z" transform="translate(11654.865 -7239.473)"/>
    <path id="Trazado_22618" data-name="Trazado 22618" d="M3696.775,5153.58v-5.539a2.235,2.235,0,0,0-.476-1.562,1.942,1.942,0,0,0-1.492-.516,2.463,2.463,0,0,0-1.969.726,3.67,3.67,0,0,0-.625,2.4v4.492h-1.3v-8.562h1.055l.211,1.171h.062a2.652,2.652,0,0,1,1.117-.98,3.644,3.644,0,0,1,1.6-.348,3.253,3.253,0,0,1,2.328.746,3.175,3.175,0,0,1,.781,2.387v5.586Z" transform="translate(11654.865 -7239.473)"/>
    <path id="Trazado_22619" data-name="Trazado 22619" d="M3703.5,5152.666a4.263,4.263,0,0,0,.664-.051,4.426,4.426,0,0,0,.508-.105v.992a2.4,2.4,0,0,1-.621.168,4.709,4.709,0,0,1-.739.066q-2.484,0-2.484-2.617v-5.094H3699.6v-.625l1.226-.539.547-1.828h.75v1.985h2.484v1.007h-2.484v5.039a1.733,1.733,0,0,0,.367,1.188A1.279,1.279,0,0,0,3703.5,5152.666Z" transform="translate(11654.865 -7239.473)"/>
    <path id="Trazado_22620" data-name="Trazado 22620" d="M3711.65,5153.58l-.257-1.219h-.063a3.6,3.6,0,0,1-1.277,1.09,3.881,3.881,0,0,1-1.59.285,2.855,2.855,0,0,1-2-.656,2.391,2.391,0,0,1-.723-1.867q0-2.595,4.149-2.719l1.453-.047v-.531a2.17,2.17,0,0,0-.434-1.488,1.78,1.78,0,0,0-1.387-.481,5.644,5.644,0,0,0-2.421.657l-.4-.993a6.105,6.105,0,0,1,1.387-.539,6.026,6.026,0,0,1,1.512-.195,3.261,3.261,0,0,1,2.269.68,2.835,2.835,0,0,1,.738,2.179v5.844Zm-2.929-.914a2.635,2.635,0,0,0,1.9-.664,2.455,2.455,0,0,0,.691-1.859v-.774l-1.3.055a4.716,4.716,0,0,0-2.231.48,1.45,1.45,0,0,0-.683,1.325,1.335,1.335,0,0,0,.425,1.07A1.766,1.766,0,0,0,3708.721,5152.666Z" transform="translate(11654.865 -7239.473)"/>
    <path id="Trazado_22621" data-name="Trazado 22621" d="M3725.268,5152.432h-.071a3.046,3.046,0,0,1-2.687,1.3,3.179,3.179,0,0,1-2.614-1.148,5.06,5.06,0,0,1-.933-3.266,5.14,5.14,0,0,1,.937-3.289,3.157,3.157,0,0,1,2.61-1.172,3.115,3.115,0,0,1,2.672,1.266h.1l-.054-.617-.032-.6v-3.484h1.3v12.156h-1.055Zm-2.594.218a2.364,2.364,0,0,0,1.926-.722,3.657,3.657,0,0,0,.6-2.332v-.274a4.3,4.3,0,0,0-.6-2.6,2.3,2.3,0,0,0-1.934-.778,1.984,1.984,0,0,0-1.746.887,4.413,4.413,0,0,0-.605,2.5,4.225,4.225,0,0,0,.6,2.476A2.036,2.036,0,0,0,3722.674,5152.65Z" transform="translate(11654.865 -7239.473)"/>
    <path id="Trazado_22622" data-name="Trazado 22622" d="M3732.861,5153.736a3.934,3.934,0,0,1-3-1.156,4.478,4.478,0,0,1-1.1-3.211,4.962,4.962,0,0,1,1.019-3.289,3.389,3.389,0,0,1,2.738-1.219,3.227,3.227,0,0,1,2.547,1.059,4.059,4.059,0,0,1,.938,2.793v.82h-5.9a3.4,3.4,0,0,0,.762,2.289,2.633,2.633,0,0,0,2.035.782,6.89,6.89,0,0,0,2.735-.579v1.157a6.86,6.86,0,0,1-1.3.425A7.317,7.317,0,0,1,3732.861,5153.736Zm-.351-7.789a2.118,2.118,0,0,0-1.645.672,3.1,3.1,0,0,0-.722,1.86h4.476a2.847,2.847,0,0,0-.547-1.879A1.923,1.923,0,0,0,3732.51,5145.947Z" transform="translate(11654.865 -7239.473)"/>
    <path id="Trazado_22623" data-name="Trazado 22623" d="M3747.9,5151.244a2.145,2.145,0,0,1-.89,1.844,4.181,4.181,0,0,1-2.5.648,5.421,5.421,0,0,1-2.656-.539v-1.2a6.405,6.405,0,0,0,1.324.492,5.514,5.514,0,0,0,1.363.18,3.093,3.093,0,0,0,1.563-.324,1.117,1.117,0,0,0,.113-1.844,6.818,6.818,0,0,0-1.692-.84,9.185,9.185,0,0,1-1.7-.777,2.324,2.324,0,0,1-.75-.754,1.967,1.967,0,0,1-.246-1.008,1.92,1.92,0,0,1,.852-1.652,3.966,3.966,0,0,1,2.336-.606,6.837,6.837,0,0,1,2.7.563l-.461,1.055a6.2,6.2,0,0,0-2.336-.532,2.7,2.7,0,0,0-1.391.289.9.9,0,0,0-.469.8.97.97,0,0,0,.176.586,1.729,1.729,0,0,0,.567.461,12.54,12.54,0,0,0,1.5.633,5.6,5.6,0,0,1,2.058,1.117A1.97,1.97,0,0,1,3747.9,5151.244Z" transform="translate(11654.865 -7239.473)"/>
    <path id="Trazado_22624" data-name="Trazado 22624" d="M3753.627,5153.736a3.931,3.931,0,0,1-3-1.156,4.474,4.474,0,0,1-1.1-3.211,4.964,4.964,0,0,1,1.02-3.289,3.388,3.388,0,0,1,2.738-1.219,3.228,3.228,0,0,1,2.547,1.059,4.058,4.058,0,0,1,.937,2.793v.82h-5.9a3.391,3.391,0,0,0,.762,2.289,2.634,2.634,0,0,0,2.035.782,6.881,6.881,0,0,0,2.734-.579v1.157a6.832,6.832,0,0,1-1.3.425A7.305,7.305,0,0,1,3753.627,5153.736Zm-.352-7.789a2.116,2.116,0,0,0-1.644.672,3.1,3.1,0,0,0-.723,1.86h4.477a2.853,2.853,0,0,0-.547-1.879A1.925,1.925,0,0,0,3753.275,5145.947Z" transform="translate(11654.865 -7239.473)"/>
    <path id="Trazado_22625" data-name="Trazado 22625" d="M3762.893,5144.861a5.112,5.112,0,0,1,1.023.094l-.18,1.2a4.418,4.418,0,0,0-.937-.117,2.282,2.282,0,0,0-1.778.844,3.075,3.075,0,0,0-.738,2.1v4.594h-1.3v-8.562h1.071l.148,1.586h.063a3.751,3.751,0,0,1,1.148-1.29A2.6,2.6,0,0,1,3762.893,5144.861Z" transform="translate(11654.865 -7239.473)"/>
    <path id="Trazado_22626" data-name="Trazado 22626" d="M3767.393,5153.58l-3.25-8.562h1.39l1.844,5.078a23.91,23.91,0,0,1,.734,2.312h.063a17.33,17.33,0,0,1,.543-1.715q.456-1.3,2.051-5.675h1.39l-3.25,8.562Z" transform="translate(11654.865 -7239.473)"/>
    <path id="Trazado_22627" data-name="Trazado 22627" d="M3773.424,5142.7a.86.86,0,0,1,.219-.652.81.81,0,0,1,1.086,0,.844.844,0,0,1,.226.648.863.863,0,0,1-.226.653.761.761,0,0,1-.54.214.747.747,0,0,1-.546-.214A.88.88,0,0,1,3773.424,5142.7Zm1.406,10.883h-1.3v-8.562h1.3Z" transform="translate(11654.865 -7239.473)"/>
    <path id="Trazado_22628" data-name="Trazado 22628" d="M3781,5153.736a3.658,3.658,0,0,1-2.879-1.144,4.7,4.7,0,0,1-1.019-3.238,4.848,4.848,0,0,1,1.035-3.321,3.727,3.727,0,0,1,2.949-1.172,5.8,5.8,0,0,1,1.234.133,4.072,4.072,0,0,1,.969.313l-.4,1.1a6.115,6.115,0,0,0-.938-.285,4.212,4.212,0,0,0-.9-.113q-2.61,0-2.61,3.328a3.96,3.96,0,0,0,.637,2.422,2.218,2.218,0,0,0,1.887.844,5.768,5.768,0,0,0,2.2-.461v1.148A4.678,4.678,0,0,1,3781,5153.736Z" transform="translate(11654.865 -7239.473)"/>
    <path id="Trazado_22629" data-name="Trazado 22629" d="M3785.088,5142.7a.86.86,0,0,1,.219-.652.81.81,0,0,1,1.086,0,.844.844,0,0,1,.226.648.863.863,0,0,1-.226.653.759.759,0,0,1-.539.214.748.748,0,0,1-.547-.214A.88.88,0,0,1,3785.088,5142.7Zm1.406,10.883h-1.3v-8.562h1.3Z" transform="translate(11654.865 -7239.473)"/>
    <path id="Trazado_22630" data-name="Trazado 22630" d="M3796.635,5149.291a4.728,4.728,0,0,1-1.055,3.27,3.714,3.714,0,0,1-2.914,1.175,3.85,3.85,0,0,1-2.039-.539,3.554,3.554,0,0,1-1.375-1.547,5.385,5.385,0,0,1-.484-2.359,4.719,4.719,0,0,1,1.046-3.262,3.708,3.708,0,0,1,2.907-1.168,3.62,3.62,0,0,1,2.855,1.2A4.7,4.7,0,0,1,3796.635,5149.291Zm-6.524,0a4.062,4.062,0,0,0,.657,2.5,2.605,2.605,0,0,0,3.863,0,4.043,4.043,0,0,0,.66-2.5,3.977,3.977,0,0,0-.66-2.48,2.319,2.319,0,0,0-1.949-.848,2.281,2.281,0,0,0-1.922.836A4.018,4.018,0,0,0,3790.111,5149.291Z" transform="translate(11654.865 -7239.473)"/>
    <path id="Trazado_22631" data-name="Trazado 22631" d="M3804.432,5151.244a2.145,2.145,0,0,1-.891,1.844,4.181,4.181,0,0,1-2.5.648,5.424,5.424,0,0,1-2.656-.539v-1.2a6.405,6.405,0,0,0,1.324.492,5.52,5.52,0,0,0,1.363.18,3.091,3.091,0,0,0,1.563-.324,1.116,1.116,0,0,0,.113-1.844,6.807,6.807,0,0,0-1.691-.84,9.17,9.17,0,0,1-1.7-.777,2.324,2.324,0,0,1-.75-.754,1.967,1.967,0,0,1-.246-1.008,1.922,1.922,0,0,1,.852-1.652,3.968,3.968,0,0,1,2.336-.606,6.833,6.833,0,0,1,2.7.563l-.461,1.055a6.191,6.191,0,0,0-2.336-.532,2.7,2.7,0,0,0-1.391.289.9.9,0,0,0-.468.8.969.969,0,0,0,.175.586,1.739,1.739,0,0,0,.567.461,12.726,12.726,0,0,0,1.5.633,5.594,5.594,0,0,1,2.058,1.117A1.971,1.971,0,0,1,3804.432,5151.244Z" transform="translate(11654.865 -7239.473)"/>
    <path id="Trazado_22632" data-name="Trazado 22632" d="M3815.963,5153.58l-.258-1.219h-.062a3.6,3.6,0,0,1-1.278,1.09,3.882,3.882,0,0,1-1.59.285,2.859,2.859,0,0,1-2-.656,2.394,2.394,0,0,1-.722-1.867q0-2.595,4.148-2.719l1.453-.047v-.531a2.17,2.17,0,0,0-.433-1.488,1.78,1.78,0,0,0-1.387-.481,5.644,5.644,0,0,0-2.422.657l-.4-.993a6.217,6.217,0,0,1,2.9-.734,3.264,3.264,0,0,1,2.27.68,2.835,2.835,0,0,1,.738,2.179v5.844Zm-2.93-.914a2.636,2.636,0,0,0,1.9-.664,2.459,2.459,0,0,0,.691-1.859v-.774l-1.3.055a4.715,4.715,0,0,0-2.23.48,1.45,1.45,0,0,0-.684,1.325,1.336,1.336,0,0,0,.426,1.07A1.763,1.763,0,0,0,3813.033,5152.666Z" transform="translate(11654.865 -7239.473)"/>
    <path id="Trazado_22633" data-name="Trazado 22633" d="M3827.174,5153.736a3.659,3.659,0,0,1-2.879-1.144,4.705,4.705,0,0,1-1.02-3.238,4.849,4.849,0,0,1,1.036-3.321,3.725,3.725,0,0,1,2.949-1.172,5.8,5.8,0,0,1,1.234.133,4.064,4.064,0,0,1,.969.313l-.4,1.1a6.053,6.053,0,0,0-.937-.285,4.208,4.208,0,0,0-.9-.113q-2.61,0-2.61,3.328a3.96,3.96,0,0,0,.637,2.422,2.218,2.218,0,0,0,1.887.844,5.772,5.772,0,0,0,2.195-.461v1.148A4.678,4.678,0,0,1,3827.174,5153.736Z" transform="translate(11654.865 -7239.473)"/>
    <path id="Trazado_22634" data-name="Trazado 22634" d="M3832.666,5153.58h-1.3v-12.156h1.3Z" transform="translate(11654.865 -7239.473)"/>
    <path id="Trazado_22635" data-name="Trazado 22635" d="M3840.682,5153.58l-.258-1.219h-.063a3.593,3.593,0,0,1-1.277,1.09,3.882,3.882,0,0,1-1.59.285,2.857,2.857,0,0,1-2-.656,2.4,2.4,0,0,1-.723-1.867q0-2.595,4.149-2.719l1.453-.047v-.531a2.17,2.17,0,0,0-.434-1.488,1.779,1.779,0,0,0-1.386-.481,5.644,5.644,0,0,0-2.422.657l-.4-.993a6.105,6.105,0,0,1,1.387-.539,6.024,6.024,0,0,1,1.512-.195,3.261,3.261,0,0,1,2.269.68,2.835,2.835,0,0,1,.739,2.179v5.844Zm-2.93-.914a2.634,2.634,0,0,0,1.9-.664,2.456,2.456,0,0,0,.692-1.859v-.774l-1.3.055a4.719,4.719,0,0,0-2.231.48,1.45,1.45,0,0,0-.683,1.325,1.332,1.332,0,0,0,.426,1.07A1.763,1.763,0,0,0,3837.752,5152.666Z" transform="translate(11654.865 -7239.473)"/>
    <path id="Trazado_22636" data-name="Trazado 22636" d="M3849.838,5151.244a2.145,2.145,0,0,1-.891,1.844,4.177,4.177,0,0,1-2.5.648,5.427,5.427,0,0,1-2.656-.539v-1.2a6.426,6.426,0,0,0,1.324.492,5.522,5.522,0,0,0,1.364.18,3.089,3.089,0,0,0,1.562-.324,1.116,1.116,0,0,0,.113-1.844,6.807,6.807,0,0,0-1.691-.84,9.154,9.154,0,0,1-1.7-.777,2.324,2.324,0,0,1-.75-.754,1.967,1.967,0,0,1-.246-1.008,1.922,1.922,0,0,1,.851-1.652,3.97,3.97,0,0,1,2.336-.606,6.833,6.833,0,0,1,2.7.563l-.461,1.055a6.187,6.187,0,0,0-2.336-.532,2.694,2.694,0,0,0-1.39.289.894.894,0,0,0-.469.8.97.97,0,0,0,.176.586,1.724,1.724,0,0,0,.566.461,12.688,12.688,0,0,0,1.5.633,5.609,5.609,0,0,1,2.059,1.117A1.974,1.974,0,0,1,3849.838,5151.244Z" transform="translate(11654.865 -7239.473)"/>
    <path id="Trazado_22637" data-name="Trazado 22637" d="M3855.564,5153.736a3.934,3.934,0,0,1-3-1.156,4.477,4.477,0,0,1-1.1-3.211,4.969,4.969,0,0,1,1.019-3.289,3.39,3.39,0,0,1,2.739-1.219,3.226,3.226,0,0,1,2.546,1.059,4.059,4.059,0,0,1,.938,2.793v.82h-5.9a3.4,3.4,0,0,0,.762,2.289,2.635,2.635,0,0,0,2.035.782,6.889,6.889,0,0,0,2.735-.579v1.157a6.854,6.854,0,0,1-1.3.425A7.309,7.309,0,0,1,3855.564,5153.736Zm-.351-7.789a2.118,2.118,0,0,0-1.645.672,3.1,3.1,0,0,0-.722,1.86h4.476a2.847,2.847,0,0,0-.547-1.879A1.923,1.923,0,0,0,3855.213,5145.947Z" transform="translate(11654.865 -7239.473)"/>
    <path id="Trazado_22638" data-name="Trazado 22638" d="M3866.447,5151.244a2.147,2.147,0,0,1-.89,1.844,4.181,4.181,0,0,1-2.5.648,5.428,5.428,0,0,1-2.657-.539v-1.2a6.437,6.437,0,0,0,1.325.492,5.506,5.506,0,0,0,1.363.18,3.087,3.087,0,0,0,1.562-.324,1.116,1.116,0,0,0,.114-1.844,6.815,6.815,0,0,0-1.692-.84,9.138,9.138,0,0,1-1.7-.777,2.324,2.324,0,0,1-.75-.754,1.965,1.965,0,0,1-.246-1.008,1.92,1.92,0,0,1,.852-1.652,3.963,3.963,0,0,1,2.335-.606,6.839,6.839,0,0,1,2.7.563l-.461,1.055a6.194,6.194,0,0,0-2.336-.532,2.7,2.7,0,0,0-1.391.289.9.9,0,0,0-.469.8.968.968,0,0,0,.176.586,1.729,1.729,0,0,0,.567.461,12.54,12.54,0,0,0,1.5.633,5.607,5.607,0,0,1,2.058,1.117A1.97,1.97,0,0,1,3866.447,5151.244Z" transform="translate(11654.865 -7239.473)"/>
    <path id="Trazado_22639" data-name="Trazado 22639" d="M3877.979,5153.58l-.258-1.219h-.063a3.6,3.6,0,0,1-1.277,1.09,3.882,3.882,0,0,1-1.59.285,2.856,2.856,0,0,1-2-.656,2.391,2.391,0,0,1-.723-1.867q0-2.595,4.149-2.719l1.453-.047v-.531a2.169,2.169,0,0,0-.434-1.488,1.779,1.779,0,0,0-1.386-.481,5.645,5.645,0,0,0-2.422.657l-.4-.993a6.11,6.11,0,0,1,1.387-.539,6.027,6.027,0,0,1,1.512-.195,3.261,3.261,0,0,1,2.269.68,2.834,2.834,0,0,1,.738,2.179v5.844Zm-2.93-.914a2.635,2.635,0,0,0,1.9-.664,2.455,2.455,0,0,0,.692-1.859v-.774l-1.3.055a4.717,4.717,0,0,0-2.231.48,1.45,1.45,0,0,0-.683,1.325,1.335,1.335,0,0,0,.425,1.07A1.769,1.769,0,0,0,3875.049,5152.666Z" transform="translate(11654.865 -7239.473)"/>
    <path id="Trazado_22640" data-name="Trazado 22640" d="M3882.908,5153.58h-1.3v-12.156h1.3Z" transform="translate(11654.865 -7239.473)"/>
    <path id="Trazado_22641" data-name="Trazado 22641" d="M3888.424,5152.666a4.258,4.258,0,0,0,.664-.051,4.415,4.415,0,0,0,.508-.105v.992a2.4,2.4,0,0,1-.621.168,4.711,4.711,0,0,1-.739.066q-2.484,0-2.484-2.617v-5.094h-1.227v-.625l1.227-.539.547-1.828h.75v1.985h2.484v1.007h-2.484v5.039a1.732,1.732,0,0,0,.367,1.188A1.279,1.279,0,0,0,3888.424,5152.666Z" transform="translate(11654.865 -7239.473)"/>
    <path id="Trazado_22642" data-name="Trazado 22642" d="M3896.572,5153.58l-.258-1.219h-.062a3.611,3.611,0,0,1-1.277,1.09,3.882,3.882,0,0,1-1.59.285,2.856,2.856,0,0,1-2-.656,2.391,2.391,0,0,1-.723-1.867q0-2.595,4.148-2.719l1.454-.047v-.531a2.169,2.169,0,0,0-.434-1.488,1.78,1.78,0,0,0-1.387-.481,5.649,5.649,0,0,0-2.422.657l-.4-.993a6.11,6.11,0,0,1,1.387-.539,6.025,6.025,0,0,1,1.511-.195,3.262,3.262,0,0,1,2.27.68,2.834,2.834,0,0,1,.738,2.179v5.844Zm-2.929-.914a2.635,2.635,0,0,0,1.9-.664,2.455,2.455,0,0,0,.691-1.859v-.774l-1.3.055a4.716,4.716,0,0,0-2.23.48,1.45,1.45,0,0,0-.684,1.325,1.336,1.336,0,0,0,.426,1.07A1.767,1.767,0,0,0,3893.643,5152.666Z" transform="translate(11654.865 -7239.473)"/>
    <path id="Trazado_22643" data-name="Trazado 22643" d="M3905.729,5151.244a2.146,2.146,0,0,1-.891,1.844,4.181,4.181,0,0,1-2.5.648,5.421,5.421,0,0,1-2.656-.539v-1.2a6.408,6.408,0,0,0,1.324.492,5.518,5.518,0,0,0,1.363.18,3.093,3.093,0,0,0,1.563-.324,1.116,1.116,0,0,0,.113-1.844,6.822,6.822,0,0,0-1.691-.84,9.154,9.154,0,0,1-1.7-.777,2.324,2.324,0,0,1-.75-.754,1.965,1.965,0,0,1-.246-1.008,1.92,1.92,0,0,1,.852-1.652,3.964,3.964,0,0,1,2.336-.606,6.834,6.834,0,0,1,2.7.563l-.461,1.055a6.19,6.19,0,0,0-2.336-.532,2.7,2.7,0,0,0-1.391.289.9.9,0,0,0-.468.8.968.968,0,0,0,.175.586,1.739,1.739,0,0,0,.567.461,12.688,12.688,0,0,0,1.5.633,5.607,5.607,0,0,1,2.058,1.117A1.971,1.971,0,0,1,3905.729,5151.244Z" transform="translate(11654.865 -7239.473)"/>
    <path id="Trazado_22644" data-name="Trazado 22644" d="M3907.65,5152.752a1.159,1.159,0,0,1,.239-.793.862.862,0,0,1,.683-.27.922.922,0,0,1,.707.27,1.118,1.118,0,0,1,.254.793,1.094,1.094,0,0,1-.258.781.917.917,0,0,1-.7.274.926.926,0,0,1-.66-.246A1.07,1.07,0,0,1,3907.65,5152.752Z" transform="translate(11654.865 -7239.473)"/>
    <path id="Trazado_22645" data-name="Trazado 22645" d="M3750.263,5098.034c-.145-2.593-.337-6.48-.288-9.888h-.1c-.527,3.408-1.392,7.44-1.824,9.408l-2.3,9.985h-5.377l-2.208-9.985c-.432-1.968-1.248-6-1.68-9.408h-.1c-.144,3.408-.384,7.295-.528,9.888l-.528,10.177h-6.288l2.5-32.355h7.776l2.065,10.369c.815,4.033,1.632,7.777,2.16,11.425h.1c.431-3.552,1.152-7.441,1.92-11.425l2.064-10.369h7.729l2.016,32.355h-6.577Z" transform="translate(11654.865 -7239.473)"/>
    <path id="Trazado_22646" data-name="Trazado 22646" d="M3778.63,5102.786a32.071,32.071,0,0,0,.384,5.425h-6.624l-.384-2.256h-.1a6.568,6.568,0,0,1-5.424,2.64c-3.745,0-6.481-3.12-6.481-7.345,0-6.336,5.761-8.832,11.09-8.881v-.431c0-1.3-1.2-2.3-3.121-2.3a9.636,9.636,0,0,0-5.184,1.439l-1.3-4.944a17.942,17.942,0,0,1,8.113-1.92c8.208,0,9.025,5.856,9.025,10.417Zm-7.3-5.76c-2.16.048-4.368.912-4.368,3.409,0,2.015,1.2,2.784,2.016,2.784a2.306,2.306,0,0,0,2.208-1.393,2.7,2.7,0,0,0,.144-.96Z" transform="translate(11654.865 -7239.473)"/>
    <path id="Trazado_22647" data-name="Trazado 22647" d="M3782.708,5092.13c0-2.5-.1-5.137-.192-7.537h6.384l.384,3.36h.193c1.151-2.64,3.023-3.744,4.559-3.744a6.559,6.559,0,0,1,1.585.144v7.3a8.4,8.4,0,0,0-1.633-.095,3.7,3.7,0,0,0-3.5,2.688,7.423,7.423,0,0,0-.336,2.447v11.522h-7.44Z" transform="translate(11654.865 -7239.473)"/>
    <path id="Trazado_22648" data-name="Trazado 22648" d="M3797.78,5092.13c0-2.5-.1-5.137-.192-7.537h6.385l.383,3.36h.193c1.151-2.64,3.023-3.744,4.559-3.744a6.554,6.554,0,0,1,1.585.144v7.3a8.4,8.4,0,0,0-1.632-.095,3.7,3.7,0,0,0-3.5,2.688,7.4,7.4,0,0,0-.336,2.447v11.522h-7.441Z" transform="translate(11654.865 -7239.473)"/>
    <path id="Trazado_22649" data-name="Trazado 22649" d="M3831.236,5096.306c0,10.129-5.952,12.289-9.505,12.289-6.24,0-9.6-4.7-9.6-12.1,0-8.4,4.7-12.289,9.649-12.289C3827.925,5084.209,3831.236,5089.2,3831.236,5096.306Zm-11.76.048c0,4.081.624,6.672,2.4,6.672,1.536,0,2.017-3.312,2.017-6.672,0-3.121-.481-6.577-2.113-6.577C3819.908,5089.777,3819.476,5093.233,3819.476,5096.354Zm9.457-21.362-4.753,6.817h-4.609l3.121-6.817Z" transform="translate(11654.865 -7239.473)"/>
    <path id="Trazado_22650" data-name="Trazado 22650" d="M3834.548,5092.13c0-2.5-.1-5.137-.193-7.537h6.385l.384,2.688h.1a7.058,7.058,0,0,1,5.856-3.072c4.993,0,6.529,4.08,6.529,9.169v14.833h-7.441v-14.594c0-1.632-.432-3.168-1.92-3.168a2.06,2.06,0,0,0-1.872,1.393,5.877,5.877,0,0,0-.384,2.208v14.161h-7.44Z" transform="translate(11654.865 -7239.473)"/>
  </g>
</svg>
