<svg xmlns="http://www.w3.org/2000/svg" width="265" height="265" viewBox="0 0 265 265">
  <g id="Grupo_14193" data-name="Grupo 14193" transform="translate(-14744 1932.653)">
    <circle id="Elipse_872" data-name="Elipse 872" cx="132.5" cy="132.5" r="132.5" transform="translate(14744 -1932.653)" fill="#dc2a0a"/>
    <path id="Trazado_22687" data-name="Trazado 22687" d="M3111.2,5447.083a3.7,3.7,0,0,1-1.527-.309,2.872,2.872,0,0,1-1.16-.949h-.094a11.579,11.579,0,0,1,.094,1.422v3.524h-1.3v-12.407h1.054l.18,1.172h.063a3,3,0,0,1,1.164-1.015,3.539,3.539,0,0,1,1.523-.313,3.165,3.165,0,0,1,2.629,1.164,6.2,6.2,0,0,1-.016,6.543A3.172,3.172,0,0,1,3111.2,5447.083Zm-.187-7.773a2.3,2.3,0,0,0-1.9.726,3.742,3.742,0,0,0-.6,2.313v.289a4.289,4.289,0,0,0,.6,2.582,2.291,2.291,0,0,0,1.93.777,2.009,2.009,0,0,0,1.738-.9,4.265,4.265,0,0,0,.629-2.477,4.1,4.1,0,0,0-.629-2.457A2.069,2.069,0,0,0,3111.014,5439.31Z" transform="translate(11654.865 -7239.473)" fill="#fff"/>
    <path id="Trazado_22688" data-name="Trazado 22688" d="M3120.928,5438.208a5.034,5.034,0,0,1,1.023.094l-.18,1.2a4.415,4.415,0,0,0-.937-.117,2.283,2.283,0,0,0-1.777.843,3.075,3.075,0,0,0-.739,2.1v4.594h-1.3v-8.563h1.071l.148,1.586h.063a3.755,3.755,0,0,1,1.148-1.289A2.587,2.587,0,0,1,3120.928,5438.208Z" transform="translate(11654.865 -7239.473)" fill="#fff"/>
    <path id="Trazado_22689" data-name="Trazado 22689" d="M3130.943,5442.638a4.724,4.724,0,0,1-1.054,3.269,3.715,3.715,0,0,1-2.914,1.176,3.861,3.861,0,0,1-2.039-.539,3.554,3.554,0,0,1-1.375-1.547,5.374,5.374,0,0,1-.485-2.359,4.715,4.715,0,0,1,1.047-3.262,3.705,3.705,0,0,1,2.906-1.168,3.622,3.622,0,0,1,2.856,1.195A4.7,4.7,0,0,1,3130.943,5442.638Zm-6.523,0a4.072,4.072,0,0,0,.656,2.5,2.605,2.605,0,0,0,3.863,0,4.042,4.042,0,0,0,.661-2.5,3.975,3.975,0,0,0-.661-2.481,2.317,2.317,0,0,0-1.949-.847,2.282,2.282,0,0,0-1.922.836A4.022,4.022,0,0,0,3124.42,5442.638Z" transform="translate(11654.865 -7239.473)" fill="#fff"/>
    <path id="Trazado_22690" data-name="Trazado 22690" d="M3139.045,5445.778h-.07a3.049,3.049,0,0,1-2.688,1.305,3.179,3.179,0,0,1-2.613-1.148,5.06,5.06,0,0,1-.934-3.266,5.141,5.141,0,0,1,.938-3.289,3.156,3.156,0,0,1,2.609-1.172,3.114,3.114,0,0,1,2.672,1.266h.1l-.055-.618-.031-.6v-3.484h1.3v12.156h-1.054Zm-2.594.219a2.36,2.36,0,0,0,1.926-.723,3.65,3.65,0,0,0,.6-2.332v-.273a4.3,4.3,0,0,0-.606-2.6,2.3,2.3,0,0,0-1.933-.777,1.986,1.986,0,0,0-1.747.887,4.409,4.409,0,0,0-.6,2.5,4.219,4.219,0,0,0,.6,2.476A2.034,2.034,0,0,0,3136.451,5446Z" transform="translate(11654.865 -7239.473)" fill="#fff"/>
    <path id="Trazado_22691" data-name="Trazado 22691" d="M3144.24,5438.364v5.555a2.229,2.229,0,0,0,.477,1.562,1.938,1.938,0,0,0,1.492.516,2.439,2.439,0,0,0,1.965-.734,3.709,3.709,0,0,0,.621-2.4v-4.5h1.3v8.563h-1.071l-.187-1.149h-.07a2.583,2.583,0,0,1-1.106.969,3.711,3.711,0,0,1-1.613.336,3.272,3.272,0,0,1-2.34-.742,3.159,3.159,0,0,1-.777-2.375v-5.6Z" transform="translate(11654.865 -7239.473)" fill="#fff"/>
    <path id="Trazado_22692" data-name="Trazado 22692" d="M3156.264,5447.083a3.652,3.652,0,0,1-2.879-1.145,4.7,4.7,0,0,1-1.02-3.238,4.854,4.854,0,0,1,1.035-3.32,3.731,3.731,0,0,1,2.95-1.172,5.827,5.827,0,0,1,1.234.133,4.129,4.129,0,0,1,.969.312l-.4,1.1a6.07,6.07,0,0,0-.937-.285,4.218,4.218,0,0,0-.9-.114q-2.609,0-2.609,3.329a3.957,3.957,0,0,0,.637,2.421,2.214,2.214,0,0,0,1.886.844,5.756,5.756,0,0,0,2.2-.461v1.149A4.681,4.681,0,0,1,3156.264,5447.083Z" transform="translate(11654.865 -7239.473)" fill="#fff"/>
    <path id="Trazado_22693" data-name="Trazado 22693" d="M3163.225,5446.013a4.2,4.2,0,0,0,.664-.051,4.086,4.086,0,0,0,.507-.106v.993a2.373,2.373,0,0,1-.621.168,4.685,4.685,0,0,1-.738.066q-2.484,0-2.484-2.617v-5.094h-1.227v-.625l1.227-.539.547-1.828h.75v1.984h2.484v1.008h-2.484v5.039a1.735,1.735,0,0,0,.367,1.188A1.279,1.279,0,0,0,3163.225,5446.013Z" transform="translate(11654.865 -7239.473)" fill="#fff"/>
    <path id="Trazado_22694" data-name="Trazado 22694" d="M3173.5,5442.638a4.725,4.725,0,0,1-1.055,3.269,3.714,3.714,0,0,1-2.914,1.176,3.866,3.866,0,0,1-2.039-.539,3.554,3.554,0,0,1-1.375-1.547,5.388,5.388,0,0,1-.484-2.359,4.711,4.711,0,0,1,1.047-3.262,3.705,3.705,0,0,1,2.906-1.168,3.621,3.621,0,0,1,2.855,1.195A4.7,4.7,0,0,1,3173.5,5442.638Zm-6.523,0a4.066,4.066,0,0,0,.656,2.5,2.605,2.605,0,0,0,3.863,0,4.041,4.041,0,0,0,.66-2.5,3.973,3.973,0,0,0-.66-2.481,2.318,2.318,0,0,0-1.949-.847,2.281,2.281,0,0,0-1.922.836A4.016,4.016,0,0,0,3166.975,5442.638Z" transform="translate(11654.865 -7239.473)" fill="#fff"/>
    <path id="Trazado_22695" data-name="Trazado 22695" d="M3181.295,5444.591a2.146,2.146,0,0,1-.891,1.844,4.184,4.184,0,0,1-2.5.648,5.443,5.443,0,0,1-2.656-.539v-1.2a6.456,6.456,0,0,0,1.324.492,5.522,5.522,0,0,0,1.364.18,3.093,3.093,0,0,0,1.562-.325,1.115,1.115,0,0,0,.113-1.843,6.769,6.769,0,0,0-1.691-.84,9.184,9.184,0,0,1-1.7-.777,2.334,2.334,0,0,1-.75-.754,1.972,1.972,0,0,1-.246-1.008,1.924,1.924,0,0,1,.851-1.653,3.977,3.977,0,0,1,2.336-.6,6.833,6.833,0,0,1,2.7.563l-.461,1.054a6.2,6.2,0,0,0-2.336-.531,2.694,2.694,0,0,0-1.39.289.892.892,0,0,0-.469.8.971.971,0,0,0,.176.586,1.73,1.73,0,0,0,.566.461,13.016,13.016,0,0,0,1.5.633,5.609,5.609,0,0,1,2.059,1.117A1.973,1.973,0,0,1,3181.295,5444.591Z" transform="translate(11654.865 -7239.473)" fill="#fff"/>
    <path id="Trazado_22696" data-name="Trazado 22696" d="M3192.826,5446.927l-.258-1.219h-.062a3.617,3.617,0,0,1-1.277,1.09,3.9,3.9,0,0,1-1.59.285,2.86,2.86,0,0,1-2-.656,2.392,2.392,0,0,1-.723-1.867q0-2.595,4.148-2.719l1.453-.047v-.531a2.175,2.175,0,0,0-.433-1.489,1.784,1.784,0,0,0-1.387-.48,5.659,5.659,0,0,0-2.422.656l-.4-.992a6.078,6.078,0,0,1,1.387-.539,6.017,6.017,0,0,1,1.511-.195,3.265,3.265,0,0,1,2.27.679,2.839,2.839,0,0,1,.738,2.18v5.844Zm-2.93-.914a2.637,2.637,0,0,0,1.9-.664,2.459,2.459,0,0,0,.691-1.86v-.773l-1.3.055a4.711,4.711,0,0,0-2.23.48,1.45,1.45,0,0,0-.684,1.324,1.338,1.338,0,0,0,.426,1.071A1.765,1.765,0,0,0,3189.9,5446.013Z" transform="translate(11654.865 -7239.473)" fill="#fff"/>
    <path id="Trazado_22697" data-name="Trazado 22697" d="M3197.756,5446.927h-1.3v-12.156h1.3Z" transform="translate(11654.865 -7239.473)" fill="#fff"/>
    <path id="Trazado_22698" data-name="Trazado 22698" d="M3200.4,5436.044a.861.861,0,0,1,.219-.652.81.81,0,0,1,1.086,0,.84.84,0,0,1,.227.648.853.853,0,0,1-.227.652.792.792,0,0,1-1.086,0A.878.878,0,0,1,3200.4,5436.044Zm1.407,10.883h-1.3v-8.563h1.3Z" transform="translate(11654.865 -7239.473)" fill="#fff"/>
    <path id="Trazado_22699" data-name="Trazado 22699" d="M3215.467,5446.927v-5.571a2.311,2.311,0,0,0-.438-1.535,1.694,1.694,0,0,0-1.359-.511,2.193,2.193,0,0,0-1.789.695,3.3,3.3,0,0,0-.578,2.141v4.781h-1.3v-5.571a2.311,2.311,0,0,0-.438-1.535,1.7,1.7,0,0,0-1.367-.511,2.118,2.118,0,0,0-1.785.73,3.952,3.952,0,0,0-.566,2.4v4.492h-1.3v-8.563h1.054l.211,1.172h.063a2.544,2.544,0,0,1,1.035-.976,3.157,3.157,0,0,1,1.5-.352,2.543,2.543,0,0,1,2.625,1.453h.063a2.717,2.717,0,0,1,1.109-1.062,3.431,3.431,0,0,1,1.656-.391,2.9,2.9,0,0,1,2.176.746,3.341,3.341,0,0,1,.723,2.387v5.586Z" transform="translate(11654.865 -7239.473)" fill="#fff"/>
    <path id="Trazado_22700" data-name="Trazado 22700" d="M3223.053,5447.083a3.936,3.936,0,0,1-3-1.156,4.475,4.475,0,0,1-1.1-3.211,4.963,4.963,0,0,1,1.02-3.289,3.383,3.383,0,0,1,2.738-1.219,3.228,3.228,0,0,1,2.547,1.059,4.056,4.056,0,0,1,.937,2.793v.82h-5.9a3.4,3.4,0,0,0,.761,2.289,2.64,2.64,0,0,0,2.036.781,6.892,6.892,0,0,0,2.734-.578v1.156a6.768,6.768,0,0,1-1.3.426A7.305,7.305,0,0,1,3223.053,5447.083Zm-.352-7.789a2.119,2.119,0,0,0-1.644.672,3.091,3.091,0,0,0-.723,1.859h4.477a2.857,2.857,0,0,0-.547-1.879A1.93,1.93,0,0,0,3222.7,5439.294Z" transform="translate(11654.865 -7239.473)" fill="#fff"/>
    <path id="Trazado_22701" data-name="Trazado 22701" d="M3234.271,5446.927v-5.539a2.237,2.237,0,0,0-.476-1.563,1.939,1.939,0,0,0-1.492-.515,2.462,2.462,0,0,0-1.969.726,3.667,3.667,0,0,0-.625,2.4v4.492h-1.3v-8.563h1.055l.211,1.172h.062a2.641,2.641,0,0,1,1.117-.98,3.631,3.631,0,0,1,1.6-.348,3.253,3.253,0,0,1,2.328.746,3.174,3.174,0,0,1,.781,2.387v5.586Z" transform="translate(11654.865 -7239.473)" fill="#fff"/>
    <path id="Trazado_22702" data-name="Trazado 22702" d="M3241,5446.013a4.2,4.2,0,0,0,.664-.051,4.112,4.112,0,0,0,.508-.106v.993a2.4,2.4,0,0,1-.621.168,4.71,4.71,0,0,1-.738.066q-2.485,0-2.485-2.617v-5.094H3237.1v-.625l1.226-.539.547-1.828h.75v1.984h2.484v1.008h-2.484v5.039a1.737,1.737,0,0,0,.367,1.188A1.279,1.279,0,0,0,3241,5446.013Z" transform="translate(11654.865 -7239.473)" fill="#fff"/>
    <path id="Trazado_22703" data-name="Trazado 22703" d="M3243.771,5436.044a.861.861,0,0,1,.219-.652.81.81,0,0,1,1.086,0,.84.84,0,0,1,.227.648.853.853,0,0,1-.227.652.792.792,0,0,1-1.086,0A.878.878,0,0,1,3243.771,5436.044Zm1.407,10.883h-1.3v-8.563h1.3Z" transform="translate(11654.865 -7239.473)" fill="#fff"/>
    <path id="Trazado_22704" data-name="Trazado 22704" d="M3251.35,5447.083a3.653,3.653,0,0,1-2.879-1.145,4.7,4.7,0,0,1-1.02-3.238,4.853,4.853,0,0,1,1.035-3.32,3.73,3.73,0,0,1,2.95-1.172,5.827,5.827,0,0,1,1.234.133,4.129,4.129,0,0,1,.969.312l-.4,1.1a6.053,6.053,0,0,0-.937-.285,4.216,4.216,0,0,0-.9-.114q-2.609,0-2.609,3.329a3.959,3.959,0,0,0,.637,2.421,2.213,2.213,0,0,0,1.886.844,5.755,5.755,0,0,0,2.2-.461v1.149A4.681,4.681,0,0,1,3251.35,5447.083Z" transform="translate(11654.865 -7239.473)" fill="#fff"/>
    <path id="Trazado_22705" data-name="Trazado 22705" d="M3255.436,5436.044a.861.861,0,0,1,.218-.652.81.81,0,0,1,1.086,0,.84.84,0,0,1,.227.648.853.853,0,0,1-.227.652.754.754,0,0,1-.539.215.746.746,0,0,1-.547-.215A.878.878,0,0,1,3255.436,5436.044Zm1.406,10.883h-1.3v-8.563h1.3Z" transform="translate(11654.865 -7239.473)" fill="#fff"/>
    <path id="Trazado_22706" data-name="Trazado 22706" d="M3266.982,5442.638a4.724,4.724,0,0,1-1.054,3.269,3.715,3.715,0,0,1-2.914,1.176,3.861,3.861,0,0,1-2.039-.539A3.554,3.554,0,0,1,3259.6,5445a5.371,5.371,0,0,1-.485-2.359,4.715,4.715,0,0,1,1.047-3.262,3.705,3.705,0,0,1,2.906-1.168,3.622,3.622,0,0,1,2.856,1.195A4.7,4.7,0,0,1,3266.982,5442.638Zm-6.523,0a4.072,4.072,0,0,0,.656,2.5,2.606,2.606,0,0,0,3.864,0,4.049,4.049,0,0,0,.66-2.5,3.981,3.981,0,0,0-.66-2.481,2.32,2.32,0,0,0-1.95-.847,2.283,2.283,0,0,0-1.922.836A4.024,4.024,0,0,0,3260.459,5442.638Z" transform="translate(11654.865 -7239.473)" fill="#fff"/>
    <path id="Trazado_22707" data-name="Trazado 22707" d="M3274.779,5444.591a2.148,2.148,0,0,1-.89,1.844,4.188,4.188,0,0,1-2.5.648,5.445,5.445,0,0,1-2.657-.539v-1.2a6.47,6.47,0,0,0,1.325.492,5.51,5.51,0,0,0,1.363.18,3.091,3.091,0,0,0,1.562-.325,1.116,1.116,0,0,0,.114-1.843,6.782,6.782,0,0,0-1.692-.84,9.177,9.177,0,0,1-1.7-.777,2.329,2.329,0,0,1-.75-.754,1.972,1.972,0,0,1-.246-1.008,1.922,1.922,0,0,1,.852-1.653,3.97,3.97,0,0,1,2.335-.6,6.839,6.839,0,0,1,2.7.563l-.461,1.054a6.21,6.21,0,0,0-2.336-.531,2.7,2.7,0,0,0-1.391.289.894.894,0,0,0-.469.8.971.971,0,0,0,.176.586,1.739,1.739,0,0,0,.567.461,12.86,12.86,0,0,0,1.5.633,5.6,5.6,0,0,1,2.058,1.117A1.968,1.968,0,0,1,3274.779,5444.591Z" transform="translate(11654.865 -7239.473)" fill="#fff"/>
    <path id="Trazado_22708" data-name="Trazado 22708" d="M3286.311,5446.927l-.258-1.219h-.063a3.609,3.609,0,0,1-1.277,1.09,3.9,3.9,0,0,1-1.59.285,2.86,2.86,0,0,1-2-.656,2.4,2.4,0,0,1-.723-1.867q0-2.595,4.149-2.719l1.453-.047v-.531a2.174,2.174,0,0,0-.434-1.489,1.784,1.784,0,0,0-1.386-.48,5.656,5.656,0,0,0-2.422.656l-.4-.992a6.087,6.087,0,0,1,1.387-.539,6.026,6.026,0,0,1,1.512-.195,3.264,3.264,0,0,1,2.269.679,2.839,2.839,0,0,1,.738,2.18v5.844Zm-2.93-.914a2.635,2.635,0,0,0,1.9-.664,2.46,2.46,0,0,0,.692-1.86v-.773l-1.3.055a4.711,4.711,0,0,0-2.231.48,1.449,1.449,0,0,0-.683,1.324,1.338,1.338,0,0,0,.425,1.071A1.769,1.769,0,0,0,3283.381,5446.013Z" transform="translate(11654.865 -7239.473)" fill="#fff"/>
    <path id="Trazado_22709" data-name="Trazado 22709" d="M3295.771,5445.778h-.07a3.045,3.045,0,0,1-2.687,1.305,3.181,3.181,0,0,1-2.614-1.148,5.061,5.061,0,0,1-.933-3.266,5.141,5.141,0,0,1,.937-3.289,3.157,3.157,0,0,1,2.61-1.172,3.115,3.115,0,0,1,2.672,1.266h.1l-.055-.618-.031-.6v-3.484h1.3v12.156h-1.055Zm-2.593.219a2.363,2.363,0,0,0,1.926-.723,3.651,3.651,0,0,0,.6-2.332v-.273a4.3,4.3,0,0,0-.6-2.6,2.3,2.3,0,0,0-1.934-.777,1.983,1.983,0,0,0-1.746.887,4.409,4.409,0,0,0-.6,2.5,4.227,4.227,0,0,0,.6,2.476A2.034,2.034,0,0,0,3293.178,5446Z" transform="translate(11654.865 -7239.473)" fill="#fff"/>
    <path id="Trazado_22710" data-name="Trazado 22710" d="M3299.639,5436.044a.861.861,0,0,1,.218-.652.81.81,0,0,1,1.086,0,.84.84,0,0,1,.227.648.853.853,0,0,1-.227.652.793.793,0,0,1-1.086,0A.878.878,0,0,1,3299.639,5436.044Zm1.406,10.883h-1.3v-8.563h1.3Z" transform="translate(11654.865 -7239.473)" fill="#fff"/>
    <path id="Trazado_22711" data-name="Trazado 22711" d="M3306.561,5446.013a4.2,4.2,0,0,0,.664-.051,4.13,4.13,0,0,0,.507-.106v.993a2.374,2.374,0,0,1-.621.168,4.69,4.69,0,0,1-.738.066q-2.484,0-2.484-2.617v-5.094h-1.227v-.625l1.227-.539.547-1.828h.75v1.984h2.484v1.008h-2.484v5.039a1.737,1.737,0,0,0,.367,1.188A1.279,1.279,0,0,0,3306.561,5446.013Z" transform="translate(11654.865 -7239.473)" fill="#fff"/>
    <path id="Trazado_22712" data-name="Trazado 22712" d="M3309.334,5436.044a.858.858,0,0,1,.219-.652.81.81,0,0,1,1.086,0,.843.843,0,0,1,.226.648.856.856,0,0,1-.226.652.755.755,0,0,1-.539.215.745.745,0,0,1-.547-.215A.874.874,0,0,1,3309.334,5436.044Zm1.406,10.883h-1.3v-8.563h1.3Z" transform="translate(11654.865 -7239.473)" fill="#fff"/>
    <path id="Trazado_22713" data-name="Trazado 22713" d="M3315.365,5446.927l-3.25-8.563h1.391l1.844,5.078a23.867,23.867,0,0,1,.734,2.313h.062a17.944,17.944,0,0,1,.543-1.715q.457-1.3,2.051-5.676h1.391l-3.25,8.563Z" transform="translate(11654.865 -7239.473)" fill="#fff"/>
    <path id="Trazado_22714" data-name="Trazado 22714" d="M3328.9,5442.638a4.725,4.725,0,0,1-1.054,3.269,3.716,3.716,0,0,1-2.914,1.176,3.862,3.862,0,0,1-2.039-.539,3.554,3.554,0,0,1-1.375-1.547,5.374,5.374,0,0,1-.485-2.359,4.715,4.715,0,0,1,1.047-3.262,3.705,3.705,0,0,1,2.906-1.168,3.622,3.622,0,0,1,2.856,1.195A4.7,4.7,0,0,1,3328.9,5442.638Zm-6.523,0a4.072,4.072,0,0,0,.656,2.5,2.606,2.606,0,0,0,3.864,0,4.049,4.049,0,0,0,.66-2.5,3.981,3.981,0,0,0-.66-2.481,2.32,2.32,0,0,0-1.95-.847,2.283,2.283,0,0,0-1.922.836A4.024,4.024,0,0,0,3322.373,5442.638Z" transform="translate(11654.865 -7239.473)" fill="#fff"/>
    <path id="Trazado_22715" data-name="Trazado 22715" d="M3336.693,5444.591a2.148,2.148,0,0,1-.89,1.844,4.188,4.188,0,0,1-2.5.648,5.445,5.445,0,0,1-2.657-.539v-1.2a6.47,6.47,0,0,0,1.325.492,5.508,5.508,0,0,0,1.363.18,3.091,3.091,0,0,0,1.562-.325,1.116,1.116,0,0,0,.114-1.843,6.782,6.782,0,0,0-1.692-.84,9.189,9.189,0,0,1-1.7-.777,2.334,2.334,0,0,1-.75-.754,1.974,1.974,0,0,1-.246-1.008,1.922,1.922,0,0,1,.852-1.653,3.971,3.971,0,0,1,2.336-.6,6.837,6.837,0,0,1,2.7.563l-.461,1.054a6.21,6.21,0,0,0-2.336-.531,2.7,2.7,0,0,0-1.391.289.894.894,0,0,0-.469.8.971.971,0,0,0,.176.586,1.736,1.736,0,0,0,.567.461,12.86,12.86,0,0,0,1.5.633,5.6,5.6,0,0,1,2.058,1.117A1.969,1.969,0,0,1,3336.693,5444.591Z" transform="translate(11654.865 -7239.473)" fill="#fff"/>
    <path id="Trazado_22716" data-name="Trazado 22716" d="M3121.025,5461.744a12.119,12.119,0,0,1,.606-3.875,9.6,9.6,0,0,1,1.746-3.164h1.266a11.017,11.017,0,0,0-1.692,3.313,12.309,12.309,0,0,0-.566,3.711,11.828,11.828,0,0,0,.578,3.664,11.405,11.405,0,0,0,1.664,3.265h-1.25a9.216,9.216,0,0,1-1.75-3.1A11.8,11.8,0,0,1,3121.025,5461.744Z" transform="translate(11654.865 -7239.473)" fill="#fff"/>
    <path id="Trazado_22717" data-name="Trazado 22717" d="M3132.018,5463.791a2.145,2.145,0,0,1-.891,1.844,4.188,4.188,0,0,1-2.5.648,5.427,5.427,0,0,1-2.656-.539v-1.2a6.44,6.44,0,0,0,1.324.492,5.544,5.544,0,0,0,1.363.18,3.109,3.109,0,0,0,1.563-.324,1.116,1.116,0,0,0,.113-1.844,6.827,6.827,0,0,0-1.691-.84,9.226,9.226,0,0,1-1.7-.777,2.325,2.325,0,0,1-.75-.754,1.964,1.964,0,0,1-.246-1.008,1.918,1.918,0,0,1,.852-1.652,3.963,3.963,0,0,1,2.336-.606,6.833,6.833,0,0,1,2.7.563l-.461,1.054a6.2,6.2,0,0,0-2.336-.531,2.7,2.7,0,0,0-1.391.289.894.894,0,0,0-.468.8.969.969,0,0,0,.175.586,1.749,1.749,0,0,0,.567.461,13.04,13.04,0,0,0,1.5.633,5.6,5.6,0,0,1,2.058,1.117A1.97,1.97,0,0,1,3132.018,5463.791Z" transform="translate(11654.865 -7239.473)" fill="#fff"/>
    <path id="Trazado_22718" data-name="Trazado 22718" d="M3139.393,5466.127l-.258-1.219h-.063a3.6,3.6,0,0,1-1.277,1.09,3.9,3.9,0,0,1-1.59.285,2.86,2.86,0,0,1-2-.656,2.4,2.4,0,0,1-.723-1.867q0-2.595,4.149-2.719l1.453-.047v-.531a2.169,2.169,0,0,0-.434-1.488,1.779,1.779,0,0,0-1.386-.481,5.655,5.655,0,0,0-2.422.656l-.4-.992a6.083,6.083,0,0,1,1.387-.539,6,6,0,0,1,1.512-.2,3.256,3.256,0,0,1,2.269.68,2.837,2.837,0,0,1,.739,2.179v5.844Zm-2.93-.914a2.632,2.632,0,0,0,1.9-.664,2.458,2.458,0,0,0,.692-1.86v-.773l-1.3.055a4.708,4.708,0,0,0-2.231.48,1.448,1.448,0,0,0-.683,1.324,1.337,1.337,0,0,0,.425,1.071A1.77,1.77,0,0,0,3136.463,5465.213Z" transform="translate(11654.865 -7239.473)" fill="#fff"/>
    <path id="Trazado_22719" data-name="Trazado 22719" d="M3144.322,5466.127h-1.3v-12.156h1.3Z" transform="translate(11654.865 -7239.473)" fill="#fff"/>
    <path id="Trazado_22720" data-name="Trazado 22720" d="M3152.6,5463.791a2.145,2.145,0,0,1-.891,1.844,4.188,4.188,0,0,1-2.5.648,5.43,5.43,0,0,1-2.656-.539v-1.2a6.429,6.429,0,0,0,1.324.492,5.542,5.542,0,0,0,1.363.18,3.107,3.107,0,0,0,1.563-.324,1.116,1.116,0,0,0,.113-1.844,6.807,6.807,0,0,0-1.691-.84,9.234,9.234,0,0,1-1.7-.777,2.35,2.35,0,0,1-.75-.754,1.964,1.964,0,0,1-.246-1.008,1.921,1.921,0,0,1,.852-1.652,3.964,3.964,0,0,1,2.336-.606,6.834,6.834,0,0,1,2.7.563l-.461,1.054a6.206,6.206,0,0,0-2.336-.531,2.688,2.688,0,0,0-1.39.289.893.893,0,0,0-.469.8.963.963,0,0,0,.176.586,1.73,1.73,0,0,0,.566.461,13.04,13.04,0,0,0,1.5.633,5.609,5.609,0,0,1,2.059,1.117A1.975,1.975,0,0,1,3152.6,5463.791Z" transform="translate(11654.865 -7239.473)" fill="#fff"/>
    <path id="Trazado_22721" data-name="Trazado 22721" d="M3159.971,5466.127l-.258-1.219h-.063a3.593,3.593,0,0,1-1.277,1.09,3.9,3.9,0,0,1-1.59.285,2.864,2.864,0,0,1-2-.656,2.4,2.4,0,0,1-.723-1.867q0-2.595,4.149-2.719l1.453-.047v-.531a2.169,2.169,0,0,0-.434-1.488,1.778,1.778,0,0,0-1.386-.481,5.654,5.654,0,0,0-2.422.656l-.4-.992a6.085,6.085,0,0,1,1.387-.539,6,6,0,0,1,1.512-.2,3.257,3.257,0,0,1,2.269.68,2.833,2.833,0,0,1,.739,2.179v5.844Zm-2.93-.914a2.632,2.632,0,0,0,1.9-.664,2.458,2.458,0,0,0,.692-1.86v-.773l-1.3.055a4.708,4.708,0,0,0-2.231.48,1.447,1.447,0,0,0-.683,1.324,1.334,1.334,0,0,0,.426,1.071A1.766,1.766,0,0,0,3157.041,5465.213Z" transform="translate(11654.865 -7239.473)" fill="#fff"/>
    <path id="Trazado_22722" data-name="Trazado 22722" d="M3169.127,5463.791a2.145,2.145,0,0,1-.891,1.844,4.184,4.184,0,0,1-2.5.648,5.432,5.432,0,0,1-2.656-.539v-1.2a6.456,6.456,0,0,0,1.324.492,5.544,5.544,0,0,0,1.364.18,3.105,3.105,0,0,0,1.562-.324,1.116,1.116,0,0,0,.113-1.844,6.807,6.807,0,0,0-1.691-.84,9.217,9.217,0,0,1-1.7-.777,2.33,2.33,0,0,1-.75-.754,1.964,1.964,0,0,1-.246-1.008,1.92,1.92,0,0,1,.851-1.652,3.965,3.965,0,0,1,2.336-.606,6.834,6.834,0,0,1,2.7.563l-.461,1.054a6.2,6.2,0,0,0-2.336-.531,2.688,2.688,0,0,0-1.39.289.893.893,0,0,0-.469.8.97.97,0,0,0,.176.586,1.73,1.73,0,0,0,.566.461,13.04,13.04,0,0,0,1.5.633,5.609,5.609,0,0,1,2.059,1.117A1.975,1.975,0,0,1,3169.127,5463.791Z" transform="translate(11654.865 -7239.473)" fill="#fff"/>
    <path id="Trazado_22723" data-name="Trazado 22723" d="M3172.6,5464.268l.117.179q-.2.781-.586,1.817t-.8,1.925h-.976q.21-.813.464-2.007t.356-1.914Z" transform="translate(11654.865 -7239.473)" fill="#fff"/>
    <path id="Trazado_22724" data-name="Trazado 22724" d="M3184.58,5466.127l-.258-1.219h-.062a3.606,3.606,0,0,1-1.278,1.09,3.89,3.89,0,0,1-1.589.285,2.865,2.865,0,0,1-2-.656,2.4,2.4,0,0,1-.722-1.867q0-2.595,4.148-2.719l1.453-.047v-.531a2.169,2.169,0,0,0-.433-1.488,1.78,1.78,0,0,0-1.387-.481,5.659,5.659,0,0,0-2.422.656l-.4-.992a6.092,6.092,0,0,1,1.386-.539,6,6,0,0,1,1.512-.2,3.258,3.258,0,0,1,2.27.68,2.837,2.837,0,0,1,.738,2.179v5.844Zm-2.93-.914a2.634,2.634,0,0,0,1.9-.664,2.458,2.458,0,0,0,.691-1.86v-.773l-1.3.055a4.7,4.7,0,0,0-2.23.48,1.448,1.448,0,0,0-.684,1.324,1.338,1.338,0,0,0,.426,1.071A1.768,1.768,0,0,0,3181.65,5465.213Z" transform="translate(11654.865 -7239.473)" fill="#fff"/>
    <path id="Trazado_22725" data-name="Trazado 22725" d="M3194.041,5464.979h-.07a3.046,3.046,0,0,1-2.688,1.3,3.18,3.18,0,0,1-2.613-1.148,5.06,5.06,0,0,1-.934-3.266,5.14,5.14,0,0,1,.938-3.289,3.155,3.155,0,0,1,2.609-1.172,3.115,3.115,0,0,1,2.672,1.266h.1l-.055-.617-.031-.6v-3.484h1.3v12.156h-1.055Zm-2.594.218a2.362,2.362,0,0,0,1.926-.722,3.655,3.655,0,0,0,.6-2.332v-.274a4.3,4.3,0,0,0-.606-2.6,2.3,2.3,0,0,0-1.933-.777,1.984,1.984,0,0,0-1.746.887,4.407,4.407,0,0,0-.606,2.5,4.217,4.217,0,0,0,.6,2.476A2.034,2.034,0,0,0,3191.447,5465.2Z" transform="translate(11654.865 -7239.473)" fill="#fff"/>
    <path id="Trazado_22726" data-name="Trazado 22726" d="M3201.635,5466.283a3.935,3.935,0,0,1-3-1.156,4.475,4.475,0,0,1-1.1-3.211,4.963,4.963,0,0,1,1.02-3.289,3.383,3.383,0,0,1,2.738-1.219,3.23,3.23,0,0,1,2.547,1.059,4.058,4.058,0,0,1,.937,2.793v.82h-5.9a3.4,3.4,0,0,0,.761,2.289,2.636,2.636,0,0,0,2.036.781,6.881,6.881,0,0,0,2.734-.578v1.157a6.86,6.86,0,0,1-1.3.425A7.269,7.269,0,0,1,3201.635,5466.283Zm-.352-7.789a2.117,2.117,0,0,0-1.644.672,3.088,3.088,0,0,0-.723,1.859h4.477a2.856,2.856,0,0,0-.547-1.879A1.929,1.929,0,0,0,3201.283,5458.494Z" transform="translate(11654.865 -7239.473)" fill="#fff"/>
    <path id="Trazado_22727" data-name="Trazado 22727" d="M3210.9,5457.408a5.047,5.047,0,0,1,1.024.094l-.18,1.2a4.418,4.418,0,0,0-.937-.117,2.281,2.281,0,0,0-1.778.844,3.074,3.074,0,0,0-.738,2.1v4.594h-1.3v-8.563h1.07l.149,1.586h.062a3.772,3.772,0,0,1,1.149-1.289A2.594,2.594,0,0,1,3210.9,5457.408Z" transform="translate(11654.865 -7239.473)" fill="#fff"/>
    <path id="Trazado_22728" data-name="Trazado 22728" d="M3217.143,5466.283a3.939,3.939,0,0,1-3-1.156,4.479,4.479,0,0,1-1.1-3.211,4.966,4.966,0,0,1,1.019-3.289,3.386,3.386,0,0,1,2.739-1.219,3.23,3.23,0,0,1,2.547,1.059,4.058,4.058,0,0,1,.937,2.793v.82h-5.9a3.4,3.4,0,0,0,.761,2.289,2.633,2.633,0,0,0,2.035.781,6.889,6.889,0,0,0,2.735-.578v1.157a6.86,6.86,0,0,1-1.3.425A7.269,7.269,0,0,1,3217.143,5466.283Zm-.352-7.789a2.12,2.12,0,0,0-1.645.672,3.094,3.094,0,0,0-.722,1.859h4.476a2.856,2.856,0,0,0-.546-1.879A1.929,1.929,0,0,0,3216.791,5458.494Z" transform="translate(11654.865 -7239.473)" fill="#fff"/>
    <path id="Trazado_22729" data-name="Trazado 22729" d="M3227.979,5466.127h-6.211v-.883l4.671-6.672h-4.382v-1.008h5.8v1.008l-4.609,6.547h4.727Z" transform="translate(11654.865 -7239.473)" fill="#fff"/>
    <path id="Trazado_22730" data-name="Trazado 22730" d="M3237.377,5461.838a4.725,4.725,0,0,1-1.055,3.269,3.711,3.711,0,0,1-2.914,1.176,3.858,3.858,0,0,1-2.039-.539,3.555,3.555,0,0,1-1.375-1.547,5.388,5.388,0,0,1-.484-2.359,4.709,4.709,0,0,1,1.047-3.262,3.7,3.7,0,0,1,2.906-1.168,3.622,3.622,0,0,1,2.855,1.2A4.7,4.7,0,0,1,3237.377,5461.838Zm-6.523,0a4.06,4.06,0,0,0,.656,2.5,2.605,2.605,0,0,0,3.863,0,4.045,4.045,0,0,0,.66-2.5,3.982,3.982,0,0,0-.66-2.481,2.32,2.32,0,0,0-1.949-.847,2.282,2.282,0,0,0-1.922.836A4.015,4.015,0,0,0,3230.854,5461.838Z" transform="translate(11654.865 -7239.473)" fill="#fff"/>
    <path id="Trazado_22731" data-name="Trazado 22731" d="M3245.174,5463.791a2.145,2.145,0,0,1-.891,1.844,4.188,4.188,0,0,1-2.5.648,5.43,5.43,0,0,1-2.656-.539v-1.2a6.44,6.44,0,0,0,1.324.492,5.544,5.544,0,0,0,1.363.18,3.107,3.107,0,0,0,1.563-.324,1.116,1.116,0,0,0,.113-1.844,6.809,6.809,0,0,0-1.691-.84,9.209,9.209,0,0,1-1.7-.777,2.325,2.325,0,0,1-.75-.754,1.964,1.964,0,0,1-.246-1.008,1.92,1.92,0,0,1,.851-1.652,3.963,3.963,0,0,1,2.336-.606,6.833,6.833,0,0,1,2.7.563l-.461,1.054a6.2,6.2,0,0,0-2.336-.531,2.689,2.689,0,0,0-1.39.289.893.893,0,0,0-.469.8.963.963,0,0,0,.176.586,1.734,1.734,0,0,0,.566.461,13.04,13.04,0,0,0,1.5.633,5.609,5.609,0,0,1,2.059,1.117A1.974,1.974,0,0,1,3245.174,5463.791Z" transform="translate(11654.865 -7239.473)" fill="#fff"/>
    <path id="Trazado_22732" data-name="Trazado 22732" d="M3250,5461.744a11.757,11.757,0,0,1-.606,3.828,9.132,9.132,0,0,1-1.746,3.086h-1.25a11.234,11.234,0,0,0,1.664-3.262,11.857,11.857,0,0,0,.579-3.667,12.3,12.3,0,0,0-.567-3.711,11.008,11.008,0,0,0-1.691-3.313h1.265a9.566,9.566,0,0,1,1.75,3.176A12.134,12.134,0,0,1,3250,5461.744Z" transform="translate(11654.865 -7239.473)" fill="#fff"/>
    <path id="Trazado_22733" data-name="Trazado 22733" d="M3253.377,5464.268l.117.179q-.2.781-.586,1.817t-.8,1.925h-.976q.21-.813.465-2.007t.355-1.914Z" transform="translate(11654.865 -7239.473)" fill="#fff"/>
    <path id="Trazado_22734" data-name="Trazado 22734" d="M3265.619,5463.791a2.146,2.146,0,0,1-.89,1.844,4.188,4.188,0,0,1-2.5.648,5.434,5.434,0,0,1-2.657-.539v-1.2a6.456,6.456,0,0,0,1.324.492,5.544,5.544,0,0,0,1.364.18,3.1,3.1,0,0,0,1.562-.324,1.117,1.117,0,0,0,.114-1.844,6.837,6.837,0,0,0-1.692-.84,9.225,9.225,0,0,1-1.7-.777,2.33,2.33,0,0,1-.75-.754,1.966,1.966,0,0,1-.246-1.008,1.92,1.92,0,0,1,.851-1.652,3.966,3.966,0,0,1,2.336-.606,6.83,6.83,0,0,1,2.7.563l-.46,1.054a6.209,6.209,0,0,0-2.336-.531,2.691,2.691,0,0,0-1.391.289.893.893,0,0,0-.469.8.97.97,0,0,0,.176.586,1.74,1.74,0,0,0,.566.461,13.04,13.04,0,0,0,1.5.633,5.6,5.6,0,0,1,2.059,1.117A1.975,1.975,0,0,1,3265.619,5463.791Z" transform="translate(11654.865 -7239.473)" fill="#fff"/>
    <path id="Trazado_22735" data-name="Trazado 22735" d="M3271.346,5466.283a3.935,3.935,0,0,1-3-1.156,4.474,4.474,0,0,1-1.1-3.211,4.968,4.968,0,0,1,1.019-3.289,3.387,3.387,0,0,1,2.739-1.219,3.23,3.23,0,0,1,2.547,1.059,4.058,4.058,0,0,1,.937,2.793v.82h-5.9a3.4,3.4,0,0,0,.761,2.289,2.636,2.636,0,0,0,2.036.781,6.883,6.883,0,0,0,2.734-.578v1.157a6.854,6.854,0,0,1-1.3.425A7.267,7.267,0,0,1,3271.346,5466.283Zm-.352-7.789a2.116,2.116,0,0,0-1.644.672,3.087,3.087,0,0,0-.723,1.859h4.477a2.856,2.856,0,0,0-.547-1.879A1.929,1.929,0,0,0,3270.994,5458.494Z" transform="translate(11654.865 -7239.473)" fill="#fff"/>
    <path id="Trazado_22736" data-name="Trazado 22736" d="M3280.611,5457.408a5.046,5.046,0,0,1,1.024.094l-.18,1.2a4.418,4.418,0,0,0-.937-.117,2.282,2.282,0,0,0-1.778.844,3.074,3.074,0,0,0-.738,2.1v4.594h-1.3v-8.563h1.07l.149,1.586h.062a3.769,3.769,0,0,1,1.149-1.289A2.594,2.594,0,0,1,3280.611,5457.408Z" transform="translate(11654.865 -7239.473)" fill="#fff"/>
    <path id="Trazado_22737" data-name="Trazado 22737" d="M3285.111,5466.127l-3.25-8.563h1.391l1.844,5.079a23.91,23.91,0,0,1,.734,2.312h.063a17.252,17.252,0,0,1,.543-1.715q.456-1.3,2.05-5.676h1.391l-3.25,8.563Z" transform="translate(11654.865 -7239.473)" fill="#fff"/>
    <path id="Trazado_22738" data-name="Trazado 22738" d="M3291.143,5455.244a.862.862,0,0,1,.218-.652.809.809,0,0,1,1.086,0,.839.839,0,0,1,.227.648.853.853,0,0,1-.227.652.754.754,0,0,1-.539.215.746.746,0,0,1-.547-.215A.878.878,0,0,1,3291.143,5455.244Zm1.406,10.883h-1.3v-8.563h1.3Z" transform="translate(11654.865 -7239.473)" fill="#fff"/>
    <path id="Trazado_22739" data-name="Trazado 22739" d="M3298.721,5466.283a3.657,3.657,0,0,1-2.879-1.144,4.708,4.708,0,0,1-1.02-3.239,4.852,4.852,0,0,1,1.035-3.32,3.729,3.729,0,0,1,2.95-1.172,5.829,5.829,0,0,1,1.234.133,4.042,4.042,0,0,1,.969.313l-.4,1.1a6.069,6.069,0,0,0-.937-.285,4.241,4.241,0,0,0-.9-.113q-2.609,0-2.609,3.328a3.961,3.961,0,0,0,.637,2.422,2.216,2.216,0,0,0,1.886.843,5.755,5.755,0,0,0,2.2-.461v1.149A4.678,4.678,0,0,1,3298.721,5466.283Z" transform="translate(11654.865 -7239.473)" fill="#fff"/>
    <path id="Trazado_22740" data-name="Trazado 22740" d="M3302.807,5455.244a.862.862,0,0,1,.218-.652.809.809,0,0,1,1.086,0,.84.84,0,0,1,.227.648.854.854,0,0,1-.227.652.794.794,0,0,1-1.086,0A.878.878,0,0,1,3302.807,5455.244Zm1.406,10.883h-1.3v-8.563h1.3Z" transform="translate(11654.865 -7239.473)" fill="#fff"/>
    <path id="Trazado_22741" data-name="Trazado 22741" d="M3314.354,5461.838a4.725,4.725,0,0,1-1.055,3.269,3.711,3.711,0,0,1-2.914,1.176,3.852,3.852,0,0,1-2.039-.539,3.555,3.555,0,0,1-1.375-1.547,5.374,5.374,0,0,1-.485-2.359,4.714,4.714,0,0,1,1.047-3.262,3.7,3.7,0,0,1,2.906-1.168,3.622,3.622,0,0,1,2.856,1.2A4.7,4.7,0,0,1,3314.354,5461.838Zm-6.524,0a4.066,4.066,0,0,0,.656,2.5,2.606,2.606,0,0,0,3.864,0,4.045,4.045,0,0,0,.66-2.5,3.982,3.982,0,0,0-.66-2.481,2.322,2.322,0,0,0-1.95-.847,2.28,2.28,0,0,0-1.921.836A4.013,4.013,0,0,0,3307.83,5461.838Z" transform="translate(11654.865 -7239.473)" fill="#fff"/>
    <path id="Trazado_22742" data-name="Trazado 22742" d="M3322.15,5463.791a2.144,2.144,0,0,1-.89,1.844,4.188,4.188,0,0,1-2.5.648,5.427,5.427,0,0,1-2.656-.539v-1.2a6.434,6.434,0,0,0,1.324.492,5.536,5.536,0,0,0,1.363.18,3.109,3.109,0,0,0,1.563-.324,1.118,1.118,0,0,0,.113-1.844,6.818,6.818,0,0,0-1.692-.84,9.257,9.257,0,0,1-1.7-.777,2.33,2.33,0,0,1-.75-.754,1.966,1.966,0,0,1-.246-1.008,1.919,1.919,0,0,1,.852-1.652,3.962,3.962,0,0,1,2.336-.606,6.837,6.837,0,0,1,2.7.563l-.461,1.054a6.209,6.209,0,0,0-2.336-.531,2.7,2.7,0,0,0-1.391.289.9.9,0,0,0-.469.8.97.97,0,0,0,.176.586,1.735,1.735,0,0,0,.567.461,12.883,12.883,0,0,0,1.5.633,5.6,5.6,0,0,1,2.058,1.117A1.971,1.971,0,0,1,3322.15,5463.791Z" transform="translate(11654.865 -7239.473)" fill="#fff"/>
    <path id="Trazado_22743" data-name="Trazado 22743" d="M3134.967,5485.482a3.931,3.931,0,0,1-3-1.156,4.474,4.474,0,0,1-1.1-3.211,4.962,4.962,0,0,1,1.02-3.289,3.387,3.387,0,0,1,2.738-1.219,3.228,3.228,0,0,1,2.547,1.059,4.058,4.058,0,0,1,.937,2.793v.82h-5.9a3.391,3.391,0,0,0,.762,2.289,2.633,2.633,0,0,0,2.035.782,6.882,6.882,0,0,0,2.734-.579v1.157a6.867,6.867,0,0,1-1.3.426A7.385,7.385,0,0,1,3134.967,5485.482Zm-.352-7.789a2.117,2.117,0,0,0-1.644.672,3.1,3.1,0,0,0-.723,1.86h4.477a2.852,2.852,0,0,0-.547-1.879A1.927,1.927,0,0,0,3134.615,5477.693Z" transform="translate(11654.865 -7239.473)" fill="#fff"/>
    <path id="Trazado_22744" data-name="Trazado 22744" d="M3144.232,5476.607a5.116,5.116,0,0,1,1.024.094l-.18,1.2a4.447,4.447,0,0,0-.937-.117,2.282,2.282,0,0,0-1.778.844,3.075,3.075,0,0,0-.738,2.1v4.594h-1.3v-8.562h1.07l.149,1.586h.062a3.749,3.749,0,0,1,1.149-1.289A2.584,2.584,0,0,1,3144.232,5476.607Z" transform="translate(11654.865 -7239.473)" fill="#fff"/>
    <path id="Trazado_22745" data-name="Trazado 22745" d="M3154.248,5481.037a4.728,4.728,0,0,1-1.055,3.27,3.714,3.714,0,0,1-2.914,1.175,3.852,3.852,0,0,1-2.039-.539,3.554,3.554,0,0,1-1.375-1.547,5.385,5.385,0,0,1-.484-2.359,4.715,4.715,0,0,1,1.047-3.262,3.705,3.705,0,0,1,2.906-1.168,3.621,3.621,0,0,1,2.855,1.2A4.7,4.7,0,0,1,3154.248,5481.037Zm-6.523,0a4.062,4.062,0,0,0,.656,2.5,2.605,2.605,0,0,0,3.863,0,4.035,4.035,0,0,0,.66-2.5,3.969,3.969,0,0,0-.66-2.48,2.317,2.317,0,0,0-1.949-.848,2.281,2.281,0,0,0-1.922.836A4.02,4.02,0,0,0,3147.725,5481.037Zm1.5-5.6q.375-.486.808-1.172a13.351,13.351,0,0,0,.684-1.2h1.578v.164a14.571,14.571,0,0,1-2.2,2.4h-.867Z" transform="translate(11654.865 -7239.473)" fill="#fff"/>
    <path id="Trazado_22746" data-name="Trazado 22746" d="M3159.287,5484.412a4.077,4.077,0,0,0,.664-.051,4.328,4.328,0,0,0,.508-.1v.992a2.4,2.4,0,0,1-.621.168,4.7,4.7,0,0,1-.738.066q-2.485,0-2.485-2.617v-5.094h-1.226v-.625l1.226-.539.547-1.828h.75v1.985h2.484v1.007h-2.484v5.04a1.731,1.731,0,0,0,.367,1.187A1.279,1.279,0,0,0,3159.287,5484.412Z" transform="translate(11654.865 -7239.473)" fill="#fff"/>
    <path id="Trazado_22747" data-name="Trazado 22747" d="M3162.061,5474.443a.863.863,0,0,1,.218-.652.81.81,0,0,1,1.086,0,.841.841,0,0,1,.227.648.858.858,0,0,1-.227.653.76.76,0,0,1-.539.215.752.752,0,0,1-.547-.215A.884.884,0,0,1,3162.061,5474.443Zm1.406,10.883h-1.3v-8.562h1.3Z" transform="translate(11654.865 -7239.473)" fill="#fff"/>
    <path id="Trazado_22748" data-name="Trazado 22748" d="M3169.639,5485.482a3.652,3.652,0,0,1-2.879-1.144,4.705,4.705,0,0,1-1.02-3.238,4.857,4.857,0,0,1,1.035-3.321,3.731,3.731,0,0,1,2.95-1.172,5.8,5.8,0,0,1,1.234.133,4.079,4.079,0,0,1,.969.313l-.4,1.1a6.07,6.07,0,0,0-.937-.285,4.211,4.211,0,0,0-.9-.113q-2.609,0-2.609,3.328a3.96,3.96,0,0,0,.637,2.422,2.217,2.217,0,0,0,1.886.844,5.782,5.782,0,0,0,2.2-.461v1.148A4.681,4.681,0,0,1,3169.639,5485.482Z" transform="translate(11654.865 -7239.473)" fill="#fff"/>
    <path id="Trazado_22749" data-name="Trazado 22749" d="M3181.225,5481.037a4.727,4.727,0,0,1-1.055,3.27,3.714,3.714,0,0,1-2.914,1.175,3.85,3.85,0,0,1-2.039-.539,3.554,3.554,0,0,1-1.375-1.547,5.385,5.385,0,0,1-.485-2.359,4.72,4.72,0,0,1,1.047-3.262,3.708,3.708,0,0,1,2.907-1.168,3.621,3.621,0,0,1,2.855,1.2A4.7,4.7,0,0,1,3181.225,5481.037Zm-6.524,0a4.068,4.068,0,0,0,.656,2.5,2.606,2.606,0,0,0,3.864,0,4.043,4.043,0,0,0,.66-2.5,3.977,3.977,0,0,0-.66-2.48,2.319,2.319,0,0,0-1.95-.848,2.279,2.279,0,0,0-1.921.836A4.019,4.019,0,0,0,3174.7,5481.037Z" transform="translate(11654.865 -7239.473)" fill="#fff"/>
    <path id="Trazado_22750" data-name="Trazado 22750" d="M3189.021,5482.99a2.145,2.145,0,0,1-.89,1.844,4.181,4.181,0,0,1-2.5.648,5.421,5.421,0,0,1-2.656-.539v-1.2a6.428,6.428,0,0,0,1.324.492,5.474,5.474,0,0,0,1.363.18,3.093,3.093,0,0,0,1.563-.324,1.117,1.117,0,0,0,.113-1.844,6.842,6.842,0,0,0-1.692-.84,9.151,9.151,0,0,1-1.7-.777,2.334,2.334,0,0,1-.75-.754,1.966,1.966,0,0,1-.246-1.008,1.92,1.92,0,0,1,.852-1.652,3.972,3.972,0,0,1,2.336-.606,6.834,6.834,0,0,1,2.7.563l-.461,1.055a6.2,6.2,0,0,0-2.336-.532,2.7,2.7,0,0,0-1.391.289.894.894,0,0,0-.468.8.969.969,0,0,0,.175.586,1.739,1.739,0,0,0,.567.461,12.54,12.54,0,0,0,1.5.633,5.6,5.6,0,0,1,2.058,1.117A1.97,1.97,0,0,1,3189.021,5482.99Z" transform="translate(11654.865 -7239.473)" fill="#fff"/>
    <path id="Trazado_22751" data-name="Trazado 22751" d="M3192.49,5483.467l.117.179q-.2.781-.586,1.817t-.8,1.926h-.977q.211-.813.465-2.008t.355-1.914Z" transform="translate(11654.865 -7239.473)" fill="#fff"/>
    <path id="Trazado_22752" data-name="Trazado 22752" d="M3202.631,5485.482a3.655,3.655,0,0,1-2.879-1.144,4.705,4.705,0,0,1-1.02-3.238,4.851,4.851,0,0,1,1.036-3.321,3.726,3.726,0,0,1,2.949-1.172,5.8,5.8,0,0,1,1.234.133,4.064,4.064,0,0,1,.969.313l-.4,1.1a6.053,6.053,0,0,0-.937-.285,4.208,4.208,0,0,0-.9-.113q-2.61,0-2.61,3.328a3.961,3.961,0,0,0,.637,2.422,2.219,2.219,0,0,0,1.887.844,5.781,5.781,0,0,0,2.195-.461v1.148A4.678,4.678,0,0,1,3202.631,5485.482Z" transform="translate(11654.865 -7239.473)" fill="#fff"/>
    <path id="Trazado_22753" data-name="Trazado 22753" d="M3214.217,5481.037a4.728,4.728,0,0,1-1.055,3.27,3.715,3.715,0,0,1-2.914,1.175,3.85,3.85,0,0,1-2.039-.539,3.554,3.554,0,0,1-1.375-1.547,5.385,5.385,0,0,1-.484-2.359,4.719,4.719,0,0,1,1.046-3.262,3.708,3.708,0,0,1,2.907-1.168,3.621,3.621,0,0,1,2.855,1.2A4.7,4.7,0,0,1,3214.217,5481.037Zm-6.524,0a4.062,4.062,0,0,0,.657,2.5,2.6,2.6,0,0,0,3.863,0,4.042,4.042,0,0,0,.66-2.5,3.975,3.975,0,0,0-.66-2.48,2.318,2.318,0,0,0-1.949-.848,2.28,2.28,0,0,0-1.922.836A4.019,4.019,0,0,0,3207.693,5481.037Z" transform="translate(11654.865 -7239.473)" fill="#fff"/>
    <path id="Trazado_22754" data-name="Trazado 22754" d="M3227.4,5485.326v-5.57a2.308,2.308,0,0,0-.437-1.535,1.693,1.693,0,0,0-1.36-.512,2.194,2.194,0,0,0-1.789.695,3.309,3.309,0,0,0-.578,2.141v4.781h-1.3v-5.57a2.308,2.308,0,0,0-.437-1.535,1.7,1.7,0,0,0-1.367-.512,2.116,2.116,0,0,0-1.785.73,3.955,3.955,0,0,0-.567,2.4v4.492h-1.3v-8.562h1.055l.211,1.172h.062a2.542,2.542,0,0,1,1.036-.977,3.168,3.168,0,0,1,1.5-.352,2.545,2.545,0,0,1,2.625,1.454h.062a2.725,2.725,0,0,1,1.109-1.063,3.438,3.438,0,0,1,1.657-.391,2.9,2.9,0,0,1,2.176.747,3.339,3.339,0,0,1,.722,2.386v5.586Z" transform="translate(11654.865 -7239.473)" fill="#fff"/>
    <path id="Trazado_22755" data-name="Trazado 22755" d="M3235.357,5476.623a3.186,3.186,0,0,1,2.622,1.152,6.172,6.172,0,0,1-.008,6.539,3.171,3.171,0,0,1-2.614,1.168,3.7,3.7,0,0,1-1.527-.308,2.88,2.88,0,0,1-1.16-.949h-.094l-.273,1.1h-.93V5473.17h1.3v2.953q0,.992-.063,1.781h.063A3.078,3.078,0,0,1,3235.357,5476.623Zm-.187,1.086a2.261,2.261,0,0,0-1.914.762,5.877,5.877,0,0,0,.015,5.148,2.286,2.286,0,0,0,1.93.777,2,2,0,0,0,1.781-.871,4.473,4.473,0,0,0,.586-2.5,4.3,4.3,0,0,0-.586-2.492A2.075,2.075,0,0,0,3235.17,5477.709Z" transform="translate(11654.865 -7239.473)" fill="#fff"/>
    <path id="Trazado_22756" data-name="Trazado 22756" d="M3241.068,5474.443a.864.864,0,0,1,.219-.652.81.81,0,0,1,1.086,0,.846.846,0,0,1,.227.648.863.863,0,0,1-.227.653.76.76,0,0,1-.539.215.752.752,0,0,1-.547-.215A.884.884,0,0,1,3241.068,5474.443Zm1.407,10.883h-1.3v-8.562h1.3Z" transform="translate(11654.865 -7239.473)" fill="#fff"/>
    <path id="Trazado_22757" data-name="Trazado 22757" d="M3251.084,5485.326v-5.539a2.229,2.229,0,0,0-.477-1.562,1.938,1.938,0,0,0-1.492-.516,2.462,2.462,0,0,0-1.969.727,3.665,3.665,0,0,0-.625,2.4v4.492h-1.3v-8.562h1.054l.211,1.172h.063a2.642,2.642,0,0,1,1.117-.981,3.641,3.641,0,0,1,1.6-.348,3.251,3.251,0,0,1,2.329.747,3.176,3.176,0,0,1,.781,2.386v5.586Z" transform="translate(11654.865 -7239.473)" fill="#fff"/>
    <path id="Trazado_22758" data-name="Trazado 22758" d="M3260.311,5485.326l-.258-1.219h-.063a3.589,3.589,0,0,1-1.277,1.09,3.871,3.871,0,0,1-1.59.285,2.856,2.856,0,0,1-2-.656,2.4,2.4,0,0,1-.723-1.867q0-2.595,4.149-2.719l1.453-.047v-.531a2.171,2.171,0,0,0-.434-1.488,1.784,1.784,0,0,0-1.386-.481,5.645,5.645,0,0,0-2.422.657l-.4-.993a6.11,6.11,0,0,1,1.387-.539,6.026,6.026,0,0,1,1.512-.195,3.261,3.261,0,0,1,2.269.68,2.835,2.835,0,0,1,.738,2.179v5.844Zm-2.93-.914a2.635,2.635,0,0,0,1.9-.664,2.455,2.455,0,0,0,.692-1.859v-.774l-1.3.055a4.717,4.717,0,0,0-2.231.48,1.451,1.451,0,0,0-.683,1.325,1.336,1.336,0,0,0,.425,1.07A1.769,1.769,0,0,0,3257.381,5484.412Z" transform="translate(11654.865 -7239.473)" fill="#fff"/>
    <path id="Trazado_22759" data-name="Trazado 22759" d="M3269.771,5484.178h-.07a3.046,3.046,0,0,1-2.687,1.3,3.178,3.178,0,0,1-2.614-1.148,5.061,5.061,0,0,1-.933-3.266,5.144,5.144,0,0,1,.937-3.289,3.157,3.157,0,0,1,2.61-1.172,3.115,3.115,0,0,1,2.672,1.266h.1l-.055-.617-.031-.6v-3.484h1.3v12.156h-1.055Zm-2.593.218a2.365,2.365,0,0,0,1.926-.722,3.655,3.655,0,0,0,.6-2.332v-.274a4.3,4.3,0,0,0-.6-2.6,2.3,2.3,0,0,0-1.934-.778,1.983,1.983,0,0,0-1.746.887,4.413,4.413,0,0,0-.6,2.5,4.229,4.229,0,0,0,.6,2.477A2.036,2.036,0,0,0,3267.178,5484.4Z" transform="translate(11654.865 -7239.473)" fill="#fff"/>
    <path id="Trazado_22760" data-name="Trazado 22760" d="M3281.139,5481.037a4.727,4.727,0,0,1-1.055,3.27,3.715,3.715,0,0,1-2.914,1.175,3.85,3.85,0,0,1-2.039-.539,3.554,3.554,0,0,1-1.375-1.547,5.385,5.385,0,0,1-.485-2.359,4.72,4.72,0,0,1,1.047-3.262,3.708,3.708,0,0,1,2.907-1.168,3.621,3.621,0,0,1,2.855,1.2A4.7,4.7,0,0,1,3281.139,5481.037Zm-6.524,0a4.068,4.068,0,0,0,.656,2.5,2.606,2.606,0,0,0,3.864,0,4.043,4.043,0,0,0,.66-2.5,3.977,3.977,0,0,0-.66-2.48,2.319,2.319,0,0,0-1.949-.848,2.28,2.28,0,0,0-1.922.836A4.021,4.021,0,0,0,3274.615,5481.037Z" transform="translate(11654.865 -7239.473)" fill="#fff"/>
    <path id="Trazado_22761" data-name="Trazado 22761" d="M3290.99,5485.482a3.655,3.655,0,0,1-2.879-1.144,4.708,4.708,0,0,1-1.019-3.238,4.857,4.857,0,0,1,1.035-3.321,3.728,3.728,0,0,1,2.949-1.172,5.814,5.814,0,0,1,1.235.133,4.062,4.062,0,0,1,.968.313l-.4,1.1a6.083,6.083,0,0,0-.938-.285,4.2,4.2,0,0,0-.9-.113q-2.609,0-2.609,3.328a3.96,3.96,0,0,0,.636,2.422,2.218,2.218,0,0,0,1.887.844,5.778,5.778,0,0,0,2.2-.461v1.148A4.678,4.678,0,0,1,3290.99,5485.482Z" transform="translate(11654.865 -7239.473)" fill="#fff"/>
    <path id="Trazado_22762" data-name="Trazado 22762" d="M3302.576,5481.037a4.722,4.722,0,0,1-1.055,3.27,3.713,3.713,0,0,1-2.914,1.175,3.852,3.852,0,0,1-2.039-.539,3.566,3.566,0,0,1-1.375-1.547,5.385,5.385,0,0,1-.484-2.359,4.72,4.72,0,0,1,1.047-3.262,3.705,3.705,0,0,1,2.906-1.168,3.623,3.623,0,0,1,2.856,1.2A4.7,4.7,0,0,1,3302.576,5481.037Zm-6.523,0a4.062,4.062,0,0,0,.656,2.5,2.605,2.605,0,0,0,3.863,0,4.037,4.037,0,0,0,.66-2.5,3.971,3.971,0,0,0-.66-2.48,2.318,2.318,0,0,0-1.949-.848,2.282,2.282,0,0,0-1.922.836A4.028,4.028,0,0,0,3296.053,5481.037Z" transform="translate(11654.865 -7239.473)" fill="#fff"/>
    <path id="Trazado_22763" data-name="Trazado 22763" d="M3310.709,5485.326v-5.539a2.229,2.229,0,0,0-.477-1.562,1.938,1.938,0,0,0-1.492-.516,2.462,2.462,0,0,0-1.969.727,3.665,3.665,0,0,0-.625,2.4v4.492h-1.3v-8.562h1.054l.211,1.172h.063a2.642,2.642,0,0,1,1.117-.981,3.641,3.641,0,0,1,1.6-.348,3.251,3.251,0,0,1,2.329.747,3.176,3.176,0,0,1,.781,2.386v5.586Z" transform="translate(11654.865 -7239.473)" fill="#fff"/>
    <path id="Trazado_22764" data-name="Trazado 22764" d="M3144.092,5504.526l-.258-1.218h-.063a3.587,3.587,0,0,1-1.277,1.089,3.878,3.878,0,0,1-1.59.286,2.86,2.86,0,0,1-2-.657,2.394,2.394,0,0,1-.722-1.867q0-2.594,4.148-2.719l1.453-.046v-.532a2.169,2.169,0,0,0-.433-1.488,1.786,1.786,0,0,0-1.387-.48,5.641,5.641,0,0,0-2.422.656l-.4-.992a6.242,6.242,0,0,1,2.9-.735,3.261,3.261,0,0,1,2.269.68,2.836,2.836,0,0,1,.739,2.18v5.843Zm-2.93-.914a2.628,2.628,0,0,0,1.9-.664,2.456,2.456,0,0,0,.692-1.859v-.774l-1.3.055a4.69,4.69,0,0,0-2.23.481,1.446,1.446,0,0,0-.684,1.324,1.336,1.336,0,0,0,.426,1.07A1.764,1.764,0,0,0,3141.162,5503.612Z" transform="translate(11654.865 -7239.473)" fill="#fff"/>
    <path id="Trazado_22765" data-name="Trazado 22765" d="M3158.639,5504.526v-5.57a2.309,2.309,0,0,0-.438-1.535,1.693,1.693,0,0,0-1.359-.512,2.195,2.195,0,0,0-1.789.695,3.3,3.3,0,0,0-.578,2.141v4.781h-1.3v-5.57a2.309,2.309,0,0,0-.438-1.535,1.7,1.7,0,0,0-1.367-.512,2.116,2.116,0,0,0-1.785.731,3.949,3.949,0,0,0-.567,2.394v4.492h-1.3v-8.562h1.054l.211,1.172h.063a2.555,2.555,0,0,1,1.035-.977,3.162,3.162,0,0,1,1.5-.351,2.542,2.542,0,0,1,2.625,1.453h.062a2.727,2.727,0,0,1,1.11-1.063,3.441,3.441,0,0,1,1.656-.39,2.9,2.9,0,0,1,2.176.746,3.338,3.338,0,0,1,.723,2.386v5.586Z" transform="translate(11654.865 -7239.473)" fill="#fff"/>
    <path id="Trazado_22766" data-name="Trazado 22766" d="M3167.873,5504.526l-.258-1.218h-.062a3.6,3.6,0,0,1-1.278,1.089,3.873,3.873,0,0,1-1.589.286,2.86,2.86,0,0,1-2-.657,2.394,2.394,0,0,1-.722-1.867q0-2.594,4.148-2.719l1.453-.046v-.532a2.169,2.169,0,0,0-.433-1.488,1.785,1.785,0,0,0-1.387-.48,5.645,5.645,0,0,0-2.422.656l-.4-.992a6.234,6.234,0,0,1,2.9-.735,3.262,3.262,0,0,1,2.27.68,2.839,2.839,0,0,1,.738,2.18v5.843Zm-2.93-.914a2.632,2.632,0,0,0,1.9-.664,2.455,2.455,0,0,0,.691-1.859v-.774l-1.3.055a4.69,4.69,0,0,0-2.23.481,1.448,1.448,0,0,0-.684,1.324,1.336,1.336,0,0,0,.426,1.07A1.766,1.766,0,0,0,3164.943,5503.612Z" transform="translate(11654.865 -7239.473)" fill="#fff"/>
    <path id="Trazado_22767" data-name="Trazado 22767" d="M3175.412,5495.808a5.121,5.121,0,0,1,1.024.093l-.18,1.2a4.429,4.429,0,0,0-.938-.117,2.284,2.284,0,0,0-1.777.844,3.079,3.079,0,0,0-.738,2.1v4.593h-1.3v-8.562h1.07l.149,1.586h.062a3.738,3.738,0,0,1,1.149-1.289A2.583,2.583,0,0,1,3175.412,5495.808Z" transform="translate(11654.865 -7239.473)" fill="#fff"/>
    <path id="Trazado_22768" data-name="Trazado 22768" d="M3177.928,5493.644a.865.865,0,0,1,.218-.653.77.77,0,0,1,.547-.207.762.762,0,0,1,.539.211.843.843,0,0,1,.227.649.855.855,0,0,1-.227.652.792.792,0,0,1-1.086,0A.88.88,0,0,1,3177.928,5493.644Zm1.406,10.882h-1.3v-8.562h1.3Z" transform="translate(11654.865 -7239.473)" fill="#fff"/>
    <path id="Trazado_22769" data-name="Trazado 22769" d="M3183.381,5504.526h-1.3V5492.37h1.3Z" transform="translate(11654.865 -7239.473)" fill="#fff"/>
    <path id="Trazado_22770" data-name="Trazado 22770" d="M3187.428,5504.526h-1.3V5492.37h1.3Z" transform="translate(11654.865 -7239.473)" fill="#fff"/>
    <path id="Trazado_22771" data-name="Trazado 22771" d="M3197.568,5500.237a4.724,4.724,0,0,1-1.054,3.27,3.714,3.714,0,0,1-2.914,1.176,3.861,3.861,0,0,1-2.039-.539,3.559,3.559,0,0,1-1.375-1.547,5.378,5.378,0,0,1-.485-2.36,4.713,4.713,0,0,1,1.047-3.261,3.7,3.7,0,0,1,2.906-1.168,3.622,3.622,0,0,1,2.856,1.195A4.7,4.7,0,0,1,3197.568,5500.237Zm-6.523,0a4.066,4.066,0,0,0,.656,2.5,2.6,2.6,0,0,0,3.863,0,4.039,4.039,0,0,0,.661-2.5,3.97,3.97,0,0,0-.661-2.48,2.316,2.316,0,0,0-1.949-.848,2.285,2.285,0,0,0-1.922.836A4.024,4.024,0,0,0,3191.045,5500.237Z" transform="translate(11654.865 -7239.473)" fill="#fff"/>
    <path id="Trazado_22772" data-name="Trazado 22772" d="M3201.2,5502.667l.117.18q-.2.78-.586,1.816t-.8,1.926h-.977q.212-.813.465-2.008t.355-1.914Z" transform="translate(11654.865 -7239.473)" fill="#fff"/>
    <path id="Trazado_22773" data-name="Trazado 22773" d="M3211.826,5495.808a5.122,5.122,0,0,1,1.024.093l-.18,1.2a4.427,4.427,0,0,0-.938-.117,2.284,2.284,0,0,0-1.777.844,3.078,3.078,0,0,0-.738,2.1v4.593h-1.3v-8.562h1.07l.149,1.586h.062a3.749,3.749,0,0,1,1.149-1.289A2.583,2.583,0,0,1,3211.826,5495.808Z" transform="translate(11654.865 -7239.473)" fill="#fff"/>
    <path id="Trazado_22774" data-name="Trazado 22774" d="M3218.068,5504.683a3.935,3.935,0,0,1-3-1.157,4.476,4.476,0,0,1-1.1-3.211,4.966,4.966,0,0,1,1.019-3.289,3.389,3.389,0,0,1,2.738-1.218,3.227,3.227,0,0,1,2.547,1.058,4.057,4.057,0,0,1,.938,2.793v.82h-5.9a3.406,3.406,0,0,0,.762,2.29,2.637,2.637,0,0,0,2.035.781,6.914,6.914,0,0,0,2.735-.578v1.156a6.871,6.871,0,0,1-1.3.426A7.319,7.319,0,0,1,3218.068,5504.683Zm-.351-7.789a2.118,2.118,0,0,0-1.645.671,3.1,3.1,0,0,0-.722,1.86h4.476a2.847,2.847,0,0,0-.547-1.879A1.922,1.922,0,0,0,3217.717,5496.894Z" transform="translate(11654.865 -7239.473)" fill="#fff"/>
    <path id="Trazado_22775" data-name="Trazado 22775" d="M3228.951,5502.19a2.147,2.147,0,0,1-.89,1.844,4.184,4.184,0,0,1-2.5.649,5.445,5.445,0,0,1-2.657-.539v-1.2a6.445,6.445,0,0,0,1.325.493,5.5,5.5,0,0,0,1.363.179,3.092,3.092,0,0,0,1.562-.324,1.117,1.117,0,0,0,.114-1.844,6.871,6.871,0,0,0-1.692-.84,9.087,9.087,0,0,1-1.7-.777,2.334,2.334,0,0,1-.75-.754,1.967,1.967,0,0,1-.246-1.008,1.921,1.921,0,0,1,.851-1.652,3.973,3.973,0,0,1,2.336-.6,6.828,6.828,0,0,1,2.7.562l-.46,1.055a6.19,6.19,0,0,0-2.336-.531,2.686,2.686,0,0,0-1.391.289.891.891,0,0,0-.469.8.97.97,0,0,0,.176.586,1.716,1.716,0,0,0,.566.461,12.751,12.751,0,0,0,1.5.633,5.594,5.594,0,0,1,2.059,1.117A1.975,1.975,0,0,1,3228.951,5502.19Z" transform="translate(11654.865 -7239.473)" fill="#fff"/>
    <path id="Trazado_22776" data-name="Trazado 22776" d="M3233.826,5503.612a4.2,4.2,0,0,0,.664-.05,4.618,4.618,0,0,0,.508-.106v.992a2.382,2.382,0,0,1-.621.168,4.708,4.708,0,0,1-.738.067q-2.485,0-2.485-2.618v-5.093h-1.226v-.625l1.226-.539.547-1.829h.75v1.985h2.485v1.008h-2.485v5.039a1.733,1.733,0,0,0,.367,1.187A1.275,1.275,0,0,0,3233.826,5503.612Z" transform="translate(11654.865 -7239.473)" fill="#fff"/>
    <path id="Trazado_22777" data-name="Trazado 22777" d="M3241.975,5504.526l-.258-1.218h-.063a3.587,3.587,0,0,1-1.277,1.089,3.879,3.879,0,0,1-1.59.286,2.856,2.856,0,0,1-2-.657,2.394,2.394,0,0,1-.723-1.867q0-2.594,4.149-2.719l1.453-.046v-.532a2.17,2.17,0,0,0-.434-1.488,1.784,1.784,0,0,0-1.386-.48,5.641,5.641,0,0,0-2.422.656l-.4-.992a6.242,6.242,0,0,1,2.9-.735,3.261,3.261,0,0,1,2.269.68,2.839,2.839,0,0,1,.739,2.18v5.843Zm-2.93-.914a2.629,2.629,0,0,0,1.9-.664,2.456,2.456,0,0,0,.692-1.859v-.774l-1.3.055a4.694,4.694,0,0,0-2.231.481,1.447,1.447,0,0,0-.683,1.324,1.333,1.333,0,0,0,.426,1.07A1.763,1.763,0,0,0,3239.045,5503.612Z" transform="translate(11654.865 -7239.473)" fill="#fff"/>
    <path id="Trazado_22778" data-name="Trazado 22778" d="M3246.826,5495.964v5.555a2.234,2.234,0,0,0,.477,1.562,1.94,1.94,0,0,0,1.492.516,2.435,2.435,0,0,0,1.965-.735,3.7,3.7,0,0,0,.621-2.4v-4.5h1.3v8.562h-1.071l-.187-1.148h-.07a2.587,2.587,0,0,1-1.106.969,3.734,3.734,0,0,1-1.613.336,3.269,3.269,0,0,1-2.34-.743,3.156,3.156,0,0,1-.777-2.375v-5.6Z" transform="translate(11654.865 -7239.473)" fill="#fff"/>
    <path id="Trazado_22779" data-name="Trazado 22779" d="M3259.334,5495.808a5.1,5.1,0,0,1,1.023.093l-.179,1.2a4.427,4.427,0,0,0-.938-.117,2.285,2.285,0,0,0-1.777.844,3.079,3.079,0,0,0-.738,2.1v4.593h-1.3v-8.562h1.07l.148,1.586h.063a3.746,3.746,0,0,1,1.148-1.289A2.589,2.589,0,0,1,3259.334,5495.808Z" transform="translate(11654.865 -7239.473)" fill="#fff"/>
    <path id="Trazado_22780" data-name="Trazado 22780" d="M3267.225,5504.526l-.258-1.218h-.063a3.587,3.587,0,0,1-1.277,1.089,3.879,3.879,0,0,1-1.59.286,2.856,2.856,0,0,1-2-.657,2.394,2.394,0,0,1-.723-1.867q0-2.594,4.149-2.719l1.453-.046v-.532a2.17,2.17,0,0,0-.434-1.488,1.784,1.784,0,0,0-1.386-.48,5.641,5.641,0,0,0-2.422.656l-.4-.992a6.242,6.242,0,0,1,2.9-.735,3.261,3.261,0,0,1,2.269.68,2.839,2.839,0,0,1,.739,2.18v5.843Zm-2.93-.914a2.629,2.629,0,0,0,1.9-.664,2.456,2.456,0,0,0,.692-1.859v-.774l-1.3.055a4.694,4.694,0,0,0-2.231.481,1.447,1.447,0,0,0-.683,1.324,1.333,1.333,0,0,0,.426,1.07A1.763,1.763,0,0,0,3264.295,5503.612Z" transform="translate(11654.865 -7239.473)" fill="#fff"/>
    <path id="Trazado_22781" data-name="Trazado 22781" d="M3276.717,5504.526v-5.539a2.233,2.233,0,0,0-.477-1.562,1.94,1.94,0,0,0-1.492-.516,2.46,2.46,0,0,0-1.969.727,3.664,3.664,0,0,0-.625,2.4v4.492h-1.3v-8.562h1.055l.211,1.172h.063a2.641,2.641,0,0,1,1.117-.981,3.636,3.636,0,0,1,1.6-.347,3.251,3.251,0,0,1,2.328.746,3.173,3.173,0,0,1,.782,2.386v5.586Z" transform="translate(11654.865 -7239.473)" fill="#fff"/>
    <path id="Trazado_22782" data-name="Trazado 22782" d="M3283.443,5503.612a4.183,4.183,0,0,0,.664-.05,4.618,4.618,0,0,0,.508-.106v.992a2.354,2.354,0,0,1-.621.168,4.7,4.7,0,0,1-.738.067q-2.484,0-2.485-2.618v-5.093h-1.226v-.625l1.226-.539.547-1.829h.75v1.985h2.485v1.008h-2.485v5.039a1.728,1.728,0,0,0,.368,1.187A1.275,1.275,0,0,0,3283.443,5503.612Z" transform="translate(11654.865 -7239.473)" fill="#fff"/>
    <path id="Trazado_22783" data-name="Trazado 22783" d="M3289.943,5504.683a3.935,3.935,0,0,1-3-1.157,4.476,4.476,0,0,1-1.1-3.211,4.966,4.966,0,0,1,1.019-3.289,3.389,3.389,0,0,1,2.738-1.218,3.227,3.227,0,0,1,2.547,1.058,4.057,4.057,0,0,1,.938,2.793v.82h-5.9a3.406,3.406,0,0,0,.762,2.29,2.637,2.637,0,0,0,2.035.781,6.914,6.914,0,0,0,2.735-.578v1.156a6.871,6.871,0,0,1-1.3.426A7.319,7.319,0,0,1,3289.943,5504.683Zm-.351-7.789a2.118,2.118,0,0,0-1.645.671,3.1,3.1,0,0,0-.722,1.86h4.476a2.847,2.847,0,0,0-.547-1.879A1.922,1.922,0,0,0,3289.592,5496.894Z" transform="translate(11654.865 -7239.473)" fill="#fff"/>
    <path id="Trazado_22784" data-name="Trazado 22784" d="M3300.826,5502.19a2.147,2.147,0,0,1-.89,1.844,4.184,4.184,0,0,1-2.5.649,5.445,5.445,0,0,1-2.657-.539v-1.2a6.445,6.445,0,0,0,1.325.493,5.5,5.5,0,0,0,1.363.179,3.092,3.092,0,0,0,1.562-.324,1.117,1.117,0,0,0,.114-1.844,6.871,6.871,0,0,0-1.692-.84,9.087,9.087,0,0,1-1.7-.777,2.334,2.334,0,0,1-.75-.754,1.967,1.967,0,0,1-.246-1.008,1.921,1.921,0,0,1,.851-1.652,3.973,3.973,0,0,1,2.336-.6,6.828,6.828,0,0,1,2.7.562l-.46,1.055a6.19,6.19,0,0,0-2.336-.531,2.686,2.686,0,0,0-1.391.289.891.891,0,0,0-.469.8.97.97,0,0,0,.176.586,1.716,1.716,0,0,0,.566.461,12.751,12.751,0,0,0,1.5.633,5.594,5.594,0,0,1,2.059,1.117A1.975,1.975,0,0,1,3300.826,5502.19Z" transform="translate(11654.865 -7239.473)" fill="#fff"/>
    <path id="Trazado_22785" data-name="Trazado 22785" d="M3302.748,5503.7a1.166,1.166,0,0,1,.238-.793.869.869,0,0,1,.684-.269.927.927,0,0,1,.707.269,1.121,1.121,0,0,1,.254.793,1.094,1.094,0,0,1-.258.781,1.024,1.024,0,0,1-1.363.028A1.067,1.067,0,0,1,3302.748,5503.7Z" transform="translate(11654.865 -7239.473)" fill="#fff"/>
    <path id="Trazado_22786" data-name="Trazado 22786" d="M3185.107,5369.683a45.119,45.119,0,0,1,7.537-.624c3.552,0,6.96.432,9.216,2.448,2.113,1.872,2.689,4.032,2.689,6.913a8.616,8.616,0,0,1-4.9,7.969v.095c2.113.96,3.169,2.88,3.744,6.049.577,3.216,1.537,7.777,2.161,9.025h-7.777a40.725,40.725,0,0,1-1.584-7.633c-.48-3.84-1.343-4.752-2.976-4.752h-.72v12.385h-7.393Zm7.393,13.777h.96c2.4,0,3.6-2.064,3.6-4.416s-.913-4.129-3.217-4.225a3.6,3.6,0,0,0-1.344.193Z" transform="translate(11654.865 -7239.473)" fill="#fff"/>
    <path id="Trazado_22787" data-name="Trazado 22787" d="M3226.389,5389.652c0,10.129-5.952,12.289-9.5,12.289-6.24,0-9.6-4.7-9.6-12.1,0-8.4,4.705-12.289,9.65-12.289C3223.077,5377.556,3226.389,5382.548,3226.389,5389.652Zm-11.761.048c0,4.081.624,6.673,2.4,6.673,1.536,0,2.017-3.312,2.017-6.673,0-3.12-.481-6.576-2.112-6.576C3215.061,5383.124,3214.628,5386.58,3214.628,5389.7Z" transform="translate(11654.865 -7239.473)" fill="#fff"/>
    <path id="Trazado_22788" data-name="Trazado 22788" d="M3225.619,5405.3a4.725,4.725,0,0,0,3.025-1.056c.912-.816,1.056-2.5,1.056-5.713v-20.594h7.441v21.842c0,5.377-1.3,7.921-3.456,9.457-1.873,1.344-4.994,1.92-7.585,1.92Zm11.425-33.651a3.656,3.656,0,0,1-3.744,3.84,3.868,3.868,0,1,1,3.744-3.84Z" transform="translate(11654.865 -7239.473)" fill="#fff"/>
    <path id="Trazado_22789" data-name="Trazado 22789" d="M3259.6,5389.652c0,10.129-5.952,12.289-9.5,12.289-6.241,0-9.6-4.7-9.6-12.1,0-8.4,4.705-12.289,9.649-12.289C3256.293,5377.556,3259.6,5382.548,3259.6,5389.652Zm-11.76.048c0,4.081.624,6.673,2.4,6.673,1.536,0,2.016-3.312,2.016-6.673,0-3.12-.48-6.576-2.112-6.576C3248.276,5383.124,3247.844,5386.58,3247.844,5389.7Z" transform="translate(11654.865 -7239.473)" fill="#fff"/>
  </g>
</svg>
