<svg xmlns="http://www.w3.org/2000/svg" width="350.067" height="331.714" viewBox="0 0 350.067 331.714">
  <g id="Grupo_14237" data-name="Grupo 14237" transform="translate(272.219 -186.999)">
    <circle id="Elipse_899" data-name="Elipse 899" cx="154.02" cy="154.02" r="154.02" transform="translate(-238.385 197.747)" fill="#785b68"/>
    <path id="Trazado_24300" data-name="Trazado 24300" d="M-175.214,227.216v0a30.834,30.834,0,0,1-7.154,3.988,33.5,33.5,0,0,1-14.617,2.883l-.018-.061a34.983,34.983,0,0,1-8.985-1.5,53.123,53.123,0,0,1-6.4-2.411c-1.726-.769-3.414-1.608-5.124-2.411l-.295-.141.181-.268c1.05-1.57,2.064-3.162,3.146-4.709a52.831,52.831,0,0,1,4.237-5.367,37.347,37.347,0,0,1,3.7-3.555c2.47-2.556,8.794-6.068,12.583-7.216l.023,0,.025-.007a35.372,35.372,0,0,1,14.164-.379h0a37.192,37.192,0,0,1,5.385,1.189,53.127,53.127,0,0,1,6.4,2.411c1.726.769,3.416,1.606,5.124,2.411l.295.138-.181.272c-1.05,1.57-2.064,3.16-3.146,4.709a53.025,53.025,0,0,1-4.24,5.367,35.805,35.805,0,0,1-5.1,4.657Zm-9.307-17.085a11.042,11.042,0,0,1,5.183,6.68,11.039,11.039,0,0,1-1.118,8.613,30.053,30.053,0,0,0,7.247-5.918,50.778,50.778,0,0,0,4.242-5.464l.041-.057-.064-.027a50.609,50.609,0,0,0-6.453-2.493,30.176,30.176,0,0,0-9.078-1.334Zm-9.289,19.44a11.028,11.028,0,0,1-5.961-7.082,11.045,11.045,0,0,1,1.232-8.8l-.744.327a29.763,29.763,0,0,0-7.86,6.258,50.8,50.8,0,0,0-4.242,5.467l-.041.057.064.027a50.849,50.849,0,0,0,6.456,2.493,29.516,29.516,0,0,0,10.552,1.275c.181,0,.363-.009.544-.018Zm2.885-14.851a5.047,5.047,0,0,0-3.414,6.261,5.043,5.043,0,0,0,6.154,3.6,5.046,5.046,0,0,0,3.414-6.258,5.193,5.193,0,0,0-1.549-2.5,5.757,5.757,0,0,0-2.663-1.236,4.882,4.882,0,0,0-1.942.134Zm-.891-3.207a8.324,8.324,0,0,0-5.637,10.332,8.325,8.325,0,0,0,10.16,5.943,8.325,8.325,0,0,0,5.637-10.332A8.327,8.327,0,0,0-191.816,211.513Z" transform="translate(69.011 23.48)" fill="#8c8287" fill-rule="evenodd"/>
    <path id="Trazado_24301" data-name="Trazado 24301" d="M-116.087,342.379c-7.222-3.988-11.578-13.018-7.538-28.706,12.36-16.294,22.368-39.154,14.177-56.523-12.918-30.981-61.039-36.509-85.542-8.9-9.014,14.526-5.1,20.29-7.767,30.448-5.628,7.649-16.6,9.956-18.219,16.958-.5,6.426,7.345,5.818,12.356,10.8a17.078,17.078,0,0,1-3.212,8.121c-.064,1.472,1.064,2.513,3.4,3.371-2.35.179-4.242,1.508-4.392,2.885-.259,1.665,3.609,3.087,3.389,5.8-.168,3.153-.819,3.539-2.246,6.812-1.574,3.473.238,6.419,4.14,7.266a105.246,105.246,0,0,0,27.917,2.5c8.155,4.192,14.887,17.979,15.491,25.884C-142,364.954-126.49,355.653-116.087,342.379Z" transform="translate(64.966 55.045)" fill="#14b0bf" fill-rule="evenodd"/>
    <g id="Grupo_14217" data-name="Grupo 14217" transform="translate(-254.291 188.235)">
      <path id="Trazado_24302" data-name="Trazado 24302" d="M-219.927,189.755c26.968-4.686,48.987,21.527,48.987,50.979s-19.658,53.324-53.324,53.324-59.156-46.129-19.465-60.719c24.947-9.169,13.379-21.134,11.888-31.04-.8-5.3,2.94-10.983,11.913-12.544Zm3.021,9.661c-4.319,2.969-5.02,9.445-1.57,14.461s9.749,6.673,14.066,3.7,5.018-9.445,1.567-14.461S-212.589,196.445-216.906,199.416Z" transform="translate(264.824 -185.432)" fill="#e1ae15" fill-rule="evenodd"/>
      <path id="Trazado_24303" data-name="Trazado 24303" d="M-220.331,188.091c26.968-4.691,48.989,21.527,48.989,50.977S-191,292.394-224.668,292.394s-59.154-46.131-19.46-60.719c24.945-9.171,13.379-21.139,11.886-31.04-.8-5.3,2.94-10.988,11.911-12.544Zm3.021,9.659c-4.314,2.969-5.018,9.445-1.567,14.461s9.749,6.673,14.066,3.7,5.02-9.443,1.567-14.461S-212.993,194.78-217.31,197.749Z" transform="translate(264.316 -187.544)" fill="#eec64a" fill-rule="evenodd"/>
      <path id="Trazado_24304" data-name="Trazado 24304" d="M-248.914,220.649a7.9,7.9,0,0,1,7.9,7.9,7.9,7.9,0,0,1-7.9,7.9,7.9,7.9,0,0,1-7.9-7.9A7.9,7.9,0,0,1-248.914,220.649Z" transform="translate(273.833 -145.555)" fill="#9d9d9d" fill-rule="evenodd"/>
      <path id="Trazado_24305" data-name="Trazado 24305" d="M-242.134,224.6a7.871,7.871,0,0,1,.592,3.01,7.9,7.9,0,0,1-7.9,7.9,7.889,7.889,0,0,1-6.365-3.221,7.841,7.841,0,0,1-.592-3.008,7.9,7.9,0,0,1,7.9-7.9A7.894,7.894,0,0,1-242.134,224.6Z" transform="translate(274.359 -144.621)" fill="#e1e8e1" fill-rule="evenodd"/>
      <path id="Trazado_24306" data-name="Trazado 24306" d="M-238.537,222.283a7.9,7.9,0,0,1,7.9,7.9,7.9,7.9,0,0,1-7.9,7.9,7.9,7.9,0,0,1-7.9-7.9A7.9,7.9,0,0,1-238.537,222.283Z" transform="translate(286.997 -143.483)" fill="#c5262b" fill-rule="evenodd"/>
      <path id="Trazado_24307" data-name="Trazado 24307" d="M-231.753,226.24a7.9,7.9,0,0,1,.592,3.006,7.9,7.9,0,0,1-7.9,7.9,7.9,7.9,0,0,1-6.365-3.223,7.88,7.88,0,0,1-.592-3.006,7.9,7.9,0,0,1,7.9-7.9A7.9,7.9,0,0,1-231.753,226.24Z" transform="translate(287.522 -142.549)" fill="#e74037" fill-rule="evenodd"/>
      <g id="Grupo_14216" data-name="Grupo 14216" transform="translate(61.814 66.993)">
        <path id="Trazado_24308" data-name="Trazado 24308" d="M-229.164,217.078a7.9,7.9,0,0,1,7.9,7.9,7.9,7.9,0,0,1-7.9,7.9,7.9,7.9,0,0,1-7.9-7.9A7.9,7.9,0,0,1-229.164,217.078Z" transform="translate(237.065 -217.078)" fill="#5a3445" fill-rule="evenodd"/>
        <path id="Trazado_24309" data-name="Trazado 24309" d="M-222.387,221.035a7.851,7.851,0,0,1,.594,3.008,7.9,7.9,0,0,1-7.9,7.9,7.891,7.891,0,0,1-6.367-3.221,7.9,7.9,0,0,1-.592-3.008,7.9,7.9,0,0,1,7.9-7.9A7.885,7.885,0,0,1-222.387,221.035Z" transform="translate(237.591 -216.144)" fill="#785b68" fill-rule="evenodd"/>
      </g>
      <path id="Trazado_24310" data-name="Trazado 24310" d="M-225.878,207.307a7.9,7.9,0,0,1,7.9,7.9,7.9,7.9,0,0,1-7.9,7.9,7.9,7.9,0,0,1-7.9-7.9A7.9,7.9,0,0,1-225.878,207.307Z" transform="translate(303.05 -162.478)" fill="#14b0bf" fill-rule="evenodd"/>
      <path id="Trazado_24311" data-name="Trazado 24311" d="M-219.1,211.266a7.842,7.842,0,0,1,.594,3.008,7.9,7.9,0,0,1-7.9,7.9,7.877,7.877,0,0,1-6.365-3.221,7.834,7.834,0,0,1-.594-3.008,7.9,7.9,0,0,1,7.9-7.9A7.88,7.88,0,0,1-219.1,211.266Z" transform="translate(303.577 -161.542)" fill="#a5dbe5" fill-rule="evenodd"/>
    </g>
    <g id="Grupo_14222" data-name="Grupo 14222" transform="translate(-45.017 186.999)">
      <g id="Grupo_14218" data-name="Grupo 14218" transform="translate(0 25.941)">
        <path id="Trazado_24312" data-name="Trazado 24312" d="M-156.789,199.617l-14.783,21.366a2.754,2.754,0,0,0,.7,3.822l65.823,45.544a2.757,2.757,0,0,0,3.822-.694l14.783-21.366a2.758,2.758,0,0,0-.7-3.824l-65.821-45.544A2.757,2.757,0,0,0-156.789,199.617Z" transform="translate(172.057 -198.435)" fill="#f1f1f5" fill-rule="evenodd"/>
        <rect id="Rectángulo_3843" data-name="Rectángulo 3843" width="25.48" height="11.365" transform="translate(12.752 30.729) rotate(-55.319)" fill="#f1ce65"/>
        <rect id="Rectángulo_3844" data-name="Rectángulo 3844" width="25.481" height="11.365" transform="translate(23.007 37.825) rotate(-55.319)" fill="#eec64a"/>
        <rect id="Rectángulo_3845" data-name="Rectángulo 3845" width="25.48" height="11.365" transform="translate(33.262 44.922) rotate(-55.319)" fill="#ecbc2c"/>
        <rect id="Rectángulo_3846" data-name="Rectángulo 3846" width="25.481" height="11.365" transform="translate(43.517 52.018) rotate(-55.319)" fill="#e1ae15"/>
        <rect id="Rectángulo_3847" data-name="Rectángulo 3847" width="25.481" height="11.365" transform="translate(53.773 59.113) rotate(-55.319)" fill="#c39713"/>
        <rect id="Rectángulo_3848" data-name="Rectángulo 3848" width="25.481" height="11.365" transform="matrix(0.569, -0.822, 0.822, 0.569, 2.562, 23.679)" fill="#f4d782"/>
      </g>
      <g id="Grupo_14219" data-name="Grupo 14219" transform="translate(21.758 6.046)">
        <path id="Trazado_24313" data-name="Trazado 24313" d="M-138.851,190.054l-22.282,13.358a2.758,2.758,0,0,0-.944,3.77l41.161,68.649a2.758,2.758,0,0,0,3.77.944l22.284-13.361a2.757,2.757,0,0,0,.941-3.77L-135.081,191A2.754,2.754,0,0,0-138.851,190.054Z" transform="translate(162.465 -189.664)" fill="#e1e8e1" fill-rule="evenodd"/>
        <rect id="Rectángulo_3849" data-name="Rectángulo 3849" width="25.479" height="11.366" transform="matrix(0.858, -0.514, 0.514, 0.858, 9.128, 26.264)" fill="#e74037"/>
        <rect id="Rectángulo_3850" data-name="Rectángulo 3850" width="25.48" height="11.365" transform="translate(15.541 36.961) rotate(-30.945)" fill="#e2251c"/>
        <rect id="Rectángulo_3851" data-name="Rectángulo 3851" width="25.481" height="11.365" transform="matrix(0.858, -0.514, 0.514, 0.858, 21.954, 47.656)" fill="#c62018"/>
        <rect id="Rectángulo_3852" data-name="Rectángulo 3852" width="25.482" height="11.365" transform="matrix(0.858, -0.514, 0.514, 0.858, 28.368, 58.353)" fill="#c5262b"/>
        <rect id="Rectángulo_3853" data-name="Rectángulo 3853" width="25.48" height="11.365" transform="translate(34.781 69.048) rotate(-30.945)" fill="#a72123"/>
        <rect id="Rectángulo_3854" data-name="Rectángulo 3854" width="25.481" height="11.365" transform="matrix(0.858, -0.514, 0.514, 0.858, 2.755, 15.638)" fill="#eb5851"/>
      </g>
      <g id="Grupo_14221" data-name="Grupo 14221" transform="translate(53.203)">
        <path id="Trazado_24314" data-name="Trazado 24314" d="M-120.349,187.017l-25.816,2.935a2.761,2.761,0,0,0-2.42,3.042l9.051,79.531a2.76,2.76,0,0,0,3.04,2.42l25.816-2.94a2.756,2.756,0,0,0,2.42-3.04l-9.051-79.531A2.752,2.752,0,0,0-120.349,187.017Z" transform="translate(148.603 -186.999)" fill="#f1f1f5" fill-rule="evenodd"/>
        <g id="Grupo_14220" data-name="Grupo 14220" transform="translate(2.953 2.383)">
          <rect id="Rectángulo_3855" data-name="Rectángulo 3855" width="25.48" height="11.366" transform="translate(1.401 15.192) rotate(-6.489)" fill="#a5dbe5"/>
          <rect id="Rectángulo_3856" data-name="Rectángulo 3856" width="25.482" height="11.365" transform="translate(2.811 27.584) rotate(-6.489)" fill="#7dcbdb"/>
          <rect id="Rectángulo_3857" data-name="Rectángulo 3857" width="25.481" height="11.365" transform="translate(4.22 39.975) rotate(-6.49)" fill="#14b0bf"/>
          <rect id="Rectángulo_3858" data-name="Rectángulo 3858" width="25.481" height="11.366" transform="translate(5.63 52.365) rotate(-6.489)" fill="#018a9d"/>
          <rect id="Rectángulo_3859" data-name="Rectángulo 3859" width="25.481" height="11.365" transform="translate(7.04 64.757) rotate(-6.494)" fill="#026d7e"/>
          <rect id="Rectángulo_3860" data-name="Rectángulo 3860" width="25.48" height="11.365" transform="translate(0 2.88) rotate(-6.49)" fill="#b6e1ea"/>
        </g>
      </g>
    </g>
    <g id="Grupo_14223" data-name="Grupo 14223" transform="translate(-119.561 249.873)">
      <path id="Trazado_24315" data-name="Trazado 24315" d="M-165.191,222.166a31.2,31.2,0,0,0-31.194,31.194,31.072,31.072,0,0,0,7.76,20.585h0l.05.052q.4.463.832.91a31.4,31.4,0,0,1,8.284,21.077,2.816,2.816,0,0,0,2.808,2.808h22.924a2.816,2.816,0,0,0,2.808-2.808,31.4,31.4,0,0,1,8.284-21.077c.286-.3.56-.6.833-.91l.05-.052h0A31.072,31.072,0,0,0-134,253.36,31.194,31.194,0,0,0-165.191,222.166Z" transform="translate(215.745 -205.269)" fill="#fdc00f" fill-rule="evenodd"/>
      <path id="Trazado_24316" data-name="Trazado 24316" d="M-151.062,269.864l-.039.043-.066.086q-.313.4-.642.787l-.086.1-.084.107a46.513,46.513,0,0,0-9.847,24.2h-14.731a46.494,46.494,0,0,0-9.847-24.2l-.084-.107-.088-.1c-.22-.261-.438-.531-.651-.8l-.045-.061a28.794,28.794,0,0,1-5.959-17.838c0-14.953,10.761-27.073,24.04-27.073s24.04,12.12,24.04,27.073A29.025,29.025,0,0,1-151.062,269.864Z" transform="translate(219.745 -201.666)" fill="#ffe721" fill-rule="evenodd"/>
      <rect id="Rectángulo_3861" data-name="Rectángulo 3861" width="23.219" height="12.292" transform="translate(38.797 93.524)" fill="#785b68"/>
      <path id="Trazado_24317" data-name="Trazado 24317" d="M-179.682,285.519a240.065,240.065,0,0,1,.023-26.152,82.055,82.055,0,0,1,1.74-12.533,14.855,14.855,0,0,0,4.088.982c6.8.531,10.439-6.478,7.8-12.362-2.364-5.265-6.642-2.275-9.048,1.515a30.064,30.064,0,0,0-3.464,8.627,24.372,24.372,0,0,1-3.008-1.613c-.175-.111-.327-.211-.458-.295l-.771.488c.177.113.61.485.749.569a24.012,24.012,0,0,0,3.271,1.742,82.571,82.571,0,0,0-1.8,12.816,241.9,241.9,0,0,0-.023,26.252l.905-.036Zm1.978-39.569a29.337,29.337,0,0,1,3.387-8.495c1.937-3.051,5.4-6.2,7.454-1.631,2.364,5.256-.785,11.569-6.9,11.09A14.083,14.083,0,0,1-177.7,245.95Z" transform="translate(232.994 -192.011)" fill="#fff" fill-rule="evenodd"/>
      <path id="Trazado_24318" data-name="Trazado 24318" d="M-175.359,285.519a239.488,239.488,0,0,0-.023-26.152,82.059,82.059,0,0,0-1.74-12.533,14.836,14.836,0,0,1-4.088.982c-6.8.531-10.439-6.478-7.8-12.362,2.366-5.265,6.644-2.275,9.048,1.515a30.065,30.065,0,0,1,3.464,8.627,24.372,24.372,0,0,0,3.008-1.613c.177-.111.327-.211.458-.295l.5.753c-.177.116-.336.22-.472.3a24.04,24.04,0,0,1-3.273,1.742,82.3,82.3,0,0,1,1.8,12.816,240.749,240.749,0,0,1,.023,26.252l-.905-.036Zm-1.978-39.569a29.337,29.337,0,0,0-3.387-8.495c-1.937-3.051-5.4-6.2-7.454-1.631-2.364,5.256.787,11.569,6.9,11.09A14.087,14.087,0,0,0-177.337,245.95Z" transform="translate(224.008 -192.011)" fill="#fff" fill-rule="evenodd"/>
      <path id="Trazado_24319" data-name="Trazado 24319" d="M-187.816,261.366a10.906,10.906,0,0,0,10.872,10.872h1.474A10.9,10.9,0,0,0-164.6,261.366Z" transform="translate(226.613 -155.55)" fill="#5a3445" fill-rule="evenodd"/>
      <rect id="Rectángulo_3862" data-name="Rectángulo 3862" width="24.652" height="2.527" transform="translate(38.081 93.347)" fill="#785b68"/>
      <rect id="Rectángulo_3863" data-name="Rectángulo 3863" width="24.652" height="2.525" transform="translate(38.081 98.402)" fill="#785b68"/>
      <rect id="Rectángulo_3864" data-name="Rectángulo 3864" width="24.652" height="2.525" transform="translate(38.081 103.454)" fill="#785b68"/>
      <path id="Trazado_24320" data-name="Trazado 24320" d="M-164.546,256.983h-23.269v2.528h20.691Z" transform="translate(226.613 -161.109)" fill="#5a3445" fill-rule="evenodd"/>
      <path id="Trazado_24321" data-name="Trazado 24321" d="M-164.546,259.211h-23.269v2.527h20.691Z" transform="translate(226.613 -158.284)" fill="#5a3445" fill-rule="evenodd"/>
      <path id="Trazado_24322" data-name="Trazado 24322" d="M-180.85,227.615a1.146,1.146,0,0,1-1.143,1.143,1.146,1.146,0,0,1-1.143-1.143V215.86a1.144,1.144,0,0,1,1.143-1.143,1.144,1.144,0,0,1,1.143,1.143Z" transform="translate(232.548 -214.717)" fill="#fff" fill-rule="evenodd"/>
      <path id="Trazado_24323" data-name="Trazado 24323" d="M-184.508,227.923a1.141,1.141,0,0,1-.683,1.463,1.142,1.142,0,0,1-1.465-.683l-4.02-11.045a1.144,1.144,0,0,1,.683-1.465,1.144,1.144,0,0,1,1.465.685Z" transform="translate(222.899 -212.932)" fill="#fff" fill-rule="evenodd"/>
      <path id="Trazado_24324" data-name="Trazado 24324" d="M-187.84,229.461a1.143,1.143,0,0,1-.141,1.611,1.142,1.142,0,0,1-1.611-.143l-7.554-9a1.143,1.143,0,0,1,.141-1.611,1.143,1.143,0,0,1,1.611.141Z" transform="translate(214.442 -207.953)" fill="#fff" fill-rule="evenodd"/>
      <path id="Trazado_24325" data-name="Trazado 24325" d="M-190.442,232.046a1.145,1.145,0,0,1,.417,1.563,1.14,1.14,0,0,1-1.561.417l-10.178-5.875a1.141,1.141,0,0,1-.417-1.561,1.142,1.142,0,0,1,1.561-.42Z" transform="translate(208.198 -200.383)" fill="#fff" fill-rule="evenodd"/>
      <path id="Trazado_24326" data-name="Trazado 24326" d="M-192,235.368a1.146,1.146,0,0,1,.928,1.325,1.146,1.146,0,0,1-1.325.928l-11.573-2.042a1.143,1.143,0,0,1-.928-1.325,1.143,1.143,0,0,1,1.325-.925Z" transform="translate(204.92 -191.133)" fill="#fff" fill-rule="evenodd"/>
      <path id="Trazado_24327" data-name="Trazado 24327" d="M-192.334,240.166a1.14,1.14,0,0,1,1.322.928,1.14,1.14,0,0,1-.928,1.322l-11.575,2.042a1.143,1.143,0,0,1-1.322-.928,1.146,1.146,0,0,1,.928-1.325Z" transform="translate(205.002 -182.461)" fill="#fff" fill-rule="evenodd"/>
      <path id="Trazado_24328" data-name="Trazado 24328" d="M-191.4,245.86a1.138,1.138,0,0,1,1.561.417,1.14,1.14,0,0,1-.417,1.561l-10.178,5.877a1.142,1.142,0,0,1-1.561-.42,1.141,1.141,0,0,1,.417-1.561Z" transform="translate(208.436 -175.414)" fill="#fff" fill-rule="evenodd"/>
      <path id="Trazado_24329" data-name="Trazado 24329" d="M-189.3,250.619a1.143,1.143,0,0,1,1.611-.141,1.143,1.143,0,0,1,.141,1.611l-7.554,9a1.144,1.144,0,0,1-1.611.141,1.143,1.143,0,0,1-.141-1.611Z" transform="translate(214.807 -169.698)" fill="#fff" fill-rule="evenodd"/>
      <path id="Trazado_24330" data-name="Trazado 24330" d="M-171.549,251.849a1.145,1.145,0,0,1,.141-1.611,1.143,1.143,0,0,1,1.611.138l7.554,9.005a1.141,1.141,0,0,1-.141,1.61,1.143,1.143,0,0,1-1.608-.143Z" transform="translate(246.907 -170.004)" fill="#fff" fill-rule="evenodd"/>
      <path id="Trazado_24331" data-name="Trazado 24331" d="M-167.479,247.514a1.145,1.145,0,0,1-.417-1.561,1.139,1.139,0,0,1,1.561-.42l10.178,5.877a1.14,1.14,0,0,1,.42,1.558,1.143,1.143,0,0,1-1.561.42Z" transform="translate(251.684 -175.827)" fill="#fff" fill-rule="evenodd"/>
      <path id="Trazado_24332" data-name="Trazado 24332" d="M-165.136,242.047a1.147,1.147,0,0,1-.928-1.325,1.147,1.147,0,0,1,1.325-.928l11.575,2.042a1.146,1.146,0,0,1,.928,1.325,1.144,1.144,0,0,1-1.325.926Z" transform="translate(254.181 -182.932)" fill="#fff" fill-rule="evenodd"/>
      <path id="Trazado_24333" data-name="Trazado 24333" d="M-164.8,237.248a1.141,1.141,0,0,1-1.325-.925A1.144,1.144,0,0,1-165.2,235l11.575-2.039a1.139,1.139,0,0,1,1.322.925,1.141,1.141,0,0,1-.928,1.322Z" transform="translate(254.099 -191.603)" fill="#fff" fill-rule="evenodd"/>
      <path id="Trazado_24334" data-name="Trazado 24334" d="M-166.524,233.7a1.141,1.141,0,0,1-1.561-.415,1.147,1.147,0,0,1,.417-1.563l10.18-5.877a1.145,1.145,0,0,1,1.561.42,1.14,1.14,0,0,1-.42,1.558Z" transform="translate(251.445 -200.796)" fill="#fff" fill-rule="evenodd"/>
      <path id="Trazado_24335" data-name="Trazado 24335" d="M-170.086,230.689a1.146,1.146,0,0,1-1.611.143,1.145,1.145,0,0,1-.141-1.611l7.556-9a1.141,1.141,0,0,1,1.608-.143,1.141,1.141,0,0,1,.141,1.611Z" transform="translate(246.542 -208.259)" fill="#fff" fill-rule="evenodd"/>
      <path id="Trazado_24336" data-name="Trazado 24336" d="M-175.061,228.576a1.141,1.141,0,0,1-1.465.68,1.141,1.141,0,0,1-.683-1.463l4.02-11.045a1.141,1.141,0,0,1,1.465-.683,1.144,1.144,0,0,1,.683,1.465Z" transform="translate(239.978 -213.095)" fill="#fff" fill-rule="evenodd"/>
    </g>
    <g id="Grupo_14225" data-name="Grupo 14225" transform="translate(-23.483 368.859)">
      <path id="Trazado_24337" data-name="Trazado 24337" d="M-162.564,268.222h81.44V374.315h-81.44V268.222Z" transform="translate(162.564 -265.84)" fill="#e1e8e1" fill-rule="evenodd"/>
      <path id="Trazado_24338" data-name="Trazado 24338" d="M-162.564,268.222h81.418V374.314h-64.486l-16.932-16.567Z" transform="translate(162.564 -265.84)" fill="#f1f1f5" fill-rule="evenodd"/>
      <path id="Trazado_24339" data-name="Trazado 24339" d="M-138.571,324.3l-16.651-16.651V324.3Z" transform="translate(171.875 -215.829)" fill="#e1e8e1" fill-rule="evenodd"/>
      <path id="Trazado_24340" data-name="Trazado 24340" d="M-145.911,324.3l-16.653-16.651h16.653Z" transform="translate(162.564 -215.829)" fill="#fff" fill-rule="evenodd"/>
      <g id="Grupo_14224" data-name="Grupo 14224" transform="translate(7.71 23.021)">
        <path id="Trazado_24341" data-name="Trazado 24341" d="M-126.537,278.223l31.172,31.167.279.281-.279.279-31.172,31.169-.279.281-.279-.281-31.169-31.169-.279-.279.279-.281,31.169-31.167.279-.281.279.281ZM-96.2,309.672l-30.614-30.611-30.611,30.611,30.611,30.609Z" transform="translate(159.954 -276.533)" fill="#402431" fill-rule="evenodd"/>
        <path id="Trazado_24342" data-name="Trazado 24342" d="M-143.767,277.321a1.411,1.411,0,0,1,1.413,1.409,1.411,1.411,0,0,1-1.413,1.411,1.411,1.411,0,0,1-1.411-1.411A1.41,1.41,0,0,1-143.767,277.321Z" transform="translate(176.905 -277.321)" fill="#402431" fill-rule="evenodd"/>
        <path id="Trazado_24343" data-name="Trazado 24343" d="M-129.9,291.43a1.414,1.414,0,0,1,1.411,1.413,1.411,1.411,0,0,1-1.411,1.411,1.41,1.41,0,0,1-1.411-1.411A1.413,1.413,0,0,1-129.9,291.43Z" transform="translate(194.491 -259.426)" fill="#402431" fill-rule="evenodd"/>
        <path id="Trazado_24344" data-name="Trazado 24344" d="M-157.754,291.307a1.413,1.413,0,0,1,1.411,1.413,1.408,1.408,0,0,1-1.411,1.409,1.408,1.408,0,0,1-1.411-1.409A1.413,1.413,0,0,1-157.754,291.307Z" transform="translate(159.165 -259.582)" fill="#402431" fill-rule="evenodd"/>
        <path id="Trazado_24345" data-name="Trazado 24345" d="M-143.705,305.234a1.41,1.41,0,0,1,1.411,1.411,1.41,1.41,0,0,1-1.411,1.411,1.409,1.409,0,0,1-1.411-1.411A1.409,1.409,0,0,1-143.705,305.234Z" transform="translate(176.984 -241.918)" fill="#402431" fill-rule="evenodd"/>
        <path id="Trazado_24346" data-name="Trazado 24346" d="M-154.051,277.958h44.475v63.387h-44.87V277.958Zm43.684.789h-43.289v61.808h43.289Z" transform="translate(165.15 -276.513)" fill="#402431" fill-rule="evenodd"/>
        <path id="Trazado_24347" data-name="Trazado 24347" d="M-129.476,282.19l-24.843,24.621a22.9,22.9,0,0,1-.12-2.345c0-.658.029-1.309.084-1.951l20.583-20.4c.576-.045,1.161-.068,1.751-.068a22.486,22.486,0,0,1,2.545.143Zm3.643.721-27.794,27.549a22.322,22.322,0,0,0,1.15,3.189l29.824-29.557a22.227,22.227,0,0,0-3.18-1.182Zm11.85,8.236-1.329-1.334-31.589,31.31.717.719q.81.66,1.676,1.241l31.219-30.94c-.222-.338-.456-.669-.694-1Zm2.336,3.954-29.917,29.656a22.322,22.322,0,0,0,3.158,1.2l27.937-27.69a22.076,22.076,0,0,0-1.177-3.169Zm1.924,7.018-24.841,24.621a22.446,22.446,0,0,0,2.543.143q.885,0,1.753-.066l20.583-20.4c.054-.642.082-1.3.082-1.951a22.9,22.9,0,0,0-.12-2.345Zm-39.385,16.861,31.292-31.017-2.169-2.182-30.97,30.7A22.976,22.976,0,0,0-149.108,318.98Z" transform="translate(165.159 -271.327)" fill="#e74037" fill-rule="evenodd"/>
        <path id="Trazado_24348" data-name="Trazado 24348" d="M-132.021,282.047a22.357,22.357,0,0,1,15.853,6.565,22.357,22.357,0,0,1,6.565,15.853,22.353,22.353,0,0,1-6.565,15.853,22.357,22.357,0,0,1-15.853,6.565,22.348,22.348,0,0,1-15.851-6.565,22.355,22.355,0,0,1-6.567-15.853,22.359,22.359,0,0,1,6.567-15.853,22.348,22.348,0,0,1,15.851-6.565Zm13.671,8.747a19.283,19.283,0,0,0-13.671-5.662,19.282,19.282,0,0,0-13.669,5.662,19.282,19.282,0,0,0-5.662,13.671,19.274,19.274,0,0,0,5.662,13.671,19.273,19.273,0,0,0,13.669,5.662,19.274,19.274,0,0,0,13.671-5.662,19.274,19.274,0,0,0,5.662-13.671A19.282,19.282,0,0,0-118.35,290.794Z" transform="translate(165.159 -271.327)" fill="#e74037" fill-rule="evenodd"/>
      </g>
      <path id="Trazado_24349" data-name="Trazado 24349" d="M-155.277,269.794a3.643,3.643,0,0,1,3.645,3.643,3.645,3.645,0,0,1-3.645,3.645,3.645,3.645,0,0,1-3.645-3.645A3.643,3.643,0,0,1-155.277,269.794Z" transform="translate(167.183 -263.846)" fill="#5a3445" fill-rule="evenodd"/>
      <path id="Trazado_24350" data-name="Trazado 24350" d="M-152.15,271.619a3.626,3.626,0,0,1,.274,1.388,3.645,3.645,0,0,1-3.645,3.645,3.641,3.641,0,0,1-2.937-1.486,3.675,3.675,0,0,1-.272-1.388,3.644,3.644,0,0,1,3.645-3.645A3.64,3.64,0,0,1-152.15,271.619Z" transform="translate(167.427 -263.416)" fill="#785b68" fill-rule="evenodd"/>
      <path id="Trazado_24351" data-name="Trazado 24351" d="M-148.928,269.794a3.643,3.643,0,0,1,3.645,3.643,3.645,3.645,0,0,1-3.645,3.645,3.645,3.645,0,0,1-3.645-3.645A3.643,3.643,0,0,1-148.928,269.794Z" transform="translate(175.236 -263.846)" fill="#5a3445" fill-rule="evenodd"/>
      <path id="Trazado_24352" data-name="Trazado 24352" d="M-145.8,271.619a3.625,3.625,0,0,1,.274,1.388,3.645,3.645,0,0,1-3.645,3.645,3.641,3.641,0,0,1-2.938-1.486,3.632,3.632,0,0,1-.272-1.388,3.644,3.644,0,0,1,3.645-3.645A3.643,3.643,0,0,1-145.8,271.619Z" transform="translate(175.48 -263.416)" fill="#785b68" fill-rule="evenodd"/>
      <path id="Trazado_24353" data-name="Trazado 24353" d="M-142.579,269.794a3.643,3.643,0,0,1,3.645,3.643,3.645,3.645,0,0,1-3.645,3.645,3.645,3.645,0,0,1-3.645-3.645A3.643,3.643,0,0,1-142.579,269.794Z" transform="translate(183.289 -263.846)" fill="#5a3445" fill-rule="evenodd"/>
      <path id="Trazado_24354" data-name="Trazado 24354" d="M-139.45,271.619a3.625,3.625,0,0,1,.274,1.388,3.645,3.645,0,0,1-3.645,3.645,3.645,3.645,0,0,1-2.938-1.486,3.634,3.634,0,0,1-.274-1.388,3.645,3.645,0,0,1,3.645-3.645A3.641,3.641,0,0,1-139.45,271.619Z" transform="translate(183.531 -263.416)" fill="#785b68" fill-rule="evenodd"/>
      <path id="Trazado_24355" data-name="Trazado 24355" d="M-136.23,269.794a3.641,3.641,0,0,1,3.643,3.643,3.643,3.643,0,0,1-3.643,3.645,3.644,3.644,0,0,1-3.645-3.645A3.642,3.642,0,0,1-136.23,269.794Z" transform="translate(191.341 -263.846)" fill="#5a3445" fill-rule="evenodd"/>
      <path id="Trazado_24356" data-name="Trazado 24356" d="M-133.1,271.619a3.624,3.624,0,0,1,.272,1.388,3.643,3.643,0,0,1-3.643,3.645,3.641,3.641,0,0,1-2.938-1.486,3.632,3.632,0,0,1-.272-1.388,3.643,3.643,0,0,1,3.643-3.645A3.645,3.645,0,0,1-133.1,271.619Z" transform="translate(191.585 -263.416)" fill="#785b68" fill-rule="evenodd"/>
      <path id="Trazado_24357" data-name="Trazado 24357" d="M-129.881,269.794a3.643,3.643,0,0,1,3.645,3.643,3.645,3.645,0,0,1-3.645,3.645,3.644,3.644,0,0,1-3.645-3.645A3.642,3.642,0,0,1-129.881,269.794Z" transform="translate(199.394 -263.846)" fill="#5a3445" fill-rule="evenodd"/>
      <path id="Trazado_24358" data-name="Trazado 24358" d="M-126.752,271.619a3.625,3.625,0,0,1,.274,1.388,3.645,3.645,0,0,1-3.645,3.645,3.641,3.641,0,0,1-2.937-1.486,3.633,3.633,0,0,1-.274-1.388,3.645,3.645,0,0,1,3.645-3.645A3.645,3.645,0,0,1-126.752,271.619Z" transform="translate(199.636 -263.416)" fill="#785b68" fill-rule="evenodd"/>
      <path id="Trazado_24359" data-name="Trazado 24359" d="M-156.341,267.172h0a1.743,1.743,0,0,1,1.74,1.74v8.413a1.745,1.745,0,0,1-1.74,1.742h0a1.748,1.748,0,0,1-1.742-1.742v-8.413A1.746,1.746,0,0,1-156.341,267.172Z" transform="translate(168.247 -267.172)" fill="#14b0bf" fill-rule="evenodd"/>
      <path id="Trazado_24360" data-name="Trazado 24360" d="M-149.992,267.172h0a1.745,1.745,0,0,1,1.742,1.74v8.413a1.747,1.747,0,0,1-1.742,1.742h0a1.747,1.747,0,0,1-1.742-1.742v-8.413A1.745,1.745,0,0,1-149.992,267.172Z" transform="translate(176.3 -267.172)" fill="#14b0bf" fill-rule="evenodd"/>
      <path id="Trazado_24361" data-name="Trazado 24361" d="M-143.643,267.172h0a1.746,1.746,0,0,1,1.742,1.74v8.413a1.748,1.748,0,0,1-1.742,1.742h0a1.747,1.747,0,0,1-1.742-1.742v-8.413A1.745,1.745,0,0,1-143.643,267.172Z" transform="translate(184.353 -267.172)" fill="#14b0bf" fill-rule="evenodd"/>
      <path id="Trazado_24362" data-name="Trazado 24362" d="M-137.294,267.172h0a1.744,1.744,0,0,1,1.74,1.74v8.413a1.746,1.746,0,0,1-1.74,1.742h0a1.748,1.748,0,0,1-1.742-1.742v-8.413A1.746,1.746,0,0,1-137.294,267.172Z" transform="translate(192.406 -267.172)" fill="#14b0bf" fill-rule="evenodd"/>
      <path id="Trazado_24363" data-name="Trazado 24363" d="M-130.945,267.172h0a1.745,1.745,0,0,1,1.74,1.74v8.413a1.746,1.746,0,0,1-1.74,1.742h0a1.747,1.747,0,0,1-1.742-1.742v-8.413A1.745,1.745,0,0,1-130.945,267.172Z" transform="translate(200.458 -267.172)" fill="#14b0bf" fill-rule="evenodd"/>
    </g>
    <g id="Grupo_14229" data-name="Grupo 14229" transform="translate(-272.219 322.514)">
      <g id="Grupo_14226" data-name="Grupo 14226" transform="translate(43.748 16.722)">
        <path id="Trazado_24364" data-name="Trazado 24364" d="M-244.724,264.615l.236,6.03-8.169,1.316-.276-7.022,3.685-10.826h0Z" transform="translate(252.934 -254.113)" fill="#ffd621" fill-rule="evenodd"/>
        <path id="Trazado_24365" data-name="Trazado 24365" d="M-246.785,264.615l-3.077-7.144-1.447-3.358,2.469,10.589.12,3,2.049-.191Z" transform="translate(254.994 -254.113)" fill="#e5be01" fill-rule="evenodd"/>
        <path id="Trazado_24366" data-name="Trazado 24366" d="M-252.933,264.939l2.507-7.366,1.179-3.46-1.632,10.75.116,3-2.056-.029Z" transform="translate(252.934 -254.113)" fill="#ffe263" fill-rule="evenodd"/>
        <path id="Trazado_24367" data-name="Trazado 24367" d="M-248.17,258.742a1.037,1.037,0,0,1-2.051.082l3.158,80.2,2.051-.079Z" transform="translate(256.373 -248.242)" fill="#c5262b" fill-rule="evenodd"/>
        <path id="Trazado_24368" data-name="Trazado 24368" d="M-247.925,258.778h0c-.261,1.431-3.455,1.887-4.1.177l3.151,80.186,2.053-.082,2.053-.084Z" transform="translate(254.081 -248.196)" fill="#e74037" fill-rule="evenodd"/>
        <path id="Trazado_24369" data-name="Trazado 24369" d="M-250.88,258.856a1.039,1.039,0,0,1-2.053.079l3.16,80.186,2.051-.079Z" transform="translate(252.933 -248.097)" fill="#c5262b" fill-rule="evenodd"/>
        <path id="Trazado_24370" data-name="Trazado 24370" d="M-251.828,257.573l1.179-3.46h0l1.447,3.358Z" transform="translate(254.335 -254.113)" fill="#c5262b" fill-rule="evenodd"/>
        <rect id="Rectángulo_3865" data-name="Rectángulo 3865" width="4.108" height="2.314" transform="translate(7.037 85.289) rotate(-2.225)" fill="#e5be01"/>
        <rect id="Rectángulo_3866" data-name="Rectángulo 3866" width="4.107" height="2.315" transform="translate(4.985 85.369) rotate(-2.225)" fill="#ffd302"/>
        <rect id="Rectángulo_3867" data-name="Rectángulo 3867" width="2.054" height="2.317" transform="translate(2.932 85.451) rotate(-2.284)" fill="#ffe263"/>
      </g>
      <g id="Grupo_14227" data-name="Grupo 14227" transform="translate(0 3.403)">
        <path id="Trazado_24371" data-name="Trazado 24371" d="M-264.342,257.31l1.711,5.786-7.6,3.283-1.992-6.741.914-11.4h0Z" transform="translate(272.219 -248.241)" fill="#ffd621" fill-rule="evenodd"/>
        <path id="Trazado_24372" data-name="Trazado 24372" d="M-264.853,257.31l-4.737-6.169-2.226-2.9,4.994,9.658.854,2.882,1.938-.689Z" transform="translate(272.73 -248.241)" fill="#e5be01" fill-rule="evenodd"/>
        <path id="Trazado_24373" data-name="Trazado 24373" d="M-272.219,259.638l.622-7.753.292-3.644,1.06,10.821.85,2.882-2,.476Z" transform="translate(272.219 -248.241)" fill="#ffe263" fill-rule="evenodd"/>
        <path id="Trazado_24374" data-name="Trazado 24374" d="M-267.648,252.239a1.038,1.038,0,0,1-1.969.583l22.758,76.967,1.967-.581Z" transform="translate(275.52 -243.17)" fill="#018a9d" fill-rule="evenodd"/>
        <path id="Trazado_24375" data-name="Trazado 24375" d="M-267.416,252.495h0c.1,1.452-2.885,2.679-3.933,1.18L-248.6,330.63l1.971-.583,1.969-.583Z" transform="translate(273.323 -242.845)" fill="#14b0bf" fill-rule="evenodd"/>
        <path id="Trazado_24376" data-name="Trazado 24376" d="M-270.247,253.015a1.039,1.039,0,0,1-1.971.581l22.754,76.956,1.969-.583Z" transform="translate(272.221 -242.186)" fill="#018a9d" fill-rule="evenodd"/>
        <path id="Trazado_24377" data-name="Trazado 24377" d="M-271.945,251.885l.292-3.644h0l2.226,2.9Z" transform="translate(272.567 -248.241)" fill="#14b0bf" fill-rule="evenodd"/>
        <rect id="Rectángulo_3868" data-name="Rectángulo 3868" width="4.107" height="2.316" transform="translate(25.108 81.853) rotate(-16.451)" fill="#e5be01"/>
        <rect id="Rectángulo_3869" data-name="Rectángulo 3869" width="4.107" height="2.315" transform="translate(23.139 82.436) rotate(-16.451)" fill="#ffd302"/>
        <rect id="Rectángulo_3870" data-name="Rectángulo 3870" width="2.055" height="2.316" transform="translate(21.168 83.019) rotate(-16.476)" fill="#ffe263"/>
      </g>
      <g id="Grupo_14228" data-name="Grupo 14228" transform="translate(11.508)">
        <path id="Trazado_24378" data-name="Trazado 24378" d="M-259.268,255.81l1.71,5.788-7.6,3.283-1.992-6.741.914-11.4h0Z" transform="translate(267.146 -246.741)" fill="#ffd621" fill-rule="evenodd"/>
        <path id="Trazado_24379" data-name="Trazado 24379" d="M-259.779,255.81l-4.738-6.169-2.226-2.9,4.994,9.658.854,2.882,1.938-.689Z" transform="translate(267.657 -246.741)" fill="#e5be01" fill-rule="evenodd"/>
        <path id="Trazado_24380" data-name="Trazado 24380" d="M-267.146,258.14l.622-7.753.291-3.646,1.06,10.823.849,2.882-2,.476Z" transform="translate(267.146 -246.741)" fill="#ffe263" fill-rule="evenodd"/>
        <path id="Trazado_24381" data-name="Trazado 24381" d="M-262.576,250.74a1.037,1.037,0,0,1-1.967.581l22.756,76.967,1.969-.581Z" transform="translate(270.447 -241.668)" fill="#fc0" fill-rule="evenodd"/>
        <path id="Trazado_24382" data-name="Trazado 24382" d="M-262.34,251h0c.1,1.449-2.885,2.677-3.936,1.177l22.747,76.956,1.969-.583,1.969-.581Z" transform="translate(268.249 -241.344)" fill="#ffe721" fill-rule="evenodd"/>
        <path id="Trazado_24383" data-name="Trazado 24383" d="M-265.175,251.515a1.038,1.038,0,0,1-1.969.583l22.752,76.954,1.971-.583Z" transform="translate(267.148 -240.686)" fill="#ff0" fill-rule="evenodd"/>
        <path id="Trazado_24384" data-name="Trazado 24384" d="M-266.871,250.387l.291-3.646h0l2.226,2.9Z" transform="translate(267.494 -246.741)" fill="#ffe721" fill-rule="evenodd"/>
        <rect id="Rectángulo_3871" data-name="Rectángulo 3871" width="4.108" height="2.316" transform="translate(25.108 81.856) rotate(-16.477)" fill="#ff0"/>
        <rect id="Rectángulo_3872" data-name="Rectángulo 3872" width="4.108" height="2.315" transform="translate(23.138 82.438) rotate(-16.481)" fill="#ff0"/>
        <rect id="Rectángulo_3873" data-name="Rectángulo 3873" width="2.053" height="2.315" transform="matrix(0.959, -0.283, 0.283, 0.959, 21.17, 83.018)" fill="#ff0"/>
      </g>
    </g>
    <g id="Grupo_14231" data-name="Grupo 14231" transform="translate(-208.696 324.26)">
      <path id="Trazado_24385" data-name="Trazado 24385" d="M-240.877,277.546l-2.559-1.44,2.311,7.982c.327,1.166,1.574,1.084,1.381-.252Z" transform="translate(245.203 -211.241)" fill="#ecbc2c" fill-rule="evenodd"/>
      <path id="Trazado_24386" data-name="Trazado 24386" d="M-232.106,276.146l1.892-2.243.626,8.289c.1,1.207-1.1,1.565-1.381.247Z" transform="translate(259.573 -214.035)" fill="#ecbc2c" fill-rule="evenodd"/>
      <path id="Trazado_24387" data-name="Trazado 24387" d="M-243.549,276.82l27.821-5.024a.761.761,0,0,1,.882.615h0a.762.762,0,0,1-.612.885l-27.824,5.024a.764.764,0,0,1-.882-.615h0A.763.763,0,0,1-243.549,276.82Z" transform="translate(244.264 -216.723)" fill="#ecbc2c" fill-rule="evenodd"/>
      <path id="Trazado_24388" data-name="Trazado 24388" d="M-235.961,258.738c-3.246,14.815-5.625,23.384-3.641,46.007l-3.207-3.121c-2.686-15.327-1.236-31.013,1.919-45.7Z" transform="translate(244.215 -236.838)" fill="#f5f5f7" fill-rule="evenodd"/>
      <path id="Trazado_24389" data-name="Trazado 24389" d="M-240.576,259.6c8.223,12.744,13.451,19.941,19.505,41.828l1.91-4.049c-2.845-15.3-9.69-29.484-17.779-42.137Z" transform="translate(248.83 -237.702)" fill="#f5f5f7" fill-rule="evenodd"/>
      <rect id="Rectángulo_3874" data-name="Rectángulo 3874" width="5.331" height="8.109" transform="matrix(0.984, -0.177, 0.177, 0.984, 2.986, 7.715)" fill="#e74037"/>
      <g id="Grupo_14230" data-name="Grupo 14230" transform="translate(0.494 9.58)">
        <path id="Trazado_24390" data-name="Trazado 24390" d="M-238.639,252.123a6.24,6.24,0,0,1,7.247,5.031,6.238,6.238,0,0,1-5.029,7.247,6.238,6.238,0,0,1-7.25-5.031A6.241,6.241,0,0,1-238.639,252.123Z" transform="translate(244.285 -251.367)" fill="#018a9d" fill-rule="evenodd"/>
        <path id="Trazado_24391" data-name="Trazado 24391" d="M-238.866,251.834a6.24,6.24,0,0,1,7.25,5.031,6.241,6.241,0,0,1-5.031,7.247,6.242,6.242,0,0,1-7.25-5.031A6.239,6.239,0,0,1-238.866,251.834Z" transform="translate(243.997 -251.734)" fill="#14b0bf" fill-rule="evenodd"/>
        <path id="Trazado_24392" data-name="Trazado 24392" d="M-239.862,252.944a3.627,3.627,0,0,1,4.212,2.926,3.623,3.623,0,0,1-2.924,4.21,3.623,3.623,0,0,1-4.212-2.924A3.625,3.625,0,0,1-239.862,252.944Z" transform="translate(245.459 -250.273)" fill="#018a9d" fill-rule="evenodd"/>
        <path id="Trazado_24393" data-name="Trazado 24393" d="M-236.476,254.18a3.61,3.61,0,0,1,.513,1.311,3.623,3.623,0,0,1-2.924,4.21,3.612,3.612,0,0,1-3.139-.935,3.616,3.616,0,0,1-.513-1.309,3.629,3.629,0,0,1,2.924-4.215A3.619,3.619,0,0,1-236.476,254.18Z" transform="translate(245.772 -249.894)" fill="#ecbc2c" fill-rule="evenodd"/>
      </g>
      <rect id="Rectángulo_3875" data-name="Rectángulo 3875" width="6.787" height="8.109" rx="0.182" transform="matrix(0.984, -0.178, 0.178, 0.984, 1.068, 1.208)" fill="#14b0bf"/>
      <path id="Trazado_24394" data-name="Trazado 24394" d="M-237.493,271.659l.154-.025a1.169,1.169,0,0,1,1.359.941l.867,4.8a1.174,1.174,0,0,1-.944,1.359l-.154.027a1.173,1.173,0,0,1-1.359-.944l-.867-4.8A1.176,1.176,0,0,1-237.493,271.659Z" transform="translate(251.52 -216.938)" fill="#018a9d" fill-rule="evenodd"/>
    </g>
    <g id="Grupo_14236" data-name="Grupo 14236" transform="translate(-199.194 426.745)">
      <g id="Grupo_14235" data-name="Grupo 14235" transform="translate(0 0.817)">
        <path id="Trazado_24395" data-name="Trazado 24395" d="M-182.494,362.685V296.767c0-2.042-1.985-3.716-4.41-3.716h-48.713c-2.425,0-4.41,1.674-4.41,3.716v65.918c0,2.039,1.983,3.711,4.41,3.711H-186.9C-184.479,366.4-182.494,364.726-182.494,362.685Z" transform="translate(240.026 -293.051)" fill="#e1ae15" fill-rule="evenodd"/>
        <g id="Grupo_14233" data-name="Grupo 14233" transform="translate(28.853 10.51)">
          <g id="Grupo_14232" data-name="Grupo 14232">
            <path id="Trazado_24396" data-name="Trazado 24396" d="M-227.306,297.684h31.592l8.125,8.123v43.63h-39.717Z" transform="translate(227.306 -297.684)" fill="#f1f1f5" fill-rule="evenodd"/>
            <path id="Trazado_24397" data-name="Trazado 24397" d="M-213.378,303.536l8.123,8.123v-8.123l-4.061-4.061Z" transform="translate(244.972 -295.413)" fill="#ebebf1" fill-rule="evenodd"/>
            <path id="Trazado_24398" data-name="Trazado 24398" d="M-213.378,297.684l8.123,8.123h-8.123Z" transform="translate(244.972 -297.684)" fill="#a5dbe5" fill-rule="evenodd"/>
          </g>
          <rect id="Rectángulo_3876" data-name="Rectángulo 3876" width="28.011" height="15.79" transform="translate(5.724 12.445)" fill="#018a9d"/>
        </g>
        <g id="Grupo_14234" data-name="Grupo 14234">
          <path id="Trazado_24399" data-name="Trazado 24399" d="M-184.125,362.685V296.767c0-2.042-1.985-3.716-4.407-3.716h-47.084c-2.425,0-4.41,1.674-4.41,3.716v65.918c0,2.039,1.983,3.711,4.41,3.711h47.084C-186.107,366.4-184.125,364.726-184.125,362.685Z" transform="translate(240.026 -293.051)" fill="#e1ae15" fill-rule="evenodd"/>
          <path id="Trazado_24400" data-name="Trazado 24400" d="M-200.968,362.612V296.835c0-2.08-1.983-3.784-4.407-3.784h-9.613c-7,6.989-11.757,20.66-11.757,36.382,0,16.173,5.031,30.174,12.365,36.963h9.005C-202.951,366.4-200.968,364.692-200.968,362.612Z" transform="translate(256.87 -293.051)" fill="#eec64a" fill-rule="evenodd"/>
        </g>
      </g>
      <rect id="Rectángulo_3877" data-name="Rectángulo 3877" width="3.048" height="75.491" rx="0.672" transform="translate(45.956)" fill="#f1f1f5"/>
    </g>
    <path id="Trazado_24401" data-name="Trazado 24401" d="M-164.6,307.844c-4.067,7.309-9.577,12.741-15.565,17.959-6.077,5.294-7.116,12.721-3.713,20.785l-.454-.147a.5.5,0,0,0-.631.322l-.862,2.661a.5.5,0,0,0,.324.628l.127.041-5.741,17.736,15.713,5.083,5.741-17.734.129.041a.5.5,0,0,0,.628-.322l.86-2.659a.505.505,0,0,0-.32-.633l-.456-.145c7.481-4.541,10.99-11.167,9.169-19.018-1.8-7.769-3.237-15.438-2.23-23.784a3.373,3.373,0,0,0,2.72-2.3,3.368,3.368,0,0,0-2.166-4.242,3.367,3.367,0,0,0-4.242,2.166,3.369,3.369,0,0,0,.969,3.559Zm2.044.844-4.748,14.667a1.942,1.942,0,0,1,.744,2.191l-5.038,15.568a1.944,1.944,0,0,1-2.443,1.248h0c-.045-.016-.091-.03-.136-.048s-.093-.025-.138-.041h0a1.946,1.946,0,0,1-1.25-2.443l5.038-15.565a1.951,1.951,0,0,1,1.887-1.343l4.727-14.608a3.069,3.069,0,0,0,.51.213A3.377,3.377,0,0,0-162.559,308.687Z" transform="translate(102.864 145.802)" fill="#8c8287" fill-rule="evenodd"/>
    <path id="Trazado_24402" data-name="Trazado 24402" d="M-75.792,230.153q1.929,3.62,3.856,7.243-35.376,18.935-70.829,37.72h0l-.014.009-11.349,1.386,2.393-2.758,5.095-5.88q35.41-18.86,70.845-37.72Z" transform="translate(149.784 54.734)" fill="#8c8287" fill-rule="evenodd"/>
  </g>
</svg>
