<svg xmlns="http://www.w3.org/2000/svg" width="249.844" height="245.037" viewBox="0 0 249.844 245.037">
  <g id="Grupo_14215" data-name="Grupo 14215" transform="translate(-31.781 -24.514)">
    <g id="Grupo_14176" data-name="Grupo 14176">
      <g id="Grupo_14175" data-name="Grupo 14175">
        <path id="Trazado_24268" data-name="Trazado 24268" d="M53.008,185.355a116.44,116.44,0,0,1-.249-85.906l14.88,5.883a100.436,100.436,0,0,0,.214,74.055Z" fill="#45b8ff"/>
        <path id="Trazado_24269" data-name="Trazado 24269" d="M203.548,51.677a100.3,100.3,0,0,0-84.751-.444l-6.711-14.524a116.293,116.293,0,0,1,98.325.515Z" fill="#45b8ff"/>
      </g>
      <path id="Trazado_24270" data-name="Trazado 24270" d="M73.3,208.912q-.915-1.2-1.8-2.434l1.625-1.166q.867,1.206,1.766,2.391Zm-3.528-4.917q-.847-1.252-1.663-2.529l1.687-1.076q.8,1.254,1.632,2.484Zm-3.253-5.1q-.778-1.3-1.52-2.618l1.743-.98q.729,1.3,1.491,2.568Zm-2.967-5.276q-.705-1.337-1.373-2.7l1.8-.883q.655,1.336,1.347,2.649Zm-2.67-5.431q-.63-1.376-1.221-2.77l1.841-.781q.581,1.37,1.2,2.719Zm-2.365-5.57q-.552-1.407-1.065-2.833l1.882-.677q.5,1.4,1.045,2.78Zm-2.051-5.693q-.473-1.434-.906-2.887l1.916-.572q.426,1.426.889,2.834Zm-1.732-5.8q-.391-1.46-.743-2.933l1.945-.464q.347,1.446.73,2.877Zm-1.4-5.885q-.309-1.476-.579-2.969l1.967-.355q.265,1.464.569,2.914Zm-1.076-5.952q-.227-1.491-.414-2.995l1.984-.247q.185,1.478.407,2.941Zm-.745-6q-.143-1.5-.247-3.014l1.995-.136q.1,1.485.244,2.958Zm-.412-6.032q-.062-1.5-.083-3.021l2-.027q.021,1.488.081,2.967Zm1.917-6.025-2-.027q.021-1.521.083-3.031l2,.082Q53.031,139.739,53.01,141.231Zm.244-5.947-2-.137q.1-1.517.249-3.021l1.991.192Q53.356,133.8,53.254,135.284Zm.571-5.924-1.985-.247q.188-1.508.416-3l1.977.3Q54.008,127.881,53.825,129.36Zm.9-5.881-1.968-.357q.271-1.494.582-2.974l1.957.411Q54.99,122.013,54.723,123.479Zm1.224-5.822L54,117.191q.354-1.475.747-2.936l1.932.519Q56.293,116.208,55.947,117.657Zm1.545-5.742-1.916-.575q.437-1.452.91-2.89l1.9.627Q57.92,110.488,57.492,111.915Zm1.863-5.647-1.88-.68q.515-1.426,1.068-2.835l1.862.732Q59.861,104.868,59.355,106.268Zm2.175-5.535-1.84-.783q.594-1.4,1.225-2.771l1.817.834Q62.113,99.365,61.53,100.733Zm2.479-5.4-1.794-.884q.669-1.359,1.376-2.7l1.769.934Q64.666,93.994,64.009,95.328Zm2.774-5.259-1.742-.981q.744-1.32,1.523-2.618l1.714,1.03Q67.513,88.773,66.783,90.069Zm3.061-5.1L68.158,83.9q.816-1.278,1.665-2.53l1.656,1.123Q70.643,83.719,69.844,84.972Zm3.336-4.921-1.624-1.167q.384-.534.773-1.062l1.61,1.187Q73.556,79.528,73.18,80.051ZM221.863,54.309q-1.218-.847-2.463-1.663l1.1-1.673q1.268.83,2.51,1.694ZM101.478,52.856l-1.1-1.669q1.263-.833,2.549-1.632l1.055,1.7Q102.717,52.038,101.478,52.856Zm115.413-1.8q-1.266-.78-2.553-1.526l1-1.73q1.311.759,2.6,1.553ZM106.525,49.721l-1.008-1.727q1.307-.762,2.635-1.49l.96,1.755Q107.807,48.973,106.525,49.721Zm105.22-1.647q-1.307-.709-2.634-1.383l.907-1.783q1.35.686,2.68,1.408ZM111.738,46.868l-.911-1.781q1.347-.689,2.714-1.341l.861,1.8Q113.06,46.192,111.738,46.868Zm94.7-1.484q-1.341-.636-2.705-1.234l.805-1.831q1.389.611,2.756,1.257ZM117.1,44.308l-.81-1.828q1.38-.614,2.782-1.189l.761,1.85Q118.458,43.707,117.1,44.308ZM201,42.992q-1.375-.561-2.77-1.082l.7-1.873q1.421.532,2.822,1.1Zm-78.4-.942-.708-1.87q1.413-.535,2.844-1.033l.657,1.89Q123.985,41.524,122.6,42.05Zm72.834-1.143q-1.405-.483-2.827-.926l.6-1.909q1.447.453,2.879.943ZM128.208,40.1l-.6-1.907q1.44-.455,2.9-.873l.551,1.923Q129.623,39.656,128.208,40.1Zm61.545-.967q-1.43-.4-2.873-.767l.488-1.94q1.473.372,2.928.782Zm-55.833-.667-.5-1.937q1.463-.375,2.942-.71l.441,1.95Q135.356,38.1,133.92,38.468Zm50.066-.786q-1.447-.324-2.911-.606l.379-1.964q1.491.29,2.968.617Zm-44.274-.526-.387-1.962q1.48-.292,2.976-.546l.332,1.973Q141.166,36.868,139.712,37.156Zm38.434-.6q-1.462-.241-2.941-.443l.27-1.982q1.506.206,3,.451Zm-32.577-.385-.278-1.98q1.494-.21,3-.379l.223,1.987Q147.035,35.961,145.569,36.167Zm26.681-.418c-.982-.107-1.971-.2-2.961-.28l.16-1.993q1.515.121,3.018.285Zm-20.78-.244-.169-1.993q1.5-.128,3.017-.214l.114,2Q152.945,35.381,151.47,35.505Zm14.851-.233q-1.482-.078-2.974-.116l.05-2q1.52.039,3.03.118Zm-8.923-.1-.058-2q1.508-.043,3.025-.047l0,2Q158.879,35.125,157.4,35.168Z" fill="#334657"/>
    </g>
    <g id="_9" data-name="9">
      <g id="_9-2" data-name="9">
        <g id="Grupo_14177" data-name="Grupo 14177">
          <path id="Trazado_24271" data-name="Trazado 24271" d="M235.091,237.053H88.583V54.377H211.131l12.826,11.134,11.134,9.668Z" fill="#f7d032"/>
          <path id="Trazado_24272" data-name="Trazado 24272" d="M211.133,54.377l23.958,20.8H211.133Z" fill="#cc6119"/>
        </g>
        <g id="Grupo_14178" data-name="Grupo 14178">
          <rect id="Rectángulo_3801" data-name="Rectángulo 3801" width="97.942" height="2" transform="translate(71.97 103.278)" fill="#334657"/>
          <rect id="Rectángulo_3802" data-name="Rectángulo 3802" width="97.942" height="2" transform="translate(71.97 112.408)" fill="#334657"/>
          <rect id="Rectángulo_3803" data-name="Rectángulo 3803" width="51.526" height="2" transform="translate(71.97 121.538)" fill="#334657"/>
        </g>
        <g id="Grupo_14180" data-name="Grupo 14180">
          <g id="Grupo_14179" data-name="Grupo 14179">
            <rect id="Rectángulo_3804" data-name="Rectángulo 3804" width="12.063" height="67.137" transform="translate(255.156 92.516)" fill="#cc6119"/>
            <path id="Trazado_24273" data-name="Trazado 24273" d="M255.156,159.654v12.661h12.063V159.654" fill="#45b8ff"/>
            <path id="Trazado_24274" data-name="Trazado 24274" d="M255.156,92.516l6.032-18.867,6.031,18.867" fill="#334657"/>
          </g>
        </g>
        <g id="Grupo_14205" data-name="Grupo 14205">
          <g id="Grupo_14192" data-name="Grupo 14192">
            <g id="Grupo_14191" data-name="Grupo 14191">
              <g id="Grupo_14190" data-name="Grupo 14190">
                <path id="Trazado_24275" data-name="Trazado 24275" d="M233.37,168.6a46.5,46.5,0,1,0-2.205,65.722A46.552,46.552,0,0,0,233.37,168.6Zm-34.579,53.659A21.484,21.484,0,1,1,220.983,201.5,21.484,21.484,0,0,1,198.791,222.255Z" fill="#cc6119"/>
                <g id="Grupo_14181" data-name="Grupo 14181">
                  <path id="Trazado_24276" data-name="Trazado 24276" d="M189.023,156.067l3.606-11.6,16.374.553,2.816,11.811Z" fill="#cc6119"/>
                </g>
                <g id="Grupo_14182" data-name="Grupo 14182">
                  <path id="Trazado_24277" data-name="Trazado 24277" d="M162.591,172.9,157.9,161.7l12.9-10.1,9.75,7.238Z" fill="#cc6119"/>
                </g>
                <g id="Grupo_14183" data-name="Grupo 14183">
                  <path id="Trazado_24278" data-name="Trazado 24278" d="M153.163,202.789l-10.792-5.565,3.387-16.029,12.121-.723Z" fill="#cc6119"/>
                </g>
                <g id="Grupo_14184" data-name="Grupo 14184">
                  <path id="Trazado_24279" data-name="Trazado 24279" d="M165.153,231.743l-11.844,2.674L145.6,219.961l8.821-8.344Z" fill="#cc6119"/>
                </g>
                <g id="Grupo_14185" data-name="Grupo 14185">
                  <path id="Trazado_24280" data-name="Trazado 24280" d="M192.949,246.217l-7.355,9.662-15.2-6.119L171.79,237.7Z" fill="#cc6119"/>
                </g>
                <g id="Grupo_14186" data-name="Grupo 14186">
                  <path id="Trazado_24281" data-name="Trazado 24281" d="M223.545,239.438l.577,12.128-15.575,5.081-6.686-10.135Z" fill="#cc6119"/>
                </g>
                <g id="Grupo_14187" data-name="Grupo 14187">
                  <path id="Trazado_24282" data-name="Trazado 24282" d="M242.626,214.577l8.238,8.92L242.2,237.4l-11.637-3.466Z" fill="#cc6119"/>
                </g>
                <g id="Grupo_14188" data-name="Grupo 14188">
                  <path id="Trazado_24283" data-name="Trazado 24283" d="M241.262,183.268l12.045,1.538,2.3,16.221-11.142,4.825Z" fill="#cc6119"/>
                </g>
                <g id="Grupo_14189" data-name="Grupo 14189">
                  <path id="Trazado_24284" data-name="Trazado 24284" d="M220.093,160.161l10.215-6.564L242.5,164.545,237.062,175.4Z" fill="#cc6119"/>
                </g>
              </g>
            </g>
          </g>
          <g id="Grupo_14204" data-name="Grupo 14204">
            <path id="Trazado_24285" data-name="Trazado 24285" d="M207.817,201.062a8.31,8.31,0,1,1-8.027-8.584A8.309,8.309,0,0,1,207.817,201.062Z" fill="#334657"/>
            <g id="Grupo_14203" data-name="Grupo 14203">
              <g id="Grupo_14202" data-name="Grupo 14202">
                <path id="Trazado_24286" data-name="Trazado 24286" d="M221.715,179.676a30.493,30.493,0,1,0-1.446,43.1A30.528,30.528,0,0,0,221.715,179.676Zm-22.676,35.188a14.089,14.089,0,1,1,14.553-13.609A14.089,14.089,0,0,1,199.039,214.864Z" fill="#334657"/>
                <g id="Grupo_14193" data-name="Grupo 14193">
                  <path id="Trazado_24287" data-name="Trazado 24287" d="M192.634,171.459l2.364-7.6,10.738.362,1.847,7.746Z" fill="#334657"/>
                </g>
                <g id="Grupo_14194" data-name="Grupo 14194">
                  <path id="Trazado_24288" data-name="Trazado 24288" d="M175.3,182.5l-3.076-7.344,8.458-6.624,6.394,4.745Z" fill="#334657"/>
                </g>
                <g id="Grupo_14195" data-name="Grupo 14195">
                  <path id="Trazado_24289" data-name="Trazado 24289" d="M169.118,202.1l-7.077-3.649,2.221-10.511,7.948-.474Z" fill="#334657"/>
                </g>
                <g id="Grupo_14196" data-name="Grupo 14196">
                  <path id="Trazado_24290" data-name="Trazado 24290" d="M176.98,221.086l-7.767,1.753-5.055-9.479,5.784-5.473Z" fill="#334657"/>
                </g>
                <g id="Grupo_14197" data-name="Grupo 14197">
                  <path id="Trazado_24291" data-name="Trazado 24291" d="M195.208,230.577l-4.823,6.336-9.966-4.013.914-7.91Z" fill="#334657"/>
                </g>
                <g id="Grupo_14198" data-name="Grupo 14198">
                  <path id="Trazado_24292" data-name="Trazado 24292" d="M215.272,226.131l.378,7.954-10.213,3.332-4.385-6.646Z" fill="#334657"/>
                </g>
                <g id="Grupo_14199" data-name="Grupo 14199">
                  <path id="Trazado_24293" data-name="Trazado 24293" d="M227.784,209.829l5.4,5.849L227.5,224.8l-7.631-2.273Z" fill="#334657"/>
                </g>
                <g id="Grupo_14200" data-name="Grupo 14200">
                  <path id="Trazado_24294" data-name="Trazado 24294" d="M226.89,189.3l7.9,1.008,1.508,10.637-7.307,3.164Z" fill="#334657"/>
                </g>
                <g id="Grupo_14201" data-name="Grupo 14201">
                  <path id="Trazado_24295" data-name="Trazado 24295" d="M213.008,174.144l6.7-4.3,7.993,7.179-3.564,7.121Z" fill="#334657"/>
                </g>
              </g>
            </g>
          </g>
        </g>
        <path id="Trazado_24296" data-name="Trazado 24296" d="M113.181,227.721l5.4-2.338-1.238-8.734-5.719-.73a24.81,24.81,0,0,0-2.676-5.036l2.574-5.143-6.562-5.9-4.848,3.115a24.871,24.871,0,0,0-5.276-2.077l-1.348-5.653-8.816-.3-1.766,5.679a24.888,24.888,0,0,0-5.171,1.735l-4.817-3.576-6.945,5.439,2.4,5.726a24.8,24.8,0,0,0-2.667,4.4l-6.268.374-1.824,8.63,5.728,2.954a25.219,25.219,0,0,0,.715,4.838l-4.7,4.451,4.15,7.783,6.367-1.437c.058.064.107.133.166.2a24.977,24.977,0,0,0,3.417,3.019l-.749,6.482,8.183,3.3,3.906-5.133a25.3,25.3,0,0,0,4.935.216l3.517,5.33,8.386-2.735-.294-6.186a25.02,25.02,0,0,0,4.086-3.1c.029-.027.053-.058.082-.085l5.859,1.745,4.665-7.486L112,233.12A25.058,25.058,0,0,0,113.181,227.721Zm-36.363-2.857a11.567,11.567,0,1,1,11.173,11.949A11.567,11.567,0,0,1,76.818,224.864Z" fill="#45b8ff"/>
      </g>
    </g>
    <g id="Grupo_14214" data-name="Grupo 14214">
      <g id="Grupo_14206" data-name="Grupo 14206">
        <rect id="Rectángulo_3805" data-name="Rectángulo 3805" width="9.609" height="2" transform="translate(96.205 167.68)" fill="#334657"/>
        <rect id="Rectángulo_3806" data-name="Rectángulo 3806" width="6.681" height="2" transform="translate(87.376 167.68)" fill="#334657"/>
        <rect id="Rectángulo_3807" data-name="Rectángulo 3807" width="5.251" height="2" transform="translate(79.739 167.68)" fill="#334657"/>
        <rect id="Rectángulo_3808" data-name="Rectángulo 3808" width="5.442" height="2" transform="translate(95.568 171.498)" fill="#334657"/>
        <rect id="Rectángulo_3809" data-name="Rectángulo 3809" width="13.761" height="2" transform="translate(79.739 171.498)" fill="#334657"/>
        <rect id="Rectángulo_3810" data-name="Rectángulo 3810" width="5.235" height="2" transform="translate(100.58 175.316)" fill="#334657"/>
        <rect id="Rectángulo_3811" data-name="Rectángulo 3811" width="5.743" height="2" transform="translate(92.545 175.316)" fill="#334657"/>
        <rect id="Rectángulo_3812" data-name="Rectángulo 3812" width="5.41" height="2" transform="translate(85.307 175.316)" fill="#334657"/>
        <rect id="Rectángulo_3813" data-name="Rectángulo 3813" width="3.419" height="2" transform="translate(79.739 175.316)" fill="#334657"/>
      </g>
      <g id="Grupo_14207" data-name="Grupo 14207">
        <rect id="Rectángulo_3814" data-name="Rectángulo 3814" width="9.609" height="2" transform="translate(237.319 86.869)" fill="#334657"/>
        <rect id="Rectángulo_3815" data-name="Rectángulo 3815" width="6.681" height="2" transform="translate(228.491 86.869)" fill="#334657"/>
        <rect id="Rectángulo_3816" data-name="Rectángulo 3816" width="5.251" height="2" transform="translate(220.854 86.869)" fill="#334657"/>
        <rect id="Rectángulo_3817" data-name="Rectángulo 3817" width="5.441" height="2" transform="translate(236.683 90.687)" fill="#334657"/>
        <rect id="Rectángulo_3818" data-name="Rectángulo 3818" width="13.761" height="2" transform="translate(220.854 90.687)" fill="#334657"/>
        <rect id="Rectángulo_3819" data-name="Rectángulo 3819" width="5.234" height="2" transform="translate(241.694 94.505)" fill="#334657"/>
        <rect id="Rectángulo_3820" data-name="Rectángulo 3820" width="5.742" height="2" transform="translate(233.66 94.505)" fill="#334657"/>
        <rect id="Rectángulo_3821" data-name="Rectángulo 3821" width="5.41" height="2" transform="translate(226.422 94.505)" fill="#334657"/>
        <rect id="Rectángulo_3822" data-name="Rectángulo 3822" width="3.419" height="2" transform="translate(220.854 94.505)" fill="#334657"/>
      </g>
      <path id="Trazado_24297" data-name="Trazado 24297" d="M267.219,219.207l-3.794,1.995.725-4.225-3.069-2.992,4.242-.616,1.9-3.844,1.9,3.844,4.242.616-3.07,2.992.725,4.225Z" fill="#45b8ff"/>
      <g id="Grupo_14208" data-name="Grupo 14208">
        <rect id="Rectángulo_3823" data-name="Rectángulo 3823" width="2" height="3.349" transform="translate(249.885 53.059)" fill="#334657"/>
        <rect id="Rectángulo_3824" data-name="Rectángulo 3824" width="2" height="3.349" transform="translate(249.885 59.841)" fill="#334657"/>
        <rect id="Rectángulo_3825" data-name="Rectángulo 3825" width="3.349" height="2" transform="translate(245.798 57.103)" fill="#334657"/>
        <rect id="Rectángulo_3826" data-name="Rectángulo 3826" width="3.349" height="2" transform="translate(252.58 57.103)" fill="#334657"/>
      </g>
      <g id="Grupo_14209" data-name="Grupo 14209">
        <rect id="Rectángulo_3827" data-name="Rectángulo 3827" width="2" height="3.349" transform="translate(65.517 56.45)" fill="#334657"/>
        <rect id="Rectángulo_3828" data-name="Rectángulo 3828" width="2" height="3.349" transform="translate(65.517 63.233)" fill="#334657"/>
        <rect id="Rectángulo_3829" data-name="Rectángulo 3829" width="3.349" height="2" transform="translate(61.431 60.495)" fill="#334657"/>
        <rect id="Rectángulo_3830" data-name="Rectángulo 3830" width="3.349" height="2" transform="translate(68.213 60.495)" fill="#334657"/>
      </g>
      <g id="Grupo_14210" data-name="Grupo 14210">
        <rect id="Rectángulo_3831" data-name="Rectángulo 3831" width="2" height="3.349" transform="translate(43 202.386)" fill="#334657"/>
        <rect id="Rectángulo_3832" data-name="Rectángulo 3832" width="2" height="3.349" transform="translate(43 209.168)" fill="#334657"/>
        <rect id="Rectángulo_3833" data-name="Rectángulo 3833" width="3.349" height="2" transform="translate(38.914 206.43)" fill="#334657"/>
        <rect id="Rectángulo_3834" data-name="Rectángulo 3834" width="3.349" height="2" transform="translate(45.696 206.43)" fill="#334657"/>
      </g>
      <g id="Grupo_14211" data-name="Grupo 14211">
        <rect id="Rectángulo_3835" data-name="Rectángulo 3835" width="2" height="3.349" transform="translate(158.95 252.668)" fill="#334657"/>
        <rect id="Rectángulo_3836" data-name="Rectángulo 3836" width="2" height="3.349" transform="translate(158.95 259.45)" fill="#334657"/>
        <rect id="Rectángulo_3837" data-name="Rectángulo 3837" width="3.349" height="2" transform="translate(154.864 256.712)" fill="#334657"/>
        <rect id="Rectángulo_3838" data-name="Rectángulo 3838" width="3.349" height="2" transform="translate(161.646 256.712)" fill="#334657"/>
      </g>
      <g id="Grupo_14212" data-name="Grupo 14212">
        <rect id="Rectángulo_3839" data-name="Rectángulo 3839" width="2" height="8.266" transform="translate(276.491 179.136)" fill="#334657"/>
        <rect id="Rectángulo_3840" data-name="Rectángulo 3840" width="8.265" height="2" transform="translate(273.358 182.034)" fill="#334657"/>
      </g>
      <g id="Grupo_14213" data-name="Grupo 14213">
        <rect id="Rectángulo_3841" data-name="Rectángulo 3841" width="2" height="8.265" transform="translate(34.914 116.447)" fill="#334657"/>
        <rect id="Rectángulo_3842" data-name="Rectángulo 3842" width="8.265" height="2" transform="translate(31.781 119.346)" fill="#334657"/>
      </g>
      <path id="Trazado_24298" data-name="Trazado 24298" d="M96.2,34.2,92.4,36.191l.725-4.225-3.07-2.992,4.242-.616,1.9-3.844,1.9,3.844,4.242.616-3.07,2.992.725,4.225Z" fill="#edd045"/>
      <path id="Trazado_24299" data-name="Trazado 24299" d="M122.941,267.556l-3.794,1.995.725-4.225-3.069-2.992,4.242-.616,1.9-3.844,1.9,3.844,4.242.616-3.07,2.992.725,4.225Z" fill="#cc6119"/>
    </g>
  </g>
</svg>
