<svg xmlns="http://www.w3.org/2000/svg" width="339" height="318.318" viewBox="0 0 339 318.318">
  <g id="Grupo_14243" data-name="Grupo 14243" transform="translate(404.492 -45.64)">
    <g id="Grupo_14238" data-name="Grupo 14238" transform="translate(-284.862 49.023)">
      <path id="Trazado_24403" data-name="Trazado 24403" d="M-316.329,48.46a1.117,1.117,0,0,1-.23,2.208,1.422,1.422,0,0,1-.23-.025l-.061-.015-.452-.093-.45-.091-.452-.088-.447-.083-.447-.083-.442-.078-.442-.076-.442-.071-.44-.071-.437-.066-.435-.063-.432-.061-.432-.056-.43-.053-.427-.051-.424-.048-.422-.045-.419-.043-.419-.035-.414-.035-.414-.033-.409-.028-.409-.028-.4-.02-.4-.02-.043,0a1.115,1.115,0,0,1-.826-.412,1.113,1.113,0,0,1,.91-1.814h.058l.419.02.422.025.424.025.424.03.43.033.43.035.435.043.437.04.435.048.44.048.442.053.442.056.447.058.445.063.452.063.45.068.452.073.455.073.457.078.457.081.46.083.46.088.462.091.465.091.465.1Z" transform="translate(400.529 -46.979)" fill="#a5dbe5" fill-rule="evenodd"/>
      <path id="Trazado_24404" data-name="Trazado 24404" d="M-309.759,52.106a1.115,1.115,0,0,1-.627,2.122,1.258,1.258,0,0,1-.253-.073L-311,54l-.475-.2-.477-.2-.475-.2-.477-.195-.477-.189-.475-.184-.475-.184-.477-.182-.475-.177-.477-.174-.475-.172-.475-.167-.475-.167-.475-.162-.472-.159-.472-.157-.472-.154-.472-.149-.472-.149-.47-.141-.47-.141-.01,0a1.116,1.116,0,0,1,.384-2.183,1.23,1.23,0,0,1,.238.043l.023.005.48.147.483.147.483.149.485.154.485.157.482.159.485.164.488.167.485.169.488.172.488.177.488.177.488.182.485.187.488.187.49.192.488.195.488.2.488.2.488.2.49.207Z" transform="translate(411.118 -45.103)" fill="#a5dbe5" fill-rule="evenodd"/>
      <path id="Trazado_24405" data-name="Trazado 24405" d="M-303.95,56.773a1.116,1.116,0,0,1-.892,2.006,1.193,1.193,0,0,1-.361-.162l-.412-.283-.447-.3-.447-.3-.45-.3-.452-.293-.455-.291-.455-.285-.455-.283-.457-.283-.46-.278-.46-.275-.462-.27-.46-.268-.465-.268-.465-.263-.465-.26-.467-.255-.467-.255-.467-.25-.47-.248-.3-.157a1.113,1.113,0,0,1-.594-1.132,1.113,1.113,0,0,1,1.617-.849l.313.162.48.255.48.258.477.26.48.26.477.268.475.27.475.27.472.275.475.28.47.28.47.285.47.288.467.291.465.3.467.3.462.3.462.306.46.306.46.311Z" transform="translate(421.089 -41.069)" fill="#a5dbe5" fill-rule="evenodd"/>
      <path id="Trazado_24406" data-name="Trazado 24406" d="M-299.305,62.712a1.117,1.117,0,0,1-1.283,1.768,1.135,1.135,0,0,1-.361-.265l-.124-.134-.369-.4-.369-.4-.374-.394-.379-.389-.379-.389-.384-.384-.387-.384-.389-.376-.392-.376-.394-.374-.4-.369-.4-.366-.4-.366-.4-.361-.407-.359-.409-.354-.414-.354-.414-.349-.417-.349-.379-.308a1.114,1.114,0,0,1-.323-1.291,1.115,1.115,0,0,1,1.733-.437l.386.318.43.356.427.359.424.364.422.366.419.369.417.371.414.374.412.379.409.381.407.384.4.387.4.392.4.394.394.4.394.4.389.4.384.407.384.407.382.412Z" transform="translate(430.092 -35.187)" fill="#a5dbe5" fill-rule="evenodd"/>
      <path id="Trazado_24407" data-name="Trazado 24407" d="M-296.55,69.9a1.116,1.116,0,0,1-1.8,1.266,1.217,1.217,0,0,1-.2-.28l-.111-.23-.245-.493-.25-.49-.253-.483-.26-.485-.263-.48-.268-.477-.273-.475-.275-.472-.28-.467-.283-.467-.29-.462-.293-.462-.3-.455-.3-.457-.3-.45-.308-.45-.313-.445-.316-.442-.321-.442-.182-.245a1.115,1.115,0,0,1-.058-1.248,1.113,1.113,0,0,1,1.844-.086l.195.26.331.457.326.46.323.462.321.462.316.47.311.47.308.475.3.477.3.48.293.483.293.488.286.49.283.493.278.5.273.5.268.5.265.505.26.51.255.51Z" transform="translate(437.553 -27.45)" fill="#a5dbe5" fill-rule="evenodd"/>
      <path id="Trazado_24408" data-name="Trazado 24408" d="M-299.034,85.234a1.115,1.115,0,0,1-1.844-1.248l.063-.093a14.288,14.288,0,0,0,2.625-8.772l-.005-.619-.008-.462a1.1,1.1,0,0,1,.26-.74,1.115,1.115,0,0,1,1.968.69l.008.485,0,.644A16.436,16.436,0,0,1-299.034,85.234Z" transform="translate(442.761 -7.414)" fill="#a5dbe5" fill-rule="evenodd"/>
      <path id="Trazado_24409" data-name="Trazado 24409" d="M-306.849,80.393a1.116,1.116,0,0,1,1.117-1.93l.048.03a11.183,11.183,0,0,0,9.744.717,1.108,1.108,0,0,1,.8-.01,1.116,1.116,0,0,1,.025,2.082A13.43,13.43,0,0,1-306.849,80.393Z" transform="translate(433.086 0.865)" fill="#a5dbe5" fill-rule="evenodd"/>
      <path id="Trazado_24410" data-name="Trazado 24410" d="M-307.693,72.627a1.116,1.116,0,0,1,1.865,1.225h0l-.114.177-.109.177-.1.182-.1.179-.1.184-.094.182-.086.184-.083.187-.078.187-.073.187-.068.187-.066.192-.061.192-.056.192-.051.195-.045.195-.043.2-.038.2-.033.2-.025.2-.025.2-.018.2-.015.2-.008.2-.005.207v.207l.005.207.01.21.015.212.02.21.025.215.03.215.035.215.038.217.048.217.05.22.058.222.061.222.066.222.073.225.078.225.083.227.091.227.093.23.1.232.106.227.053.111a1.115,1.115,0,0,1-1.918,1.124.923.923,0,0,1-.081-.136l-.068-.144-.126-.27-.116-.268-.111-.27-.109-.27-.1-.27-.091-.265-.088-.27-.081-.268-.073-.268-.068-.265-.063-.268-.056-.268-.048-.263-.043-.268-.038-.263-.033-.263-.023-.263-.02-.263-.013-.26-.005-.263,0-.258.008-.26.01-.255.018-.255.023-.255.03-.255.035-.25.04-.25.048-.25.053-.248.058-.248.066-.243.071-.245.073-.24.081-.237.088-.237.091-.237.1-.232.1-.23.109-.23.116-.23.119-.225.124-.222.126-.22.136-.22.139-.217Z" transform="translate(429.771 -8.606)" fill="#a5dbe5" fill-rule="evenodd"/>
      <path id="Trazado_24411" data-name="Trazado 24411" d="M-295.348,69.1a1.114,1.114,0,0,1,.291,2.208l-.056.008-.1.01-.346.04-.341.04-.339.045-.336.048-.333.051-.328.056-.328.056-.323.061-.321.066-.318.066-.313.068-.311.073-.308.073-.3.078-.3.083-.3.083-.293.086-.293.088-.285.093-.286.1-.28.1-.275.1-.273.1-.27.106-.265.106-.263.111-.258.114-.255.114-.25.116-.25.121-.242.124-.24.121-.235.129-.232.126-.154.091A1.117,1.117,0,0,1-306.7,72.7a1.266,1.266,0,0,1,.306-.263l.184-.106.26-.144.263-.141.268-.139.27-.136.275-.131.278-.131.283-.126.286-.124.288-.124.293-.119.3-.116.3-.111.3-.109.306-.106.311-.1.311-.1.316-.1.321-.093.323-.088.326-.088.328-.083.331-.081.336-.081.339-.073.341-.071.344-.068.349-.066.351-.061.351-.058.356-.056.361-.051.361-.048.364-.045.369-.04Z" transform="translate(433.749 -13.215)" fill="#a5dbe5" fill-rule="evenodd"/>
      <path id="Trazado_24412" data-name="Trazado 24412" d="M-286.149,75.8a1.116,1.116,0,0,1-.326,2.185,1.2,1.2,0,0,1-.3-.045l-.134-.04-.44-.126-.442-.121-.437-.119-.437-.114-.435-.111-.435-.1-.432-.1-.43-.1-.427-.091-.424-.091-.427-.083-.422-.078-.419-.076-.419-.071-.417-.068-.414-.063-.412-.061-.409-.053-.409-.053-.4-.048-.4-.043-.4-.04-.392-.035.048.3.1.6.086.6.028.207a1.115,1.115,0,0,1-2.077.695,1.148,1.148,0,0,1-.131-.387l-.028-.207-.083-.581-.091-.579-.1-.576-.1-.571-.106-.571-.114-.566-.119-.563-.124-.563-.131-.558-.134-.553-.141-.553-.146-.548-.152-.548-.157-.543-.162-.541-.169-.538-.169-.536-.179-.531-.131-.381a1.116,1.116,0,0,1,1.986-.978,1.41,1.41,0,0,1,.119.24l.136.4.184.553.182.558.174.558.167.563.164.566.157.568.154.573.146.574.141.579.134.581.131.584.081.4.192.013.417.033.419.04.422.04.422.045.427.051.427.053.43.058.432.063.435.066.435.071.437.076.44.078.442.083.442.088.445.091.447.1.447.1.45.1.452.111.452.114.455.119.457.124.457.126.46.131Z" transform="translate(442.601 -17.981)" fill="#a5dbe5" fill-rule="evenodd"/>
      <path id="Trazado_24413" data-name="Trazado 24413" d="M-281.706,76.038a1.115,1.115,0,0,1-1.018,1.976,1.444,1.444,0,0,1-.152-.078l-.28-.174-.477-.293-.477-.288-.477-.28-.478-.278-.475-.27-.475-.268-.475-.263-.472-.253-.472-.253-.472-.245-.472-.243-.47-.235-.47-.23-.467-.225-.467-.222-.465-.215-.467-.21-.465-.207-.462-.2-.462-.2-.015-.008a1.107,1.107,0,0,1-.445-.331,1.115,1.115,0,0,1,1.291-1.731l.033.013.477.2.48.207.48.212.482.217.483.225.483.227.483.232.485.24.488.243.485.25.488.253.488.26.49.263.49.27.488.275.49.278.493.285.493.291.493.3.493.3Z" transform="translate(454.605 -10.718)" fill="#a5dbe5" fill-rule="evenodd"/>
      <path id="Trazado_24414" data-name="Trazado 24414" d="M-276.824,81.794a1.114,1.114,0,0,1-1.541,1.609l-.111-.106-.483-.46-.48-.45-.482-.447-.483-.442-.485-.435-.483-.427-.483-.422-.483-.417-.485-.409-.483-.407-.482-.4-.485-.392-.483-.387-.482-.384-.485-.374-.482-.369-.483-.366-.05-.035a1.114,1.114,0,0,1-.354-1.359,1.12,1.12,0,0,1,1.678-.437l.063.048.5.374.5.379.5.387.5.392.5.4.5.4.5.409.5.414.5.419.5.429.493.429.5.44.493.447.5.45.493.457.493.462.5.47Z" transform="translate(463.908 -5.332)" fill="#a5dbe5" fill-rule="evenodd"/>
      <path id="Trazado_24415" data-name="Trazado 24415" d="M-272.892,88.066a1.115,1.115,0,0,1-1.627,1.506,1.185,1.185,0,0,1-.154-.164l-.341-.457-.467-.614-.467-.606-.467-.6-.467-.591-.47-.586-.47-.579-.472-.573-.472-.566-.472-.561-.475-.553-.472-.546-.475-.543-.477-.533-.477-.525-.071-.078a1.116,1.116,0,0,1,1.465-1.665,1.023,1.023,0,0,1,.174.154l.081.088.488.538.485.546.485.551.485.558.482.566.483.571.483.576.48.584.48.591.477.6.477.606.477.611.475.616.475.627Z" transform="translate(471.845 1.922)" fill="#a5dbe5" fill-rule="evenodd"/>
      <path id="Trazado_24416" data-name="Trazado 24416" d="M-269.883,94.77a1.115,1.115,0,0,1-1.761,1.319,1.135,1.135,0,0,1-.212-.285l-.2-.392-.664-1.238-.682-1.235-.7-1.233-.725-1.228-.745-1.225-.768-1.223-.791-1.215-.326-.49a1.112,1.112,0,0,1,.437-1.63,1.116,1.116,0,0,1,1.407.376l.344.515.808,1.243.783,1.248.763,1.253.74,1.256.72,1.258.7,1.263.677,1.268Z" transform="translate(478.462 10.422)" fill="#a5dbe5" fill-rule="evenodd"/>
      <path id="Trazado_24417" data-name="Trazado 24417" d="M-268.252,102.018a1.115,1.115,0,0,1-.556,1.319,1.12,1.12,0,0,1-1.576-.667l-.1-.339-.4-1.273-.419-1.271-.435-1.266-.46-1.268-.475-1.263-.5-1.261-.518-1.261-.488-1.139a1.115,1.115,0,0,1,1.978-1.018l.066.126.5,1.17.531,1.288.508,1.294.49,1.294.467,1.3.447,1.3.427,1.3.407,1.3Z" transform="translate(483.623 19.86)" fill="#a5dbe5" fill-rule="evenodd"/>
      <path id="Trazado_24418" data-name="Trazado 24418" d="M-268.084,109.456a1.115,1.115,0,0,1-2.18.427,1.384,1.384,0,0,1-.035-.182l-.1-.95-.152-1.283-.172-1.286-.187-1.283-.207-1.286-.225-1.283-.248-1.281-.263-1.283-.2-.935a1.112,1.112,0,0,1,.783-1.319,1.116,1.116,0,0,1,1.389.824l.212.965.27,1.314.25,1.314.232,1.314.212,1.316.192,1.316.174,1.316.157,1.316Z" transform="translate(486.969 30.089)" fill="#a5dbe5" fill-rule="evenodd"/>
      <path id="Trazado_24419" data-name="Trazado 24419" d="M-269.1,116.8a1.112,1.112,0,0,1-1.051,1.023,1.115,1.115,0,0,1-1.172-1.2l.05-.571.093-1.278.076-1.281.058-1.281.043-1.283.025-1.283.008-1.283-.01-1.286-.028-1.283-.005-.172a1.116,1.116,0,0,1,2.2-.323,1.464,1.464,0,0,1,.033.232l.005.2.03,1.316.008,1.314-.008,1.314-.025,1.314-.043,1.314-.061,1.309-.078,1.311-.1,1.309Z" transform="translate(488.115 40.765)" fill="#a5dbe5" fill-rule="evenodd"/>
      <path id="Trazado_24420" data-name="Trazado 24420" d="M-270.345,123.8a1.115,1.115,0,0,1-2.158-.563l.058-.21.316-1.253.3-1.251.288-1.256.27-1.258.258-1.261.24-1.263.225-1.263.207-1.268.076-.5a1.1,1.1,0,0,1,.321-.632,1.113,1.113,0,0,1,1.885.95l-.078.531-.212,1.3-.23,1.294-.245,1.288-.263,1.288-.278,1.286-.293,1.281-.308,1.278-.326,1.276Z" transform="translate(486.269 51.503)" fill="#a5dbe5" fill-rule="evenodd"/>
      <path id="Trazado_24421" data-name="Trazado 24421" d="M-272.737,130.309a1.115,1.115,0,0,1-2.087-.776l.038-.106.409-.935.51-1.2.5-1.205.483-1.213.465-1.213.455-1.218.437-1.225.422-1.225.291-.869a1.115,1.115,0,0,1,1.309-.743,1.118,1.118,0,0,1,.811,1.432l-.3.9-.432,1.248-.445,1.248-.462,1.243-.475,1.238-.493,1.233-.505,1.23-.52,1.223Z" transform="translate(482.703 61.967)" fill="#a5dbe5" fill-rule="evenodd"/>
      <path id="Trazado_24422" data-name="Trazado 24422" d="M-276.13,136.256a1.115,1.115,0,0,1-1.945-1.084l.058-.1.141-.227.7-1.127.682-1.134.672-1.137.657-1.144.644-1.152.632-1.155.619-1.162.606-1.167.1-.192a1.116,1.116,0,0,1,2.079.771,1.406,1.406,0,0,1-.083.225l-.106.212-.617,1.19-.632,1.18-.642,1.18-.657,1.17-.672,1.167-.682,1.157-.695,1.155-.71,1.147Z" transform="translate(477.645 71.9)" fill="#a5dbe5" fill-rule="evenodd"/>
      <path id="Trazado_24423" data-name="Trazado 24423" d="M-280.366,141.561a1.116,1.116,0,0,1-1.786-1.331l.068-.091.4-.472.854-1.038.839-1.043.829-1.051.816-1.059.806-1.066.793-1.074.783-1.081.622-.877a1.115,1.115,0,0,1,1.966,1,1.283,1.283,0,0,1-.139.275l-.637.9-.793,1.1-.808,1.091-.818,1.084-.831,1.076-.844,1.071-.854,1.061-.867,1.053Z" transform="translate(471.301 81.117)" fill="#a5dbe5" fill-rule="evenodd"/>
      <path id="Trazado_24424" data-name="Trazado 24424" d="M-285.35,146.176a1.115,1.115,0,0,1-1.809-.445,1.122,1.122,0,0,1,.293-1.19l.573-.525.988-.925.98-.935.968-.945.958-.952.95-.963.937-.97.927-.978.558-.6a1.115,1.115,0,0,1,1.746,1.374,1.352,1.352,0,0,1-.1.134l-.573.619-.942,1-.955.985-.965.978-.973.968-.985.96-1,.95-1,.94Z" transform="translate(463.86 89.483)" fill="#a5dbe5" fill-rule="evenodd"/>
      <path id="Trazado_24425" data-name="Trazado 24425" d="M-290.959,150.02a1.115,1.115,0,0,1-1.336-1.784l.045-.033.649-.455,1.109-.8,1.1-.8,1.091-.816,1.081-.826,1.076-.839,1.061-.846,1.056-.856.566-.467a1.115,1.115,0,0,1,1.516,1.63l-.086.078-.581.483-1.071.872-1.084.862-1.091.849-1.1.841-1.109.829-1.117.819-1.127.806Z" transform="translate(455.458 96.883)" fill="#a5dbe5" fill-rule="evenodd"/>
      <path id="Trazado_24426" data-name="Trazado 24426" d="M-297.125,153.012a1.119,1.119,0,0,1-1.349-.245,1.115,1.115,0,0,1,.313-1.731l.624-.323,1.21-.642,1.2-.654,1.2-.669,1.19-.68,1.18-.69,1.175-.7,1.165-.712.652-.412a1.115,1.115,0,0,1,1.276,1.827l-.081.056-.672.422-1.185.728-1.19.715-1.2.7-1.21.692-1.213.677-1.225.667-1.23.654Z" transform="translate(446.253 103.204)" fill="#a5dbe5" fill-rule="evenodd"/>
      <path id="Trazado_24427" data-name="Trazado 24427" d="M-303.739,155.057a1.116,1.116,0,0,1-.973-1.991,1.065,1.065,0,0,1,.222-.109l.49-.172,1.3-.472,1.288-.485,1.281-.5,1.278-.515,1.268-.525,1.263-.538,1.261-.553.819-.371a1.115,1.115,0,0,1,1.127,1.91,1.172,1.172,0,0,1-.2.114l-.841.382-1.281.563-1.283.548-1.294.536-1.3.523-1.306.508-1.311.493-1.316.483Z" transform="translate(436.375 108.311)" fill="#a5dbe5" fill-rule="evenodd"/>
      <path id="Trazado_24428" data-name="Trazado 24428" d="M-310.7,156.054a1.115,1.115,0,0,1-.786-2.051,1.107,1.107,0,0,1,.349-.134l.207-.04,1.362-.28,1.354-.3,1.354-.311,1.347-.326,1.341-.341,1.336-.356,1.331-.371,1.089-.316a1.1,1.1,0,0,1,.766.048,1.117,1.117,0,0,1-.131,2.089l-1.112.323-1.357.376-1.362.364-1.367.346-1.372.333-1.377.316-1.379.3-1.387.285Z" transform="translate(425.995 112.079)" fill="#a5dbe5" fill-rule="evenodd"/>
      <path id="Trazado_24429" data-name="Trazado 24429" d="M-317.854,155.943a1.12,1.12,0,0,1-1.107-.725,1.114,1.114,0,0,1,.983-1.5l1.1-.056,1.407-.086,1.4-.1,1.4-.121,1.4-.134,1.392-.152,1.389-.169,1.384-.187.116-.018a1.115,1.115,0,0,1,.548,2.15,1.19,1.19,0,0,1-.212.056l-.144.02-1.41.19-1.417.172-1.42.154-1.422.139-1.425.121-1.432.106-1.432.088Z" transform="translate(415.308 114.36)" fill="#a5dbe5" fill-rule="evenodd"/>
      <path id="Trazado_24430" data-name="Trazado 24430" d="M-325.082,155.1a1.119,1.119,0,0,1-.72-.371,1.118,1.118,0,0,1,.955-1.847l.195.023,1.438.144,1.44.124,1.435.109,1.432.088,1.43.071,1.43.053,1.427.035.786.01a1.112,1.112,0,0,1,1.051.76,1.118,1.118,0,0,1-1.066,1.468l-.813-.01-1.453-.035-1.455-.053-1.46-.073-1.463-.091-1.463-.109-1.465-.129-1.465-.147Z" transform="translate(404.548 114.653)" fill="#a5dbe5" fill-rule="evenodd"/>
      <path id="Trazado_24431" data-name="Trazado 24431" d="M-332.184,153.781a1.111,1.111,0,0,1-.824-1.21,1.118,1.118,0,0,1,1.392-.947l.157.043,1.455.374,1.455.354,1.453.333,1.453.313,1.45.3,1.45.278,1.45.255.46.076a1.115,1.115,0,0,1-.2,2.216l-.144-.015-.485-.081-1.478-.26-1.478-.28-1.481-.3-1.48-.318-1.48-.341-1.48-.361-1.483-.379Z" transform="translate(393.965 112.687)" fill="#a5dbe5" fill-rule="evenodd"/>
      <path id="Trazado_24432" data-name="Trazado 24432" d="M-339,151.429a1.115,1.115,0,0,1,.862-2.056l.831.356,1.458.6,1.458.579,1.455.556,1.458.536,1.458.518,1.458.5.766.248a1.115,1.115,0,0,1-.5,2.165,1.03,1.03,0,0,1-.179-.04l-.793-.258-1.483-.505-1.483-.523-1.486-.546-1.483-.568-1.483-.589-1.48-.609Z" transform="translate(383.788 109.175)" fill="#a5dbe5" fill-rule="evenodd"/>
      <path id="Trazado_24433" data-name="Trazado 24433" d="M-345.413,148.158a1.114,1.114,0,0,1,1.129-1.92l.606.361,1.445.841,1.448.816,1.448.8,1.45.773,1.45.75,1.453.728.414.2a1.113,1.113,0,0,1,.571,1.369,1.119,1.119,0,0,1-1.536.642l-.437-.215-1.478-.74-1.475-.763-1.473-.786-1.473-.808-1.47-.831-1.468-.854Z" transform="translate(374.194 104.281)" fill="#a5dbe5" fill-rule="evenodd"/>
      <path id="Trazado_24434" data-name="Trazado 24434" d="M-351.353,144.107a1.116,1.116,0,0,1,1.076-1.928,1.1,1.1,0,0,1,.275.154l.867.667,1.425,1.071,1.427,1.048,1.43,1.026,1.432,1,1.435.978.98.652a1.114,1.114,0,0,1-1.223,1.862l-1-.664-1.455-.993-1.453-1.016-1.453-1.038-1.45-1.066-1.443-1.084Z" transform="translate(365.299 98.213)" fill="#a5dbe5" fill-rule="evenodd"/>
      <path id="Trazado_24435" data-name="Trazado 24435" d="M-356.785,139.42a1.114,1.114,0,0,1,1.539-1.612l.182.174,1.395,1.319,1.4,1.291,1.4,1.266,1.4,1.24,1.407,1.218,1.051.887a1.117,1.117,0,0,1-1.177,1.872,1.328,1.328,0,0,1-.253-.159l-1.069-.9-1.427-1.233-1.422-1.258-1.42-1.281-1.415-1.309L-356.6,139.6Z" transform="translate(357.139 91.178)" fill="#a5dbe5" fill-rule="evenodd"/>
    </g>
    <g id="Grupo_14239" data-name="Grupo 14239" transform="translate(-404.492 67.903)">
      <path id="Trazado_24436" data-name="Trazado 24436" d="M-372.84,127.162h75.534l2.864,4.324v2.161h-81.264v-2.161Z" transform="translate(448.43 56.531)" fill="#f1f1f5" fill-rule="evenodd"/>
      <rect id="Rectángulo_3878" data-name="Rectángulo 3878" width="61.652" height="30.152" transform="translate(82.531 153.54)" fill="#e1e8e1"/>
      <path id="Trazado_24437" data-name="Trazado 24437" d="M-352.945,145.38l-18.879-18.88V115.226h61.651V145.38Z" transform="translate(454.356 38.312)" fill="#9d9d9d" fill-rule="evenodd"/>
      <rect id="Rectángulo_3879" data-name="Rectángulo 3879" width="226.713" height="164.812" rx="3.185" fill="#d0dcd1"/>
      <path id="Trazado_24438" data-name="Trazado 24438" d="M-398.244,55.629h210.622a5.088,5.088,0,0,1,5.073,5.073V199.913H-403.314V60.7A5.085,5.085,0,0,1-398.244,55.629Z" transform="translate(406.289 -52.656)" fill="#5a3445" fill-rule="evenodd"/>
      <rect id="Rectángulo_3880" data-name="Rectángulo 3880" width="203.691" height="124.409" transform="translate(11.512 13.129)" fill="#a5dbe5"/>
      <rect id="Rectángulo_3881" data-name="Rectángulo 3881" width="203.69" height="21.909" transform="translate(11.513 13.129)" fill="#14b0bf"/>
      <rect id="Rectángulo_3882" data-name="Rectángulo 3882" width="143.3" height="78.428" transform="translate(41.708 42.305)" fill="#f5f5f7"/>
      <path id="Trazado_24439" data-name="Trazado 24439" d="M-403.314,112.74h220.766v9.509a5.089,5.089,0,0,1-5.073,5.073H-398.244a5.087,5.087,0,0,1-5.07-5.073Z" transform="translate(406.289 34.518)" fill="#e1e8e1" fill-rule="evenodd"/>
      <rect id="Rectángulo_3883" data-name="Rectángulo 3883" width="39.34" height="28.813" transform="translate(48.904 49.568)" fill="#fdc00f"/>
      <rect id="Rectángulo_3884" data-name="Rectángulo 3884" width="39.34" height="5.819" transform="translate(48.904 81.706)" fill="#fdc00f"/>
      <rect id="Rectángulo_3885" data-name="Rectángulo 3885" width="39.34" height="28.813" transform="translate(93.564 49.568)" fill="#018a9d"/>
      <rect id="Rectángulo_3886" data-name="Rectángulo 3886" width="39.34" height="5.819" transform="translate(93.564 81.706)" fill="#018a9d"/>
      <path id="Trazado_24440" data-name="Trazado 24440" d="M-342.464,117.243l2.652-1.5-6.079-10.732,7.316-4.145L-350.1,92.322l-11.164-8.271-.206-.363.023.227-.184-.136.206.363,1.354,13.827,1.4,14.281,7.479-4.236,6.078,10.731,2.652-1.5Z" transform="translate(469.911 -9.826)" fill="#5a3445" fill-rule="evenodd"/>
      <rect id="Rectángulo_3887" data-name="Rectángulo 3887" width="39.34" height="28.813" transform="translate(138.223 49.568)" fill="#e74037"/>
      <rect id="Rectángulo_3888" data-name="Rectángulo 3888" width="39.34" height="5.819" transform="translate(138.223 81.706)" fill="#e74037"/>
    </g>
    <g id="Grupo_14240" data-name="Grupo 14240" transform="translate(-210.14 151.174)">
      <path id="Trazado_24441" data-name="Trazado 24441" d="M-327.563,87.413H-250.8l19.741,19.739V213.162h-96.5Z" transform="translate(327.563 -87.413)" fill="#f1f1f5" fill-rule="evenodd"/>
      <path id="Trazado_24442" data-name="Trazado 24442" d="M-304.036,108.7l.524-7.383,48.949,48.947v41.663h-46.162l-11.439-11.44Z" transform="translate(351.067 -66.183)" fill="#e1e8e1" fill-rule="evenodd"/>
      <path id="Trazado_24443" data-name="Trazado 24443" d="M-285.345,100.983l36.946,36.946.328.331-.328.331-36.946,36.943-.331.333-.331-.333-36.946-36.943-.331-.331.331-.331,36.946-36.946.331-.331.331.331Zm35.95,37.277-36.281-36.284L-321.96,138.26l36.284,36.284Z" transform="translate(334.094 -67.204)" fill="#402431" fill-rule="evenodd"/>
      <path id="Trazado_24444" data-name="Trazado 24444" d="M-300.637,105.543c-1.859,9.818-6.106,18-10.975,26.1s-3.35,16.778,3.365,24.551h18.582c6.713-7.774,8.236-16.442,3.365-24.551s-9.287-16.237-11.146-26.055a3.059,3.059,0,0,0,2.16-2.764,2.893,2.893,0,0,0-2.845-2.845v24.279a2.286,2.286,0,0,1,1.622,2.18v19.208a2.285,2.285,0,0,1-2.276,2.276h0c-.058,0-.116,0-.172-.008s-.111.008-.169.008h0a2.283,2.283,0,0,1-2.276-2.276V126.441a2.283,2.283,0,0,1,1.622-2.18V99.982a2.978,2.978,0,0,0-2.847,2.845A2.916,2.916,0,0,0-300.637,105.543Z" transform="translate(347.552 -68.227)" fill="#5a3445" fill-rule="evenodd"/>
      <path id="Rectángulo_3889" data-name="Rectángulo 3889" d="M.232,0H20.643a.232.232,0,0,1,.232.232V4.223a.233.233,0,0,1-.233.233H.232A.232.232,0,0,1,0,4.223V.232A.232.232,0,0,1,.232,0Z" transform="translate(38.158 87.971)" fill="#785b68"/>
      <rect id="Rectángulo_3890" data-name="Rectángulo 3890" width="19.387" height="21.881" transform="translate(38.903 92.427)" fill="#fc0"/>
      <path id="Trazado_24445" data-name="Trazado 24445" d="M-312.164,124h19.387v19.386Z" transform="translate(351.067 -31.571)" fill="#ffaa1c" fill-rule="evenodd"/>
      <rect id="Rectángulo_3891" data-name="Rectángulo 3891" width="45.246" height="1.169" transform="translate(25.794 33.526)" fill="#402431"/>
      <path id="Trazado_24446" data-name="Trazado 24446" d="M-306.009,99.35a3.953,3.953,0,0,1,3.954,3.954,3.955,3.955,0,0,1-3.954,3.954,3.953,3.953,0,0,1-3.954-3.954A3.952,3.952,0,0,1-306.009,99.35Z" transform="translate(354.427 -69.192)" fill="#5a3445" fill-rule="evenodd"/>
      <path id="Trazado_24447" data-name="Trazado 24447" d="M-307.388,100.252a1.675,1.675,0,0,1,1.672,1.675,1.674,1.674,0,0,1-1.672,1.672,1.673,1.673,0,0,1-1.672-1.672A1.673,1.673,0,0,1-307.388,100.252Z" transform="translate(355.806 -67.815)" fill="#fff" fill-rule="evenodd"/>
      <path id="Trazado_24448" data-name="Trazado 24448" d="M-316.343,100.252a1.676,1.676,0,0,1,1.675,1.675,1.675,1.675,0,0,1-1.675,1.672,1.675,1.675,0,0,1-1.672-1.672A1.675,1.675,0,0,1-316.343,100.252Z" transform="translate(342.137 -67.815)" fill="#402431" fill-rule="evenodd"/>
      <path id="Trazado_24449" data-name="Trazado 24449" d="M-298.434,100.252a1.673,1.673,0,0,1,1.672,1.675,1.673,1.673,0,0,1-1.672,1.672,1.673,1.673,0,0,1-1.672-1.672A1.673,1.673,0,0,1-298.434,100.252Z" transform="translate(369.473 -67.815)" fill="#402431" fill-rule="evenodd"/>
      <path id="Trazado_24450" data-name="Trazado 24450" d="M-292.631,115.007a1.673,1.673,0,0,1,1.673,1.672,1.673,1.673,0,0,1-1.673,1.672,1.673,1.673,0,0,1-1.675-1.672A1.673,1.673,0,0,1-292.631,115.007Z" transform="translate(378.326 -45.293)" fill="#402431" fill-rule="evenodd"/>
      <path id="Trazado_24451" data-name="Trazado 24451" d="M-322.273,114.876a1.673,1.673,0,0,1,1.675,1.672,1.673,1.673,0,0,1-1.675,1.672,1.671,1.671,0,0,1-1.673-1.672A1.671,1.671,0,0,1-322.273,114.876Z" transform="translate(333.084 -45.493)" fill="#402431" fill-rule="evenodd"/>
      <path id="Trazado_24452" data-name="Trazado 24452" d="M-297.177,101.188l19.737,19.737V101.188l-9.869-9.869Z" transform="translate(373.943 -81.449)" fill="#e1e8e1" fill-rule="evenodd"/>
      <path id="Trazado_24453" data-name="Trazado 24453" d="M-297.177,87.413l19.737,19.739h-19.737Z" transform="translate(373.943 -87.413)" fill="#a5dbe5" fill-rule="evenodd"/>
    </g>
    <g id="Grupo_14242" data-name="Grupo 14242" transform="translate(-313.325 265.065)">
      <rect id="Rectángulo_3892" data-name="Rectángulo 3892" width="124.807" height="85.006" rx="3.377" fill="#5a3445"/>
      <path id="Trazado_24454" data-name="Trazado 24454" d="M-365.027,135.87h89.919v67.94h-89.92v-67.94Z" transform="translate(373.561 -127.339)" fill="#9d9d9d" fill-rule="evenodd"/>
      <path id="Trazado_24455" data-name="Trazado 24455" d="M-365.027,135.87h89.919v67.94h-21.979l-67.941-67.94Z" transform="translate(373.561 -127.339)" fill="#8c8287" fill-rule="evenodd"/>
      <path id="Trazado_24456" data-name="Trazado 24456" d="M-319.77,146.3a7.615,7.615,0,0,1,7.615,7.617,7.615,7.615,0,0,1-7.615,7.615,7.617,7.617,0,0,1-7.617-7.615A7.618,7.618,0,0,1-319.77,146.3Z" transform="translate(431.016 -111.416)" fill="#9d9d9d" fill-rule="evenodd"/>
      <path id="Trazado_24457" data-name="Trazado 24457" d="M-321.112,147.181a5.4,5.4,0,0,1,5.394,5.4,5.394,5.394,0,0,1-5.394,5.394,5.4,5.4,0,0,1-5.4-5.394A5.4,5.4,0,0,1-321.112,147.181Z" transform="translate(432.358 -110.074)" fill="#785b68" fill-rule="evenodd"/>
      <rect id="Rectángulo_3893" data-name="Rectángulo 3893" width="14.946" height="8.755" transform="translate(103.772 22.507)" fill="#9d9d9d"/>
      <rect id="Rectángulo_3894" data-name="Rectángulo 3894" width="14.946" height="8.756" transform="translate(103.772 8.531)" fill="#9d9d9d"/>
      <rect id="Rectángulo_3895" data-name="Rectángulo 3895" width="14.946" height="8.755" transform="translate(103.772 67.718)" fill="#9d9d9d"/>
      <rect id="Rectángulo_3896" data-name="Rectángulo 3896" width="14.946" height="8.756" transform="translate(103.772 53.742)" fill="#9d9d9d"/>
      <path id="Trazado_24458" data-name="Trazado 24458" d="M-321.119,147.185a5.386,5.386,0,0,1,5.384,5.386,5.383,5.383,0,0,1-5.384,5.384,5.383,5.383,0,0,1-5.384-5.384A5.386,5.386,0,0,1-321.119,147.185Z" transform="translate(432.365 -110.068)" fill="#5a3445" fill-rule="evenodd"/>
      <path id="Trazado_24459" data-name="Trazado 24459" d="M-316.527,149.831a5.371,5.371,0,0,1,.4,2.051,5.383,5.383,0,0,1-5.384,5.384,5.385,5.385,0,0,1-4.34-2.2,5.379,5.379,0,0,1-.4-2.051,5.383,5.383,0,0,1,5.381-5.384A5.378,5.378,0,0,1-316.527,149.831Z" transform="translate(432.753 -109.379)" fill="#785b68" fill-rule="evenodd"/>
      <g id="Grupo_14241" data-name="Grupo 14241" transform="translate(38.608 39.597)">
        <path id="Trazado_24460" data-name="Trazado 24460" d="M-349.368,158.364l2.286,2.286,2.468,2.468,7.258-5.689-3.251-3.251-2.289-2.286-7.92-3.519c-1.013-.483-2.958-.235-2.092,2.034Z" transform="translate(353.124 -148.167)" fill="#f5f5f7" fill-rule="evenodd"/>
        <path id="Trazado_24461" data-name="Trazado 24461" d="M-344.363,150.444l22.462,22.475q-3.236,3.232-6.468,6.468l-22.462-22.472Z" transform="translate(356.623 -144.69)" fill="#ecbc2c" fill-rule="evenodd"/>
        <path id="Trazado_24462" data-name="Trazado 24462" d="M-341.94,165.812l1.618-1.618,1.619-1.62,1.618-1.619,1.618-1.618,1.825,1.825-1.619,1.62-1.618,1.618-1.618,1.618-1.618,1.617Z" transform="translate(370.194 -131.116)" fill="#f5f5f7" fill-rule="evenodd"/>
        <path id="Trazado_24463" data-name="Trazado 24463" d="M-334.749,160.06a127.957,127.957,0,0,1,22.462,22.475c1.579,3.166-3.767,8.047-6.47,6.468a164.454,164.454,0,0,1-22.46-22.472Z" transform="translate(371.298 -130.013)" fill="#e1ae15" fill-rule="evenodd"/>
      </g>
    </g>
    <path id="Trazado_24464" data-name="Trazado 24464" d="M-326.294,45.64a4.824,4.824,0,0,1,4.823,4.823,4.824,4.824,0,0,1-4.823,4.823,4.824,4.824,0,0,1-4.823-4.823A4.824,4.824,0,0,1-326.294,45.64Z" transform="translate(111.998 0)" fill="#a5dbe5" fill-rule="evenodd"/>
  </g>
</svg>
