<svg xmlns="http://www.w3.org/2000/svg" width="481.548" height="437" viewBox="0 0 481.548 437">
  <g id="Grupo_13477" data-name="Grupo 13477" transform="translate(-41.468 -61.444)">
    <path id="Trazado_20373" data-name="Trazado 20373" d="M522.929,390.289c-.163-1.188-.347-2.372-.5-3.562a89.9,89.9,0,0,0-3.958-17.5A392.083,392.083,0,0,1,504.059,315.7q-3.328-17.323-6.255-34.716c-1.16-6.927-2.045-13.893-3.057-20.841-.994-6.836-2.013-13.669-2.573-20.561-.313-3.87-.756-7.728-1.184-11.586-.485-4.369-1.039-8.731-1.526-13.1-.537-4.822-1-9.654-1.558-14.474a3.444,3.444,0,0,1,1.373-3.381,48.217,48.217,0,0,0,12.369-15.595,23.375,23.375,0,0,0,2.6-11.736,36.533,36.533,0,0,0-2.323-11.189c-2.635-6.878-5.334-13.73-8.321-20.465a45.021,45.021,0,0,0-5.365-9.334,14.415,14.415,0,0,0-5.07-4.253,34.491,34.491,0,0,0-6.777-2.367c-.375-.1-.815-.056-1.078-.567a10.407,10.407,0,0,0,2.389-1.554,3.824,3.824,0,0,1,3.518-1.324,6.539,6.539,0,0,0,4.922-1.593,7.866,7.866,0,0,0,2.29-3.166,2.5,2.5,0,0,1,2.066-1.767,5.938,5.938,0,0,0,3.614-2.433c1.029-1.333.962-2.063-.466-2.922a12.931,12.931,0,0,1-5.313-6.52c-1.161-2.855-2.336-5.705-3.258-8.653a31.5,31.5,0,0,0-3.241-7.161,12.484,12.484,0,0,0-6.667-5.374,13.852,13.852,0,0,0-5.418-.514,7.7,7.7,0,0,1-3.881-.338,22.632,22.632,0,0,0-7.423-1.945,24.832,24.832,0,0,0-7.678-.151A13.158,13.158,0,0,0,444.83,78.6c-1.527,1.249-1.645,2.446-.462,3.976.245.316.568.567.523,1.026a2.381,2.381,0,0,0,1.017,2.226c.564.437.386.775-.214.928-.55.141-1.131.16-1.683.3a7.867,7.867,0,0,0-6.056,5.911,7.97,7.97,0,0,0,2.324,8.149c.52.509,1.166.879,1.3,1.727a17.3,17.3,0,0,0,2.921,7.248c.55.791.28,1.18-.365,1.654a9.757,9.757,0,0,1-4.759,1.765c-1.38.163-1.8.745-1.468,2.085a4.475,4.475,0,0,0,3.435,3.661,2.861,2.861,0,0,1,2.079,1.5,6.968,6.968,0,0,0,6.526,3.664,1.646,1.646,0,0,1,1.338.242l-1.35.951a59.443,59.443,0,0,0-5.754,4.316c-3.441,3.092-6.915,6.15-10.319,9.285a62.222,62.222,0,0,1-12.223,8.472,12.83,12.83,0,0,1-8.6,1.659,36.821,36.821,0,0,1-12.346-4.439c-3.832-2.277-7.486-4.831-11.282-7.161a3.068,3.068,0,0,1-1.64-3.025q.1-12.854.006-25.709a14.876,14.876,0,0,0-12.658-14.828,28.276,28.276,0,0,0-5.12-.36q-21.852.182-43.7.377-42.848.361-85.7.712-30.592.247-61.187.463a27.331,27.331,0,0,0-4.087.362c-5.985.942-10.728,3.779-13.755,9.139a24.94,24.94,0,0,0-3.141,9.53,98.167,98.167,0,0,0-.132,12.154q.012,1.285.05,2.569c.019.656-.321.932-.941.932-.4,0-.8.009-1.2-.009a38.826,38.826,0,0,1-10.225-1.979c-6.254-2.024-11.874-5.283-17.364-8.813-4.961-3.188-10.062-6.1-15.8-7.711-1.759-.493-3.515-1-5.29-1.425-.687-.166-1.015-.361-.758-1.14.375-1.136.691-2.3.982-3.458A1.516,1.516,0,0,1,109,104.291a15.591,15.591,0,0,0,3.514-1.338A18.87,18.87,0,0,0,119.96,76.1a1.836,1.836,0,0,1-.075-2.393,4,4,0,0,0-1.95-6.071,5.34,5.34,0,0,0-1.131-.388,1.287,1.287,0,0,1-1.153-1.065,4.292,4.292,0,0,0-3.808-3.216,7.794,7.794,0,0,0-3.871.447,1.654,1.654,0,0,1-1.993-.3,1.605,1.605,0,0,0-1.774-.307,1.662,1.662,0,0,1-1.844-.431,4.558,4.558,0,0,0-4.385-.656,7.748,7.748,0,0,0-3.3,2.068,2.175,2.175,0,0,1-1.778.786,6.813,6.813,0,0,0-6.272,3.162,1.512,1.512,0,0,1-1.391.8,2.521,2.521,0,0,0-2.41,1.629,10.04,10.04,0,0,0-1,6.159c.283,1.429.6,2.728-.472,3.993a2.877,2.877,0,0,0-.383,1.648,6.2,6.2,0,0,0,.821,3.624,2.276,2.276,0,0,1,.091,2.657,4.666,4.666,0,0,0-.188,4.143,7.022,7.022,0,0,0,3.6,3.955c.447.224,1.015.347,1.076.982a3.826,3.826,0,0,0,2.657,3.625.621.621,0,0,1,.246.233,4.174,4.174,0,0,0,5,1.538c1.142-.346,1.98.523,1.787,1.716-.182,1.125-.515,2.225-.716,3.348a3.118,3.118,0,0,1-1.783,2.343c-1.927,1-3.806,2.088-5.744,3.061a30.512,30.512,0,0,0-8.81,6.44,26.434,26.434,0,0,0-7.331,17.623A51.914,51.914,0,0,0,73.5,152.5a45.342,45.342,0,0,0,5.011,12.312l-.256,3.246-.039-.048c-.106,1.24-.215,2.126-.252,3.017a230.387,230.387,0,0,1-3.352,28.219C73,208.819,71.3,218.373,69.675,227.942c-1.963,11.6-3.964,23.184-6.386,34.694-3.069,14.579-6.105,29.164-9.382,43.7-3.5,15.538-6.825,31.114-11.251,46.426a29.248,29.248,0,0,0-1.179,6.216A2.689,2.689,0,0,0,43,361.79c1.266.66,2.5,1.367,3.828,1.91,3.862,1.584,7.874,2.732,11.8,4.117a72.186,72.186,0,0,0,15.692,3.444,7.348,7.348,0,0,0,2.216-.018,1.991,1.991,0,0,0,1.544-2.961,3.844,3.844,0,0,0-1.211-1.422,21.227,21.227,0,0,0-3.3-2.146,75.385,75.385,0,0,1-16.06-11.9,2.318,2.318,0,0,1-.8-2.726c.132-.377.228-.766.348-1.147.443-1.4.444-1.4,1.886-1.249,1.9.2,1.98.171,2.57-1.632,2.931-8.951,5.9-17.892,8.6-26.915,3.509-11.7,7.311-23.316,10.449-35.125q6.884-25.9,14.052-51.725a176.234,176.234,0,0,1,6.884-20.8c.228-.549.274-1.24,1.021-1.6a57.169,57.169,0,0,1,1.061,6.438c1.316,9.681,1.994,19.424,2.777,29.157.408,5.066.769,10.135,1.158,15.2.506,6.6,1.068,13.205,1.517,19.815.445,6.553.747,13.115,1.192,19.669a6.41,6.41,0,0,1-.7,3.439c-2.139,4.294-4.486,8.48-6.713,12.726a116.77,116.77,0,0,0-8.265,19.532,24.411,24.411,0,0,0-1.2,6.55c-.1,3.406,1.95,5.313,5.36,5.1.549-.034,1.094-.417,1.666-.062a4.321,4.321,0,0,1-.483,1.629c-1.232,3.073-2.455,6.15-3.718,9.211a127.154,127.154,0,0,0-5.416,14.786,27.363,27.363,0,0,0-1.211,6.031A51.644,51.644,0,0,0,92,397.706q4.716,14.227,9.024,28.576c1.948,6.5,4.386,12.862,5.908,19.5a38.57,38.57,0,0,1,1,4.534,1.108,1.108,0,0,1-.967.028,67.1,67.1,0,0,0-10.71-2.273,134.284,134.284,0,0,1-19.26-4.777c-.777-.237-1.535-.414-1.466-1.526.038-.63-.453-1.019-1.041-1.213a8,8,0,0,0-2.533-.369.862.862,0,0,0-.868.439c-.524,1.219-1.457,1-2.445.79-3.123-.676-6.236-1.419-9.383-1.961-4.421-.761-4.624-.806-6.64,3.562-1.336,2.9-2.394,5.928-3.487,8.932a69.677,69.677,0,0,0-3.993,16.085,27.829,27.829,0,0,0-.173,5.3c.164,2.066.813,2.794,2.755,3.416,3.689,1.18,7.461.884,11.216.584,1.629-.131,2.053-1.107,1.47-2.692a4.021,4.021,0,0,0-1.391-1.908c-.5-.374-1.02-.735-1.527-1.1-2.124-1.544-2.376-2.315-1.494-4.79a7.327,7.327,0,0,1,.761-1.529,30.178,30.178,0,0,1,4.961-5.652,4.5,4.5,0,0,1,3.454-1.228c.77.052,1.325.192,1.314,1.148-.009.832.52,1.2,1.324,1.255.625.044,1.246.155,1.871.215.4.038.9.083,1.121-.265.659-1.061,1.4-.616,2.191-.245Q79.5,463.6,86.022,466.64c6.988,3.259,13.983,6.495,21.441,8.584a32.135,32.135,0,0,0,11.119,1.606,6.737,6.737,0,0,0,5.946-3.94,23.97,23.97,0,0,0,1.631-4.5c1.922-6.748,2.447-13.713,2.973-20.649.679-8.939,1.074-17.9,1.27-26.869.061-2.73.317-5.455.247-8.489,9.871,3.3,19.882,4.949,29.9,6.51a1.5,1.5,0,0,1-.309,1.069,145.541,145.541,0,0,0-8.167,14.853q-3.57,7.216-7.2,14.4c-.238.475-.329,1.048-1.042,1.236a3.208,3.208,0,0,0-2.132,3.927,1.778,1.778,0,0,1-.084,1.6c-.749,1.6-1.51,3.2-2.246,4.812-2.085,4.569-4.463,9.008-6.071,13.788a16.581,16.581,0,0,0-.972,3.806c-.144,1.631.148,2.062,1.759,2.323,1.576.256,3.17.412,4.76.572,6.306.639,12.61,1.29,18.92,1.886a119.253,119.253,0,0,0,14.034.551,11.3,11.3,0,0,0,3.865-.673c1.557-.606,1.848-1.584.888-2.938a8.247,8.247,0,0,0-3.375-2.56,28.628,28.628,0,0,0-4.672-1.673,26.19,26.19,0,0,1-12.094-7.134c-2.214-2.287-2.411-1.439-.753-4.863a2.167,2.167,0,0,1,1.915-1.421c1.224-.115,2.8-2.252,2.425-3.285-.343-.938.1-1.4.573-1.943,2.827-3.224,5.387-6.663,8.084-9.989a295.493,295.493,0,0,0,18.534-25.909,29.8,29.8,0,0,0,4.324-10.194c.635-3.1.006-5.756-2.526-7.859a37.239,37.239,0,0,0-4.69-3.443c-5.059-3.012-10.309-5.668-15.637-8.158-11.436-5.344-22.8-10.828-33.754-17.111-.872-.5-2.189-.735-2.432-1.7-.216-.862.841-1.664,1.2-2.555a2.284,2.284,0,0,1,2.542-1.472c4.794.072,9.588.012,14.371-.388a69.52,69.52,0,0,0,7.813-.985c1.3-.26,1.681-.964,1.279-2.234a3.668,3.668,0,0,0-1.042-1.545,11.083,11.083,0,0,0-3.439-2.211,36.568,36.568,0,0,0-4.725-1.514,77.466,77.466,0,0,1-7.526-2.314c-1.12-.417-1.147-.494-.471-1.382q1.089-1.431,2.287-2.776c.823-.925.868-.932,1.972-.2a22.836,22.836,0,0,0,5.578,2.577,11.107,11.107,0,0,0,5.743.34,18.756,18.756,0,0,0,5.287-1.94c1.952-1.06,3.3-.69,5,.643a42.128,42.128,0,0,0,19.035,8.921,70.233,70.233,0,0,0,9.2.9,28.292,28.292,0,0,0,10.751-1.773q3.155-1.142,6.2-2.526a2.182,2.182,0,0,0,.308.036c1.078.008,1.657-.33,1.817-1.046,1.7-.83,3.375-1.7,5.013-2.666.791-.466,1.551-.973,2.327-1.459a1.814,1.814,0,0,0,.346-.151,2.579,2.579,0,0,0,.489-.371,180.073,180.073,0,0,0,15.655-11.439,5.929,5.929,0,0,1,3.874-1.43c11.2-.11,22.393-.286,33.59-.441.285,0,.572.014.856-.009,1.052-.089,1.4-.406,1.529-1.469a11.75,11.75,0,0,0,.044-1.54q-.041-5.57-.093-11.141-.14-17.568-.271-35.135a14.173,14.173,0,0,1,.088-1.706.529.529,0,0,1,.479-.422.477.477,0,0,1,.541.312,4.288,4.288,0,0,1,.58,1.762c-.023,1.391,2.978,11.149,3.007,11.823a.8.8,0,0,0,.975.748c1.408-.278,1.711.669,2.123,1.666q4.671,11.32,9.4,22.618c.967,2.322.972,2.33,3.372,1.558q38.806-12.466,77.612-24.934a3.061,3.061,0,0,1,1.8-.313c-.751,2.085-1.666,3.971-2.552,5.866q-7.082,15.123-14.171,30.243c-1.86,3.982-3.637,8-5.484,11.994a247.258,247.258,0,0,0-9.458,23.693,215.564,215.564,0,0,0-8.468,35.966c-3.2,19.9-6.885,39.721-10.072,59.624-.353,2.207-.375,2.2,1.873,2.792a7.746,7.746,0,0,1,.818.247.6.6,0,0,1,.384.511,2.81,2.81,0,0,1-1.473,2.8c-2.893,1.362-5.819,2.657-8.679,4.085a66.783,66.783,0,0,1-17.306,5.858,15.1,15.1,0,0,0-5.286,1.926c-.783.493-1.6,1.022-1.53,2.1.069,1.109,1.012,1.442,1.855,1.785a30.754,30.754,0,0,0,7.447,1.917,145,145,0,0,0,24.944,1.442,59.525,59.525,0,0,0,9.532-.962,6.323,6.323,0,0,0,5.112-4.5,20.683,20.683,0,0,0,1.107-9.452,22.265,22.265,0,0,1,.155-5.441c.04-.4.132-.788.172-1.186.158-1.573.154-1.574,1.727-1.976,1.98-.507,2.006-.5,2.282-2.579,1.186-8.945,2.84-17.815,4.111-26.75a334.092,334.092,0,0,1,6.7-33.234,238.578,238.578,0,0,1,20.949-54.727c2.784-5.243,5.758-10.389,8.721-15.536,4.043-7.023,7.832-14.214,13.128-20.434a8.908,8.908,0,0,1,1.346-1.544.888.888,0,0,1,1.36,1.121,6.845,6.845,0,0,1-.687.98,121.678,121.678,0,0,0-8.419,11.871,4.952,4.952,0,0,0-.756,2.912c.107,2.225.15,4.455.148,6.682-.009,10.568-.208,21.135.537,31.693a142.042,142.042,0,0,0,1.641,16.524,231.752,231.752,0,0,0,10.025,36.457c5.4,14.8,10.94,29.552,17.058,44.08.836,1.984,1.684,3.448,4.108,3.146a.993.993,0,0,1,1.175.757c.2.615-.091.945-.545,1.281q-2.132,1.582-4.23,3.211a71.211,71.211,0,0,1-14.944,9.3,33.561,33.561,0,0,0-3.62,1.943,9.06,9.06,0,0,0-2.915,2.616,2.124,2.124,0,0,0,.874,3.414,5.514,5.514,0,0,0,2.475.614c1.541.028,3.084.065,4.624.018a138.376,138.376,0,0,0,18.21-1.945,83.31,83.31,0,0,0,15.926-3.947,5.193,5.193,0,0,0,3.755-5.625c-.189-3.163-1.362-5.992-2.489-8.855-.544-1.377-1.1-2.736-2.8-3.218-.735-.208-.914-1.13-1.1-1.833-.159-.6.488-.69.843-.915a1.879,1.879,0,0,0,.783-2.384c-.8-2.679-1.551-5.376-2.42-8.033-4.873-14.866-9.554-29.785-13.075-45.045-1.36-5.9-2.9-11.748-4.4-17.611-.339-1.324-.1-1.549,1.143-1.846a21.089,21.089,0,0,0,10.082-5.543A32.436,32.436,0,0,1,443,388.248c.041-.022.08-.048.123-.069l.318-.259c.277-.206.553-.453,1.013-.229a4.143,4.143,0,0,1,.265,1.627c.124,1.479.212,2.963.318,4.443.087,1.208.4,1.653,1.219,1.761.769.1,1.122-.276,1.429-1.567.132-.555.234-1.117.343-1.679.313-1.626.608-3.254.936-4.877a64.373,64.373,0,0,0,1.479-14.788c-.131-4.28-.06-8.571.069-12.853.268-9.02.516-18.041.928-27.058.21-4.621.148-9.255.522-13.869.518-6.374,1.3-12.725,1.84-19.1.744-8.762,1.905-17.483,2.543-26.254.119-1.644.164-1.649,1.875-1.7,4.454-.131,8.9-.327,13.331-.866,1.311-.159,1.35-.115,1.6,1.321.947,5.343,2.1,10.639,3.418,15.9,1.786,7.142,3.319,14.347,5.5,21.393,4.078,13.2,8,26.446,13.067,39.316,2.508,6.374,4.331,13,7.076,19.291a46.721,46.721,0,0,1,1.833,5.519,12.521,12.521,0,0,1-.237,7.412,23.339,23.339,0,0,1-5.318,9.092c-1.75,1.883-3.568,3.7-5.37,5.534a5.813,5.813,0,0,0-1.579,2.407c-.384,1.3-.023,1.984,1.3,2.207a9.935,9.935,0,0,0,3.409-.113,58.209,58.209,0,0,0,10.139-3.095,8.682,8.682,0,0,0,4.274-3.275q2.13-3.11,4.294-6.2a9.226,9.226,0,0,1,2.332-2.62l3.435,5.844a10.848,10.848,0,0,0,.619,1.024.877.877,0,0,0,1.05.366.939.939,0,0,0,.617-.938A5.886,5.886,0,0,0,522.929,390.289ZM157.377,256c-1.25-.892-1.263-.874-.927-2.409a4.187,4.187,0,0,0-3.023-5.332,8.263,8.263,0,0,0-1.837-.382,18.276,18.276,0,0,0-4.781.181,125.773,125.773,0,0,0-13.609,3.422,3.4,3.4,0,0,1-1.813.33c-.05-.357-.1-.634-.128-.914-.683-8.194-1.4-16.387-2.031-24.584-.331-4.328-.431-8.673-.768-13q-.876-11.243-1.607-22.494l-.458-7.623,0-.013a132.168,132.168,0,0,0,31.034-7.944,1.575,1.575,0,0,1,1.514-.146c.365,27.5.731,55.092,1.1,82.975C158.975,257.237,158.2,256.59,157.377,256Z" transform="translate(0 0)" fill="#fff"/>
    <g id="Grupo_13476" data-name="Grupo 13476" transform="translate(41.468 61.444)">
      <path id="Trazado_20374" data-name="Trazado 20374" d="M138.61,151a6.757,6.757,0,0,1-.58.361c-1.447.722-2.154.314-2.165-1.3-.028-3.827.155-7.665-.072-11.479-.418-7.015-.036-14.039-.379-21.042-.176-3.593-.14-7.178-.247-10.764a10.825,10.825,0,0,1,2.156-6.495,17.943,17.943,0,0,1,2.935-3.932,22.968,22.968,0,0,1,10.236-5.058,43.676,43.676,0,0,1,9.522-.633q43.357,0,86.713.016c2.423,0,2.244-.2,2.252,2.189.005,1.543-.044,3.087.013,4.627.414,11.182.308,22.369.34,33.554,0,1.57.111,1.624,1.694,1.1a5.186,5.186,0,0,0,1.169-.217c3.161-.647,6.258-1.365,9.594-.914a22.885,22.885,0,0,1,9.592,3.278c3.516,2.278,5.34,5.409,6.335,9.53,1.386,5.744.58,10.926-3.192,15.3a23.615,23.615,0,0,1-18.059,8.336,28.526,28.526,0,0,1-5.107-.309c-1.558-.243-1.677-.05-1.685,1.486-.01,1.993.228,3.986.255,5.964.128,9.368.078,18.737.079,28.106,0,1.606-.175,1.8-1.758,2.186-2.928.708-5.89,1.293-8.776,2.141-4.534,1.332-9.166,2.217-13.757,3.291-2.661.621-5.369.252-8.068.544-2.249.242-4.556,1.057-6.805.462-1.79-.475-2.313-1.481-1.606-3.176a14.9,14.9,0,0,0,1.032-4.98c.227-3.985-.933-7.658-2.279-11.3-.245-.661-.437-1.447-1.214-1.787l.012.019a9.009,9.009,0,0,0-3.421-4.452,12.387,12.387,0,0,0-4.679-2.578,16.541,16.541,0,0,0-5.824-.848,20.01,20.01,0,0,0-11.729,4.478,22.5,22.5,0,0,0-5.163,5.833,18.586,18.586,0,0,0-1.662,5.164,26.96,26.96,0,0,0-.783,7.27,12.3,12.3,0,0,0,.784,4.162,1.9,1.9,0,0,1-1.636,2.838,8.125,8.125,0,0,1-.854.03c-8.833.515-17.674.321-26.513.366-2.442.013-4.9-.258-7.329.3-.664.151-1.1-.123-1.088-.9.016-1.312,0-2.626,0-3.94-.009-3.654.14-7.316-.058-10.96-.4-7.353-.087-14.714-.391-22.059-.136-3.3-.092-6.606-.274-9.9a2.283,2.283,0,0,1,1.571-2.515,18.209,18.209,0,0,0,4.1-2.385,2.021,2.021,0,0,0,.762-2.551c-.955-2.167-1.274-4.64-2.992-6.451C138.992,150.2,138.947,150.2,138.61,151Z" transform="translate(-13.897 -52.848)" fill="#e5dce0"/>
      <path id="Trazado_20375" data-name="Trazado 20375" d="M250.555,306.824c-.1,2.2.168,2.669-2.084,2.93a5.1,5.1,0,0,0-.651.166.734.734,0,0,0-1,.166c-1.5,0-27,.645-27.445.863a.448.448,0,0,0-.661.177,4.311,4.311,0,0,0-1.473.232,1.257,1.257,0,0,1-1.619-1.042,1.5,1.5,0,0,1,.9-1.9c.36-.138,6.94-5.292,6.334-5.7-.067-.3-.136-.6-.2-.9.111-.454-.216-.566-.537-.682.043-.5.114-1-.34-1.378a6.787,6.787,0,0,0-2.768-3c-.514-.756-1.149-.523-1.746-.168-.8.478-1.574,1.012-2.358,1.522a3.827,3.827,0,0,1-3.379-1.1c-.216-.241-19.1,12.4-19.284,12.654a3.881,3.881,0,0,0-2.345.8c-.8.044-1.644-.243-2.378.311a2.538,2.538,0,0,0-1.391.183.428.428,0,0,0-.5,0l-1.268.272a66.1,66.1,0,0,0-6.87-.032c-.2,0-.4.177-.593.272h-3.817a2.226,2.226,0,0,0-2.353,0c-3.551.045-7.107-.2-10.654.146a3.229,3.229,0,0,0-1.708-.013c-9.984-4.535-20.043-18.87-20.716-19.73.186-3.962-.224-24.984-.278-31.148-.013-1.329-.5-2.346.569-3.3,4.3-6.482.2-16.123,3.289-16.616a1.693,1.693,0,0,0,.285-2.392c-.04-.234-.079-.47-.118-.7.094-.435-.078-.624-.52-.563l-.68.084a.464.464,0,0,0-.664.192c-.283-.021-.571-.019-.85-.065-1.231-.2-1.557-.535-1.576-1.781-.035-2.161-.374-36.221-.357-39.468.008-1.573.014-1.549,1.611-1.622,1.987-.091,33.379-1.228,37.491-1.646,1.2-.449,1.495-.861,1.165-1.932a13.472,13.472,0,0,1-.458-3.325c-1.455-29.188,23.98-23.185,25.9-22.471a39.274,39.274,0,0,0,3.88,3.375l-.012-.019a2.1,2.1,0,0,0,.3,1.142,20.159,20.159,0,0,1,1.954,5.638,18.708,18.708,0,0,1,.294,7.28c-.421,2.06-.708,4.144-1.27,6.181a1.965,1.965,0,0,0,2.176,2.486c1.028-.115,2.05-.083,3.074-.1a57.694,57.694,0,0,0,10.042-.679c.787-.154,1.14.264,1.419.9,1.276,2.925,2.569,5.844,3.854,8.763q4.3,9.781,8.6,19.563c.757,1.721,1.536,3.435,2.238,5.178.536,1.329-.094,2.312-1.509,2.29a8.1,8.1,0,0,0-2.812.6,23.616,23.616,0,0,0-7.4,4.5,19.616,19.616,0,0,0-5.554,7.665c-.739,1.762-1.846,3.592-1.65,5.5.285,2.79,1.509,5.546,2.522,8.186a6.1,6.1,0,0,0,2.05,2.82c.183.129-.326.149-.065-.133.412.387.817.779,1.233,1.16a14.907,14.907,0,0,0,5.3,3.291,3.857,3.857,0,0,1,.744.4,12,12,0,0,0,8.153,1.93,10.127,10.127,0,0,0,5.749-2.352l.014-.009a4.378,4.378,0,0,0,1.623-.608.21.21,0,0,1,.19-.106,3.321,3.321,0,0,1,2.295,1.1c.084.584.135.931.219,1.514a.567.567,0,0,0,.184.819,22.688,22.688,0,0,0,.283,5.171C250.226,269.017,250.661,304.464,250.555,306.824Z" transform="translate(-13.434 -31.229)" fill="#f9b918"/>
      <path id="Trazado_20376" data-name="Trazado 20376" d="M325.283,89.563a5.45,5.45,0,0,1,4.922,2.9,14.983,14.983,0,0,1,1.544,4.666,26.666,26.666,0,0,1,.525,7.441c-.267,3.346.124,21.714.634,23.411-.052,1.734-.159,21.052-.063,24.367-.427.589-1.043,4.509-1.369,4.684-.7-.2-9.117-5.33-9.6-5.206a2.361,2.361,0,0,0-1.369-.005.811.811,0,0,0-1.013.225,4.987,4.987,0,0,0-2.762,2.847c-.469,1.263.173,2.618.347,3.969-.4.509-.045.8.313,1.09.258.553.813,1.077.591,1.706a8.546,8.546,0,0,1-1.874,3.119,13.065,13.065,0,0,0-1.419,2c-.588-.034-.731.447-.954.828a27.176,27.176,0,0,0-1.5,3.775c-1.252,3.117-2.649,6.152-5.827,7.843a1.582,1.582,0,0,0-1,1.917c-.491.795.171.911.663,1.127a6.218,6.218,0,0,1,3.022,5.769c-.039,2.539,1.611,4.377,3.251,6.13.515.814,4.111,4.081,5.057,4.175a3.767,3.767,0,0,0,1.989.91,2.232,2.232,0,0,1,1.574,1.422c.743,1.908,1.5,3.81,2.187,5.737a1.569,1.569,0,0,1-1.461,2.178c-.62.079-1.246.11-1.869.162-.806-.1-16,.563-18.534.563-.518-.465-4.989-.691-5.8-.522l-1.355-.274a15.876,15.876,0,0,1-2.231-5.479c-.265-1.091-2.348-5.234-2.189-6.51.261-.151-2.521-7.472-4.9-6.831-5.279,1.419-10.544,2.9-15.813,4.358a39.116,39.116,0,0,0-5,1.4c.418.669.779,1.236,1.127,1.811a7.453,7.453,0,0,1,1.239,4.037,20.119,20.119,0,0,0,.523,4.565c.465,2.227-.359,3.307-2.611,3.355-3.649.079-7.274.484-10.911.672-5.009.256-10.036-.05-15.046.339-.333-.458-1.639-.931-1.451-1.479.511-1.495-.212-2.915-.1-4.381a16.153,16.153,0,0,0-.274-2.538c-.052-.59.335-.79-.194-.766a11.829,11.829,0,0,0-1.193.089,25.194,25.194,0,0,0-6.395,1.778c-1.732.748-1.751.7-1.769-1.166,0-.057,0-.114,0-.171q-.023-14.64-.048-29.281c0-.342,0-.685.008-1.026.014-.491.219-.69.756-.629a22.93,22.93,0,0,0,24.585-16.37,15.938,15.938,0,0,0-.624-12.452c-3.9-8.4-14.043-13.84-23.685-11.1-.448.128-.944.557-1.415.008.016-4.033.044-8.067.045-12.1q0-7.243-.036-14.489c0-.621-.074-1.242-.111-1.864.04-.562.11-1.125.113-1.686.009-2.718.018-5.436-.016-8.154-.012-.861.29-1.233,1.178-1.224C228.343,91.236,324.269,90.02,325.283,89.563Z" transform="translate(12.954 -53.17)" fill="#f9b918"/>
      <path id="Trazado_20377" data-name="Trazado 20377" d="M303.46,194.194c-.039.185,1.807,5,2.565,7.314,1.5,4.57,2.977,9.145,4.5,13.708a26.168,26.168,0,0,0,1.545,3.954,5.87,5.87,0,0,1,.214,4.781c-.6,1.906-1.717,3.576-2.49,5.4-.56.515-10.489,13.464-10.627,13.811a3.079,3.079,0,0,0-1.3,1.061,25.043,25.043,0,0,0-2.851,2.009c-.563.333-1.794.975-1.794.975l-2.428,1.139-.958.308-2.24.927a7.2,7.2,0,0,0-2.722.9l-.889.248.005-.048s-.676.269-1,.371l-1.2.371a14.419,14.419,0,0,0-1.838.6s-5.845,1.574-6.26,1.787l.016-.044s-.661.246-.978.34l-.11-.043s-5.362,1.547-5.607,1.73a.537.537,0,0,0-.657.157,2.953,2.953,0,0,0-1.372.344,2.272,2.272,0,0,0-1.222.3l-.994.276-.087-.05-.08.087c-1.1.193-1.752,1.068-2.576,1.681l0,.012-.718.347,0-.049-.019.066-4.641.054a2.28,2.28,0,0,0-1.686-.12,3.172,3.172,0,0,0-1.737-.233,1.47,1.47,0,0,0-1.35-.136,4.617,4.617,0,0,0-2.081-.2,9.291,9.291,0,0,0-3.482-.25.942.942,0,0,0-.969.524c-.4.338-.3.819-.366,1.255-.225,1.5-.7,1.909-2.236,1.93-.62.008-1.24-.017-1.86-.027l-1.32-.523c-.1-.131-.207-.263-.307-.391.107-.264-1.908-4.516-2.323-4.635l.023-.013a2.335,2.335,0,0,0-2.372-.005l.021.013-.959.582-.131,0-.063.123-.515.264-.094-.026-.038.1-.448.242a7.622,7.622,0,0,0-2.309,1.085.212.212,0,0,0-.19.1,3.72,3.72,0,0,0-1.623.61l-.014.009a4.235,4.235,0,0,0-.668.132,20.232,20.232,0,0,1-13.234.29,3.857,3.857,0,0,0-.744-.4c-1.915-.563-3.188-2.014-4.586-3.291-.417-.381-.823-.773-1.233-1.161a9.413,9.413,0,0,1-2.475-5.167,19.145,19.145,0,0,1,.472-6.627c1.807-6.422,6.027-10.737,11.907-13.581a27.175,27.175,0,0,1,6.348-2c1.578-.329,1.787-.7,1.3-2.26a31.769,31.769,0,0,0-1.147-3.04q-6.08-14.153-12.173-28.3a21.329,21.329,0,0,1-1.566-3.938,4.367,4.367,0,0,1,1.649-.588q6.152-1.485,12.306-2.968,9.4-2.277,18.789-4.564c1.45-.351,1.455-.34,1.8,1.048a16.823,16.823,0,0,0,1.582,4.133c.065.219.113.444.2.655,1.914,4.775,5.16,8.569,8.875,12.011a7.126,7.126,0,0,0,2.04,1.242,13.47,13.47,0,0,0,15.056-2.715c5.2-5.115,6.625-11.383,5.36-18.4a20.532,20.532,0,0,0-1.521-4.71c-.527-1.182-.509-1.2.813-1.54.937-.242,1.883-.456,2.824-.689,5.533-1.371,10.353-2.744,15.886-4.116C294.887,169.325,302.491,191.475,303.46,194.194Z" transform="translate(6.119 -29.864)" fill="#853955"/>
      <path id="Trazado_20378" data-name="Trazado 20378" d="M88.846,327.268c-.116-.514-.215-1.028-.294-1.548-.513-3.37-1.83-10.672-1.808-12.751.006-.685-.039-1.368.009-2.05.045-.665.563-7.763,1.415-10.213a3.317,3.317,0,0,1,2.019.435,39.288,39.288,0,0,0,12.434,4.144,51.574,51.574,0,0,0,12.594.87,41.132,41.132,0,0,0,9.55-1.461,2.638,2.638,0,0,1,2.55.432,14.1,14.1,0,0,0,3.252,2.143,1.512,1.512,0,0,0,1.308.936,7.9,7.9,0,0,1,2.53.827,73.92,73.92,0,0,0,7.723,4.2c2.867,1.32,5.734,2.638,8.555,4.051,2.547,1.276,5.138,2.462,7.719,3.672a1.2,1.2,0,0,0,1.069.606c.7.381,1.4.773,2.106,1.136q6.684,3.43,13.375,6.845a23.283,23.283,0,0,1,7.54,5.789,3.026,3.026,0,0,0,.949,1.431c.92,3.441-.162,6.537-1.8,9.462-2.834,5.072-5.924,10-9.141,14.836a1.164,1.164,0,0,0-.692,1.012A33.509,33.509,0,0,0,168.6,366.8c-.61.27-.787.85-1.007,1.4-.4.384-.919.679-.968,1.321a3.141,3.141,0,0,0-1.343,1.8,4.907,4.907,0,0,0-1.021,1.36,3.063,3.063,0,0,0-1.364,1.73c-2.5,2.8-4.637,5.882-6.863,8.9-1.723,1.488-3.277,3.146-4.843,4.794-1.648.456-2.977-.5-4.408-1a2.739,2.739,0,0,0-1.67-.793,26.751,26.751,0,0,0-4.166-2.581c-1.108-.673-1.144-.613-.621-1.76.21-.461.422-.92.633-1.381l.339-.379c.374-.2.371-.6.452-.949a1.314,1.314,0,0,0,.562-1.082c.654-1.345,1.575-2.576,1.728-4.129l.063-.132a5.18,5.18,0,0,0,1.65-3.3l.264-.324a13.472,13.472,0,0,0,2.479-5.163l.268-.324a.671.671,0,0,0,.417-.679.735.735,0,0,0,.356-.682c.836-1.479,1.743-2.924,2.494-4.446,1.272-2.572,2.9-4.945,4.153-7.518.762-1.569,2.066-2.807,2.592-4.5a3.316,3.316,0,0,0,.875-1.567.6.6,0,0,0-.481-.874h0c-.839-.924-1.1-.878-1.87.342-.406.648-.85,1.277-1.209,1.952a1.177,1.177,0,0,1-1.29.782c-.167-.349-.366-.629-.817-.405a8.462,8.462,0,0,0-2.761-.181.442.442,0,0,0-.669-.142,3.406,3.406,0,0,0-1.74-.181.729.729,0,0,0-1-.188,2.751,2.751,0,0,0-1.389-.173.475.475,0,0,0-.67-.181,2.733,2.733,0,0,0-1.389-.157.447.447,0,0,0-.667-.16,5.108,5.108,0,0,0-2.068-.2.489.489,0,0,0-.677-.179,13.381,13.381,0,0,0-3.1-.491.462.462,0,0,0-.668-.163,2.541,2.541,0,0,0-1.389-.18.477.477,0,0,0-.669-.188,2.772,2.772,0,0,0-1.384-.166.475.475,0,0,0-.673-.173,2.816,2.816,0,0,0-1.387-.16.493.493,0,0,0-.67-.2l-7.892-2.215c-.177-.269-.434-.4-.713-.229-.264.162-.141.374.052.538.747,3.4-.2,28.45-.6,32.068-.4,3.669-.973,7.316-1.2,11.012a63.768,63.768,0,0,1-1.749,12.285c-.613,2.345-1.328,4.718-3.218,6.483a7.687,7.687,0,0,1-2.506,1.738.512.512,0,0,0-.669.228l-2.442.005a1.152,1.152,0,0,0-1.346-.2,4.234,4.234,0,0,0-1.736-.153.463.463,0,0,0-.668-.173c-1.829-.282-7.736-1.882-8.12-1.873a43.836,43.836,0,0,1-4.952-1.8c-.106-.093-11.665-4.447-12.676-5.213a1.909,1.909,0,0,0-.953-.334.956.956,0,0,0-.7-.322,2.68,2.68,0,0,0-1.649-.661,1.315,1.315,0,0,0-1.121-.6c-1.158-.189-1.93-1.22-3.083-1.421a2.021,2.021,0,0,0-1.373-.682,8.132,8.132,0,0,0-2.689-1.4,1.35,1.35,0,0,0-1.078-.67c-.457-.584-1.552-.645-1.408-1.72.254-.18,2.027-10.341,2.362-11.221a1.04,1.04,0,0,1,1.105-.79c.5.408,14.316,4,20.743,5.156a128.643,128.643,0,0,1,14.736,3.511,5.235,5.235,0,0,0,.985.258,1.315,1.315,0,0,0,1.47-.923c.247-.692-.054-.575-.667-.871-.764-.37-1.6-1.31-2.4-1.6C104.89,381.6,89.439,329.874,88.846,327.268Z" transform="translate(-34.095 8.945)" fill="#f9b918"/>
      <path id="Trazado_20379" data-name="Trazado 20379" d="M358.067,164.7a12.052,12.052,0,0,0,2.709.3c4.447.162,8.88-.162,13.314-.375,1.415-.067,2.822-.309,4.231-.471.026.186.052.371.079.558-2.463,1.191-4.894,2.459-7.4,3.544a4.3,4.3,0,0,0-2.658,3.474,1.6,1.6,0,0,1-1.274,1.534c-1.327.4-1.245.488-.753,1.821a26.5,26.5,0,0,0,2.709,5.085,1.282,1.282,0,0,0,1.285.62,13.957,13.957,0,0,0,3.843-.8c5.011-1.6,9.807-4.444,14.483-6.847.245-.126.436.356.651.173,1.174-.1,1.793-1.076,2.647-1.679a9.473,9.473,0,0,0,2.029-1.556c1.446-1.272,2.114-1.047,2.513.787a7.827,7.827,0,0,1,.19,1.866,77.284,77.284,0,0,0,.986,11.909c.443,3.329.739,6.676,1.143,10.01.547,4.52,1,9.049,1.619,13.561s1.373,9,1.874,13.528c.349,3.162.927,6.3,1.227,9.475.092.964.066,1.939.111,2.908a1.577,1.577,0,0,1-1.341,1.721,12.368,12.368,0,0,0-2.141.579c-.373-.056-.736-.076-.984.293q-1.724.423-3.448.843a.457.457,0,0,0-.661.2l-.711.107a.8.8,0,0,0-1.006.225,1.934,1.934,0,0,0-1.05.148.469.469,0,0,0-.672.181,2.9,2.9,0,0,0-1.385.16.471.471,0,0,0-.672.182l-1.043.1a.84.84,0,0,0-1.012.242l-1.043.127a.5.5,0,0,0-.676.2,3.479,3.479,0,0,0-1.728.214.435.435,0,0,0-.661.157,2.941,2.941,0,0,0-1.4.131,1.184,1.184,0,0,0-1.343.214,6.883,6.883,0,0,0-2.429.149,1.148,1.148,0,0,0-1.347.181,10.058,10.058,0,0,0-2.766.128,51.284,51.284,0,0,0-7.191.028,9.04,9.04,0,0,0-2.768-.157,1.645,1.645,0,0,0-1.69-.186,19,19,0,0,0-4.138-.158,19.344,19.344,0,0,0-6.484-.167c-.74-.415-1.912.273-2.326-.623C348.707,219.837,357.822,165.231,358.067,164.7Z" transform="translate(49.162 -31.22)" fill="#f9b918"/>
      <path id="Trazado_20380" data-name="Trazado 20380" d="M245.716,280.2l-.062-.05-.025.087a1.152,1.152,0,0,1-.857.386c-.357-.461-11.43-25.522-11.5-25.683.053-.47.425-.062.475-.535a3.433,3.433,0,0,0,2.123-.2.541.541,0,0,0,.669-.038c4.2.065,8.393-.039,12.583-.344a8.455,8.455,0,0,0,2.859-.277.925.925,0,0,0,1.013-.06,39.567,39.567,0,0,0,7.656-.643c4.561-.723,9.165-1.214,13.7-2.088,6.3-1.217,12.58-2.614,18.464-5.338a52.506,52.506,0,0,0,4.749-2.907,4.811,4.811,0,0,0,1.86-1.286,2.557,2.557,0,0,0,1.284-.953,6.116,6.116,0,0,0,2.093-1.807c.735-1.123,1.96-1.741,2.827-2.748a30.2,30.2,0,0,0,2.595-3.062,5.726,5.726,0,0,0,2.037-2.793c.048-.525.529-.713.836-1.015,1.373-1.351,2.728-.971,3.272.915.22.76.347,1.547.536,2.315,1.116,4.538,5.789,19.982,6.892,22.774C322.517,256.683,245.983,280.012,245.716,280.2Z" transform="translate(14.974 -12.421)" fill="#853955"/>
      <path id="Trazado_20381" data-name="Trazado 20381" d="M233.958,250.8l-.019-.457.1-.072-.106-.04C233.91,250.136,234.084,250.924,233.958,250.8Z" transform="translate(15.165 -5.894)" fill="#e5dce0"/>
      <path id="Trazado_20382" data-name="Trazado 20382" d="M75.45,85.536a9.728,9.728,0,0,1-.395-4.14,5.357,5.357,0,0,1,.261-1.375,8.909,8.909,0,0,0,.744-2.211c-.026-1.11-.779-2.422-.449-4.587a3.981,3.981,0,0,1,1.635-2.419,3.431,3.431,0,0,1,.479-.176,1.065,1.065,0,0,0,.594-.377l3-2.618a4.449,4.449,0,0,1,3.388-.817c1.21.12,2-.74,2.84-1.4a4.15,4.15,0,0,1,3-.969A3.427,3.427,0,0,1,92,64.9c1.548.878,3.317.564,4.966.9a7.433,7.433,0,0,0,3-.5,3,3,0,0,1,2.328.206c1.554.959,3.309,1.041,5.011,1.389a3.9,3.9,0,0,1,2.994,3.545,4.224,4.224,0,0,1-2.186,3.786,6.4,6.4,0,0,1-2.545.16,4.14,4.14,0,0,0-2.85.761,3.645,3.645,0,0,1-2.6,1.474l-.12-.012a2.165,2.165,0,0,0-1.257-.021l-.109.005a13.733,13.733,0,0,1-4.67-2.183,1.7,1.7,0,0,0-1.076-.36,13.629,13.629,0,0,1-5.169-.7c-.885-.628-1.013.261-1.373.686-1.606,1.892-3.649,3.422-4.785,5.706l-.1.111c-1.218.731-1.2.757-.321,1.749a14.412,14.412,0,0,1-1.738,4.047.482.482,0,0,1-.463.154l-.45-.085-.038-.005c-1-.072-2.026.246-3.007-.175Z" transform="translate(-31.598 -60.562)" fill="#f9b918"/>
      <path id="Trazado_20383" data-name="Trazado 20383" d="M129.254,249.179c-3.484,5-7.538,10.8-10.67,16.027-2.194,3.661-4.712,7.121-6.829,10.833-1.241,2.177-2.521,4.333-3.7,6.546-1.821,3.423-3.652,6.848-5.33,10.342a183.256,183.256,0,0,0-9.28,22.219c-.106.325-.2.655-.338.969a.932.932,0,0,1-.94.6,1.757,1.757,0,0,1-1.831-2.451q1.85-5.325,4.041-10.524c1.692-3.986,3.374-7.983,5.361-11.83q2.825-5.469,5.62-10.953c3.893-7.637,8.98-14.536,13.289-21.911.975-1.667,2.189-3.193,3.284-4.79,1.025-1.5,2.089-2.97,3.032-4.517.314-.514.806-.783,1.138-1.235C126.985,248.848,128.852,248,129.254,249.179Z" transform="translate(-27.126 -6.398)" fill="#e5dce0"/>
      <path id="Trazado_20384" data-name="Trazado 20384" d="M132.708,251.174a1.926,1.926,0,0,1,.511.005c2.107.6,2.282,1.134,1.127,2.987-3.431,5.506-7.279,10.733-10.777,16.194-4.3,6.71-8.639,13.392-12.439,20.411-2.689,4.966-5.032,10.091-7.432,15.2q-2.438,5.183-4.667,10.452c-.51,1.208-1.011,1.442-2.1,1.232a1.2,1.2,0,0,1-1.038-1.729c.647-1.761,1.336-3.513,2.108-5.222q2.4-5.294,4.905-10.537c1.681-3.489,3.306-7,5.147-10.419,2.084-3.863,4.315-7.634,6.631-11.355,2.765-4.446,5.573-8.87,8.484-13.221C125.662,261.435,132.687,251.659,132.708,251.174Z" transform="translate(-25.487 -5.619)" fill="#e5dce0"/>
      <path id="Trazado_20385" data-name="Trazado 20385" d="M120.6,249.318a1.4,1.4,0,0,1,1.371.85,1.171,1.171,0,0,1-.251,1.416c-3.6,3.857-6.266,8.391-9.154,12.754-2.925,4.417-5.492,9.055-8.094,13.671-3.2,5.67-6.136,11.471-8.945,17.334a165.505,165.505,0,0,0-7.362,16.917,3.327,3.327,0,0,1-.263.629,1.446,1.446,0,0,1-2.714-.977,8.548,8.548,0,0,1,.624-2.116c1.307-2.6,1.953-5.444,3.2-8.072,1.31-2.765,2.546-5.565,3.916-8.305.934-1.866,1.793-3.774,2.617-5.692.765-1.78,1.939-3.322,2.771-5.067.927-1.945,2.073-3.784,3.113-5.675,1.285-2.34,2.521-4.709,3.847-7.025a62.511,62.511,0,0,1,4.551-7.524c2.13-2.735,3.529-5.961,5.987-8.47a9.409,9.409,0,0,0,1.7-2.475A3.939,3.939,0,0,1,120.6,249.318Z" transform="translate(-28.614 -6.161)" fill="#e5dce0"/>
      <path id="Trazado_20386" data-name="Trazado 20386" d="M73.875,304.32a17.522,17.522,0,0,1-2.7-.408c-3.1-.934-6.4-1.03-9.457-2.044-3.54-1.175-7.222-1.881-10.658-3.4a50.118,50.118,0,0,1-5.4-2.379,2.509,2.509,0,0,1-1.384-2.463c.019-2.032.73-3.891,1.1-5.831a.685.685,0,0,1,.876-.584,15.32,15.32,0,0,1,1.831.38,14.37,14.37,0,0,0,4.709.628,2.587,2.587,0,0,1,2.134.813,62.9,62.9,0,0,0,13.868,10.117c2.049,1.11,4.311,1.8,6.2,3.2.425.316,1.283.369,1.069,1.109s-.944.92-1.686.866C74.259,304.314,74.145,304.32,73.875,304.32Z" transform="translate(-40.643 4.986)" fill="#e5dce0"/>
      <path id="Trazado_20387" data-name="Trazado 20387" d="M104.085,316.846c-1.917.01-2.051-.146-1.318-1.853,1.081-2.513,2.192-5.014,3.37-7.483,2.137-4.479,4.254-8.972,6.522-13.387,3.228-6.287,6.834-12.36,10.671-18.3,3.585-5.55,12.769-18.4,13.306-19.6.59-1.31,1.547-1.411,2.533-.39a1.045,1.045,0,0,1,.158,1.372,29.8,29.8,0,0,1-2.152,3.685c-3.737,5.585-7.534,11.131-11.234,16.739-2.856,4.327-5.485,8.793-7.989,13.337q-3.586,6.509-6.742,13.229c-1.7,3.608-3.312,7.257-4.965,10.887C105.792,316.077,105.443,317.214,104.085,316.846Z" transform="translate(-23.551 -4.445)" fill="#e5dce0"/>
      <path id="Trazado_20388" data-name="Trazado 20388" d="M143.531,262.184c-2.648,4.464-5.792,8.587-8.8,12.807a211.178,211.178,0,0,0-11.894,18.118c-2.445,4.31-4.589,8.776-7.034,13.08-1.438,2.532-2.555,5.208-3.875,7.79-.157.305-.278.629-.453.921-.569.945-1.016,1.12-1.764.721-1.3-.69-1.441-.991-.969-2.09,2.165-5.039,4.8-9.836,7.454-14.628,1.215-2.2,2.287-4.468,3.519-6.658,3.079-5.471,6.62-10.639,10.156-15.816,2.666-3.9,5.73-7.525,8.3-11.483.978-1.509,2.313-2.785,3-4.5a1.848,1.848,0,0,1,1.11-1.021C142.736,259.275,143.674,261.942,143.531,262.184Z" transform="translate(-21.743 -3.186)" fill="#e5dce0"/>
      <path id="Trazado_20389" data-name="Trazado 20389" d="M367.082,128.934c.559-1.087.987-1.883,1.381-2.7a135.452,135.452,0,0,1,7.9-14.381c.377-.586.582-1.441,1.461-1.565a6.215,6.215,0,0,1,3.141.641c.725.285.36.792.076,1.254-1.223,1.991-2.455,3.975-3.629,5.992-1.4,2.412-2.788,4.839-4.117,7.293-1.574,2.906-3.057,5.862-4.829,8.657a3.781,3.781,0,0,1-1.708,1.614,1.677,1.677,0,0,1-2.475-1.222c-.712-3.042-1.433-6.084-2.018-9.152-.373-1.961-2.242-9.065-2.653-10.71a1.024,1.024,0,0,1,.661-1.359c.362-.164.711-.362,1.063-.553,1.628-.878,1.69-.892,2.077.988.9,4.34,2.243,8.569,3.093,12.921A4.932,4.932,0,0,0,367.082,128.934Z" transform="translate(52.134 -47.08)" fill="#e5dce0"/>
      <path id="Trazado_20390" data-name="Trazado 20390" d="M96.211,113.214a.833.833,0,0,1-.318.745,1.449,1.449,0,0,0-1.032.313,13.64,13.64,0,0,0-2.173.613,5.048,5.048,0,0,0-1.389.359,4.3,4.3,0,0,0-1.315.273c-.132-.1-.21-.023-.278.084-.729.005-5.164.1-5.4.23-2.8-.189-3.99-2.058-4.654-4.474a1.57,1.57,0,0,0-.153-.3l.039-.133-.111-.1a38.776,38.776,0,0,0-.705-5.5c.057-.269.025-.685.186-.783.907-.558,1.989-1.25,3-1.8a1.567,1.567,0,0,1,1.421-.032c1.645.786,5.441,2.649,6.58,2.513,1.065-.127,1.721-.088,2.084.907a1.88,1.88,0,0,0,.685.942,18.14,18.14,0,0,0,2.035,3.443.4.4,0,0,0,.157.281A7.178,7.178,0,0,0,96.211,113.214Z" transform="translate(-30.504 -49.343)" fill="#853955"/>
      <path id="Trazado_20391" data-name="Trazado 20391" d="M362.93,304.269a13.841,13.841,0,0,0-.285,3.554,6.952,6.952,0,0,1-2.656,5.475c-1.4,1.154-2.811,2.286-4.217,3.427a8.508,8.508,0,0,0-2.746,2.106,28.366,28.366,0,0,0-3.11,2.947,2.158,2.158,0,0,0-1.065.8,14.751,14.751,0,0,0-2.368,1.288c-.12-.045-.2,0-.242.128l-3.179.874c-.16-.083-.268,0-.36.12-1.283-.034-2.595.3-3.831-.307a.211.211,0,0,0-.229-.221.1.1,0,0,0-.1-.12c-.076-.113-.154-.226-.232-.339l.007-2.07c.107-.065.189-.137.087-.271a5.9,5.9,0,0,1,5.3-4.553c6.313-.554,16.154-9.72,18.584-12.737Z" transform="translate(45.881 10.01)" fill="#853955"/>
      <path id="Trazado_20392" data-name="Trazado 20392" d="M397.358,327.262a28.19,28.19,0,0,0-3.527.865l-2.06.164a.379.379,0,0,0,.083-.287,82.544,82.544,0,0,0,7.8-8.542,1.517,1.517,0,0,1,.971-.63,14.453,14.453,0,0,0,6.858-4.222,72.965,72.965,0,0,0,4.816-5.532,57.257,57.257,0,0,0,3.1-4.865c.2-.272.287-.664.73-.54s.315.546.371.858c.154.84.215,1.706.448,2.523a4.488,4.488,0,0,1-1.552,4.9c-.21.188-.392.406-.586.611a3.158,3.158,0,0,0-1.365,1.324c-1.721,1.64-5.811,8.134-6.523,8.946a2.5,2.5,0,0,0-1.074.975,3.577,3.577,0,0,0-1.349,1.019,5.281,5.281,0,0,0-1.765.91c-.346.129-.691.259-1.037.386-.111-.054-.188-.018-.228.109l-.8.229c-.137-.091-.21-.01-.272.1a10.134,10.134,0,0,0-2.846.633l-.113-.041Z" transform="translate(61.613 9.828)" fill="#853955"/>
      <path id="Trazado_20393" data-name="Trazado 20393" d="M83.735,171.57c-.775.668-1.547,1.337-2.324,2a4.137,4.137,0,0,1-1.293.814,1.794,1.794,0,0,1-2.161-.325,5.676,5.676,0,0,0-1.138-.744.175.175,0,0,0-.2-.2l-.342-.166c-.122-.126-.242-.252-.362-.378a3.417,3.417,0,0,0-1.464-1.793c-1.428-1.139-2.334-2.7-3.527-4.028.044-.093.743-4.873.667-5.139,1.415.04,17.793,2.937,19.092,3.022l.18.44-5.341,4.855A5.54,5.54,0,0,0,83.735,171.57Z" transform="translate(-32.8 -31.967)" fill="#853955"/>
      <path id="Trazado_20394" data-name="Trazado 20394" d="M135.642,299.248a33.393,33.393,0,0,0-4.073-.333c-2.49.192-4.979.412-7.467.6-2.727.211-5.411.626-8.1,1.07-1.1.182-1.714-.437-1.771-1.569a2.112,2.112,0,0,1,.2-1.166c.828-1.49,1.641-2.988,2.494-4.463a1.5,1.5,0,0,1,1.49-.645,19.889,19.889,0,0,1,5.165,1.022q5.145,1.528,10.267,3.126c1.024.321,2.007.775,3,1.192.243.1.584.2.547.562-.041.409-.373.554-.722.591A9.7,9.7,0,0,1,135.642,299.248Z" transform="translate(-20.058 6.619)" fill="#e5dce0"/>
      <path id="Trazado_20395" data-name="Trazado 20395" d="M141.866,265.985a4.651,4.651,0,0,1,2.45,1.737q-3.52,5.121-7.042,10.239c-1.161,1.679-2.38,3.317-3.522,5.009a7.354,7.354,0,0,1-1.2,1.426,1.7,1.7,0,0,1-2.317.063,1.6,1.6,0,0,1-.084-2.04,9.253,9.253,0,0,1,1.152-1.685C132.709,279.178,141.339,266.826,141.866,265.985Z" transform="translate(-15.468 -1.258)" fill="#e5dce0"/>
      <path id="Trazado_20396" data-name="Trazado 20396" d="M149,272.712c-2.5,3.805-9.285,14.181-10.19,15.561a6.74,6.74,0,0,1-.6.826,1.472,1.472,0,0,1-1.591.321c-.612-.166-.624-.713-.683-1.241-.161-1.443,8.494-14.646,9.572-16.06A1.89,1.89,0,0,1,149,272.712Z" transform="translate(-13.669 0.263)" fill="#e5dce0"/>
      <path id="Trazado_20397" data-name="Trazado 20397" d="M153.934,276.988c-1.724,2.81-3.436,5.626-5.174,8.426-1.469,2.367-2.968,4.714-4.451,7.072a3.423,3.423,0,0,1-.431.734,1.864,1.864,0,0,1-2.053.443c-.663-.271-.551-.916-.579-1.482a2.757,2.757,0,0,1,.443-1.626q3.665-5.824,7.35-11.638c.793-1.245,1.661-2.442,2.494-3.661C152.675,275.36,153.027,276.558,153.934,276.988Z" transform="translate(-12.108 1.472)" fill="#e5dce0"/>
      <path id="Trazado_20398" data-name="Trazado 20398" d="M148.923,296.2c.217-.969,6.755-15.312,6.871-15.5a1.915,1.915,0,0,1,3.186-.392.575.575,0,0,1,.159.621c-.157.485-6.866,15.039-7.351,16.129a1.4,1.4,0,0,1-1.276.954C149.172,298.094,148.9,297.869,148.923,296.2Z" transform="translate(-9.848 2.758)" fill="#e5dce0"/>
      <path id="Trazado_20399" data-name="Trazado 20399" d="M155.833,297.7c.018-.1,3.258-13.282,4.271-15.639.449-1.046.415-1.061,1.457-.659,1.6.617,1.6.617,1.176,2.331q-1.778,7.1-3.563,14.192c-.056.219-.18.422-.23.642C158.674,299.761,155.821,298.964,155.833,297.7Z" transform="translate(-7.815 3.208)" fill="#e5dce0"/>
      <path id="Trazado_20400" data-name="Trazado 20400" d="M384.372,172.385c-.854.6-1.473,1.578-2.647,1.679a1.886,1.886,0,0,1-1.513-1.6,22.894,22.894,0,0,0-3-6.66,13.706,13.706,0,0,0-1.593-1.777,1.291,1.291,0,0,1-.4-1.391,1.387,1.387,0,0,1,1.272-.982c1.334-.088,2.473-.039,3.368,1.355a42.865,42.865,0,0,1,3.318,5.143A13.123,13.123,0,0,1,384.372,172.385Z" transform="translate(56.719 -31.966)" fill="#e5dce0"/>
      <path id="Trazado_20401" data-name="Trazado 20401" d="M167.9,297.586c-.017,1.267-3.053,1.277-3.06.164-.017-3.074-.155-15.281.428-15.426.752-.186,1.5-.661,2.312-.312.449.193.34.676.342,1.059.009,2.391,0,4.781,0,7.172C167.92,290.243,167.931,295.139,167.9,297.586Z" transform="translate(-5.172 3.424)" fill="#e5dce0"/>
      <path id="Trazado_20402" data-name="Trazado 20402" d="M175.505,296.347c-.922-.007-1.39-.333-1.353-1.359.071-1.909-2.081-13.218-2.392-14.333-.167-.6.412-.692.822-.881,1.549-.714,1.877-.615,2.217,1.015.611,2.933,2.205,11.839,2.5,13.337C177.6,295.669,177.061,296.359,175.505,296.347Z" transform="translate(-3.136 2.678)" fill="#e5dce0"/>
      <path id="Trazado_20403" data-name="Trazado 20403" d="M177.815,277.369a3.881,3.881,0,0,1,2.345-.8l.365.395q1.8,6.127,3.592,12.255c.381,1.3.122,2.06-.884,2.627a1.259,1.259,0,0,1-1.972-.795c-.863-2.921-1.75-5.836-2.639-8.75a14.4,14.4,0,0,1-.859-4.324C177.78,277.775,177.8,277.572,177.815,277.369Z" transform="translate(-1.362 1.857)" fill="#e5dce0"/>
      <path id="Trazado_20404" data-name="Trazado 20404" d="M186.028,276.018c.736-.779,1.288-.4,1.831.236a11.765,11.765,0,0,1,2.68,4.1,5.387,5.387,0,0,0,.579,1.025,1.51,1.51,0,0,0,.749,1.056,2.88,2.88,0,0,1,.3,1.967l-1.094,1.008a2.92,2.92,0,0,0-1.237.47,1.882,1.882,0,0,1-2.827-.883c-.171-.611-.137-1.843-.27-1.872-1.136-1.7-1.935-3.6-3.223-5.205C183.743,276.907,185.887,276.168,186.028,276.018Z" transform="translate(0.331 1.569)" fill="#853955"/>
      <path id="Trazado_20405" data-name="Trazado 20405" d="M91.408,102.658c.421-.822.837-1.651,2.006-1.408.883.189,2.343,1.12,2.836,1.112,1.118.378.049.428-.005,1.615-.1,2.335-.1,4.676-.146,7.015,0,.2.066.47-.36.645-.437-.575-.9-1.184-1.364-1.8a36.828,36.828,0,0,0-3.672-5.184l.014.006C90.4,103.968,91.069,103.29,91.408,102.658Z" transform="translate(-27 -49.743)" fill="#853955"/>
      <path id="Trazado_20406" data-name="Trazado 20406" d="M101.408,163.219a17.48,17.48,0,0,0,5.691-1.635c.259-.107.5-.263.762-.352.545-.182.9-.014.9.607,0,1.082.04,2.169-.053,3.245a9.869,9.869,0,0,1-.975,3.862A79.544,79.544,0,0,1,101.408,163.219Z" transform="translate(-23.83 -32.101)" fill="#853955"/>
      <path id="Trazado_20407" data-name="Trazado 20407" d="M79.6,93.27a.942.942,0,0,0-.676-.353l-1.4-1.314c-.4-1.066-.87-2.141.337-3.029a1.779,1.779,0,0,1,2.023.918,2.812,2.812,0,0,0,1.31,1.044,9.121,9.121,0,0,1,1.437.911c1.13.969,1.182,1.606.339,2.9-.857.343-1.712.678-2.383-.327A1.1,1.1,0,0,0,79.6,93.27Z" transform="translate(-30.985 -53.469)" fill="#f9b918"/>
      <path id="Trazado_20408" data-name="Trazado 20408" d="M119.4,246.54c.245-.7.708-.743,1.33-.5a23.274,23.274,0,0,1,3.456,1.716l2.107,1.6a2.013,2.013,0,0,1,.251,1.591l-.568.387c-.894.005-1.507-.705-2.318-.912a11.645,11.645,0,0,0-5.064-2.06Z" transform="translate(-18.772 -7.164)" fill="#853955"/>
      <path id="Trazado_20409" data-name="Trazado 20409" d="M130.137,226.841a1.443,1.443,0,0,1-1.047,2.423c-.875.066-1.179-.489-1.332-1.116-.069-.716-.022-1.407.823-1.734A1.4,1.4,0,0,1,130.137,226.841Z" transform="translate(-16.082 -12.925)" fill="#853955"/>
      <path id="Trazado_20410" data-name="Trazado 20410" d="M355.765,94.7a1.4,1.4,0,0,1,1.342,1.281,1.641,1.641,0,0,1-1.46,1.585,1.609,1.609,0,0,1-1.373-1.662A1.281,1.281,0,0,1,355.765,94.7Z" transform="translate(50.579 -51.66)" fill="#ff696c"/>
      <path id="Trazado_20411" data-name="Trazado 20411" d="M369.294,97.336a1.352,1.352,0,0,1-1.041-1.507,1.386,1.386,0,0,1,1.393-1.2,1.255,1.255,0,0,1,1.34,1.222A1.375,1.375,0,0,1,369.294,97.336Z" transform="translate(54.69 -51.68)" fill="#ff696c"/>
      <g id="Grupo_13475" data-name="Grupo 13475">
        <g id="Grupo_13474" data-name="Grupo 13474">
          <path id="Trazado_20412" data-name="Trazado 20412" d="M160.552,418.894c-10.021-1.561-20.033-3.211-29.9-6.51.07,3.034-.186,5.759-.247,8.489-.2,8.968-.59,17.929-1.27,26.869-.525,6.936-1.051,13.9-2.973,20.649a23.97,23.97,0,0,1-1.631,4.5,6.737,6.737,0,0,1-5.946,3.94,32.135,32.135,0,0,1-11.119-1.606C100,473.134,93.009,469.9,86.022,466.64q-6.519-3.04-13.029-6.105c-.789-.371-1.532-.817-2.191.245-.216.348-.72.3-1.121.265-.625-.06-1.246-.171-1.871-.215-.8-.057-1.333-.423-1.324-1.255.012-.956-.544-1.1-1.314-1.148a4.5,4.5,0,0,0-3.454,1.228,30.178,30.178,0,0,0-4.961,5.652,7.327,7.327,0,0,0-.761,1.529c-.883,2.475-.63,3.246,1.494,4.79.507.369,1.022.73,1.527,1.1a4.021,4.021,0,0,1,1.391,1.908c.582,1.585.159,2.561-1.47,2.692-3.755.3-7.527.6-11.216-.584-1.943-.621-2.591-1.35-2.755-3.416a27.829,27.829,0,0,1,.173-5.3,69.677,69.677,0,0,1,3.993-16.085c1.092-3,2.151-6.034,3.487-8.932,2.015-4.368,2.218-4.323,6.64-3.562,3.148.542,6.26,1.285,9.383,1.961.988.214,1.921.43,2.445-.79a.862.862,0,0,1,.868-.439,8,8,0,0,1,2.533.369c.588.194,1.078.582,1.041,1.213-.069,1.112.69,1.289,1.466,1.526a134.284,134.284,0,0,0,19.26,4.777,67.1,67.1,0,0,1,10.71,2.273,1.108,1.108,0,0,0,.967-.028,38.57,38.57,0,0,0-1-4.534c-1.522-6.633-3.96-12.99-5.908-19.5Q96.73,411.929,92,397.706a51.644,51.644,0,0,1-2.462-18.58,27.363,27.363,0,0,1,1.211-6.031,127.154,127.154,0,0,1,5.416-14.786c1.263-3.061,2.486-6.139,3.718-9.211a4.321,4.321,0,0,0,.483-1.629c-.572-.355-1.117.028-1.666.062-3.409.208-5.457-1.7-5.36-5.1a24.411,24.411,0,0,1,1.2-6.55,116.77,116.77,0,0,1,8.265-19.532c2.227-4.246,4.573-8.432,6.713-12.726a6.41,6.41,0,0,0,.7-3.439c-.445-6.554-.747-13.116-1.192-19.669-.449-6.61-1.011-13.211-1.517-19.815-.39-5.068-.751-10.138-1.158-15.2-.783-9.733-1.461-19.476-2.777-29.157a57.218,57.218,0,0,0-1.061-6.438c-.747.36-.793,1.051-1.021,1.6a176.234,176.234,0,0,0-6.884,20.8q-7.156,25.826-14.052,51.725c-3.137,11.809-6.94,23.425-10.449,35.125-2.706,9.024-5.67,17.964-8.6,26.915-.59,1.8-.672,1.837-2.57,1.632-1.442-.155-1.443-.155-1.886,1.249-.12.38-.216.77-.348,1.147a2.318,2.318,0,0,0,.8,2.726,75.385,75.385,0,0,0,16.06,11.9,21.227,21.227,0,0,1,3.3,2.146,3.844,3.844,0,0,1,1.211,1.422,1.991,1.991,0,0,1-1.544,2.961,7.348,7.348,0,0,1-2.216.018,72.186,72.186,0,0,1-15.692-3.444c-3.931-1.385-7.942-2.533-11.8-4.117-1.327-.544-2.563-1.25-3.828-1.91a2.689,2.689,0,0,1-1.521-2.814,29.248,29.248,0,0,1,1.179-6.216c4.426-15.312,7.747-30.889,11.251-46.426,3.277-14.535,6.313-29.12,9.382-43.7,2.422-11.51,4.422-23.1,6.386-34.694,1.622-9.568,3.328-19.123,4.934-28.694a230.387,230.387,0,0,0,3.352-28.219c.038-.89.146-1.777.252-3.017,1.812,2.29,3.5,4.2,5.268,6.042a39.448,39.448,0,0,0,11.661,8.866,38.49,38.49,0,0,0,15.479,3.251,107.384,107.384,0,0,0,14.533-.806c1.34-.142,1.329-.162,1.408,1.123q.835,13.423,1.9,26.829c.337,4.327.436,8.672.768,13,.629,8.2,1.347,16.391,2.031,24.584.023.28.078.557.128.914a3.39,3.39,0,0,0,1.812-.33,125.872,125.872,0,0,1,13.61-3.422,18.276,18.276,0,0,1,4.781-.181,8.263,8.263,0,0,1,1.837.382,4.187,4.187,0,0,1,3.023,5.332c-.337,1.535-.324,1.517.927,2.409.821.586,1.6,1.233,2.67,2.067-.37-27.884-.736-55.478-1.1-82.975a1.575,1.575,0,0,0-1.514.146,134.691,134.691,0,0,1-34,8.342,75.83,75.83,0,0,1-16.075.471c-6.958-.641-13.245-2.9-18.535-7.593a64.332,64.332,0,0,1-8.77-9.365c-3.294-4.373-5.15-9.369-6.553-14.593a51.928,51.928,0,0,1-1.827-15.245A26.434,26.434,0,0,1,79,119.635a30.512,30.512,0,0,1,8.81-6.44c1.938-.973,3.817-2.064,5.744-3.061a3.118,3.118,0,0,0,1.783-2.343c.2-1.123.533-2.224.716-3.348.193-1.193-.646-2.062-1.787-1.716a4.174,4.174,0,0,1-5-1.538.621.621,0,0,0-.246-.233,3.825,3.825,0,0,1-2.657-3.625c-.061-.635-.629-.758-1.076-.982a7.026,7.026,0,0,1-3.6-3.955,4.666,4.666,0,0,1,.188-4.143,2.276,2.276,0,0,0-.091-2.657,6.2,6.2,0,0,1-.821-3.624,2.877,2.877,0,0,1,.383-1.648c1.069-1.264.756-2.564.472-3.993a10.04,10.04,0,0,1,1-6.159,2.521,2.521,0,0,1,2.41-1.629,1.512,1.512,0,0,0,1.391-.8,6.813,6.813,0,0,1,6.272-3.162,2.175,2.175,0,0,0,1.778-.786,7.748,7.748,0,0,1,3.3-2.068,4.558,4.558,0,0,1,4.385.656,1.662,1.662,0,0,0,1.844.431,1.605,1.605,0,0,1,1.774.307,1.653,1.653,0,0,0,1.993.3,7.794,7.794,0,0,1,3.871-.447,4.292,4.292,0,0,1,3.808,3.216,1.287,1.287,0,0,0,1.153,1.065,5.34,5.34,0,0,1,1.131.388,4,4,0,0,1,1.95,6.071,1.837,1.837,0,0,0,.074,2.393,18.869,18.869,0,0,1-7.447,26.848A15.591,15.591,0,0,1,109,104.291a1.516,1.516,0,0,0-1.237,1.236c-.291,1.162-.607,2.322-.982,3.458-.256.779.071.975.758,1.14,1.774.43,3.531.932,5.29,1.425,5.735,1.609,10.836,4.523,15.8,7.711,5.492,3.529,11.11,6.788,17.364,8.813a38.879,38.879,0,0,0,10.225,1.979c.4.018.8.009,1.2.009.62,0,.96-.276.94-.932q-.037-1.283-.049-2.569a98.167,98.167,0,0,1,.132-12.154,24.96,24.96,0,0,1,3.14-9.53c3.029-5.36,7.772-8.2,13.757-9.139a27.333,27.333,0,0,1,4.089-.362q30.592-.217,61.186-.463,42.848-.348,85.7-.712,21.852-.183,43.7-.377a28.276,28.276,0,0,1,5.12.36,14.876,14.876,0,0,1,12.658,14.828q.109,12.854-.006,25.709a3.068,3.068,0,0,0,1.64,3.025c3.8,2.331,7.45,4.885,11.282,7.161a36.821,36.821,0,0,0,12.346,4.439,12.837,12.837,0,0,0,8.6-1.658,62.285,62.285,0,0,0,12.223-8.474c3.4-3.135,6.878-6.193,10.319-9.285a59.443,59.443,0,0,1,5.754-4.316c.414-.29.827-.582,1.35-.951a1.646,1.646,0,0,0-1.338-.242,6.966,6.966,0,0,1-6.526-3.664,2.861,2.861,0,0,0-2.079-1.5,4.475,4.475,0,0,1-3.435-3.661c-.336-1.34.088-1.922,1.468-2.085a9.757,9.757,0,0,0,4.759-1.765c.645-.474.915-.863.365-1.654a17.3,17.3,0,0,1-2.921-7.248c-.133-.848-.779-1.218-1.3-1.727a7.97,7.97,0,0,1-2.324-8.149,7.867,7.867,0,0,1,6.056-5.911c.551-.138,1.132-.158,1.683-.3.6-.153.778-.491.214-.928a2.381,2.381,0,0,1-1.017-2.226c.045-.459-.278-.711-.523-1.026-1.183-1.53-1.065-2.727.462-3.976a13.158,13.158,0,0,1,5.941-2.488,24.832,24.832,0,0,1,7.678.151,22.632,22.632,0,0,1,7.423,1.945,7.7,7.7,0,0,0,3.881.338,13.852,13.852,0,0,1,5.418.514,12.484,12.484,0,0,1,6.667,5.374,31.5,31.5,0,0,1,3.241,7.161c.922,2.948,2.1,5.8,3.258,8.653a12.931,12.931,0,0,0,5.313,6.52c1.428.859,1.495,1.589.466,2.922a5.938,5.938,0,0,1-3.614,2.433,2.5,2.5,0,0,0-2.066,1.767,7.866,7.866,0,0,1-2.29,3.166,6.539,6.539,0,0,1-4.922,1.593,3.824,3.824,0,0,0-3.518,1.324,10.387,10.387,0,0,1-2.391,1.554c.264.511.7.47,1.079.567a34.491,34.491,0,0,1,6.777,2.367,14.415,14.415,0,0,1,5.07,4.253,45.021,45.021,0,0,1,5.365,9.334c2.987,6.735,5.686,13.587,8.321,20.465a36.533,36.533,0,0,1,2.323,11.189,23.375,23.375,0,0,1-2.6,11.736,48.217,48.217,0,0,1-12.369,15.595,3.444,3.444,0,0,0-1.373,3.381c.558,4.82,1.021,9.651,1.558,14.474.485,4.369,1.041,8.731,1.526,13.1.428,3.858.871,7.716,1.184,11.586.56,6.892,1.579,13.724,2.573,20.561,1.012,6.949,1.9,13.915,3.057,20.841q2.914,17.4,6.255,34.716a392.083,392.083,0,0,0,14.408,53.532,89.9,89.9,0,0,1,3.958,17.5c.158,1.189.342,2.374.5,3.562a5.886,5.886,0,0,1,.084,1.02.939.939,0,0,1-.617.938.877.877,0,0,1-1.05-.366,10.848,10.848,0,0,1-.619-1.024l-3.435-5.844a9.213,9.213,0,0,0-2.332,2.621q-2.167,3.083-4.294,6.2a8.682,8.682,0,0,1-4.274,3.275,58.209,58.209,0,0,1-10.139,3.095,9.935,9.935,0,0,1-3.409.113c-1.327-.223-1.688-.9-1.3-2.207a5.813,5.813,0,0,1,1.579-2.407c1.8-1.833,3.62-3.651,5.37-5.534a23.339,23.339,0,0,0,5.318-9.092,12.521,12.521,0,0,0,.237-7.412,46.721,46.721,0,0,0-1.833-5.519c-2.745-6.289-4.568-12.917-7.076-19.291-5.067-12.87-8.989-26.118-13.067-39.316-2.177-7.046-3.709-14.251-5.5-21.393-1.315-5.262-2.471-10.559-3.418-15.9-.255-1.437-.294-1.481-1.6-1.321-4.428.538-8.877.735-13.331.866-1.712.049-1.756.054-1.875,1.7-.638,8.771-1.8,17.492-2.543,26.255-.54,6.369-1.323,12.72-1.84,19.094-.374,4.614-.312,9.249-.522,13.869-.412,9.017-.66,18.038-.928,27.058-.128,4.283-.2,8.573-.069,12.853a64.373,64.373,0,0,1-1.479,14.788c-.327,1.623-.623,3.251-.936,4.877-.109.562-.211,1.123-.343,1.679-.307,1.292-.66,1.668-1.429,1.567-.823-.109-1.132-.554-1.219-1.761-.106-1.481-.194-2.964-.318-4.443a4.143,4.143,0,0,0-.265-1.627c-.516-.251-.8.093-1.114.3a29.233,29.233,0,0,0-4.105,3.625,21.089,21.089,0,0,1-10.082,5.543c-1.248.3-1.482.522-1.143,1.847,1.5,5.862,3.042,11.714,4.4,17.61,3.52,15.261,8.2,30.18,13.075,45.045.87,2.657,1.617,5.354,2.42,8.033a1.878,1.878,0,0,1-.784,2.384c-.353.225-1,.317-.841.915.185.7.364,1.624,1.1,1.833,1.694.481,2.255,1.84,2.8,3.218,1.127,2.863,2.3,5.692,2.489,8.855a5.193,5.193,0,0,1-3.755,5.625,83.31,83.31,0,0,1-15.926,3.947,138.4,138.4,0,0,1-18.21,1.945c-1.54.047-3.083.01-4.624-.018a5.514,5.514,0,0,1-2.475-.614,2.124,2.124,0,0,1-.874-3.414,9.06,9.06,0,0,1,2.915-2.616,33.561,33.561,0,0,1,3.62-1.943,71.211,71.211,0,0,0,14.944-9.3q2.095-1.631,4.23-3.211c.454-.335.74-.667.545-1.281a.993.993,0,0,0-1.175-.757c-2.424.3-3.272-1.162-4.108-3.146-6.118-14.528-11.654-29.284-17.058-44.08a231.714,231.714,0,0,1-10.025-36.457,142.042,142.042,0,0,1-1.641-16.524c-.745-10.557-.546-21.125-.537-31.693,0-2.227-.04-4.457-.148-6.682a4.952,4.952,0,0,1,.756-2.912,121.678,121.678,0,0,1,8.419-11.871,6.845,6.845,0,0,0,.687-.98.888.888,0,0,0-1.36-1.121,8.908,8.908,0,0,0-1.346,1.544c-5.3,6.22-9.084,13.411-13.128,20.434-2.963,5.147-5.937,10.293-8.721,15.536a238.578,238.578,0,0,0-20.949,54.727,334.092,334.092,0,0,0-6.7,33.234c-1.271,8.934-2.925,17.805-4.111,26.75-.276,2.076-.3,2.072-2.282,2.579-1.573.4-1.569.4-1.727,1.976-.04.4-.132.788-.172,1.186a22.265,22.265,0,0,0-.155,5.441,20.683,20.683,0,0,1-1.107,9.452,6.323,6.323,0,0,1-5.112,4.5,59.525,59.525,0,0,1-9.532.962,145,145,0,0,1-24.944-1.442,30.754,30.754,0,0,1-7.447-1.917c-.843-.343-1.786-.676-1.855-1.785-.066-1.073.747-1.6,1.53-2.1a15.1,15.1,0,0,1,5.286-1.926A66.783,66.783,0,0,0,321.7,483.1c2.86-1.428,5.787-2.722,8.679-4.085a2.81,2.81,0,0,0,1.473-2.8.6.6,0,0,0-.384-.511,7.746,7.746,0,0,0-.818-.247c-2.248-.589-2.226-.585-1.873-2.792,3.186-19.9,6.874-39.721,10.072-59.624a215.564,215.564,0,0,1,8.468-35.966,247.258,247.258,0,0,1,9.458-23.693c1.847-3.989,3.624-8.011,5.484-11.994q7.065-15.133,14.171-30.243c.887-1.895,1.8-3.781,2.552-5.866a3.061,3.061,0,0,0-1.8.313q-38.808,12.464-77.612,24.934c-2.4.771-2.4.764-3.372-1.558q-4.706-11.307-9.4-22.618c-.412-1-.714-1.944-2.123-1.666a.8.8,0,0,1-.975-.748c-.028-.674.514-.773,1.065-.817,3.647-.287,7.306-.278,10.957-.44,3.479-.155,6.954-.423,10.424-.729,2.057-.18,1.826-.3,1.522-1.91a50.77,50.77,0,0,1-.6-7.338c-.056-1.316-.08-1.356-1.362-1.354-4.231.009-8.446-.29-12.663-.571a6.171,6.171,0,0,0-1.529.087.748.748,0,0,0-.584.912c.045.418.36.554.73.563,1.085.025,2.17.038,3.255.05.457.005.915-.017,1.371,0,.432.016.81.167.828.67s-.342.691-.762.767a8.3,8.3,0,0,1-1.355.176c-4.344.044-8.682-.141-13.02-.322-1.245-.053-1.311-.179-1.288-1.57a4.288,4.288,0,0,0-.58-1.762.478.478,0,0,0-.541-.312.529.529,0,0,0-.479.422,14.187,14.187,0,0,0-.088,1.706q.13,17.568.271,35.135.045,5.57.093,11.141a11.75,11.75,0,0,1-.044,1.54c-.129,1.063-.476,1.38-1.527,1.469-.285.023-.572.005-.857.009-11.2.155-22.393.331-33.59.441a5.929,5.929,0,0,0-3.874,1.43,161.011,161.011,0,0,1-18.817,13.42,79.808,79.808,0,0,1-13.339,6.2,28.316,28.316,0,0,1-10.751,1.772,70.233,70.233,0,0,1-9.2-.9,42.128,42.128,0,0,1-19.035-8.921c-1.7-1.333-3.049-1.7-5-.643a18.756,18.756,0,0,1-5.287,1.94,11.107,11.107,0,0,1-5.743-.34,22.836,22.836,0,0,1-5.578-2.577c-1.1-.733-1.149-.726-1.972.2q-1.194,1.343-2.287,2.776c-.676.888-.648.965.471,1.382a77.466,77.466,0,0,0,7.526,2.314,36.568,36.568,0,0,1,4.725,1.514,11.083,11.083,0,0,1,3.439,2.211,3.668,3.668,0,0,1,1.042,1.545c.4,1.27.023,1.974-1.279,2.234a69.52,69.52,0,0,1-7.813.985c-4.784.4-9.578.461-14.371.388a2.284,2.284,0,0,0-2.542,1.472c-.356.89-1.413,1.693-1.2,2.555.243.964,1.56,1.2,2.432,1.7,10.956,6.284,22.318,11.767,33.754,17.111,5.328,2.49,10.578,5.146,15.637,8.158a37.239,37.239,0,0,1,4.69,3.443c2.533,2.1,3.162,4.759,2.526,7.859a29.8,29.8,0,0,1-4.324,10.194,295.493,295.493,0,0,1-18.534,25.909c-2.7,3.326-5.257,6.765-8.084,9.989-.474.54-.916,1-.573,1.943.377,1.033-1.2,3.17-2.425,3.285a2.167,2.167,0,0,0-1.915,1.421c-1.658,3.423-1.461,2.576.753,4.863a26.19,26.19,0,0,0,12.094,7.134,28.628,28.628,0,0,1,4.672,1.673,8.247,8.247,0,0,1,3.375,2.56c.96,1.354.669,2.332-.889,2.938a11.286,11.286,0,0,1-3.863.673,119.529,119.529,0,0,1-14.034-.55c-6.31-.6-12.614-1.248-18.92-1.887-1.591-.16-3.184-.316-4.76-.572-1.611-.261-1.9-.692-1.759-2.323a16.581,16.581,0,0,1,.972-3.806c1.609-4.78,3.986-9.219,6.071-13.788.735-1.61,1.5-3.208,2.246-4.812a1.778,1.778,0,0,0,.084-1.6,3.208,3.208,0,0,1,2.132-3.927c.713-.188.8-.761,1.042-1.236q3.623-7.189,7.2-14.4a145.422,145.422,0,0,1,8.167-14.854A1.508,1.508,0,0,0,160.552,418.894ZM469.109,124.924a1.708,1.708,0,0,1-2.054-1.284,28.263,28.263,0,0,1-1.574-5.407c-.234-1.914-.233-1.988,1.488-2.686a17.06,17.06,0,0,0,5.917-3.992c.313-.324.775-.617.773-1.091,0-1.2.761-1.27,1.683-1.437A7.074,7.074,0,0,0,481.074,104a3.32,3.32,0,0,0-.685-3.66,3.561,3.561,0,0,0-3.672-.739,9.576,9.576,0,0,0-2.322,1.065c-1.105.638-1.636.4-2.054-.8a5.085,5.085,0,0,1-.188-1.521,9.4,9.4,0,0,1,.414-2.7,2.464,2.464,0,0,0-.277-2.114,7.567,7.567,0,0,1-1.249-3.514c-.058-.736-.346-1.064-1.086-.813-.3.1-.7.049-.813.465,3.658,5.356,2.951,10.7-1.782,13.473a8.26,8.26,0,0,1-6.61.834c-3.514-.978-5.379-3.545-6.286-7.162a13.582,13.582,0,0,0-1.765,4.138,4.642,4.642,0,0,0,.929,4.182c.21.269.456.511.689.762a.872.872,0,0,1,.114,1.237.9.9,0,0,1-1.372-.016,8.033,8.033,0,0,1-.806-.883,7.387,7.387,0,0,1-1.5-4.186c-1.23.359-2.274.938-3.445,1.192-1.246.271-2.476-.206-3.749.047a9.258,9.258,0,0,0,.167,1.079,17.467,17.467,0,0,0,16.438,12.47c.456,0,.912.005,1.365.049a.738.738,0,0,1,.679.661.758.758,0,0,1-.6.906,4.632,4.632,0,0,1-1.35.142c-2.394-.078-2.185-.406-1.865,2.192a11.394,11.394,0,0,0,.9,3.113c.181.419.335.849.515,1.268.225.525.289,1.046-.33,1.3-.6.247-.962-.145-1.206-.65-.173-.36-.322-.731-.5-1.086-.23-.453-.629-.434-1.033-.308-.487.153-.32.511-.233.836.058.22.12.44.184.659a139.375,139.375,0,0,1,3.377,13.786c.067.361-.018.824.608.994,2.591-5.372,5.33-10.687,8.388-15.834a7.25,7.25,0,0,0,1.262-1.974,1.26,1.26,0,0,0-1.385-.342c-.533.3,0,.791.032,1.2C469.006,124.147,469.063,124.534,469.109,124.924ZM236.742,218.258a3.815,3.815,0,0,0,1.868.185q6.253-.148,12.506-.325a10.654,10.654,0,0,0,2.2-.3q10.913-2.6,21.829-5.173c1.49-.353,1.495-.369,1.495-1.93,0-1.543-.021-3.086-.034-4.627q-.12-13.968-.237-27.937c-.006-.8-.021-1.6.048-2.4.144-1.646.613-1.975,2.2-1.628.39.085.774.2,1.165.28,8.04,1.565,15.033-.428,20.5-6.58,7.39-8.31,5.018-20.422-4.861-25.524a20.508,20.508,0,0,0-15.971-1.206c-.6.184-1.178.448-1.784.606a1.117,1.117,0,0,1-1.557-1.054,13.227,13.227,0,0,1-.05-1.712q-.163-20.394-.325-40.791c-.014-1.791-.022-1.807-1.8-1.794-4.57.035-9.14.093-13.711.128q-37.877.3-75.756.594c-2.34.018-4.679.025-7.02.193-8.432.606-14.139,5.295-16.361,13.443a43.76,43.76,0,0,0-1.056,12.077c.1,11.083.263,22.166.412,33.248a3.055,3.055,0,0,0,.176,1.65,1.439,1.439,0,0,0,1.021.006,2.188,2.188,0,0,1,2.293.815,1.053,1.053,0,0,0,1.6.316,4.791,4.791,0,0,1,.792-.322c.567-.181,1.2-.327,1.465.379.224.6-.258.956-.751,1.161q-4.116,1.7-8.25,3.356c-.444.179-.933.2-1.184-.329-.265-.553.132-.894.541-1.086,1.034-.481,2.111-.872,3.149-1.346.481-.219,1.439-.318,1.261-.852-.282-.841-1.094-.215-1.61-.038-3.184,1.095-6.342,2.269-9.522,3.377-1.878.654-3.782,1.235-5.8,1.89a35.881,35.881,0,0,1,3.6,11.05,8.127,8.127,0,0,0,2.631-.655,97.8,97.8,0,0,0,16.784-7.28,10.91,10.91,0,0,1,1.23-.6.778.778,0,0,1,1.037.335.739.739,0,0,1-.215,1.06,9.935,9.935,0,0,1-1.32.784c-2.335,1.2-4.631,2.5-7.034,3.544a2.451,2.451,0,0,0-1.636,2.733c.208,13.881.357,27.763.523,41.645.005.4.006.8.023,1.2.066,1.617.069,1.642,1.651,1.607,3.2-.072,6.4-.182,9.594-.265q13.533-.353,27.069-.691c1.126-.027,1.516.06,1.129-1.472a20.429,20.429,0,0,1-.441-8.327c1.252-7.762,5.067-13.781,12.157-17.41a17.016,17.016,0,0,1,20.357,3.2c4.589,4.778,6.018,10.61,5.327,17.069A39.364,39.364,0,0,1,236.742,218.258Zm40.174,73.183c-.681.246-1.362.5-2.049.738a22.875,22.875,0,0,1-16.257-.116c-10.407-4.073-14.289-15.428-8.538-25.01a22.494,22.494,0,0,1,12.873-9.922,20.641,20.641,0,0,1,2.145-.594c.708-.15.795-.531.547-1.114-.088-.211-.171-.423-.259-.634q-6.968-16.762-13.939-33.524c-.541-1.3-.558-1.314-2.016-1.28-4.111.094-8.221.21-12.332.312-2.8.069-3.04-.281-2.041-2.917a20.863,20.863,0,0,0,.879-12.61c-2.832-11.626-15.222-16.409-25.026-9.568a21.528,21.528,0,0,0-8.079,23.966c.485,1.57.182,1.921-1.487,1.992-2,.085-4,.163-5.994.212q-16.187.41-32.376.8c-1.58.04-1.6.054-1.58,1.67q.214,17.991.443,35.984a2.639,2.639,0,0,0,.227,1.5c1.595,2.413,2.6,5.555,6.431,5.222a.586.586,0,0,1,.168.027c1.092.232,1.486.615,1.547,1.72a4.85,4.85,0,0,1-1.267,3.955,2.069,2.069,0,0,0-.545,2.16,22.106,22.106,0,0,1,.492,3.384c.224,5.174-1.1,9.769-5.416,13.022a2.746,2.746,0,0,0-1.237,2.556q.21,11.823.326,23.646a3.52,3.52,0,0,0,.923,2.475c1.636,1.831,3.207,3.721,4.838,5.558A130.29,130.29,0,0,0,183.855,340a4.7,4.7,0,0,0,3.3,1.066c5.538-.136,11.079-.2,16.62-.3,3.712-.062,7.424-.133,11.137-.175a7.073,7.073,0,0,0,2.964-.7,62.376,62.376,0,0,0,10.491-6.115c3.14-2.288,6.381-4.425,9.6-6.593,1.336-.9,1.98-.866,3.1.3.465.483.738.339,1.12,0,.729-.642,1.456-1.285,2.2-1.9.92-.762,1.613-.9,1.913-.357.471.85-.281,1.219-.773,1.658a68.092,68.092,0,0,1-8.167,6.225c-.484.316-1,.764-1.495.175-.531-.626.057-1.053.487-1.4.621-.5,1.293-.94,1.945-1.4.373-.264.766-.5,1.12-.788a.743.743,0,0,0,.133-1.174,1.218,1.218,0,0,0-.795.289c-3.2,2.089-6.4,4.2-9.46,6.495-.955.717-.962.738-.168,1.67a25.988,25.988,0,0,1,4.822,7.636,1.454,1.454,0,0,0,.238.348,1.751,1.751,0,0,0,1-.516c4.833-3.74,9.747-7.375,14.327-11.431a9.707,9.707,0,0,1,1.5-1.118.8.8,0,0,1,1.078.228c.305.392.135.756-.141,1.078a4.62,4.62,0,0,1-.5.47c-2.029,1.755-3.95,3.636-6.1,5.253-.343.259-.793.458-.878.958.194.333.506.251.768.247q15.508-.208,31.014-.436c1.188-.017,1.248-.071,1.254-1.293.014-2.913-.019-5.827-.039-8.739q-.126-18.251-.261-36.5A2.476,2.476,0,0,0,276.916,291.441ZM376.1,215.66a1.927,1.927,0,0,0-.192-1.422,19.621,19.621,0,0,1-1.072-4.312c-.082-1-.55-1.346-1.459-1.534a13.124,13.124,0,0,1-6.172-3.184,14.917,14.917,0,0,1-5.191-10.636c-.061-1.176-.245-2.082-1.4-2.64a3.578,3.578,0,0,1-1.412-1.465c-1.246-2.077-.623-3.861,1.633-4.668a3.016,3.016,0,0,0,2.244-1.9,1.329,1.329,0,0,1,.485-.691c1.286-.861,1.715-2.238,2.2-3.576,1.174-3.24,2.473-6.408,5.059-8.831.572-.537.3-1.008.053-1.527a9.693,9.693,0,0,1-.907-5.335,4.884,4.884,0,0,1,4.576-4.534,6.583,6.583,0,0,1,4.971,1.413,31.089,31.089,0,0,0,5.161,3.032c.386.194.775.538,1.274.239a4.6,4.6,0,0,0,.126-1.693q.025-25.193.035-50.389c0-1.2,0-2.4-.11-3.6-.537-5.625-3.351-9.6-8.652-11.708a17.138,17.138,0,0,0-6.544-1.114q-16.882.159-33.763.286-28.793.225-57.586.44c-1.94.016-1.945.018-1.932,2.031q.128,19.538.259,39.076c.016,2.266.016,2.236,2.2,1.68,7.128-1.812,13.8-.835,19.574,3.835,5.8,4.694,8.03,10.915,6.194,18.2s-6.831,11.828-13.774,14.308a23.09,23.09,0,0,1-12.5.716c-1.324-.264-1.334-.217-1.375,1.116-.008.229,0,.457,0,.686q.136,16.11.28,32.221a2.3,2.3,0,0,0,.228,1.5,4.766,4.766,0,0,0,1.835-.267c3-.7,5.992-1.448,9-2.125,1.557-.352,1.971,0,1.994,1.611a29.779,29.779,0,0,0,.5,4.763c.3,1.7.344,1.71,2.1,1.677q7.626-.14,15.25-.305c3.141-.063,6.282-.111,9.424-.2,1.442-.043,1.522-.137,1.461-1.624a23.134,23.134,0,0,0-2.192-9.268,11.3,11.3,0,0,1-.749-1.723,1.2,1.2,0,0,1,.819-1.632c.378-.127.766-.228,1.154-.32q7.164-1.7,14.33-3.392c2.167-.511,4.331-1.037,6.5-1.517,1.175-.259,1.376-.131,1.848.932.186.417.339.848.493,1.277,1.771,4.944,3.519,9.9,5.317,14.832.767,2.1.361,1.909,2.779,1.868q9.511-.159,19.019-.366C371.709,215.849,373.924,215.739,376.1,215.66Zm-86.5-4.535c-.81.167-1.534.3-2.248.467q-16.333,3.859-32.663,7.724c-1.925.456-1.93.454-1.164,2.3q6.871,16.527,13.742,33.054a17.082,17.082,0,0,1,.6,1.6c.308,1.017.04,1.487-.98,1.758-.274.072-.569.061-.848.123-6.971,1.551-12.421,5.159-15.456,11.8a14.673,14.673,0,0,0,5.5,18.808,19.533,19.533,0,0,0,13.784,2.841,21.917,21.917,0,0,0,9.219-3.476c1.328-.875,1.787-.7,2.44.805.317.733.61,1.477.89,2.225a1.176,1.176,0,0,0,1.138.868l4.8.154c.483.016.647-.242.779-.7.61-2.146,1.032-2.51,3.234-2.432,2.623.091,5.242.336,7.864.478,1.939.1,3.88.159,5.82.215.439.013.955.1,1.139-.5.285-.925,1.1-1.072,1.869-1.288,2.858-.8,5.719-1.588,8.576-2.394,5.657-1.6,11.366-3.025,16.885-5.083a34.42,34.42,0,0,0,14.834-10.4,67.483,67.483,0,0,0,9.673-15.5,3.765,3.765,0,0,0,.1-3.087c-3.047-8.367-6.027-16.759-9.03-25.144q-4.589-12.819-9.183-25.635c-.576-1.6-.582-1.615-2.287-1.215q-6.251,1.468-12.5,2.957l-6.757,1.6a2.437,2.437,0,0,0,.437,1.571,24,24,0,0,1,2.068,11.349,18.218,18.218,0,0,1-4.7,11.685,12.794,12.794,0,0,1-12.1,4.111,15.591,15.591,0,0,1-7.974-4.079,22.574,22.574,0,0,1-6.989-13.23C289.867,214.066,289.768,212.651,289.592,211.125ZM94.506,367.383a69.133,69.133,0,0,0-2.5,7.838,19.865,19.865,0,0,0-.787,5.064A53.129,53.129,0,0,0,93.67,397.16c5.656,17.422,11.345,34.834,15.865,52.6a2.6,2.6,0,0,0,1.645,1.992,31,31,0,0,1,3.232,1.571c.5.277.967.747.615,1.4-.378.7-.933.424-1.465.131a42.937,42.937,0,0,0-12.626-4.178c-3.414-.677-6.876-1.116-10.282-1.825a133.894,133.894,0,0,1-14.337-4.011c-1.218-.4-1.255-.39-1.587.709a115.744,115.744,0,0,0-2.789,11.474c-.17.883.146,1.192.878,1.529q9.1,4.184,18.171,8.44a113.059,113.059,0,0,0,18.565,6.988,24.115,24.115,0,0,0,9.294,1.046,4.834,4.834,0,0,0,4-2.785,12.492,12.492,0,0,0,.853-1.868,53.671,53.671,0,0,0,2.159-8.8c1.151-8.033,1.759-16.115,2.132-24.218.17-3.707.356-7.414.518-11.12.18-4.108.37-8.213.5-12.323.061-1.958,0-1.97-1.881-2.618a74.5,74.5,0,0,1-18.718-9.131,41.254,41.254,0,0,1-5.67-4.683,5.786,5.786,0,0,1-1.509-2.255.84.84,0,0,1,.423-1.16c.456-.183.756.118.958.5a14.1,14.1,0,0,0,4.543,4.586,70.66,70.66,0,0,0,15.218,8.485c12.394,4.927,25.335,7.595,38.464,9.539a1.47,1.47,0,0,0,1.728-.707,20.824,20.824,0,0,1,1.509-2.079c.369-.474.726-1.241,1.47-.73s.155,1.1-.157,1.627a3.01,3.01,0,0,1-.193.282,71.062,71.062,0,0,0-4.036,6.159c-5.617,9.237-9.933,19.15-14.911,28.72-.408.783-.281,1.171.491,1.614,3.223,1.847,6.57,3.448,9.889,5.1,1.215.6,1.208.576,2.1-.462,2.935-3.427,5.682-7.007,8.52-10.513a296,296,0,0,0,18.518-25.91,28.092,28.092,0,0,0,4.067-9.742,5.63,5.63,0,0,0-1.932-5.835,31.678,31.678,0,0,0-4.25-3.171,177.3,177.3,0,0,0-15.932-8.322c-10.227-4.815-20.436-9.662-30.3-15.193-1.644-.922-3.277-1.862-4.89-2.836a3.7,3.7,0,0,0-2.578-.585,36.943,36.943,0,0,1-5.121.373,68.555,68.555,0,0,1-21.012-3.6A53.352,53.352,0,0,1,94.506,367.383Zm283.32-148.533a.34.34,0,0,0,.524.08,25.955,25.955,0,0,1,8.05-2.8,15,15,0,0,1,4.763-.406c.536.048,1.079.2,1.05.871-.034.718-.626.721-1.148.7a24.151,24.151,0,0,0-7.555,1.329,16.664,16.664,0,0,0-9.043,6.417,48.124,48.124,0,0,0-4.5,8.063c-2.743,5.658-4.9,11.562-7.269,17.377A77.225,77.225,0,0,1,351.2,270.633,37.609,37.609,0,0,1,334.3,282.451c-3.716,1.319-7.507,2.385-11.3,3.452-4.341,1.219-8.705,2.356-12.992,3.77-.845.278-1.417.617-1.372,1.639a59.2,59.2,0,0,0,.923,9.364c.146.7.469.944,1.187.844,1.865-.259,3.744-.422,5.608-.694,6.046-.883,12.028-2.13,18.045-3.183a48.059,48.059,0,0,0,26.415-13.48,70.914,70.914,0,0,0,8.555-10.467,69.539,69.539,0,0,0,9-17.451,44,44,0,0,0,2.519-11.853c.021-.533.08-1.126.746-1.148.727-.025.949.568.942,1.178a22.13,22.13,0,0,1-.155,2.732A46.383,46.383,0,0,1,378.7,260.3a8.054,8.054,0,0,0-.053,6.977,71.367,71.367,0,0,1,4.472,15.96c.932,5.877,1.107,11.7-.652,17.471-.483,1.585-.4,1.671,1.25,2.014.335.07.676.116,1.015.167a84.6,84.6,0,0,0,18.611.9c6.759-.471,13.379-1.567,19.648-4.288,1.8-.782,1.84-.764,1.781-2.762a159.357,159.357,0,0,0-3.039-26.516,188.56,188.56,0,0,0-8.219-29.672,70.784,70.784,0,0,0-13.014-21.2,7.541,7.541,0,0,0-4.967-3.051c-.681-.07-1.116-.506-.669-1.178.378-.571.107-.836-.28-1.116a6.991,6.991,0,0,0-4.09-1.549,11.9,11.9,0,0,0-6.227,1.587c-1.675.978-3.293,2.058-4.895,3.152A4.341,4.341,0,0,0,377.826,218.849Zm47.7,167.6a1.12,1.12,0,0,0,.918-.452,41.176,41.176,0,0,0,7.222-10.561,4.843,4.843,0,0,0,.441-2.494c-.106-2.625-.241-5.25-.277-7.876-.16-11.593-.632-23.179-.59-34.777.05-14.281.214-28.557.9-42.822.625-12.948,1.521-25.876,2.563-38.8q1.21-15.036,3.658-29.909c2.042-12.508,3.945-25.04,5.226-37.644.9-8.861,1.179-17.784-.5-26.632-.078-.412.1-.928-.39-1.2a1.953,1.953,0,0,0-1.022.629,84.335,84.335,0,0,1-7.779,5.609,60.943,60.943,0,0,1-9.862,5.492,48.269,48.269,0,0,1-8,2.485c-4.432.981-8.635.075-12.664-1.772a64.06,64.06,0,0,1-16.088-10.007c-.359-.318-.638-.828-1.351-.775a3.643,3.643,0,0,0-.127,1.457q-.01,3.514,0,7.027c0,1.848,0,1.859,1.8,2.525a53.323,53.323,0,0,1,8.023,3.422,10.139,10.139,0,0,1,5.247,6.443,4.841,4.841,0,0,0,1.13,2.458c2.114,2.041,2.754,4.657,2.9,7.467.321,6.118-2.032,11.259-5.873,15.815A18.334,18.334,0,0,1,389,208.455c-1.11.135-1.321.5-1.2,1.606.116,1.035.863.735,1.425.665a8.458,8.458,0,0,1,6.541,1.96c1.288,1.035,2.557,2.107,3.737,3.263a67.349,67.349,0,0,1,15.64,23.892,156.722,156.722,0,0,1,5.344,16.976,185.847,185.847,0,0,1,5.539,30.63,159.338,159.338,0,0,1,.417,20.887c-.3,7.587-.676,15.173-1.271,22.745-.39,4.952-.637,9.915-.871,14.876-.458,9.7-.889,19.4-.181,29.107A99.224,99.224,0,0,0,425.526,386.454ZM111.858,297.722a2.576,2.576,0,0,0,1.047-1.6,90.175,90.175,0,0,0,5.44-19.946,86.348,86.348,0,0,1,2.728-12.882c1.4-4.36,3.686-7.966,7.808-10.19a1.226,1.226,0,0,0,.69-1.4c-.146-1.363-.268-2.727-.382-4.094-.63-7.624-1.356-15.244-1.855-22.879-.478-7.293-.855-14.594-1.415-21.883a2.436,2.436,0,0,0-1.178-2.094c-3.915-2.569-7.8-5.191-11.665-7.832a3.49,3.49,0,0,0-2.225-.66c-2.111.076-4.228.131-6.338.053a3.636,3.636,0,0,0-2.754,1.044c-4.17,3.735-8.378,7.428-12.574,11.135-1.808,1.6-1.812,1.6-3.611-.114-2.4-2.284-4.789-4.58-7.2-6.854-.4-.374-.7-.914-1.439-.975-.111.5-.237.981-.324,1.469-1.068,6.071-2.169,12.138-3.186,18.218-3.031,18.129-6.148,36.239-9.948,54.231Q57.39,299.29,50.848,328.006c-1.006,4.454-2.152,8.875-3.224,13.314-.3,1.235-.282,1.244.922,1.673a66.132,66.132,0,0,0,8.841,2.679c2.256.466,2.246.484,2.981-1.72,4.742-14.246,9.018-28.638,13.462-42.978,4.041-13.037,7.283-26.292,10.946-39.432,3.432-12.315,6.544-24.72,10.257-36.958a142.823,142.823,0,0,1,5.479-15.311,26.649,26.649,0,0,1,6.533-9.126,10.612,10.612,0,0,1,4.548-2.634c.463-.118.967-.084,1.144.461s-.214.868-.67,1.019c-3.052,1-4.958,3.356-6.887,5.705-1.135,1.382-2,2.8-1.022,4.64a1.888,1.888,0,0,1,.092.5,207.237,207.237,0,0,1,2.684,20.884c.647,7.74,1.281,15.479,1.847,23.224.806,11.049,1.844,22.081,2.389,33.149C111.339,290.574,111.616,294.042,111.858,297.722Zm366.87-95.572a1.364,1.364,0,0,0,.418-.027,11.285,11.285,0,0,0,1.052-.569,60.988,60.988,0,0,0,9.917-7.59,47.467,47.467,0,0,0,9.914-13.231,21.658,21.658,0,0,0,2.481-10.723,36.518,36.518,0,0,0-2.529-11.663c-2.488-6.321-4.939-12.655-7.683-18.872a47.288,47.288,0,0,0-5.243-9.4,13.288,13.288,0,0,0-5.385-4.368,37.731,37.731,0,0,0-7.16-2.3c-1.959-.422-2-.434-3.056,1.21a120.47,120.47,0,0,0-10.018,19.08c-.272.654-.327,1.614-1.3,1.565s-.963-.978-1.1-1.689c-1-5.1-2.006-10.191-3.35-15.211-.221-.827-.431-1.659-.705-2.469-.316-.936-.44-1-1.358-.518s-1.772,1.041-2.63,1.6a81.039,81.039,0,0,0-10.156,8.4c-5.222,4.791-10.542,9.443-16.718,13.032a18.3,18.3,0,0,1-14.96,1.935,51.788,51.788,0,0,1-14.113-6.844c-2.054-1.346-4.1-2.7-6.174-4.019-.791-.5-1.035-.382-1.042.51-.027,3.884-.01,7.769-.023,11.652a1.607,1.607,0,0,0,.635,1.315A70.78,70.78,0,0,0,406.5,164.3a17.926,17.926,0,0,0,10.855,1.531,36.673,36.673,0,0,0,8.006-2.455,83.029,83.029,0,0,0,18.131-11.591,3.548,3.548,0,0,0,1.617-3.342,5.966,5.966,0,0,1,.138-1.358c.5-4.061,2.2-7.786,3.28-11.685a1.16,1.16,0,0,1,.142-.309.723.723,0,0,1,1.323.18,1.843,1.843,0,0,1-.091,1.173c-.43,1.36-.845,2.724-1.292,4.08a31.836,31.836,0,0,0-1.522,15.349c.215,1.294.481,2.587.59,3.892a121.916,121.916,0,0,1-.168,19.853c-.264,3.3-.788,6.572-1.145,9.864-.177,1.641-.072,1.751,1.617,1.785,3.2.065,6.4.167,9.593.088a103.172,103.172,0,0,0,14.65-1.4,11.749,11.749,0,0,0,4.821-1.636,65.141,65.141,0,0,0,5.687-4.674,3.955,3.955,0,0,0,1.417-3.607c-.522-6.55-.5-13.123-.62-19.688a4.627,4.627,0,0,0-.557-2.12q-1.938-3.722-3.827-7.467a58.766,58.766,0,0,1-3.206-8.3,11.354,11.354,0,0,1-.366-4.245.762.762,0,0,1,.738-.8.779.779,0,0,1,.863.664,5.15,5.15,0,0,1,.091,1.02,14.264,14.264,0,0,0,.8,4.183c2.158,6.554,5.533,12.519,8.911,18.478a39.878,39.878,0,0,1,3.044,6.874,9.8,9.8,0,0,1,.5,4.39,15.832,15.832,0,0,1-3.379,8.295,39,39,0,0,1-5.1,5.3q-3.487,2.916-7.214,5.508c-.993.692-1,.72-.368,1.7a38.275,38.275,0,0,1,2.961,5.206C477.877,200.074,478.3,201.128,478.728,202.15Zm-354.719,170.9c1.255,0,2.512-.006,3.768,0a3.776,3.776,0,0,0,3.651-2.277c4.268-7.974,8.906-15.708,15.331-22.2.04-.04.072-.088.11-.131a21.7,21.7,0,0,0,3.911-6.981,2.165,2.165,0,0,0-.58-2.691c-1.571-1.49-2.992-3.141-4.438-4.76-.4-.447-.966-1.063-.287-1.623.7-.579,1.092.163,1.509.611a193.771,193.771,0,0,0,15.627,15.132,101.161,101.161,0,0,0,10.047,7.723,40.538,40.538,0,0,0,12.9,5.8,64.668,64.668,0,0,0,8.987,1.211,24.592,24.592,0,0,0,8.844-.6c8.881-2.414,16.774-6.838,24.221-12.139.624-.444.567-.878.322-1.459a28.69,28.69,0,0,0-4.807-7.859c-.912-1.042-.928-1.024-2.143-.448-2.167,1.028-4.322,2.08-6.506,3.067a51.038,51.038,0,0,1-10.85,3.652,22.331,22.331,0,0,1-15.43-2.221,47.864,47.864,0,0,1-8.9-6.357,174.5,174.5,0,0,1-17.637-18.432,122.974,122.974,0,0,0-11.884-12.087,17.665,17.665,0,0,0-9.992-4.076,1.523,1.523,0,0,0-1.742.991c-1.24,2.442-2.567,4.843-3.863,7.257a43.16,43.16,0,0,1-7.531,10.147,11.975,11.975,0,0,1-4.454,3.126,6.2,6.2,0,0,0-3.232,2.639,134.584,134.584,0,0,1-8.25,10.943,31.329,31.329,0,0,1-6.932,6.581,3.828,3.828,0,0,0-1.624,2.082c-1.846,5.162-3.914,10.236-5.968,15.319-1.2,2.966-1.953,2.656,1.764,4.265A66.607,66.607,0,0,0,124.008,373.053Zm362.2-173.065a1.392,1.392,0,0,0-1.07.39,62.02,62.02,0,0,1-7.436,4.573c-5.422,2.7-11.124,4.767-16.586,7.376a4.972,4.972,0,0,1-1.3.4.766.766,0,0,1-.819-.494.742.742,0,0,1,.221-.924,2.8,2.8,0,0,1,.74-.415c1.2-.528,2.414-1.034,3.614-1.566,4.124-1.826,8.251-3.642,12.359-5.5,1.257-.568,1.228-.625.78-1.943a31.79,31.79,0,0,0-3.621-7.168c-.674-1.032-.69-1.016-1.729-.443q-3.6,1.986-7.2,3.964c-1.3.717-2.605,1.425-3.894,2.16-.368.21-.989.395-.672.971.246.448.718.138,1.069-.028.98-.465,1.953-.942,2.925-1.422.522-.256,1.1-.616,1.477.1.361.7-.259,1.032-.747,1.31a23.762,23.762,0,0,1-2.433,1.257c-1.945.822-3.907,1.6-5.879,2.362-.481.185-1.077.241-1.321-.384s.185-.962.694-1.176c.63-.267,1.277-.494,1.918-.738.333-.126.685-.285.569-.711-.5-1.856.779-2.532,2.068-3.25q5.086-2.834,10.15-5.714c.348-.2.824-.342.88-.876a2.4,2.4,0,0,0-1.246.034,110.582,110.582,0,0,1-22.225.748c-1.433-.092-1.431-.114-1.67,1.328-.038.227-.065.453-.1.678-1.215,8.131-2.4,16.265-3.655,24.389-1.157,7.505-2.261,15.017-2.963,22.582q-.656,7.078-1.228,14.164c-.311,3.87-.575,7.745-.822,11.621-.082,1.284,0,1.306,1.274,1.469,3.4.436,6.83.541,10.244.813a132.5,132.5,0,0,0,17.633-.272c7.434-.4,14.707-1.939,21.984-3.395a37.182,37.182,0,0,0,3.979-1.017c1.617-.514,1.46-.447,1.258-1.87-.185-1.3-.346-2.6-.541-3.9-.912-6.042-1.768-12.088-2.322-18.177q-.666-7.335-1.5-14.654c-.815-7.09-1.751-14.164-2.3-21.284A35.683,35.683,0,0,0,486.206,199.988Zm17.523,186.478a13.08,13.08,0,0,0,4-2.86,53.452,53.452,0,0,0,8.476-11.15,3.6,3.6,0,0,0,.362-3.366c-2.656-7.417-4.919-14.966-7.058-22.543q-4.554-16.152-7.575-32.676c-1.219-6.738-2.733-13.42-3.781-20.193-1.343-8.684-3.052-17.312-4.117-26.042-.107-.879-.443-.962-1.248-.736-5.173,1.448-10.476,2.282-15.749,3.265-2.944.549-2.739-.179-2.04,3.014,3.078,14.048,6.269,28.063,10.573,41.809,3.02,9.641,5.9,19.332,9.523,28.762,3.356,8.738,6.1,17.7,9.765,26.321,2.117,4.989,1.646,9.926-.623,14.76A2.973,2.973,0,0,0,503.729,386.467ZM368.422,278.288c-1.6,1.834-3.1,3.625-4.666,5.352a48.926,48.926,0,0,1-17.61,12.47,71.063,71.063,0,0,1-13.519,3.659c-14.144,2.82-28.365,4.793-42.822,4.7-.172,0-.343,0-.514.014-1.162.082-1.227.17-.857,1.2.116.321.263.632.395.949q2.3,5.535,4.6,11.069c1.421,3.427,2.831,6.86,4.263,10.282.475,1.132.5,1.123,1.627.8.22-.062.434-.146.65-.216q27.873-8.965,55.744-17.931,10.268-3.3,20.54-6.6c1.46-.47,1.455-.488.981-1.883-.038-.109-.066-.219-.1-.326q-3.927-10.961-7.864-21.92A3.037,3.037,0,0,0,368.422,278.288ZM429.6,385.156a8.543,8.543,0,0,0,3.335-1.072c5.757-2.859,10.472-7.078,15.035-11.5a2.493,2.493,0,0,0,.661-2.023c-.019-8.453.347-16.9.527-25.345.117-5.481.628-10.946.634-16.431a163.9,163.9,0,0,1,.986-16.4c.533-5.224,1.029-10.451,1.54-15.676.417-4.261.775-8.527,1.266-12.778.419-3.629.92-7.247,1.171-10.894.078-1.122.084-1.134-1.056-1.174-1.768-.063-3.545-.018-5.3-.177-3.352-.3-6.719-.454-10.058-.923-1.507-.211-1.531-.128-1.6,1.334-.43,8.552-.944,17.1-1.259,25.66-.577,15.64-.617,31.289-.38,46.936.129,8.506.39,17.012.69,25.514a15.232,15.232,0,0,1-2.328,9.121A65.277,65.277,0,0,1,429.6,385.156Zm-270.873-231.4h-.149c0-1.255.027-2.512-.006-3.768s-.062-1.286-1.227-1.274a55.377,55.377,0,0,1-7.5-.591c-8.468-1.065-16.422-3.821-24.178-7.254a1.9,1.9,0,0,1-1.219-1.815c-.444-4.257-.972-8.5-1.479-12.755-.072-.608-.038-1.411-.937-1.343-.861.065-.783.83-.787,1.46a4.835,4.835,0,0,0,.026.513c.2,2.045.417,4.089.6,6.136.406,4.49,1.06,8.955,1.239,13.469.1,2.45.356,4.894.545,7.341.267,3.471.509,6.946.822,10.414.084.944-.248,1.318-1.144,1.472a56.324,56.324,0,0,1-10.9,1.035c-5.407-.132-9.987-2-13.46-6.346A63.4,63.4,0,0,1,91.8,149.011c-1.019-2.046-2.112-4.048-3.265-6.018-.691-1.18-1.183-1.488-1.758-1.113-.544.356-.553,1.037.116,2.151,1.443,2.4,2.64,4.929,3.951,7.4a52.549,52.549,0,0,0,7.5,11.217,17.14,17.14,0,0,0,9.263,5.486,34.078,34.078,0,0,0,9.543.426c2.623-.193,5.185-.849,7.786-1.154a120.039,120.039,0,0,0,22.885-4.953c3.256-1.05,6.461-2.266,9.706-3.355a1.5,1.5,0,0,0,1.215-1.745C158.67,156.158,158.728,154.956,158.728,153.756Zm-9.044,149.038a48.254,48.254,0,0,0,4.576-8.193c.207-.576.25-.986-.5-1.118-.507-.089-.858-.384-.725-.953a.881.881,0,0,1,1.069-.643,9.994,9.994,0,0,0,2.387-.151,11.456,11.456,0,0,0,10.247-9.175,17.832,17.832,0,0,0-.216-8.484c-.3-1.16-.626-2.252.894-2.8a.38.38,0,0,0,.128-.114,2.579,2.579,0,0,0,.833-2.328c-.207-.863-1.122-.641-1.73-.7a5.051,5.051,0,0,1-3.919-2.447c-.9-1.386-1.782-2.79-2.653-4.2a12.566,12.566,0,0,0-3.883-4.272c-1.1-.691-1.121-.726-2.029.144a8.681,8.681,0,0,1-3.027,1.893c-1.178.434-2.358.862-3.55,1.252a2.028,2.028,0,0,0-1.3,1.02,12.275,12.275,0,0,1-2.859,3.608c-.723.635-.664,1.127-.151,1.87,1.9,2.75,1.67,5.521.114,8.383a2.576,2.576,0,0,1-2.542,1.51,3.7,3.7,0,0,0-3.6,3.489,5.06,5.06,0,0,0,2.321,4.693,4.751,4.751,0,0,0,5.02.519,7.28,7.28,0,0,0,.742-.427.832.832,0,0,1,1.219.145.847.847,0,0,1-.2,1.217,1.886,1.886,0,0,1-.69.494c-1.495.4-2.01,1.453-2.16,2.882a14.569,14.569,0,0,1-.611,2.314c-.106.38-.353.761-.162,1.157.374.769,0,1.452-.2,2.152a10.484,10.484,0,0,1-.426,1.121c-.826,2.011-.824,2,1.157,2.667a18.566,18.566,0,0,1,5.427,2.871C149,302.432,149.233,302.79,149.684,302.794ZM106.015,105.036a8.765,8.765,0,0,0-2.24-.065,6.13,6.13,0,0,1-1.188-.1.853.853,0,0,1-.714-1.007c.072-.485.443-.634.868-.659.4-.022.8,0,1.2,0a17.09,17.09,0,0,0,14.355-26.452c-.4-.634-.786-1.061-1.648-.7a5.114,5.114,0,0,1-3.034.246,1.184,1.184,0,0,0-1.222.369,6.437,6.437,0,0,1-8.974.028,1.417,1.417,0,0,0-1.373-.441,6.329,6.329,0,0,1-4.622-.768c-.294-.184-.643-.408-.914-.06-.554.716-1.415,1.136-1.772,2.051a4.782,4.782,0,0,1-2.66,2.767.95.95,0,0,0-.624,1.334,7.979,7.979,0,0,1,.078,1.021c.234,1.676-.828,3.047-1.092,4.611-.107.645-.758.607-1.272.415a7.122,7.122,0,0,0-2.145-.554,3.488,3.488,0,0,0-3.463,5.2,5.524,5.524,0,0,0,5.695,2.965,12.792,12.792,0,0,1,1.351-.189c.767,0,1.17.547.705,1.083-.683.788-.246,1.183.236,1.7a20.7,20.7,0,0,0,5.075,3.753c1.491.853,1.538,1.048,1.232,2.77a58.211,58.211,0,0,1-1.469,5.807c-.657,2.295-.456,2.656,1.833,3.418a7.884,7.884,0,0,0,2.19.343,3.24,3.24,0,0,0,3.215-1.846,23.107,23.107,0,0,0,1.953-4.741A4.61,4.61,0,0,0,106.015,105.036Zm299.219,81.409c-.005-2.33-.322-4.632-2-6.366a7.424,7.424,0,0,1-1.979-3.518,8.783,8.783,0,0,0-4.232-5.361,28.726,28.726,0,0,0-6.184-2.9,48.666,48.666,0,0,1-12.7-6.273,5.24,5.24,0,0,0-1.206-.635c-2.842-1.094-5.268.533-5.282,3.563a8.308,8.308,0,0,0,2.524,6,12.022,12.022,0,0,0,7.722,4.03c1.044.079,1.874.4,2.141,1.58a2.734,2.734,0,0,0,1.426,1.636,1.459,1.459,0,0,1,.594,2.062c-.256.572-.489,1.156-.708,1.745a9.836,9.836,0,0,0-.62,4.542c.161,1.46.379,1.589,1.862,1.283a7.924,7.924,0,0,1,1.347-.22c2.182-.062,4.114.522,5.283,2.511a5.339,5.339,0,0,1-.428,5.973,7.966,7.966,0,0,1-5.569,3.649,2.523,2.523,0,0,0-2.2,2.049,5.017,5.017,0,0,0,.188,3.36,2.123,2.123,0,0,0,2.337,1.569,12.958,12.958,0,0,0,1.873-.164,16.123,16.123,0,0,0,9.4-5.22C402.7,197.115,405.2,192.32,405.234,186.445Zm-39.519-2.381a13.317,13.317,0,0,1-2.114,2.282,12.109,12.109,0,0,1-2.757,1.343c-.611.252-.541.8-.37,1.323a3.36,3.36,0,0,0,1.847,1.926,2.313,2.313,0,0,1,1.39,2.5,6.633,6.633,0,0,0,.019,1.026c.432,6.632,5.683,11.967,11.424,12.427a9.31,9.31,0,0,1,1.358.167c.8.184,1.033.757.487,1.351-.365.4-.7.7-.594,1.293a24.951,24.951,0,0,0,1.654,5.385c.243.566.559.633,1.048.265a32.815,32.815,0,0,1,5.791-3.63c.339-.157.588-.423.432-.811-.569-1.43-.569-3.016-1.329-4.406a6.624,6.624,0,0,1-.352-5.627,1.5,1.5,0,0,0,0-1.573c-.457-.707-.111-1.193.712-1.244.395-.023.8.093,1.193.084a6.533,6.533,0,0,0,6.113-3.681c1.294-2.563-.141-4.905-3-5.042a7.013,7.013,0,0,0-2.521.384c-1.2.393-1.377.286-2.167-.711a5.2,5.2,0,0,1-.915-3.062,12.188,12.188,0,0,1,.964-5.345c.182-.459.532-.953-.075-1.369a4.265,4.265,0,0,1-1.553-2c-.184-.459-.571-.507-.971-.559a13.989,13.989,0,0,1-8.316-4.39c-.633-.646-1.046-.491-1.508.109-.035.045-.075.087-.114.128-2.486,2.68-3.46,6.123-4.746,9.409a.6.6,0,0,0,.06.647c1,1.1,1.527,2.577,3.249,3.064a47.667,47.667,0,0,1,5.714,2.284c1.6.687,1.707,1.434.43,2.652a6.37,6.37,0,0,1-3.972,1.811,4.835,4.835,0,0,1-5.288-4.829A4.836,4.836,0,0,0,365.715,184.064ZM299.6,492.887a6.26,6.26,0,0,0,2.524,1.083,49.62,49.62,0,0,0,9.087,1.646,139.022,139.022,0,0,0,21.038.9,45.374,45.374,0,0,0,9.176-1.047,3.6,3.6,0,0,0,2.485-1.661,17.891,17.891,0,0,0,1.824-10.622.825.825,0,0,0-.04-.167c-.391-1.23-.691-1.426-1.993-1.245a19.193,19.193,0,0,1-9.618-.988,4.81,4.81,0,0,0-4.205.186c-2.8,1.381-2.92,1.777-.857,4.18.408.475.854.92,1.237,1.413a.64.64,0,0,1-.141.915.611.611,0,0,1-.78.122,5.759,5.759,0,0,1-.933-.738,11.184,11.184,0,0,1-2.075-2.92c-.492-.95-.566-.945-1.573-.423-.956.5-1.012.625-.531,1.576a10.678,10.678,0,0,0,1.8,2.491c.422.447,1.039.959.34,1.567-.677.589-1.143-.092-1.567-.514a9.8,9.8,0,0,1-1.812-2.485c-.8-1.558-.637-1.487-2.292-.669a59.184,59.184,0,0,1-13.411,4.614,38.749,38.749,0,0,0-5.463,1.43A4.56,4.56,0,0,0,299.6,492.887Zm114.237,3.866c2.142-.144,4.934-.32,7.723-.523,5.3-.384,10.515-1.416,15.746-2.3a60.374,60.374,0,0,0,11.027-3.087c2.024-.755,2.662-1.74,2.552-3.911-.171-3.383-1.575-6.395-2.911-9.425a1.078,1.078,0,0,0-1.4-.654c-1.052.261-2.111.5-3.154.791a22.764,22.764,0,0,1-7.419,1.107,6.187,6.187,0,0,0-5,1.787,4.03,4.03,0,0,1-.69.507,1.016,1.016,0,0,0-.365,1.584,7.779,7.779,0,0,0,1.727,2.107,8.568,8.568,0,0,1,.769.678.708.708,0,0,1,.067.942.7.7,0,0,1-.91.25,5.129,5.129,0,0,1-1-.654,8.515,8.515,0,0,1-1.947-2.37c-.159-.286-.273-.655-.724-.584a1.415,1.415,0,0,0-1.042,1.927,7.17,7.17,0,0,0,2.288,2.939c.437.325.761.782.333,1.311s-.923.242-1.358-.067a8.159,8.159,0,0,1-2.468-3.018c-.524-1.01-.594-1.043-1.482-.382a59.548,59.548,0,0,1-9.833,5.537c-1.129.547-2.238,1.14-3.337,1.746a9.006,9.006,0,0,0-2.415,1.9c-.725.819-.591,1.236.48,1.556A18.008,18.008,0,0,0,413.839,496.753ZM376.242,217.7c-2.337-.259-25.551.221-26.94.533.245,1.857,10.746,30.911,11.51,31.828a5.849,5.849,0,0,0,.879-1.834c2.024-4.96,3.722-10.068,6.234-14.806C370.676,228.229,372.1,222.34,376.242,217.7ZM104.568,64.675c-1.619.711-1.617.708-2.913-.577a2.709,2.709,0,0,0-2.506-.8,4.747,4.747,0,0,0-3.687,2.485,1.165,1.165,0,0,1-1.614.727A5.19,5.19,0,0,0,92,66.286,5.292,5.292,0,0,0,87.482,69.5c-.278.582-.439,1.139-1.32,1-1.434-.233-1.615-.087-2.086,1.254a8.909,8.909,0,0,0-.171,5.879c.289.884.5,1.794-.381,2.517-1.508,1.242-.982,3.592-.162,4.883a1.119,1.119,0,0,0,1.43.6,6.455,6.455,0,0,1,3.383-.182A1.1,1.1,0,0,0,89.59,84.6a6.072,6.072,0,0,0-.107-4.024c-.337-1.116-.155-1.455.994-1.649a3.386,3.386,0,0,0,2.77-2.479,1.9,1.9,0,0,1,.7-1.134,5.254,5.254,0,0,0,1.6-1.75c.615-.927,1.02-1.056,1.778-.348a5.272,5.272,0,0,0,4.947,1.189,2.06,2.06,0,0,1,2.227.771,4.412,4.412,0,0,0,6.967-.261,1.277,1.277,0,0,1,1.859-.576,4.648,4.648,0,0,0,3.511-.075c1.5-.55,1.928-1.145,1.922-2.645-.005-1.4-.413-1.918-1.879-2.494a13.057,13.057,0,0,0-2.172-.463c-1-.211-1.135-.427-.988-1.378a1.979,1.979,0,0,0-1.672-2.463A6,6,0,0,0,109,64.94a20.51,20.51,0,0,0-2.7,1.086c-.871.371-1.2.179-1.525-.734C104.706,65.089,104.782,64.834,104.568,64.675ZM307.194,231.19a10.926,10.926,0,0,0,7.934-3,15.148,15.148,0,0,0,4.495-8.1c.324-1.426.305-1.474-1.127-1.451q-12.147.2-24.295.44c-1.192.023-1.3.2-.809,1.323a18.79,18.79,0,0,0,7.324,8.8A12.243,12.243,0,0,0,307.194,231.19ZM57.813,355.6a2.956,2.956,0,0,0-.989-1.145c-.676-.569-1.151-1.362-2.248-1.384A21.98,21.98,0,0,1,46.1,351.2c-.77-.339-1.114-.2-1.351.619a54.372,54.372,0,0,0-1.451,6.338c-.251,1.513-.141,1.7,1.208,2.451a52.572,52.572,0,0,0,9.037,3.643c5.785,1.954,11.54,4.023,17.642,4.812,1.415.182,2.829.368,4.246.52.318.034.729.084.9-.3s-.135-.641-.383-.858a17.082,17.082,0,0,0-2.675-1.843c-3.6-2.106-7.292-4.065-10.449-6.834-.718-.63-1.214-.415-1.72.175-.481.563-.927,1.156-1.4,1.729a.749.749,0,0,1-1.3-.733,4.044,4.044,0,0,1,.6-1.028c.5-.617,1.046-1.2,1.567-1.786-1.258-1.517-1.323-1.526-2.714-.443a11.436,11.436,0,0,0-1.793,1.833c-.271.33-.634.527-1.043.214a.75.75,0,0,1-.232-1.059,5.422,5.422,0,0,1,.818-1.088C56.309,356.894,57.054,356.275,57.813,355.6ZM99.944,192.359A1.232,1.232,0,0,0,98.91,192a92.1,92.1,0,0,1-12.988-2.085c-2.217-.525-4.413-1.135-6.623-1.694-1.073-.272-1.151-.239-1.338.859-.211,1.235-.3,2.493-.545,3.721a2.017,2.017,0,0,0,.738,2.089c2.758,2.561,5.459,5.184,8.187,7.777,1.064,1.011,1.082,1.013,2.186.04q5.327-4.694,10.638-9.407C99.456,193.044,99.833,192.846,99.944,192.359Zm279.845,110.7a32.325,32.325,0,0,0,2.246-10.529,62.031,62.031,0,0,0-3.15-19.506c-.044-.146-.082-.344-.454-.287-.247.075-.366.425-.52.711a24.859,24.859,0,0,1-5.3,6.456,1.926,1.926,0,0,0-.6,2.485c2.357,6.423,4.637,12.877,6.959,19.313A2.066,2.066,0,0,0,379.789,303.054ZM517.77,373.291c-.625,1-1.095,1.763-1.569,2.517a44.668,44.668,0,0,1-7.293,9.02,14.6,14.6,0,0,1-6.356,3.872,1.95,1.95,0,0,0-1.12.713,89.545,89.545,0,0,1-7,7.492,2.525,2.525,0,0,0-1,1.588,3.657,3.657,0,0,0,2.041.032,53.254,53.254,0,0,0,9.66-2.832,8.843,8.843,0,0,0,4.421-3.306c2.682-3.819,5.1-7.847,8.569-11.063a3.476,3.476,0,0,0,.99-2.823A16.277,16.277,0,0,0,517.77,373.291Zm-69.18,1.657a2.457,2.457,0,0,0-1.389.885,74.446,74.446,0,0,1-8.518,6.892c-3.145,2.086-6.377,4.012-10.289,4.367a2.838,2.838,0,0,0-2.214,3.251q.357,1.936.777,3.859c.355,1.628.368,1.629,2.055,1.183a19.5,19.5,0,0,0,9-5.061,37.091,37.091,0,0,1,7.206-5.761,9,9,0,0,0,2.286-2.05,3.466,3.466,0,0,0,.823-1.671A38.008,38.008,0,0,0,448.591,374.948ZM160.852,316.077c-.126-7.967-.246-15.6-.369-23.348-1.329.281-2.491.524-3.652.771-.463.1-.612.5-.751.863a60.519,60.519,0,0,1-5.533,10.617c-.48.767-.3,1.183.314,1.714a96.447,96.447,0,0,1,7.76,7.5A8.414,8.414,0,0,0,160.852,316.077ZM469.769,95.723a6.726,6.726,0,1,0-6.659,6.827A6.684,6.684,0,0,0,469.769,95.723ZM164.38,351.91a143.064,143.064,0,0,1-11.549-10.42c-.221.111-.3.124-.32.164-.141.305-.29.61-.4.925a22.707,22.707,0,0,1-4.221,7.363c-.223.259-.43.531-.656.786-.318.356-.4.7.063.985,3.307,2.022,6.722,3.69,10.766,2.693A38.863,38.863,0,0,0,164.38,351.91Zm-6.527,13.89a6.164,6.164,0,0,0-2.911-2.475,22.228,22.228,0,0,0-4.028-1.406,85.807,85.807,0,0,1-9.149-2.789,1.269,1.269,0,0,0-1.807.62c-1.371,2.1-2.715,4.217-3.9,6.432a.782.782,0,0,0-.022.936A128.562,128.562,0,0,0,157.853,365.8Zm-3.092,96.025c-3.916-1.745-7.586-3.548-11.285-5.625-1.3,2.79-2.555,5.47-3.805,8.15-.28.6.1.826.576.988a24.694,24.694,0,0,0,11.643,1.063,1.372,1.372,0,0,0,1.293-1.144A12.4,12.4,0,0,1,154.761,461.825ZM445.916,101.553a6.465,6.465,0,0,0,2.416-12.475c-1.421-.559-1.547-.531-2.384.705a17.593,17.593,0,0,0-2.939,8.82c-.166,2.406.311,2.9,2.736,2.95ZM92.846,126.217l6.571-10.5c-2.878-.922-3.937-1.482-4.932-2.573-1.047-1.148-1.048-1.149-2.429-.355a7.348,7.348,0,0,1-.884.516,1.463,1.463,0,0,0-.954,1.9c.282,1.394.41,2.82.712,4.209A30.419,30.419,0,0,0,92.846,126.217Zm96.109,216.532c2.644,2.234,7.595,3.449,11.2,3.069,4.461-.471,9.939-2.094,11.3-3.44ZM115.32,192.073a112.763,112.763,0,0,0,10.091,6.753,90.574,90.574,0,0,0-.588-9.963A37.54,37.54,0,0,1,115.32,192.073ZM108.308,123.6a75.618,75.618,0,0,0,1.025-9.065c.188-2.325.087-2.361-2.271-2.89-.876-.2-1.39-.093-1.7.808A4.407,4.407,0,0,1,103.18,115c-.87.445-.641.874-.265,1.478a74.991,74.991,0,0,0,4.342,6.368C107.487,123.143,107.642,123.565,108.308,123.6ZM337.679,476.085c-.969,0-1.944.058-2.908-.018-.84-.066-1.236.175-1.371,1.052-.2,1.3-.221,1.451.858,1.849a19.2,19.2,0,0,0,8.4,1.2c3.022-.265,3.443-.755,3.575-3.752.043-.981-.023-1.047-1.07-.975a8.748,8.748,0,0,0-1.019.135A29,29,0,0,1,337.679,476.085ZM53.849,351.33c.259,0,.83.181,1.025-.532.272-.989.54-1.979.826-2.964.137-.476,0-.786-.483-.9-2.551-.635-4.984-1.624-7.459-2.486-.62-.216-.962-.069-1.122.588A27.212,27.212,0,0,1,45.815,348c-.344.934.019,1.363.836,1.692A22.874,22.874,0,0,0,53.849,351.33Zm175.913-2.942a7.6,7.6,0,0,0,2.1-1.318c.716-.452.743-1.01.481-1.755a24.315,24.315,0,0,0-4.866-7.753c-.267-.308-.558-.6-1.015-.315a16.74,16.74,0,0,0-2.774,1.793A32.773,32.773,0,0,1,229.762,348.388ZM376.5,266.03l-.352-.061a93.382,93.382,0,0,1-5.992,9.712.991.991,0,0,0-.157.967,9.537,9.537,0,0,0,.955,2.306c.184-.034.324-.016.39-.076a24.748,24.748,0,0,0,6.178-8.5,1.483,1.483,0,0,0,.1-1.152C377.228,268.169,376.868,267.1,376.5,266.03Zm-275.539-149.2c-1.509,2.022-2.653,3.992-3.859,5.917-.406.648.009,1.065.461,1.453,1.723,1.477,5.528,1.3,7.169-.309.37-.364.535-.7.2-1.18C103.647,120.83,102.38,118.938,100.957,116.828ZM486.1,179.373a11.6,11.6,0,0,0,2.7-7.749c.008-2.384-2.1-7.25-3.581-8.639C485.425,168.548,485.383,173.959,486.1,179.373ZM64.03,454.641c.083.651-.234,1.346.256,1.851a1.651,1.651,0,0,0,2.489-.884,58.081,58.081,0,0,1,2.736-11.294c.116-.349.43-.826-.091-1.044-.5-.211-1.092-.483-1.6.016a3.48,3.48,0,0,0-.6.826A25.9,25.9,0,0,0,64.03,454.641Zm395.874-367c-.658-.756-1.321-.58-2.076-.11a5.483,5.483,0,0,1-3.59.862,3.33,3.33,0,0,1-2.526-1.562.63.63,0,0,0-.586-.29c-.824.063-1.649.14-2.447.208-.012.194-.038.286-.014.3.331.215.66.436,1.007.623a8.406,8.406,0,0,1,4.122,4.817,6.8,6.8,0,0,0,.2.654c.249.535.6.48.9.069a5.358,5.358,0,0,0,.444-.922,8.562,8.562,0,0,1,3.658-3.945C459.314,88.161,459.777,88.121,459.9,87.642ZM435.715,477.082a39.051,39.051,0,0,0,8.841-1.579c.382-.118.8-.162.667-.756-.19-.839-.7-1.384-1.3-1.211a50.991,50.991,0,0,1-8.547,1.556c-.355.038-.66.136-.674.594A1.238,1.238,0,0,0,435.715,477.082Zm5.392-377.92a40.123,40.123,0,0,1,.972-5.353,50,50,0,0,1,2.093-4.847C439.422,90.052,438.092,96.256,441.107,99.161ZM139.589,301.918a29.654,29.654,0,0,1,8.947,2.965,3.088,3.088,0,0,0-1.452-1.752,16.629,16.629,0,0,0-5.356-2.576C140.32,300.167,140.322,300.159,139.589,301.918ZM368.8,187.13c-.111,1.67.428,2.731,1.716,3.276a3.753,3.753,0,0,0,4.131-.841A62.524,62.524,0,0,0,368.8,187.13ZM60.446,458.074a2.246,2.246,0,0,0-.074-.466,10.132,10.132,0,0,0-2.9-4.158.816.816,0,0,0-1.223.027.828.828,0,0,0,.025,1.228,13.346,13.346,0,0,1,2.674,3.931.7.7,0,0,0,.867.379C60.27,458.9,60.432,458.55,60.446,458.074Zm90.75,16.071c.138-.054.419-.074.536-.223a19.389,19.389,0,0,1,3.17-3.287.686.686,0,0,0-.025-.941.754.754,0,0,0-.915-.267,6.9,6.9,0,0,0-3.5,3.548C150.225,473.5,150.472,473.974,151.2,474.145ZM54.837,456.962a.853.853,0,0,0-.788.406.783.783,0,0,0,.194,1.066,15.251,15.251,0,0,1,2.547,2.7.789.789,0,0,0,1.2.173.8.8,0,0,0,.207-1.068,7.9,7.9,0,0,0-2.959-3.177A1.1,1.1,0,0,0,54.837,456.962ZM156.7,471.62a1.63,1.63,0,0,0-.5.225,6.031,6.031,0,0,0-1.947,2.943.78.78,0,0,0,.384,1.019.831.831,0,0,0,1.165-.382,13.089,13.089,0,0,1,1.719-2.533.718.718,0,0,0,.047-.945A.886.886,0,0,0,156.7,471.62ZM92.252,100.893a30.808,30.808,0,0,1-3.9-3.979c-.447,1.024-.163,1.759.427,2a8.274,8.274,0,0,1,2.631,2.029C91.562,101.094,91.79,101.182,92.252,100.893Z" transform="translate(-41.468 -61.444)" fill="#282228"/>
          <path id="Trazado_20413" data-name="Trazado 20413" d="M232.3,242.673c1.619-.067,3.384-.04,5.139-.267a7.957,7.957,0,0,1,1.192-.039c.432.009.814.181.885.638.089.575-.321.834-.805.89-1.129.132-2.261.267-3.4.305-2.274.076-4.549.092-6.825.124a5.465,5.465,0,0,1-1.019-.074.8.8,0,0,1-.762-.938.766.766,0,0,1,.841-.682c.967,0,1.932.028,2.9.04C231.019,242.678,231.589,242.673,232.3,242.673Z" transform="translate(13.039 -8.207)" fill="#282228"/>
          <path id="Trazado_20414" data-name="Trazado 20414" d="M231.327,247.045c-.852,0-1.821.012-2.79,0-.547-.009-1.09-.141-1.06-.826.029-.634.536-.81,1.094-.843.114-.005.228-.008.342-.006,3.141.047,6.268-.245,9.4-.392.6-.028,1.321-.28,1.6.547.179.529-.373.95-1.466,1.037C236.114,246.746,233.779,246.881,231.327,247.045Z" transform="translate(13.267 -7.455)" fill="#282228"/>
          <path id="Trazado_20415" data-name="Trazado 20415" d="M134.979,145.86c-.419.019-.755-.056-.9-.43-.182-.459.069-.765.443-.981a3.61,3.61,0,0,1,.626-.265c2.05-.716,4.011-1.641,5.977-2.554a6.6,6.6,0,0,1,.945-.4.782.782,0,0,1,.989.461.767.767,0,0,1-.248.92,1.652,1.652,0,0,1-.428.28,59.922,59.922,0,0,1-6.951,2.876A3.453,3.453,0,0,1,134.979,145.86Z" transform="translate(-14.234 -37.976)" fill="#282228"/>
          <path id="Trazado_20416" data-name="Trazado 20416" d="M141.711,139.887a1.017,1.017,0,0,1-.692.889,53.627,53.627,0,0,1-6.668,2.533c-.447.138-.954.123-1.135-.434-.176-.54.181-.866.632-1.044,2.209-.881,4.421-1.762,6.647-2.6C141.213,138.96,141.742,139.3,141.711,139.887Z" transform="translate(-14.483 -38.582)" fill="#282228"/>
          <path id="Trazado_20417" data-name="Trazado 20417" d="M203.873,267.526a1.164,1.164,0,0,1-.533.854,82.271,82.271,0,0,1-7.623,5.494c-.459.277-.984.511-1.343-.072s.065-.975.511-1.264c2.491-1.614,4.8-3.469,7.14-5.29a2.188,2.188,0,0,1,.907-.444A.76.76,0,0,1,203.873,267.526Z" transform="translate(3.488 -1.019)" fill="#282228"/>
          <path id="Trazado_20418" data-name="Trazado 20418" d="M196.664,275.638a.789.789,0,0,1-.815-.333.645.645,0,0,1,.175-.914c2.613-1.741,5.121-3.625,7.635-5.5a.776.776,0,0,1,1.2.216.835.835,0,0,1-.237,1.077c-.166.157-.346.3-.523.441a69.675,69.675,0,0,1-6.28,4.46A2.925,2.925,0,0,1,196.664,275.638Z" transform="translate(3.926 -0.457)" fill="#282228"/>
          <path id="Trazado_20419" data-name="Trazado 20419" d="M363.048,137.9c2.112.476,4.234.91,6.332,1.439a62.537,62.537,0,0,1,7.483,2.415c.607.238,1.425.4,1.232,1.341-.126.611-.808.705-1.923.282a77.7,77.7,0,0,0-11.619-3.487,12.047,12.047,0,0,0-2.023-.326c-.551-.021-1.076-.158-1.02-.852.047-.563.514-.694,1-.714.171-.008.343,0,.514,0Z" transform="translate(52.707 -38.945)" fill="#282228"/>
          <path id="Trazado_20420" data-name="Trazado 20420" d="M373.271,172.273a.9.9,0,0,1-.487.934c-.687.4-1.369.813-2.088,1.149-1.848.868-3.712,1.706-5.576,2.539a4.994,4.994,0,0,1-1.13.36.743.743,0,0,1-.823-.471.759.759,0,0,1,.193-.929,2.718,2.718,0,0,1,.72-.441c2.555-1.1,5.1-2.207,7.566-3.5a1.813,1.813,0,0,1,.805-.236A.812.812,0,0,1,373.271,172.273Z" transform="translate(53.172 -29.007)" fill="#282228"/>
          <path id="Trazado_20421" data-name="Trazado 20421" d="M372.12,170.842a.884.884,0,0,1-.427.711,13.828,13.828,0,0,1-1.344.742q-3.244,1.536-6.5,3.044c-.606.281-1.354.774-1.751-.131-.387-.884.483-1.158,1.078-1.435,2.48-1.155,4.971-2.28,7.465-3.4a1.931,1.931,0,0,1,.821-.168A.645.645,0,0,1,372.12,170.842Z" transform="translate(52.853 -29.441)" fill="#282228"/>
          <path id="Trazado_20422" data-name="Trazado 20422" d="M119.295,231.833c.248-.729-.1-1-.818-1.072-.705-.067-1.727-.016-1.536-1.073.163-.907,1.11-.576,1.745-.5,1.3.161,2.589.381,3.872.623a4.591,4.591,0,0,1,1.276.47.752.752,0,0,1,.355,1.02.716.716,0,0,1-.844.419c-.391-.057-.769-.2-1.154-.294-.493-.119-.931-.072-1.065.516a.86.86,0,0,0,.712,1.148,7.7,7.7,0,0,0,1.188.035c.435.017.793.167.853.656a.9.9,0,0,1-.727,1A2.838,2.838,0,0,1,119.295,231.833Z" transform="translate(-19.266 -12.119)" fill="#282228"/>
          <path id="Trazado_20423" data-name="Trazado 20423" d="M135.742,234.243c-1.922.221-3.377-1.1-4.945-2.071a1.237,1.237,0,1,1,1.759-1.736c1.267,2.424,3.161,2.407,5.345,1.576.461-.175.932-.158,1.16.365.255.584-.057.982-.557,1.25A5.341,5.341,0,0,1,135.742,234.243Z" transform="translate(-15.314 -11.85)" fill="#282228"/>
          <path id="Trazado_20424" data-name="Trazado 20424" d="M131.5,222.572a1.516,1.516,0,0,1-.736,1.359,1.4,1.4,0,0,1-1.712-.358,4.018,4.018,0,0,1-1.195-2.924,1.28,1.28,0,0,1,.707-1.268,1.442,1.442,0,0,1,1.595.238A4.274,4.274,0,0,1,131.5,222.572Z" transform="translate(-16.046 -15.011)" fill="#282228"/>
          <path id="Trazado_20425" data-name="Trazado 20425" d="M129.025,216.109a3.823,3.823,0,0,1,.8.16.7.7,0,0,1,.474.808.687.687,0,0,1-.531.594,1.583,1.583,0,0,1-.5.067,2.19,2.19,0,0,0-2.435,1.68c-.176.527-.454.991-1.094.742-.61-.239-.529-.811-.41-1.321A3.783,3.783,0,0,1,129.025,216.109Z" transform="translate(-16.816 -15.932)" fill="#282228"/>
          <path id="Trazado_20426" data-name="Trazado 20426" d="M93.651,91.494c-2.007.167-3.621-.967-5.242-2.029a1.112,1.112,0,0,1-.094-1.78,1.19,1.19,0,0,1,1.79.234c1.2,1.967,3,2.046,4.938,1.641a2.76,2.76,0,0,0,2.35-1.749,1.106,1.106,0,0,1,1.22-.738,1.017,1.017,0,0,1,1.013.771,1.248,1.248,0,0,1-.531,1.341A7.568,7.568,0,0,1,93.651,91.494Z" transform="translate(-27.8 -53.902)" fill="#282228"/>
          <path id="Trazado_20427" data-name="Trazado 20427" d="M79.633,88.314c-2.178-.006-3.425-1.569-2.781-3.536.264-.806.158-1.131-.612-1.358a.725.725,0,0,1-.549-1.051c.19-.453.625-.456,1.029-.377A13.378,13.378,0,0,1,81.5,84.2a.774.774,0,0,1,.3,1.051c-.264.522-.711.494-1.169.269-.357-.177-.7-.382-1.059-.558-.557-.272-.884.052-1.072.5s.078.778.484.949a3.327,3.327,0,0,0,.826.185c.557.076,1.051.268,1,.923C80.745,88.309,80.1,88.286,79.633,88.314Z" transform="translate(-31.42 -55.409)" fill="#282228"/>
          <path id="Trazado_20428" data-name="Trazado 20428" d="M96.147,83.828a6.171,6.171,0,0,1-2.015,4.565c-.368.384-.823.718-1.342.291-.62-.509-.3-1.05.127-1.466a5.243,5.243,0,0,0,1.232-5.683,17.472,17.472,0,0,1-.456-2.349c-.07-.456-.079-.981.5-1.112.541-.123.854.233.967.735A27.069,27.069,0,0,1,96.147,83.828Z" transform="translate(-26.467 -56.557)" fill="#282228"/>
          <path id="Trazado_20429" data-name="Trazado 20429" d="M88.614,79.117c.008,1.283-.713,2.292-1.595,2.231s-1.444-1.118-1.259-2.423c.14-.982.711-1.618,1.447-1.609C88.021,77.327,88.608,78.078,88.614,79.117Z" transform="translate(-28.445 -56.773)" fill="#282228"/>
          <path id="Trazado_20430" data-name="Trazado 20430" d="M88.368,76.369a2.4,2.4,0,0,0-2.178.679c-.417.366-.929.586-1.353.127-.484-.525-.185-1.063.251-1.49a3.866,3.866,0,0,1,3.435-1.064c.945.137,1.424.593,1.338,1.218C89.785,76.393,89.534,76.482,88.368,76.369Z" transform="translate(-28.779 -57.582)" fill="#282228"/>
          <path id="Trazado_20431" data-name="Trazado 20431" d="M99.372,74.419a3.1,3.1,0,0,1,2.349,1.2.852.852,0,0,1-.012,1.228.752.752,0,0,1-1.081.027,2.1,2.1,0,0,0-2.655-.282.706.706,0,0,1-1.007-.349.873.873,0,0,1,.21-1.086A2.891,2.891,0,0,1,99.372,74.419Z" transform="translate(-25.168 -57.626)" fill="#282228"/>
          <path id="Trazado_20432" data-name="Trazado 20432" d="M97.5,79.223c.1-1.235.716-1.988,1.531-1.883.885.115,1.408,1.132,1.176,2.29-.227,1.135-.853,1.786-1.595,1.657C97.908,81.165,97.414,80.246,97.5,79.223Z" transform="translate(-24.983 -56.769)" fill="#282228"/>
          <path id="Trazado_20433" data-name="Trazado 20433" d="M311.7,161.449c.639.047,1.578-.234,1.675.685.118,1.125-.925.925-1.606.956-.868.038-1.275.2-1.227,1.276a2.9,2.9,0,0,1-2.878,3.166c-.554.065-1.083.01-1.252-.59-.186-.663.307-.881.852-1.01a5.6,5.6,0,0,0,.976-.3,1.2,1.2,0,0,0,.717-1.245c-.018-.461-.2-.793-.74-.639-.436.124-.857.305-1.29.437-.5.154-1.07.305-1.289-.359-.206-.624.286-.94.774-1.138a15.9,15.9,0,0,1,2.09-.725A13.018,13.018,0,0,1,311.7,161.449Z" transform="translate(36.252 -32.018)" fill="#282228"/>
          <path id="Trazado_20434" data-name="Trazado 20434" d="M294.419,170.278a2.557,2.557,0,0,1-.415-.041c-.572-.135-1.186-.3-1.095-1.051.075-.632.606-.774,1.161-.739a5.632,5.632,0,0,0,3.12-.709c.758-.414,1.46-.83,1.609-1.833a1.094,1.094,0,0,1,1.157-.841,1.074,1.074,0,0,1,1.082.69,1.281,1.281,0,0,1-.246,1.434A9.307,9.307,0,0,1,294.419,170.278Z" transform="translate(32.519 -30.953)" fill="#282228"/>
          <path id="Trazado_20435" data-name="Trazado 20435" d="M298.129,152.446c-.58.142-1.095.126-1.244-.531-.162-.711.342-1.019.912-1.208a3.465,3.465,0,0,1,4.134,2.586c.061.409.038.815-.387,1.029a.825.825,0,0,1-1.16-.361c-.123-.189-.2-.408-.33-.593C299.431,152.457,299.259,152.381,298.129,152.446Z" transform="translate(33.683 -35.212)" fill="#282228"/>
          <path id="Trazado_20436" data-name="Trazado 20436" d="M299.142,155.045a2.826,2.826,0,0,1-.843,2.239,1.174,1.174,0,0,1-1.393.334,1.264,1.264,0,0,1-.739-1.252,2.886,2.886,0,0,1,.716-1.882,1.239,1.239,0,0,1,1.359-.5A1.175,1.175,0,0,1,299.142,155.045Z" transform="translate(33.48 -34.229)" fill="#282228"/>
          <path id="Trazado_20437" data-name="Trazado 20437" d="M379.324,94.282c.163.443.325.809.434,1.191.607,2.148-1.626,4-3.691,3.73a.8.8,0,0,1-.72-.63.764.764,0,0,1,.549-.936c.419-.167.887-.217,1.3-.388a1.127,1.127,0,0,0,.729-1.514.875.875,0,0,0-1.336-.577,10.11,10.11,0,0,0-1.006.646.72.72,0,0,1-1.065-.1.821.821,0,0,1,.114-1.091,2.045,2.045,0,0,1,.379-.344,10.525,10.525,0,0,1,4.191-1.848c.488-.1,1.1-.215,1.35.392.311.744-.278.989-.83,1.21A3.248,3.248,0,0,0,379.324,94.282Z" transform="translate(56.489 -52.352)" fill="#282228"/>
          <path id="Trazado_20438" data-name="Trazado 20438" d="M361.963,102.318a5.785,5.785,0,0,1-2.968-.637c-.475-.272-.858-.657-.569-1.244.28-.567.778-.571,1.314-.329a4.866,4.866,0,0,0,4.287-.01,2.231,2.231,0,0,0,1.465-1.723,1.093,1.093,0,0,1,1.576-.977c.645.3.755.883.316,1.728A5.743,5.743,0,0,1,361.963,102.318Z" transform="translate(51.771 -50.898)" fill="#282228"/>
          <path id="Trazado_20439" data-name="Trazado 20439" d="M369.014,89.618c-.036,1.27-.769,2.176-1.716,2.121a1.684,1.684,0,0,1-1.424-1.966c.075-1.219.852-2.176,1.75-2.154C368.454,87.64,369.045,88.491,369.014,89.618Z" transform="translate(53.991 -53.741)" fill="#282228"/>
          <path id="Trazado_20440" data-name="Trazado 20440" d="M368.2,84.665a2.955,2.955,0,0,1,2.46,1.6.892.892,0,0,1-.157,1.232.764.764,0,0,1-1.186-.2,1.812,1.812,0,0,0-2.538-.588.792.792,0,0,1-1.156-.383c-.23-.51.094-.867.458-1.161A3.005,3.005,0,0,1,368.2,84.665Z" transform="translate(53.895 -54.612)" fill="#282228"/>
          <path id="Trazado_20441" data-name="Trazado 20441" d="M357.209,89.629c-.057.991-.208,1.831-1.064,2.291a1.053,1.053,0,0,1-1.267-.163,2.285,2.285,0,0,1-.608-2.484c.05-.162.092-.327.157-.483.254-.608.624-1.138,1.355-1.063a1.528,1.528,0,0,1,1.3,1.187A5.25,5.25,0,0,1,357.209,89.629Z" transform="translate(50.538 -53.712)" fill="#282228"/>
          <path id="Trazado_20442" data-name="Trazado 20442" d="M358.855,85.714c.026.623-.515,1.019-1.237.747a2.493,2.493,0,0,0-2.7.374.914.914,0,0,1-.148.085.725.725,0,0,1-.929-.123.747.747,0,0,1-.184-.931,2.725,2.725,0,0,1,2.383-1.4,2.811,2.811,0,0,1,2.639.84A1.428,1.428,0,0,1,358.855,85.714Z" transform="translate(50.371 -54.678)" fill="#282228"/>
        </g>
      </g>
    </g>
  </g>
</svg>
